<?xml version="1.0" encoding="UTF-8"?>
<svg xmlns="http://www.w3.org/2000/svg" viewBox="0 0 1121.57 428.89">
  <defs>
    <style>
      .cls-1 {
        fill: none;
      }

      .cls-2 {
        letter-spacing: 0em;
      }

      .cls-3 {
        fill: #e82e21;
      }

      .cls-4, .cls-5, .cls-6 {
        fill: #221f20;
      }

      .cls-5 {
        stroke: #d34130;
        stroke-miterlimit: 10;
      }

      .cls-7 {
        letter-spacing: 0em;
      }

      .cls-8 {
        font-family: Neue-Bold, Neue;
        font-size: 42px;
        font-weight: 700;
      }

      .cls-9 {
        letter-spacing: 0em;
      }

      .cls-10, .cls-6 {
        letter-spacing: .01em;
      }
    </style>
  </defs>
  <g id="Layer_7" data-name="Layer 7">
    <text class="cls-8" transform="translate(412.1 103.71) scale(.97 1)"><tspan class="cls-6"><tspan x="0" y="0">CENTER FOR </tspan></tspan><tspan class="cls-3"><tspan class="cls-10" x="-92" y="52">HUMAN LANG</tspan><tspan class="cls-9" x="256.76" y="52">U</tspan><tspan class="cls-2" x="294.02" y="52">A</tspan><tspan class="cls-10" x="327.41" y="52">GE </tspan></tspan><tspan class="cls-3"><tspan class="cls-10" x="-58.44" y="104">&amp; DEVE</tspan><tspan class="cls-7" x="117.12" y="104">L</tspan><tspan class="cls-10" x="142.95" y="104">OPMENT</tspan></tspan></text>
    <path class="cls-4" d="m718.83,75.48c.37.19.51.65.32,1.02-.12.23-.36.38-.62.4,0,0,.1-.02.06-.01-.04,0,.22-.11.16-.07-.07.04.27-.28.21-.19-.07.1.16-.46.14-.34-.02.12-.03-.37-.01-.3.02.07-.07-.17-.05-.14.03.06-.03-.05-.03-.05.05.07.26.31.52.6,1.01,1.46,2.19,3.7,3.69,6.68,1.25,2.54,2.46,5.5,3.74,8.27,1.18,2.66,2.32,4.97,3.37,6.92.95,1.98,1.78,3.55,2.48,4.74.65,1.11,1.17,1.84,1.46,2.1.22.2.23.53.03.75-.13.14-.33.2-.52.16-.76-.18-1.52-.91-2.43-1.97-.96-1.12-2.04-2.64-3.21-4.51-1.15-2.05-2.34-4.4-3.58-7.08-1.28-2.85-2.47-5.8-3.64-8.24-1.41-3.01-2.5-5.26-3.22-6.48-.24-.53-.44-.89-.4-1.45.01-.15.05-.34.18-.54.14-.22.43-.4.68-.43.23-.03.37.02.47.06.09.03.15.06.22.1"/>
    <path class="cls-4" d="m731.43,104.48c.02-.11.05-.22.09-.32.13-.3.18-.31.23-.38.28-.33.69-.52,1.12-.53.05,0,.37-.04.7-.13.06-.01.32-.15.77-.44.54-.37,1.6-1.26,4.02-3.15,1.28-1,2.96-2.31,5.2-3.98,2.37-1.76,5.3-3.97,8.98-6.51,2.61-1.76,5.49-3.84,8.8-5.95,3.41-2.18,7.2-4.39,11.35-6.63,3.75-2.03,7.65-3.93,11.64-5.63,2.27-.97,4.61-1.84,7-2.67,1.89-.58,3.68-1.2,5.51-1.71,3.92-1.19,7.7-1.99,11.06-2.62,3.06-.54,5.7-.89,7.87-.98,2.37-.12,4.53-.21,6.47-.18,2.5,0,4.49.15,6.1.39,1.57.26,2.78.61,3.82.95.31.09.64.19.95.29.19.06.36.16.49.31.19.21.36.4.55.6.2.21.2.55-.02.75-.05.05-.11.09-.18.11-.26.1-.53.2-.8.29-.19.07-.39.08-.58.04-.33-.07-.66-.14-1-.21-.99-.17-2.11-.34-3.53-.44-1.51-.13-3.37-.18-5.78-.09-1.81.09-3.89.3-6.26.55-1.91.23-4.4.71-7.33,1.38-3.29.72-6.91,1.58-10.63,2.82-1.59.57-3.31,1.3-5.16,2.01-2.4.82-4.66,1.65-6.8,2.55-3.84,1.63-7.62,3.47-11.25,5.44-4.06,2.2-7.76,4.36-11.06,6.47-3.19,2.04-6.04,4.07-8.7,5.87-3.66,2.42-6.58,4.53-9.02,6.24-2.26,1.58-3.96,2.81-5.31,3.75-2.52,1.76-3.73,2.57-4.79,3.02-.47.22-1.05.52-1.88.56-.65.02-1.2.01-1.84-.3-.39-.19-.67-.54-.78-.95-.03-.13-.09-.23-.03-.61m2.09-.92c.42-.03.78.28.81.69.03.42-.28.78-.69.81-.38.03-.58.08-.59.09-.38.17-.83,0-1-.37-.17-.38,0-.83.37-1,.31-.14.64-.18,1.11-.22"/>
    <path class="cls-4" d="m708.96,60.23c.37.19.51.65.32,1.02-.19.36-.62.51-.98.34-.6-.28-.93-.74-1.07-.94l.24.21s.24.09.17.07c-.11-.03.65-.08.46-.02-.1.03.37-.25.28-.17-.08.08.22-.33.18-.25-.05.1.07-.25.07-.21-.02.1.01-.11.01-.11,0,.01,0,.1.01.22.02.27.07.7.16,1.24.12,1.25.18,2.66.3,4.05.05,2.33.05,4.31.17,5.48.03.26.06.47.09.58.01.05.01.05.02.06.01.02-.26-.22-.15-.15.11.07-.45-.05-.36-.07.08-.02-.09.04-.08.03.05-.04.19-.21.34-.47.15-.25.47-.34.72-.2.23.13.33.41.23.65-.13.34-.25.6-.39.82-.14.22-.37.52-.83.52-.47,0-.75-.33-.91-.59-.16-.26-.26-.54-.35-.86-.39-1.35-.58-3.35-.84-5.57-.08-1.52-.1-2.95-.16-4.04,0-.72.06-1.24.19-1.68.07-.22.09-.46.48-.73.11-.08.27-.16.51-.16.26,0,.59.18.72.39.21.33.12.33.13.38l-.11-.31c.1.17.23.35.43.45"/>
    <path class="cls-4" d="m708.86,61.65c.38-.17.83,0,.99.38.16.36.01.79-.34.97-.24.12-.42.21-.61.28-.09.03-.18.06-.33.07-.16.01-.51,0-.76-.33-.47-.62-.09-.95.03-1.13.11-.17.24-.32.39-.48.64-.67,1.66-1.49,2.78-2.29.96-.68,1.95-1.21,2.77-1.6.49-.22.89-.42,1.33-.55.23-.07.49-.13.84-.06.37.07.78.41.93.75.25.58.06.95-.06,1.28-.12.33-.28.67-.46,1.04-.6,1.3-1.74,2.63-2.78,3.85-.76.89-1.45,1.65-1.96,2.2-.16.24-.38.48-.47.6-.02.02-.01.01-.02.02-.01.02.12-.28.08-.17-.02.06.07-.39.06-.27,0,.06-.01-.32,0-.23.01.09-.13-.43-.08-.31.05.12-.33-.46-.22-.35.16.17-.77-.4-.58-.35.09.02-.27-.04-.22-.04.05,0-.15,0-.12,0,.37,0,.72.15.96.43.1.11-.4-.3-.3-.25.13.07-.38-.13-.31-.11.06.01-.14-.01-.12-.01.03,0,.02,0,.11-.01.2-.03.5-.1.82-.15.4-.07.86-.15,1.33-.23.33-.06.66-.11.98-.17.35-.06.67-.12.98-.18.31-.07.6-.13.87-.21.17-.04.3-.08.42-.12.16-.04.27-.08.38-.11.52-.17,1.09-.02,1.44.4.05.06.08.07.18.25.02.04.04.07.05.11.09.23.08.31.09.43.03.54-.27,1.05-.76,1.29-.16.08-.32.15-.49.21-.2.07-.37.13-.54.18-.39.11-.74.19-1.1.26-.36.07-.72.13-1.07.19-.38.05-.73.09-1.06.13-.51.05-.98.09-1.39.12-.2.02-.5.08-.83.11-.17.02-.34.03-.57,0-.25-.03-.72-.05-1.1-.64-.2-.31-.25-.7-.13-1.05.11-.34.38-.58.52-.67.12-.08.17-.09.2-.1.03-.01.04-.02.06-.02.03-.01.07-.03.12-.05.11-.05.28-.15.46-.31.42-.47,1.1-1.21,1.83-2.07,1.03-1.2,2.09-2.48,2.53-3.41.16-.36.3-.66.36-.86.03-.09.04-.13.04-.14,0,0,0,.13,0,.08,0-.05.11.31.07.22-.03-.07.33.33.22.26-.11-.08.39.13.31.12-.08-.01.14,0,.13,0,0,0-.02,0-.06.02-.18.06-.57.26-1.06.48-.8.34-1.71.78-2.57,1.34-1.08.69-2.1,1.45-2.66,1.95-.13.11-.22.2-.26.25-.02.02.04-.06.01-.02-.01.03.08-.21.06-.14-.02.08-.03-.54,0-.38.04.17-.41-.53-.29-.44.09.07-.31-.13-.24-.12.09.02-.21-.02-.18-.02.03,0-.04,0-.04,0,.03,0,.17-.05.37-.14"/>
    <path class="cls-4" d="m722.93,69.69c-.56.48-1.41.42-1.89-.15-.48-.56-.42-1.41.15-1.89.18-.16.41-.26.65-.3.14-.02-.27.07-.23.06.12-.04-.1.04-.08.03.02,0,.06-.03.1-.05.08-.03.15-.06.23-.08,1.19-.3,5.21-2.02,7.46-3.46.25-.16.58-.08.73.16.13.21.1.49-.08.66-2.07,2.03-5.96,4.17-6.96,4.96-.07.05-.14.1-.21.14-.02.01.12-.08.05-.04-.02.01.12-.1.08-.06m-1.81-12.65c.39-.15.83.04.98.43.1.25.06.53-.11.74-.06.08.09-.19.09-.16,0,.02,0-.02,0,0,0,.05,0,.15,0,.28.01.29.05.69.12,1.15.14.97.35,2.17.57,3.33.28,1.8.45,3.37.59,4.4.06.44.11.78.14.92.01.07.02.14.03.21.03.63-.3,1.08-.52,1.29-.05.05-.11.09-.16.13-.6.43-1.44.29-1.87-.31-.29-.4-.33-.93-.11-1.37.15-.32.14-.23.15-.24.02-.03-.17.33-.12.21.05-.13-.05.66-.07.49,0-.07,0-.14,0-.21,0-.16.01-.47,0-.91-.05-1.04-.13-2.57-.31-4.29-.09-1.22-.19-2.46-.19-3.52,0-.52.01-.98.08-1.39.03-.2.08-.39.16-.59.09-.2.22-.46.58-.6"/>
    <path class="cls-4" d="m722.95,63.89c-.37.19-.82.05-1.02-.32-.19-.37-.05-.82.32-1.02.02,0,.03-.02.05-.02,2.11-.92,5.3-2.58,7.12-3.55.26-.14.58-.04.72.22.13.24.05.55-.18.7-1.76,1.13-4.89,2.89-7,3.99"/>
    <path class="cls-4" d="m723.38,58.05c.35.23.44.7.21,1.05-.15.23-.41.36-.69.33-.11,0-.23-.02-.41-.1-.2-.1-.47-.36-.53-.67-.12-.59.18-.87.38-1.09.05-.05.11-.1.17-.15,1.12-.77,3.26-1.57,5.2-2.73.83-.39,1.53-.77,2.1-1.17.24-.17.57-.12.74.12.14.19.13.45-.01.64-.5.64-1.16,1.24-1.87,1.8-2.12,1.36-4.4,2.38-5.01,2.87-.06.05-.12.09-.19.12-.06.03-.1.05-.11.06,0,0,.18-.19.1-.09-.04.05.17-.38.14-.26-.04.12-.02-.51,0-.39.03.11-.18-.32-.13-.26.04.05-.12-.1-.1-.09"/>
    <path class="cls-4" d="m735.75,64.67c.28.39.18.94-.21,1.21s-.94.18-1.21-.21c-.28-.39-.18-.94.21-1.21.29-.2.67-.21.97-.02.14.09-.32-.12-.26-.11.09.02-.24-.02-.2-.02.12,0-.18.03-.17.03,0,0,.29-.15.67-.44.24-.17.57-.12.74.12.13.18.14.43,0,.62-.27.39-.41.66-.41.67,0,.01.02-.16.02-.1,0,.03-.01-.21,0-.14,0,.03-.04-.18-.03-.13.02.06-.22-.39-.12-.26m-.82-12.1c.09.01.18.04.26.08.58.25.51.45.58.61.07.15.1.29.12.42.04.26,0,.52-.12.76-.34.67-.9,1.49-1.45,2.38-.59.96-1.1,1.94-1.34,2.61-.16.34-.21.49-.21.52,0,0-.01-.15,0-.08.01.07-.19-.38-.12-.28l-.18-.18c.08.06-.28-.15-.22-.12.09.03-.18-.03-.16-.03.01,0,0,0,.05,0,.12-.02.35-.1.63-.21.59-.24,1.33-.61,2.08-.95.87-.38,1.71-.77,2.52-.98.34-.09.66-.19,1.05-.23.2-.02.45-.03.75.07.31.1.64.38.79.7.41.77.1,1.39-.11,1.95-.21.56-.49,1.11-.74,1.63-.62,1.26-1.45,2.42-2.16,3.32-.55.69-.97,1.16-1.16,1.35-.4.41-1.06.43-1.47.03-.39-.37-.43-.98-.09-1.4.17-.21.55-.64,1.04-1.28.66-.84,1.41-1.91,1.91-2.95.26-.53.53-1.05.69-1.46.08-.19.12-.35.14-.44,0-.03,0,0,0-.02,0-.03.1.29.06.19-.02-.04.32.34.23.28-.09-.07.33.15.26.13-.08-.02.16.02.14.02-.02,0,.02,0,0,0-.1.02-.39.1-.77.21-.56.15-1.34.5-2.19.88-.72.32-1.48.68-2.2.95-.35.13-.69.25-1.06.3-.37.06-.89.11-1.38-.33l.21.15c-.47-.24-.75-.77-.83-1.21-.07-.43-.01-.84.09-1.24.4-1.07.99-2.13,1.65-3.18.56-.91,1.11-1.77,1.31-2.19.12-.23.3-.43.53-.55.16-.09.05-.31.86-.2"/>
    <path class="cls-4" d="m743.7,51.93c.41.04.71.42.67.83-.04.34-.3.61-.63.66-.05,0,.25-.18.2-.12-.04.05.04-.07.03-.03-.02.12-.02.42.03.81.11.84.39,1.99.68,3.18.37,1.74.64,3.35.86,4.5.06.46.1.79.14,1.09.08.36.05.74.06.82,0,0-.03-.14-.01-.08,0,.04-.07-.21-.05-.15.03.07-.2-.34-.14-.24.06.08-.41-.37-.29-.28.12.09-.55-.22-.41-.18.13.03-.43-.03-.34-.03.09,0-.25.04-.2.03.26-.04-.03.02-.02.01.1-.05.97-.85,1.93-1.66.81-.65,1.68-1.28,2.58-1.9,2.02-1.12,3.99-2.1,5.64-2.89.26-.13.58-.01.71.25.1.21.05.47-.13.63-1.37,1.21-3.08,2.59-4.64,4-.94.71-1.73,1.33-2.42,1.93-.49.41-.95.86-1.41,1.26-.45.4-.83.86-1.73.99-.39.02-.7-.02-1-.21-.32-.2-.52-.53-.6-.77-.15-.45-.08-.65-.06-.8.03-.27.06-.42.05-.51-.03-.16-.09-.48-.16-.87-.15-1.25-.34-2.84-.61-4.51-.17-1.25-.34-2.47-.33-3.53,0-.51.05-.99.26-1.44.11-.23.27-.46.52-.63.25-.16.56-.22.83-.19"/>
    <path class="cls-4" d="m746.26,58.98c-.16-.16-.25-.36-.26-.59-.04-.6.14-.56.19-.64.1-.14.19-.21.27-.29.05-.05.11-.09.17-.12.33-.19.88-.51,1.5-.94,1.48-.77,3.04-1.84,3.44-2.76.12-.27.43-.39.7-.27.22.1.35.33.31.56-.24,1.62-1.89,3.04-3.21,4.13-.8.52-1.4.85-1.79,1.05-.06.03-.13.06-.2.07-.13.03-.24.07-.44.06-.12,0-.23.18-.68-.28m.74-1.54c.4-.13.82.09.95.49.1.3,0,.64-.26.83-.06.05-.09.08-.1.08,0,0,.09-.12.05-.07-.02.03.1-.2.07-.14-.01.04.06-.21.04-.15,0,.03.02-.18.01-.13,0,.05-.04-.32-.02-.22.11.46-.19.92-.65,1.03-.46.11-.92-.19-1.03-.65-.11-.46.19-.92.65-1.03.26-.06.53,0,.74.18.15.12-.34-.17-.28-.15.1.03-.25-.04-.2-.04.12,0-.13,0-.11,0,.02,0,.07-.02.14-.04"/>
    <path class="cls-4" d="m745.27,54.89c-.59.45-1.43.34-1.89-.25-.31-.4-.37-.95-.14-1.41.28-.57.63-.81,1.02-1.12.44-.33.92-.63,1.48-.96.66-.34,1.31-.65,2-.97.67-.32,1.42-.67,2.19-1.01.37-.17.77-.35,1.17-.52.4-.17.8-.35,1.21-.52.4-.17.81-.33,1.22-.5.52-.21,1.12-.13,1.57.21.2.15.39.3.56.45.14.12.21.31.17.49-.04.21-.08.43-.13.66-.11.55-.51,1.01-1.04,1.2-.39.14-.78.28-1.18.43-.39.15-.79.3-1.18.46-.39.15-.78.31-1.15.47-.74.31-1.46.64-2.13.95-.63.31-1.22.61-1.74.9-.62.29-1.07.52-1.41.7-.37.19-.6.33-.6.33m.26-1.69c.42-.03.78.28.81.69.03.34-.18.65-.5.77-.37.13-.66.23-.87.29-.1.03-.18.06-.28.08-.1.02-.23.13-.68-.03-.56-.2-.84-.82-.64-1.38.2-.56.82-.84,1.38-.64s.84.82.64,1.38c-.03.08-.07.16-.12.23-.06.09.18-.47.15-.34-.05.2-.09-.73-.03-.57.06.15-.27-.39-.2-.32.08.08-.24-.16-.2-.14.04.02-.06-.02-.06-.02.03,0,.26.03.6,0"/>
    <path class="cls-4" d="m760.46,59.99c.29.18.38.56.2.85-.18.29-.56.38-.85.2-.29-.18-.38-.56-.2-.85.12-.18.32-.29.54-.29.11,0-.23.04-.19.03.13-.04-.22.13-.19.11.06-.06-.04.04-.02,0,.15-.25.48-.33.73-.18.16.1.26.28.25.47,0,.04,0,.03,0,.04,0,.01-.03-.11-.02-.07,0,.02-.07-.13-.04-.09.01.02-.08-.11-.05-.08.03.03-.24-.19-.15-.13m1.92-10.52c.17-.2.43-.3.7-.27.25.03.36.13.45.21.35.33.27.49.29.62.03.25,0,.47-.03.73-.24,1.18-.7,2.95-1.19,4.79-.44,1.55-.88,3.02-1.19,4.08-.26.6-.41.96-.65,1.25-.07.08-.02.22-.48.31,0,0-.05.01-.14.01-.12,0-.24-.04-.34-.1-.07-.04-.11-.08-.14-.11-.33-.3-.21-.4-.22-.5-.05-.38.02-.76.09-1.28.32-1.19.74-2.66,1.16-4.19.54-1.84,1.05-3.59,1.31-4.61.1-.31.17-.49.22-.62.02-.06.03-.1.09-.21.02-.03.03-.06.09-.13m.71,1.25c-.41.07-.8-.2-.88-.61-.01-.07-.02-.14,0-.21,0-.02,0,.24,0,.14-.04-.42.27-.79.69-.83.42-.04.79.27.83.69.04.42-.27.79-.69.83-.15.01-.3-.02-.43-.09-.12-.06.38.09.3.09-.08,0,.24-.02.19,0"/>
    <path class="cls-4" d="m763.84,45.78c.26.33.2.8-.13,1.06-.28.22-.68.21-.95-.02-.02-.01.11.08.08.05-.06-.04.52.1.34.09-.09,0,.42-.12.32-.07-.11.05.33-.28.26-.21-.09.11.15-.32.13-.26-.03.09.03-.19.03-.17,0,.02,0-.03,0-.03,0,.03.05.23.12.48.16.55.45,1.34.81,2.18.58,1.34,1.52,2.75,2.37,3.98.72,1.11,1.32,1.95,1.81,2.65.5,1.02.77,1.81.65,2.51-.05.3-.34.5-.64.45-.18-.03-.33-.15-.41-.31-.14-.3-.54-.71-1.17-1.37-.57-.8-1.21-1.66-1.94-2.79-.81-1.33-1.74-2.87-2.33-4.45-.35-.92-.61-1.78-.75-2.44-.07-.32-.12-.57-.1-.86.01-.16-.06-.54.53-.78.29-.12.61,0,.75.09.12.08.17.15.22.21"/>
    <path class="cls-4" d="m759.61,59.43c.38-.18.83-.02,1,.36.17.36.03.79-.31.98-.52.29-.93.51-1.25.65-.15.07-.27.12-.4.17-.06.02-.12.04-.25.06-.17.02-.66,0-.91-.48-.32-.51-.02-.85.08-1.01.1-.15.19-.24.29-.33.2-.18.43-.35.7-.54.56-.39,1.27-.83,2.03-1.3,1.23-.71,2.58-1.46,3.98-2.2,1.46-.72,2.91-1.4,4.26-2.01,1.49-.49,2.74-.85,3.75-1.03.29-.05.56.14.62.43.04.21-.05.43-.24.54-.83.53-1.9,1.21-3.1,1.98-1.4.71-2.8,1.44-4.18,2.19-1.43.72-2.77,1.42-3.95,2.07-.84.43-1.59.79-2.15,1.08-.27.13-.48.25-.63.33-.07.04-.11.07-.13.07,0,0,.06-.05.04-.03-.02.01.1-.11.07-.07-.03.04.17-.29.13-.19,0,0,.08-.51.08-.38,0,.19-.29-.65-.19-.52.1.12-.36-.26-.28-.23.08.04-.3-.08-.25-.07.05,0-.11,0-.09,0,.06,0,.02,0,.13-.04.24-.07.64-.23,1.14-.47"/>
    <path class="cls-4" d="m775.6,44.98c.39-.15.82.05.97.44.15.39-.05.82-.44.97-.04.01-.07.02-.11.03-.1.02.13-.1.09,0-.05.13-.11.38-.13.71.07.61.27,1.56.52,2.58.2,1.04.38,2.02.56,2.95.13.71.25,1.36.37,1.95.1.62.2,1.14.29,1.56.07.5.13.82.17.98.08.32-.01.66-.24.9-.03.04-.05.07-.18.15-.05.03-.11.06-.16.08-.16.06-.22.06-.28.06-.33.02-.64-.13-.84-.4-.25-.34-.39-.73-.55-1.19-.15-.56-.26-1.1-.38-1.71-.1-.66-.2-1.33-.29-2.04-.11-.97-.23-1.97-.34-2.97-.07-1.14-.09-2.18.04-3.05-.01-.31,0-.69.12-1.05.11-.37.36-.79.82-.96"/>
    <path class="cls-4" d="m776.42,49.15c.42.01.74.36.73.78-.01.37-.3.68-.67.72-.24.03-.44.05-.69,0-.26-.04-.75-.31-.83-.79-.08-.45.1-.72.24-.93.14-.2.3-.36.48-.53.76-.7,1.91-1.44,3.18-2.25,1.42-.86,2.85-1.82,4.12-2.47.67-.31,1.2-.63,2.01-.61.44.04.82.24,1.04.5.22.26.3.51.34.72.08.4.04.73-.03,1.07-.14.69-.44,1.44-.9,2.18-.76,1.32-1.97,2.53-3.17,3.55-.99.84-2.01,1.39-2.73,1.79-.26.18-.46.33-.48.35-.02.02.18-.29.12-.18-.03.06.12-.41.09-.28-.02.13-.09-.71-.03-.51.06.21-.48-.65-.33-.53.14.12-.42-.24-.34-.21.05.02-.22-.06-.19-.06.03,0-.04,0-.04,0,.08,0,.15.03.22.05.23.07,2.38.08,4.29-.03.71-.02,1.31-.02,1.86-.03.85.06,1.45.1,1.94.08.09,0,.19,0,.28.02.45.08.82.11,1.2.03.29-.06.57.12.63.4.03.13,0,.28-.07.39-.31.51-.79.96-1.38,1.32-.08.05-.16.09-.25.11-.68.22-1.4.33-2.16.42-.71.02-1.31.03-1.93.05-1.02,0-2.05,0-2.97-.06-.9-.05-1.62-.06-2.37-.43-.08-.04-.15-.08-.21-.14-.15-.12-.37-.31-.46-.72-.1-.44.13-.96.32-1.15.32-.32.41-.28.52-.33.21-.09.47-.19.82-.35.63-.37,1.51-.87,2.3-1.55,1.09-.94,2.14-2.05,2.71-3.06.28-.53.44-1.1.47-1.44,0-.08,0-.13,0-.16,0-.02.05.13.02.06-.01-.04.12.21.08.15-.04-.06.3.28.2.21-.09-.06.47.2.35.17-.12-.03.45.01.35.02-.17.01-.46.14-1.02.42-1.13.51-2.59,1.4-4.06,2.22-1.34.7-2.51,1.34-3.18,1.78-.15.1-.26.18-.32.23-.02.02,0,0-.02.02-.02.02.13-.31.09-.19-.02.06.02-.34.03-.24,0,.14-.22-.48-.15-.39.07.09-.23-.18-.18-.16.1.05-.03-.01.11,0"/>
    <path class="cls-4" d="m796.42,41.96c.16.38-.02.83-.4.99-.33.14-.72.02-.92-.28,0,0,.11.09.06.06-.05-.03.29.08.21.07-.08,0,.2-.03.17-.02-.03,0,.03-.01,0,0-.11.08-.37.38-.66.83-.62.96-1.3,2.39-1.87,3.84-.43,1.04-.77,2.02-.94,2.78-.11.42-.09.66-.06.74.02.05-.2-.11-.11-.07.07.03-.13-.03-.11-.03.02,0,.24-.04.61-.23.92-.4,2.17-1.29,3.55-2.44,1.08-.75,2.14-1.55,3.23-2.41.23-.18.56-.14.75.09.15.19.15.46,0,.66-.86,1.1-1.71,2.16-2.52,3.12-1.41,1.39-2.63,2.48-3.79,3.17-.86.44-1.76.79-2.73.36-.63-.29-1.08-.88-1.26-1.52-.18-.64-.14-1.33.06-2.04.3-.96.74-2,1.25-3.07.74-1.5,1.56-2.96,2.42-4.03.41-.51.81-.95,1.34-1.19.28-.13.65-.2,1.01-.07.37.13.59.44.71.71"/>
    <path class="cls-4" d="m803.54,50.49c.27.12.4.44.28.71-.12.27-.44.4-.71.28-.27-.12-.4-.44-.28-.71.09-.21.3-.34.53-.33.07,0-.16.01-.13,0,.14-.03.29,0,.41.09.02.01-.15-.08-.09-.05m-2.2-8.8c.01-.42.36-.74.78-.73.3.01.56.2.67.47.16.41.32.88.47,1.39.1.37.2.74.29,1.11.12.67.22,1.27.31,1.87.09.63.17,1.22.24,1.79.07,1.22.12,2.19.16,2.82,0,.12,0,.23-.03.34-.04.14-.07.27-.13.4-.05.13.1.25-.46.56-.09.05-.19.08-.3.1-.75.1-.72-.2-.85-.34-.13-.13-.22-.26-.31-.4-.06-.1-.11-.2-.14-.32-.18-.7-.34-1.66-.51-2.78-.06-.67-.1-1.27-.15-1.87-.04-.63-.07-1.23-.11-1.81,0-.47,0-.84,0-1.19.01-.54.03-1.01.04-1.41"/>
    <path class="cls-4" d="m811.34,52.29c.31-.42.91-.52,1.33-.21.43.31.52.91.21,1.33-.31.43-.91.52-1.33.21-.34-.25-.47-.68-.34-1.07.05-.16-.05.27-.05.23,0-.04,0,.1,0,.08,0-.11,0,.01-.04-.12-.04-.14-.1-.35-.18-.6-.09-.28.06-.58.34-.67.19-.06.41,0,.55.14.17.18.3.29.37.33.03.02-.04,0,0,0,.02,0-.17-.02-.11-.02.06,0-.38.06-.26.03.06-.02-.26.12-.19.08.04-.02-.17.12-.13.08.05-.04-.25.28-.17.18m-.97-10.89c.37.18.53.63.35,1.01-.03.06-.06.11-.11.16-.11.12.17-.36.15-.29-.02.08.02-.12.02-.11,0,0,0,.01,0,.03,0,.07.02.19.04.35.05.34.12.81.23,1.35.22,1.13.54,2.48.94,3.64.25.9.61,1.63.91,2.41.19.49.36.97.49,1.4.12.55.2.93.15,1.41-.03.26-.13.5-.29.7-.16.19-.19.6-1.14.49-.11-.01-.23-.04-.33-.09-.59-.25-.44-.31-.5-.39-.17-.2-.27-.44-.3-.69,0-.04-.06-.3-.17-.63-.11-.44-.23-.86-.39-1.3-.23-.64-.62-1.5-.9-2.59-.27-1.43-.44-2.89-.49-4.14-.02-.6-.02-1.13.03-1.58.03-.22.06-.42.14-.63.04-.11.1-.24.25-.38.16-.15.58-.33.93-.16"/>
    <path class="cls-4" d="m800.99,49.06c-.06-.16-.09-.34-.09-.52,0-.06,0-.1.01-.14.1-.72.28-.67.38-.77.14-.15.3-.27.49-.34.46-.19,1.3-.6,2.32-1.08,1.18-.51,2.69-1.31,4.51-2.08,2.51-1,5.34-1.84,8.06-2.5,3.27-.7,6.17-.77,8.2-.81,2.08.11,3,.39,3.12.37.29-.05.56.14.61.43.02.09,0,.18-.02.27-.31.87-1.58,1.1-3.44,1.47-2.11.26-4.81.52-7.68,1.32-2.64.67-5.33,1.51-7.59,2.45-1.74.68-3.23,1.41-4.57,1.92-1.08.38-1.96.71-2.73.86-.19.04-.4.03-.59-.02-.21-.05-.51.08-.93-.7-.02-.04-.04-.08-.06-.14m3.95-2.2c.41-.1.81.15.91.56.09.39-.14.78-.52.9-.89.26-1.69.54-2.18.73l.18-.1c-.08.06-.14.12-.16.13,0,0,.05-.07.03-.04-.01.02.07-.14.05-.1-.02.05.09-.35.07-.23,0,.05.01-.28.01-.2,0,.04-.02-.21-.01-.15.01.06-.12-.37-.07-.25.24.58-.03,1.24-.61,1.48-.58.24-1.24-.03-1.48-.61-.24-.58.03-1.24.61-1.48.43-.18.92-.08,1.24.25.08.08-.21-.17-.17-.14.11.08-.28-.13-.23-.12.08.03-.16-.04-.14-.04.12.02.1,0,.34-.01l-.2.03c.56-.16,1.4-.39,2.33-.62"/>
    <path class="cls-4" d="m739.8,73.89c.39.16.57.6.42.98-.13.32-.46.51-.8.46-.09-.01-.13-.01-.31.16-.21.2-.49.6-.81,1.15-.64.97-1.35,2.06-1.82,3-.25.51-.39.97-.4,1.16-.02.12-.1-.27-.05-.17.04.09-.18-.2-.15-.18.05.03.05.02.24,0,.6-.08,1.93-.88,3.06-2.01,1.09-1.03,1.87-2.44,2.3-3.65.32-.94.19-1.7-.05-2.04-.1-.17-.23-.27-.56-.3-.35-.04-.84.03-1.29.23-.46.19-.87.49-1.12.82-.24.32-.35.67-.25,1.07.07.28-.1.57-.38.64-.25.06-.52-.07-.62-.31-.3-.7-.21-1.48.13-2.12.34-.64.89-1.16,1.52-1.54.63-.38,1.34-.64,2.08-.67.75-.04,1.61.17,2.2.86.83,1.1.95,2.6.47,4.09-.47,1.5-1.33,3.24-2.72,4.64-1.41,1.34-2.93,2.43-4.54,2.58-.56.07-1.17,0-1.72-.33-.56-.35-.97-1.12-.88-1.85.14-.72.43-1.32.78-1.95.59-1.07,1.37-2.18,2.04-3.11.48-.61.92-1.09,1.45-1.42.52-.33,1.22-.44,1.79-.21"/>
    <path class="cls-4" d="m750.22,70.72c.27.32.23.79-.08,1.06-.28.24-.68.24-.96.01-.05-.04.02-.01-.02-.03-.02,0,.2.02.14.02-.07,0,.3-.08.23-.04-.07.03.26-.19.21-.14-.05.05.11-.16.09-.12-.03.06.02-.06.02-.03-.04.2-.02.8.07,1.54.16,1.57.47,3.57.86,5.1.2,1.64.45,2.52.72,2.88.24.34.16.81-.17,1.05-.23.17-.54.19-.8.05-.92-.5-1.57-1.68-2.09-3.31-.34-1.88-.54-3.95-.58-5.62,0-.86,0-1.57.29-2.21.07-.16.17-.34.35-.49.18-.16.46-.29.73-.28.27,0,.48.11.63.21.15.1.26.22.37.35"/>
    <path class="cls-4" d="m749.82,70.73c.29-.09.6,0,.8.23.06.07-.1-.09-.1-.09,0,0,.04.02.09.05.19.08.34.22.46.39.14.21.96.86,2.05,1.51.74.43,1.6.88,2.48,1.31,1.12.61,2.21,1.15,3.15,1.6.72.44,1.22.77,1.63,1.04.19.13.36.25.5.36.14.11.28-.03.46.58.06.21.03.43-.08.62-.28.47-.48.38-.62.4-.84.15-1.68-.18-2.86-.56-1.14-.51-2.27-1.06-3.4-1.66-.93-.54-1.81-1.08-2.59-1.62-1.15-.78-2.13-1.46-2.63-2.46-.09-.18-.13-.39-.11-.59.04-.46.39-.97.77-1.09"/>
    <path class="cls-4" d="m757.44,67.32c.07-.18.19-.33.35-.44.25-.16.39-.14.51-.14.66.03.78.34.97.58.45.74.7,1.53.96,2.44.25.96.47,1.99.68,3,.22,1.43.42,2.74.61,3.69.04.66.06,1.04.08,1.29,0,.11.02.19.02.21,0,0-.07-.18-.04-.1.04.08-.43-.3-.3-.26.27.08.43.37.36.65-.02.07-.05.18-.17.3-.14.14-.36.21-.53.21-.34,0-.57-.18-.74-.34-.34-.32-.58-.75-.81-1.24-.37-1.23-.64-2.55-.93-3.89-.17-1.09-.33-2.1-.5-2.99-.15-.89-.3-1.61-.45-2-.08-.31-.13-.37-.13-.67,0-.06-.02-.11.05-.32m1.59.15c.41.09.67.49.58.9-.09.41-.49.67-.9.58-.69-.15-1.07-.64-1.21-1.06l.4.45s.37.08.22.06c-.42-.05-.72-.43-.67-.85.05-.42.43-.72.85-.67.42.05.72.43.67.85-.03.24-.16.45-.37.57-.09.06.22-.19.18-.15-.04.04.1-.14.08-.11l.07-.62c.02.05.01.03.09.05"/>
    <text/>
  </g>
  <g id="Layer_6" data-name="Layer 6">
    <path class="cls-4" d="m1076.66,97.6c7.96-8.69,13.53-19.12,20.7-28.39,1.5-1.93,2.94-3.93,4.47-5.83.71-.87,1.52-1.74,2.86-.83,1.33.89,1.75,1.88.79,3.33-1.98,3.01-3.79,6.14-5.86,9.09-20,28.58-40,57.16-60.13,85.65-2.64,3.75-5.2,7.03-5.31,12.13-.09,4.95-7.47,7.94-12.04,5.5-.98-.53-1.74-1.52-2.76-1.9-2.74-1.04-6.34-1.94-7.91.56-1.19,1.89,1.74,4.4,3.6,5.75,7.07,5.11,13.51,10.98,20.25,16.49,10.48,8.55,15.89,19.22,13.94,32.94-.54,3.81,1.28,5.26,4.48,5.68,3.39.45,6.64,1.57,9.96,2.02,5.63.78,8.97,3.52,11.64,8.53,3.6,6.72,10.29,9.64,17.55,11.13,1.84.38,3.74.49,6.29.8-4.06-5.58-8.55-10.14-13.96-13.75-4.08-2.72-7.12-6.2-9.06-10.66-3.87-8.92-9.47-16.66-15.54-24.19-2.57-3.18-4.47-7-6.26-10.72-4.84-10.1-12.41-18.61-16.69-29-.54-1.3-2.4-2.97-.69-3.98,2.13-1.26,2.57,1.35,3.45,2.64,3.61,5.3,7.23,10.6,10.84,15.91,1.65,2.41,4.06,3.76,6.51,5.31,9.56,6.06,19.33,12,27.24,20.19,3.92,4.06,7.66,7.82,13.53,8.67,1.96.29,4.07.67,4.97,3.92-7.31-1.69-14.25-1.66-19.25-8.33-3.31-4.41-8.65-7.25-13.22-10.46-4.22-2.97-8.86-5.51-13.54-9.18,2.3,8.69,9.26,13.54,12.69,20.6.41.85,1.17,1.53,1.51,2.4,2.5,6.2,6.75,8.79,13.45,6.9,1.83-.53,3.64-.24,5.44.8,7.45,4.3,11.3,3.82,17.38-1.89.71-.66,1.43-1.44,2.39-.67.94.74.38,1.66-.01,2.55-2.9,6.67-12.66,8.9-20.36,5.65-3.35-1.42-6.63-2.73-10.49-2.32.02,6.51,5.1,9.43,8.95,12.93,5.08,4.61,9.37,9.96,14.36,14.62,1.28,1.19,1.99,2.26,1.33,3.92-.61,1.54-2.08,1.46-3.37,1.66-13.28,1.9-23.66-2.61-31.02-13.93-1.72-2.64-3.81-4.36-7.3-4.65-4.46-.38-8.68-2.18-13.23-2.7-4.81-.54-5.31-4.64-4.92-8.77.95-10.02-1.02-19.14-8.69-26.28-7.65-7.11-15.45-14.06-23.09-21.19-2.34-2.2-4.32-4.87-5.03-8.07-.85-3.83-3.58-3.72-6.52-3.89-3.16-.19-3.67,1.94-4.32,4.17-5.42,18.65-16.03,34.11-29.53,47.76-1.38,1.4-1.67,2.88-2.12,4.46-1.84,6.61-5.98,10.93-12.72,12.28-1.99.4-2.21,1.41-2.81,2.86-5.21,12.49-13.75,20.92-27.18,25.03-11.94,3.66-24.22,6.16-35.86,10.8-2.6,1.03-5.44,1.6-8.19.11-3-1.62-4.3-.31-5.27,2.58-2.74,8.19-9.08,12.81-16.78,15.67-2.93,1.09-5.99,1.91-7.32,4.91-5.71,12.89-16.87,18.01-29.4,21.8-9.48,2.86-19.09,5.51-27.54,11.21-6.75,4.55-9.84,10.73-10.34,18.57-.08,1.19.63,2.96-1.38,3.19-2.01.22-2.46-1.36-2.72-2.95-.57-3.43.43-6.76.74-10.51-5.66.79-11.14,1.44-16.57,2.42-.85.15-3.13.17-2.6,2.21,1.44,5.46-1.52,3.4-3.73,2.2-11.64-6.38-22.23-1.99-32.71,3.18-1.91.94-3.11,2.4-2.17,5.08.97,2.79,2.61,2.97,4.79,2.06,2.61-1.09,2.93.5,3.11,2.41-.29.23-.58.42-.9.59-.95.05-1.9.11-2.86.14-3.44.07-6.76.25-8.87-3.55-2.13-3.82.5-5.91,2.57-8.2-2.72-3.1-5.56-1.01-8.2-.81-15.71,1.14-30.94,5.48-46.57,7.15-14.59,1.56-28.8,5.76-43.56,6.19-1.46.05-3.39.23-4.3,1.14-4.76,4.7-11.24,6.24-16.93,8.94-11.99,5.7-24.98,8.42-38.33,8.92-2.05.08-3.98-.59-4.53-2.71-.59-2.26-.24-4.47,1.9-6.11,4.28-3.27,9.27-4.79,14.79-6.59-.38,6.46-7.11,5.75-9.7,9.48,3.83,1.58,7.34.31,10.6-.69,9.32-2.85,18.88-4.61,27.64-9.7,5.18-3.01,10.85-5.89,16.73-7.86,1.78-.59,3.55-1.41,5.04.75,1.06,1.54,2.9,1.08,4.21.59,14.84-5.56,30.56-6.5,46.02-8.85,12.32-1.88,24.47-5.03,36.84-6.2,15.23-1.44,30.21-4.59,45.55-5.55,13.22-.83,26.07-3.72,38.12-11.16,6.6-4.07,11.47-9.38,17.02-14.16,5.75-4.95,9.64-11.63,12.77-18.55,2.71-5.98.98-8.71-5.41-8.9-9.72-.27-18.38,3.9-27.08,7.33-4.85,1.91-9.19,5.17-13.6,8.07-2,1.33-5.1,1.61-4.21,5.95.48,2.3-3.61,3.61-6.14,4.15-8.9,1.88-17.79,3.96-26.8,5.01-11.46,1.35-22.63,3.96-33.89,6.31-1.1.23-2.2.7-3.29.69-17.74-.17-33.75,6.44-49.85,12.67-10.52,4.07-21.19,7.78-31.45,12.55-4.93,2.29-9.15,5.97-14.79,6.91-7.86,1.32-15.81,1.48-23.71,2.29-2.73.29-7.24-.8-5.24,4.87.14.38-.23,1.13-.59,1.43-1.67,1.36-11.91-2.48-12.31-4.59-.66-3.49,1.75-4,4.31-4.63,9.3-2.25,18.78-3.35,29.2-4.31-8.65-2.31-16.54-2-24.39-2-1.72,0-3.43-.03-5.15-.03-2.34,0-4.52-1.06-4.81-3.2-.34-2.53,2.52-2.4,4.14-2.85,10.17-2.74,20.35-5.39,30.57-7.93,7.9-1.96,16.09-2.04,24.08-3.9,10.48-2.44,19.96-7.12,29.37-11.71,16.59-8.09,34.09-13.43,51.72-18.1,11.04-2.93,22.36-5.97,34.08-5.42,3.36.16,6.62-1.7,10.09-.37,2.12.81,2.36-1.34,3.06-2.54,4.61-7.79,8.81-15.86,13.87-23.34,7.02-10.35,16.93-17.39,28.9-20.87,14.9-4.33,28.95-10.93,43.7-15.58,2.15-.67,4.43-1.17,6.67-1.26,4.87-.19,8.34-2.32,11.48-6.06,9.81-11.7,21.58-21.26,34.05-29.97.77-.54,1.67-.89,2.55-1.24,4.11-1.61,6.71-3.57,8.21-8.69,2.08-7.1,6.85-13.46,11.87-19.21,1.8-2.06,3.24-3.68,2-6.93-1.3-3.43.64-6.95,2.9-9.42,18.09-19.85,36.4-39.49,55.32-58.58,13.09-13.22,25.66-26.97,38.57-40.37,13.84-14.36,27.82-28.58,41.72-42.89,1.49-1.53,2.95-3.56,5.18-1.6,2.61,2.29-.37,3.97-1.43,5.15-5.5,6.05-11.32,11.81-17.01,17.69-1.08,1.12-3.18,2.18-.71,3.93,3.21,2.28.7,3.99-.7,5.44-9.32,9.74-18.76,19.38-28.13,29.07-10.56,10.89-21,21.88-31.67,32.65-9.29,9.38-18.82,18.52-27.82,28.29,4.67-1.66,8.15-5.07,11.55-8.3,3.69-3.51,8.06-5.48,12.52-7.49,2.46-1.11,4.56.18,6.4,1.37,2.55,1.64,4.87,3.64,7.12,5.67,1.05.95,1.68,1.75,3.34.91,6.5-3.29,13.51-1.73,20.17-1.19,7.73.63,10.11,7.78,13.09,13.61,1.89,3.69,3.09,7.72,4.86,11.47,1.44,3.05,3.28,4.14,5.58.47,13.46-21.53,28.48-42.02,42.79-62.98,10.61-15.53,22.36-30.26,32.19-46.32.71-1.16,1.43-2.54,3.02-1.44,1.3.9,1.14,2.44.35,3.59-1.6,2.34-3.42,4.54-5.1,6.83-7.04,9.55-13.05,19.8-20,29.43-4.36,6.04-9.18,11.94-12.43,18.78-4.21,5.47-8.37,10.97-11.26,17.29-3.88,3.63-7.04,7.75-9.18,12.64-1.02,1.12-2.15,2.16-3.02,3.39-6.34,8.97-12.57,17.99-18.93,26.93-2.79,3.92-3.76,3.92-5.64-.34-2.17-4.97-4.81-9.7-6.62-14.9-4.54-13.07-5.3-13.35-19.18-13.78-2.09-.07-4.17-.02-6.27-.01-1.34,0-2.53.27-3.67,1.19-7.27,5.74-15.77,9.96-21.93,17.07-4.95,5.73-12.69,7.65-17.61,13.37-4.7,5.47-9.17,11.2-14.33,16.19-4.95,4.8-7.1,11.33-12.13,16.21,17.96,2.68,31.27,10.78,39.18,27.01,4.88-4.88,8.11-10.7,11.89-16.08,5.57-7.89,10.14-16.39,13.76-25.35,2.98-7.41,5.23-15.14,10.26-21.64,1.03-1.34,1.53-3.66,3.42-2.58,1.44.82.91,3.08,0,4.68-.27.49-.39,1.09-.67,1.57-1.48,2.48-.58,3.4,2.08,3.37s5.38-.17,7.97.26c4.23.7,9.98-.34,8.66,7.46-.46,2.7,2.58,2.73,4.71,2.62,2.29-.11,3.44-2.18,2.48-3.5-2.86-3.87-1.72-5.78,2.34-7.1.45-.15.71-.86,1.04-1.34,5.26-7.64,10.83-15.1,15.64-23,2.31-3.79,5.76-7.08,6.45-11.8,4.45-3.18,7.14-7.66,9.23-12.57,4.22-5.43,9.34-10.24,11.57-17.02l.02-.02Zm-182.81,146.13c4.23,1.59,8.66,2.31,12.57.18,12.95-7.03,23.39-16.7,29.63-30.32.88-1.92,2.44-4.8-.47-5.98-5.9-2.4-11.79-4.83-18.53-4.69-7.18.15-14.35,5.09-21.61.25-.86-.57-1.64.54-2.37,1.14-10.85,8.92-20.95,18.66-31.16,28.28-.86.8-2.14,1.59-1.46,3.34,1.46,3.83-1.16,3.52-3.59,3.41-9.86-.49-18.88,2.62-27.94,6.08-7.9,3.02-15.27,7.51-23.81,8.85-6.23.97-12.01,3.39-17.65,6.06-8.07,3.83-15.21,8.84-19.2,17.35,2.95-4.07,7.43-5.75,11.71-7.72,4.16-1.91,7.97-.38,10.96,2.28,3.23,2.85,2.73,6.83,1.16,10.52-.51,1.2-1.62,2.13-2.15,3.33-2.39,5.48-8.67,7.41-11.38,12.72,6.3-3.53,12.88-6.28,19.53-8.83,7.69-2.95,15.55-5.1,23.91-3.51,5.05.96,8.09,5.23,7.16,10.27-.86,4.68-2.17,9.18-5.1,13.13-3.55,4.76-6.98,9.58-11.64,13.39,3.59-.91,6.98-1.98,10.33-3.16,6.93-2.44,12.8-5.98,16.89-12.58,4-6.46,9.45-11.31,17.23-13.85,9.52-3.11,11.89-12.77,15.79-20.67,2.58-5.23-.03-10.17-2.01-15.11-2.68-6.66-3.19-7.06-9.74-5.07-1.99.61-4.07.89-6.12,1.32-8.54,1.77-10.14,5.18-6.02,12.6.73,1.32,1.29,2.77,1.64,4.23.93,3.91-.4,6.74-4.44,7.86-4.75,1.32-9.57,2.17-15.06,2.57,2.78-3.96,6.62-3.84,10-4.64,7.43-1.77,8.42-4.15,4.2-10.54-4.64-7.04-3.12-11.33,5.05-13.44,4.56-1.18,9.52-2.18,13.44-4.09,4.77-2.32,6.1-.41,7.78,2.66,1.96,3.58,3.6,7.34,5.75,11.77.53-6.16-1.08-10.66-4.78-14.57-.91-.96-2.3-2.5-.83-3.96,1.78-1.76,2.73.45,3.58,1.35,5.33,5.71,8.7,12.29,8.6,20.33-.02,1.93-.56,3.93.25,6.04,6.62-9.22,2.94-17.65-1.03-25.9-2.05-4.25-11.09-8.41-15.08-7.26-1.34.39-2.53,2.02-3.63-.32-1.08-2.31.73-3.17,2.1-3.96,1.69-.98,3.64-.73,5.57-.45,14.58,2.23,24.87,24.83,18.01,36.85-.71,1.25-2.07,2.23-1.62,4.04,10.8-1.74,20.86-5.88,31.27-8.81,8.92-2.52,16.41-7.04,21.97-15.07,2.77-4,4.36-8.31,6.51-12.47,1.89-3.64,1.86-3.59,5.66-1.9.51.23,1.51-.15,2.05-.55,1.67-1.25,3.17-2.68,3.88-4.77,2.47-7.35,1.85-14.09-3.74-19.93-6.5-6.78-18.69-13.13-25.83-12.97,2.37,1.01,4.09,1.74,5.82,2.47,5.99,2.53,10.41,6.75,13.47,12.44.53.98,1.35,2.12.39,3.14-1.35,1.45-2.38-.19-3.41-.74-.81-.42-1.46-1.21-2.07-1.94-2.49-3.01-4.09-2.57-5.54,1.03-3.44,8.57-9.25,15.47-15.98,21.65-4.81,4.41-10.27,7.85-16.56,9.76-4.59,1.4-8.91,1.2-12.31-2.93h.01Zm-305.65,104.14c4.75,1.42,9.88,1.38,11.54,3.77,3.19,4.61,6.56,2.58,9.09,1.25,9.85-5.2,19.62-10.41,30.34-13.68,8.43-2.57,16.42-6.42,24.75-9.25,6.53-2.22,13.62-2.72,20.39-4.31,9.85-2.31,19.97-3.03,29.76-5.99,8.62-2.61,17.51-4.78,26.67-5.12,7.04-.26,8.36-1.7,8.57-8.6.08-2.63-.62-4.11-3.51-3.48-14.55,3.14-29.47,4.77-43.6,9.53-16.74,5.64-33.95,10.13-49.71,18.41-13.01,6.84-26.99,10.38-41.39,12.64-7.26,1.14-14.71,1.42-22.87,4.81l-.02.02Zm399.22-220.71c-9.03-5.5-11.73-5.48-18.81.66-5.75,4.99-11.57,9.84-17.89,14.08-3.35,2.25-6.12,5.05-8.66,8.2-2.49,3.09-5.52,5.7-8.5,8.37-10.69,9.63-20.77,19.84-28.42,32.51,2.55,0,4.92-.43,7.04.08,8.09,1.93,12-1.49,15.95-8.69,10.49-19.1,27.95-31.78,44.53-45.19,4.52-3.65,9.86-5.97,14.75-10.03h-.01Zm-205.5,146.72c-4.96.64-9.05,5.73-12.9,10.33-5.84,6.98-9.05,15.58-12.08,24.12-.4,1.14-1.67,2.58-.35,3.59,1.41,1.09,2.93-.03,4.11-.95s2.22-2.05,3.21-3.17c5.82-6.48,11.01-13.6,17.82-19.1,2.97-2.4,4.81-5.33,6.34-8.57,2.09-4.43.67-6.38-6.15-6.27h.01Zm189.31-168.5c-3.45,3.04-6.98,5.57-9.8,8.71-13.03,14.52-28.83,26.41-40.19,42.51-1.24,1.75-4.31,3.42-2.39,5.38,1.67,1.7,3.14-1.83,4.96-2.56.48-.19.77-.82,1.17-1.22,5.72-5.68,11-11.54,15.29-18.62,5.23-8.63,13.62-14.94,20.32-22.54,3.41-3.87,6.94-7.63,10.64-11.65h0Zm30.51,63.13c4.84,1.54,9.64,2.96,14.68,3.05,1.06.02,2.4.22,2.52-1.43.09-1.24-.9-1.65-1.82-1.66-5.11-.03-10.2-1.92-15.38.02h0Zm-85.96,27.79c-6.15-1.21-10.54.07-14.43,3.49,4.35-1.51,9.15-1.16,14.43-3.49Zm59.09-94.37c.56-.62,1.08-1.08,1.43-1.62.29-.45.21-1.17-.46-.94-.57.19-1.01.89-1.41,1.44-.09.13.19.53.45,1.13h-.01Z"/>
    <path class="cls-4" d="m124.32,189.64c.1-17.39-1.65-34.45-5.28-51.22-2.92-13.44-6.28-26.84-10.48-39.94-2.45-7.61-6.91-14.57-10.56-21.77-.8-1.58-3.25-2.9-1.52-4.84,1.49-1.67,3.81-2.69,6.23-1.88,2.78.93,5.87,1.16,7.64,4.25.99,1.74,3.06,2.84,4.25,4.51,4.86,6.86,10.18,12.65,18.52,15.97,8.65,3.43,9.39,6.94,7.88,17.04-.65,4.35-3.01,8.15-3.19,12.67-.51,12.16,3.88,23.01,8.89,33.57,6.9,14.56,14.3,28.84,12.9,45.7-.11,1.33-.15,2.65-.26,3.98-.23,2.56-3.9,5.27-2.28,6.88,3.4,3.36,6.86,7.54,11.96,8.25,7.75,1.08,14.91,4.19,22.47,5.81,2.42.53,4.89.08,7.37-.29,4.28-.64,8.66-1.77,12.26,2.12,1.18,1.28,2.87.75,4.25-.02,5.63-3.17,10.81-2.44,15.87,1.41,1.78,1.36,4.03,2.1,6.03,3.2,2.71,1.49,5.86,3.27,6.3,6.26,1.36,9.3,10.54,13.13,13.9,21.17,3.26,7.82,9.43,14.22,12.74,22.18.69,1.64,2.38,2.36,3.63,3.49,8.15,7.37,19.29,6.1,28.66,10,4.23,1.76,9.17-1.18,13.98-.1,1.69.38,3.66-1.56,3.95-4.11.3-2.63.81-5.25,1.52-7.79.41-1.44,1.4-2.95,3.32-2.36,1.96.61,1.86,2.13,1.16,3.69-1.84,4.09-.46,9.06-3.84,12.83-2.16,2.4-4.25,4.28-7.64,4.24-7.69-.09-11.28,3.82-9.96,11.38.59,3.4,1.93,6.43-1.32,9.4-1.64,1.5.77,2.63,1.72,3.26,5.56,3.73,11.49,6.55,19.03,6.58-1.88-3.4-4.14-6.2-4.08-10.34,1.48,2,2.63,3.79,4,5.39,4.06,4.72,7.27,4.23,9.77-1.25.86-1.89.11-5.24,3.34-5.2,3.01.03,4.22,2.89,5.54,5.13.85,1.45,1.44,3.09,1.92,4.7.63,2.12,1.7,3.32,4.08,2.94,1.09-.17,2.48-.47,2.55,1.25.05,1.3-1.01,1.92-2.15,2.31-4.13,1.43-7.86-.21-9.39-4.94-1.14-3.56-2.34-3.48-4.47-1.11-1.6,1.77-3.76,2.44-6.47,3.29,6.77,4.39,13.56,7.23,21.34,7.15,4.6-.05,8.21-2.55,9.72-6.52,1.65-4.33-.46-8.27-4.36-10.76-1.83-1.18-3.85-1.92-3.17-4.62.65-2.6,3.12-2.8,5.03-3.02,6.1-.69,10.53-3.06,12.72-9.29,1.45-4.16,5.6-4.41,9.18-3.9,4.08.57,8.5,1.34,9.24,6.93.74-.41,1.52-.56,1.62-.93,2.39-7.79-1.09-22.7-13.72-22.45-1.14.02-2.3-.1-3.43.01-4.78.48-8.94.86-8.79-6.31.08-3.65-6.11-6.87-11.44-6.19-5.56.72-11.48.37-16.41,3.97-1.08.78-2.57,1.58-3.51.1-.85-1.33.3-2.4,1.29-3.4,6.11-6.15,23.26-7.97,30.64-3.18,1.52.98,2.47,2.5,2.72,4.2.72,4.83,3.81,5.6,8.07,5.79,13.66.58,23.4,12.91,19.16,25.89-2.09,6.39-5.01,11.76-2.46,18.74,1.12,3.05-1.64,5.15-5.15,5.12-1.35,0-2.95.11-3.53-1.26-.77-1.8,1.12-2.13,2.16-2.7,2.16-1.17,2.97-2.29,1.66-4.93-1.14-2.3-1.72-5.19-.93-7.81,1.58-5.28-2.54-6.32-5.72-7.19-3.28-.9-6.92-.9-7.62,4.2-.49,3.64-3.37,6.18-6.16,7.89-3.43,2.1-3.25,4.48-2.45,7.59,1.3,5.04,1.72,9.94-1.53,14.65-1.72,2.49-5.17,2.47-6.7,5.65,4.56,2.73,9.16,5.02,14.58,2.41,2.02-.97,4.06-.79,6.12-.9,2.41-.13,4.44-.83,5.5-3.29,1.01-2.34,1.01-4.39-1.28-6.04-.91-.66-2.16-1.75-.99-2.71,1.68-1.4,3.28-3.44,5.86-3.06,1.51.22,2.53,1.6,1.93,2.95-1.25,2.86.69,3,2.49,3.6,4.85,1.61,9.85,2.85,14.23,5.62,1.06.67,2.02.74,3.21.4,10.49-3.01,21.02-2.92,31.8-1.5,4.68.62,9.68-.99,14.5-1.78,12.85-2.1,25.66-4.51,38.55-6.42,6.98-1.03,12.25-5.55,18.48-8.09,8.77-3.57,16.56-9.05,24.15-14.71,1.25-.93,2.24-2.1,3.9-.63,1.36,1.21,2.18,2.29,1.67,4.38-1.69,7.02-7.3,10.92-12.09,15.38-1.54,1.44-2.57,2.61-2.41,4.69.14,1.83-.55,3.76-1.88,4.56-8.05,4.83-15.13,12.6-24.71,13.14-9.15.51-17.77,2.69-26.64,4.17-6.61,1.11-12.72,3.67-18.96,5.75-8.77,2.92-17.77,4.87-26.69,7.46,11.05,1.35,22.13,2.05,33.1.69,8.86-1.1,17.39.57,26.01,1.48,4.05.42,7.18-.03,10.58-2.23,12.32-7.95,26.03-13.78,36.79-24.11,1.25-1.19,2.82-1.32,4.19-.33.15.11.71.47,1.19,1.16.17.25.36.77.73,1.82.03.08.02.24.02.42h0c-.02.86-.34,1.48-.41,1.62-.62,1.27-1.57,7-2.51,10.47-.75,2.78-2.07,5.3-5.21,7.02-4.17,10.86-14.12,15.36-23.31,20.31-6.42,3.45-13.64,4.77-20.76,1.17-2.38-1.2-4.38.06-6.55.55-15.98,3.65-31.99,7.69-48.32,8.73-14.3.91-29.2,2.97-42.98-1.75-10.73-3.68-21.24-8.49-31.29-14.3-12.71-7.33-25.85-14.22-39.99-18.64-4.69-1.46-9.65-.83-14.44-.94-3.05-.07-6-.46-8.98-.85-1.93-.25-4.03-1.85-4.81,1.6-.3,1.33-1.88,1.04-2.96,1.09-14.43.61-27.97-3.18-40.03-10.59-7.03-4.32-11.94-11.6-15.15-19.53-1.4-3.45-2.97-6.78-5.27-9.76-4.49-5.82-11.39-6.28-17.68-8.26-9.69-3.05-21.27-2.73-28.81-9.27-10.05-8.71-22.35-9.25-33.6-13.39-6.91-2.54-13.76-8.99-14.59-15.84-.42-3.5-.16-6.52,3.84-7.77.93-.29,2.31-1.12,1.73-1.78-3.24-3.67-1.81-9.23-5.67-12.71-7.4-6.67-12.16-15.43-17.76-23.5-1.93-2.78-4-5.5-6.31-7.96-5.47-5.78-8.55-12.82-11.48-20.05-3.6-8.91-7.94-17.44-13.15-25.57-7.02-10.96-13.32-22.38-20.59-33.17-6.31-9.37-14.46-17.3-22.44-25.3-5.07-5.08-9.73-10.4-12.98-16.97-2.53-5.12-7.49-8.31-11.56-12.16-2.61-2.46-5.6-4.54-8.11-7.09-3.27-3.34-2.8-4.8,1.32-6.63,8.04-3.56,14.25.32,20.43,4.75,6.29,4.51,12.89,8.46,20.68,9.81,11.12,1.93,15.29,7.63,13.35,18.71-.35,2.01-.49,3.65.99,5.26,6.52,7.08,12.42,14.65,18.13,22.39,3.13,4.25,7.16,7.63,11.21,11.07,10.41,8.83,20.41,18.14,26.54,30.74.62,1.28,1.02,2.96,3.41,3.1v-.02Zm409,167.92c-9.34,8.61-20.48,14.31-31.18,20.69-4.75,2.84-9.58,5.86-15.39,5.3-10.18-.98-20.24-1.28-30.52-.22-16.33,1.69-32.69-.47-48.73-3.48-4.63-.87-9.73.3-14.01-2.6-17.91-12.08-37.15-21.65-57.16-29.64-7.38-2.94-14.1-7.35-22.44-8.3-5.03-.57-10.83-3-13.39-7.64-2.32-4.22-5.2-4.6-8.69-4-7.5,1.27-14.11,4.38-18.55,10.98-3.02,4.48-2.29,9.14,1.97,12.35,1.06.8,2.15,1.57,3.26,2.3s2.61,1.48,2.04,3c-.73,1.92-2.63,1.22-3.96.85-4.95-1.41-8.92-4.14-10.88-9.14-2.01-5.16-3.35-10.29-2.65-16.06.8-6.59-3.93-10.56-10.2-9.35-5.09.97-8.41-.86-10.21-5.7-1.38-3.72-2.69-7.46-4.05-11.17-.74-2.02-.8-4.11-.42-6.16.22-1.16.96-2.13,2.37-1.93,1.22.17,1.17,1.27,1.34,2.18.73,3.72,1.56,7.42,2.23,11.16,1.34,7.49,3.88,9.39,11.13,7.39,5.04-1.4,7.72,1.06,9.38,5.04,1.56,3.73,3.02,7.62,1.89,11.78,1.44.26,1.78-.56,2.15-1.12,5.18-7.91,12.58-11.56,21.93-11.69,1.85-.02,3.71-.7,5.56-.98,1.49-.23,2.89-1.45,3.01-2.34.57-4.65.82-9.35.9-14.06.02-1.32-1.67-1.28-2.76-1.54-4.6-1.09-9.19-2.15-13.96-2.16-1.89,0-4.23.49-5.39-1.19-4.11-5.97-10.4-6.86-16.75-7.81-1.75-.26-4.38.48-4.55-2.21-.15-2.41,2.36-2.38,4.05-3.09,1.62-.67,5.02-.78,2.9-3.89-5.33-7.85-9.08-16.66-14.44-24.39-9.98-14.38-28.77-14.56-45.06-9-3.66,1.25-6.93,3.33-11.26,1.51-3.01-1.27-6.58,1.56-5.68,3.87,3.88,10.04,5.56,22.19,20.69,22.27-4.62,3.24-9.98,2.95-13.45-1.24-5.19-6.27-9.16-13.29-10.57-22.26-11.23,7.02-14.07,20.48-23.17,28.89,1.66-10.34,5.87-19.45,12.18-27.62,4-5.18,8.57-9.58,15.31-11.15,1.45-.33,3.59.58,4.72-1.29-1.84-1.99-3.89,1.86-5.26-.72-1.99-3.77-5.5-3.23-8.9-3.6-4.28-.48-8.26,1.1-12.43,1.17-8.25.15-11.92,4.06-11.06,12.08.54,4.99.46,9.02-5.8,10.24-1.86.35-3.33,2.47-5.12,3.52-3.59,2.12-4,3.97-.42,6.75,3.55,2.74,2.89,5.87-1.13,7.62-7.18,3.12-7.63,5.88-1.6,11.14,1.41,1.22,3.2,2,4.86,2.92,11.96,6.61,26.66,6.22,37.9,14.8,1.25.95,3.2,1.05,4.86,1.4,15.03,3.1,29.68,7.48,44.13,12.57,4.43,1.56,5.15,3.67,2.21,7.4-.97,1.24-1.37,2.04-.59,3.45,3.17,5.83,6.79,11.29,11.45,16.09,11.63,12.02,27.56,12.97,42.75,17.62-.86-2.5-4.11-3.27-2.4-5.42,1.11-1.41,3.21-.33,4.78.21,5.5,1.91,11.17,2.07,16.89,1.7,3.63-.23,7.25-.25,10.81.49,15.37,3.21,28.44,11.89,42.45,18.28,6.27,2.86,11.71,7.64,18.16,10.5,9.76,4.32,19.11,8.67,30.57,8.14,25.67-1.18,50.63-6.12,75.55-11.69,1.72-.39,3.44-.83,5,0,5.26,2.79,12.88,3.34,17.39.09,5.76-4.14,14.1-5.72,15.59-14.54.08-.45.72-.89,1.2-1.18,5.79-3.49,10.29-7.73,8.65-16.16v.02Zm-366.02-124.92c-1.28-2.17-3.02-3.06-4.62-4-9.79-5.74-19.4-11.75-27.9-19.3-6.08-5.4-11.63-11.13-16.05-18.23-8.31-13.36-18.02-25.71-31.21-34.84-1.69-1.18-3.63-2.54-4.48-4.29-3.87-7.91-10.75-13.31-16.07-19.99-3.58-4.51-10.02-6.21-12.27-11.5-3.99-9.39-12.9-11.01-20.67-14.58-.95-.43-2.41-.65-3.24.27-1.04,1.16-.53,2.64.31,3.65,2.15,2.63,4.43,5.17,6.76,7.64,9.9,10.45,20.08,20.7,28.6,32.33,5.78,7.89,10.84,16.3,16.09,24.57,7.1,11.2,14.35,22.29,18.96,34.88,2.14,5.83,4.36,11.92,8.68,16.43,4.48,4.69,8.68,9.48,12.32,14.87,3.16,4.68,5.75,9.7,9.71,13.93,5.88,6.31,5.5,6.39,13.14,2.04,3.57-2.04,5.46-4.12,4.32-8.52-.85-3.28.65-6.12,2.97-8.77,3.84-4.4,9.48-4.33,14.64-6.59h0Zm360.06,97.25c-3.31.3-4.65,2.09-6.4,3.16-9.72,5.91-19.83,11.52-31.03,13.36-8.57,1.42-17.22,2.37-25.82,3.9-7.35,1.32-14.97,2.48-22.36,2.04-8.92-.54-17.73-1.37-26.59.32-2.57.49-5.81,1.65-7.72.62-6.6-3.58-14.51-2.29-21.16-7.15.19,3.98.9,7.23-1.98,9.71-2.78,2.4-6.52.75-9.8,2.21,10.2,7.81,12.26,8.53,25.02,10.67,14.92,2.5,29.71,2.96,44.28-1.99,8.6-2.92,17.09-6.24,25.85-8.57,7.62-2.02,15.29-5.74,23.18-4.65,11.95,1.65,19.68-5.65,28.43-11.15-2.34,0-4.24,1.1-6.06,2.41-1.46,1.05-3.43,1.96-4.56.29-1.64-2.42,1.04-3.03,2.48-4.07,4.67-3.39,10.49-5.27,14.24-11.09h0ZM113.09,98.96c5.78,13.01,6.53,25.79,10.49,37.83,3.77,11.5,4.94,23.81,4.4,35.93-.33,7.66.9,15.11,1.12,22.66.06,2.15.38,4.8,2.39,6.2,5.46,3.79,9.69,9.15,15.63,12.2,2.17,1.12,3.95,4.12,6.24,3.43,3.5-1.05-.95-4.33.88-6.3.11-.13.18-.35.17-.54-.09-8.85.09-17.51-2.8-26.3-3.79-11.52-9.92-22.04-13.28-33.65-2.6-8.94-7.48-17.53-4.54-27.41.29-.95.05-1.96-.71-2.63-3.9-3.44-6.06-8.12-9.03-12.23-2.46-3.39-5.25-6.92-10.97-9.19Zm-12.56-26.06c3.29,7.18,8.11,12.21,9.63,18.97.49,2.21,2.07,3.39,4.33,4,7.34,1.99,12.74,6.38,15.9,13.41.7,1.56,1.59,3.02,2.44,4.49,1.4,2.41,2.49,2.54,3.71-.27,2.72-6.3.17-12.8-6.36-15.13-6.78-2.42-12.17-5.98-16.02-12.6-2.88-4.96-6.61-10.12-13.62-12.87h0Zm-88.62,13.95c4.16,6.26,10.89,8.91,15.27,14.11.64.75,1.74.96,2.64.58,4.36-1.82,8.09.54,11.91,1.82,6.95,2.33,13.03,6.1,17.58,13.54.54-10.21-.8-12.43-9.92-14.32-8.01-1.66-14.71-5.19-20.99-10.29-4.44-3.6-9.25-7.41-16.48-5.43h-.01Zm223.56,155.01c-1.38-2.73-3.01-2.97-4.28-3.72-5.39-3.14-10.67-5.95-16.5-.51-1.74,1.61-4.28,1.16-6.15-.79-2.97-3.09-6.47-3.8-10.35-1.9-1.66.81-5.28,1.02-3.72,3.56,1.24,2.01,1.92,6.39,7.01,4.52,10.77-3.97,21.9-5.95,34-1.14h-.01Zm-47.47-8.29c-5.4-.24-9.78-4.28-15.34-3.92,4.44,3.85,10.03,3.34,15.34,3.92Z"/>
    <path class="cls-4" d="m766.87,357.96c6.21-1.93,13.95,3.06,14.5,9.42.25,2.93-1.12,5.57-3.45,6.76-3.61,1.84-8.95,2.12-4.39,8.15.08.11.01.51-.05.53-4.53,1.1-3.14,6.74-6.71,8.67-2.23,1.21-4.01,2.82-2.57,5.94.91,1.98-.59,2.76-2.28,2.94-1.85.21-3.72.24-6.69.41,4.07-4.17,4.2-10.05,9.68-11.91,1.68-.57.93-1.4.66-2.56-.87-3.76-2.46-7.12-4.65-10.26-1.4-2-2.14-4.39.05-6.13,2.53-2.01,3.53.51,4.63,2.21,2.13,3.27,4.72,1.75,6.92.38,2.46-1.54,3.47-3.81,1.76-6.75-1.88-3.26-5.6-4.43-7.82-7.27.14-.18.27-.35.41-.54h.01Z"/>
    <path class="cls-4" d="m807.84,385.69c4.35,3.69,5.92,7.71,3.89,12.76-1.46,3.63-3.03,7.2-4.56,10.81-.3.69-.5,1.44-.91,2.05-1.67,2.41-4.13,3.91-6.72,5.07-8.61,3.82-15.97,11.77-26.83,8.37-1.06-.33-2.16-.67-3.11-1.25-1.26-.75-2.95-1.65-2.33-3.39.85-2.38,2.6-.75,3.77-.25,3.31,1.41,6.72,1.04,10.11.96,1.08-.02,2.66-.26,3.13-.98,3.58-5.57,9.17-7.27,15.15-8.5,1.19-.24,2.32-1.41,2.7-2.76,1.82-6.56,8.29-11.83,5.49-19.7-.29-.79.11-1.82.24-3.19h-.01Z"/>
    <path class="cls-4" d="m759.07,425.93c-7.07.1-13.52-5.75-14-12.66-.03-.55.05-1.53-.15-1.59-5.82-1.74-4.38-8.77-8.62-11.72-2.84-1.98-1.59-5.65-2.77-8.37-.1-.24.47-1.03.87-1.18,1.17-.43,1.68.58,2.21,1.33,2.08,2.9,4.38,6.08,5.47,9.09,1.27,3.51,3.36,5.76,5.58,8.26.5.57,1.6,1.28,1.49,1.62-2.13,6.55,4.8,6.67,7.08,10.04,1.18,1.74,3.03,1.48,4.65.85,2.36-.91,5.21-1.4,5.57,1.5.38,3.11-2.89,2.73-5.12,2.84-.77.03-1.52,0-2.29,0h.03Z"/>
    <path class="cls-4" d="m334.97,305.12c1.44,1.18,2.09,1.83,2.86,2.32,1.42.91,2.92,2.15,4.61.61,1.5-1.37,1.27-3.09.41-4.7-1.17-2.2-2.08-4.51.97-5.66,3.17-1.19,4.92.38,5.5,3.69q1.96,10.97,11.55,4.94c.93-.58,1.72-1.57,3.02-1.36-.26,5.83-8.68,11.92-14.1,9.64-3.43-1.43-6.64-3.01-10.4-3.67-1.93-.34-4.2-1.84-4.41-5.82h-.01Z"/>
    <path class="cls-4" d="m786.82,357.69c11.08-2.14,22.08,6.71,22.36,17.9.05,1.82,1.33,2.57,1.93,3.88.58,1.25.58,2.8-.63,3.64-1.51,1.04-2.15-.23-3.01-1.41-2.09-2.85-3.33-5.49-3.98-9.37-.9-5.41-5.25-10.3-11.6-11.85-1.78-.43-3.9-.19-5.07-2.79h-.01Z"/>
    <path class="cls-4" d="m727.54,366.32c.32-.17.62-.38.9-.59,2.95-.29,4.71.45,4.24,4.01-.43,3.37-1.11,6.37-5.1,6.92-1.9.26-3.18-.91-4.06-2.49-.85-1.52-.5-2.84.69-4.07,1.17-1.2,2.22-2.52,3.33-3.77h0Z"/>
    <path class="cls-4" d="m375.12,328.27c-2.48.19-4.61-.96-4.23-3.72.41-3.02,3.69-5.36,5.82-5.2,2.53.19,2.39,4.49,3.36,6.78.96,2.26-2.89,1.64-4.95,2.14Z"/>
    <path class="cls-4" d="m749.65,385.77c-2.07.16-3.03-.51-2.74-1.89.35-1.73-2.42-3.5.09-5.05.61-.38,1.53-.24,2.17-.58,1.66-.89,2.26-4,5-2.55,1.5.8,1.12,2.17.42,3.47-1.42,2.61-2.61,5.39-4.94,6.61h0Z"/>
    <path class="cls-4" d="m738.36,377.43c.23,1.46-.71,1.73-1.66,1.83-1.26.13-2.48-.45-3.81.32-1.16.66-3.19,3.13-3.76.54-.45-2,2.33-4.04,4.57-4.78,1.85-.62,3.59.47,4.64,2.09h.01Z"/>
    <path class="cls-4" d="m766.46,358.49c-.45.33-.85.73-1.34.99-1.37.73-2.76,2.36-4.33.77-.8-.8-.37-2.21.33-3.09,1.36-1.72,3.02-2.06,4.77-.51.4.35.65.87.98,1.3-.14.18-.27.35-.41.54Z"/>
    <path class="cls-4" d="m730.68,389.3c-2.4-1.34-3.57-2.4-3.48-4.27.02-.32.82-.94,1.12-.86,2.36.64,1.82,2.68,2.36,5.11h0Z"/>
    <path class="cls-4" d="m234.67,287.71c2.45,1.34,4.28-.49,6.28-.46,1.34.02,2.64.65,2.98,2.15.27,1.2-.78,1.73-1.65,1.94-7.25,1.77-7.64,8.58-10.16,13.79-.4.82-.34,1.85-.59,2.76-.45,1.56-.54,4.11-2.63,3.58-1.76-.43-1.32-2.82-.75-4.43,1.76-4.97,3.18-10.1,6.9-14.96-5.48.34-7.41,4.38-9.79,7.31-2.53,3.11-2.88,7.61-5.8,11.28-2-3.6-1.59-7.04-.07-9.6,3.77-6.29,7.67-12.63,13.61-17.26,1.04-.81,2.18-1.54,3.39-2.04,1.8-.73,4.31-1.27,5.09.65,1.17,2.86-1.68,2.54-3.42,2.95-1.26.3-2.55.67-3.4,2.33h.01Z"/>
    <path class="cls-4" d="m98.73,72.32c2.2-2.71,3.83.14,5.72.57"/>
    <path class="cls-4" d="m156.49,211.27c-1.97,1.3-1.8,2.87-.57,4.57"/>
    <path class="cls-4" d="m28.4,107.2c1.51,4.63,4.94,7.9,8.01,11.44"/>
    <path class="cls-4" d="m56.99,141.51c1.46,1.76,3.8,2.77,4.57,5.15"/>
    <path class="cls-4" d="m78.72,173.53c.38.57.77,1.14,1.14,1.72"/>
    <path class="cls-4" d="m793.49,293.62c-.57.38-1.14.77-1.72,1.14"/>
    <path class="cls-4" d="m801.05,237.69c-.6-.4-1.2-.8-1.8-1.2"/>
    <path class="cls-4" d="m989.63,128.36c-.72-2.44-2.49-3.92-4.57-5.15"/>
    <path class="cls-4" d="m1009.64,174.11c-1.33,2.57,0,4.7,1.14,6.86"/>
    <path class="cls-4" d="m1097.7,261.59c1.34,1.19,2.66.47,4,0"/>
    <path class="cls-4" d="m1041.66,175.82c-1.25-2.71-3.32-5.01-4-8.01"/>
    <path class="cls-4" d="m696.28,324.49c-1.64,2.02-4.25,1.36-6.29,2.29"/>
    <path class="cls-4" d="m951.89,129.5c-.81.5-1.08,1.74-2.29,1.72"/>
    <path class="cls-4" d="m1042.8,152.95c-.38.57-.77,1.14-1.14,1.72"/>
    <path class="cls-1" d="m833.98,240.29c2.41-3.95,6.8-3,10.32-3.89,8.35-2.13,9.35-4.01,5.12-11.55-4.57-8.15-4.08-8.87,5.1-12.69,3.58-1.49,7.49-1.74,10.88-3.4,4.89-2.39,6.87-.06,8.69,4.05,1.69,3.82,2.4,8.09,5.08,11.47"/>
    <path class="cls-5" d="m740.88,404.55c.38.95.77,1.91,1.14,2.86"/>
    <path class="cls-5" d="m746.03,409.69c.5.81,1.74,1.08,1.72,2.29"/>
    <path class="cls-5" d="m748.89,418.27c.57.38,1.14.77,1.72,1.14"/>
    <path class="cls-4" d="m1109.71,225.57c-1.45,1.77-2.07,4.3-4.57,5.15"/>
    <path class="cls-4" d="m1079.4,228.43c-.77.57-1.52,1.14-2.29,1.72"/>
    <path class="cls-4" d="m1110.28,44.3c-3.05,4.2-6.1,8.38-9.15,12.58"/>
    <path class="cls-4" d="m1091.98,71.75c-2.29,2.66-4.57,5.34-6.86,8.01"/>
    <path class="cls-4" d="m1043.95,140.37c-.38.57-.77,1.14-1.14,1.72"/>
    <path class="cls-4" d="m1037.09,150.66c-.69,1.02-2.13,1.43-2.29,2.86"/>
    <path class="cls-4" d="m1004.49,154.09l-1.72,5.15"/>
    <path class="cls-4" d="m600.22,357.09c.57-3.2-.38-5.2-4-5.15"/>
    <path class="cls-4" d="m939.31,210.13c-2.57,7.54-7.3,13.77-12.01,20.01"/>
    <path class="cls-4" d="m922.61,195.11c-3.96,4.31-9.42,6.54-14.44,8.82-3.16,1.43-8.26,1.54-11.29-2.53"/>
    <path class="cls-4" d="m440.11,350.8c-.57-.38-1.14-.77-1.72-1.14"/>
    <path class="cls-4" d="m406.94,351.94c-2.22-.42-3.5-3.43-6.29-2.29"/>
    <path class="cls-4" d="m387.5,345.08c-.57-.38-1.14-.77-1.72-1.14"/>
    <path class="cls-4" d="m808.36,386.25c.77,2.09,1.52,4.2,2.29,6.29"/>
    <path class="cls-4" d="m384.64,349.08c.05-1.54-.23-3.12.57-4.57"/>
    <path class="cls-4" d="m926.15,190.69c-.38.57-.77,1.14-1.14,1.72"/>
    <path class="cls-4" d="m79.86,143.8c.69,1.02,2.13,1.43,2.29,2.86"/>
    <path class="cls-4" d="m185.65,253.59c.46,7.7,4.46,13.88,8.58,20.01"/>
    <path class="cls-4" d="m194.8,274.17c3.48,4.63,8.18,4.56,13.15,3.43"/>
    <path class="cls-4" d="m628.81,364.52c-1.16,2.88-3.76-.74-5.15,1.14"/>
    <path class="cls-4" d="m570.48,373.67l1.72-1.72"/>
    <path class="cls-4" d="m117.6,99.2c-1.53-1.81-3.63-1.76-5.72-1.72"/>
    <path class="cls-4" d="m949.03,242.15c-1.76,1.27-.73,3.79-2.29,5.15"/>
    <path class="cls-4" d="m1103.42,223.28c-3.63-.95-7.24-1.91-10.86-2.86"/>
    <path class="cls-4" d="m146.19,215.85c-.57-.38-1.14-.77-1.72-1.14"/>
    <path class="cls-4" d="m126.75,171.25c-.38-.57-.77-1.14-1.14-1.72"/>
    <path class="cls-4" d="m108.45,92.34c-.38-.57-.77-1.14-1.14-1.72"/>
    <path class="cls-4" d="m101.59,78.61c-.38-.57-.77-1.14-1.14-1.72"/>
    <path class="cls-4" d="m799.21,362.23c-1.61-2.02-4.24-2.21-6.29-3.43"/>
    <path class="cls-4" d="m933.02,140.37c-3.85,4.35-9.21,7.39-11.44,13.15"/>
    <path class="cls-4" d="m242.26,311.91c.77,1.72,1.52,3.43,2.29,5.15"/>
    <path class="cls-4" d="m244.55,317.63c3.12,5.4,7.62,3.57,12.01,2.29"/>
    <path class="cls-4" d="m236.54,291.33c-3.39,6.59-6.1,13.43-8.01,20.59"/>
    <path class="cls-4" d="m263.99,327.92c2.07,1.72,1.43,3.97.48,5.66-1.26,2.25.69,3.14,1.24,4.63"/>
    <path class="cls-4" d="m770.62,375.39c.86-1.69,2.8-.85,4-1.72"/>
    <path class="cls-4" d="m768.33,358.8c-2.6-1.48-5.02-1.93-6.86,1.14"/>
    <path class="cls-4" d="m346.33,338.22c1.75,1.64,3.01-.72,4.57-.57"/>
    <path class="cls-4" d="m364.06,305.62c-2.4,2.44-4.92,4.72-8.01,6.29"/>
    <path class="cls-4" d="m105.62,77.98c-1.34-.77-2.66-1.52-4-2.29"/>
    <path class="cls-4" d="m512.16,350.8c-.57.38-1.14.77-1.72,1.14"/>
    <path class="cls-4" d="m93.04,74.55c-.57.38-1.14.77-1.72,1.14"/>
    <path class="cls-4" d="m720.87,353.66l-1.72,3.43"/>
    <path class="cls-4" d="m334.89,306.2c3.18,2.86,6.28,6.1,10.86,2.29"/>
    <path class="cls-4" d="m720.3,364.52c2.64,2.25,7.41-2.3,9.15,2.86"/>
    <path class="cls-4" d="m886.59,202.55c.38.57.77,1.14,1.14,1.72"/>
    <path class="cls-4" d="m320.03,324.49c1.24,3.14,2.69,6.06,5.07,8.66,2.79,3.04,5.25,2.74,8.09.49"/>
    <path class="cls-4" d="m235.4,290.18c-.97-1.19-2.3-.29-3.43-.57"/>
    <path class="cls-4" d="m731.74,378.24l-1.72,1.72"/>
    <path class="cls-4" d="m195.37,242.15c-1.14-.95-2.29-1.91-3.43-2.86"/>
    <path class="cls-4" d="m377.78,319.35c-1.74,1.03-1.72,3.17-2.86,4.57"/>
    <path class="cls-4" d="m767.19,386.25c2.17,3.48-.71,3.8-2.86,4.57"/>
  </g>
</svg>