<?xml version="1.0" encoding="utf-8"?>
<!-- Generator: Adobe Illustrator 27.7.0, SVG Export Plug-In . SVG Version: 6.00 Build 0)  -->
<svg version="1.1" id="Layer_1" xmlns="http://www.w3.org/2000/svg" xmlns:xlink="http://www.w3.org/1999/xlink" x="0px" y="0px"
	 viewBox="0 0 1121.6 428.9" style="enable-background:new 0 0 1121.6 428.9;" xml:space="preserve">
<style type="text/css">
	.st0{fill:#221F20;}
	.st1{font-family:'Neue-Bold';}
	.st2{font-size:42px;}
	.st3{fill:#E82E21;}
	.st4{fill:none;}
	.st5{fill:#221F20;stroke:#D34130;stroke-miterlimit:10;}
</style>
<g id="Layer_7">
	<text transform="matrix(0.97 0 0 1 412.1001 103.71)" class="st0 st1 st2">CENTER FOR </text>
	<text transform="matrix(0.97 0 0 1 322.8599 155.71)" class="st3 st1 st2">HUMAN LANGUAGE</text>
	<text transform="matrix(0.97 0 0 1 355.4131 207.71)" class="st3 st1 st2">&amp; DEVELOPMENT</text>
	<path class="st0" d="M718.8,75.5c0.4,0.2,0.5,0.7,0.3,1c-0.1,0.2-0.4,0.4-0.6,0.4c0,0,0.1,0,0.1,0c0,0,0.2-0.1,0.2-0.1
		c-0.1,0,0.3-0.3,0.2-0.2c-0.1,0.1,0.2-0.5,0.1-0.3c0,0.1,0-0.4,0-0.3s-0.1-0.2,0-0.1c0,0.1,0-0.1,0-0.1c0,0.1,0.3,0.3,0.5,0.6
		c1,1.5,2.2,3.7,3.7,6.7c1.2,2.5,2.5,5.5,3.7,8.3c1.2,2.7,2.3,5,3.4,6.9c1,2,1.8,3.6,2.5,4.7c0.7,1.1,1.2,1.8,1.5,2.1
		c0.2,0.2,0.2,0.5,0,0.8c-0.1,0.1-0.3,0.2-0.5,0.2c-0.8-0.2-1.5-0.9-2.4-2c-1-1.1-2-2.6-3.2-4.5c-1.2-2.1-2.3-4.4-3.6-7.1
		c-1.3-2.8-2.5-5.8-3.6-8.2c-1.4-3-2.5-5.3-3.2-6.5c-0.2-0.5-0.4-0.9-0.4-1.4c0-0.2,0-0.3,0.2-0.5c0.1-0.2,0.4-0.4,0.7-0.4
		c0.2,0,0.4,0,0.5,0.1C718.7,75.4,718.8,75.4,718.8,75.5"/>
	<path class="st0" d="M731.4,104.5c0-0.1,0-0.2,0.1-0.3c0.1-0.3,0.2-0.3,0.2-0.4c0.3-0.3,0.7-0.5,1.1-0.5c0,0,0.4,0,0.7-0.1
		c0.1,0,0.3-0.2,0.8-0.4c0.5-0.4,1.6-1.3,4-3.2c1.3-1,3-2.3,5.2-4c2.4-1.8,5.3-4,9-6.5c2.6-1.8,5.5-3.8,8.8-5.9
		c3.4-2.2,7.2-4.4,11.3-6.6c3.8-2,7.7-3.9,11.6-5.6c2.3-1,4.6-1.8,7-2.7c1.9-0.6,3.7-1.2,5.5-1.7c3.9-1.2,7.7-2,11.1-2.6
		c3.1-0.5,5.7-0.9,7.9-1c2.4-0.1,4.5-0.2,6.5-0.2c2.5,0,4.5,0.2,6.1,0.4c1.6,0.3,2.8,0.6,3.8,0.9c0.3,0.1,0.6,0.2,1,0.3
		c0.2,0.1,0.4,0.2,0.5,0.3c0.2,0.2,0.4,0.4,0.5,0.6c0.2,0.2,0.2,0.6,0,0.8c0,0.1-0.1,0.1-0.2,0.1c-0.3,0.1-0.5,0.2-0.8,0.3
		c-0.2,0.1-0.4,0.1-0.6,0c-0.3-0.1-0.7-0.1-1-0.2c-1-0.2-2.1-0.3-3.5-0.4c-1.5-0.1-3.4-0.2-5.8-0.1c-1.8,0.1-3.9,0.3-6.3,0.6
		c-1.9,0.2-4.4,0.7-7.3,1.4c-3.3,0.7-6.9,1.6-10.6,2.8c-1.6,0.6-3.3,1.3-5.2,2c-2.4,0.8-4.7,1.7-6.8,2.6c-3.8,1.6-7.6,3.5-11.2,5.4
		c-4.1,2.2-7.8,4.4-11.1,6.5c-3.2,2-6,4.1-8.7,5.9c-3.7,2.4-6.6,4.5-9,6.2c-2.3,1.6-4,2.8-5.3,3.8c-2.5,1.8-3.7,2.6-4.8,3
		c-0.5,0.2-1,0.5-1.9,0.6c-0.7,0-1.2,0-1.8-0.3c-0.4-0.2-0.7-0.5-0.8-0.9C731.4,104.9,731.4,104.8,731.4,104.5 M733.5,103.5
		c0.4,0,0.8,0.3,0.8,0.7c0,0.4-0.3,0.8-0.7,0.8c-0.4,0-0.6,0.1-0.6,0.1c-0.4,0.2-0.8,0-1-0.4c-0.2-0.4,0-0.8,0.4-1
		C732.7,103.6,733,103.6,733.5,103.5"/>
	<path class="st0" d="M709,60.2c0.4,0.2,0.5,0.7,0.3,1c-0.2,0.4-0.6,0.5-1,0.3c-0.6-0.3-0.9-0.7-1.1-0.9l0.2,0.2
		c0,0,0.2,0.1,0.2,0.1c-0.1,0,0.7-0.1,0.5,0c-0.1,0,0.4-0.2,0.3-0.2c-0.1,0.1,0.2-0.3,0.2-0.2c0,0.1,0.1-0.2,0.1-0.2
		c0,0.1,0-0.1,0-0.1c0,0,0,0.1,0,0.2c0,0.3,0.1,0.7,0.2,1.2c0.1,1.2,0.2,2.7,0.3,4.1c0,2.3,0,4.3,0.2,5.5c0,0.3,0.1,0.5,0.1,0.6
		c0,0.1,0,0.1,0,0.1c0,0-0.3-0.2-0.2-0.2s-0.5-0.1-0.4-0.1c0.1,0-0.1,0-0.1,0c0,0,0.2-0.2,0.3-0.5c0.2-0.2,0.5-0.3,0.7-0.2
		c0.2,0.1,0.3,0.4,0.2,0.7c-0.1,0.3-0.2,0.6-0.4,0.8s-0.4,0.5-0.8,0.5c-0.5,0-0.8-0.3-0.9-0.6c-0.2-0.3-0.3-0.5-0.3-0.9
		c-0.4-1.3-0.6-3.3-0.8-5.6c-0.1-1.5-0.1-3-0.2-4c0-0.7,0.1-1.2,0.2-1.7c0.1-0.2,0.1-0.5,0.5-0.7c0.1-0.1,0.3-0.2,0.5-0.2
		c0.3,0,0.6,0.2,0.7,0.4c0.2,0.3,0.1,0.3,0.1,0.4l-0.1-0.3C708.6,59.9,708.8,60.1,709,60.2"/>
	<path class="st0" d="M708.9,61.7c0.4-0.2,0.8,0,1,0.4c0.2,0.4,0,0.8-0.3,1c-0.2,0.1-0.4,0.2-0.6,0.3c-0.1,0-0.2,0.1-0.3,0.1
		c-0.2,0-0.5,0-0.8-0.3c-0.5-0.6-0.1-1,0-1.1c0.1-0.2,0.2-0.3,0.4-0.5c0.6-0.7,1.7-1.5,2.8-2.3c1-0.7,2-1.2,2.8-1.6
		c0.5-0.2,0.9-0.4,1.3-0.5c0.2-0.1,0.5-0.1,0.8-0.1c0.4,0.1,0.8,0.4,0.9,0.8c0.2,0.6,0.1,1-0.1,1.3c-0.1,0.3-0.3,0.7-0.5,1
		c-0.6,1.3-1.7,2.6-2.8,3.8c-0.8,0.9-1.5,1.6-2,2.2c-0.2,0.2-0.4,0.5-0.5,0.6c0,0,0,0,0,0c0,0,0.1-0.3,0.1-0.2
		c0,0.1,0.1-0.4,0.1-0.3c0,0.1,0-0.3,0-0.2s-0.1-0.4-0.1-0.3s-0.3-0.5-0.2-0.3c0.2,0.2-0.8-0.4-0.6-0.3c0.1,0-0.3,0-0.2,0
		c0,0-0.2,0-0.1,0c0.4,0,0.7,0.2,1,0.4c0.1,0.1-0.4-0.3-0.3-0.2c0.1,0.1-0.4-0.1-0.3-0.1c0.1,0-0.1,0-0.1,0c0,0,0,0,0.1,0
		c0.2,0,0.5-0.1,0.8-0.2c0.4-0.1,0.9-0.2,1.3-0.2c0.3-0.1,0.7-0.1,1-0.2c0.3-0.1,0.7-0.1,1-0.2c0.3-0.1,0.6-0.1,0.9-0.2
		c0.2,0,0.3-0.1,0.4-0.1c0.2,0,0.3-0.1,0.4-0.1c0.5-0.2,1.1,0,1.4,0.4c0,0.1,0.1,0.1,0.2,0.2c0,0,0,0.1,0,0.1
		c0.1,0.2,0.1,0.3,0.1,0.4c0,0.5-0.3,1.1-0.8,1.3c-0.2,0.1-0.3,0.2-0.5,0.2c-0.2,0.1-0.4,0.1-0.5,0.2c-0.4,0.1-0.7,0.2-1.1,0.3
		s-0.7,0.1-1.1,0.2c-0.4,0.1-0.7,0.1-1.1,0.1c-0.5,0.1-1,0.1-1.4,0.1c-0.2,0-0.5,0.1-0.8,0.1c-0.2,0-0.3,0-0.6,0
		c-0.2,0-0.7-0.1-1.1-0.6c-0.2-0.3-0.2-0.7-0.1-1.1c0.1-0.3,0.4-0.6,0.5-0.7c0.1-0.1,0.2-0.1,0.2-0.1s0,0,0.1,0c0,0,0.1,0,0.1-0.1
		c0.1-0.1,0.3-0.2,0.5-0.3c0.4-0.5,1.1-1.2,1.8-2.1c1-1.2,2.1-2.5,2.5-3.4c0.2-0.4,0.3-0.7,0.4-0.9c0-0.1,0-0.1,0-0.1
		c0,0,0,0.1,0,0.1s0.1,0.3,0.1,0.2c0-0.1,0.3,0.3,0.2,0.3c-0.1-0.1,0.4,0.1,0.3,0.1c-0.1,0,0.1,0,0.1,0c0,0,0,0-0.1,0
		c-0.2,0.1-0.6,0.3-1.1,0.5c-0.8,0.3-1.7,0.8-2.6,1.3c-1.1,0.7-2.1,1.5-2.7,2c-0.1,0.1-0.2,0.2-0.3,0.2c0,0,0-0.1,0,0
		c0,0,0.1-0.2,0.1-0.1c0,0.1,0-0.5,0-0.4c0,0.2-0.4-0.5-0.3-0.4c0.1,0.1-0.3-0.1-0.2-0.1c0.1,0-0.2,0-0.2,0s0,0,0,0
		C708.5,61.8,708.6,61.7,708.9,61.7"/>
	<path class="st0" d="M722.9,69.7c-0.6,0.5-1.4,0.4-1.9-0.2c-0.5-0.6-0.4-1.4,0.2-1.9c0.2-0.2,0.4-0.3,0.7-0.3
		c0.1,0-0.3,0.1-0.2,0.1c0.1,0-0.1,0-0.1,0c0,0,0.1,0,0.1-0.1c0.1,0,0.2-0.1,0.2-0.1c1.2-0.3,5.2-2,7.5-3.5c0.2-0.2,0.6-0.1,0.7,0.2
		c0.1,0.2,0.1,0.5-0.1,0.7C727.9,66.7,724,68.8,722.9,69.7c0,0-0.1,0-0.1,0.1C722.8,69.8,722.9,69.7,722.9,69.7
		C722.8,69.7,723,69.6,722.9,69.7 M721.1,57c0.4-0.2,0.8,0,1,0.4c0.1,0.2,0.1,0.5-0.1,0.7c-0.1,0.1,0.1-0.2,0.1-0.2c0,0,0,0,0,0
		c0,0,0,0.2,0,0.3c0,0.3,0,0.7,0.1,1.2c0.1,1,0.3,2.2,0.6,3.3c0.3,1.8,0.5,3.4,0.6,4.4c0.1,0.4,0.1,0.8,0.1,0.9c0,0.1,0,0.1,0,0.2
		c0,0.6-0.3,1.1-0.5,1.3c0,0.1-0.1,0.1-0.2,0.1c-0.6,0.4-1.4,0.3-1.9-0.3c-0.3-0.4-0.3-0.9-0.1-1.4c0.2-0.3,0.1-0.2,0.2-0.2
		c0,0-0.2,0.3-0.1,0.2c0-0.1,0,0.7-0.1,0.5c0-0.1,0-0.1,0-0.2c0-0.2,0-0.5,0-0.9c0-1-0.1-2.6-0.3-4.3c-0.1-1.2-0.2-2.5-0.2-3.5
		c0-0.5,0-1,0.1-1.4c0-0.2,0.1-0.4,0.2-0.6C720.7,57.4,720.8,57.1,721.1,57"/>
	<path class="st0" d="M723,63.9c-0.4,0.2-0.8,0-1-0.3c-0.2-0.4,0-0.8,0.3-1c0,0,0,0,0,0c2.1-0.9,5.3-2.6,7.1-3.5
		c0.3-0.1,0.6,0,0.7,0.2c0.1,0.2,0,0.5-0.2,0.7C728.2,61,725.1,62.8,723,63.9"/>
	<path class="st0" d="M723.4,58c0.3,0.2,0.4,0.7,0.2,1c-0.2,0.2-0.4,0.4-0.7,0.3c-0.1,0-0.2,0-0.4-0.1c-0.2-0.1-0.5-0.4-0.5-0.7
		c-0.1-0.6,0.2-0.9,0.4-1.1c0,0,0.1-0.1,0.2-0.2c1.1-0.8,3.3-1.6,5.2-2.7c0.8-0.4,1.5-0.8,2.1-1.2c0.2-0.2,0.6-0.1,0.7,0.1
		c0.1,0.2,0.1,0.5,0,0.6c-0.5,0.6-1.2,1.2-1.9,1.8c-2.1,1.4-4.4,2.4-5,2.9c-0.1,0-0.1,0.1-0.2,0.1c-0.1,0-0.1,0-0.1,0.1
		c0,0,0.2-0.2,0.1-0.1c0,0,0.2-0.4,0.1-0.3c0,0.1,0-0.5,0-0.4C723.6,58.5,723.4,58.1,723.4,58C723.5,58.2,723.3,58,723.4,58"/>
	<path class="st0" d="M735.8,64.7c0.3,0.4,0.2,0.9-0.2,1.2s-0.9,0.2-1.2-0.2c-0.3-0.4-0.2-0.9,0.2-1.2c0.3-0.2,0.7-0.2,1,0
		c0.1,0.1-0.3-0.1-0.3-0.1c0.1,0-0.2,0-0.2,0c0.1,0-0.2,0-0.2,0c0,0,0.3-0.2,0.7-0.4c0.2-0.2,0.6-0.1,0.7,0.1c0.1,0.2,0.1,0.4,0,0.6
		c-0.3,0.4-0.4,0.7-0.4,0.7c0,0,0-0.2,0-0.1c0,0,0-0.2,0-0.1c0,0,0-0.2,0-0.1C735.9,65,735.6,64.6,735.8,64.7 M734.9,52.6
		c0.1,0,0.2,0,0.3,0.1c0.6,0.2,0.5,0.5,0.6,0.6c0.1,0.2,0.1,0.3,0.1,0.4c0,0.3,0,0.5-0.1,0.8c-0.3,0.7-0.9,1.5-1.5,2.4
		c-0.6,1-1.1,1.9-1.3,2.6c-0.2,0.3-0.2,0.5-0.2,0.5c0,0,0-0.2,0-0.1s-0.2-0.4-0.1-0.3l-0.2-0.2c0.1,0.1-0.3-0.2-0.2-0.1
		c0.1,0-0.2,0-0.2,0c0,0,0,0,0,0c0.1,0,0.3-0.1,0.6-0.2c0.6-0.2,1.3-0.6,2.1-1c0.9-0.4,1.7-0.8,2.5-1c0.3-0.1,0.7-0.2,1-0.2
		c0.2,0,0.5,0,0.8,0.1c0.3,0.1,0.6,0.4,0.8,0.7c0.4,0.8,0.1,1.4-0.1,2c-0.2,0.6-0.5,1.1-0.7,1.6c-0.6,1.3-1.5,2.4-2.2,3.3
		c-0.5,0.7-1,1.2-1.2,1.3c-0.4,0.4-1.1,0.4-1.5,0c-0.4-0.4-0.4-1-0.1-1.4c0.2-0.2,0.5-0.6,1-1.3c0.7-0.8,1.4-1.9,1.9-3
		c0.3-0.5,0.5-1,0.7-1.5c0.1-0.2,0.1-0.3,0.1-0.4c0,0,0,0,0,0c0,0,0.1,0.3,0.1,0.2c0,0,0.3,0.3,0.2,0.3c-0.1-0.1,0.3,0.2,0.3,0.1
		c-0.1,0,0.2,0,0.1,0c0,0,0,0,0,0c-0.1,0-0.4,0.1-0.8,0.2c-0.6,0.2-1.3,0.5-2.2,0.9c-0.7,0.3-1.5,0.7-2.2,1
		c-0.3,0.1-0.7,0.2-1.1,0.3c-0.4,0.1-0.9,0.1-1.4-0.3l0.2,0.2c-0.5-0.2-0.8-0.8-0.8-1.2c-0.1-0.4,0-0.8,0.1-1.2
		c0.4-1.1,1-2.1,1.7-3.2c0.6-0.9,1.1-1.8,1.3-2.2c0.1-0.2,0.3-0.4,0.5-0.5C734.2,52.7,734.1,52.5,734.9,52.6"/>
	<path class="st0" d="M743.7,51.9c0.4,0,0.7,0.4,0.7,0.8c0,0.3-0.3,0.6-0.6,0.7c0,0,0.2-0.2,0.2-0.1c0,0,0-0.1,0,0
		c0,0.1,0,0.4,0,0.8c0.1,0.8,0.4,2,0.7,3.2c0.4,1.7,0.6,3.3,0.9,4.5c0.1,0.5,0.1,0.8,0.1,1.1c0.1,0.4,0,0.7,0.1,0.8c0,0,0-0.1,0-0.1
		c0,0-0.1-0.2,0-0.2c0,0.1-0.2-0.3-0.1-0.2c0.1,0.1-0.4-0.4-0.3-0.3s-0.5-0.2-0.4-0.2c0.1,0-0.4,0-0.3,0c0.1,0-0.2,0-0.2,0
		c0.3,0,0,0,0,0c0.1,0,1-0.8,1.9-1.7c0.8-0.7,1.7-1.3,2.6-1.9c2-1.1,4-2.1,5.6-2.9c0.3-0.1,0.6,0,0.7,0.2c0.1,0.2,0,0.5-0.1,0.6
		c-1.4,1.2-3.1,2.6-4.6,4c-0.9,0.7-1.7,1.3-2.4,1.9c-0.5,0.4-1,0.9-1.4,1.3c-0.5,0.4-0.8,0.9-1.7,1c-0.4,0-0.7,0-1-0.2
		c-0.3-0.2-0.5-0.5-0.6-0.8c-0.2-0.5-0.1-0.7-0.1-0.8c0-0.3,0.1-0.4,0-0.5c0-0.2-0.1-0.5-0.2-0.9c-0.2-1.2-0.3-2.8-0.6-4.5
		c-0.2-1.2-0.3-2.5-0.3-3.5c0-0.5,0-1,0.3-1.4c0.1-0.2,0.3-0.5,0.5-0.6C743.1,51.9,743.4,51.9,743.7,51.9"/>
	<path class="st0" d="M746.3,59c-0.2-0.2-0.2-0.4-0.3-0.6c0-0.6,0.1-0.6,0.2-0.6c0.1-0.1,0.2-0.2,0.3-0.3c0,0,0.1-0.1,0.2-0.1
		c0.3-0.2,0.9-0.5,1.5-0.9c1.5-0.8,3-1.8,3.4-2.8c0.1-0.3,0.4-0.4,0.7-0.3c0.2,0.1,0.3,0.3,0.3,0.6c-0.2,1.6-1.9,3-3.2,4.1
		c-0.8,0.5-1.4,0.8-1.8,1c-0.1,0-0.1,0.1-0.2,0.1c-0.1,0-0.2,0.1-0.4,0.1C746.8,59.2,746.7,59.4,746.3,59 M747,57.4
		c0.4-0.1,0.8,0.1,1,0.5c0.1,0.3,0,0.6-0.3,0.8c-0.1,0-0.1,0.1-0.1,0.1c0,0,0.1-0.1,0-0.1c0,0,0.1-0.2,0.1-0.1c0,0,0.1-0.2,0-0.2
		c0,0,0-0.2,0-0.1c0,0,0-0.3,0-0.2c0.1,0.5-0.2,0.9-0.7,1s-0.9-0.2-1-0.7c-0.1-0.5,0.2-0.9,0.7-1c0.3-0.1,0.5,0,0.7,0.2
		c0.2,0.1-0.3-0.2-0.3-0.2C747.3,57.5,746.9,57.5,747,57.4c0.1,0-0.2,0-0.1,0S746.9,57.4,747,57.4"/>
	<path class="st0" d="M745.3,54.9c-0.6,0.5-1.4,0.3-1.9-0.2c-0.3-0.4-0.4-1-0.1-1.4c0.3-0.6,0.6-0.8,1-1.1c0.4-0.3,0.9-0.6,1.5-1
		c0.7-0.3,1.3-0.7,2-1c0.7-0.3,1.4-0.7,2.2-1c0.4-0.2,0.8-0.3,1.2-0.5c0.4-0.2,0.8-0.3,1.2-0.5c0.4-0.2,0.8-0.3,1.2-0.5
		c0.5-0.2,1.1-0.1,1.6,0.2c0.2,0.2,0.4,0.3,0.6,0.5c0.1,0.1,0.2,0.3,0.2,0.5c0,0.2-0.1,0.4-0.1,0.7c-0.1,0.5-0.5,1-1,1.2
		c-0.4,0.1-0.8,0.3-1.2,0.4c-0.4,0.2-0.8,0.3-1.2,0.5c-0.4,0.2-0.8,0.3-1.2,0.5c-0.7,0.3-1.5,0.6-2.1,1c-0.6,0.3-1.2,0.6-1.7,0.9
		c-0.6,0.3-1.1,0.5-1.4,0.7C745.5,54.7,745.3,54.9,745.3,54.9 M745.5,53.2c0.4,0,0.8,0.3,0.8,0.7c0,0.3-0.2,0.7-0.5,0.8
		c-0.4,0.1-0.7,0.2-0.9,0.3c-0.1,0-0.2,0.1-0.3,0.1c-0.1,0-0.2,0.1-0.7,0c-0.6-0.2-0.8-0.8-0.6-1.4s0.8-0.8,1.4-0.6s0.8,0.8,0.6,1.4
		c0,0.1-0.1,0.2-0.1,0.2c-0.1,0.1,0.2-0.5,0.2-0.3c0,0.2-0.1-0.7,0-0.6c0.1,0.2-0.3-0.4-0.2-0.3c0.1,0.1-0.2-0.2-0.2-0.1
		s-0.1,0-0.1,0C745,53.2,745.2,53.2,745.5,53.2"/>
	<path class="st0" d="M760.5,60c0.3,0.2,0.4,0.6,0.2,0.8c-0.2,0.3-0.6,0.4-0.8,0.2s-0.4-0.6-0.2-0.8c0.1-0.2,0.3-0.3,0.5-0.3
		c0.1,0-0.2,0-0.2,0c0.1,0-0.2,0.1-0.2,0.1c0.1-0.1,0,0,0,0c0.2-0.2,0.5-0.3,0.7-0.2c0.2,0.1,0.3,0.3,0.2,0.5c0,0,0,0,0,0
		c0,0,0-0.1,0-0.1c0,0-0.1-0.1,0-0.1c0,0-0.1-0.1,0-0.1S760.4,59.9,760.5,60 M762.4,49.5c0.2-0.2,0.4-0.3,0.7-0.3
		c0.2,0,0.4,0.1,0.5,0.2c0.3,0.3,0.3,0.5,0.3,0.6c0,0.2,0,0.5,0,0.7c-0.2,1.2-0.7,3-1.2,4.8c-0.4,1.5-0.9,3-1.2,4.1
		c-0.3,0.6-0.4,1-0.7,1.2c-0.1,0.1,0,0.2-0.5,0.3c0,0,0,0-0.1,0c-0.1,0-0.2,0-0.3-0.1c-0.1,0-0.1-0.1-0.1-0.1
		c-0.3-0.3-0.2-0.4-0.2-0.5c0-0.4,0-0.8,0.1-1.3c0.3-1.2,0.7-2.7,1.2-4.2c0.5-1.8,1-3.6,1.3-4.6c0.1-0.3,0.2-0.5,0.2-0.6
		c0-0.1,0-0.1,0.1-0.2C762.3,49.6,762.3,49.5,762.4,49.5 M763.1,50.7c-0.4,0.1-0.8-0.2-0.9-0.6c0-0.1,0-0.1,0-0.2c0,0,0,0.2,0,0.1
		c0-0.4,0.3-0.8,0.7-0.8s0.8,0.3,0.8,0.7C763.8,50.3,763.5,50.7,763.1,50.7c-0.2,0-0.3,0-0.5-0.1c-0.1-0.1,0.4,0.1,0.3,0.1
		S763.2,50.7,763.1,50.7"/>
	<path class="st0" d="M763.8,45.8c0.3,0.3,0.2,0.8-0.1,1.1c-0.3,0.2-0.7,0.2-1,0c0,0,0.1,0.1,0.1,0c-0.1,0,0.5,0.1,0.3,0.1
		c-0.1,0,0.4-0.1,0.3-0.1c-0.1,0,0.3-0.3,0.3-0.2c-0.1,0.1,0.2-0.3,0.1-0.3c0,0.1,0-0.2,0-0.2s0,0,0,0c0,0,0,0.2,0.1,0.5
		c0.2,0.5,0.5,1.3,0.8,2.2c0.6,1.3,1.5,2.8,2.4,4c0.7,1.1,1.3,2,1.8,2.7c0.5,1,0.8,1.8,0.7,2.5c0,0.3-0.3,0.5-0.6,0.5
		c-0.2,0-0.3-0.2-0.4-0.3c-0.1-0.3-0.5-0.7-1.2-1.4c-0.6-0.8-1.2-1.7-1.9-2.8c-0.8-1.3-1.7-2.9-2.3-4.5c-0.3-0.9-0.6-1.8-0.8-2.4
		c-0.1-0.3-0.1-0.6-0.1-0.9c0-0.2-0.1-0.5,0.5-0.8c0.3-0.1,0.6,0,0.8,0.1C763.7,45.6,763.8,45.7,763.8,45.8"/>
	<path class="st0" d="M759.6,59.4c0.4-0.2,0.8,0,1,0.4c0.2,0.4,0,0.8-0.3,1c-0.5,0.3-0.9,0.5-1.2,0.7c-0.2,0.1-0.3,0.1-0.4,0.2
		c-0.1,0-0.1,0-0.2,0.1c-0.2,0-0.7,0-0.9-0.5c-0.3-0.5,0-0.8,0.1-1c0.1-0.2,0.2-0.2,0.3-0.3c0.2-0.2,0.4-0.3,0.7-0.5
		c0.6-0.4,1.3-0.8,2-1.3c1.2-0.7,2.6-1.5,4-2.2c1.5-0.7,2.9-1.4,4.3-2c1.5-0.5,2.7-0.8,3.8-1c0.3,0,0.6,0.1,0.6,0.4
		c0,0.2,0,0.4-0.2,0.5c-0.8,0.5-1.9,1.2-3.1,2c-1.4,0.7-2.8,1.4-4.2,2.2c-1.4,0.7-2.8,1.4-4,2.1c-0.8,0.4-1.6,0.8-2.2,1.1
		c-0.3,0.1-0.5,0.2-0.6,0.3c-0.1,0-0.1,0.1-0.1,0.1c0,0,0.1,0,0,0c0,0,0.1-0.1,0.1-0.1c0,0,0.2-0.3,0.1-0.2c0,0,0.1-0.5,0.1-0.4
		c0,0.2-0.3-0.7-0.2-0.5c0.1,0.1-0.4-0.3-0.3-0.2c0.1,0-0.3-0.1-0.2-0.1c0,0-0.1,0-0.1,0c0.1,0,0,0,0.1,0
		C758.7,59.8,759.1,59.7,759.6,59.4"/>
	<path class="st0" d="M775.6,45c0.4-0.2,0.8,0,1,0.4c0.2,0.4,0,0.8-0.4,1c0,0-0.1,0-0.1,0c-0.1,0,0.1-0.1,0.1,0
		c0,0.1-0.1,0.4-0.1,0.7c0.1,0.6,0.3,1.6,0.5,2.6c0.2,1,0.4,2,0.6,3c0.1,0.7,0.2,1.4,0.4,2c0.1,0.6,0.2,1.1,0.3,1.6
		c0.1,0.5,0.1,0.8,0.2,1c0.1,0.3,0,0.7-0.2,0.9c0,0,0,0.1-0.2,0.2c0,0-0.1,0.1-0.2,0.1c-0.2,0.1-0.2,0.1-0.3,0.1
		c-0.3,0-0.6-0.1-0.8-0.4c-0.2-0.3-0.4-0.7-0.5-1.2c-0.2-0.6-0.3-1.1-0.4-1.7c-0.1-0.7-0.2-1.3-0.3-2c-0.1-1-0.2-2-0.3-3
		c-0.1-1.1-0.1-2.2,0-3c0-0.3,0-0.7,0.1-1C774.9,45.6,775.1,45.1,775.6,45"/>
	<path class="st0" d="M776.4,49.2c0.4,0,0.7,0.4,0.7,0.8c0,0.4-0.3,0.7-0.7,0.7c-0.2,0-0.4,0-0.7,0c-0.3,0-0.8-0.3-0.8-0.8
		c-0.1-0.5,0.1-0.7,0.2-0.9c0.1-0.2,0.3-0.4,0.5-0.5c0.8-0.7,1.9-1.4,3.2-2.2c1.4-0.9,2.8-1.8,4.1-2.5c0.7-0.3,1.2-0.6,2-0.6
		c0.4,0,0.8,0.2,1,0.5s0.3,0.5,0.3,0.7c0.1,0.4,0,0.7,0,1.1c-0.1,0.7-0.4,1.4-0.9,2.2c-0.8,1.3-2,2.5-3.2,3.5c-1,0.8-2,1.4-2.7,1.8
		c-0.3,0.2-0.5,0.3-0.5,0.3c0,0,0.2-0.3,0.1-0.2c0,0.1,0.1-0.4,0.1-0.3c0,0.1-0.1-0.7,0-0.5c0.1,0.2-0.5-0.7-0.3-0.5
		c0.1,0.1-0.4-0.2-0.3-0.2c0,0-0.2-0.1-0.2-0.1c0,0,0,0,0,0c0.1,0,0.2,0,0.2,0c0.2,0.1,2.4,0.1,4.3,0c0.7,0,1.3,0,1.9,0
		c0.8,0.1,1.5,0.1,1.9,0.1c0.1,0,0.2,0,0.3,0c0.5,0.1,0.8,0.1,1.2,0c0.3-0.1,0.6,0.1,0.6,0.4c0,0.1,0,0.3-0.1,0.4
		c-0.3,0.5-0.8,1-1.4,1.3c-0.1,0-0.2,0.1-0.2,0.1c-0.7,0.2-1.4,0.3-2.2,0.4c-0.7,0-1.3,0-1.9,0c-1,0-2,0-3-0.1
		c-0.9,0-1.6-0.1-2.4-0.4c-0.1,0-0.2-0.1-0.2-0.1c-0.2-0.1-0.4-0.3-0.5-0.7c-0.1-0.4,0.1-1,0.3-1.2c0.3-0.3,0.4-0.3,0.5-0.3
		c0.2-0.1,0.5-0.2,0.8-0.3c0.6-0.4,1.5-0.9,2.3-1.5c1.1-0.9,2.1-2,2.7-3.1c0.3-0.5,0.4-1.1,0.5-1.4c0-0.1,0-0.1,0-0.2
		c0,0,0,0.1,0,0.1c0,0,0.1,0.2,0.1,0.2c0-0.1,0.3,0.3,0.2,0.2c-0.1-0.1,0.5,0.2,0.3,0.2c-0.1,0,0.5,0,0.3,0c-0.2,0-0.5,0.1-1,0.4
		c-1.1,0.5-2.6,1.4-4.1,2.2c-1.3,0.7-2.5,1.3-3.2,1.8c-0.2,0.1-0.3,0.2-0.3,0.2c0,0,0,0,0,0s0.1-0.3,0.1-0.2c0,0.1,0-0.3,0-0.2
		c0,0.1-0.2-0.5-0.2-0.4c0.1,0.1-0.2-0.2-0.2-0.2C776.4,49.2,776.3,49.2,776.4,49.2"/>
	<path class="st0" d="M796.4,42c0.2,0.4,0,0.8-0.4,1c-0.3,0.1-0.7,0-0.9-0.3c0,0,0.1,0.1,0.1,0.1s0.3,0.1,0.2,0.1
		c-0.1,0,0.2,0,0.2,0c0,0,0,0,0,0c-0.1,0.1-0.4,0.4-0.7,0.8c-0.6,1-1.3,2.4-1.9,3.8c-0.4,1-0.8,2-0.9,2.8c-0.1,0.4-0.1,0.7-0.1,0.7
		c0,0-0.2-0.1-0.1-0.1c0.1,0-0.1,0-0.1,0s0.2,0,0.6-0.2c0.9-0.4,2.2-1.3,3.5-2.4c1.1-0.8,2.1-1.5,3.2-2.4c0.2-0.2,0.6-0.1,0.8,0.1
		c0.2,0.2,0.2,0.5,0,0.7c-0.9,1.1-1.7,2.2-2.5,3.1c-1.4,1.4-2.6,2.5-3.8,3.2c-0.9,0.4-1.8,0.8-2.7,0.4c-0.6-0.3-1.1-0.9-1.3-1.5
		s-0.1-1.3,0.1-2c0.3-1,0.7-2,1.2-3.1c0.7-1.5,1.6-3,2.4-4c0.4-0.5,0.8-1,1.3-1.2c0.3-0.1,0.7-0.2,1-0.1
		C796.1,41.4,796.3,41.7,796.4,42"/>
	<path class="st0" d="M803.5,50.5c0.3,0.1,0.4,0.4,0.3,0.7s-0.4,0.4-0.7,0.3c-0.3-0.1-0.4-0.4-0.3-0.7c0.1-0.2,0.3-0.3,0.5-0.3
		c0.1,0-0.2,0-0.1,0C803.4,50.4,803.5,50.4,803.5,50.5C803.7,50.5,803.5,50.4,803.5,50.5 M801.3,41.7c0-0.4,0.4-0.7,0.8-0.7
		c0.3,0,0.6,0.2,0.7,0.5c0.2,0.4,0.3,0.9,0.5,1.4c0.1,0.4,0.2,0.7,0.3,1.1c0.1,0.7,0.2,1.3,0.3,1.9c0.1,0.6,0.2,1.2,0.2,1.8
		c0.1,1.2,0.1,2.2,0.2,2.8c0,0.1,0,0.2,0,0.3c0,0.1-0.1,0.3-0.1,0.4c0,0.1,0.1,0.2-0.5,0.6c-0.1,0-0.2,0.1-0.3,0.1
		c-0.8,0.1-0.7-0.2-0.8-0.3c-0.1-0.1-0.2-0.3-0.3-0.4c-0.1-0.1-0.1-0.2-0.1-0.3c-0.2-0.7-0.3-1.7-0.5-2.8c-0.1-0.7-0.1-1.3-0.2-1.9
		c0-0.6-0.1-1.2-0.1-1.8c0-0.5,0-0.8,0-1.2C801.3,42.6,801.3,42.1,801.3,41.7"/>
	<path class="st0" d="M811.3,52.3c0.3-0.4,0.9-0.5,1.3-0.2c0.4,0.3,0.5,0.9,0.2,1.3c-0.3,0.4-0.9,0.5-1.3,0.2
		c-0.3-0.2-0.5-0.7-0.3-1.1c0-0.2,0,0.3,0,0.2s0,0.1,0,0.1c0-0.1,0,0,0-0.1c0-0.1-0.1-0.3-0.2-0.6c-0.1-0.3,0.1-0.6,0.3-0.7
		c0.2-0.1,0.4,0,0.5,0.1c0.2,0.2,0.3,0.3,0.4,0.3c0,0,0,0,0,0c0,0-0.2,0-0.1,0s-0.4,0.1-0.3,0c0.1,0-0.3,0.1-0.2,0.1
		c0,0-0.2,0.1-0.1,0.1C811.6,52.1,811.3,52.4,811.3,52.3 M810.4,41.4c0.4,0.2,0.5,0.6,0.3,1c0,0.1-0.1,0.1-0.1,0.2
		c-0.1,0.1,0.2-0.4,0.2-0.3c0,0.1,0-0.1,0-0.1c0,0,0,0,0,0c0,0.1,0,0.2,0,0.3c0,0.3,0.1,0.8,0.2,1.3c0.2,1.1,0.5,2.5,0.9,3.6
		c0.2,0.9,0.6,1.6,0.9,2.4c0.2,0.5,0.4,1,0.5,1.4c0.1,0.5,0.2,0.9,0.2,1.4c0,0.3-0.1,0.5-0.3,0.7c-0.2,0.2-0.2,0.6-1.1,0.5
		c-0.1,0-0.2,0-0.3-0.1c-0.6-0.2-0.4-0.3-0.5-0.4c-0.2-0.2-0.3-0.4-0.3-0.7c0,0-0.1-0.3-0.2-0.6c-0.1-0.4-0.2-0.9-0.4-1.3
		c-0.2-0.6-0.6-1.5-0.9-2.6c-0.3-1.4-0.4-2.9-0.5-4.1c0-0.6,0-1.1,0-1.6c0-0.2,0.1-0.4,0.1-0.6c0-0.1,0.1-0.2,0.2-0.4
		C809.6,41.4,810,41.2,810.4,41.4"/>
	<path class="st0" d="M801,49.1c-0.1-0.2-0.1-0.3-0.1-0.5c0-0.1,0-0.1,0-0.1c0.1-0.7,0.3-0.7,0.4-0.8c0.1-0.2,0.3-0.3,0.5-0.3
		c0.5-0.2,1.3-0.6,2.3-1.1c1.2-0.5,2.7-1.3,4.5-2.1c2.5-1,5.3-1.8,8.1-2.5c3.3-0.7,6.2-0.8,8.2-0.8c2.1,0.1,3,0.4,3.1,0.4
		c0.3,0,0.6,0.1,0.6,0.4c0,0.1,0,0.2,0,0.3c-0.3,0.9-1.6,1.1-3.4,1.5c-2.1,0.3-4.8,0.5-7.7,1.3c-2.6,0.7-5.3,1.5-7.6,2.5
		c-1.7,0.7-3.2,1.4-4.6,1.9c-1.1,0.4-2,0.7-2.7,0.9c-0.2,0-0.4,0-0.6,0c-0.2,0-0.5,0.1-0.9-0.7C801,49.1,801,49.1,801,49.1
		 M804.9,46.8c0.4-0.1,0.8,0.2,0.9,0.6c0.1,0.4-0.1,0.8-0.5,0.9c-0.9,0.3-1.7,0.5-2.2,0.7l0.2-0.1c-0.1,0.1-0.1,0.1-0.2,0.1
		c0,0,0-0.1,0,0c0,0,0.1-0.1,0-0.1c0,0,0.1-0.3,0.1-0.2c0,0,0-0.3,0-0.2c0,0,0-0.2,0-0.2c0,0.1-0.1-0.4-0.1-0.2
		c0.2,0.6,0,1.2-0.6,1.5c-0.6,0.2-1.2,0-1.5-0.6s0-1.2,0.6-1.5c0.4-0.2,0.9-0.1,1.2,0.2c0.1,0.1-0.2-0.2-0.2-0.1
		c0.1,0.1-0.3-0.1-0.2-0.1c0.1,0-0.2,0-0.1,0c0.1,0,0.1,0,0.3,0l-0.2,0C803.2,47.3,804,47.1,804.9,46.8"/>
	<path class="st0" d="M739.8,73.9c0.4,0.2,0.6,0.6,0.4,1c-0.1,0.3-0.5,0.5-0.8,0.5c-0.1,0-0.1,0-0.3,0.2c-0.2,0.2-0.5,0.6-0.8,1.2
		c-0.6,1-1.3,2.1-1.8,3c-0.2,0.5-0.4,1-0.4,1.2c0,0.1-0.1-0.3,0-0.2c0,0.1-0.2-0.2-0.2-0.2c0,0,0,0,0.2,0c0.6-0.1,1.9-0.9,3.1-2
		c1.1-1,1.9-2.4,2.3-3.7c0.3-0.9,0.2-1.7,0-2c-0.1-0.2-0.2-0.3-0.6-0.3c-0.3,0-0.8,0-1.3,0.2c-0.5,0.2-0.9,0.5-1.1,0.8
		c-0.2,0.3-0.3,0.7-0.2,1.1c0.1,0.3-0.1,0.6-0.4,0.6c-0.2,0.1-0.5-0.1-0.6-0.3c-0.3-0.7-0.2-1.5,0.1-2.1s0.9-1.2,1.5-1.5
		s1.3-0.6,2.1-0.7c0.8,0,1.6,0.2,2.2,0.9c0.8,1.1,1,2.6,0.5,4.1c-0.5,1.5-1.3,3.2-2.7,4.6c-1.4,1.3-2.9,2.4-4.5,2.6
		c-0.6,0.1-1.2,0-1.7-0.3c-0.6-0.3-1-1.1-0.9-1.8c0.1-0.7,0.4-1.3,0.8-1.9c0.6-1.1,1.4-2.2,2-3.1c0.5-0.6,0.9-1.1,1.5-1.4
		C738.5,73.8,739.2,73.6,739.8,73.9"/>
	<path class="st0" d="M750.2,70.7c0.3,0.3,0.2,0.8-0.1,1.1c-0.3,0.2-0.7,0.2-1,0c0,0,0,0,0,0c0,0,0.2,0,0.1,0c-0.1,0,0.3-0.1,0.2,0
		c-0.1,0,0.3-0.2,0.2-0.1s0.1-0.2,0.1-0.1c0,0.1,0-0.1,0,0c0,0.2,0,0.8,0.1,1.5c0.2,1.6,0.5,3.6,0.9,5.1c0.2,1.6,0.5,2.5,0.7,2.9
		c0.2,0.3,0.2,0.8-0.2,1.1c-0.2,0.2-0.5,0.2-0.8,0.1c-0.9-0.5-1.6-1.7-2.1-3.3c-0.3-1.9-0.5-3.9-0.6-5.6c0-0.9,0-1.6,0.3-2.2
		c0.1-0.2,0.2-0.3,0.3-0.5c0.2-0.2,0.5-0.3,0.7-0.3c0.3,0,0.5,0.1,0.6,0.2S750.1,70.6,750.2,70.7"/>
	<path class="st0" d="M749.8,70.7c0.3-0.1,0.6,0,0.8,0.2c0.1,0.1-0.1-0.1-0.1-0.1s0,0,0.1,0.1c0.2,0.1,0.3,0.2,0.5,0.4
		c0.1,0.2,1,0.9,2,1.5c0.7,0.4,1.6,0.9,2.5,1.3c1.1,0.6,2.2,1.2,3.2,1.6c0.7,0.4,1.2,0.8,1.6,1c0.2,0.1,0.4,0.2,0.5,0.4
		s0.3,0,0.5,0.6c0.1,0.2,0,0.4-0.1,0.6c-0.3,0.5-0.5,0.4-0.6,0.4c-0.8,0.2-1.7-0.2-2.9-0.6c-1.1-0.5-2.3-1.1-3.4-1.7
		c-0.9-0.5-1.8-1.1-2.6-1.6c-1.2-0.8-2.1-1.5-2.6-2.5c-0.1-0.2-0.1-0.4-0.1-0.6C749.1,71.4,749.4,70.9,749.8,70.7"/>
	<path class="st0" d="M757.4,67.3c0.1-0.2,0.2-0.3,0.3-0.4c0.2-0.2,0.4-0.1,0.5-0.1c0.7,0,0.8,0.3,1,0.6c0.5,0.7,0.7,1.5,1,2.4
		c0.2,1,0.5,2,0.7,3c0.2,1.4,0.4,2.7,0.6,3.7c0,0.7,0.1,1,0.1,1.3c0,0.1,0,0.2,0,0.2c0,0-0.1-0.2,0-0.1c0,0.1-0.4-0.3-0.3-0.3
		c0.3,0.1,0.4,0.4,0.4,0.7c0,0.1,0,0.2-0.2,0.3c-0.1,0.1-0.4,0.2-0.5,0.2c-0.3,0-0.6-0.2-0.7-0.3c-0.3-0.3-0.6-0.8-0.8-1.2
		c-0.4-1.2-0.6-2.6-0.9-3.9c-0.2-1.1-0.3-2.1-0.5-3c-0.2-0.9-0.3-1.6-0.5-2c-0.1-0.3-0.1-0.4-0.1-0.7
		C757.4,67.6,757.4,67.5,757.4,67.3 M759,67.5c0.4,0.1,0.7,0.5,0.6,0.9c-0.1,0.4-0.5,0.7-0.9,0.6c-0.7-0.2-1.1-0.6-1.2-1.1l0.4,0.4
		c0,0,0.4,0.1,0.2,0.1c-0.4-0.1-0.7-0.4-0.7-0.8s0.4-0.7,0.8-0.7s0.7,0.4,0.7,0.8c0,0.2-0.2,0.4-0.4,0.6c-0.1,0.1,0.2-0.2,0.2-0.2
		s0.1-0.1,0.1-0.1l0.1-0.6C758.9,67.5,758.9,67.4,759,67.5"/>
</g>
<g id="Layer_6">
	<path class="st0" d="M1076.7,97.6c8-8.7,13.5-19.1,20.7-28.4c1.5-1.9,2.9-3.9,4.5-5.8c0.7-0.9,1.5-1.7,2.9-0.8
		c1.3,0.9,1.8,1.9,0.8,3.3c-2,3-3.8,6.1-5.9,9.1c-20,28.6-40,57.2-60.1,85.6c-2.6,3.8-5.2,7-5.3,12.1c-0.1,4.9-7.5,7.9-12,5.5
		c-1-0.5-1.7-1.5-2.8-1.9c-2.7-1-6.3-1.9-7.9,0.6c-1.2,1.9,1.7,4.4,3.6,5.8c7.1,5.1,13.5,11,20.2,16.5c10.5,8.6,15.9,19.2,13.9,32.9
		c-0.5,3.8,1.3,5.3,4.5,5.7c3.4,0.4,6.6,1.6,10,2c5.6,0.8,9,3.5,11.6,8.5c3.6,6.7,10.3,9.6,17.6,11.1c1.8,0.4,3.7,0.5,6.3,0.8
		c-4.1-5.6-8.6-10.1-14-13.8c-4.1-2.7-7.1-6.2-9.1-10.7c-3.9-8.9-9.5-16.7-15.5-24.2c-2.6-3.2-4.5-7-6.3-10.7
		c-4.8-10.1-12.4-18.6-16.7-29c-0.5-1.3-2.4-3-0.7-4c2.1-1.3,2.6,1.4,3.4,2.6c3.6,5.3,7.2,10.6,10.8,15.9c1.7,2.4,4.1,3.8,6.5,5.3
		c9.6,6.1,19.3,12,27.2,20.2c3.9,4.1,7.7,7.8,13.5,8.7c2,0.3,4.1,0.7,5,3.9c-7.3-1.7-14.2-1.7-19.2-8.3c-3.3-4.4-8.7-7.2-13.2-10.5
		c-4.2-3-8.9-5.5-13.5-9.2c2.3,8.7,9.3,13.5,12.7,20.6c0.4,0.9,1.2,1.5,1.5,2.4c2.5,6.2,6.8,8.8,13.4,6.9c1.8-0.5,3.6-0.2,5.4,0.8
		c7.4,4.3,11.3,3.8,17.4-1.9c0.7-0.7,1.4-1.4,2.4-0.7c0.9,0.7,0.4,1.7,0,2.6c-2.9,6.7-12.7,8.9-20.4,5.6c-3.3-1.4-6.6-2.7-10.5-2.3
		c0,6.5,5.1,9.4,8.9,12.9c5.1,4.6,9.4,10,14.4,14.6c1.3,1.2,2,2.3,1.3,3.9c-0.6,1.5-2.1,1.5-3.4,1.7c-13.3,1.9-23.7-2.6-31-13.9
		c-1.7-2.6-3.8-4.4-7.3-4.6c-4.5-0.4-8.7-2.2-13.2-2.7c-4.8-0.5-5.3-4.6-4.9-8.8c0.9-10-1-19.1-8.7-26.3
		c-7.7-7.1-15.5-14.1-23.1-21.2c-2.3-2.2-4.3-4.9-5-8.1c-0.8-3.8-3.6-3.7-6.5-3.9c-3.2-0.2-3.7,1.9-4.3,4.2
		c-5.4,18.6-16,34.1-29.5,47.8c-1.4,1.4-1.7,2.9-2.1,4.5c-1.8,6.6-6,10.9-12.7,12.3c-2,0.4-2.2,1.4-2.8,2.9
		c-5.2,12.5-13.8,20.9-27.2,25c-11.9,3.7-24.2,6.2-35.9,10.8c-2.6,1-5.4,1.6-8.2,0.1c-3-1.6-4.3-0.3-5.3,2.6
		c-2.7,8.2-9.1,12.8-16.8,15.7c-2.9,1.1-6,1.9-7.3,4.9c-5.7,12.9-16.9,18-29.4,21.8c-9.5,2.9-19.1,5.5-27.5,11.2
		c-6.8,4.5-9.8,10.7-10.3,18.6c-0.1,1.2,0.6,3-1.4,3.2c-2,0.2-2.5-1.4-2.7-3c-0.6-3.4,0.4-6.8,0.7-10.5c-5.7,0.8-11.1,1.4-16.6,2.4
		c-0.8,0.1-3.1,0.2-2.6,2.2c1.4,5.5-1.5,3.4-3.7,2.2c-11.6-6.4-22.2-2-32.7,3.2c-1.9,0.9-3.1,2.4-2.2,5.1c1,2.8,2.6,3,4.8,2.1
		c2.6-1.1,2.9,0.5,3.1,2.4c-0.3,0.2-0.6,0.4-0.9,0.6c-1,0-1.9,0.1-2.9,0.1c-3.4,0.1-6.8,0.2-8.9-3.5c-2.1-3.8,0.5-5.9,2.6-8.2
		c-2.7-3.1-5.6-1-8.2-0.8c-15.7,1.1-30.9,5.5-46.6,7.1c-14.6,1.6-28.8,5.8-43.6,6.2c-1.5,0-3.4,0.2-4.3,1.1
		c-4.8,4.7-11.2,6.2-16.9,8.9c-12,5.7-25,8.4-38.3,8.9c-2,0.1-4-0.6-4.5-2.7c-0.6-2.3-0.2-4.5,1.9-6.1c4.3-3.3,9.3-4.8,14.8-6.6
		c-0.4,6.5-7.1,5.8-9.7,9.5c3.8,1.6,7.3,0.3,10.6-0.7c9.3-2.9,18.9-4.6,27.6-9.7c5.2-3,10.8-5.9,16.7-7.9c1.8-0.6,3.5-1.4,5,0.8
		c1.1,1.5,2.9,1.1,4.2,0.6c14.8-5.6,30.6-6.5,46-8.9c12.3-1.9,24.5-5,36.8-6.2c15.2-1.4,30.2-4.6,45.5-5.5
		c13.2-0.8,26.1-3.7,38.1-11.2c6.6-4.1,11.5-9.4,17-14.2c5.8-5,9.6-11.6,12.8-18.5c2.7-6,1-8.7-5.4-8.9c-9.7-0.3-18.4,3.9-27.1,7.3
		c-4.8,1.9-9.2,5.2-13.6,8.1c-2,1.3-5.1,1.6-4.2,6c0.5,2.3-3.6,3.6-6.1,4.1c-8.9,1.9-17.8,4-26.8,5c-11.5,1.4-22.6,4-33.9,6.3
		c-1.1,0.2-2.2,0.7-3.3,0.7c-17.7-0.2-33.8,6.4-49.8,12.7c-10.5,4.1-21.2,7.8-31.5,12.5c-4.9,2.3-9.2,6-14.8,6.9
		c-7.9,1.3-15.8,1.5-23.7,2.3c-2.7,0.3-7.2-0.8-5.2,4.9c0.1,0.4-0.2,1.1-0.6,1.4c-1.7,1.4-11.9-2.5-12.3-4.6c-0.7-3.5,1.8-4,4.3-4.6
		c9.3-2.2,18.8-3.4,29.2-4.3c-8.7-2.3-16.5-2-24.4-2c-1.7,0-3.4,0-5.2,0c-2.3,0-4.5-1.1-4.8-3.2c-0.3-2.5,2.5-2.4,4.1-2.9
		c10.2-2.7,20.3-5.4,30.6-7.9c7.9-2,16.1-2,24.1-3.9c10.5-2.4,20-7.1,29.4-11.7c16.6-8.1,34.1-13.4,51.7-18.1
		c11-2.9,22.4-6,34.1-5.4c3.4,0.2,6.6-1.7,10.1-0.4c2.1,0.8,2.4-1.3,3.1-2.5c4.6-7.8,8.8-15.9,13.9-23.3c7-10.4,16.9-17.4,28.9-20.9
		c14.9-4.3,29-10.9,43.7-15.6c2.2-0.7,4.4-1.2,6.7-1.3c4.9-0.2,8.3-2.3,11.5-6.1c9.8-11.7,21.6-21.3,34-30c0.8-0.5,1.7-0.9,2.5-1.2
		c4.1-1.6,6.7-3.6,8.2-8.7c2.1-7.1,6.8-13.5,11.9-19.2c1.8-2.1,3.2-3.7,2-6.9c-1.3-3.4,0.6-6.9,2.9-9.4
		c18.1-19.9,36.4-39.5,55.3-58.6c13.1-13.2,25.7-27,38.6-40.4c13.8-14.4,27.8-28.6,41.7-42.9c1.5-1.5,2.9-3.6,5.2-1.6
		c2.6,2.3-0.4,4-1.4,5.1c-5.5,6-11.3,11.8-17,17.7c-1.1,1.1-3.2,2.2-0.7,3.9c3.2,2.3,0.7,4-0.7,5.4c-9.3,9.7-18.8,19.4-28.1,29.1
		c-10.6,10.9-21,21.9-31.7,32.7c-9.3,9.4-18.8,18.5-27.8,28.3c4.7-1.7,8.2-5.1,11.5-8.3c3.7-3.5,8.1-5.5,12.5-7.5
		c2.5-1.1,4.6,0.2,6.4,1.4c2.5,1.6,4.9,3.6,7.1,5.7c1,0.9,1.7,1.8,3.3,0.9c6.5-3.3,13.5-1.7,20.2-1.2c7.7,0.6,10.1,7.8,13.1,13.6
		c1.9,3.7,3.1,7.7,4.9,11.5c1.4,3.1,3.3,4.1,5.6,0.5c13.5-21.5,28.5-42,42.8-63c10.6-15.5,22.4-30.3,32.2-46.3
		c0.7-1.2,1.4-2.5,3-1.4c1.3,0.9,1.1,2.4,0.3,3.6c-1.6,2.3-3.4,4.5-5.1,6.8c-7,9.5-13.1,19.8-20,29.4c-4.4,6-9.2,11.9-12.4,18.8
		c-4.2,5.5-8.4,11-11.3,17.3c-3.9,3.6-7,7.8-9.2,12.6c-1,1.1-2.2,2.2-3,3.4c-6.3,9-12.6,18-18.9,26.9c-2.8,3.9-3.8,3.9-5.6-0.3
		c-2.2-5-4.8-9.7-6.6-14.9c-4.5-13.1-5.3-13.4-19.2-13.8c-2.1-0.1-4.2,0-6.3,0c-1.3,0-2.5,0.3-3.7,1.2c-7.3,5.7-15.8,10-21.9,17.1
		c-5,5.7-12.7,7.6-17.6,13.4c-4.7,5.5-9.2,11.2-14.3,16.2c-5,4.8-7.1,11.3-12.1,16.2c18,2.7,31.3,10.8,39.2,27
		c4.9-4.9,8.1-10.7,11.9-16.1c5.6-7.9,10.1-16.4,13.8-25.4c3-7.4,5.2-15.1,10.3-21.6c1-1.3,1.5-3.7,3.4-2.6c1.4,0.8,0.9,3.1,0,4.7
		c-0.3,0.5-0.4,1.1-0.7,1.6c-1.5,2.5-0.6,3.4,2.1,3.4s5.4-0.2,8,0.3c4.2,0.7,10-0.3,8.7,7.5c-0.5,2.7,2.6,2.7,4.7,2.6
		c2.3-0.1,3.4-2.2,2.5-3.5c-2.9-3.9-1.7-5.8,2.3-7.1c0.4-0.1,0.7-0.9,1-1.3c5.3-7.6,10.8-15.1,15.6-23c2.3-3.8,5.8-7.1,6.4-11.8
		c4.4-3.2,7.1-7.7,9.2-12.6c4.2-5.4,9.3-10.2,11.6-17l0,0L1076.7,97.6z M893.9,243.7c4.2,1.6,8.7,2.3,12.6,0.2
		c13-7,23.4-16.7,29.6-30.3c0.9-1.9,2.4-4.8-0.5-6c-5.9-2.4-11.8-4.8-18.5-4.7c-7.2,0.1-14.3,5.1-21.6,0.2c-0.9-0.6-1.6,0.5-2.4,1.1
		c-10.8,8.9-21,18.7-31.2,28.3c-0.9,0.8-2.1,1.6-1.5,3.3c1.5,3.8-1.2,3.5-3.6,3.4c-9.9-0.5-18.9,2.6-27.9,6.1
		c-7.9,3-15.3,7.5-23.8,8.9c-6.2,1-12,3.4-17.7,6.1c-8.1,3.8-15.2,8.8-19.2,17.4c3-4.1,7.4-5.8,11.7-7.7c4.2-1.9,8-0.4,11,2.3
		c3.2,2.9,2.7,6.8,1.2,10.5c-0.5,1.2-1.6,2.1-2.2,3.3c-2.4,5.5-8.7,7.4-11.4,12.7c6.3-3.5,12.9-6.3,19.5-8.8
		c7.7-3,15.5-5.1,23.9-3.5c5,1,8.1,5.2,7.2,10.3c-0.9,4.7-2.2,9.2-5.1,13.1c-3.5,4.8-7,9.6-11.6,13.4c3.6-0.9,7-2,10.3-3.2
		c6.9-2.4,12.8-6,16.9-12.6c4-6.5,9.5-11.3,17.2-13.9c9.5-3.1,11.9-12.8,15.8-20.7c2.6-5.2,0-10.2-2-15.1c-2.7-6.7-3.2-7.1-9.7-5.1
		c-2,0.6-4.1,0.9-6.1,1.3c-8.5,1.8-10.1,5.2-6,12.6c0.7,1.3,1.3,2.8,1.6,4.2c0.9,3.9-0.4,6.7-4.4,7.9c-4.8,1.3-9.6,2.2-15.1,2.6
		c2.8-4,6.6-3.8,10-4.6c7.4-1.8,8.4-4.1,4.2-10.5c-4.6-7-3.1-11.3,5-13.4c4.6-1.2,9.5-2.2,13.4-4.1c4.8-2.3,6.1-0.4,7.8,2.7
		c2,3.6,3.6,7.3,5.8,11.8c0.5-6.2-1.1-10.7-4.8-14.6c-0.9-1-2.3-2.5-0.8-4c1.8-1.8,2.7,0.4,3.6,1.4c5.3,5.7,8.7,12.3,8.6,20.3
		c0,1.9-0.6,3.9,0.2,6c6.6-9.2,2.9-17.6-1-25.9c-2-4.2-11.1-8.4-15.1-7.3c-1.3,0.4-2.5,2-3.6-0.3c-1.1-2.3,0.7-3.2,2.1-4
		c1.7-1,3.6-0.7,5.6-0.4c14.6,2.2,24.9,24.8,18,36.8c-0.7,1.2-2.1,2.2-1.6,4c10.8-1.7,20.9-5.9,31.3-8.8c8.9-2.5,16.4-7,22-15.1
		c2.8-4,4.4-8.3,6.5-12.5c1.9-3.6,1.9-3.6,5.7-1.9c0.5,0.2,1.5-0.1,2-0.6c1.7-1.2,3.2-2.7,3.9-4.8c2.5-7.4,1.8-14.1-3.7-19.9
		c-6.5-6.8-18.7-13.1-25.8-13c2.4,1,4.1,1.7,5.8,2.5c6,2.5,10.4,6.8,13.5,12.4c0.5,1,1.3,2.1,0.4,3.1c-1.3,1.4-2.4-0.2-3.4-0.7
		c-0.8-0.4-1.5-1.2-2.1-1.9c-2.5-3-4.1-2.6-5.5,1c-3.4,8.6-9.2,15.5-16,21.6c-4.8,4.4-10.3,7.9-16.6,9.8
		C901.6,248,897.2,247.8,893.9,243.7L893.9,243.7L893.9,243.7z M588.2,347.9c4.8,1.4,9.9,1.4,11.5,3.8c3.2,4.6,6.6,2.6,9.1,1.2
		c9.8-5.2,19.6-10.4,30.3-13.7c8.4-2.6,16.4-6.4,24.8-9.2c6.5-2.2,13.6-2.7,20.4-4.3c9.8-2.3,20-3,29.8-6c8.6-2.6,17.5-4.8,26.7-5.1
		c7-0.3,8.4-1.7,8.6-8.6c0.1-2.6-0.6-4.1-3.5-3.5c-14.5,3.1-29.5,4.8-43.6,9.5c-16.7,5.6-34,10.1-49.7,18.4
		c-13,6.8-27,10.4-41.4,12.6C603.8,344.2,596.4,344.5,588.2,347.9L588.2,347.9L588.2,347.9z M987.4,127.2c-9-5.5-11.7-5.5-18.8,0.7
		c-5.8,5-11.6,9.8-17.9,14.1c-3.3,2.2-6.1,5.1-8.7,8.2c-2.5,3.1-5.5,5.7-8.5,8.4c-10.7,9.6-20.8,19.8-28.4,32.5c2.5,0,4.9-0.4,7,0.1
		c8.1,1.9,12-1.5,16-8.7c10.5-19.1,28-31.8,44.5-45.2C977.2,133.5,982.5,131.2,987.4,127.2L987.4,127.2L987.4,127.2z M781.9,273.9
		c-5,0.6-9,5.7-12.9,10.3c-5.8,7-9,15.6-12.1,24.1c-0.4,1.1-1.7,2.6-0.3,3.6c1.4,1.1,2.9,0,4.1-1s2.2-2,3.2-3.2
		c5.8-6.5,11-13.6,17.8-19.1c3-2.4,4.8-5.3,6.3-8.6C790.2,275.7,788.7,273.7,781.9,273.9L781.9,273.9L781.9,273.9z M971.2,105.4
		c-3.5,3-7,5.6-9.8,8.7c-13,14.5-28.8,26.4-40.2,42.5c-1.2,1.8-4.3,3.4-2.4,5.4c1.7,1.7,3.1-1.8,5-2.6c0.5-0.2,0.8-0.8,1.2-1.2
		c5.7-5.7,11-11.5,15.3-18.6c5.2-8.6,13.6-14.9,20.3-22.5C964,113.2,967.5,109.4,971.2,105.4L971.2,105.4L971.2,105.4z
		 M1001.7,168.5c4.8,1.5,9.6,3,14.7,3.1c1.1,0,2.4,0.2,2.5-1.4c0.1-1.2-0.9-1.6-1.8-1.7C1012,168.4,1006.9,166.6,1001.7,168.5
		L1001.7,168.5L1001.7,168.5z M915.8,196.3c-6.2-1.2-10.5,0.1-14.4,3.5C905.7,198.3,910.5,198.6,915.8,196.3z M974.9,101.9
		c0.6-0.6,1.1-1.1,1.4-1.6c0.3-0.4,0.2-1.2-0.5-0.9c-0.6,0.2-1,0.9-1.4,1.4C974.3,100.9,974.6,101.3,974.9,101.9L974.9,101.9
		L974.9,101.9z"/>
	<path class="st0" d="M124.3,189.6c0.1-17.4-1.7-34.4-5.3-51.2c-2.9-13.4-6.3-26.8-10.5-39.9c-2.4-7.6-6.9-14.6-10.6-21.8
		c-0.8-1.6-3.2-2.9-1.5-4.8c1.5-1.7,3.8-2.7,6.2-1.9c2.8,0.9,5.9,1.2,7.6,4.2c1,1.7,3.1,2.8,4.2,4.5c4.9,6.9,10.2,12.7,18.5,16
		c8.6,3.4,9.4,6.9,7.9,17c-0.6,4.3-3,8.2-3.2,12.7c-0.5,12.2,3.9,23,8.9,33.6c6.9,14.6,14.3,28.8,12.9,45.7c-0.1,1.3-0.1,2.6-0.3,4
		c-0.2,2.6-3.9,5.3-2.3,6.9c3.4,3.4,6.9,7.5,12,8.2c7.8,1.1,14.9,4.2,22.5,5.8c2.4,0.5,4.9,0.1,7.4-0.3c4.3-0.6,8.7-1.8,12.3,2.1
		c1.2,1.3,2.9,0.8,4.2,0c5.6-3.2,10.8-2.4,15.9,1.4c1.8,1.4,4,2.1,6,3.2c2.7,1.5,5.9,3.3,6.3,6.3c1.4,9.3,10.5,13.1,13.9,21.2
		c3.3,7.8,9.4,14.2,12.7,22.2c0.7,1.6,2.4,2.4,3.6,3.5c8.1,7.4,19.3,6.1,28.7,10c4.2,1.8,9.2-1.2,14-0.1c1.7,0.4,3.7-1.6,4-4.1
		c0.3-2.6,0.8-5.2,1.5-7.8c0.4-1.4,1.4-3,3.3-2.4c2,0.6,1.9,2.1,1.2,3.7c-1.8,4.1-0.5,9.1-3.8,12.8c-2.2,2.4-4.2,4.3-7.6,4.2
		c-7.7-0.1-11.3,3.8-10,11.4c0.6,3.4,1.9,6.4-1.3,9.4c-1.6,1.5,0.8,2.6,1.7,3.3c5.6,3.7,11.5,6.5,19,6.6c-1.9-3.4-4.1-6.2-4.1-10.3
		c1.5,2,2.6,3.8,4,5.4c4.1,4.7,7.3,4.2,9.8-1.2c0.9-1.9,0.1-5.2,3.3-5.2c3,0,4.2,2.9,5.5,5.1c0.9,1.5,1.4,3.1,1.9,4.7
		c0.6,2.1,1.7,3.3,4.1,2.9c1.1-0.2,2.5-0.5,2.5,1.2c0,1.3-1,1.9-2.1,2.3c-4.1,1.4-7.9-0.2-9.4-4.9c-1.1-3.6-2.3-3.5-4.5-1.1
		c-1.6,1.8-3.8,2.4-6.5,3.3c6.8,4.4,13.6,7.2,21.3,7.1c4.6,0,8.2-2.5,9.7-6.5c1.6-4.3-0.5-8.3-4.4-10.8c-1.8-1.2-3.9-1.9-3.2-4.6
		c0.6-2.6,3.1-2.8,5-3c6.1-0.7,10.5-3.1,12.7-9.3c1.5-4.2,5.6-4.4,9.2-3.9c4.1,0.6,8.5,1.3,9.2,6.9c0.7-0.4,1.5-0.6,1.6-0.9
		c2.4-7.8-1.1-22.7-13.7-22.5c-1.1,0-2.3-0.1-3.4,0c-4.8,0.5-8.9,0.9-8.8-6.3c0.1-3.6-6.1-6.9-11.4-6.2c-5.6,0.7-11.5,0.4-16.4,4
		c-1.1,0.8-2.6,1.6-3.5,0.1c-0.9-1.3,0.3-2.4,1.3-3.4c6.1-6.1,23.3-8,30.6-3.2c1.5,1,2.5,2.5,2.7,4.2c0.7,4.8,3.8,5.6,8.1,5.8
		c13.7,0.6,23.4,12.9,19.2,25.9c-2.1,6.4-5,11.8-2.5,18.7c1.1,3-1.6,5.1-5.1,5.1c-1.4,0-3,0.1-3.5-1.3c-0.8-1.8,1.1-2.1,2.2-2.7
		c2.2-1.2,3-2.3,1.7-4.9c-1.1-2.3-1.7-5.2-0.9-7.8c1.6-5.3-2.5-6.3-5.7-7.2c-3.3-0.9-6.9-0.9-7.6,4.2c-0.5,3.6-3.4,6.2-6.2,7.9
		c-3.4,2.1-3.2,4.5-2.5,7.6c1.3,5,1.7,9.9-1.5,14.6c-1.7,2.5-5.2,2.5-6.7,5.6c4.6,2.7,9.2,5,14.6,2.4c2-1,4.1-0.8,6.1-0.9
		c2.4-0.1,4.4-0.8,5.5-3.3c1-2.3,1-4.4-1.3-6c-0.9-0.7-2.2-1.8-1-2.7c1.7-1.4,3.3-3.4,5.9-3.1c1.5,0.2,2.5,1.6,1.9,3
		c-1.2,2.9,0.7,3,2.5,3.6c4.9,1.6,9.9,2.9,14.2,5.6c1.1,0.7,2,0.7,3.2,0.4c10.5-3,21-2.9,31.8-1.5c4.7,0.6,9.7-1,14.5-1.8
		c12.9-2.1,25.7-4.5,38.5-6.4c7-1,12.2-5.5,18.5-8.1c8.8-3.6,16.6-9,24.1-14.7c1.2-0.9,2.2-2.1,3.9-0.6c1.4,1.2,2.2,2.3,1.7,4.4
		c-1.7,7-7.3,10.9-12.1,15.4c-1.5,1.4-2.6,2.6-2.4,4.7c0.1,1.8-0.5,3.8-1.9,4.6c-8,4.8-15.1,12.6-24.7,13.1
		c-9.1,0.5-17.8,2.7-26.6,4.2c-6.6,1.1-12.7,3.7-19,5.8c-8.8,2.9-17.8,4.9-26.7,7.5c11,1.4,22.1,2,33.1,0.7c8.9-1.1,17.4,0.6,26,1.5
		c4,0.4,7.2,0,10.6-2.2c12.3-8,26-13.8,36.8-24.1c1.2-1.2,2.8-1.3,4.2-0.3c0.2,0.1,0.7,0.5,1.2,1.2c0.2,0.2,0.4,0.8,0.7,1.8
		c0,0.1,0,0.2,0,0.4l0,0c0,0.9-0.3,1.5-0.4,1.6c-0.6,1.3-1.6,7-2.5,10.5c-0.8,2.8-2.1,5.3-5.2,7c-4.2,10.9-14.1,15.4-23.3,20.3
		c-6.4,3.5-13.6,4.8-20.8,1.2c-2.4-1.2-4.4,0.1-6.5,0.5c-16,3.6-32,7.7-48.3,8.7c-14.3,0.9-29.2,3-43-1.8
		c-10.7-3.7-21.2-8.5-31.3-14.3c-12.7-7.3-25.9-14.2-40-18.6c-4.7-1.5-9.6-0.8-14.4-0.9c-3-0.1-6-0.5-9-0.9c-1.9-0.2-4-1.9-4.8,1.6
		c-0.3,1.3-1.9,1-3,1.1c-14.4,0.6-28-3.2-40-10.6c-7-4.3-11.9-11.6-15.1-19.5c-1.4-3.5-3-6.8-5.3-9.8c-4.5-5.8-11.4-6.3-17.7-8.3
		c-9.7-3-21.3-2.7-28.8-9.3c-10.1-8.7-22.4-9.2-33.6-13.4c-6.9-2.5-13.8-9-14.6-15.8c-0.4-3.5-0.2-6.5,3.8-7.8
		c0.9-0.3,2.3-1.1,1.7-1.8c-3.2-3.7-1.8-9.2-5.7-12.7c-7.4-6.7-12.2-15.4-17.8-23.5c-1.9-2.8-4-5.5-6.3-8
		c-5.5-5.8-8.6-12.8-11.5-20.1c-3.6-8.9-7.9-17.4-13.2-25.6c-7-11-13.3-22.4-20.6-33.2c-6.3-9.4-14.5-17.3-22.4-25.3
		c-5.1-5.1-9.7-10.4-13-17c-2.5-5.1-7.5-8.3-11.6-12.2c-2.6-2.5-5.6-4.5-8.1-7.1c-3.3-3.3-2.8-4.8,1.3-6.6c8-3.6,14.2,0.3,20.4,4.8
		c6.3,4.5,12.9,8.5,20.7,9.8c11.1,1.9,15.3,7.6,13.3,18.7c-0.3,2-0.5,3.7,1,5.3c6.5,7.1,12.4,14.7,18.1,22.4
		c3.1,4.2,7.2,7.6,11.2,11.1c10.4,8.8,20.4,18.1,26.5,30.7C121.6,187.8,122,189.5,124.3,189.6L124.3,189.6L124.3,189.6z
		 M533.3,357.6c-9.3,8.6-20.5,14.3-31.2,20.7c-4.8,2.8-9.6,5.9-15.4,5.3c-10.2-1-20.2-1.3-30.5-0.2c-16.3,1.7-32.7-0.5-48.7-3.5
		c-4.6-0.9-9.7,0.3-14-2.6c-17.9-12.1-37.1-21.6-57.2-29.6c-7.4-2.9-14.1-7.4-22.4-8.3c-5-0.6-10.8-3-13.4-7.6
		c-2.3-4.2-5.2-4.6-8.7-4c-7.5,1.3-14.1,4.4-18.5,11c-3,4.5-2.3,9.1,2,12.4c1.1,0.8,2.1,1.6,3.3,2.3s2.6,1.5,2,3
		c-0.7,1.9-2.6,1.2-4,0.9c-5-1.4-8.9-4.1-10.9-9.1c-2-5.2-3.4-10.3-2.6-16.1c0.8-6.6-3.9-10.6-10.2-9.4c-5.1,1-8.4-0.9-10.2-5.7
		c-1.4-3.7-2.7-7.5-4.1-11.2c-0.7-2-0.8-4.1-0.4-6.2c0.2-1.2,1-2.1,2.4-1.9c1.2,0.2,1.2,1.3,1.3,2.2c0.7,3.7,1.6,7.4,2.2,11.2
		c1.3,7.5,3.9,9.4,11.1,7.4c5-1.4,7.7,1.1,9.4,5c1.6,3.7,3,7.6,1.9,11.8c1.4,0.3,1.8-0.6,2.1-1.1c5.2-7.9,12.6-11.6,21.9-11.7
		c1.9,0,3.7-0.7,5.6-1c1.5-0.2,2.9-1.5,3-2.3c0.6-4.6,0.8-9.4,0.9-14.1c0-1.3-1.7-1.3-2.8-1.5c-4.6-1.1-9.2-2.1-14-2.2
		c-1.9,0-4.2,0.5-5.4-1.2c-4.1-6-10.4-6.9-16.8-7.8c-1.8-0.3-4.4,0.5-4.5-2.2c-0.1-2.4,2.4-2.4,4-3.1c1.6-0.7,5-0.8,2.9-3.9
		c-5.3-7.9-9.1-16.7-14.4-24.4c-10-14.4-28.8-14.6-45.1-9c-3.7,1.2-6.9,3.3-11.3,1.5c-3-1.3-6.6,1.6-5.7,3.9
		c3.9,10,5.6,22.2,20.7,22.3c-4.6,3.2-10,3-13.4-1.2c-5.2-6.3-9.2-13.3-10.6-22.3c-11.2,7-14.1,20.5-23.2,28.9
		c1.7-10.3,5.9-19.5,12.2-27.6c4-5.2,8.6-9.6,15.3-11.1c1.4-0.3,3.6,0.6,4.7-1.3c-1.8-2-3.9,1.9-5.3-0.7c-2-3.8-5.5-3.2-8.9-3.6
		c-4.3-0.5-8.3,1.1-12.4,1.2c-8.2,0.1-11.9,4.1-11.1,12.1c0.5,5,0.5,9-5.8,10.2c-1.9,0.4-3.3,2.5-5.1,3.5c-3.6,2.1-4,4-0.4,6.8
		c3.6,2.7,2.9,5.9-1.1,7.6c-7.2,3.1-7.6,5.9-1.6,11.1c1.4,1.2,3.2,2,4.9,2.9c12,6.6,26.7,6.2,37.9,14.8c1.2,1,3.2,1,4.9,1.4
		c15,3.1,29.7,7.5,44.1,12.6c4.4,1.6,5.1,3.7,2.2,7.4c-1,1.2-1.4,2-0.6,3.5c3.2,5.8,6.8,11.3,11.4,16.1c11.6,12,27.6,13,42.8,17.6
		c-0.9-2.5-4.1-3.3-2.4-5.4c1.1-1.4,3.2-0.3,4.8,0.2c5.5,1.9,11.2,2.1,16.9,1.7c3.6-0.2,7.2-0.2,10.8,0.5
		c15.4,3.2,28.4,11.9,42.5,18.3c6.3,2.9,11.7,7.6,18.2,10.5c9.8,4.3,19.1,8.7,30.6,8.1c25.7-1.2,50.6-6.1,75.6-11.7
		c1.7-0.4,3.4-0.8,5,0c5.3,2.8,12.9,3.3,17.4,0.1c5.8-4.1,14.1-5.7,15.6-14.5c0.1-0.5,0.7-0.9,1.2-1.2
		C530.5,370.2,535,366,533.3,357.6L533.3,357.6L533.3,357.6z M167.3,232.6c-1.3-2.2-3-3.1-4.6-4c-9.8-5.7-19.4-11.8-27.9-19.3
		c-6.1-5.4-11.6-11.1-16.1-18.2c-8.3-13.4-18-25.7-31.2-34.8c-1.7-1.2-3.6-2.5-4.5-4.3c-3.9-7.9-10.8-13.3-16.1-20
		c-3.6-4.5-10-6.2-12.3-11.5c-4-9.4-12.9-11-20.7-14.6c-1-0.4-2.4-0.7-3.2,0.3c-1,1.2-0.5,2.6,0.3,3.7c2.2,2.6,4.4,5.2,6.8,7.6
		c9.9,10.4,20.1,20.7,28.6,32.3c5.8,7.9,10.8,16.3,16.1,24.6c7.1,11.2,14.3,22.3,19,34.9c2.1,5.8,4.4,11.9,8.7,16.4
		c4.5,4.7,8.7,9.5,12.3,14.9c3.2,4.7,5.7,9.7,9.7,13.9c5.9,6.3,5.5,6.4,13.1,2c3.6-2,5.5-4.1,4.3-8.5c-0.9-3.3,0.6-6.1,3-8.8
		C156.5,234.8,162.1,234.9,167.3,232.6L167.3,232.6L167.3,232.6z M527.4,329.9c-3.3,0.3-4.7,2.1-6.4,3.2c-9.7,5.9-19.8,11.5-31,13.4
		c-8.6,1.4-17.2,2.4-25.8,3.9c-7.4,1.3-15,2.5-22.4,2c-8.9-0.5-17.7-1.4-26.6,0.3c-2.6,0.5-5.8,1.6-7.7,0.6
		c-6.6-3.6-14.5-2.3-21.2-7.1c0.2,4,0.9,7.2-2,9.7c-2.8,2.4-6.5,0.8-9.8,2.2c10.2,7.8,12.3,8.5,25,10.7c14.9,2.5,29.7,3,44.3-2
		c8.6-2.9,17.1-6.2,25.9-8.6c7.6-2,15.3-5.7,23.2-4.6c12,1.6,19.7-5.6,28.4-11.1c-2.3,0-4.2,1.1-6.1,2.4c-1.5,1-3.4,2-4.6,0.3
		c-1.6-2.4,1-3,2.5-4.1C517.8,337.6,523.6,335.7,527.4,329.9L527.4,329.9L527.4,329.9z M113.1,99c5.8,13,6.5,25.8,10.5,37.8
		c3.8,11.5,4.9,23.8,4.4,35.9c-0.3,7.7,0.9,15.1,1.1,22.7c0.1,2.1,0.4,4.8,2.4,6.2c5.5,3.8,9.7,9.1,15.6,12.2
		c2.2,1.1,3.9,4.1,6.2,3.4c3.5-1.1-0.9-4.3,0.9-6.3c0.1-0.1,0.2-0.4,0.2-0.5c-0.1-8.9,0.1-17.5-2.8-26.3c-3.8-11.5-9.9-22-13.3-33.7
		c-2.6-8.9-7.5-17.5-4.5-27.4c0.3-0.9,0.1-2-0.7-2.6c-3.9-3.4-6.1-8.1-9-12.2C121.6,104.8,118.8,101.2,113.1,99L113.1,99z
		 M100.5,72.9c3.3,7.2,8.1,12.2,9.6,19c0.5,2.2,2.1,3.4,4.3,4c7.3,2,12.7,6.4,15.9,13.4c0.7,1.6,1.6,3,2.4,4.5
		c1.4,2.4,2.5,2.5,3.7-0.3c2.7-6.3,0.2-12.8-6.4-15.1c-6.8-2.4-12.2-6-16-12.6C111.3,80.8,107.6,75.7,100.5,72.9L100.5,72.9
		L100.5,72.9z M11.9,86.8c4.2,6.3,10.9,8.9,15.3,14.1c0.6,0.8,1.7,1,2.6,0.6c4.4-1.8,8.1,0.5,11.9,1.8c7,2.3,13,6.1,17.6,13.5
		c0.5-10.2-0.8-12.4-9.9-14.3c-8-1.7-14.7-5.2-21-10.3C24,88.7,19.1,84.9,11.9,86.8L11.9,86.8L11.9,86.8z M235.5,241.9
		c-1.4-2.7-3-3-4.3-3.7c-5.4-3.1-10.7-5.9-16.5-0.5c-1.7,1.6-4.3,1.2-6.1-0.8c-3-3.1-6.5-3.8-10.4-1.9c-1.7,0.8-5.3,1-3.7,3.6
		c1.2,2,1.9,6.4,7,4.5C212.2,239.1,223.4,237.1,235.5,241.9L235.5,241.9L235.5,241.9z M188,233.6c-5.4-0.2-9.8-4.3-15.3-3.9
		C177.1,233.5,182.7,233,188,233.6z"/>
	<path class="st0" d="M766.9,358c6.2-1.9,14,3.1,14.5,9.4c0.2,2.9-1.1,5.6-3.5,6.8c-3.6,1.8-9,2.1-4.4,8.1c0.1,0.1,0,0.5,0,0.5
		c-4.5,1.1-3.1,6.7-6.7,8.7c-2.2,1.2-4,2.8-2.6,5.9c0.9,2-0.6,2.8-2.3,2.9c-1.8,0.2-3.7,0.2-6.7,0.4c4.1-4.2,4.2-10,9.7-11.9
		c1.7-0.6,0.9-1.4,0.7-2.6c-0.9-3.8-2.5-7.1-4.7-10.3c-1.4-2-2.1-4.4,0-6.1c2.5-2,3.5,0.5,4.6,2.2c2.1,3.3,4.7,1.8,6.9,0.4
		c2.5-1.5,3.5-3.8,1.8-6.8c-1.9-3.3-5.6-4.4-7.8-7.3C766.6,358.3,766.7,358.1,766.9,358L766.9,358L766.9,358z"/>
	<path class="st0" d="M807.8,385.7c4.3,3.7,5.9,7.7,3.9,12.8c-1.5,3.6-3,7.2-4.6,10.8c-0.3,0.7-0.5,1.4-0.9,2
		c-1.7,2.4-4.1,3.9-6.7,5.1c-8.6,3.8-16,11.8-26.8,8.4c-1.1-0.3-2.2-0.7-3.1-1.2c-1.3-0.8-3-1.6-2.3-3.4c0.8-2.4,2.6-0.8,3.8-0.2
		c3.3,1.4,6.7,1,10.1,1c1.1,0,2.7-0.3,3.1-1c3.6-5.6,9.2-7.3,15.2-8.5c1.2-0.2,2.3-1.4,2.7-2.8c1.8-6.6,8.3-11.8,5.5-19.7
		C807.3,388.1,807.7,387.1,807.8,385.7L807.8,385.7L807.8,385.7z"/>
	<path class="st0" d="M759.1,425.9c-7.1,0.1-13.5-5.8-14-12.7c0-0.5,0-1.5-0.2-1.6c-5.8-1.7-4.4-8.8-8.6-11.7
		c-2.8-2-1.6-5.6-2.8-8.4c-0.1-0.2,0.5-1,0.9-1.2c1.2-0.4,1.7,0.6,2.2,1.3c2.1,2.9,4.4,6.1,5.5,9.1c1.3,3.5,3.4,5.8,5.6,8.3
		c0.5,0.6,1.6,1.3,1.5,1.6c-2.1,6.5,4.8,6.7,7.1,10c1.2,1.7,3,1.5,4.7,0.9c2.4-0.9,5.2-1.4,5.6,1.5c0.4,3.1-2.9,2.7-5.1,2.8
		C760.6,426,759.8,425.9,759.1,425.9L759.1,425.9L759.1,425.9z"/>
	<path class="st0" d="M335,305.1c1.4,1.2,2.1,1.8,2.9,2.3c1.4,0.9,2.9,2.1,4.6,0.6c1.5-1.4,1.3-3.1,0.4-4.7c-1.2-2.2-2.1-4.5,1-5.7
		c3.2-1.2,4.9,0.4,5.5,3.7c1.3,7.3,5.2,9,11.5,4.9c0.9-0.6,1.7-1.6,3-1.4c-0.3,5.8-8.7,11.9-14.1,9.6c-3.4-1.4-6.6-3-10.4-3.7
		C337.5,310.6,335.2,309.1,335,305.1L335,305.1L335,305.1z"/>
	<path class="st0" d="M786.8,357.7c11.1-2.1,22.1,6.7,22.4,17.9c0,1.8,1.3,2.6,1.9,3.9c0.6,1.2,0.6,2.8-0.6,3.6
		c-1.5,1-2.2-0.2-3-1.4c-2.1-2.9-3.3-5.5-4-9.4c-0.9-5.4-5.2-10.3-11.6-11.9C790.1,360.1,788,360.3,786.8,357.7L786.8,357.7
		L786.8,357.7z"/>
	<path class="st0" d="M727.5,366.3c0.3-0.2,0.6-0.4,0.9-0.6c3-0.3,4.7,0.5,4.2,4c-0.4,3.4-1.1,6.4-5.1,6.9c-1.9,0.3-3.2-0.9-4.1-2.5
		c-0.8-1.5-0.5-2.8,0.7-4.1C725.4,368.9,726.4,367.6,727.5,366.3L727.5,366.3L727.5,366.3z"/>
	<path class="st0" d="M375.1,328.3c-2.5,0.2-4.6-1-4.2-3.7c0.4-3,3.7-5.4,5.8-5.2c2.5,0.2,2.4,4.5,3.4,6.8
		C381,328.4,377.2,327.8,375.1,328.3L375.1,328.3z"/>
	<path class="st0" d="M749.7,385.8c-2.1,0.2-3-0.5-2.7-1.9c0.3-1.7-2.4-3.5,0.1-5c0.6-0.4,1.5-0.2,2.2-0.6c1.7-0.9,2.3-4,5-2.5
		c1.5,0.8,1.1,2.2,0.4,3.5C753.2,381.8,752,384.6,749.7,385.8L749.7,385.8L749.7,385.8z"/>
	<path class="st0" d="M738.4,377.4c0.2,1.5-0.7,1.7-1.7,1.8c-1.3,0.1-2.5-0.5-3.8,0.3c-1.2,0.7-3.2,3.1-3.8,0.5
		c-0.5-2,2.3-4,4.6-4.8C735.5,374.7,737.3,375.8,738.4,377.4L738.4,377.4L738.4,377.4z"/>
	<path class="st0" d="M766.5,358.5c-0.5,0.3-0.8,0.7-1.3,1c-1.4,0.7-2.8,2.4-4.3,0.8c-0.8-0.8-0.4-2.2,0.3-3.1
		c1.4-1.7,3-2.1,4.8-0.5c0.4,0.4,0.7,0.9,1,1.3C766.7,358.1,766.6,358.3,766.5,358.5L766.5,358.5z"/>
	<path class="st0" d="M730.7,389.3c-2.4-1.3-3.6-2.4-3.5-4.3c0-0.3,0.8-0.9,1.1-0.9C730.7,384.8,730.1,386.9,730.7,389.3
		L730.7,389.3L730.7,389.3z"/>
	<path class="st0" d="M234.7,287.7c2.4,1.3,4.3-0.5,6.3-0.5c1.3,0,2.6,0.6,3,2.1c0.3,1.2-0.8,1.7-1.6,1.9
		c-7.2,1.8-7.6,8.6-10.2,13.8c-0.4,0.8-0.3,1.9-0.6,2.8c-0.4,1.6-0.5,4.1-2.6,3.6c-1.8-0.4-1.3-2.8-0.8-4.4c1.8-5,3.2-10.1,6.9-15
		c-5.5,0.3-7.4,4.4-9.8,7.3c-2.5,3.1-2.9,7.6-5.8,11.3c-2-3.6-1.6-7-0.1-9.6c3.8-6.3,7.7-12.6,13.6-17.3c1-0.8,2.2-1.5,3.4-2
		c1.8-0.7,4.3-1.3,5.1,0.6c1.2,2.9-1.7,2.5-3.4,3C236.8,285.7,235.5,286,234.7,287.7L234.7,287.7L234.7,287.7z"/>
	<path class="st0" d="M98.7,72.3c2.2-2.7,3.8,0.1,5.7,0.6"/>
	<path class="st0" d="M156.5,211.3c-2,1.3-1.8,2.9-0.6,4.6"/>
	<path class="st0" d="M28.4,107.2c1.5,4.6,4.9,7.9,8,11.4"/>
	<path class="st0" d="M57,141.5c1.5,1.8,3.8,2.8,4.6,5.1"/>
	<path class="st0" d="M78.7,173.5c0.4,0.6,0.8,1.1,1.1,1.7"/>
	<path class="st0" d="M793.5,293.6c-0.6,0.4-1.1,0.8-1.7,1.1"/>
	<path class="st0" d="M801,237.7c-0.6-0.4-1.2-0.8-1.8-1.2"/>
	<path class="st0" d="M989.6,128.4c-0.7-2.4-2.5-3.9-4.6-5.2"/>
	<path class="st0" d="M1009.6,174.1c-1.3,2.6,0,4.7,1.1,6.9"/>
	<path class="st0" d="M1097.7,261.6c1.3,1.2,2.7,0.5,4,0"/>
	<path class="st0" d="M1041.7,175.8c-1.2-2.7-3.3-5-4-8"/>
	<path class="st0" d="M696.3,324.5c-1.6,2-4.2,1.4-6.3,2.3"/>
	<path class="st0" d="M951.9,129.5c-0.8,0.5-1.1,1.7-2.3,1.7"/>
	<path class="st0" d="M1042.8,152.9c-0.4,0.6-0.8,1.1-1.1,1.7"/>
	<path class="st4" d="M834,240.3c2.4-3.9,6.8-3,10.3-3.9c8.3-2.1,9.3-4,5.1-11.6c-4.6-8.1-4.1-8.9,5.1-12.7
		c3.6-1.5,7.5-1.7,10.9-3.4c4.9-2.4,6.9-0.1,8.7,4.1c1.7,3.8,2.4,8.1,5.1,11.5"/>
	<path class="st5" d="M740.9,404.5c0.4,1,0.8,1.9,1.1,2.9"/>
	<path class="st5" d="M746,409.7c0.5,0.8,1.7,1.1,1.7,2.3"/>
	<path class="st5" d="M748.9,418.3c0.6,0.4,1.1,0.8,1.7,1.1"/>
	<path class="st0" d="M1109.7,225.6c-1.4,1.8-2.1,4.3-4.6,5.1"/>
	<path class="st0" d="M1079.4,228.4c-0.8,0.6-1.5,1.1-2.3,1.7"/>
	<path class="st0" d="M1110.3,44.3c-3.1,4.2-6.1,8.4-9.2,12.6"/>
	<path class="st0" d="M1092,71.8c-2.3,2.7-4.6,5.3-6.9,8"/>
	<path class="st0" d="M1043.9,140.4c-0.4,0.6-0.8,1.1-1.1,1.7"/>
	<path class="st0" d="M1037.1,150.7c-0.7,1-2.1,1.4-2.3,2.9"/>
	<path class="st0" d="M1004.5,154.1l-1.7,5.1"/>
	<path class="st0" d="M600.2,357.1c0.6-3.2-0.4-5.2-4-5.1"/>
	<path class="st0" d="M939.3,210.1c-2.6,7.5-7.3,13.8-12,20"/>
	<path class="st0" d="M922.6,195.1c-4,4.3-9.4,6.5-14.4,8.8c-3.2,1.4-8.3,1.5-11.3-2.5"/>
	<path class="st0" d="M440.1,350.8c-0.6-0.4-1.1-0.8-1.7-1.1"/>
	<path class="st0" d="M406.9,351.9c-2.2-0.4-3.5-3.4-6.3-2.3"/>
	<path class="st0" d="M387.5,345.1c-0.6-0.4-1.1-0.8-1.7-1.1"/>
	<path class="st0" d="M808.4,386.2c0.8,2.1,1.5,4.2,2.3,6.3"/>
	<path class="st0" d="M384.6,349.1c0-1.5-0.2-3.1,0.6-4.6"/>
	<path class="st0" d="M926.2,190.7c-0.4,0.6-0.8,1.1-1.1,1.7"/>
	<path class="st0" d="M79.9,143.8c0.7,1,2.1,1.4,2.3,2.9"/>
	<path class="st0" d="M185.6,253.6c0.5,7.7,4.5,13.9,8.6,20"/>
	<path class="st0" d="M194.8,274.2c3.5,4.6,8.2,4.6,13.1,3.4"/>
	<path class="st0" d="M628.8,364.5c-1.2,2.9-3.8-0.7-5.2,1.1"/>
	<path class="st0" d="M570.5,373.7l1.7-1.7"/>
	<path class="st0" d="M117.6,99.2c-1.5-1.8-3.6-1.8-5.7-1.7"/>
	<path class="st0" d="M949,242.1c-1.8,1.3-0.7,3.8-2.3,5.1"/>
	<path class="st0" d="M1103.4,223.3c-3.6-0.9-7.2-1.9-10.9-2.9"/>
	<path class="st0" d="M146.2,215.9c-0.6-0.4-1.1-0.8-1.7-1.1"/>
	<path class="st0" d="M126.8,171.2c-0.4-0.6-0.8-1.1-1.1-1.7"/>
	<path class="st0" d="M108.4,92.3c-0.4-0.6-0.8-1.1-1.1-1.7"/>
	<path class="st0" d="M101.6,78.6c-0.4-0.6-0.8-1.1-1.1-1.7"/>
	<path class="st0" d="M799.2,362.2c-1.6-2-4.2-2.2-6.3-3.4"/>
	<path class="st0" d="M933,140.4c-3.8,4.4-9.2,7.4-11.4,13.1"/>
	<path class="st0" d="M242.3,311.9c0.8,1.7,1.5,3.4,2.3,5.1"/>
	<path class="st0" d="M244.6,317.6c3.1,5.4,7.6,3.6,12,2.3"/>
	<path class="st0" d="M236.5,291.3c-3.4,6.6-6.1,13.4-8,20.6"/>
	<path class="st0" d="M264,327.9c2.1,1.7,1.4,4,0.5,5.7c-1.3,2.2,0.7,3.1,1.2,4.6"/>
	<path class="st0" d="M770.6,375.4c0.9-1.7,2.8-0.9,4-1.7"/>
	<path class="st0" d="M768.3,358.8c-2.6-1.5-5-1.9-6.9,1.1"/>
	<path class="st0" d="M346.3,338.2c1.8,1.6,3-0.7,4.6-0.6"/>
	<path class="st0" d="M364.1,305.6c-2.4,2.4-4.9,4.7-8,6.3"/>
	<path class="st0" d="M105.6,78c-1.3-0.8-2.7-1.5-4-2.3"/>
	<path class="st0" d="M512.2,350.8c-0.6,0.4-1.1,0.8-1.7,1.1"/>
	<path class="st0" d="M93,74.6c-0.6,0.4-1.1,0.8-1.7,1.1"/>
	<path class="st0" d="M720.9,353.7l-1.7,3.4"/>
	<path class="st0" d="M334.9,306.2c3.2,2.9,6.3,6.1,10.9,2.3"/>
	<path class="st0" d="M720.3,364.5c2.6,2.2,7.4-2.3,9.2,2.9"/>
	<path class="st0" d="M886.6,202.6c0.4,0.6,0.8,1.1,1.1,1.7"/>
	<path class="st0" d="M320,324.5c1.2,3.1,2.7,6.1,5.1,8.7c2.8,3,5.2,2.7,8.1,0.5"/>
	<path class="st0" d="M235.4,290.2c-1-1.2-2.3-0.3-3.4-0.6"/>
	<path class="st0" d="M731.7,378.2L730,380"/>
	<path class="st0" d="M195.4,242.1c-1.1-0.9-2.3-1.9-3.4-2.9"/>
	<path class="st0" d="M377.8,319.4c-1.7,1-1.7,3.2-2.9,4.6"/>
	<path class="st0" d="M767.2,386.2c2.2,3.5-0.7,3.8-2.9,4.6"/>
</g>
</svg>
