<?xml version="1.0" encoding="utf-8"?>
<!-- Generator: Adobe Illustrator 27.7.0, SVG Export Plug-In . SVG Version: 6.00 Build 0)  -->
<svg version="1.1" id="Layer_1" xmlns="http://www.w3.org/2000/svg" xmlns:xlink="http://www.w3.org/1999/xlink" x="0px" y="0px"
	 viewBox="0 0 421.2 265" style="enable-background:new 0 0 421.2 265;" xml:space="preserve">
<style type="text/css">
	.st0{stroke:#000000;stroke-miterlimit:10;}
</style>
<path class="st0" d="M166.6,25.1c0.6-7,0-13.3-0.2-20.1c3.6,0.5,3.9,3.1,3.8,5.5c-0.2,3.7,1.7,5,4.7,6.6
	c16.1,8.5,19.3,16.4,18.3,32.9c-0.3,4.7-4.2,7.7-7.1,11.1c-0.4,0.5-1.1,0.9-1.8,0.5c-0.9-0.6-0.6-1.4-0.2-2.2
	c0.2-0.4,0.5-0.8,0.9-1.2c7.3-8.7,5.9-18.2,1.8-27.5c-2.7-6-8.9-8.5-14.3-11.8c-0.6-0.4-1.3-0.5-1.8,0.2c-0.6,0.9-0.2,1.7,0.5,2.2
	c0.9,0.6,2,1.1,3.1,1.5c11.5,4.5,16.6,16.1,12,27.7c-1.6,4-2.8,8.1-7,10.8c4.3,2.4,5.4,5.6,4.2,9.8c-2,7.5-4.6,14.9-5.4,22.6
	c-1.3,12.5-3,24.9-5.1,37.2c-1,6-2.1,12-4.5,17.7c-2.5,6-7.9,9.7-12.5,13.9c-1.7,1.5-3.1,2.9-3.3,5.2c-0.3,5.6-3,10-6.6,14
	c-2,2.3-0.9,3.5,1.1,4.6c6.5,3.7,10.9,9.5,15.5,15.2c0.6,0.7,1.8,1.4,0.9,2.4c-0.9,1-2.1,0.5-3.1-0.4c-3.6-3.2-7-6.6-10.5-9.8
	c-5.8-5.2-13-7.9-19-12.5c-2.2-1.7-3.5,0.8-5.1,1.8c-1.9,1.1-0.8,2.2-0.5,3.7c1.4,6.8,5.1,12.5,8.7,18.1c2.4,3.8,0.9,7.4-1.7,8.7
	c-8.8,4.2-17,10.7-27.5,9.8c-5.4-0.4-11.3-0.2-14.8-6.1c-0.9-1.5-3.2-2.2-4.9-3.1c-8.9-4.2-12.8-10.8-12.2-20.9c0-0.8,0-1.7,0-2.5
	c-2.6-0.3-4.5,0.7-5.7,2.9c-2.9,5.2-6.1,6.2-10.7,2.8c-1.2-0.9-1.9-0.6-3-0.3c-2.4,0.6-4.7,0.4-5.9-2.2c-1.6-3.4-3.4-6.9-2.4-10.9
	c0.1-0.3,0.7-0.7,1.1-0.7c0.8,0,0.9,0.7,1.2,1.3c1.1,2.2,0.9,4.9,2.6,6.9c1.2,1.5,2.1,3,4.2,1.3c1.9-1.6,3.6-1.6,4.9,0.8
	c0.6,1.1,1.3,2.1,2.6,1.7c1.4-0.4,2-1.7,2.2-3.1c0.4-2.2-0.6-4.3-0.3-6.7s-3.4-1.8-5.1-2.9c-2.8-1.8-7.3-2.4-7.3-6.5
	c0-4.5,1.5-9,6.5-10.7c2.2-0.8,2.1-2,1.2-3.6c-0.9-1.8-0.9-3.8-1-5.8c-0.1-3,1.1-5.3,3.6-6.7c2.6-1.4,4.5,0.6,6,2.2
	c2,2.2,3.2,1.9,5.5,0.1c4-3.1,8.6-0.8,9.3,4.2c0.2,1.4,0.1,2.7,1.7,3.2c5.9,2,6.8,6.3,5.3,11.8c5.6-3.5,6-8.8,1.1-12.9
	c-1-0.9-1.1-2-1.4-3.1c-1.5-5.8-3.4-7.3-9.7-7.2c-0.6,0-1.4,0.4-1.8-0.2c-2.6-3.5-5.4-5.7-10-3.3c-1.2,0.6-1.3-1.4-1.8-2.4
	c-0.7-1.4-1.8-3.2-3.6-3c-1.3,0.1-1.4,2-1.8,3.2c-0.5,2.1-1.7,4.4-3.7,3.7c-2.3-0.8-2.1-3.4-1-5.6c0.8-1.5,2.4-3.4-0.1-4.6
	c-1.9-1-3.4,0.2-4.6,1.8c-1.4,2-2.3,3.7-5,0.6c-2.4-2.9-4.1,0.6-4.5,2.4c-0.6,2.8-1.5,3.7-4.4,4c-3.2,0.4-6.2,2.1-8.3,4.7
	c-2.3,2.7-4.6,3.1-7.1,0.2c-0.1-0.1-0.2-0.2-0.3-0.4c-2.1-2.4-5.2-2.7-7.2-1.2c-1.8,1.4-1.5,4.9-0.1,6.9c1.9,2.8,1.6,4.3-1.7,4.7
	c-2.5,0.3-4.4,1.5-5,3.9c-0.8,3.1,0.4,5.5,3.1,7.1c0.2-0.2,0.4-0.3,0.5-0.4c1.5-1.9,1.9-5.6,5.7-3.9c2.1,0.9,2,6-0.4,8.4
	c-1.2,1.2-2.8,2-1.4,3.9c1,1.4,2.5,2.5,4.2,2s4.2-0.8,4.2-3.5c0-0.8,0.1-1.5,0.3-2.4c0.5-1.8,1.4-3.1,3.3-3.2
	c2.1-0.1,1.9,1.9,2.6,3.3c2.5-1.9,1.1-3.2-0.2-4.9c-3.8-4.7-3-9.3,2.1-12.7c1-0.7,2.1-1.7,3.6-0.6c1.2,0.9,1.8,2.3,1.3,3.5
	c-1.7,3.9,0.2,5.5,3.5,7.1c2.8,1.4,4.4,4.1,2.7,7.5c-0.7,1.5-1.5,3,0.7,4.1c1.1,0.5,1.4,1.4,0.7,2.4c-0.7,0.9-1.7,1.3-2.6,0.8
	c-2.1-1.2-4.5-1.9-5.8-4.4c-0.7-1.4-2-3.3-3.4-0.3c-0.4,0.9-1.3,0.9-2.1,1.1c-4.1,1.1-5.7,5.8-2.4,8.5c3.8,3.2,3.3,6.5,1.8,10.2
	c-1.2,3.1-1.7,5.2,2.8,4.8c0.5,0,1.2,0,1.4,0.2c2.3,3.2,5.7,4,9.4,3.6c0,2.1-3.5,3.3-1.8,4.2c2.7,1.5,4.5,5.1,8.3,4.2
	c3.2-0.7,5.6-2.7,7.9-4.9c2.2-2.1,4.2-4.6,8-1.9c2.3,1.6,5.9-0.2,9.1,1.1c-2.4,2.8-5.6,3.4-8.4,2.5c-3-0.9-4.5,0-6.4,2
	c-1.6,1.6-3.6,3-5.6,4.1c-3.7,1.9-7.6,3.5-10.8-1c-0.7-1-1.6-1.7-2.9-1.8c-4.8-0.2-6.5-4.1-8.2-7.5c-0.8-1.6-1.6-1.2-2.5-1.5
	c-5-1.4-6.2-3.4-4.6-8.2c1-3.1,1.8-6-1.4-8.4c-1.8-1.4-0.7-3.7-1.1-5.6c-8.1,0.8-8.1,0.8-11.8-6.7c-0.7-1.4-2.3-2.3-3.5-3.5
	c-4.9-5-5.2-9.1-0.6-14.2c1.7-1.9,2.4-3.8,2.4-6.2c0-8.4,6.7-12.5,14.2-8.6c2.5,1.3,3.8,1.1,6.4-0.4c4.5-2.5,8.8-4.7,12.2-8.7
	c3.4-4,8-0.9,11.9-1.9c3.8-1,12.2,2.5,15,5.5c0.9,1,1.7,1.2,3,1.2c2.4,0,4.5,1,6.4,2.5c1.9,1.6,3.9,3,6.6,2.9c0.8,0,1.6,0.4,2.4,0.8
	c3.9,1.8,4.2,6.2,6.7,8.9c2.6,2.8,4.6,5.5,2.8,9.7c-1.1,2.4,0.7,2.9,2.6,2.1c1.4-0.6,2.8-1.3,3.8-2.3c6-6.1,13.9-8.8,21.4-12.3
	c2-0.9,2-1.6,1.8-3.6c-1.5-17.6-1.6-35.2-0.7-52.8c0.1-1.7-0.4-2.8-1.3-4c-4.9-6.9-6.6-14-1.4-21.5c0.6-0.9,0.8-2.2,1.3-3.2
	c1.5-2.6,1.9-4.3-2-5c-2.4-0.4-3.9-2.4-5.1-4.5c-4.4-7.7-2.3-22.6,4-28.8c0.5-0.5,0.8-1.2,1.4-1.4c1.1-0.4,2.3-2.1,3.5-0.7
	c1.1,1.2-0.5,2.1-1.2,2.9c-5.9,6.8-6.6,14.8-5.3,23.2c0.3,2.1,1.2,4.1,3,5.6c1.7,1.4,2.8,1.9,4.1-0.5c1.9-3.5,4.9-4.8,8.8-3.3
	c3.3,1.3,4-0.4,3.5-3.1c-2.1-11,2.2-19.9,8.7-28.2c2.7-3.4,6.5-6,10.6-5.8c3.5,0.1,2.9-1.4,2.9-3.2c-0.1-2.8-0.2-5.5-0.4-8.3
	c-0.1-1.2,0-2.6,1.4-2.8c1.7-0.2,2.1,1.3,2.3,2.7c1,5.8,0.6,11.7,0.4,17.5C164.5,23.5,164.9,24,166.6,25.1L166.6,25.1z M158.1,58.1
	L158,58c0.2,2.1,4,2,3,4.6c-0.9,2.3-0.3,4.7,0.5,6.2c3.9,7.5-0.6,15.8,2.5,23.4c0.2,0.4-0.5,1.2-0.6,1.8
	c-2.8,15.3-10.4,28.8-16.5,42.9c-1.5,3.6-4.1,6.6-7.1,9.4c-4.9,4.5-10.5,7.1-16.5,9.6c-8.3,3.4-15.2,9.5-23.2,13.1
	c-7.5,3.4-13.1,8.8-18.7,14.3c-1.9,1.8-4.1,3.7-5,6c-2.4,6,2.8,17.8,8.7,20.3c3.3,1.4,6.1,3.4,8.2,6.2c1.4,1.9,3.2,2.4,5.3,3.1
	c11.9,3.7,21.1-3.5,31.1-7.4c1.8-0.7,2.7-2.6,1.1-5c-2.8-4.3-5-8.9-6.6-13.8c-1.6-4.8-3.8-5-7.1-1c-0.8,1-1.6,2.1-2.2,3.3
	c-0.8,1.4-1.7,2.7-3.9,2.7c1.4-8.6,7.2-13.9,13.4-18.6c8.9-6.8,18.2-13.1,27.7-19.1c6.1-3.9,11.6-8.9,13.4-15.8
	c3.2-11.9,5.1-24.2,7.4-36.3c2.1-11.5,2.2-23.2,5.1-34.6c1-4,2.4-7.6-2.3-10.8c-2.8-1.9-4.4-5.3-8.3-1.9c-1.7,1.5-3-0.3-4.4-0.9
	c-0.6-0.2-0.8-0.9-0.5-1.7c1.3-2.8,8.6-4.5,11.2-2.5c3.8,3,5.8,2.6,7.5-2.2c2.5-6.9,2.8-14,0.6-21c-1.9-6-7.6-7.9-13.4-4.9
	c-2.7,1.4-4.7,0.4-6.5-1.9c-0.7-0.9-0.9-2.5-2.8-2.3c-3.7,0.5-7,6.7-5.1,10.1c2.6,4.8,4.5,9.6,3.5,15.2c-0.2,1.2-0.7,2.4-2.1,2.1
	c-1.1-0.2-1.3-1.3-1-2.4c1.4-5.1-1.6-9.3-3-13.8c-2.7,4.9-2.4,9.8-0.6,14.8C151.9,53.3,153.7,56.8,158.1,58.1L158.1,58.1z
	 M154.5,67.1c-5.2,0.5-8.3-1.7-10-4.9c-2.1-4.1-4.9-4.9-9.2-5.1c-3.2-0.2-5,0.1-6.1,3.4c1.2,0.3,2.3,0.5,3.3,0.9
	c1.2,0.5,2.9,1.2,2.5,2.7c-0.5,2.3-2,0.6-3,0.3c-0.9-0.2-1.5,0.3-2.1,0.9c-6.2,6-7.6,13.1-3.9,20.9c1.5,3.1,2.1,6.2,2.1,9.6
	c0.1,9,0.3,17.9,0.5,26.9c0.2,7.2,2.6,14.4,0.8,21.7c-0.3,1.3,0.5,2.5,1.2,4c3.4-2.4,7.5-4.2,9.5-7.9c2.3-4.2,4.3-8.6,6.3-12.9
	c1.2-2.5,2.4-5.5-1.6-7.4c-0.8-0.4-2.1-1.8-1.8-3.3c0.8-3.9-1.1-7.4-1.8-11.1c-0.9-5-1.7-10.1-2.5-15.1c-0.1-0.9-0.3-2.2,0.9-2.6
	c1.5-0.5,2,0.7,2.4,1.9c0.2,0.6,0.6,1.2,0.7,1.9c0.3,7.5,3.3,14.5,3.5,22c0.1,3.2,0.2,3.2,2.6,5.7c5.2-8.2,8-17.3,10.5-26.6
	c0.3-1.1,0.6-2.5-0.1-3.4c-2.6-2.9-1.2-6.1-1.1-9.4c0.4-7.7,1.2-15.5-6.1-21.4c-7-5.6-8.2-13.4-6.6-22c1.6-8.8,6.6-14.6,14.3-18.4
	c-11.8,2.2-15.8,11.8-18,21.5C139.3,51.2,144.3,60.2,154.5,67.1L154.5,67.1z M62.7,152.3c-1.6,4.1,0.9,6.9,2.1,10.1
	c1.4,3.8,0.4,5.7-3.2,5.8c-2.8,0.1-5.8,0-6.2,3.4c-0.4,3.1,1.7,5.1,4.4,6.5c2.8,1.5,5.5,2.9,7.7,5.6c2.8,3.3,5.3,2.7,7.6-0.9
	c1.4-2.2,1.9-4.6,1.6-7.1c-0.2-2,0.2-3.6,2.8-3.3c4.6,0.6,6.6-1.5,6.3-6.5c-0.1-2.3-0.1-4.8-3.6-2.4c-2,1.4-3.4,1.1-3.1-1.9
	c0.1-1.3-0.2-2.6-0.2-4c-0.1-2,0.1-4.2-2.8-4.3c-3.1-0.2-3,2-2.9,4.1c0.1,1.7-1,2.4-2.3,2.8c-1.6,0.4-1.9-0.9-2.4-1.9
	C67.1,156,65.7,153.7,62.7,152.3L62.7,152.3z M148.2,167.7c-4.7,2.8-8.5,4.9-12,7.3c-1.1,0.8-3.8,1.8-2,3.6c1.5,1.5,4.6,4.3,6.1,2.7
	C143.7,177.9,147.4,174.2,148.2,167.7L148.2,167.7z M31.5,160.1c-2.1,3-1.4,4.4,0.7,6.4C32,164.2,31.8,162.6,31.5,160.1z
	 M38.4,169.7c-0.8-0.3-1,0.2-1.1,0.6c-0.3,1.2,0.5,1.9,1.4,2.3c0.5,0.3,0.9-0.2,1-0.7C39.9,170.7,39.1,170.2,38.4,169.7z"/>
<path class="st0" d="M158,238.1c3-7.1,6.2-14.2,6.8-21.9c0.4-4.8,0.7-9.6,1-14.5c0.1-2.1,0.4-3.6,2.9-1.7c1.8,1.4,2.9,0.7,4.6-0.7
	c2.7-2.3,4.5-5.3,7.2-7.5c6.2-5.2,13-8.3,21.4-6.1c1.8,0.5,3.2,0.3,4.8-1.4c3.1-3.4,6.6-6.5,10.2-9.4c2.7-2.1,5.7-2.2,8.6-0.1
	c1.6,1.2,3,1.7,4.6-0.3c8.4-9.7,19.5-15.6,30.4-21.9c2.1-1.2,4.3-3,6.6-3.3c6.2-0.9,7.9-5.4,9.8-10.3c6.4-16.8,15.8-31.7,29.2-43.7
	c3.8-3.5,7.1-7.4,10.8-10.9c4.3-4.2,4.5-10.1,5.8-15.4c1.1-4.8,2.7-8.3,8.3-9.6c4.3-1,8.5-2.9,13-2.2c7,1,12.3-2.6,17.9-5.8
	c5.2-3,13.4-1.6,17.3,2.6c0.8,0.9,1.2,1.7,0.6,2.6c-0.8,1.2-2,0.2-2.6-0.2c-6.6-4.1-12.5-2.4-18.2,1.9c-4.1,3.1-8.8,4.3-14,4.1
	c-4.6-0.2-9.1-0.1-13.6,1.8c-2.8,1.2-4.7,2.7-5,5.5c-1.3,12.5-9.2,21-17.4,29.4c-7.4,7.6-15.2,15-20.4,24.2
	c-3.6,6.4-6,13.5-9.1,20.3c-1.2,2.6-3.1,4.7-4.1,7.3c-0.2,0.4-0.6,1.1-0.9,1.1c-7.3-0.8-11.5,5.1-16.7,8.3
	c-7,4.3-14.2,8.5-20.6,13.8c-1.3,1.1-3.4,1.7-1.4,4.2c1.6,1.9,2.6,2.4,4.9,1c10.7-6.5,22.8-9.6,34.5-13.3
	c10.3-3.3,18.4-9.8,25.9-16.9c3-2.9,4-8.1,5.5-12.5c3.7-10.5,8.7-20.4,14.6-29.8c2.5-3.9,4.7-8,7-12c0.6-1,1-2.2,2.5-1.9l0.2,0.2
	c-1.4,8.1-5.2,15.3-9.7,22c-4.2,6.3-5.8,13.8-10.6,20c2.1,0.3,3-0.5,3.7-1.4c7.4-9.1,17.9-14.1,27.7-19.8c6.4-3.8,11.8-9,17.9-13.1
	c4.8-3.3,3.4-6.8,3-11c-0.7-7,1.7-14.6,10.7-14.2c1.7,0.1,3.5-0.4,5,0.2c6.2,2.4,10.8-1,15.5-4c5.5-3.6,11.4-4.2,17.6-3.9
	c1.4,0.1,2.9,0.7,4.2,1.3c1.2,0.5,2.6,1.3,2.1,2.9c-0.6,1.9-2.2,0.9-3.3,0.7c-8.6-1.9-16.7-0.2-23.6,4.8c-4.2,3-8.4,3-12.6,2
	c-7.8-1.8-13.3,2-11.6,11c0.4,2.4,0.1,5,0.2,7.5c0,1.2-0.3,2.1-1.4,3c-12.4,10.4-25.8,19.2-39.2,28.2c-7.4,4.9-13.8,11.2-19.6,18.2
	c-9.9,12-21.6,21.1-37.3,25.2c-9.7,2.5-19.7,5.6-28.5,11c-1.4,0.9-2.6,2-3.9,3c-0.1,0.2-0.2,0.3-0.4,0.5c-1.2,2-2.9,3.2-4.6,1
	c-2.5-3.3-5.7-1.8-7.5-0.4c-7.2,5.2-14.9,4.1-22.5,2.2c-9-2.2-15.3,1.6-21.1,7.4c-1.5,1.5-2.7,3.9-4.6,4.5c-5.3,1.7-4.6,4.9-3.2,9
	c3.1,9.5,2.3,19.1,1.1,28.8c-0.6,5.2-0.9,10.4-2.7,15.5c-0.9,2.6,1.7,2.7,3.3,2.8c5.1,0.3,10.3-0.4,15.3-1.5
	c2.8-0.6,5.6-0.4,8.4-0.7c6-0.8,10.5-4.7,15.6-7.1c0.6-0.3,1.4-0.8,1.5-1.3c0.7-5.7,5-8.5,9.1-11.4c2.4-1.8,2.6-5.3,5.7-7.2
	c0.2,3-1.1,5-1.7,7.4c1.9-2.4,3.7-4.9,5.6-7.3c-0.5,7.5-5.7,11.2-11,15.2c9.8-3.6,19.7-6.8,31-5.4c-2.2,2.4-4.5,2.8-6.4,3
	c-13.4,1.7-24.8,8.6-36.7,14.1c-5.3,2.5-10.6,4.5-16.6,4.5c-4.1,0-8.2,1.6-12.3,1.8c-8.8,0.5-17.2-2.8-26-2.8
	c-3.2,0-4.3-4.4-8.6-2.8c-2.8,1.1-6.7-0.9-10.1-1.3c-1.6-0.1-2.9-0.7-4.2-1.4c-2.4-1.2-4.8-1.2-7.5-0.5c-6.4,1.8-12.1,1.7-16.6-4.9
	c-3.9-5.6-10.9-8-15.9-12.6c-2.1-1.9-4.4-3.6-5.5-6.3c-2.2-5.2-4.7-10.1-10.1-13c-1.4-0.8-1.7-2.3-1.1-4.3
	c6.8,2.4,11.7,6.6,14.3,13.2c1.2,3.1,3.1,5.7,5.7,7.3c4.3,2.7,7.7,6.6,12.4,8.8c1.6,0.7,3.2,1.7,4.3,3.3c4.3,6,6.9,6.6,14.1,4
	c3.7-1.3,6.6-4.3,10.7-4.9c-0.1,2.5-2.6,3.2-3,5.5c0.6,0.2,1.2,0.4,1.8,0.5C151.2,254.8,154.8,252.8,158,238.1L158,238.1L158,238.1z
	 M168.5,211.5c-0.8,3.2-0.2,5.8-0.9,8.5c-2.6,11-7.1,21.4-11.7,31.7c-0.4,1-1.8,2.1-0.9,3c2.1,2.1,5,1.6,7.5,1.4
	c1.9-0.1,4.1,0.6,5.4-2.3c2-4.2,1.9-8.7,2.3-13.1C171.4,231.1,173.8,221.4,168.5,211.5L168.5,211.5z M235.4,183.3
	c-1-2.5-2.3-3.4-3.8-2.9c-3.7,1.4-6.2,0.2-8.6-2.7c-1.4-1.8-3.6-1.3-4.5,0.4c-1.7,3.2-4.6,5.5-6.9,8.7
	C220,187.9,226.3,179.1,235.4,183.3L235.4,183.3z"/>
<path class="st0" d="M237.3,186.7c6.3,0.6,12.8,7.5,13.8,14.8c0.2,1.7,0.3,2.9,2.1,3.9c3.6,2.1,4.6,5.9,5,9.7c0.2,1.8,0.1,3.4,1.6,5
	c2.3,2.5,3.9,2.7,7.3,1.1c13-6.1,21.6-17.4,31.5-26.9c8.2-7.9,15.7-16.8,23.1-25.7c2.7-3.2,6.6-4.8,9.3-8.1
	c10.5-13.2,20-27.2,31.1-39.8c11.9-13.3,23-27.4,37.5-38.2c4.4-3.2,9.1-5.9,14.2-8c1.4-0.6,3.1-1.5,4,0.2c1.1,2.1-0.8,2.7-2.3,3.5
	c-12.8,6.5-23.3,15.6-32.9,26.4c-11.1,12.5-21.9,25.2-32.9,37.7c-2.5,2.8-4.6,6-6.6,9.3c-6.7,11.4-17,19.5-26.4,28.1
	c-7.4,6.8-13.9,14.3-21.1,21.1c-9.1,8.6-16.9,18.6-28.7,23.9c-1.6,0.7-1.7,1.8-1.6,3.2c0.1,2.5-1,4.5-2.3,6.4
	c-0.6,0.9-1.7,1.8-3,1.2s-1.4-1.8-0.7-3c2.4-4.2,0.5-6.7-3.2-8.6c-2.3-1.2-2.8-3.4-2.2-5.5c1.3-4.6-0.7-7.7-4.4-9.9
	c-2.8-1.6-3.6-3.4-3-6.9c0.9-4.9-2.5-8.3-6.3-10.9c-1.6-1.1-2.8-2.2-3.4-4C237,187,237.2,186.9,237.3,186.7L237.3,186.7z"/>
<path class="st0" d="M330.9,93c-0.1-5.7,4.9-7.7,8.2-10.5c6.2-5.3,12.6-10.4,18.3-16.3c4.7-4.9,11.6-6.6,18.2-8.2
	c0.9-0.2,2.1-0.2,2.3,1.2c0.1,0.9-0.5,1.6-1.2,2c-3.4,1.4-6.4,3.7-9.7,4.8c-3.9,1.3-6.3,3.6-9.1,6.3c-8.1,7.9-16.4,15.9-26.8,21
	L330.9,93L330.9,93z"/>
<path class="st0" d="M128.4,2.8c2.1,7.5-0.4,14.9,1.1,22.2c-0.7,0.6-2,0.5-2.5-0.2c-2.6-3.7-4.6-1.6-6.4,0.6c-3,3.5-6.3,7-8.5,10.9
	c-3.5,6.1-2.6,12.7-0.5,19.1c1.2,3.5,3,6.8,4.6,10.3c-1.7,0.3-2.6-0.5-3.1-1.5c-4.2-7.5-7.1-15.3-6.2-24c0.1-1.3,0.3-2.8,1-3.8
	c4.6-6,8.4-13,15.6-16.5c1.5-0.7,1.3-1.7,1.4-2.7c0.3-3.2,0.7-6.5,1-9.7C125.9,5.8,126.3,4.3,128.4,2.8L128.4,2.8z"/>
<path class="st0" d="M246.7,237.4c-3.3-10.1-7.4-18.4-13.1-25.9c-0.7-0.9-1.1-1.8-0.2-2.6c1-0.9,1.9-0.1,2.6,0.5s1.6,1.3,2,2.2
	c1.7,3.4,3,6.7,7.9,3.8c1.2-0.7,3.5-0.1,4.2,1.8c0.6,1.8-0.9,2.6-2.3,3.3c-2.8,1.4-3,3.4-1.7,6.2
	C247.5,229.6,249.3,232.8,246.7,237.4L246.7,237.4z"/>
<path class="st0" d="M130.6,0.8c3.2,2.2,2.4,4.6,2.6,6.6c0.2,2.6,0.2,5.3,0,8c-0.3,3.3,1.1,4.3,4.1,3.4c3.4-1,6,0.1,8.4,3.2
	c-4.1,0.8-7.8-1.8-11.5-0.2c2.2,1.8,5.2,0.6,7.4,2.1c0.7,0.4,1.6,0.5,1.3,1.7c-0.2,0.8-1,0.7-1.6,0.8c-2.8,0.4-5.5-0.6-8.4,0.4
	c-1.7,0.5-1.7-1.3-2.1-2.6C128.9,16.5,131,9.1,130.6,0.8L130.6,0.8z"/>
<path class="st0" d="M202.1,236.1c8.6-4.9,15.3-10.9,20.8-18.6C223.4,224.5,209.5,235.9,202.1,236.1z"/>
<path class="st0" d="M34.8,187.7c-0.8-0.9-1.8-0.2-2.7-0.5c-0.4-0.2-0.9-0.5-1-0.8c-0.2-0.7,0.2-1.2,1-1.4c1.6-0.4,3.2-0.9,4.7-1.4
	c1.6-0.5,3.2-0.3,4,1c1.1,1.7-0.7,2.6-1.7,3.6c-0.5,0.5-1.1,0.8-1.4,1.4c-0.8,1.3-1.3,3.6-3.5,2.2C31.6,190.3,35,189.2,34.8,187.7
	L34.8,187.7z"/>
<path class="st0" d="M186.5,234.1c4.8,0.9,7.5-1.6,9.6-4.9c0.9-1.4,2.1-1.3,3.5-1.2c0.7,0.1,1.2,0.5,1.2,1.3c0,0.6-0.4,0.9-1,0.9
	c-3-0.1-3.5,2.7-5,4.2C192,237.4,190.5,237.7,186.5,234.1L186.5,234.1z"/>
<path class="st0" d="M130.7,238.1c-5.3,1.6-10.2,1.1-14.4-2.9C121.1,236.1,125.9,237.1,130.7,238.1z"/>
<path class="st0" d="M158,238.1c-2.7-1.9-2.4-4.9-3.2-8.5C157.8,232.4,158.7,235,158,238.1L158,238.1L158,238.1z"/>
<path class="st0" d="M158.1,58.2c-0.6-1.1-0.7-2.4-0.1-3.4c4.8-7.1,1.6-14.1-0.2-21.2c-0.3-1.3-0.8-2.5-1.1-3.8
	c-0.2-0.9-2.2-1.9-0.1-2.7c1.4-0.5,2.1,0.8,2.7,1.7c3.6,5,3.7,11,4.6,16.8c0.7,4.5-1.5,8-3.7,11.4C159.8,57.6,158.7,57.7,158.1,58.2
	L158.1,58.2L158.1,58.2z"/>
<path class="st0" d="M166.1,63.9c1.3,3.9,6.2,3,8.4,6.4c2,3.1-0.6,4.7-1.6,6.6c-1.1,2.3-2.9,2.4-4.1-0.4c-1.3-3.3-2.6-6.7-4.1-9.9
	C163.9,65,164.5,64.6,166.1,63.9z"/>
<path class="st0" d="M136.8,74.3c-1.9-0.9-3.6-1.3-5.1,1.3c-0.8,1.4-2.9,0-3.6-1.2c-1-1.5,3-7.7,4.8-7.8c1.3-0.1,2.1,0.5,2.3,2
	c0.6,3.8,2.2,3,3.9,0.6c0.1-0.1,0.2-0.2,0.4-0.3c1.5-1.1,2.1-3.6,4.6-3.3c0.7,0.1,1.2,0.8,1,1.5c-0.9,2.2-1.1,5-3.6,6.2
	C140.1,74,138.5,74,136.8,74.3L136.8,74.3z"/>
<path class="st0" d="M151.6,70.5c-0.2,0.5-0.3,1-0.6,1.4c-2.3,4.2-4.7,8.3-7,12.5c-0.7,1.3-1.4,2.4-3,1.8c-1.8-0.6-1.4-2.2-0.8-3.3
	c2.3-4.7,3.1-10.1,7.6-13.6C149.8,67.8,150.8,68.7,151.6,70.5L151.6,70.5z"/>
<path class="st0" d="M69.6,170.9c1.7-1.9-5.4-4.8,0.7-5.6c1.9-0.3,2.9,2.8,2.9,5c0.1,1.7-0.7,3-2.5,2.9
	C68.6,173.3,68.7,172.2,69.6,170.9L69.6,170.9z"/>
<path class="st0" d="M150.5,32.1c4.6,4.8,6.1,10.5,5,17"/>
<path class="st0" d="M230,230.1c-1.2,2.3-2.3,4.7-3.5,7"/>
<path class="st0" d="M308.5,184.6c-9.7,13.8-23.2,23.8-35,35.5c-0.7,0.7-2,0.7-3,1"/>
<path class="st0" d="M265.5,223.6l-1.5,1.5"/>
<path class="st0" d="M332.5,90.6c-0.5,0.8-1,1.7-1.5,2.5"/>
<path class="st0" d="M59.5,136.6c1.2,0.5,1.5-1.1,2.5-1"/>
<path class="st0" d="M69.5,140.6c0.8-1,1.7-0.4,2.5,0"/>
<path class="st0" d="M80.5,144.6c1.8,0.7,3.7,1.3,5.5,2"/>
<path class="st0" d="M86.5,146.6c1.7,0.5,2.3,2.1,3,3.5"/>
<path class="st0" d="M94.5,157.6c0.3,0.5,0.7,1,1,1.5"/>
<path class="st0" d="M95.5,162.6c-0.3,0.8-0.7,1.7-1,2.5"/>
<path class="st0" d="M319.5,83.6c-0.3,0.5-0.7,1-1,1.5"/>
<path class="st0" d="M221.5,174.6c-1.7,1-3.9,1-5,3"/>
<path class="st0" d="M125,21.1c-1,0.2-2,0.3-3,0.5"/>
<path class="st0" d="M114.5,30.6c-0.7,0.7-1.3,1.3-2,2"/>
<path class="st0" d="M108.5,48.6c1.2,6.4,3.1,12.4,8,17"/>
<path class="st0" d="M154.5,250.6l6-13.5"/>
<path class="st0" d="M163.5,228.6c0.7-1.8,1.3-3.7,2-5.5"/>
<path class="st0" d="M238.5,215.6c0.3,0.5,0.7,1,1,1.5"/>
<path class="st0" d="M166.5,216.6c1-1.2,0.4-2.3,0-3.5"/>
<path class="st0" d="M170,17.1c9.7,2.8,17,8.2,20.5,18"/>
<path class="st0" d="M188.5,55.6c-1.3,1.7-2.7,3.3-4,5"/>
<path class="st0" d="M162.5,58.6h1.5"/>
<path class="st0" d="M176.5,90.6c1.5,2.2-0.4,3.7-1,5.5"/>
<path class="st0" d="M56.5,133.6c-1.5-0.8-3-0.6-4.5,0"/>
<path class="st0" d="M47.5,189.6c-1.5-2.1-1.5-4.6-1.5-7"/>
<path class="st0" d="M131.5,1.6c0.7,3.5,0.7,7,0,10.5"/>
<path class="st0" d="M131.5,15.6c1.2,0.8,0,1.7,0,2.5"/>
<path class="st0" d="M145.5,21.6c-4-1.6-8.2-2.1-12.5-1.5"/>
<path class="st0" d="M144.5,113.6c0.7,3.2,0.9,6.8,4.5,8.5"/>
<path class="st0" d="M116.5,235.6c4.8,1.8,9.8,3.3,15,3"/>
<path class="st0" d="M330,93.6c0.4,1.8-1.4,2.8-1.5,4.5"/>
<path class="st0" d="M303.5,149.6c-0.7,0.7-1.3,1.3-2,2"/>
<path class="st0" d="M177.5,25.6c-2.7-1-5.3-2-8-3"/>
<path class="st0" d="M160,258.1h-1.5"/>
<path class="st0" d="M161.5,17.6c-4.3-1.6-7.2,1.5-10.5,3"/>
<path class="st0" d="M147.5,24.6c-0.7,0.7-1.3,1.3-2,2"/>
<path class="st0" d="M145.5,27.1c-1.3,3-2.7,6-4,9"/>
<path class="st0" d="M140.5,39.6c-2.6,1.4,0.6,3.9-1,5.5"/>
<path class="st0" d="M143.5,57.6c2,4.4,4.7,8.2,10,9"/>
<path class="st0" d="M200.5,230.6c-1.9-3.2-3.2-1.8-4.5,0.5c-2.2,3.8-5.3,5.2-9.5,3.5"/>
<path class="st0" d="M223.5,217.6c-4.8,8.8-12.3,14.6-21,19"/>
<path class="st0" d="M235.5,229.6c-2.4,1.8-3,4.9-5,7c-1,1.1-1.9,3-4,1.5"/>
<path class="st0" d="M155.5,27.6c1.4,0.4,2.5,1,3,2.5"/>
<path class="st0" d="M162.5,43.6c-1.2,0.8,0,1.7,0,2.5"/>
<path class="st0" d="M161.5,51.6c-0.3,0.5-0.7,1-1,1.5"/>
<path class="st0" d="M160.5,53.6c-0.7,1-1.3,2-2,3"/>
<path class="st0" d="M16.5,180.6c2.4,1.5,4.3-0.7,6.5-1"/>
<path class="st0" d="M133.5,180.6c0.5,0.3,1,0.7,1.5,1"/>
<path class="st0" d="M159.5,61.6c-2.2,1.5,0,3,0,4.5"/>
<path class="st0" d="M138.5,144.6c-0.5,0.3-1,0.7-1.5,1"/>
<path class="st0" d="M126.5,94.6c1-1.2,0.4-2.3,0-3.5"/>
<path class="st0" d="M7.5,160.6c-1.3,0.8-1.6,2.2-2,3.5"/>
<path class="st0" d="M253.5,239.1c-2.2,0.5-4.3,1-6.5,1.5"/>
<path class="st0" d="M41.5,172.6c-0.7,0.8-1.3,1.7-2,2.5"/>
<path class="st0" d="M73.5,208.1c-1.2,0.1-2.4-0.2-3.5,0.5"/>
<path class="st0" d="M28.5,202.6c-0.5-0.3-1-0.7-1.5-1"/>
<path class="st0" d="M245.5,229.6c1,2.2,2.2,4.4,1,7"/>
<path class="st0" d="M394.5,73.6c-0.5,0.3-1,0.7-1.5,1"/>
<path class="st0" d="M365.5,85.6c-2,1.8-0.9,3.7,0,5.5"/>
<path class="st0" d="M42.5,205.6H41"/>
<path d="M445.8,272.8v-1.5"/>
<path class="st0" d="M133.5,209.6c-1.2,1.7-2.4,3.3-4.5,4"/>
<path class="st0" d="M112.5,220.6c-0.5,0.3-1,0.7-1.5,1"/>
<path class="st0" d="M74.5,190.6c1.4-1-0.4-2,0-3"/>
<path class="st0" d="M358.5,104.6c-0.5,0.3-1,0.7-1.5,1"/>
<path class="st0" d="M67.5,166.6c2.5-0.1,4.1,1,4.5,3.5c0.3,1.9-1,2.1-2.5,2"/>
<path class="st0" d="M124.5,190.6c1,2.2,2,4.3,3,6.5"/>
<path class="st0" d="M217,242.6c0,1.6,0.2,3,2,3.5"/>
<path class="st0" d="M155.5,230.6c0.8,2.5,1.7,5,2.5,7.5"/>
<path class="st0" d="M235.5,180.6l1.5,1.5"/>
<path class="st0" d="M138.5,244.6l-4.5,3"/>
<path class="st0" d="M133,71.1c2.1,0.4,4.1,4,6.5,0.5"/>
<path class="st0" d="M125,26.1c-0.7,0.4-0.9,1.5-2,1.5"/>
<path class="st0" d="M123.5,59.6c0.8,0.3,1.7,0.7,2.5,1"/>
<path class="st0" d="M166,66.1c0.4,0.7,1.5,0.9,1.5,2"/>
<path class="st0" d="M126.5,21.6c0.7,1.3,1.1,2.9,3,3"/>
<path class="st0" d="M39.5,185.6c-2.4,0.9-2.9,3.5-4.5,5"/>
<path class="st0" d="M238.5,188.1c-0.5-0.3-1-0.7-1.5-1"/>
</svg>
