<?xml version="1.0" encoding="UTF-8"?>
<svg id="Layer_1" data-name="Layer 1" xmlns="http://www.w3.org/2000/svg" viewBox="0 0 242.71 121.35">
  <defs>
    <style>
      .cls-1 {
        stroke-linecap: round;
        stroke-linejoin: round;
        stroke-width: 2px;
      }

      .cls-1, .cls-2 {
        fill: #e42a1d;
        stroke: #e42a1d;
      }

      .cls-2 {
        stroke-miterlimit: 10;
      }
    </style>
  </defs>
  <path class="cls-2" d="m229.48,6.88c3.52-3.01,6.2-6.82,9.44-10.08.68-.68,1.34-1.4,2.03-2.06.32-.3.68-.6,1.15-.19.47.41.59.82.15,1.34-.92,1.08-1.77,2.22-2.72,3.27-9.18,10.2-18.35,20.4-27.58,30.56-1.21,1.34-2.37,2.5-2.66,4.48-.28,1.93-3.3,2.74-4.97,1.57-.36-.26-.6-.68-.98-.88-1.02-.54-2.38-1.06-3.11-.16-.56.68.46,1.8,1.13,2.42,2.51,2.33,4.74,4.93,7.12,7.41,3.68,3.84,5.28,8.27,3.86,13.52-.39,1.46.24,2.12,1.47,2.44,1.3.34,2.51.93,3.79,1.27,2.16.58,3.33,1.81,4.14,3.89,1.09,2.79,3.56,4.26,6.31,5.19.7.24,1.44.37,2.41.61-1.32-2.38-2.85-4.37-4.79-6.04-1.47-1.26-2.48-2.76-3.02-4.59-1.08-3.67-2.89-6.95-4.91-10.18-.85-1.36-1.41-2.94-1.93-4.48-1.4-4.17-3.95-7.86-5.12-12.12-.15-.53-.79-1.28-.08-1.59.89-.38.94.65,1.22,1.2,1.16,2.24,2.31,4.49,3.47,6.73.53,1.02,1.41,1.66,2.29,2.39,3.44,2.82,6.97,5.61,9.66,9.19,1.33,1.78,2.61,3.42,4.86,4.03.75.2,1.56.46,1.76,1.77-2.77-1.01-5.48-1.33-7.12-4.17-1.08-1.89-3.03-3.24-4.66-4.72-1.51-1.36-3.2-2.58-4.85-4.23.48,3.5,2.96,5.73,3.97,8.65.12.35.38.65.47,1,.69,2.54,2.21,3.76,4.92,3.33.74-.12,1.43.08,2.09.57,2.7,2.03,4.22,2.03,6.88.1.31-.22.63-.5.97-.15.33.33.07.66-.12.99-1.45,2.46-5.37,2.87-8.22,1.23-1.24-.72-2.46-1.39-3.98-1.41-.31,2.54,1.54,3.93,2.87,5.48,1.76,2.04,3.17,4.34,4.91,6.4.44.53.67.98.33,1.59-.31.58-.88.48-1.4.48-5.27.11-9.12-2.16-11.44-6.93-.54-1.11-1.28-1.88-2.63-2.17-1.72-.36-3.28-1.27-5.03-1.69-1.85-.44-1.85-2.07-1.5-3.66.85-3.87.52-7.52-2.13-10.68-2.65-3.15-5.36-6.23-8-9.37-.81-.97-1.45-2.11-1.58-3.4-.14-1.54-1.22-1.62-2.35-1.83-1.22-.23-1.52.58-1.89,1.42-3.01,7.03-7.9,12.55-13.81,17.23-.6.48-.79,1.04-1.04,1.64-1.03,2.49-2.86,3.98-5.55,4.18-.79.06-.93.44-1.24.98-2.63,4.62-6.37,7.51-11.81,8.47-4.84.86-9.75,1.24-14.52,2.5-1.06.27-2.2.36-3.2-.35-1.09-.78-1.66-.33-2.18.76-1.46,3.06-4.16,4.57-7.3,5.31-1.19.29-2.43.46-3.09,1.56-2.84,4.76-7.44,6.22-12.52,7.1-3.84.66-7.72,1.24-11.29,3.06-2.85,1.45-4.36,3.72-4.93,6.75-.09.46.11,1.18-.69,1.17s-.9-.65-.92-1.28c-.05-1.37.49-2.62.79-4.06-2.25.04-4.42.03-6.59.15-.33.02-1.23-.08-1.12.74.3,2.2-.76,1.26-1.56.67-4.24-3.05-8.58-1.84-12.92-.33-.79.28-1.33.78-1.09,1.88.24,1.14.88,1.29,1.77,1.03,1.07-.3,1.12.34,1.1,1.09-.12.08-.25.14-.39.18-.37-.03-.75-.05-1.12-.09-1.34-.13-2.65-.22-3.29-1.8-.65-1.59.48-2.29,1.4-3.08-.91-1.34-2.12-.66-3.17-.71-6.19-.31-12.34.65-18.53.56-5.77-.09-11.52.87-17.3.32-.58-.05-1.33-.07-1.73.24-2.08,1.61-4.69,1.9-7.04,2.68-4.95,1.65-10.15,2.09-15.4,1.65-.81-.07-1.53-.42-1.64-1.28-.12-.91.13-1.76,1.04-2.29,1.82-1.08,3.85-1.42,6.09-1.86-.46,2.5-3.05,1.9-4.24,3.24,1.42.8,2.85.47,4.17.24,3.78-.66,7.6-.89,11.25-2.46,2.17-.92,4.52-1.78,6.91-2.27.72-.14,1.45-.38,1.93.54.34.66,1.08.56,1.62.43,6.06-1.46,12.24-1.07,18.39-1.25,4.89-.14,9.8-.79,14.68-.66,6.01.16,12.01-.34,18.05.02,5.2.31,10.36-.2,15.41-2.53,2.78-1.27,4.93-3.11,7.32-4.71,2.48-1.66,4.32-4.07,5.87-6.63,1.35-2.2.81-3.36-1.69-3.73-3.78-.57-7.36.64-10.92,1.56-1.99.51-3.84,1.57-5.7,2.5-.85.42-2.07.38-1.93,2.12.08.92-1.58,1.24-2.6,1.32-3.56.31-7.14.7-10.7.67-4.54-.02-9.02.46-13.53.84-.44.04-.89.16-1.32.11-6.92-.92-13.48.89-20.07,2.55-4.3,1.08-8.64,2.02-12.88,3.39-2.04.66-3.86,1.89-6.11,1.99-3.13.14-6.24-.18-9.36-.24-1.09-.02-2.79-.66-2.28,1.65.03.15-.14.44-.3.53-.72.46-4.53-1.54-4.58-2.38-.09-1.39.88-1.47,1.91-1.6,3.74-.44,7.5-.41,11.6-.29-3.26-1.32-6.36-1.58-9.42-1.95-.67-.08-1.34-.17-2-.26-.91-.11-1.72-.63-1.72-1.48,0-1,1.1-.81,1.75-.91,4.1-.58,8.2-1.13,12.31-1.63,3.18-.39,6.38-.02,9.59-.36,4.21-.45,8.13-1.82,12.03-3.17,6.87-2.36,13.95-3.61,21.06-4.59,4.45-.61,9.01-1.26,13.56-.48,1.3.22,2.66-.35,3.96.34.78.42.99-.41,1.32-.85,2.17-2.82,4.19-5.77,6.54-8.45,3.24-3.7,7.44-5.98,12.29-6.76,6.02-.97,11.82-2.88,17.81-3.99.88-.16,1.78-.24,2.66-.17,1.92.15,3.37-.5,4.78-1.81,4.39-4.1,9.45-7.26,14.73-10.07.32-.17.7-.27,1.05-.36,1.67-.43,2.79-1.07,3.62-3,1.15-2.67,3.31-4.92,5.56-6.93.8-.72,1.44-1.28,1.12-2.61-.34-1.4.58-2.68,1.58-3.54,8.02-6.88,16.11-13.67,24.41-20.22,5.75-4.53,11.31-9.3,16.99-13.91,6.09-4.94,12.23-9.82,18.34-14.74.65-.52,1.32-1.25,2.1-.38.91,1.02-.33,1.53-.8,1.94-2.43,2.1-4.98,4.07-7.49,6.09-.47.39-1.35.7-.47,1.5,1.14,1.05.08,1.59-.53,2.09-4.11,3.35-8.25,6.66-12.37,10-4.64,3.74-9.25,7.53-13.92,11.23-4.07,3.22-8.23,6.32-12.21,9.71,1.91-.42,3.43-1.58,4.9-2.69,1.61-1.19,3.41-1.75,5.25-2.33,1.02-.32,1.77.29,2.44.84.91.76,1.73,1.65,2.51,2.55.36.42.57.77,1.26.52,2.69-.98,5.35-.03,7.93.5,2.99.62,3.58,3.52,4.46,5.94.56,1.53.83,3.16,1.35,4.71.42,1.26,1.08,1.78,2.16.45,6.28-7.76,13.13-15.04,19.72-22.53,4.88-5.56,10.17-10.74,14.79-16.54.33-.41.68-.92,1.25-.42.46.42.33,1.01-.03,1.42-.74.84-1.55,1.61-2.32,2.42-3.21,3.39-6.04,7.11-9.22,10.52-1.99,2.14-4.16,4.23-5.75,6.74-1.91,1.93-3.79,3.88-5.23,6.21-1.68,1.23-3.12,2.69-4.19,4.49-.45.39-.95.74-1.34,1.18-2.9,3.2-5.77,6.43-8.68,9.6-1.28,1.39-1.66,1.35-2.19-.4-.6-2.05-1.41-4.01-1.87-6.13-1.15-5.32-1.42-5.46-6.82-6.3-.81-.13-1.63-.2-2.44-.3-.53-.06-1-.01-1.49.29-3.11,1.89-6.63,3.14-9.38,5.62-2.21,2-5.32,2.38-7.52,4.38-2.1,1.91-4.12,3.93-6.37,5.64-2.17,1.64-3.31,4.09-5.51,5.74,6.88,1.9,11.69,5.71,14,12.42,2.14-1.67,3.68-3.79,5.42-5.7,2.55-2.81,4.75-5.92,6.58-9.24,1.52-2.75,2.77-5.66,5.04-7.96.46-.48.77-1.36,1.45-.85.53.39.21,1.24-.22,1.83-.13.18-.2.41-.34.58-.7.9-.39,1.3.65,1.42s2.1.19,3.1.48c1.61.47,3.92.35,3.02,3.32-.31,1.03.88,1.2,1.71,1.25.9.07,1.44-.69,1.14-1.25-.93-1.65-.39-2.33,1.25-2.66.19-.04.32-.3.47-.48,2.42-2.73,4.95-5.38,7.21-8.23,1.08-1.37,2.59-2.48,3.09-4.3,1.89-1.03,3.16-2.65,4.2-4.46,1.91-1.92,4.13-3.55,5.33-6.09h0v.06Zm-78.37,48.28c1.57.83,3.26,1.32,4.89.67,5.39-2.13,9.93-5.4,13.02-10.41.44-.71,1.18-1.76.11-2.35-2.19-1.22-4.37-2.45-7.01-2.71-2.81-.28-5.84,1.3-8.45-.94-.31-.26-.66.13-.98.33-4.67,2.96-9.07,6.28-13.52,9.54-.38.27-.91.52-.74,1.23.39,1.57-.62,1.32-1.56,1.16-3.83-.66-7.5.12-11.2,1.03-3.23.8-6.32,2.21-9.71,2.31-2.48.08-4.85.74-7.18,1.52-3.34,1.11-6.36,2.73-8.32,5.85,1.35-1.45,3.17-1.89,4.95-2.46,1.72-.54,3.13.23,4.17,1.42,1.12,1.27.74,2.8-.06,4.16-.26.44-.74.76-1,1.2-1.2,2.02-3.74,2.47-5.06,4.42,2.63-1.08,5.32-1.83,8.05-2.51,3.14-.78,6.32-1.25,9.51-.22,1.93.62,2.91,2.43,2.31,4.35-.56,1.78-1.28,3.48-2.62,4.88-1.61,1.69-3.18,3.41-5.19,4.67,1.44-.19,2.81-.44,4.18-.74,2.83-.62,5.28-1.72,7.19-4.1,1.87-2.33,4.23-3.96,7.39-4.58,3.86-.76,5.26-4.41,7.15-7.31,1.26-1.92.48-3.97-.06-5.99-.72-2.73-.9-2.91-3.56-2.44-.8.14-1.63.15-2.46.22-3.42.29-4.21,1.54-2.96,4.63.22.55.37,1.14.43,1.73.17,1.57-.48,2.61-2.11,2.85-1.92.29-3.84.39-6,.28,1.27-1.42,2.76-1.18,4.12-1.34,2.98-.34,3.48-1.21,2.14-3.92-1.48-2.97-.68-4.58,2.62-5.01,1.83-.24,3.82-.4,5.45-.95,1.98-.67,2.4.13,2.91,1.42.59,1.49,1.06,3.04,1.68,4.87.5-2.38.09-4.21-1.17-5.92-.31-.42-.77-1.09-.14-1.59.78-.6,1.05.31,1.33.7,1.81,2.48,2.8,5.22,2.38,8.35-.09.75-.41,1.51-.19,2.36,3.02-3.29,2-6.75.84-10.16-.6-1.76-3.92-3.82-5.54-3.56-.54.08-1.08.67-1.4-.3-.31-.95.44-1.21,1.01-1.45.71-.31,1.45-.11,2.2.09,5.58,1.57,8.52,10.89,5.26,15.24-.34.45-.91.77-.83,1.5,4.3-.16,8.42-1.29,12.63-1.94,3.6-.55,6.74-1.96,9.3-4.83,1.27-1.43,2.1-3.04,3.14-4.55.91-1.33.9-1.31,2.3-.47.19.11.59.01.83-.12.71-.41,1.37-.89,1.74-1.68,1.31-2.75,1.4-5.41-.5-7.96-2.21-2.96-6.67-6.02-9.46-6.3.87.51,1.52.87,2.15,1.24,2.22,1.27,3.74,3.13,4.66,5.5.16.41.42.89,0,1.25-.6.5-.92-.19-1.29-.45-.3-.21-.52-.55-.71-.85-.83-1.29-1.47-1.2-2.21.13-1.75,3.18-4.36,5.6-7.27,7.68-2.09,1.5-4.39,2.57-6.93,3.02-1.85.33-3.53.04-4.66-1.73h0v.04Zm-124.31,26c1.79.78,3.8,1.01,4.33,2.02,1.02,1.95,2.44,1.33,3.49.92,4.09-1.56,8.16-3.12,12.5-3.89,3.41-.6,6.72-1.71,10.1-2.43,2.66-.55,5.45-.41,8.17-.71,3.95-.43,7.94-.22,11.9-.92,3.49-.61,7.07-1.03,10.66-.73,2.76.24,3.35-.26,3.76-2.94.16-1.02-.04-1.63-1.2-1.53-5.83.53-11.73.45-17.48,1.63-6.81,1.4-13.74,2.33-20.29,4.8-5.41,2.05-11.04,2.76-16.76,2.95-2.89.1-5.81-.15-9.16.78h0v.03ZM193.23,14.14c-3.26-2.58-4.31-2.7-7.38-.64-2.48,1.67-4.99,3.29-7.65,4.64-1.42.72-2.63,1.68-3.77,2.79-1.12,1.08-2.43,1.96-3.72,2.86-4.64,3.25-9.06,6.75-12.66,11.33.99.12,1.94.07,2.75.37,3.06,1.14,4.76,0,6.64-2.63,5-6.95,12.43-11.07,19.55-15.5,1.94-1.2,4.14-1.86,6.24-3.2h0Zm-87.25,47.42c-1.97.01-3.81,1.8-5.53,3.41-2.62,2.44-4.28,5.65-5.87,8.84-.21.43-.78.93-.31,1.38.49.49,1.14.13,1.64-.17s.96-.7,1.4-1.09c2.58-2.25,4.95-4.78,7.87-6.6,1.28-.79,2.13-1.85,2.88-3.04,1.03-1.63.57-2.46-2.1-2.74h0ZM187.95,4.86c-1.5,1.03-2.99,1.84-4.24,2.94-5.78,5.04-12.52,8.93-17.73,14.67-.57.63-1.85,1.12-1.19,1.98.57.75,1.32-.56,2.06-.76.2-.06.34-.28.52-.42,2.51-1.95,4.85-3.98,6.86-6.53,2.46-3.12,6.04-5.17,9.01-7.83,1.52-1.35,3.08-2.64,4.71-4.04h0Zm8.88,26.11c1.81.84,3.62,1.61,5.59,1.9.42.05.92.2,1.05-.44.1-.48-.28-.69-.64-.73-1.99-.25-3.89-1.24-6-.74h0Zm-34.89,6.73c-2.34-.77-4.12-.48-5.8.67,1.77-.38,3.63,0,5.8-.67ZM189.54,3.69c.25-.21.47-.37.63-.57.13-.17.14-.45-.13-.39-.23.05-.44.3-.62.5-.05.04.05.22.12.47h0Z"/>
  <path class="cls-2" d="m96.06,93.67c2.51-.46,5.3,1.87,5.21,4.38-.04,1.15-.7,2.12-1.67,2.47-1.5.54-3.59.39-2.11,2.98.02.04-.02.2-.05.21-1.82.21-1.55,2.48-3.04,3.06-.93.37-1.7.91-1.29,2.19.26.82-.36,1.04-1.03,1.04-.73,0-1.46-.09-2.63-.16,1.79-1.43,2.12-3.72,4.35-4.18.68-.14.42-.5.38-.97-.16-1.51-.62-2.9-1.33-4.22-.45-.85-.62-1.82.31-2.39,1.08-.66,1.36.37,1.7,1.09.68,1.38,1.76.91,2.68.48,1.04-.49,1.53-1.32,1.01-2.55-.58-1.36-1.97-2-2.71-3.21.06-.06.13-.13.18-.19h0l.02-.02Z"/>
  <path class="cls-2" d="m110.73,106.46c1.52,1.65,1.94,3.29.91,5.17-.75,1.35-1.53,2.66-2.29,4-.15.25-.27.54-.46.76-.77.86-1.8,1.33-2.86,1.65-3.55,1.08-6.8,3.83-10.87,1.98-.4-.18-.81-.37-1.15-.64-.45-.36-1.07-.79-.75-1.43.44-.89,1.05-.17,1.48.08,1.22.7,2.57.73,3.9.86.42.05,1.05.03,1.27-.24,1.67-2,3.93-2.4,6.32-2.59.48-.03.97-.44,1.18-.94,1.03-2.47,3.8-4.22,3.09-7.43-.07-.32.13-.71.24-1.23h0Z"/>
  <path class="cls-2" d="m89.77,119.83c-2.76-.3-5-2.89-4.86-5.61.02-.22.09-.59.02-.63-2.19-.95-1.29-3.63-2.8-4.99-1.02-.91-.35-2.28-.68-3.4-.03-.09.23-.38.39-.42.48-.11.63.31.8.62.67,1.23,1.42,2.58,1.7,3.82.33,1.43,1.03,2.41,1.79,3.49.17.24.56.57.5.71-1.15,2.46,1.56,2.83,2.28,4.26.37.73,1.11.72,1.78.55.97-.24,2.1-.3,2.1.85,0,1.23-1.26.93-2.14.87-.3-.03-.6-.07-.89-.11h0s.02,0,.02,0Z"/>
  <path class="cls-2" d="m103.87,94.52c4.43-.3,8.3,3.68,7.87,8.06-.07.72.39,1.07.57,1.6.17.51.09,1.12-.42,1.39-.64.34-.83-.19-1.1-.69-.68-1.21-1.04-2.3-1.11-3.84-.1-2.16-1.55-4.27-3.96-5.18-.67-.25-1.51-.27-1.84-1.33h0Z"/>
  <path class="cls-2" d="m80.32,95.05c.14-.05.26-.12.39-.18,1.16.03,1.81.4,1.46,1.77-.33,1.3-.74,2.44-2.33,2.45-.76,0-1.2-.51-1.47-1.17-.25-.64-.06-1.14.46-1.56.51-.41.98-.88,1.48-1.31h0Z"/>
  <path class="cls-2" d="m88.01,103.7c-.81-.04-1.16-.34-.98-.87.22-.66-.77-1.49.28-1.97.26-.12.61-.02.87-.12.69-.27,1.07-1.45,2.08-.75.55.38.33.9,0,1.37-.68.95-1.28,1.98-2.24,2.34h0Z"/>
  <path class="cls-2" d="m84,99.9c.02.59-.36.64-.73.64-.49-.01-.95-.3-1.5-.05-.48.2-1.39,1.07-1.49.03-.08-.81,1.11-1.47,2.02-1.65.75-.15,1.38.35,1.72,1.04h0Z"/>
  <path class="cls-2" d="m95.88,93.86c-.19.11-.36.25-.57.32-.57.22-1.19.79-1.72.09-.27-.35-.03-.88.28-1.19.62-.6,1.28-.66,1.89.03.14.16.22.37.32.55-.06.06-.13.13-.18.19h0Z"/>
  <path class="cls-2" d="m80.45,104.17c-.87-.64-1.28-1.1-1.16-1.83.02-.13.36-.33.48-.28.89.36.59,1.13.68,2.11h0Z"/>
  <path class="cls-1" d="m109.54,69.83c-.24.12-.48.24-.72.36"/>
  <path class="cls-1" d="m108.75,61.57c-.2-.18-.41-.35-.61-.53"/>
  <path class="cls-1" d="m194.02,14.72c-.16-.99-.79-1.65-1.54-2.22"/>
  <path class="cls-1" d="m199.65,33.54c-.64.94-.23,1.84.12,2.73"/>
  <path class="cls-1" d="m212.07,35.74c-.36-1.12-1.05-2.11-1.17-3.32"/>
  <path class="cls-1" d="m70.11,77.22c-.73.72-1.72.33-2.56.59"/>
  <path class="cls-1" d="m179.24,13.35c-.34.16-.5.62-.97.56"/>
  <path class="cls-1" d="m213.61,26.86c-.18.2-.35.41-.53.61"/>
  <path class="cls-1" d="m124.83,67.17c1.13-1.42,2.8-.84,4.22-1.02,3.36-.43,3.85-1.12,2.56-4.26-1.4-3.41-1.17-3.66,2.6-4.71,1.47-.4,3.01-.32,4.41-.81,2.03-.7,2.68.31,3.2,1.99.48,1.57.55,3.27,1.44,4.72"/>
  <path class="cls-1" d="m83.68,110.61c.1.39.21.78.31,1.17"/>
  <path class="cls-1" d="m85.45,112.87c.16.34.62.5.56.97"/>
  <path class="cls-1" d="m86.15,116.36c.2.18.41.35.61.53"/>
  <path class="cls-1" d="m224.27,58.09c-.32.18-.65.37-.97.56"/>
  <path class="cls-1" d="m236.7-2.47c-1.02.93-2.04,1.86-3.06,2.8"/>
  <path class="cls-1" d="m214.66,22.01c-.18.2-.35.41-.53.61"/>
  <path class="cls-1" d="m211.49,25.71c-.32.36-.9.45-1.03,1"/>
  <path class="cls-1" d="m198.6,25.47l-.91,1.92"/>
  <path class="cls-1" d="m31.05,85.34c.37-1.22.1-2.05-1.31-2.2"/>
  <path class="cls-1" d="m170.46,44.22c-1.36,2.81-3.51,5.03-5.64,7.24"/>
  <path class="cls-1" d="m161.59,53.78c-1.76,1.5-4,2.1-6.06,2.75-1.3.4-3.3.21-4.29-1.52"/>
  <path class="cls-1" d="m110.9,106.7c.2.85.39,1.71.59,2.56"/>
  <path class="cls-1" d="m166.26,36.01c-.18.2-.35.41-.53.61"/>
  <path class="cls-1" d="m41.85,89.62c-.58,1.07-1.43-.47-2.06.2"/>
  <path class="cls-1" d="m172.73,57.2c-.75.41-.47,1.44-1.14,1.9"/>
  <path class="cls-1" d="m233.9,57.23c-1.37-.54-2.74-1.09-4.1-1.63"/>
  <path class="cls-1" d="m108.48,96.89c-.53-.87-1.55-1.07-2.29-1.64"/>
  <path class="cls-1" d="m171.35,16.7c-1.72,1.51-3.95,2.45-5.1,4.58"/>
  <path class="cls-1" d="m96.7,100.65c.42-.62,1.13-.19,1.64-.47"/>
  <path class="cls-1" d="m96.6,94.07c-.94-.7-1.86-.99-2.73.12"/>
  <path class="cls-1" d="m78.31,89.78l-.83,1.26"/>
  <path class="cls-1" d="m140.24,52.3l.08-.67"/>
  <path class="cls-1" d="m77.57,94c.92,1.01,3-.54,3.44,1.55"/>
  <path class="cls-1" d="m147.17,54.97c.12.24.24.48.36.72"/>
  <path class="cls-1" d="m81.38,99.9l-.75.58"/>
  <path class="cls-1" d="m94.84,104.73c.68,1.46-.46,1.44-1.33,1.65"/>
</svg>