<?xml version="1.0" encoding="utf-8"?>
<!-- Generator: Adobe Illustrator 27.7.0, SVG Export Plug-In . SVG Version: 6.00 Build 0)  -->
<svg version="1.1" id="Layer_1" xmlns="http://www.w3.org/2000/svg" xmlns:xlink="http://www.w3.org/1999/xlink" x="0px" y="0px"
	 viewBox="0 0 1121.6 428.9" style="enable-background:new 0 0 1121.6 428.9;" xml:space="preserve">
<style type="text/css">
	.st0{fill:#221F20;}
	.st1{fill:none;}
	.st2{fill:#221F20;stroke:#D44130;stroke-miterlimit:10;}
</style>
<path class="st0" d="M1075.5,94.7c8-8.7,13.5-19.1,20.7-28.4c1.5-1.9,2.9-3.9,4.5-5.8c0.7-0.9,1.5-1.7,2.9-0.8
	c1.3,0.9,1.8,1.9,0.8,3.3c-2,3-3.8,6.1-5.9,9.1c-20,28.6-40,57.2-60.1,85.7c-2.6,3.8-5.2,7-5.3,12.1c-0.1,4.9-7.5,7.9-12,5.5
	c-1-0.5-1.7-1.5-2.8-1.9c-2.7-1-6.3-1.9-7.9,0.6c-1.2,1.9,1.7,4.4,3.6,5.8c7.1,5.1,13.5,11,20.2,16.5c10.5,8.6,15.9,19.2,13.9,32.9
	c-0.5,3.8,1.3,5.3,4.5,5.7c3.4,0.4,6.6,1.6,10,2c5.6,0.8,9,3.5,11.6,8.5c3.6,6.7,10.3,9.6,17.6,11.1c1.8,0.4,3.7,0.5,6.3,0.8
	c-4.1-5.6-8.6-10.1-14-13.8c-4.1-2.7-7.1-6.2-9.1-10.7c-3.9-8.9-9.5-16.7-15.5-24.2c-2.6-3.2-4.5-7-6.3-10.7
	c-4.8-10.1-12.4-18.6-16.7-29c-0.5-1.3-2.4-3-0.7-4c2.1-1.3,2.6,1.4,3.4,2.6c3.6,5.3,7.2,10.6,10.8,15.9c1.7,2.4,4.1,3.8,6.5,5.3
	c9.6,6.1,19.3,12,27.2,20.2c3.9,4.1,7.7,7.8,13.5,8.7c2,0.3,4.1,0.7,5,3.9c-7.3-1.7-14.2-1.7-19.2-8.3c-3.3-4.4-8.7-7.2-13.2-10.5
	c-4.2-3-8.9-5.5-13.5-9.2c2.3,8.7,9.3,13.5,12.7,20.6c0.4,0.9,1.2,1.5,1.5,2.4c2.5,6.2,6.8,8.8,13.4,6.9c1.8-0.5,3.6-0.2,5.4,0.8
	c7.4,4.3,11.3,3.8,17.4-1.9c0.7-0.7,1.4-1.4,2.4-0.7c0.9,0.7,0.4,1.7,0,2.6c-2.9,6.7-12.7,8.9-20.4,5.6c-3.3-1.4-6.6-2.7-10.5-2.3
	c0,6.5,5.1,9.4,8.9,12.9c5.1,4.6,9.4,10,14.4,14.6c1.3,1.2,2,2.3,1.3,3.9c-0.6,1.5-2.1,1.5-3.4,1.7c-13.3,1.9-23.7-2.6-31-13.9
	c-1.7-2.6-3.8-4.4-7.3-4.6c-4.5-0.4-8.7-2.2-13.2-2.7c-4.8-0.5-5.3-4.6-4.9-8.8c0.9-10-1-19.1-8.7-26.3
	c-7.7-7.1-15.5-14.1-23.1-21.2c-2.3-2.2-4.3-4.9-5-8.1c-0.8-3.8-3.6-3.7-6.5-3.9c-3.2-0.2-3.7,1.9-4.3,4.2
	c-5.4,18.6-16,34.1-29.5,47.8c-1.4,1.4-1.7,2.9-2.1,4.5c-1.8,6.6-6,10.9-12.7,12.3c-2,0.4-2.2,1.4-2.8,2.9
	c-5.2,12.5-13.8,20.9-27.2,25c-11.9,3.7-24.2,6.2-35.9,10.8c-2.6,1-5.4,1.6-8.2,0.1c-3-1.6-4.3-0.3-5.3,2.6
	c-2.7,8.2-9.1,12.8-16.8,15.7c-2.9,1.1-6,1.9-7.3,4.9c-5.7,12.9-16.9,18-29.4,21.8c-9.5,2.9-19.1,5.5-27.5,11.2
	c-6.8,4.5-9.8,10.7-10.3,18.6c-0.1,1.2,0.6,3-1.4,3.2c-2,0.2-2.5-1.4-2.7-3c-0.6-3.4,0.4-6.8,0.7-10.5c-5.7,0.8-11.1,1.4-16.6,2.4
	c-0.8,0.1-3.1,0.2-2.6,2.2c1.4,5.5-1.5,3.4-3.7,2.2c-11.6-6.4-22.2-2-32.7,3.2c-1.9,0.9-3.1,2.4-2.2,5.1c1,2.8,2.6,3,4.8,2.1
	c2.6-1.1,2.9,0.5,3.1,2.4c-0.3,0.2-0.6,0.4-0.9,0.6c-1,0-1.9,0.1-2.9,0.1c-3.4,0.1-6.8,0.2-8.9-3.5c-2.1-3.8,0.5-5.9,2.6-8.2
	c-2.7-3.1-5.6-1-8.2-0.8c-15.7,1.1-30.9,5.5-46.6,7.1c-14.6,1.6-28.8,5.8-43.6,6.2c-1.5,0-3.4,0.2-4.3,1.1
	c-4.8,4.7-11.2,6.2-16.9,8.9c-12,5.7-25,8.4-38.3,8.9c-2,0.1-4-0.6-4.5-2.7c-0.6-2.3-0.2-4.5,1.9-6.1c4.3-3.3,9.3-4.8,14.8-6.6
	c-0.4,6.5-7.1,5.8-9.7,9.5c3.8,1.6,7.3,0.3,10.6-0.7c9.3-2.9,18.9-4.6,27.6-9.7c5.2-3,10.8-5.9,16.7-7.9c1.8-0.6,3.5-1.4,5,0.8
	c1.1,1.5,2.9,1.1,4.2,0.6c14.8-5.6,30.6-6.5,46-8.9c12.3-1.9,24.5-5,36.8-6.2c15.2-1.4,30.2-4.6,45.5-5.5
	c13.2-0.8,26.1-3.7,38.1-11.2c6.6-4.1,11.5-9.4,17-14.2c5.8-5,9.6-11.6,12.8-18.5c2.7-6,1-8.7-5.4-8.9c-9.7-0.3-18.4,3.9-27.1,7.3
	c-4.8,1.9-9.2,5.2-13.6,8.1c-2,1.3-5.1,1.6-4.2,6c0.5,2.3-3.6,3.6-6.1,4.1c-8.9,1.9-17.8,4-26.8,5c-11.5,1.4-22.6,4-33.9,6.3
	c-1.1,0.2-2.2,0.7-3.3,0.7c-17.7-0.2-33.8,6.4-49.8,12.7c-10.5,4.1-21.2,7.8-31.5,12.5c-4.9,2.3-9.2,6-14.8,6.9
	c-7.9,1.3-15.8,1.5-23.7,2.3c-2.7,0.3-7.2-0.8-5.2,4.9c0.1,0.4-0.2,1.1-0.6,1.4c-1.7,1.4-11.9-2.5-12.3-4.6c-0.7-3.5,1.8-4,4.3-4.6
	c9.3-2.2,18.8-3.4,29.2-4.3c-8.7-2.3-16.5-2-24.4-2c-1.7,0-3.4,0-5.2,0c-2.3,0-4.5-1.1-4.8-3.2c-0.3-2.5,2.5-2.4,4.1-2.9
	c10.2-2.7,20.3-5.4,30.6-7.9c7.9-2,16.1-2,24.1-3.9c10.5-2.4,20-7.1,29.4-11.7c16.6-8.1,34.1-13.4,51.7-18.1c11-2.9,22.4-6,34.1-5.4
	c3.4,0.2,6.6-1.7,10.1-0.4c2.1,0.8,2.4-1.3,3.1-2.5c4.6-7.8,8.8-15.9,13.9-23.3c7-10.4,16.9-17.4,28.9-20.9
	c14.9-4.3,29-10.9,43.7-15.6c2.2-0.7,4.4-1.2,6.7-1.3c4.9-0.2,8.3-2.3,11.5-6.1c9.8-11.7,21.6-21.3,34-30c0.8-0.5,1.7-0.9,2.5-1.2
	c4.1-1.6,6.7-3.6,8.2-8.7c2.1-7.1,6.8-13.5,11.9-19.2c1.8-2.1,3.2-3.7,2-6.9c-1.3-3.4,0.6-6.9,2.9-9.4
	c18.1-19.9,36.4-39.5,55.3-58.6c13.1-13.2,25.7-27,38.6-40.4c13.8-14.4,27.8-28.6,41.7-42.9c1.5-1.5,2.9-3.6,5.2-1.6
	c2.6,2.3-0.4,4-1.4,5.2c-5.5,6.1-11.3,11.8-17,17.7c-1.1,1.1-3.2,2.2-0.7,3.9c3.2,2.3,0.7,4-0.7,5.4c-9.3,9.7-18.8,19.4-28.1,29.1
	c-10.6,10.9-21,21.9-31.7,32.7c-9.3,9.4-18.8,18.5-27.8,28.3c4.7-1.7,8.2-5.1,11.5-8.3c3.7-3.5,8.1-5.5,12.5-7.5
	c2.5-1.1,4.6,0.2,6.4,1.4c2.5,1.6,4.9,3.6,7.1,5.7c1,0.9,1.7,1.8,3.3,0.9c6.5-3.3,13.5-1.7,20.2-1.2c7.7,0.6,10.1,7.8,13.1,13.6
	c1.9,3.7,3.1,7.7,4.9,11.5c1.4,3.1,3.3,4.1,5.6,0.5c13.5-21.5,28.5-42,42.8-63c10.6-15.5,22.4-30.3,32.2-46.3c0.7-1.2,1.4-2.5,3-1.4
	c1.3,0.9,1.1,2.4,0.3,3.6c-1.6,2.3-3.4,4.5-5.1,6.8c-7,9.5-13.1,19.8-20,29.4c-4.4,6-9.2,11.9-12.4,18.8c-4.2,5.5-8.4,11-11.3,17.3
	c-3.9,3.6-7,7.8-9.2,12.6c-1,1.1-2.2,2.2-3,3.4c-6.3,9-12.6,18-18.9,26.9c-2.8,3.9-3.8,3.9-5.6-0.3c-2.2-5-4.8-9.7-6.6-14.9
	c-4.5-13.1-5.3-13.3-19.2-13.8c-2.1-0.1-4.2,0-6.3,0c-1.3,0-2.5,0.3-3.7,1.2c-7.3,5.7-15.8,10-21.9,17.1c-5,5.7-12.7,7.6-17.6,13.4
	c-4.7,5.5-9.2,11.2-14.3,16.2c-5,4.8-7.1,11.3-12.1,16.2c18,2.7,31.3,10.8,39.2,27c4.9-4.9,8.1-10.7,11.9-16.1
	c5.6-7.9,10.1-16.4,13.8-25.4c3-7.4,5.2-15.1,10.3-21.6c1-1.3,1.5-3.7,3.4-2.6c1.4,0.8,0.9,3.1,0,4.7c-0.3,0.5-0.4,1.1-0.7,1.6
	c-1.5,2.5-0.6,3.4,2.1,3.4s5.4-0.2,8,0.3c4.2,0.7,10-0.3,8.7,7.5c-0.5,2.7,2.6,2.7,4.7,2.6c2.3-0.1,3.4-2.2,2.5-3.5
	c-2.9-3.9-1.7-5.8,2.3-7.1c0.4-0.1,0.7-0.9,1-1.3c5.3-7.6,10.8-15.1,15.6-23c2.3-3.8,5.8-7.1,6.4-11.8c4.4-3.2,7.1-7.7,9.2-12.6
	c4.2-5.4,9.3-10.2,11.6-17l0,0L1075.5,94.7z M892.7,240.8c4.2,1.6,8.7,2.3,12.6,0.2c13-7,23.4-16.7,29.6-30.3c0.9-1.9,2.4-4.8-0.5-6
	c-5.9-2.4-11.8-4.8-18.5-4.7c-7.2,0.1-14.3,5.1-21.6,0.2c-0.9-0.6-1.6,0.5-2.4,1.1c-10.8,8.9-21,18.7-31.2,28.3
	c-0.9,0.8-2.1,1.6-1.5,3.3c1.5,3.8-1.2,3.5-3.6,3.4c-9.9-0.5-18.9,2.6-27.9,6.1c-7.9,3-15.3,7.5-23.8,8.9c-6.2,1-12,3.4-17.7,6.1
	c-8.1,3.8-15.2,8.8-19.2,17.4c3-4.1,7.4-5.8,11.7-7.7c4.2-1.9,8-0.4,11,2.3c3.2,2.9,2.7,6.8,1.2,10.5c-0.5,1.2-1.6,2.1-2.2,3.3
	c-2.4,5.5-8.7,7.4-11.4,12.7c6.3-3.5,12.9-6.3,19.5-8.8c7.7-3,15.5-5.1,23.9-3.5c5,1,8.1,5.2,7.2,10.3c-0.9,4.7-2.2,9.2-5.1,13.1
	c-3.5,4.8-7,9.6-11.6,13.4c3.6-0.9,7-2,10.3-3.2c6.9-2.4,12.8-6,16.9-12.6c4-6.5,9.5-11.3,17.2-13.9c9.5-3.1,11.9-12.8,15.8-20.7
	c2.6-5.2,0-10.2-2-15.1c-2.7-6.7-3.2-7.1-9.7-5.1c-2,0.6-4.1,0.9-6.1,1.3c-8.5,1.8-10.1,5.2-6,12.6c0.7,1.3,1.3,2.8,1.6,4.2
	c0.9,3.9-0.4,6.7-4.4,7.9c-4.8,1.3-9.6,2.2-15.1,2.6c2.8-4,6.6-3.8,10-4.6c7.4-1.8,8.4-4.1,4.2-10.5c-4.6-7-3.1-11.3,5-13.4
	c4.6-1.2,9.5-2.2,13.4-4.1c4.8-2.3,6.1-0.4,7.8,2.7c2,3.6,3.6,7.3,5.8,11.8c0.5-6.2-1.1-10.7-4.8-14.6c-0.9-1-2.3-2.5-0.8-4
	c1.8-1.8,2.7,0.4,3.6,1.4c5.3,5.7,8.7,12.3,8.6,20.3c0,1.9-0.6,3.9,0.2,6c6.6-9.2,2.9-17.6-1-25.9c-2-4.2-11.1-8.4-15.1-7.3
	c-1.3,0.4-2.5,2-3.6-0.3c-1.1-2.3,0.7-3.2,2.1-4c1.7-1,3.6-0.7,5.6-0.4c14.6,2.2,24.9,24.8,18,36.8c-0.7,1.2-2.1,2.2-1.6,4
	c10.8-1.7,20.9-5.9,31.3-8.8c8.9-2.5,16.4-7,22-15.1c2.8-4,4.4-8.3,6.5-12.5c1.9-3.6,1.9-3.6,5.7-1.9c0.5,0.2,1.5-0.1,2-0.6
	c1.7-1.2,3.2-2.7,3.9-4.8c2.5-7.4,1.8-14.1-3.7-19.9c-6.5-6.8-18.7-13.1-25.8-13c2.4,1,4.1,1.7,5.8,2.5c6,2.5,10.4,6.8,13.5,12.4
	c0.5,1,1.3,2.1,0.4,3.1c-1.3,1.4-2.4-0.2-3.4-0.7c-0.8-0.4-1.5-1.2-2.1-1.9c-2.5-3-4.1-2.6-5.5,1c-3.4,8.6-9.2,15.5-16,21.6
	c-4.8,4.4-10.3,7.9-16.6,9.8C900.4,245.1,896.1,244.9,892.7,240.8L892.7,240.8L892.7,240.8z M587.1,344.9c4.8,1.4,9.9,1.4,11.5,3.8
	c3.2,4.6,6.6,2.6,9.1,1.2c9.8-5.2,19.6-10.4,30.3-13.7c8.4-2.6,16.4-6.4,24.8-9.2c6.5-2.2,13.6-2.7,20.4-4.3c9.8-2.3,20-3,29.8-6
	c8.6-2.6,17.5-4.8,26.7-5.1c7-0.3,8.4-1.7,8.6-8.6c0.1-2.6-0.6-4.1-3.5-3.5c-14.5,3.1-29.5,4.8-43.6,9.5
	c-16.7,5.6-34,10.1-49.7,18.4c-13,6.8-27,10.4-41.4,12.6C602.7,341.2,595.3,341.5,587.1,344.9L587.1,344.9L587.1,344.9z
	 M986.3,124.2c-9-5.5-11.7-5.5-18.8,0.7c-5.8,5-11.6,9.8-17.9,14.1c-3.3,2.2-6.1,5.1-8.7,8.2c-2.5,3.1-5.5,5.7-8.5,8.4
	c-10.7,9.6-20.8,19.8-28.4,32.5c2.5,0,4.9-0.4,7,0.1c8.1,1.9,12-1.5,16-8.7c10.5-19.1,28-31.8,44.5-45.2
	C976.1,130.6,981.4,128.3,986.3,124.2L986.3,124.2L986.3,124.2z M780.8,270.9c-5,0.6-9,5.7-12.9,10.3c-5.8,7-9,15.6-12.1,24.1
	c-0.4,1.1-1.7,2.6-0.3,3.6c1.4,1.1,2.9,0,4.1-1s2.2-2,3.2-3.2c5.8-6.5,11-13.6,17.8-19.1c3-2.4,4.8-5.3,6.3-8.6
	C789,272.7,787.6,270.8,780.8,270.9L780.8,270.9L780.8,270.9z M970.1,102.4c-3.5,3-7,5.6-9.8,8.7c-13,14.5-28.8,26.4-40.2,42.5
	c-1.2,1.8-4.3,3.4-2.4,5.4c1.7,1.7,3.1-1.8,5-2.6c0.5-0.2,0.8-0.8,1.2-1.2c5.7-5.7,11-11.5,15.3-18.6c5.2-8.6,13.6-14.9,20.3-22.5
	C962.9,110.2,966.4,106.5,970.1,102.4L970.1,102.4L970.1,102.4z M1000.6,165.6c4.8,1.5,9.6,3,14.7,3.1c1.1,0,2.4,0.2,2.5-1.4
	c0.1-1.2-0.9-1.6-1.8-1.7C1010.9,165.5,1005.8,163.6,1000.6,165.6L1000.6,165.6L1000.6,165.6z M914.7,193.4
	c-6.2-1.2-10.5,0.1-14.4,3.5C904.6,195.3,909.4,195.7,914.7,193.4z M973.7,99c0.6-0.6,1.1-1.1,1.4-1.6c0.3-0.4,0.2-1.2-0.5-0.9
	c-0.6,0.2-1,0.9-1.4,1.4C973.2,98,973.5,98.4,973.7,99L973.7,99L973.7,99z"/>
<path class="st0" d="M123.2,186.7c0.1-17.4-1.7-34.4-5.3-51.2c-2.9-13.4-6.3-26.8-10.5-39.9c-2.4-7.6-6.9-14.6-10.6-21.8
	c-0.8-1.6-3.2-2.9-1.5-4.8c1.5-1.7,3.8-2.7,6.2-1.9c2.8,0.9,5.9,1.2,7.6,4.2c1,1.7,3.1,2.8,4.2,4.5c4.9,6.9,10.2,12.7,18.5,16
	c8.6,3.4,9.4,6.9,7.9,17c-0.6,4.3-3,8.2-3.2,12.7c-0.5,12.2,3.9,23,8.9,33.6c6.9,14.6,14.3,28.8,12.9,45.7c-0.1,1.3-0.1,2.6-0.3,4
	c-0.2,2.6-3.9,5.3-2.3,6.9c3.4,3.4,6.9,7.5,12,8.2c7.8,1.1,14.9,4.2,22.5,5.8c2.4,0.5,4.9,0.1,7.4-0.3c4.3-0.6,8.7-1.8,12.3,2.1
	c1.2,1.3,2.9,0.8,4.2,0c5.6-3.2,10.8-2.4,15.9,1.4c1.8,1.4,4,2.1,6,3.2c2.7,1.5,5.9,3.3,6.3,6.3c1.4,9.3,10.5,13.1,13.9,21.2
	c3.3,7.8,9.4,14.2,12.7,22.2c0.7,1.6,2.4,2.4,3.6,3.5c8.1,7.4,19.3,6.1,28.7,10c4.2,1.8,9.2-1.2,14-0.1c1.7,0.4,3.7-1.6,4-4.1
	c0.3-2.6,0.8-5.2,1.5-7.8c0.4-1.4,1.4-3,3.3-2.4c2,0.6,1.9,2.1,1.2,3.7c-1.8,4.1-0.5,9.1-3.8,12.8c-2.2,2.4-4.2,4.3-7.6,4.2
	c-7.7-0.1-11.3,3.8-10,11.4c0.6,3.4,1.9,6.4-1.3,9.4c-1.6,1.5,0.8,2.6,1.7,3.3c5.6,3.7,11.5,6.5,19,6.6c-1.9-3.4-4.1-6.2-4.1-10.3
	c1.5,2,2.6,3.8,4,5.4c4.1,4.7,7.3,4.2,9.8-1.2c0.9-1.9,0.1-5.2,3.3-5.2c3,0,4.2,2.9,5.5,5.1c0.9,1.5,1.4,3.1,1.9,4.7
	c0.6,2.1,1.7,3.3,4.1,2.9c1.1-0.2,2.5-0.5,2.5,1.2c0,1.3-1,1.9-2.1,2.3c-4.1,1.4-7.9-0.2-9.4-4.9c-1.1-3.6-2.3-3.5-4.5-1.1
	c-1.6,1.8-3.8,2.4-6.5,3.3c6.8,4.4,13.6,7.2,21.3,7.1c4.6,0,8.2-2.5,9.7-6.5c1.6-4.3-0.5-8.3-4.4-10.8c-1.8-1.2-3.9-1.9-3.2-4.6
	c0.6-2.6,3.1-2.8,5-3c6.1-0.7,10.5-3.1,12.7-9.3c1.5-4.2,5.6-4.4,9.2-3.9c4.1,0.6,8.5,1.3,9.2,6.9c0.7-0.4,1.5-0.6,1.6-0.9
	c2.4-7.8-1.1-22.7-13.7-22.5c-1.1,0-2.3-0.1-3.4,0c-4.8,0.5-8.9,0.9-8.8-6.3c0.1-3.6-6.1-6.9-11.4-6.2c-5.6,0.7-11.5,0.4-16.4,4
	c-1.1,0.8-2.6,1.6-3.5,0.1c-0.9-1.3,0.3-2.4,1.3-3.4c6.1-6.1,23.3-8,30.6-3.2c1.5,1,2.5,2.5,2.7,4.2c0.7,4.8,3.8,5.6,8.1,5.8
	c13.7,0.6,23.4,12.9,19.2,25.9c-2.1,6.4-5,11.8-2.5,18.7c1.1,3-1.6,5.1-5.1,5.1c-1.4,0-3,0.1-3.5-1.3c-0.8-1.8,1.1-2.1,2.2-2.7
	c2.2-1.2,3-2.3,1.7-4.9c-1.1-2.3-1.7-5.2-0.9-7.8c1.6-5.3-2.5-6.3-5.7-7.2c-3.3-0.9-6.9-0.9-7.6,4.2c-0.5,3.6-3.4,6.2-6.2,7.9
	c-3.4,2.1-3.2,4.5-2.5,7.6c1.3,5,1.7,9.9-1.5,14.6c-1.7,2.5-5.2,2.5-6.7,5.6c4.6,2.7,9.2,5,14.6,2.4c2-1,4.1-0.8,6.1-0.9
	c2.4-0.1,4.4-0.8,5.5-3.3c1-2.3,1-4.4-1.3-6c-0.9-0.7-2.2-1.8-1-2.7c1.7-1.4,3.3-3.4,5.9-3.1c1.5,0.2,2.5,1.6,1.9,3
	c-1.2,2.9,0.7,3,2.5,3.6c4.9,1.6,9.9,2.9,14.2,5.6c1.1,0.7,2,0.7,3.2,0.4c10.5-3,21-2.9,31.8-1.5c4.7,0.6,9.7-1,14.5-1.8
	c12.9-2.1,25.7-4.5,38.5-6.4c7-1,12.2-5.5,18.5-8.1c8.8-3.6,16.6-9,24.1-14.7c1.2-0.9,2.2-2.1,3.9-0.6c1.4,1.2,2.2,2.3,1.7,4.4
	c-1.7,7-7.3,10.9-12.1,15.4c-1.5,1.4-2.6,2.6-2.4,4.7c0.1,1.8-0.5,3.8-1.9,4.6c-8,4.8-15.1,12.6-24.7,13.1
	c-9.1,0.5-17.8,2.7-26.6,4.2c-6.6,1.1-12.7,3.7-19,5.8c-8.8,2.9-17.8,4.9-26.7,7.5c11,1.4,22.1,2,33.1,0.7c8.9-1.1,17.4,0.6,26,1.5
	c4,0.4,7.2,0,10.6-2.2c12.3-8,26-13.8,36.8-24.1c1.2-1.2,2.8-1.3,4.2-0.3c0.2,0.1,0.7,0.5,1.2,1.2c0.2,0.2,0.4,0.8,0.7,1.8
	c0,0.1,0,0.2,0,0.4l0,0c0,0.9-0.3,1.5-0.4,1.6c-0.6,1.3-1.6,7-2.5,10.5c-0.8,2.8-2.1,5.3-5.2,7c-4.2,10.9-14.1,15.4-23.3,20.3
	c-6.4,3.5-13.6,4.8-20.8,1.2c-2.4-1.2-4.4,0.1-6.5,0.5c-16,3.6-32,7.7-48.3,8.7c-14.3,0.9-29.2,3-43-1.8
	c-10.7-3.7-21.2-8.5-31.3-14.3c-12.7-7.3-25.9-14.2-40-18.6c-4.7-1.5-9.6-0.8-14.4-0.9c-3-0.1-6-0.5-9-0.9c-1.9-0.2-4-1.9-4.8,1.6
	c-0.3,1.3-1.9,1-3,1.1c-14.4,0.6-28-3.2-40-10.6c-7-4.3-11.9-11.6-15.1-19.5c-1.4-3.5-3-6.8-5.3-9.8c-4.5-5.8-11.4-6.3-17.7-8.3
	c-9.7-3-21.3-2.7-28.8-9.3c-10.1-8.7-22.4-9.2-33.6-13.4c-6.9-2.5-13.8-9-14.6-15.8c-0.4-3.5-0.2-6.5,3.8-7.8
	c0.9-0.3,2.3-1.1,1.7-1.8c-3.2-3.7-1.8-9.2-5.7-12.7c-7.4-6.7-12.2-15.4-17.8-23.5c-1.9-2.8-4-5.5-6.3-8C102,222,99,215,96,207.8
	c-3.6-8.9-7.9-17.4-13.2-25.6c-7-11-13.3-22.4-20.6-33.2c-6.3-9.4-14.5-17.3-22.4-25.3c-5.1-5.1-9.7-10.4-13-17
	c-2.5-5.1-7.5-8.3-11.6-12.2c-2.6-2.5-5.6-4.5-8.1-7.1c-3.3-3.3-2.8-4.8,1.3-6.6c8-3.6,14.2,0.3,20.4,4.8c6.3,4.5,12.9,8.5,20.7,9.8
	c11.1,1.9,15.3,7.6,13.3,18.7c-0.3,2-0.5,3.7,1,5.3c6.5,7.1,12.4,14.7,18.1,22.4c3.1,4.2,7.2,7.6,11.2,11.1
	c10.4,8.8,20.4,18.1,26.5,30.7C120.5,184.9,120.9,186.6,123.2,186.7L123.2,186.7L123.2,186.7z M532.2,354.6
	c-9.3,8.6-20.5,14.3-31.2,20.7c-4.8,2.8-9.6,5.9-15.4,5.3c-10.2-1-20.2-1.3-30.5-0.2c-16.3,1.7-32.7-0.5-48.7-3.5
	c-4.6-0.9-9.7,0.3-14-2.6c-17.9-12.1-37.1-21.6-57.2-29.6c-7.4-2.9-14.1-7.4-22.4-8.3c-5-0.6-10.8-3-13.4-7.6
	c-2.3-4.2-5.2-4.6-8.7-4c-7.5,1.3-14.1,4.4-18.5,11c-3,4.5-2.3,9.1,2,12.4c1.1,0.8,2.1,1.6,3.3,2.3s2.6,1.5,2,3
	c-0.7,1.9-2.6,1.2-4,0.9c-5-1.4-8.9-4.1-10.9-9.1c-2-5.2-3.4-10.3-2.6-16.1c0.8-6.6-3.9-10.6-10.2-9.4c-5.1,1-8.4-0.9-10.2-5.7
	c-1.4-3.7-2.7-7.5-4.1-11.2c-0.7-2-0.8-4.1-0.4-6.2c0.2-1.2,1-2.1,2.4-1.9c1.2,0.2,1.2,1.3,1.3,2.2c0.7,3.7,1.6,7.4,2.2,11.2
	c1.3,7.5,3.9,9.4,11.1,7.4c5-1.4,7.7,1.1,9.4,5c1.6,3.7,3,7.6,1.9,11.8c1.4,0.3,1.8-0.6,2.1-1.1c5.2-7.9,12.6-11.6,21.9-11.7
	c1.9,0,3.7-0.7,5.6-1c1.5-0.2,2.9-1.5,3-2.3c0.6-4.6,0.8-9.4,0.9-14.1c0-1.3-1.7-1.3-2.8-1.5c-4.6-1.1-9.2-2.1-14-2.2
	c-1.9,0-4.2,0.5-5.4-1.2c-4.1-6-10.4-6.9-16.8-7.8c-1.8-0.3-4.4,0.5-4.6-2.2c-0.1-2.4,2.4-2.4,4.1-3.1c1.6-0.7,5-0.8,2.9-3.9
	c-5.3-7.9-9.1-16.7-14.4-24.4c-10-14.4-28.8-14.6-45.1-9c-3.7,1.2-6.9,3.3-11.3,1.5c-3-1.3-6.6,1.6-5.7,3.9
	c3.9,10,5.6,22.2,20.7,22.3c-4.6,3.2-10,3-13.4-1.2c-5.2-6.3-9.2-13.3-10.6-22.3c-11.2,7-14.1,20.5-23.2,28.9
	c1.7-10.3,5.9-19.5,12.2-27.6c4-5.2,8.6-9.6,15.3-11.1c1.4-0.3,3.6,0.6,4.7-1.3c-1.8-2-3.9,1.9-5.3-0.7c-2-3.8-5.5-3.2-8.9-3.6
	c-4.3-0.5-8.3,1.1-12.4,1.2c-8.2,0.1-11.9,4.1-11.1,12.1c0.5,5,0.5,9-5.8,10.2c-1.9,0.4-3.3,2.5-5.1,3.5c-3.6,2.1-4,4-0.4,6.8
	c3.6,2.7,2.9,5.9-1.1,7.6c-7.2,3.1-7.6,5.9-1.6,11.1c1.4,1.2,3.2,2,4.9,2.9c12,6.6,26.7,6.2,37.9,14.8c1.2,1,3.2,1,4.9,1.4
	c15,3.1,29.7,7.5,44.1,12.6c4.4,1.6,5.1,3.7,2.2,7.4c-1,1.2-1.4,2-0.6,3.5c3.2,5.8,6.8,11.3,11.4,16.1c11.6,12,27.6,13,42.8,17.6
	c-0.9-2.5-4.1-3.3-2.4-5.4c1.1-1.4,3.2-0.3,4.8,0.2c5.5,1.9,11.2,2.1,16.9,1.7c3.6-0.2,7.2-0.2,10.8,0.5
	c15.4,3.2,28.4,11.9,42.5,18.3c6.3,2.9,11.7,7.6,18.2,10.5c9.8,4.3,19.1,8.7,30.6,8.1c25.7-1.2,50.6-6.1,75.6-11.7
	c1.7-0.4,3.4-0.8,5,0c5.3,2.8,12.9,3.3,17.4,0.1c5.8-4.1,14.1-5.7,15.6-14.5c0.1-0.5,0.7-0.9,1.2-1.2
	C529.4,367.3,533.9,363,532.2,354.6L532.2,354.6L532.2,354.6z M166.2,229.7c-1.3-2.2-3-3.1-4.6-4c-9.8-5.7-19.4-11.8-27.9-19.3
	c-6.1-5.4-11.6-11.1-16.1-18.2c-8.3-13.4-18-25.7-31.2-34.8c-1.7-1.2-3.6-2.5-4.5-4.3c-3.9-7.9-10.8-13.3-16.1-20
	c-3.6-4.5-10-6.2-12.3-11.5c-4-9.4-12.9-11-20.7-14.6c-1-0.4-2.4-0.7-3.2,0.3c-1,1.2-0.5,2.6,0.3,3.7c2.2,2.6,4.4,5.2,6.8,7.6
	c9.9,10.4,20.1,20.7,28.6,32.3c5.8,7.9,10.8,16.3,16.1,24.6c7.1,11.2,14.3,22.3,19,34.9c2.1,5.8,4.4,11.9,8.7,16.4
	c4.5,4.7,8.7,9.5,12.3,14.9c3.2,4.7,5.8,9.7,9.7,13.9c5.9,6.3,5.5,6.4,13.1,2c3.6-2,5.5-4.1,4.3-8.5c-0.9-3.3,0.6-6.1,3-8.8
	C155.4,231.9,161,231.9,166.2,229.7L166.2,229.7L166.2,229.7z M526.2,326.9c-3.3,0.3-4.7,2.1-6.4,3.2c-9.7,5.9-19.8,11.5-31,13.4
	c-8.6,1.4-17.2,2.4-25.8,3.9c-7.4,1.3-15,2.5-22.4,2c-8.9-0.5-17.7-1.4-26.6,0.3c-2.6,0.5-5.8,1.6-7.7,0.6
	c-6.6-3.6-14.5-2.3-21.2-7.1c0.2,4,0.9,7.2-2,9.7c-2.8,2.4-6.5,0.8-9.8,2.2c10.2,7.8,12.3,8.5,25,10.7c14.9,2.5,29.7,3,44.3-2
	c8.6-2.9,17.1-6.2,25.9-8.6c7.6-2,15.3-5.7,23.2-4.6c12,1.6,19.7-5.6,28.4-11.1c-2.3,0-4.2,1.1-6.1,2.4c-1.5,1-3.4,2-4.6,0.3
	c-1.6-2.4,1-3,2.5-4.1C516.7,334.7,522.5,332.8,526.2,326.9L526.2,326.9L526.2,326.9z M112,96c5.8,13,6.5,25.8,10.5,37.8
	c3.8,11.5,4.9,23.8,4.4,35.9c-0.3,7.7,0.9,15.1,1.1,22.7c0.1,2.1,0.4,4.8,2.4,6.2c5.5,3.8,9.7,9.1,15.6,12.2
	c2.2,1.1,3.9,4.1,6.2,3.4c3.5-1.1-0.9-4.3,0.9-6.3c0.1-0.1,0.2-0.4,0.2-0.5c-0.1-8.9,0.1-17.5-2.8-26.3c-3.8-11.5-9.9-22-13.3-33.7
	c-2.6-8.9-7.5-17.5-4.5-27.4c0.3-0.9,0.1-2-0.7-2.6c-3.9-3.4-6.1-8.1-9-12.2C120.5,101.8,117.7,98.3,112,96L112,96z M99.4,70
	c3.3,7.2,8.1,12.2,9.6,19c0.5,2.2,2.1,3.4,4.3,4c7.3,2,12.7,6.4,15.9,13.4c0.7,1.6,1.6,3,2.4,4.5c1.4,2.4,2.5,2.5,3.7-0.3
	c2.7-6.3,0.2-12.8-6.4-15.1c-6.8-2.4-12.2-6-16-12.6C110.2,77.9,106.4,72.7,99.4,70L99.4,70L99.4,70z M10.8,83.9
	C14.9,90.2,21.7,92.8,26,98c0.6,0.8,1.7,1,2.6,0.6c4.4-1.8,8.1,0.5,11.9,1.8c7,2.3,13,6.1,17.6,13.5c0.5-10.2-0.8-12.4-9.9-14.3
	c-8-1.7-14.7-5.2-21-10.3C22.8,85.8,18,81.9,10.8,83.9L10.8,83.9L10.8,83.9z M234.3,238.9c-1.4-2.7-3-3-4.3-3.7
	c-5.4-3.1-10.7-5.9-16.5-0.5c-1.7,1.6-4.3,1.2-6.1-0.8c-3-3.1-6.5-3.8-10.4-1.9c-1.7,0.8-5.3,1-3.7,3.6c1.2,2,1.9,6.4,7,4.5
	C211.1,236.1,222.2,234.1,234.3,238.9L234.3,238.9L234.3,238.9z M186.9,230.6c-5.4-0.2-9.8-4.3-15.3-3.9
	C176,230.6,181.6,230,186.9,230.6z"/>
<path class="st0" d="M765.7,355c6.2-1.9,14,3.1,14.5,9.4c0.2,2.9-1.1,5.6-3.5,6.8c-3.6,1.8-9,2.1-4.4,8.1c0.1,0.1,0,0.5,0,0.5
	c-4.5,1.1-3.1,6.7-6.7,8.7c-2.2,1.2-4,2.8-2.6,5.9c0.9,2-0.6,2.8-2.3,2.9c-1.8,0.2-3.7,0.2-6.7,0.4c4.1-4.2,4.2-10,9.7-11.9
	c1.7-0.6,0.9-1.4,0.7-2.6c-0.9-3.8-2.5-7.1-4.7-10.3c-1.4-2-2.1-4.4,0-6.1c2.5-2,3.5,0.5,4.6,2.2c2.1,3.3,4.7,1.8,6.9,0.4
	c2.5-1.5,3.5-3.8,1.8-6.8c-1.9-3.3-5.6-4.4-7.8-7.3C765.5,355.4,765.6,355.2,765.7,355L765.7,355L765.7,355z"/>
<path class="st0" d="M806.7,382.8c4.3,3.7,5.9,7.7,3.9,12.8c-1.5,3.6-3,7.2-4.6,10.8c-0.3,0.7-0.5,1.4-0.9,2
	c-1.7,2.4-4.1,3.9-6.7,5.1c-8.6,3.8-16,11.8-26.8,8.4c-1.1-0.3-2.2-0.7-3.1-1.2c-1.3-0.8-3-1.6-2.3-3.4c0.8-2.4,2.6-0.8,3.8-0.2
	c3.3,1.4,6.7,1,10.1,1c1.1,0,2.7-0.3,3.1-1c3.6-5.6,9.2-7.3,15.2-8.5c1.2-0.2,2.3-1.4,2.7-2.8c1.8-6.6,8.3-11.8,5.5-19.7
	C806.2,385.1,806.6,384.1,806.7,382.8L806.7,382.8L806.7,382.8z"/>
<path class="st0" d="M757.9,423c-7.1,0.1-13.5-5.8-14-12.7c0-0.5,0-1.5-0.2-1.6c-5.8-1.7-4.4-8.8-8.6-11.7c-2.8-2-1.6-5.6-2.8-8.4
	c-0.1-0.2,0.5-1,0.9-1.2c1.2-0.4,1.7,0.6,2.2,1.3c2.1,2.9,4.4,6.1,5.5,9.1c1.3,3.5,3.4,5.8,5.6,8.3c0.5,0.6,1.6,1.3,1.5,1.6
	c-2.1,6.5,4.8,6.7,7.1,10c1.2,1.7,3,1.5,4.7,0.9c2.4-0.9,5.2-1.4,5.6,1.5c0.4,3.1-2.9,2.7-5.1,2.8C759.4,423,758.7,423,757.9,423
	L757.9,423L757.9,423z"/>
<path class="st0" d="M333.8,302.2c1.4,1.2,2.1,1.8,2.9,2.3c1.4,0.9,2.9,2.1,4.6,0.6c1.5-1.4,1.3-3.1,0.4-4.7c-1.2-2.2-2.1-4.5,1-5.7
	c3.2-1.2,4.9,0.4,5.5,3.7c1.3,7.3,5.2,9,11.5,4.9c0.9-0.6,1.7-1.6,3-1.4c-0.3,5.8-8.7,11.9-14.1,9.6c-3.4-1.4-6.6-3-10.4-3.7
	C336.3,307.6,334.1,306.1,333.8,302.2L333.8,302.2L333.8,302.2z"/>
<path class="st0" d="M785.7,354.8c11.1-2.1,22.1,6.7,22.4,17.9c0,1.8,1.3,2.6,1.9,3.9c0.6,1.2,0.6,2.8-0.6,3.6c-1.5,1-2.2-0.2-3-1.4
	c-2.1-2.9-3.3-5.5-4-9.4c-0.9-5.4-5.2-10.3-11.6-11.9C789,357.1,786.9,357.4,785.7,354.8L785.7,354.8L785.7,354.8z"/>
<path class="st0" d="M726.4,363.4c0.3-0.2,0.6-0.4,0.9-0.6c3-0.3,4.7,0.5,4.2,4c-0.4,3.4-1.1,6.4-5.1,6.9c-1.9,0.3-3.2-0.9-4.1-2.5
	c-0.8-1.5-0.5-2.8,0.7-4.1C724.2,366,725.3,364.6,726.4,363.4L726.4,363.4L726.4,363.4z"/>
<path class="st0" d="M374,325.3c-2.5,0.2-4.6-1-4.2-3.7c0.4-3,3.7-5.4,5.8-5.2c2.5,0.2,2.4,4.5,3.4,6.8
	C379.9,325.4,376,324.8,374,325.3L374,325.3z"/>
<path class="st0" d="M748.5,382.8c-2.1,0.2-3-0.5-2.7-1.9c0.3-1.7-2.4-3.5,0.1-5c0.6-0.4,1.5-0.2,2.2-0.6c1.7-0.9,2.3-4,5-2.5
	c1.5,0.8,1.1,2.2,0.4,3.5C752,378.8,750.9,381.6,748.5,382.8L748.5,382.8L748.5,382.8z"/>
<path class="st0" d="M737.2,374.5c0.2,1.5-0.7,1.7-1.7,1.8c-1.3,0.1-2.5-0.5-3.8,0.3c-1.2,0.7-3.2,3.1-3.8,0.5c-0.5-2,2.3-4,4.6-4.8
	C734.4,371.8,736.2,372.9,737.2,374.5L737.2,374.5L737.2,374.5z"/>
<path class="st0" d="M765.3,355.5c-0.5,0.3-0.8,0.7-1.3,1c-1.4,0.7-2.8,2.4-4.3,0.8c-0.8-0.8-0.4-2.2,0.3-3.1c1.4-1.7,3-2.1,4.8-0.5
	c0.4,0.4,0.7,0.9,1,1.3C765.6,355.2,765.5,355.4,765.3,355.5L765.3,355.5z"/>
<path class="st0" d="M729.5,386.4c-2.4-1.3-3.6-2.4-3.5-4.3c0-0.3,0.8-0.9,1.1-0.9C729.5,381.9,729,383.9,729.5,386.4L729.5,386.4
	L729.5,386.4z"/>
<path class="st0" d="M233.5,284.8c2.4,1.3,4.3-0.5,6.3-0.5c1.3,0,2.6,0.6,3,2.1c0.3,1.2-0.8,1.7-1.6,1.9c-7.2,1.8-7.6,8.6-10.2,13.8
	c-0.4,0.8-0.3,1.9-0.6,2.8c-0.4,1.6-0.5,4.1-2.6,3.6c-1.8-0.4-1.3-2.8-0.8-4.4c1.8-5,3.2-10.1,6.9-15c-5.5,0.3-7.4,4.4-9.8,7.3
	c-2.5,3.1-2.9,7.6-5.8,11.3c-2-3.6-1.6-7-0.1-9.6c3.8-6.3,7.7-12.6,13.6-17.3c1-0.8,2.2-1.5,3.4-2c1.8-0.7,4.3-1.3,5.1,0.6
	c1.2,2.9-1.7,2.5-3.4,3C235.7,282.7,234.4,283.1,233.5,284.8L233.5,284.8L233.5,284.8z"/>
<path class="st0" d="M97.6,69.4c2.2-2.7,3.8,0.1,5.7,0.6"/>
<path class="st0" d="M155.4,208.3c-2,1.3-1.8,2.9-0.6,4.6"/>
<path class="st0" d="M27.3,104.3c1.5,4.6,4.9,7.9,8,11.4"/>
<path class="st0" d="M55.9,138.6c1.5,1.8,3.8,2.8,4.6,5.1"/>
<path class="st0" d="M77.6,170.6c0.4,0.6,0.8,1.1,1.1,1.7"/>
<path class="st0" d="M792.4,290.7c-0.6,0.4-1.1,0.8-1.7,1.1"/>
<path class="st0" d="M787.8,270.1c-0.6-0.4-1.1-0.8-1.7-1.1"/>
<path class="st0" d="M988.5,125.4c-0.7-2.4-2.5-3.9-4.6-5.2"/>
<path class="st0" d="M1008.5,171.2c-1.3,2.6,0,4.7,1.1,6.9"/>
<path class="st0" d="M1096.6,258.6c1.3,1.2,2.7,0.5,4,0"/>
<path class="st0" d="M1040.5,172.9c-1.2-2.7-3.3-5-4-8"/>
<path class="st0" d="M695.2,321.5c-1.6,2-4.2,1.4-6.3,2.3"/>
<path class="st0" d="M950.8,126.6c-0.8,0.5-1.1,1.7-2.3,1.7"/>
<path class="st0" d="M1041.7,150c-0.4,0.6-0.8,1.1-1.1,1.7"/>
<path class="st1" d="M830.1,279.2c2.4-4,6.8-3,10.3-3.9c8.3-2.1,9.3-4,5.1-11.5c-4.6-8.1-4.1-8.9,5.1-12.7c3.6-1.5,7.5-1.7,10.9-3.4
	c4.9-2.4,6.9-0.1,8.7,4.1c1.7,3.8,2.4,8.1,5.1,11.5"/>
<path class="st2" d="M739.8,401.6c0.4,1,0.8,1.9,1.1,2.9"/>
<path class="st2" d="M744.9,406.8c0.5,0.8,1.7,1.1,1.7,2.3"/>
<path class="st2" d="M747.8,415.3c0.6,0.4,1.1,0.8,1.7,1.1"/>
<path class="st0" d="M1108.6,222.6c-1.4,1.8-2.1,4.3-4.6,5.1"/>
<path class="st0" d="M1078.3,225.5c-0.8,0.6-1.5,1.1-2.3,1.7"/>
<path class="st0" d="M1109.2,41.4c-3.1,4.2-6.1,8.4-9.2,12.6"/>
<path class="st0" d="M1090.8,68.8c-2.3,2.7-4.6,5.3-6.9,8"/>
<path class="st0" d="M1042.8,137.4c-0.4,0.6-0.8,1.1-1.1,1.7"/>
<path class="st0" d="M1036,147.7c-0.7,1-2.1,1.4-2.3,2.9"/>
<path class="st0" d="M1003.4,151.1l-1.7,5.1"/>
<path class="st0" d="M599.1,354.1c0.6-3.2-0.4-5.2-4-5.1"/>
<path class="st0" d="M938.2,207.2c-2.6,7.5-7.3,13.8-12,20"/>
<path class="st0" d="M918.7,234.1c-4,4.3-9.4,6.5-14.4,8.8c-3.2,1.4-8.3,1.5-11.3-2.5"/>
<path class="st0" d="M439,347.9c-0.6-0.4-1.1-0.8-1.7-1.1"/>
<path class="st0" d="M405.8,349c-2.2-0.4-3.5-3.4-6.3-2.3"/>
<path class="st0" d="M386.4,342.1c-0.6-0.4-1.1-0.8-1.7-1.1"/>
<path class="st0" d="M807.2,383.3c0.8,2.1,1.5,4.2,2.3,6.3"/>
<path class="st0" d="M383.5,346.1c0-1.5-0.2-3.1,0.6-4.6"/>
<path class="st0" d="M925,187.8c-0.4,0.6-0.8,1.1-1.1,1.7"/>
<path class="st0" d="M78.7,140.9c0.7,1,2.1,1.4,2.3,2.9"/>
<path class="st0" d="M184.5,250.6c0.5,7.7,4.5,13.9,8.6,20"/>
<path class="st0" d="M193.7,271.2c3.5,4.6,8.2,4.6,13.1,3.4"/>
<path class="st0" d="M627.7,361.6c-1.2,2.9-3.8-0.7-5.2,1.1"/>
<path class="st0" d="M569.3,370.7l1.7-1.7"/>
<path class="st0" d="M116.5,96.3c-1.5-1.8-3.6-1.8-5.7-1.7"/>
<path class="st0" d="M947.9,239.2c-1.8,1.3-0.7,3.8-2.3,5.1"/>
<path class="st0" d="M1102.3,220.3c-3.6-0.9-7.2-1.9-10.9-2.9"/>
<path class="st0" d="M145.1,212.9c-0.6-0.4-1.1-0.8-1.7-1.1"/>
<path class="st0" d="M125.6,168.3c-0.4-0.6-0.8-1.1-1.1-1.7"/>
<path class="st0" d="M107.3,89.4c-0.4-0.6-0.8-1.1-1.1-1.7"/>
<path class="st0" d="M100.5,75.7c-0.4-0.6-0.8-1.1-1.1-1.7"/>
<path class="st0" d="M798.1,359.3c-1.6-2-4.2-2.2-6.3-3.4"/>
<path class="st0" d="M931.9,137.4c-3.8,4.4-9.2,7.4-11.4,13.1"/>
<path class="st0" d="M241.1,309c0.8,1.7,1.5,3.4,2.3,5.1"/>
<path class="st0" d="M243.4,314.7c3.1,5.4,7.6,3.6,12,2.3"/>
<path class="st0" d="M235.4,288.4c-3.4,6.6-6.1,13.4-8,20.6"/>
<path class="st0" d="M262.9,325c2.1,1.7,1.4,4,0.5,5.7c-1.3,2.2,0.7,3.1,1.2,4.6"/>
<path class="st0" d="M769.5,372.4c0.9-1.7,2.8-0.9,4-1.7"/>
<path class="st0" d="M767.2,355.9c-2.6-1.5-5-1.9-6.9,1.1"/>
<path class="st0" d="M345.2,335.3c1.8,1.6,3-0.7,4.6-0.6"/>
<path class="st0" d="M362.9,302.7c-2.4,2.4-4.9,4.7-8,6.3"/>
<path class="st0" d="M104.5,75c-1.3-0.8-2.7-1.5-4-2.3"/>
<path class="st0" d="M511,347.9c-0.6,0.4-1.1,0.8-1.7,1.1"/>
<path class="st0" d="M91.9,71.6c-0.6,0.4-1.1,0.8-1.7,1.1"/>
<path class="st0" d="M719.7,350.7l-1.7,3.4"/>
<path class="st0" d="M333.8,303.2c3.2,2.9,6.3,6.1,10.9,2.3"/>
<path class="st0" d="M719.2,361.6c2.6,2.2,7.4-2.3,9.2,2.9"/>
<path class="st0" d="M882.7,241.5c0.4,0.6,0.8,1.1,1.1,1.7"/>
<path class="st0" d="M318.9,321.5c1.2,3.1,2.7,6.1,5.1,8.7c2.8,3,5.2,2.7,8.1,0.5"/>
<path class="st0" d="M234.3,287.2c-1-1.2-2.3-0.3-3.4-0.6"/>
<path class="st0" d="M730.6,375.3l-1.7,1.7"/>
<path class="st0" d="M194.2,239.2c-1.1-0.9-2.3-1.9-3.4-2.9"/>
<path class="st0" d="M376.6,316.4c-1.7,1-1.7,3.2-2.9,4.6"/>
<path class="st0" d="M766.1,383.3c2.2,3.5-0.7,3.8-2.9,4.6"/>
</svg>
