<?xml version="1.0" encoding="UTF-8"?>
<svg id="Layer_1" data-name="Layer 1" xmlns="http://www.w3.org/2000/svg" viewBox="0 0 537 155.84">
  <defs>
    <style>
      .cls-1 {
        stroke-linecap: round;
        stroke-linejoin: round;
        stroke-width: 2px;
      }

      .cls-1, .cls-2 {
        fill: #fff;
        stroke: #fff;
      }

      .cls-2 {
        stroke-miterlimit: 10;
      }
    </style>
  </defs>
  <path class="cls-2" d="m483.98,38.61c3.52-3.01,6.2-6.82,9.44-10.08.68-.68,1.34-1.4,2.03-2.06.32-.3.68-.6,1.15-.19.47.41.59.82.15,1.34-.92,1.08-1.77,2.22-2.72,3.27-9.18,10.2-18.35,20.4-27.58,30.56-1.21,1.34-2.37,2.5-2.66,4.48-.28,1.93-3.3,2.74-4.97,1.57-.36-.26-.6-.68-.98-.88-1.02-.54-2.38-1.06-3.11-.16-.56.68.46,1.8,1.13,2.42,2.51,2.33,4.74,4.93,7.12,7.41,3.68,3.84,5.28,8.27,3.86,13.52-.39,1.46.24,2.12,1.47,2.44,1.3.34,2.51.93,3.79,1.27,2.16.58,3.33,1.81,4.14,3.89,1.09,2.79,3.56,4.26,6.31,5.19.7.24,1.44.37,2.41.61-1.32-2.38-2.85-4.37-4.79-6.04-1.47-1.26-2.48-2.76-3.02-4.59-1.08-3.67-2.89-6.95-4.91-10.18-.85-1.36-1.41-2.94-1.93-4.48-1.4-4.17-3.95-7.86-5.12-12.12-.15-.53-.79-1.28-.08-1.59.89-.38.94.65,1.22,1.2,1.16,2.24,2.31,4.49,3.47,6.73.53,1.02,1.41,1.66,2.29,2.39,3.44,2.82,6.97,5.61,9.66,9.19,1.33,1.78,2.61,3.42,4.86,4.03.75.2,1.56.46,1.76,1.77-2.77-1.01-5.48-1.33-7.12-4.17-1.08-1.89-3.03-3.24-4.66-4.72-1.51-1.36-3.2-2.58-4.85-4.23.48,3.5,2.96,5.73,3.97,8.65.12.35.38.65.47,1,.69,2.54,2.21,3.76,4.92,3.33.74-.12,1.43.08,2.09.57,2.7,2.03,4.22,2.03,6.88.1.31-.22.63-.5.97-.15.33.33.07.66-.12.99-1.45,2.46-5.37,2.87-8.22,1.23-1.24-.72-2.46-1.39-3.98-1.41-.31,2.54,1.54,3.93,2.87,5.48,1.76,2.04,3.17,4.34,4.91,6.4.44.53.67.98.33,1.59-.31.58-.88.48-1.4.48-5.27.11-9.12-2.16-11.44-6.93-.54-1.11-1.28-1.88-2.63-2.17-1.72-.36-3.28-1.27-5.03-1.69-1.85-.44-1.85-2.07-1.5-3.66.85-3.87.52-7.52-2.13-10.68-2.65-3.15-5.36-6.23-8-9.37-.81-.97-1.45-2.11-1.58-3.4-.14-1.54-1.22-1.62-2.35-1.83-1.22-.23-1.52.58-1.89,1.42-3.01,7.03-7.9,12.55-13.81,17.23-.6.48-.79,1.04-1.04,1.64-1.03,2.49-2.86,3.98-5.55,4.18-.79.06-.93.44-1.24.98-2.63,4.62-6.37,7.51-11.81,8.47-4.84.86-9.75,1.24-14.52,2.5-1.06.27-2.2.36-3.2-.35-1.09-.78-1.66-.33-2.18.76-1.46,3.06-4.16,4.57-7.3,5.31-1.19.29-2.43.46-3.09,1.56-2.84,4.76-7.44,6.22-12.52,7.1-3.84.66-7.72,1.24-11.29,3.06-2.85,1.45-4.36,3.72-4.93,6.75-.09.46.11,1.18-.69,1.17s-.9-.65-.92-1.28c-.05-1.37.49-2.62.79-4.06-2.25.04-4.42.03-6.59.15-.33.02-1.23-.08-1.12.74.3,2.2-.76,1.26-1.56.67-4.24-3.05-8.58-1.84-12.92-.33-.79.28-1.33.78-1.09,1.88.24,1.14.88,1.29,1.77,1.03,1.07-.3,1.12.34,1.1,1.09-.12.08-.25.14-.39.18-.37-.03-.75-.05-1.12-.09-1.34-.13-2.65-.22-3.29-1.8-.65-1.59.48-2.29,1.4-3.08-.91-1.34-2.12-.66-3.17-.71-6.19-.31-12.34.65-18.53.56-5.77-.09-11.52.87-17.3.32-.58-.05-1.33-.07-1.73.24-2.08,1.61-4.69,1.9-7.04,2.68-4.95,1.65-10.15,2.09-15.4,1.65-.81-.07-1.53-.42-1.64-1.28-.12-.91.13-1.76,1.04-2.29,1.82-1.08,3.85-1.42,6.09-1.86-.46,2.5-3.05,1.9-4.24,3.24,1.42.8,2.85.47,4.17.24,3.78-.66,7.6-.89,11.25-2.46,2.17-.92,4.52-1.78,6.91-2.27.72-.14,1.45-.38,1.93.54.34.66,1.08.56,1.62.43,6.06-1.46,12.24-1.07,18.39-1.25,4.89-.14,9.8-.79,14.68-.66,6.01.16,12.01-.34,18.05.02,5.2.31,10.36-.2,15.41-2.53,2.78-1.27,4.93-3.11,7.32-4.71,2.48-1.66,4.32-4.07,5.87-6.63,1.35-2.2.81-3.36-1.69-3.73-3.78-.57-7.36.64-10.92,1.56-1.99.51-3.84,1.57-5.7,2.5-.85.42-2.07.38-1.93,2.12.08.92-1.58,1.24-2.6,1.32-3.56.31-7.14.7-10.7.67-4.54-.02-9.02.46-13.53.84-.44.04-.89.16-1.32.11-6.92-.92-13.48.89-20.07,2.55-4.3,1.08-8.64,2.02-12.88,3.39-2.04.66-3.86,1.89-6.11,1.99-3.13.14-6.24-.18-9.36-.24-1.09-.02-2.79-.66-2.28,1.65.03.15-.14.44-.3.53-.72.46-4.53-1.54-4.58-2.38-.09-1.39.88-1.47,1.91-1.6,3.74-.44,7.5-.41,11.6-.29-3.26-1.32-6.36-1.58-9.42-1.95-.67-.08-1.34-.17-2-.26-.91-.11-1.72-.63-1.72-1.48,0-1,1.1-.81,1.75-.91,4.1-.58,8.2-1.13,12.31-1.63,3.18-.39,6.38-.02,9.59-.36,4.21-.45,8.13-1.82,12.03-3.17,6.87-2.36,13.95-3.61,21.06-4.59,4.45-.61,9.01-1.26,13.56-.48,1.3.22,2.66-.35,3.96.34.78.42.99-.41,1.32-.85,2.17-2.82,4.19-5.77,6.54-8.45,3.24-3.7,7.44-5.98,12.29-6.76,6.02-.97,11.82-2.88,17.81-3.99.88-.16,1.78-.24,2.66-.17,1.92.15,3.37-.5,4.78-1.81,4.39-4.1,9.45-7.26,14.73-10.07.32-.17.7-.27,1.05-.36,1.67-.43,2.79-1.07,3.62-3,1.15-2.67,3.31-4.92,5.56-6.93.8-.72,1.44-1.28,1.12-2.61-.34-1.4.58-2.68,1.58-3.54,8.02-6.88,16.11-13.67,24.41-20.22,5.75-4.53,11.31-9.3,16.99-13.91,6.09-4.94,12.23-9.82,18.34-14.74.65-.52,1.32-1.25,2.1-.38.91,1.02-.33,1.53-.8,1.94-2.43,2.1-4.98,4.07-7.49,6.09-.47.39-1.35.7-.47,1.5,1.14,1.05.08,1.59-.53,2.09-4.11,3.35-8.25,6.66-12.37,10-4.64,3.74-9.25,7.53-13.92,11.23-4.07,3.22-8.23,6.32-12.21,9.71,1.91-.42,3.43-1.58,4.9-2.69,1.61-1.19,3.41-1.75,5.25-2.33,1.02-.32,1.77.29,2.44.84.91.76,1.73,1.65,2.51,2.55.36.42.57.77,1.26.52,2.69-.98,5.35-.03,7.93.5,2.99.62,3.58,3.52,4.46,5.94.56,1.53.83,3.16,1.35,4.71.42,1.26,1.08,1.78,2.16.45,6.28-7.76,13.13-15.04,19.72-22.53,4.88-5.56,10.17-10.74,14.79-16.54.33-.41.68-.92,1.25-.42.46.42.33,1.01-.03,1.42-.74.84-1.55,1.61-2.32,2.42-3.21,3.39-6.04,7.11-9.22,10.52-1.99,2.14-4.16,4.23-5.75,6.74-1.91,1.93-3.79,3.88-5.23,6.21-1.68,1.23-3.12,2.69-4.19,4.49-.45.39-.95.74-1.34,1.18-2.9,3.2-5.77,6.43-8.68,9.6-1.28,1.39-1.66,1.35-2.19-.4-.6-2.05-1.41-4.01-1.87-6.13-1.15-5.32-1.42-5.46-6.82-6.3-.81-.13-1.63-.2-2.44-.3-.53-.06-1-.01-1.49.29-3.11,1.89-6.63,3.14-9.38,5.62-2.21,2-5.32,2.38-7.52,4.38-2.1,1.91-4.12,3.93-6.37,5.64-2.17,1.64-3.31,4.09-5.51,5.74,6.88,1.9,11.69,5.71,14,12.42,2.14-1.67,3.68-3.79,5.42-5.7,2.55-2.81,4.75-5.92,6.58-9.24,1.52-2.75,2.77-5.66,5.04-7.96.46-.48.77-1.36,1.45-.85.53.39.21,1.24-.22,1.83-.13.18-.2.41-.34.58-.7.9-.39,1.3.65,1.42s2.1.19,3.1.48c1.61.47,3.92.35,3.02,3.32-.31,1.03.88,1.2,1.71,1.25.9.07,1.44-.69,1.14-1.25-.93-1.65-.39-2.33,1.25-2.66.19-.04.32-.3.47-.48,2.42-2.73,4.95-5.38,7.21-8.23,1.08-1.37,2.59-2.48,3.09-4.3,1.89-1.03,3.16-2.65,4.2-4.46,1.91-1.92,4.13-3.55,5.33-6.09h0v.06Zm-78.37,48.28c1.57.83,3.26,1.32,4.89.67,5.39-2.13,9.93-5.4,13.02-10.41.44-.71,1.18-1.76.11-2.35-2.19-1.22-4.37-2.45-7.01-2.71-2.81-.28-5.84,1.3-8.45-.94-.31-.26-.66.13-.98.33-4.67,2.96-9.07,6.28-13.52,9.54-.38.27-.91.52-.74,1.23.39,1.57-.62,1.32-1.56,1.16-3.83-.66-7.5.12-11.2,1.03-3.23.8-6.32,2.21-9.71,2.31-2.48.08-4.85.74-7.18,1.52-3.34,1.11-6.36,2.73-8.32,5.85,1.35-1.45,3.17-1.89,4.95-2.46,1.72-.54,3.13.23,4.17,1.42,1.12,1.27.74,2.8-.06,4.16-.26.44-.74.76-1,1.2-1.2,2.02-3.74,2.47-5.06,4.42,2.63-1.08,5.32-1.83,8.05-2.51,3.14-.78,6.32-1.25,9.51-.22,1.93.62,2.91,2.43,2.31,4.35-.56,1.78-1.28,3.48-2.62,4.88-1.61,1.69-3.18,3.41-5.19,4.67,1.44-.19,2.81-.44,4.18-.74,2.83-.62,5.28-1.72,7.19-4.1,1.87-2.33,4.23-3.96,7.39-4.58,3.86-.76,5.26-4.41,7.15-7.31,1.26-1.92.48-3.97-.06-5.99-.72-2.73-.9-2.91-3.56-2.44-.8.14-1.63.15-2.46.22-3.42.29-4.21,1.54-2.96,4.63.22.55.37,1.14.43,1.73.17,1.57-.48,2.61-2.11,2.85-1.92.29-3.84.39-6,.28,1.27-1.42,2.76-1.18,4.12-1.34,2.98-.34,3.48-1.21,2.14-3.92-1.48-2.97-.68-4.58,2.62-5.01,1.83-.24,3.82-.4,5.45-.95,1.98-.67,2.4.13,2.91,1.42.59,1.49,1.06,3.04,1.68,4.87.5-2.38.09-4.21-1.17-5.92-.31-.42-.77-1.09-.14-1.59.78-.6,1.05.31,1.33.7,1.81,2.48,2.8,5.22,2.38,8.35-.09.75-.41,1.51-.19,2.36,3.02-3.29,2-6.75.84-10.16-.6-1.76-3.92-3.82-5.54-3.56-.54.08-1.08.67-1.4-.3-.31-.95.44-1.21,1.01-1.45.71-.31,1.45-.11,2.2.09,5.58,1.57,8.52,10.89,5.26,15.24-.34.45-.91.77-.83,1.5,4.3-.16,8.42-1.29,12.63-1.94,3.6-.55,6.74-1.96,9.3-4.83,1.27-1.43,2.1-3.04,3.14-4.55.91-1.33.9-1.31,2.3-.47.19.11.59.01.83-.12.71-.41,1.37-.89,1.74-1.68,1.31-2.75,1.4-5.41-.5-7.96-2.21-2.96-6.67-6.02-9.46-6.3.87.51,1.52.87,2.15,1.24,2.22,1.27,3.74,3.13,4.66,5.5.16.41.42.89,0,1.25-.6.5-.92-.19-1.29-.45-.3-.21-.52-.55-.71-.85-.83-1.29-1.47-1.2-2.21.13-1.75,3.18-4.36,5.6-7.27,7.68-2.09,1.5-4.39,2.57-6.93,3.02-1.85.33-3.53.04-4.66-1.73h0v.04Zm-124.31,26c1.79.78,3.8,1.01,4.33,2.02,1.02,1.95,2.44,1.33,3.49.92,4.09-1.56,8.16-3.12,12.5-3.89,3.41-.6,6.72-1.71,10.1-2.43,2.66-.55,5.45-.41,8.17-.71,3.95-.43,7.94-.22,11.9-.92,3.49-.61,7.07-1.03,10.66-.73,2.76.24,3.35-.26,3.76-2.94.16-1.02-.04-1.63-1.2-1.53-5.83.53-11.73.45-17.48,1.63-6.81,1.4-13.74,2.33-20.29,4.8-5.41,2.05-11.04,2.76-16.76,2.95-2.89.1-5.81-.15-9.16.78h0v.03Zm166.42-67.02c-3.26-2.58-4.31-2.7-7.38-.64-2.48,1.67-4.99,3.29-7.65,4.64-1.42.72-2.63,1.68-3.77,2.79-1.12,1.08-2.43,1.96-3.72,2.86-4.64,3.25-9.06,6.75-12.66,11.33.99.12,1.94.07,2.75.37,3.06,1.14,4.76,0,6.64-2.63,5-6.95,12.43-11.07,19.55-15.5,1.94-1.2,4.14-1.86,6.24-3.2h0Zm-87.25,47.42c-1.97.01-3.81,1.8-5.53,3.41-2.62,2.44-4.28,5.65-5.87,8.84-.21.43-.78.93-.31,1.38.49.49,1.14.13,1.64-.17s.96-.7,1.4-1.09c2.58-2.25,4.95-4.78,7.87-6.6,1.28-.79,2.13-1.85,2.88-3.04,1.03-1.63.57-2.46-2.1-2.74h0Zm81.97-56.7c-1.5,1.03-2.99,1.84-4.24,2.94-5.78,5.04-12.52,8.93-17.73,14.67-.57.63-1.85,1.12-1.19,1.98.57.75,1.32-.56,2.06-.76.2-.06.34-.28.52-.42,2.51-1.95,4.85-3.98,6.86-6.53,2.46-3.12,6.04-5.17,9.01-7.83,1.52-1.35,3.08-2.64,4.71-4.04h0Zm8.88,26.11c1.81.84,3.62,1.61,5.59,1.9.42.05.92.2,1.05-.44.1-.48-.28-.69-.64-.73-1.99-.25-3.89-1.24-6-.74h0Zm-34.89,6.73c-2.34-.77-4.12-.48-5.8.67,1.77-.38,3.63,0,5.8-.67Zm27.59-34.01c.25-.21.47-.37.63-.57.13-.17.14-.45-.13-.39-.23.05-.44.3-.62.5-.05.04.05.22.12.47h0Z"/>
  <path class="cls-2" d="m350.56,125.4c2.51-.46,5.3,1.87,5.21,4.38-.04,1.15-.7,2.12-1.67,2.47-1.5.54-3.59.39-2.11,2.98.02.04-.02.2-.05.21-1.82.21-1.55,2.48-3.04,3.06-.93.37-1.7.91-1.29,2.19.26.82-.36,1.04-1.03,1.04-.73,0-1.46-.09-2.63-.16,1.79-1.43,2.12-3.72,4.35-4.18.68-.14.42-.5.38-.97-.16-1.51-.62-2.9-1.33-4.22-.45-.85-.62-1.82.31-2.39,1.08-.66,1.36.37,1.7,1.09.68,1.38,1.76.91,2.68.48,1.04-.49,1.53-1.32,1.01-2.55-.58-1.36-1.97-2-2.71-3.21.06-.06.13-.13.18-.19h0l.02-.02Z"/>
  <path class="cls-2" d="m365.23,138.19c1.52,1.65,1.94,3.29.91,5.17-.75,1.35-1.53,2.66-2.29,4-.15.25-.27.54-.46.76-.77.86-1.8,1.33-2.86,1.65-3.55,1.08-6.8,3.83-10.87,1.98-.4-.18-.81-.37-1.15-.64-.45-.36-1.07-.79-.75-1.43.44-.89,1.05-.17,1.48.08,1.22.7,2.57.73,3.9.86.42.05,1.05.03,1.27-.24,1.67-2,3.93-2.4,6.32-2.59.48-.03.97-.44,1.18-.94,1.03-2.47,3.8-4.22,3.09-7.43-.07-.32.13-.71.24-1.23h0Z"/>
  <path class="cls-2" d="m344.26,151.57c-2.76-.3-5-2.89-4.86-5.61.02-.22.09-.59.02-.63-2.19-.95-1.29-3.63-2.8-4.99-1.02-.91-.35-2.28-.68-3.4-.03-.09.23-.38.39-.42.48-.11.63.31.8.62.67,1.23,1.42,2.58,1.7,3.82.33,1.43,1.03,2.41,1.79,3.49.17.24.56.57.5.71-1.15,2.46,1.56,2.83,2.28,4.26.37.73,1.11.72,1.78.55.97-.24,2.1-.3,2.1.85,0,1.23-1.26.93-2.14.87-.3-.03-.6-.07-.89-.11h0s.02,0,.02,0Z"/>
  <path class="cls-2" d="m358.36,126.26c4.43-.3,8.3,3.68,7.87,8.06-.07.72.39,1.07.57,1.6.17.51.09,1.12-.42,1.39-.64.34-.83-.19-1.1-.69-.68-1.21-1.04-2.3-1.11-3.84-.1-2.16-1.55-4.27-3.96-5.18-.67-.25-1.51-.27-1.84-1.33h0Z"/>
  <path class="cls-2" d="m334.81,126.78c.14-.05.26-.12.39-.18,1.16.03,1.81.4,1.46,1.77-.33,1.3-.74,2.44-2.33,2.45-.76,0-1.2-.51-1.47-1.17-.25-.64-.06-1.14.46-1.56.51-.41.98-.88,1.48-1.31h0Z"/>
  <path class="cls-2" d="m342.51,135.43c-.81-.04-1.16-.34-.98-.87.22-.66-.77-1.49.28-1.97.26-.12.61-.02.87-.12.69-.27,1.07-1.45,2.08-.75.55.38.33.9,0,1.37-.68.95-1.28,1.98-2.24,2.34h0Z"/>
  <path class="cls-2" d="m338.5,131.64c.02.59-.36.64-.73.64-.49-.01-.95-.3-1.5-.05-.48.2-1.39,1.07-1.49.03-.08-.81,1.11-1.47,2.02-1.65.75-.15,1.38.35,1.72,1.04h0Z"/>
  <path class="cls-2" d="m350.37,125.6c-.19.11-.36.25-.57.32-.57.22-1.19.79-1.72.09-.27-.35-.03-.88.28-1.19.62-.6,1.28-.66,1.89.03.14.16.22.37.32.55-.06.06-.13.13-.18.19h0Z"/>
  <path class="cls-2" d="m334.94,135.91c-.87-.64-1.28-1.1-1.16-1.83.02-.13.36-.33.48-.28.89.36.59,1.13.68,2.11h0Z"/>
  <path class="cls-1" d="m364.03,101.57c-.24.12-.48.24-.72.36"/>
  <path class="cls-1" d="m363.25,93.31c-.2-.18-.41-.35-.61-.53"/>
  <path class="cls-1" d="m448.52,46.45c-.16-.99-.79-1.65-1.54-2.22"/>
  <path class="cls-1" d="m454.15,65.28c-.64.94-.23,1.84.12,2.73"/>
  <path class="cls-1" d="m466.56,67.48c-.36-1.12-1.05-2.11-1.17-3.32"/>
  <path class="cls-1" d="m324.61,108.96c-.73.72-1.72.33-2.56.59"/>
  <path class="cls-1" d="m433.74,45.09c-.34.16-.5.62-.97.56"/>
  <path class="cls-1" d="m468.11,58.6c-.18.2-.35.41-.53.61"/>
  <path class="cls-1" d="m338.18,142.35c.1.39.21.78.31,1.17"/>
  <path class="cls-1" d="m339.95,144.6c.16.34.62.5.56.97"/>
  <path class="cls-1" d="m340.65,148.09c.2.18.41.35.61.53"/>
  <path class="cls-1" d="m478.77,89.82c-.32.18-.65.37-.97.56"/>
  <path class="cls-1" d="m491.19,29.26c-1.02.93-2.04,1.86-3.06,2.8"/>
  <path class="cls-1" d="m469.16,53.75c-.18.2-.35.41-.53.61"/>
  <path class="cls-1" d="m465.98,57.44c-.32.36-.9.45-1.03,1"/>
  <path class="cls-1" d="m453.09,57.21l-.91,1.92"/>
  <path class="cls-1" d="m285.55,117.08c.37-1.22.1-2.05-1.31-2.2"/>
  <path class="cls-1" d="m424.96,75.96c-1.36,2.81-3.51,5.03-5.64,7.24"/>
  <path class="cls-1" d="m416.09,85.52c-1.76,1.5-4,2.1-6.06,2.75-1.3.4-3.3.21-4.29-1.52"/>
  <path class="cls-1" d="m365.4,138.44c.2.85.39,1.71.59,2.56"/>
  <path class="cls-1" d="m420.76,67.75c-.18.2-.35.41-.53.61"/>
  <path class="cls-1" d="m296.35,121.35c-.58,1.07-1.43-.47-2.06.2"/>
  <path class="cls-1" d="m427.23,88.93c-.75.41-.47,1.44-1.14,1.9"/>
  <path class="cls-1" d="m488.4,88.97c-1.37-.54-2.74-1.09-4.1-1.63"/>
  <path class="cls-1" d="m362.98,128.63c-.53-.87-1.55-1.07-2.29-1.64"/>
  <path class="cls-1" d="m425.85,48.43c-1.72,1.51-3.95,2.45-5.1,4.58"/>
  <path class="cls-1" d="m351.19,132.39c.42-.62,1.13-.19,1.64-.47"/>
  <path class="cls-1" d="m351.09,125.81c-.94-.7-1.86-.99-2.73.12"/>
  <path class="cls-1" d="m332.81,121.52l-.83,1.26"/>
  <path class="cls-1" d="m394.74,84.04l.08-.67"/>
  <path class="cls-1" d="m332.07,125.74c.92,1.01,3-.54,3.44,1.55"/>
  <path class="cls-1" d="m401.67,86.7c.12.24.24.48.36.72"/>
  <path class="cls-1" d="m335.88,131.64l-.75.58"/>
  <path class="cls-1" d="m349.33,136.46c.68,1.46-.46,1.44-1.33,1.65"/>
  <path class="cls-2" d="m74.98,56.41c-.48-7.42-1.73-14.65-3.78-21.7-1.65-5.65-3.48-11.27-5.66-16.73-1.27-3.17-3.38-6.01-5.16-8.98-.39-.65-1.47-1.14-.79-2.02.59-.76,1.55-1.26,2.6-.99,1.21.31,2.54.32,3.39,1.59.47.71,1.39,1.12,1.95,1.8,2.28,2.78,4.72,5.1,8.38,6.26,3.79,1.21,4.21,2.68,3.87,7.04-.15,1.88-1.04,3.57-.98,5.5.15,5.2,2.34,9.7,4.8,14.06,3.38,6.01,6.96,11.88,6.87,19.12,0,.57.02,1.14,0,1.71-.02,1.1-1.51,2.37-.77,3,1.55,1.33,3.15,3.01,5.35,3.16,3.34.23,6.49,1.34,9.76,1.81,1.05.15,2.09-.11,3.14-.34,1.81-.4,3.64-1.01,5.3.54.54.51,1.25.23,1.81-.14,2.31-1.52,4.54-1.36,6.82.13.8.53,1.78.78,2.67,1.19,1.2.56,2.6,1.22,2.88,2.48.86,3.93,4.89,5.29,6.56,8.62,1.62,3.24,4.45,5.79,6.1,9.09.34.68,1.09.94,1.65,1.38,3.7,2.9,8.41,2.03,12.53,3.41,1.86.62,3.88-.78,5.96-.46.73.11,1.52-.78,1.56-1.87.05-1.13.19-2.26.42-3.37.13-.63.51-1.3,1.35-1.11.85.2.86.85.61,1.54-.66,1.8.07,3.88-1.26,5.59-.85,1.09-1.69,1.95-3.13,2.04-3.28.19-4.7,1.97-3.91,5.15.35,1.43,1.02,2.69-.28,4.05-.66.69.41,1.1.83,1.34,2.48,1.43,5.1,2.45,8.32,2.24-.9-1.39-1.95-2.52-2.05-4.29.69.81,1.24,1.54,1.87,2.18,1.87,1.89,3.23,1.59,4.13-.83.31-.83-.11-2.24,1.27-2.32,1.29-.08,1.89,1.11,2.52,2.02.41.59.71,1.28.96,1.95.33.89.82,1.37,1.83,1.13.46-.11,1.04-.27,1.13.46.06.55-.37.85-.85,1.05-1.72.73-3.36.14-4.15-1.83-.59-1.49-1.1-1.42-1.94-.34-.63.8-1.53,1.15-2.66,1.6,3.02,1.67,6,2.68,9.32,2.41,1.96-.16,3.43-1.33,3.95-3.07.57-1.9-.44-3.52-2.18-4.46-.82-.45-1.7-.7-1.49-1.88.2-1.13,1.25-1.29,2.06-1.44,2.58-.48,4.4-1.62,5.15-4.34.49-1.82,2.26-2.05,3.8-1.94,1.76.12,3.67.32,4.15,2.68.3-.2.63-.28.66-.45.79-3.4-1.14-9.66-6.53-9.17-.49.04-.98.03-1.46.11-2.03.35-3.79.63-3.94-2.43-.07-1.56-2.81-2.75-5.07-2.3-2.35.47-4.89.5-6.89,2.18-.44.37-1.05.75-1.5.15-.4-.54.06-1.03.45-1.49,2.42-2.81,9.69-4.1,12.98-2.27.68.37,1.13.99,1.29,1.71.45,2.04,1.79,2.28,3.62,2.23,5.85-.16,10.37,4.81,8.95,10.48-.7,2.79-1.79,5.17-.49,8.07.57,1.27-.55,2.25-2.05,2.34-.58.04-1.26.13-1.54-.43-.38-.75.41-.94.84-1.22.89-.56,1.2-1.07.56-2.15-.56-.95-.89-2.16-.63-3.31.52-2.3-1.27-2.62-2.66-2.9-1.43-.29-2.98-.18-3.13,2.02-.1,1.57-1.25,2.74-2.39,3.55-1.4,1-1.25,2.01-.82,3.31.71,2.11,1.03,4.19-.22,6.3-.66,1.11-2.13,1.21-2.69,2.61,2.03,1.03,4.06,1.87,6.29.59.83-.47,1.71-.46,2.59-.57,1.02-.13,1.87-.49,2.25-1.57.36-1.03.3-1.9-.73-2.54-.41-.25-.97-.68-.5-1.13.68-.65,1.3-1.57,2.41-1.48.65.05,1.13.61.91,1.2-.45,1.26.38,1.26,1.17,1.46,2.12.54,4.29.92,6.24,1.97.47.25.88.26,1.38.07,4.39-1.6,8.88-1.87,13.53-1.59,2.02.12,4.1-.71,6.14-1.19,5.42-1.28,10.82-2.69,16.26-3.89,2.95-.65,5.06-2.73,7.65-4,3.64-1.79,6.8-4.36,9.87-7,.51-.43.89-.96,1.65-.39.62.48,1,.91.84,1.82-.51,3.05-2.79,4.88-4.7,6.92-.61.66-1.02,1.19-.89,2.07.11.78-.12,1.62-.67,2-3.29,2.3-6.08,5.83-10.15,6.35-3.89.49-7.5,1.68-11.25,2.57-2.79.67-5.32,1.95-7.92,3.02-3.66,1.51-7.44,2.61-11.17,3.98,4.76.25,9.51.21,14.15-.69,3.75-.73,7.44-.28,11.14-.14,1.74.06,3.06-.23,4.45-1.27,5.02-3.76,10.7-6.66,14.98-11.39.5-.55,1.16-.65,1.78-.27.07.04.32.18.54.46.08.1.18.32.37.75.02.03.02.1.02.18h0c.02.37-.1.64-.13.7-.23.56-.46,3.03-.76,4.54-.24,1.21-.73,2.32-2.01,3.15-1.46,4.76-5.57,6.98-9.34,9.36-2.64,1.66-5.68,2.44-8.83,1.12-1.05-.44-1.87.16-2.78.43-6.71,2.03-13.42,4.24-20.36,5.17-6.08.82-12.37,2.14-18.4.54-4.69-1.25-9.32-2.99-13.78-5.17-5.64-2.75-11.46-5.3-17.62-6.76-2.05-.48-4.14-.07-6.19.03-1.3.06-2.57-.02-3.86-.09-.83-.05-1.78-.67-2.01.83-.09.58-.77.5-1.23.55-6.14.69-12.03-.52-17.4-3.32-3.13-1.63-5.44-4.59-7.05-7.88-.7-1.43-1.47-2.8-2.54-4.01-2.09-2.35-5.05-2.34-7.79-3-4.23-1.01-9.16-.53-12.57-3.1-4.55-3.42-9.81-3.28-14.74-4.71-3.02-.88-6.14-3.43-6.7-6.32-.28-1.48-.26-2.78,1.41-3.43.39-.15.95-.55.69-.81-1.49-1.47-1.05-3.89-2.8-5.26-3.36-2.63-5.65-6.22-8.28-9.5-.91-1.13-1.87-2.23-2.93-3.21-2.51-2.3-4.03-5.22-5.5-8.21-1.8-3.7-3.91-7.21-6.38-10.52-3.32-4.47-6.35-9.15-9.78-13.54-2.97-3.81-6.69-6.95-10.33-10.13-2.32-2.02-4.46-4.15-6.05-6.86-1.23-2.11-3.44-3.32-5.3-4.84-1.19-.97-2.53-1.77-3.67-2.78-1.5-1.33-1.34-1.97.37-2.87,3.33-1.76,6.09-.29,8.86,1.42,2.82,1.74,5.75,3.23,9.12,3.57,4.8.49,6.75,2.8,6.26,7.59-.09.87-.1,1.57.58,2.22,2.99,2.83,5.74,5.88,8.41,9.01,1.46,1.72,3.28,3.04,5.11,4.39,4.71,3.46,9.25,7.13,12.24,12.33.3.53.52,1.23,1.55,1.22h0s-.03,0-.03,0h0Zm179.57,59.46c-3.73,3.95-8.31,6.72-12.69,9.76-1.94,1.35-3.91,2.79-6.41,2.72-4.37-.11-8.68.06-13.03.82-6.92,1.21-13.97.77-20.9-.03-2-.23-4.14.42-6.06-.69-8-4.62-16.5-8.13-25.28-10.94-3.24-1.03-6.24-2.72-9.82-2.87-2.16-.09-4.71-.96-5.94-2.86-1.12-1.73-2.36-1.81-3.83-1.45-3.16.77-5.89,2.29-7.59,5.24-1.16,2-.7,3.97,1.21,5.21.48.31.96.61,1.46.88s1.16.55.96,1.22c-.25.84-1.09.6-1.66.48-2.15-.45-3.93-1.5-4.92-3.58-1.01-2.14-1.74-4.29-1.61-6.78.14-2.84-1.99-4.39-4.63-3.69-2.14.57-3.61-.12-4.53-2.13-.7-1.55-1.37-3.1-2.06-4.65-.38-.84-.46-1.73-.36-2.62.06-.5.35-.94.95-.89.53.04.54.51.64.89.42,1.57.89,3.12,1.28,4.7.8,3.16,1.94,3.89,4.97,2.82,2.11-.75,3.33.22,4.15,1.87.78,1.55,1.52,3.16,1.16,4.97.62.07.74-.29.88-.54,1.97-3.53,5.02-5.31,9.01-5.64.79-.06,1.56-.41,2.34-.58.63-.14,1.19-.71,1.21-1.09.1-2,.07-4.01-.04-6.03-.03-.56-.75-.5-1.22-.57-2-.33-3.99-.64-6.02-.51-.81.06-1.79.34-2.34-.35-1.93-2.43-4.64-2.62-7.38-2.83-.75-.06-1.85.34-2.01-.81-.14-1.02.94-1.09,1.64-1.44.67-.33,2.12-.48,1.12-1.75-2.51-3.19-4.37-6.84-6.89-9.98-4.69-5.84-12.71-5.36-19.5-2.5-1.52.64-2.86,1.63-4.76.98-1.32-.45-2.76.86-2.31,1.82,1.96,4.17,3.04,9.3,9.49,8.89-1.88,1.52-4.17,1.56-5.78-.13-2.4-2.52-4.31-5.4-5.18-9.18-4.58,3.33-5.39,9.16-9.03,13.02.4-4.46,1.92-8.48,4.37-12.15,1.55-2.33,3.37-4.34,6.2-5.22.61-.18,1.55.14,1.98-.69-.84-.79-1.6.91-2.27-.15-.96-1.55-2.44-1.21-3.91-1.27-1.84-.08-3.49.72-5.27.87-3.52.31-4.97,2.09-4.36,5.49.38,2.11.47,3.84-2.17,4.54-.78.2-1.35,1.15-2.08,1.66-1.47,1.01-1.59,1.81.02,2.89,1.6,1.06,1.41,2.42-.25,3.29-2.97,1.55-3.08,2.74-.35,4.8.64.48,1.43.76,2.16,1.1,5.3,2.46,11.56,1.86,16.62,5.19.56.37,1.4.35,2.12.45,6.51.87,12.89,2.31,19.21,4.05,1.94.53,2.31,1.41,1.16,3.09-.38.56-.52.91-.15,1.49,1.53,2.39,3.23,4.62,5.37,6.53,5.32,4.78,12.15,4.71,18.77,6.24-.44-1.04-1.85-1.27-1.19-2.24.43-.63,1.36-.24,2.05-.05,2.4.65,4.83.55,7.26.22,1.54-.21,3.09-.32,4.63-.11,6.66.91,12.49,4.23,18.66,6.53,2.76,1.03,5.23,2.91,8.06,3.94,4.29,1.55,8.41,3.13,13.29,2.56,10.92-1.27,21.43-4.12,31.89-7.24.72-.22,1.44-.46,2.13-.15,2.33,1.03,5.6,1.04,7.42-.48,2.33-1.94,5.85-2.86,6.22-6.67.02-.19.28-.4.48-.54,2.37-1.66,4.16-3.61,3.21-7.15h0s-.01,0-.01,0h0Zm-159.94-42.39c-.61-.89-1.38-1.22-2.09-1.57-4.35-2.16-8.63-4.44-12.48-7.4-2.76-2.12-5.3-4.4-7.39-7.3-3.95-5.45-8.46-10.43-14.36-13.94-.76-.45-1.63-.98-2.04-1.7-1.89-3.26-4.99-5.36-7.45-8.05-1.66-1.82-4.46-2.35-5.58-4.54-1.98-3.89-5.83-4.31-9.26-5.61-.42-.16-1.05-.21-1.37.21-.41.53-.15,1.14.24,1.55,1,1.06,2.04,2.07,3.11,3.06,4.54,4.16,9.19,8.24,13.17,12.94,2.7,3.19,5.11,6.63,7.6,10.01,3.36,4.57,6.79,9.08,9.13,14.32,1.09,2.42,2.22,4.96,4.19,6.75,2.05,1.87,3.99,3.79,5.7,5.98,1.49,1.9,2.74,3.97,4.56,5.66,2.7,2.52,2.54,2.56,5.67.48,1.46-.98,2.21-1.92,1.59-3.77-.46-1.37.09-2.63,1.01-3.83,1.51-1.99,3.92-2.13,6.05-3.25h0Zm156.57,30.76c-1.4.23-1.92,1.03-2.64,1.54-3.97,2.81-8.12,5.51-12.84,6.63-3.62.86-7.28,1.53-10.9,2.44-3.1.78-6.31,1.51-9.48,1.54-3.82.04-7.61-.06-11.34.93-1.08.29-2.43.88-3.28.49-2.92-1.33-6.26-.54-9.24-2.42.2,1.69.6,3.06-.56,4.2-1.11,1.11-2.76.51-4.12,1.24,4.59,3.03,5.49,3.27,11,3.81,6.44.62,12.77.38,18.84-2.17,3.58-1.5,7.11-3.17,10.78-4.43,3.19-1.09,6.35-2.91,9.75-2.68,5.15.35,8.23-3,11.8-5.61-1,.07-1.78.6-2.51,1.21-.59.49-1.41.94-1.94.26-.77-.98.35-1.32.94-1.81,1.89-1.59,4.32-2.56,5.75-5.16h0s0,0,0,0ZM67.49,18.05c2.86,5.38,3.56,10.81,5.61,15.83,1.95,4.8,2.82,10.01,2.95,15.2.09,3.28.84,6.42,1.15,9.64.09.92.31,2.04,1.21,2.57,2.44,1.45,4.41,3.62,7.03,4.74.96.41,1.81,1.64,2.77,1.28,1.46-.55-.53-1.82.19-2.72.04-.06.07-.15.06-.24-.3-3.77-.48-7.48-1.98-11.14-1.96-4.8-4.89-9.11-6.67-13.96-1.38-3.74-3.72-7.26-2.76-11.56.1-.41-.04-.84-.38-1.1-1.77-1.35-2.83-3.28-4.22-4.95-1.15-1.37-2.45-2.8-4.96-3.59h0Zm-6.14-10.75c1.62,2.97,3.83,4.97,4.68,7.81.28.93.98,1.39,1.97,1.58,3.19.63,5.63,2.34,7.19,5.25.35.64.77,1.24,1.18,1.84.67.99,1.14,1.01,1.58-.23.97-2.77-.31-5.47-3.17-6.27-2.97-.83-5.37-2.19-7.21-4.9-1.38-2.03-3.12-4.12-6.2-5.09h0ZM23.94,15.9c1.96,2.55,4.91,3.48,6.94,5.57.3.3.77.36,1.14.17,1.81-.91,3.47-.01,5.14.42,3.04.79,5.74,2.21,7.91,5.25-.07-4.37-.71-5.28-4.66-5.82-3.47-.47-6.43-1.78-9.27-3.77-2-1.4-4.17-2.89-7.2-1.83h0s0,0,0,0Zm100.04,59.48c-.67-1.12-1.37-1.18-1.94-1.46-2.39-1.18-4.73-2.22-7.06.27-.69.74-1.79.62-2.65-.15-1.36-1.23-2.87-1.43-4.47-.5-.68.4-2.22.59-1.48,1.63.59.82,1.01,2.67,3.13,1.72,4.48-2.02,9.17-3.19,14.48-1.5h0s0,0,0,0Zm-20.51-2.12c-2.31.06-4.3-1.53-6.66-1.22,2.01,1.51,4.38,1.13,6.66,1.22Z"/>
  <path class="cls-2" d="m168.33,99.42c.65.46.95.72,1.29.9.63.35,1.31.83,1.99.12.6-.63.45-1.36.03-2.02-.56-.9-1.02-1.86.25-2.44,1.32-.6,2.11.02,2.46,1.41.78,3.08,2.47,3.67,5.08,1.76.38-.28.69-.72,1.25-.67.06,2.5-3.35,5.35-5.73,4.53-1.51-.51-2.92-1.09-4.55-1.26-.83-.09-1.85-.66-2.06-2.35h0s0,0,0,0Z"/>
  <path class="cls-2" d="m186.16,108.1c-1.05.16-2-.27-1.92-1.46.08-1.3,1.41-2.4,2.33-2.39,1.09,0,1.15,1.84,1.64,2.79.48.94-1.18.79-2.05,1.06h0Z"/>
  <path class="cls-2" d="m125.01,94.98c1.09.5,1.81-.34,2.67-.38.57-.03,1.15.2,1.34.83.15.5-.28.76-.65.88-3.04.97-3,3.89-3.92,6.19-.15.36-.09.8-.17,1.2-.15.68-.11,1.77-1.02,1.61-.76-.13-.65-1.16-.45-1.87.6-2.17,1.06-4.41,2.5-6.59-2.33.31-3.03,2.09-3.96,3.41-.99,1.4-1,3.33-2.14,4.99-.96-1.48-.89-2.96-.32-4.1,1.42-2.8,2.9-5.62,5.29-7.77.42-.38.88-.72,1.39-.97.75-.37,1.8-.67,2.19.13.58,1.19-.64,1.13-1.37,1.36-.53.17-1.07.36-1.38,1.1h0s0,0,0,0Z"/>
  <path class="cls-2" d="m60.56,7.11c.86-1.22,1.64-.05,2.46.07"/>
  <path class="cls-2" d="m89.36,64.69c-.8.61-.68,1.28-.11,1.97"/>
  <path class="cls-2" d="m31.59,24.1c.78,1.93,2.34,3.22,3.76,4.64"/>
  <path class="cls-2" d="m44.81,37.89c.68.71,1.7,1.07,2.1,2.06"/>
  <path class="cls-2" d="m55.04,50.9c.18.23.36.46.54.7"/>
  <path class="cls-2" d="m214.57,115.77c-.25-.15-.51-.29-.77-.44"/>
  <path class="cls-2" d="m200.45,117.25c-.96-.11-1.6-1.36-2.75-.79"/>
  <path class="cls-2" d="m191.94,114.9c-.25-.15-.51-.29-.77-.44"/>
  <path class="cls-2" d="m190.84,116.69c-.02-.66-.19-1.32.11-1.97"/>
  <path class="cls-2" d="m54.64,38.18c.32.41.95.55,1.06,1.15"/>
  <path class="cls-2" d="m103.07,81.88c.43,3.27,2.32,5.79,4.26,8.28"/>
  <path class="cls-2" d="m107.59,90.39c1.62,1.87,3.63,1.7,5.71,1.07"/>
  <path class="cls-2" d="m69.42,18.02c-.71-.73-1.6-.64-2.49-.56"/>
  <path class="cls-2" d="m85.1,66.95c-.25-.15-.51-.29-.77-.44"/>
  <path class="cls-2" d="m75.47,48.49c-.18-.23-.36-.46-.54-.7"/>
  <path class="cls-2" d="m65.31,15.36c-.18-.23-.36-.46-.54-.7"/>
  <path class="cls-2" d="m61.97,9.71c-.18-.23-.36-.46-.54-.7"/>
  <path class="cls-2" d="m128.97,105.08c.38.71.75,1.42,1.13,2.13"/>
  <path class="cls-2" d="m130.12,107.45c1.49,2.21,3.36,1.3,5.19.62"/>
  <path class="cls-2" d="m125.91,96.47c-1.25,2.91-2.2,5.91-2.8,9.03"/>
  <path class="cls-2" d="m138.72,111.26c.93.67.73,1.65.37,2.4-.47,1,.39,1.32.67,1.94"/>
  <path class="cls-2" d="m174.17,113.2c.8.65,1.26-.4,1.93-.38"/>
  <path class="cls-2" d="m180.76,98.76c-.95,1.11-1.96,2.16-3.23,2.92"/>
  <path class="cls-2" d="m63.67,9.32c-.59-.29-1.18-.57-1.78-.86"/>
  <path class="cls-2" d="m245.32,113.62c-.23.18-.46.36-.7.54"/>
  <path class="cls-2" d="m58.2,8.23c-.23.18-.46.36-.7.54"/>
  <path class="cls-2" d="m168.33,99.87c1.44,1.13,2.86,2.42,4.7.65"/>
  <path class="cls-2" d="m162.53,108.13c.62,1.3,1.33,2.51,2.42,3.54,1.28,1.21,2.32,1.01,3.47-.03"/>
  <path class="cls-2" d="m125.39,96.01c-.45-.48-.99-.06-1.48-.14"/>
  <path class="cls-2" d="m106.87,76.71c-.51-.37-1.03-.75-1.55-1.12"/>
  <path class="cls-2" d="m187.03,104.21c-.71.49-.64,1.4-1.08,2.04"/>
</svg>