<?xml version="1.0" encoding="UTF-8"?>
<svg id="Layer_1" data-name="Layer 1" xmlns="http://www.w3.org/2000/svg" viewBox="0 0 1121.57 428.89">
  <defs>
    <style>
      .cls-1 {
        fill: none;
      }

      .cls-2, .cls-3 {
        fill: #221f20;
      }

      .cls-3 {
        stroke: #d44130;
        stroke-miterlimit: 10;
      }
    </style>
  </defs>
  <path class="cls-2" d="m1075.53,94.65c7.96-8.69,13.53-19.12,20.7-28.39,1.5-1.93,2.94-3.93,4.47-5.83.71-.87,1.52-1.74,2.86-.83,1.33.89,1.75,1.88.79,3.33-1.98,3.01-3.79,6.14-5.86,9.09-20,28.58-40,57.16-60.13,85.65-2.64,3.75-5.2,7.03-5.31,12.13-.09,4.95-7.47,7.94-12.04,5.5-.98-.53-1.74-1.52-2.76-1.9-2.74-1.04-6.34-1.94-7.91.56-1.19,1.89,1.74,4.4,3.6,5.75,7.07,5.11,13.51,10.98,20.25,16.49,10.48,8.55,15.89,19.22,13.94,32.94-.54,3.81,1.28,5.26,4.48,5.68,3.39.45,6.64,1.57,9.96,2.02,5.63.78,8.97,3.52,11.64,8.53,3.6,6.72,10.29,9.64,17.55,11.13,1.84.38,3.74.49,6.29.8-4.06-5.58-8.55-10.14-13.96-13.75-4.08-2.72-7.12-6.2-9.06-10.66-3.87-8.92-9.47-16.66-15.54-24.19-2.57-3.18-4.47-7-6.26-10.72-4.84-10.1-12.41-18.61-16.69-29-.54-1.3-2.4-2.97-.69-3.98,2.13-1.26,2.57,1.35,3.45,2.64,3.61,5.3,7.23,10.6,10.84,15.91,1.65,2.41,4.06,3.76,6.51,5.31,9.56,6.06,19.33,12,27.24,20.19,3.92,4.06,7.66,7.82,13.53,8.67,1.96.29,4.07.67,4.97,3.92-7.31-1.69-14.25-1.66-19.25-8.33-3.31-4.41-8.65-7.25-13.22-10.46-4.22-2.97-8.86-5.51-13.54-9.18,2.3,8.69,9.26,13.54,12.69,20.6.41.85,1.17,1.53,1.51,2.4,2.5,6.2,6.75,8.79,13.45,6.9,1.83-.53,3.64-.24,5.44.8,7.45,4.3,11.3,3.82,17.38-1.89.71-.66,1.43-1.44,2.39-.67.94.74.38,1.66-.01,2.55-2.9,6.67-12.66,8.9-20.36,5.65-3.35-1.42-6.63-2.73-10.49-2.32.02,6.51,5.1,9.43,8.95,12.93,5.08,4.61,9.37,9.96,14.36,14.62,1.28,1.19,1.99,2.26,1.33,3.92-.61,1.54-2.08,1.46-3.37,1.66-13.28,1.9-23.66-2.61-31.02-13.93-1.72-2.64-3.81-4.36-7.3-4.65-4.46-.38-8.68-2.18-13.23-2.7-4.81-.54-5.31-4.64-4.92-8.77.95-10.02-1.02-19.14-8.69-26.28-7.65-7.11-15.45-14.06-23.09-21.19-2.34-2.2-4.32-4.87-5.03-8.07-.85-3.83-3.58-3.72-6.52-3.89-3.16-.19-3.67,1.94-4.32,4.17-5.42,18.65-16.03,34.11-29.53,47.76-1.38,1.4-1.67,2.88-2.12,4.46-1.84,6.61-5.98,10.93-12.72,12.28-1.99.4-2.21,1.41-2.81,2.86-5.21,12.49-13.75,20.92-27.18,25.03-11.94,3.66-24.22,6.16-35.86,10.8-2.6,1.03-5.44,1.6-8.19.11-3-1.62-4.3-.31-5.27,2.58-2.74,8.19-9.08,12.81-16.78,15.67-2.93,1.09-5.99,1.91-7.32,4.91-5.71,12.89-16.87,18.01-29.4,21.8-9.48,2.86-19.09,5.51-27.54,11.21-6.75,4.55-9.84,10.73-10.34,18.57-.08,1.19.63,2.96-1.38,3.19-2.01.22-2.46-1.36-2.72-2.95-.57-3.43.43-6.76.74-10.51-5.66.79-11.14,1.44-16.57,2.42-.85.15-3.13.17-2.6,2.21,1.44,5.46-1.52,3.4-3.73,2.2-11.64-6.38-22.23-1.99-32.71,3.18-1.91.94-3.11,2.4-2.17,5.08.97,2.79,2.61,2.97,4.79,2.06,2.61-1.09,2.93.5,3.11,2.41-.29.23-.58.42-.9.59-.95.05-1.9.11-2.86.14-3.44.07-6.76.25-8.87-3.55-2.13-3.82.5-5.91,2.57-8.2-2.72-3.1-5.56-1.01-8.2-.81-15.71,1.14-30.94,5.48-46.57,7.15-14.59,1.56-28.8,5.76-43.56,6.19-1.46.05-3.39.23-4.3,1.14-4.76,4.7-11.24,6.24-16.93,8.94-11.99,5.7-24.98,8.42-38.33,8.92-2.05.08-3.98-.59-4.53-2.71-.59-2.26-.24-4.47,1.9-6.11,4.28-3.27,9.27-4.79,14.79-6.59-.38,6.46-7.11,5.75-9.7,9.48,3.83,1.58,7.34.31,10.6-.69,9.32-2.85,18.88-4.61,27.64-9.7,5.18-3.01,10.85-5.89,16.73-7.86,1.78-.59,3.55-1.41,5.04.75,1.06,1.54,2.9,1.08,4.21.59,14.84-5.56,30.56-6.5,46.02-8.85,12.32-1.88,24.47-5.03,36.84-6.2,15.23-1.44,30.21-4.59,45.55-5.55,13.22-.83,26.07-3.72,38.12-11.16,6.6-4.07,11.47-9.38,17.02-14.16,5.75-4.95,9.64-11.63,12.77-18.55,2.71-5.98.98-8.71-5.41-8.9-9.72-.27-18.38,3.9-27.08,7.33-4.85,1.91-9.19,5.17-13.6,8.07-2,1.33-5.1,1.61-4.21,5.95.48,2.3-3.61,3.61-6.14,4.15-8.9,1.88-17.79,3.96-26.8,5.01-11.46,1.35-22.63,3.96-33.89,6.31-1.1.23-2.2.7-3.29.69-17.74-.17-33.75,6.44-49.85,12.67-10.52,4.07-21.19,7.78-31.45,12.55-4.93,2.29-9.15,5.97-14.79,6.91-7.86,1.32-15.81,1.48-23.71,2.29-2.73.29-7.24-.8-5.24,4.87.14.38-.23,1.13-.59,1.43-1.67,1.36-11.91-2.48-12.31-4.59-.66-3.49,1.75-4,4.31-4.63,9.3-2.25,18.78-3.35,29.2-4.31-8.65-2.31-16.54-2-24.39-2-1.72,0-3.43-.03-5.15-.03-2.34,0-4.52-1.06-4.81-3.2-.34-2.53,2.52-2.4,4.14-2.85,10.17-2.74,20.35-5.39,30.57-7.93,7.9-1.96,16.09-2.04,24.08-3.9,10.48-2.44,19.96-7.12,29.37-11.71,16.59-8.09,34.09-13.43,51.72-18.1,11.04-2.93,22.36-5.97,34.08-5.42,3.36.16,6.62-1.7,10.09-.37,2.12.81,2.36-1.34,3.06-2.54,4.61-7.79,8.81-15.86,13.87-23.34,7.02-10.35,16.93-17.39,28.9-20.87,14.9-4.33,28.95-10.93,43.7-15.58,2.15-.67,4.43-1.17,6.67-1.26,4.87-.19,8.34-2.32,11.48-6.06,9.81-11.7,21.58-21.26,34.05-29.97.77-.54,1.67-.89,2.55-1.24,4.11-1.61,6.71-3.57,8.21-8.69,2.08-7.1,6.85-13.46,11.87-19.21,1.8-2.06,3.24-3.68,2-6.93-1.3-3.43.64-6.95,2.9-9.42,18.09-19.85,36.4-39.49,55.32-58.58,13.09-13.22,25.66-26.97,38.57-40.37,13.84-14.36,27.82-28.58,41.72-42.89,1.49-1.53,2.95-3.56,5.18-1.6,2.61,2.29-.37,3.97-1.43,5.15-5.5,6.05-11.32,11.81-17.01,17.69-1.08,1.12-3.18,2.18-.71,3.93,3.21,2.28.7,3.99-.7,5.44-9.32,9.74-18.76,19.38-28.13,29.07-10.56,10.89-21,21.88-31.67,32.65-9.29,9.38-18.82,18.52-27.82,28.29,4.67-1.66,8.15-5.07,11.55-8.3,3.69-3.51,8.06-5.48,12.52-7.49,2.46-1.11,4.56.18,6.4,1.37,2.55,1.64,4.87,3.64,7.12,5.67,1.05.95,1.68,1.75,3.34.91,6.5-3.29,13.51-1.73,20.17-1.19,7.73.63,10.11,7.78,13.09,13.61,1.89,3.69,3.09,7.72,4.86,11.47,1.44,3.05,3.28,4.14,5.58.47,13.46-21.53,28.48-42.02,42.79-62.98,10.61-15.53,22.36-30.26,32.19-46.32.71-1.16,1.43-2.54,3.02-1.44,1.3.9,1.14,2.44.35,3.59-1.6,2.34-3.42,4.54-5.1,6.83-7.04,9.55-13.05,19.8-20,29.43-4.36,6.04-9.18,11.94-12.43,18.78-4.21,5.47-8.37,10.97-11.26,17.29-3.88,3.63-7.04,7.75-9.18,12.64-1.02,1.12-2.15,2.16-3.02,3.39-6.34,8.97-12.57,17.99-18.93,26.93-2.79,3.92-3.76,3.92-5.64-.34-2.17-4.97-4.81-9.7-6.62-14.9-4.54-13.07-5.3-13.35-19.18-13.78-2.09-.07-4.17-.02-6.27-.01-1.34,0-2.53.27-3.67,1.19-7.27,5.74-15.77,9.96-21.93,17.07-4.95,5.73-12.69,7.65-17.61,13.37-4.7,5.47-9.17,11.2-14.33,16.19-4.95,4.8-7.1,11.33-12.13,16.21,17.96,2.68,31.27,10.78,39.18,27.01,4.88-4.88,8.11-10.7,11.89-16.08,5.57-7.89,10.14-16.39,13.76-25.35,2.98-7.41,5.23-15.14,10.26-21.64,1.03-1.34,1.53-3.66,3.42-2.58,1.44.82.91,3.08,0,4.68-.27.49-.39,1.09-.67,1.57-1.48,2.48-.58,3.4,2.08,3.37s5.38-.17,7.97.26c4.23.7,9.98-.34,8.66,7.46-.46,2.7,2.58,2.73,4.71,2.62,2.29-.11,3.44-2.18,2.48-3.5-2.86-3.87-1.72-5.78,2.34-7.1.45-.15.71-.86,1.04-1.34,5.26-7.64,10.83-15.1,15.64-23,2.31-3.79,5.76-7.08,6.45-11.8,4.45-3.18,7.14-7.66,9.23-12.57,4.22-5.43,9.34-10.24,11.57-17.02l.02-.02.11.02Zm-182.81,146.13c4.23,1.59,8.66,2.31,12.57.18,12.95-7.03,23.39-16.7,29.63-30.32.88-1.92,2.44-4.8-.47-5.98-5.9-2.4-11.79-4.83-18.53-4.69-7.18.15-14.35,5.09-21.61.25-.86-.57-1.64.54-2.37,1.14-10.85,8.92-20.95,18.66-31.16,28.28-.86.8-2.14,1.59-1.46,3.34,1.46,3.83-1.16,3.52-3.59,3.41-9.86-.49-18.88,2.62-27.94,6.08-7.9,3.02-15.27,7.51-23.81,8.85-6.23.97-12.01,3.39-17.65,6.06-8.07,3.83-15.21,8.84-19.2,17.35,2.95-4.07,7.43-5.75,11.71-7.72,4.16-1.91,7.97-.38,10.96,2.28,3.23,2.85,2.73,6.83,1.16,10.52-.51,1.2-1.62,2.13-2.15,3.33-2.39,5.48-8.67,7.41-11.38,12.72,6.3-3.53,12.88-6.28,19.53-8.83,7.69-2.95,15.55-5.1,23.91-3.51,5.05.96,8.09,5.23,7.16,10.27-.86,4.68-2.17,9.18-5.1,13.13-3.55,4.76-6.98,9.58-11.64,13.39,3.59-.91,6.98-1.98,10.33-3.16,6.93-2.44,12.8-5.98,16.89-12.58,4-6.46,9.45-11.31,17.23-13.85,9.52-3.11,11.89-12.77,15.79-20.67,2.58-5.23-.03-10.17-2.01-15.11-2.68-6.66-3.19-7.06-9.74-5.07-1.99.61-4.07.89-6.12,1.32-8.54,1.77-10.14,5.18-6.02,12.6.73,1.32,1.29,2.77,1.64,4.23.93,3.91-.4,6.74-4.44,7.86-4.75,1.32-9.57,2.17-15.06,2.57,2.78-3.96,6.62-3.84,10-4.64,7.43-1.77,8.42-4.15,4.2-10.54-4.64-7.04-3.12-11.33,5.05-13.44,4.56-1.18,9.52-2.18,13.44-4.09,4.77-2.32,6.1-.41,7.78,2.66,1.96,3.58,3.6,7.34,5.75,11.77.53-6.16-1.08-10.66-4.78-14.57-.91-.96-2.3-2.5-.83-3.96,1.78-1.76,2.73.45,3.58,1.35,5.33,5.71,8.7,12.29,8.6,20.33-.02,1.93-.56,3.93.25,6.04,6.62-9.22,2.94-17.65-1.03-25.9-2.05-4.25-11.09-8.41-15.08-7.26-1.34.39-2.53,2.02-3.63-.32-1.08-2.31.73-3.17,2.1-3.96,1.69-.98,3.64-.73,5.57-.45,14.58,2.23,24.87,24.83,18.01,36.85-.71,1.25-2.07,2.23-1.62,4.04,10.8-1.74,20.86-5.88,31.27-8.81,8.92-2.52,16.41-7.04,21.97-15.07,2.77-4,4.36-8.31,6.51-12.47,1.89-3.64,1.86-3.59,5.66-1.9.51.23,1.51-.15,2.05-.55,1.67-1.25,3.17-2.68,3.88-4.77,2.47-7.35,1.85-14.09-3.74-19.93-6.5-6.78-18.69-13.13-25.83-12.97,2.37,1.01,4.09,1.74,5.82,2.47,5.99,2.53,10.41,6.75,13.47,12.44.53.98,1.35,2.12.39,3.14-1.35,1.45-2.38-.19-3.41-.74-.81-.42-1.46-1.21-2.07-1.94-2.49-3.01-4.09-2.57-5.54,1.03-3.44,8.57-9.25,15.47-15.98,21.65-4.81,4.41-10.27,7.85-16.56,9.76-4.59,1.4-8.91,1.2-12.31-2.93h.01,0Zm-305.65,104.14c4.75,1.42,9.88,1.38,11.54,3.77,3.19,4.61,6.56,2.58,9.09,1.25,9.85-5.2,19.62-10.41,30.34-13.68,8.43-2.57,16.42-6.42,24.75-9.25,6.53-2.22,13.62-2.72,20.39-4.31,9.85-2.31,19.97-3.03,29.76-5.99,8.62-2.61,17.51-4.78,26.67-5.12,7.04-.26,8.36-1.7,8.57-8.6.08-2.63-.62-4.11-3.51-3.48-14.55,3.14-29.47,4.77-43.6,9.53-16.74,5.64-33.95,10.13-49.71,18.41-13.01,6.84-26.99,10.38-41.39,12.64-7.26,1.14-14.71,1.42-22.87,4.81l-.02.02h-.01Zm399.22-220.71c-9.03-5.5-11.73-5.48-18.81.66-5.75,4.99-11.57,9.84-17.89,14.08-3.35,2.25-6.12,5.05-8.66,8.2-2.49,3.09-5.52,5.7-8.5,8.37-10.69,9.63-20.77,19.84-28.42,32.51,2.55,0,4.92-.43,7.04.08,8.09,1.93,12-1.49,15.95-8.69,10.49-19.1,27.95-31.78,44.53-45.19,4.52-3.65,9.86-5.97,14.75-10.03h-.01.02Zm-205.5,146.72c-4.96.64-9.05,5.73-12.9,10.33-5.84,6.98-9.05,15.58-12.08,24.12-.4,1.14-1.67,2.58-.35,3.59,1.41,1.09,2.93-.03,4.11-.95s2.22-2.05,3.21-3.17c5.82-6.48,11.01-13.6,17.82-19.1,2.97-2.4,4.81-5.33,6.34-8.57,2.09-4.43.67-6.38-6.15-6.27h.01v.02Zm189.31-168.5c-3.45,3.04-6.98,5.57-9.8,8.71-13.03,14.52-28.83,26.41-40.19,42.51-1.24,1.75-4.31,3.42-2.39,5.38,1.67,1.7,3.14-1.83,4.96-2.56.48-.19.77-.82,1.17-1.22,5.72-5.68,11-11.54,15.29-18.62,5.23-8.63,13.62-14.94,20.32-22.54,3.41-3.87,6.94-7.63,10.64-11.65h0Zm30.51,63.13c4.84,1.54,9.64,2.96,14.68,3.05,1.06.02,2.4.22,2.52-1.43.09-1.24-.9-1.65-1.82-1.66-5.11-.03-10.2-1.92-15.38.02h0v.02Zm-85.96,27.79c-6.15-1.21-10.54.07-14.43,3.49,4.35-1.51,9.15-1.16,14.43-3.49Zm59.09-94.37c.56-.62,1.08-1.08,1.43-1.62.29-.45.21-1.17-.46-.94-.57.19-1.01.89-1.41,1.44-.09.13.19.53.45,1.13h-.01Z"/>
  <path class="cls-2" d="m123.19,186.69c.1-17.39-1.65-34.45-5.28-51.22-2.92-13.44-6.28-26.84-10.48-39.94-2.45-7.61-6.91-14.57-10.56-21.77-.8-1.58-3.25-2.9-1.52-4.84,1.49-1.67,3.81-2.69,6.23-1.88,2.78.93,5.87,1.16,7.64,4.25.99,1.74,3.06,2.84,4.25,4.51,4.86,6.86,10.18,12.65,18.52,15.97,8.65,3.43,9.39,6.94,7.88,17.04-.65,4.35-3.01,8.15-3.19,12.67-.51,12.16,3.88,23.01,8.89,33.57,6.9,14.56,14.3,28.84,12.9,45.7-.11,1.33-.15,2.65-.26,3.98-.23,2.56-3.9,5.27-2.28,6.88,3.4,3.36,6.86,7.54,11.96,8.25,7.75,1.08,14.91,4.19,22.47,5.81,2.42.53,4.89.08,7.37-.29,4.28-.64,8.66-1.77,12.26,2.12,1.18,1.28,2.87.75,4.25-.02,5.63-3.17,10.81-2.44,15.87,1.41,1.78,1.36,4.03,2.1,6.03,3.2,2.71,1.49,5.86,3.27,6.3,6.26,1.36,9.3,10.54,13.13,13.9,21.17,3.26,7.82,9.43,14.22,12.74,22.18.69,1.64,2.38,2.36,3.63,3.49,8.15,7.37,19.29,6.1,28.66,10,4.23,1.76,9.17-1.18,13.98-.1,1.69.38,3.66-1.56,3.95-4.11.3-2.63.81-5.25,1.52-7.79.41-1.44,1.4-2.95,3.32-2.36,1.96.61,1.86,2.13,1.16,3.69-1.84,4.09-.46,9.06-3.84,12.83-2.16,2.4-4.25,4.28-7.64,4.24-7.69-.09-11.28,3.82-9.96,11.38.59,3.4,1.93,6.43-1.32,9.4-1.64,1.5.77,2.63,1.72,3.26,5.56,3.73,11.49,6.55,19.03,6.58-1.88-3.4-4.14-6.2-4.08-10.34,1.48,2,2.63,3.79,4,5.39,4.06,4.72,7.27,4.23,9.77-1.25.86-1.89.11-5.24,3.34-5.2,3.01.03,4.22,2.89,5.54,5.13.85,1.45,1.44,3.09,1.92,4.7.63,2.12,1.7,3.32,4.08,2.94,1.09-.17,2.48-.47,2.55,1.25.05,1.3-1.01,1.92-2.15,2.31-4.13,1.43-7.86-.21-9.39-4.94-1.14-3.56-2.34-3.48-4.47-1.11-1.6,1.77-3.76,2.44-6.47,3.29,6.77,4.39,13.56,7.23,21.34,7.15,4.6-.05,8.21-2.55,9.72-6.52,1.65-4.33-.46-8.27-4.36-10.76-1.83-1.18-3.85-1.92-3.17-4.62.65-2.6,3.12-2.8,5.03-3.02,6.1-.69,10.53-3.06,12.72-9.29,1.45-4.16,5.6-4.41,9.18-3.9,4.08.57,8.5,1.34,9.24,6.93.74-.41,1.52-.56,1.62-.93,2.39-7.79-1.09-22.7-13.72-22.45-1.14.02-2.3-.1-3.43.01-4.78.48-8.94.86-8.79-6.31.08-3.65-6.11-6.87-11.44-6.19-5.56.72-11.48.37-16.41,3.97-1.08.78-2.57,1.58-3.51.1-.85-1.33.3-2.4,1.29-3.4,6.11-6.15,23.26-7.97,30.64-3.18,1.52.98,2.47,2.5,2.72,4.2.72,4.83,3.81,5.6,8.07,5.79,13.66.58,23.4,12.91,19.16,25.89-2.09,6.39-5.01,11.76-2.46,18.74,1.12,3.05-1.64,5.15-5.15,5.12-1.35,0-2.95.11-3.53-1.26-.77-1.8,1.12-2.13,2.16-2.7,2.16-1.17,2.97-2.29,1.66-4.93-1.14-2.3-1.72-5.19-.93-7.81,1.58-5.28-2.54-6.32-5.72-7.19-3.28-.9-6.92-.9-7.62,4.2-.49,3.64-3.37,6.18-6.16,7.89-3.43,2.1-3.25,4.48-2.45,7.59,1.3,5.04,1.72,9.94-1.53,14.65-1.72,2.49-5.17,2.47-6.7,5.65,4.56,2.73,9.16,5.02,14.58,2.41,2.02-.97,4.06-.79,6.12-.9,2.41-.13,4.44-.83,5.5-3.29,1.01-2.34,1.01-4.39-1.28-6.04-.91-.66-2.16-1.75-.99-2.71,1.68-1.4,3.28-3.44,5.86-3.06,1.51.22,2.53,1.6,1.93,2.95-1.25,2.86.69,3,2.49,3.6,4.85,1.61,9.85,2.85,14.23,5.62,1.06.67,2.02.74,3.21.4,10.49-3.01,21.02-2.92,31.8-1.5,4.68.62,9.68-.99,14.5-1.78,12.85-2.1,25.66-4.51,38.55-6.42,6.98-1.03,12.25-5.55,18.48-8.09,8.77-3.57,16.56-9.05,24.15-14.71,1.25-.93,2.24-2.1,3.9-.63,1.36,1.21,2.18,2.29,1.67,4.38-1.69,7.02-7.3,10.92-12.09,15.38-1.54,1.44-2.57,2.61-2.41,4.69.14,1.83-.55,3.76-1.88,4.56-8.05,4.83-15.13,12.6-24.71,13.14-9.15.51-17.77,2.69-26.64,4.17-6.61,1.11-12.72,3.67-18.96,5.75-8.77,2.92-17.77,4.87-26.69,7.46,11.05,1.35,22.13,2.05,33.1.69,8.86-1.1,17.39.57,26.01,1.48,4.05.42,7.18-.03,10.58-2.23,12.32-7.95,26.03-13.78,36.79-24.11,1.25-1.19,2.82-1.32,4.19-.33.15.11.71.47,1.19,1.16.17.25.36.77.73,1.82.03.08.02.24.02.42h0c-.02.86-.34,1.48-.41,1.62-.62,1.27-1.57,7-2.51,10.47-.75,2.78-2.07,5.3-5.21,7.02-4.17,10.86-14.12,15.36-23.31,20.31-6.42,3.45-13.64,4.77-20.76,1.17-2.38-1.2-4.38.06-6.55.55-15.98,3.65-31.99,7.69-48.32,8.73-14.3.91-29.2,2.97-42.98-1.75-10.73-3.68-21.24-8.49-31.29-14.3-12.71-7.33-25.85-14.22-39.99-18.64-4.69-1.46-9.65-.83-14.44-.94-3.05-.07-6-.46-8.98-.85-1.93-.25-4.03-1.85-4.81,1.6-.3,1.33-1.88,1.04-2.96,1.09-14.43.61-27.97-3.18-40.03-10.59-7.03-4.32-11.94-11.6-15.15-19.53-1.4-3.45-2.97-6.78-5.27-9.76-4.49-5.82-11.39-6.28-17.68-8.26-9.69-3.05-21.27-2.73-28.81-9.27-10.05-8.71-22.35-9.25-33.6-13.39-6.91-2.54-13.76-8.99-14.59-15.84-.42-3.5-.16-6.52,3.84-7.77.93-.29,2.31-1.12,1.73-1.78-3.24-3.67-1.81-9.23-5.67-12.71-7.4-6.67-12.16-15.43-17.76-23.5-1.93-2.78-4-5.5-6.31-7.96-5.47-5.78-8.55-12.82-11.48-20.05-3.6-8.91-7.94-17.44-13.15-25.57-7.02-10.96-13.32-22.38-20.59-33.17-6.31-9.37-14.46-17.3-22.44-25.3-5.07-5.08-9.73-10.4-12.98-16.97-2.53-5.12-7.49-8.31-11.56-12.16-2.61-2.46-5.6-4.54-8.11-7.09-3.27-3.34-2.8-4.8,1.32-6.63,8.04-3.56,14.25.32,20.43,4.75,6.29,4.51,12.89,8.46,20.68,9.81,11.12,1.93,15.29,7.63,13.35,18.71-.35,2.01-.49,3.65.99,5.26,6.52,7.08,12.42,14.65,18.13,22.39,3.13,4.25,7.16,7.63,11.21,11.07,10.41,8.83,20.41,18.14,26.54,30.74.62,1.28,1.02,2.96,3.41,3.1v-.02l-.07.02Zm409,167.92c-9.34,8.61-20.48,14.31-31.18,20.69-4.75,2.84-9.58,5.86-15.39,5.3-10.18-.98-20.24-1.28-30.52-.22-16.33,1.69-32.69-.47-48.73-3.48-4.63-.87-9.73.3-14.01-2.6-17.91-12.08-37.15-21.65-57.16-29.64-7.38-2.94-14.1-7.35-22.44-8.3-5.03-.57-10.83-3-13.39-7.64-2.32-4.22-5.2-4.6-8.69-4-7.5,1.27-14.11,4.38-18.55,10.98-3.02,4.48-2.29,9.14,1.97,12.35,1.06.8,2.15,1.57,3.26,2.3s2.61,1.48,2.04,3c-.73,1.92-2.63,1.22-3.96.85-4.95-1.41-8.92-4.14-10.88-9.14-2.01-5.16-3.35-10.29-2.65-16.06.8-6.59-3.93-10.56-10.2-9.35-5.09.97-8.41-.86-10.21-5.7-1.38-3.72-2.69-7.46-4.05-11.17-.74-2.02-.8-4.11-.42-6.16.22-1.16.96-2.13,2.37-1.93,1.22.17,1.17,1.27,1.34,2.18.73,3.72,1.56,7.42,2.23,11.16,1.34,7.49,3.88,9.39,11.13,7.39,5.04-1.4,7.72,1.06,9.38,5.04,1.56,3.73,3.02,7.62,1.89,11.78,1.44.26,1.78-.56,2.15-1.12,5.18-7.91,12.58-11.56,21.93-11.69,1.85-.02,3.71-.7,5.56-.98,1.49-.23,2.89-1.45,3.01-2.34.57-4.65.82-9.35.9-14.06.02-1.32-1.67-1.28-2.76-1.54-4.6-1.09-9.19-2.15-13.96-2.16-1.89,0-4.23.49-5.39-1.19-4.11-5.97-10.4-6.86-16.75-7.81-1.75-.26-4.38.48-4.55-2.21-.15-2.41,2.36-2.38,4.05-3.09,1.62-.67,5.02-.78,2.9-3.89-5.33-7.85-9.08-16.66-14.44-24.39-9.98-14.38-28.77-14.56-45.06-9-3.66,1.25-6.93,3.33-11.26,1.51-3.01-1.27-6.58,1.56-5.68,3.87,3.88,10.04,5.56,22.19,20.69,22.27-4.62,3.24-9.98,2.95-13.45-1.24-5.19-6.27-9.16-13.29-10.57-22.26-11.23,7.02-14.07,20.48-23.17,28.89,1.66-10.34,5.87-19.45,12.18-27.62,4-5.18,8.57-9.58,15.31-11.15,1.45-.33,3.59.58,4.72-1.29-1.84-1.99-3.89,1.86-5.26-.72-1.99-3.77-5.5-3.23-8.9-3.6-4.28-.48-8.26,1.1-12.43,1.17-8.25.15-11.92,4.06-11.06,12.08.54,4.99.46,9.02-5.8,10.24-1.86.35-3.33,2.47-5.12,3.52-3.59,2.12-4,3.97-.42,6.75,3.55,2.74,2.89,5.87-1.13,7.62-7.18,3.12-7.63,5.88-1.6,11.14,1.41,1.22,3.2,2,4.86,2.92,11.96,6.61,26.66,6.22,37.9,14.8,1.25.95,3.2,1.05,4.86,1.4,15.03,3.1,29.68,7.48,44.13,12.57,4.43,1.56,5.15,3.67,2.21,7.4-.97,1.24-1.37,2.04-.59,3.45,3.17,5.83,6.79,11.29,11.45,16.09,11.63,12.02,27.56,12.97,42.75,17.62-.86-2.5-4.11-3.27-2.4-5.42,1.11-1.41,3.21-.33,4.78.21,5.5,1.91,11.17,2.07,16.89,1.7,3.63-.23,7.25-.25,10.81.49,15.37,3.21,28.44,11.89,42.45,18.28,6.27,2.86,11.71,7.64,18.16,10.5,9.76,4.32,19.11,8.67,30.57,8.14,25.67-1.18,50.63-6.12,75.55-11.69,1.72-.39,3.44-.83,5,0,5.26,2.79,12.88,3.34,17.39.09,5.76-4.14,14.1-5.72,15.59-14.54.08-.45.72-.89,1.2-1.18,5.79-3.49,10.29-7.73,8.65-16.16v.02l-.03-.03Zm-366.02-124.92c-1.28-2.17-3.02-3.06-4.62-4-9.79-5.74-19.4-11.75-27.9-19.3-6.08-5.4-11.63-11.13-16.05-18.23-8.31-13.36-18.02-25.71-31.21-34.84-1.69-1.18-3.63-2.54-4.48-4.29-3.87-7.91-10.75-13.31-16.07-19.99-3.58-4.51-10.02-6.21-12.27-11.5-3.99-9.39-12.9-11.01-20.67-14.58-.95-.43-2.41-.65-3.24.27-1.04,1.16-.53,2.64.31,3.65,2.15,2.63,4.43,5.17,6.76,7.64,9.9,10.45,20.08,20.7,28.6,32.33,5.78,7.89,10.84,16.3,16.09,24.57,7.1,11.2,14.35,22.29,18.96,34.88,2.14,5.83,4.36,11.92,8.68,16.43,4.48,4.69,8.68,9.48,12.32,14.87,3.16,4.68,5.75,9.7,9.71,13.93,5.88,6.31,5.5,6.39,13.14,2.04,3.57-2.04,5.46-4.12,4.32-8.52-.85-3.28.65-6.12,2.97-8.77,3.84-4.4,9.48-4.33,14.64-6.59h0Zm360.06,97.25c-3.31.3-4.65,2.09-6.4,3.16-9.72,5.91-19.83,11.52-31.03,13.36-8.57,1.42-17.22,2.37-25.82,3.9-7.35,1.32-14.97,2.48-22.36,2.04-8.92-.54-17.73-1.37-26.59.32-2.57.49-5.81,1.65-7.72.62-6.6-3.58-14.51-2.29-21.16-7.15.19,3.98.9,7.23-1.98,9.71-2.78,2.4-6.52.75-9.8,2.21,10.2,7.81,12.26,8.53,25.02,10.67,14.92,2.5,29.71,2.96,44.28-1.99,8.6-2.92,17.09-6.24,25.85-8.57,7.62-2.02,15.29-5.74,23.18-4.65,11.95,1.65,19.68-5.65,28.43-11.15-2.34,0-4.24,1.1-6.06,2.41-1.46,1.05-3.43,1.96-4.56.29-1.64-2.42,1.04-3.03,2.48-4.07,4.67-3.39,10.49-5.27,14.24-11.09h0v-.02ZM111.96,96.02c5.78,13.01,6.53,25.79,10.49,37.83,3.77,11.5,4.94,23.81,4.4,35.93-.33,7.66.9,15.11,1.12,22.66.06,2.15.38,4.8,2.39,6.2,5.46,3.79,9.69,9.15,15.63,12.2,2.17,1.12,3.95,4.12,6.24,3.43,3.5-1.05-.95-4.33.88-6.3.11-.13.18-.35.17-.54-.09-8.85.09-17.51-2.8-26.3-3.79-11.52-9.92-22.04-13.28-33.65-2.6-8.94-7.48-17.53-4.54-27.41.29-.95.05-1.96-.71-2.63-3.9-3.44-6.06-8.12-9.03-12.23-2.46-3.39-5.25-6.92-10.97-9.19h0Zm-12.56-26.06c3.29,7.18,8.11,12.21,9.63,18.97.49,2.21,2.07,3.39,4.33,4,7.34,1.99,12.74,6.38,15.9,13.41.7,1.56,1.59,3.02,2.44,4.49,1.4,2.41,2.49,2.54,3.71-.27,2.72-6.3.17-12.8-6.36-15.13-6.78-2.42-12.17-5.98-16.02-12.6-2.88-4.96-6.61-10.12-13.62-12.87h0Zm-88.62,13.95c4.16,6.26,10.89,8.91,15.27,14.11.64.75,1.74.96,2.64.58,4.36-1.82,8.09.54,11.91,1.82,6.95,2.33,13.03,6.1,17.58,13.54.54-10.21-.8-12.43-9.92-14.32-8.01-1.66-14.71-5.19-20.99-10.29-4.44-3.6-9.25-7.41-16.48-5.43h-.01Zm223.56,155.01c-1.38-2.73-3.01-2.97-4.28-3.72-5.39-3.14-10.67-5.95-16.5-.51-1.74,1.61-4.28,1.16-6.15-.79-2.97-3.09-6.47-3.8-10.35-1.9-1.66.81-5.28,1.02-3.72,3.56,1.24,2.01,1.92,6.39,7.01,4.52,10.77-3.97,21.9-5.95,34-1.14h0v-.02Zm-47.47-8.29c-5.4-.24-9.78-4.28-15.34-3.92,4.44,3.85,10.03,3.34,15.34,3.92Z"/>
  <path class="cls-2" d="m765.74,355.01c6.21-1.93,13.95,3.06,14.5,9.42.25,2.93-1.12,5.57-3.45,6.76-3.61,1.84-8.95,2.12-4.39,8.15.08.11.01.51-.05.53-4.53,1.1-3.14,6.74-6.71,8.67-2.23,1.21-4.01,2.82-2.57,5.94.91,1.98-.59,2.76-2.28,2.94-1.85.21-3.72.24-6.69.41,4.07-4.17,4.2-10.05,9.68-11.91,1.68-.57.93-1.4.66-2.56-.87-3.76-2.46-7.12-4.65-10.26-1.4-2-2.14-4.39.05-6.13,2.53-2.01,3.53.51,4.63,2.21,2.13,3.27,4.72,1.75,6.92.38,2.46-1.54,3.47-3.81,1.76-6.75-1.88-3.26-5.6-4.43-7.82-7.27.14-.18.27-.35.41-.54h.01,0Z"/>
  <path class="cls-2" d="m806.71,382.75c4.35,3.69,5.92,7.71,3.89,12.76-1.46,3.63-3.03,7.2-4.56,10.81-.3.69-.5,1.44-.91,2.05-1.67,2.41-4.13,3.91-6.72,5.07-8.61,3.82-15.97,11.77-26.83,8.37-1.06-.33-2.16-.67-3.11-1.25-1.26-.75-2.95-1.65-2.33-3.39.85-2.38,2.6-.75,3.77-.25,3.31,1.41,6.72,1.04,10.11.96,1.08-.02,2.66-.26,3.13-.98,3.58-5.57,9.17-7.27,15.15-8.5,1.19-.24,2.32-1.41,2.7-2.76,1.82-6.56,8.29-11.83,5.49-19.7-.29-.79.11-1.82.24-3.19h-.02Z"/>
  <path class="cls-2" d="m757.94,422.99c-7.07.1-13.52-5.75-14-12.66-.03-.55.05-1.53-.15-1.59-5.82-1.74-4.38-8.77-8.62-11.72-2.84-1.98-1.59-5.65-2.77-8.37-.1-.24.47-1.03.87-1.18,1.17-.43,1.68.58,2.21,1.33,2.08,2.9,4.38,6.08,5.47,9.09,1.27,3.51,3.36,5.76,5.58,8.26.5.57,1.6,1.28,1.49,1.62-2.13,6.55,4.8,6.67,7.08,10.04,1.18,1.74,3.03,1.48,4.65.85,2.36-.91,5.21-1.4,5.57,1.5.38,3.11-2.89,2.73-5.12,2.84-.77.03-1.52,0-2.29,0h.03,0Z"/>
  <path class="cls-2" d="m333.84,302.18c1.44,1.18,2.09,1.83,2.86,2.32,1.42.91,2.92,2.15,4.61.61,1.5-1.37,1.27-3.09.41-4.7-1.17-2.2-2.08-4.51.97-5.66,3.17-1.19,4.92.38,5.5,3.69,1.31,7.31,5.16,8.96,11.55,4.94.93-.58,1.72-1.57,3.02-1.36-.26,5.83-8.68,11.92-14.1,9.64-3.43-1.43-6.64-3.01-10.4-3.67-1.93-.34-4.2-1.84-4.41-5.82h-.01,0Z"/>
  <path class="cls-2" d="m785.69,354.75c11.08-2.14,22.08,6.71,22.36,17.9.05,1.82,1.33,2.57,1.93,3.88.58,1.25.58,2.8-.63,3.64-1.51,1.04-2.15-.23-3.01-1.41-2.09-2.85-3.33-5.49-3.98-9.37-.9-5.41-5.25-10.3-11.6-11.85-1.78-.43-3.9-.19-5.07-2.79h-.01.01Z"/>
  <path class="cls-2" d="m726.41,363.37c.32-.17.62-.38.9-.59,2.95-.29,4.71.45,4.24,4.01-.43,3.37-1.11,6.37-5.1,6.92-1.9.26-3.18-.91-4.06-2.49-.85-1.52-.5-2.84.69-4.07,1.17-1.2,2.22-2.52,3.33-3.77h0Z"/>
  <path class="cls-2" d="m373.99,325.33c-2.48.19-4.61-.96-4.23-3.72.41-3.02,3.69-5.36,5.82-5.2,2.53.19,2.39,4.49,3.36,6.78.96,2.26-2.89,1.64-4.95,2.14h0Z"/>
  <path class="cls-2" d="m748.52,382.83c-2.07.16-3.03-.51-2.74-1.89.35-1.73-2.42-3.5.09-5.05.61-.38,1.53-.24,2.17-.58,1.66-.89,2.26-4,5-2.55,1.5.8,1.12,2.17.42,3.47-1.42,2.61-2.61,5.39-4.94,6.61h0Z"/>
  <path class="cls-2" d="m737.23,374.49c.23,1.46-.71,1.73-1.66,1.83-1.26.13-2.48-.45-3.81.32-1.16.66-3.19,3.13-3.76.54-.45-2,2.33-4.04,4.57-4.78,1.85-.62,3.59.47,4.64,2.09h.02Z"/>
  <path class="cls-2" d="m765.33,355.55c-.45.33-.85.73-1.34.99-1.37.73-2.76,2.36-4.33.77-.8-.8-.37-2.21.33-3.09,1.36-1.72,3.02-2.06,4.77-.51.4.35.65.87.98,1.3-.14.18-.27.35-.41.54h0Z"/>
  <path class="cls-2" d="m729.55,386.36c-2.4-1.34-3.57-2.4-3.48-4.27.02-.32.82-.94,1.12-.86,2.36.64,1.82,2.68,2.36,5.11h0v.02Z"/>
  <path class="cls-2" d="m233.54,284.77c2.45,1.34,4.28-.49,6.28-.46,1.34.02,2.64.65,2.98,2.15.27,1.2-.78,1.73-1.65,1.94-7.25,1.77-7.64,8.58-10.16,13.79-.4.82-.34,1.85-.59,2.76-.45,1.56-.54,4.11-2.63,3.58-1.76-.43-1.32-2.82-.75-4.43,1.76-4.97,3.18-10.1,6.9-14.96-5.48.34-7.41,4.38-9.79,7.31-2.53,3.11-2.88,7.61-5.8,11.28-2-3.6-1.59-7.04-.07-9.6,3.77-6.29,7.67-12.63,13.61-17.26,1.04-.81,2.18-1.54,3.39-2.04,1.8-.73,4.31-1.27,5.09.65,1.17,2.86-1.68,2.54-3.42,2.95-1.26.3-2.55.67-3.4,2.33h.01Z"/>
  <path class="cls-2" d="m97.6,69.38c2.2-2.71,3.83.14,5.72.57"/>
  <path class="cls-2" d="m155.36,208.33c-1.97,1.3-1.8,2.87-.57,4.57"/>
  <path class="cls-2" d="m27.27,104.26c1.51,4.63,4.94,7.9,8.01,11.44"/>
  <path class="cls-2" d="m55.86,138.57c1.46,1.76,3.8,2.77,4.57,5.15"/>
  <path class="cls-2" d="m77.59,170.59c.38.57.77,1.14,1.14,1.72"/>
  <path class="cls-2" d="m792.36,290.67c-.57.38-1.14.77-1.72,1.14"/>
  <path class="cls-2" d="m787.79,270.09c-.57-.38-1.14-.77-1.72-1.14"/>
  <path class="cls-2" d="m988.5,125.42c-.72-2.44-2.49-3.92-4.57-5.15"/>
  <path class="cls-2" d="m1008.51,171.16c-1.33,2.57,0,4.7,1.14,6.86"/>
  <path class="cls-2" d="m1096.57,258.65c1.34,1.19,2.66.47,4,0"/>
  <path class="cls-2" d="m1040.53,172.88c-1.25-2.71-3.32-5.01-4-8.01"/>
  <path class="cls-2" d="m695.15,321.55c-1.64,2.02-4.25,1.36-6.29,2.29"/>
  <path class="cls-2" d="m950.76,126.56c-.81.5-1.08,1.74-2.29,1.72"/>
  <path class="cls-2" d="m1041.67,150.01c-.38.57-.77,1.14-1.14,1.72"/>
  <path class="cls-1" d="m830.1,279.24c2.41-3.95,6.8-3,10.32-3.89,8.35-2.13,9.35-4.01,5.12-11.55-4.57-8.15-4.08-8.87,5.1-12.69,3.58-1.49,7.49-1.74,10.88-3.4,4.89-2.39,6.87-.06,8.69,4.05,1.69,3.82,2.4,8.09,5.08,11.47"/>
  <path class="cls-3" d="m739.75,401.61c.38.95.77,1.91,1.14,2.86"/>
  <path class="cls-3" d="m744.9,406.75c.5.81,1.74,1.08,1.72,2.29"/>
  <path class="cls-3" d="m747.76,415.33c.57.38,1.14.77,1.72,1.14"/>
  <path class="cls-2" d="m1108.58,222.63c-1.45,1.77-2.07,4.3-4.57,5.15"/>
  <path class="cls-2" d="m1078.27,225.49c-.77.57-1.52,1.14-2.29,1.72"/>
  <path class="cls-2" d="m1109.15,41.36c-3.05,4.2-6.1,8.38-9.15,12.58"/>
  <path class="cls-2" d="m1090.85,68.81c-2.29,2.66-4.57,5.34-6.86,8.01"/>
  <path class="cls-2" d="m1042.82,137.43c-.38.57-.77,1.14-1.14,1.72"/>
  <path class="cls-2" d="m1035.96,147.72c-.69,1.02-2.13,1.43-2.29,2.86"/>
  <path class="cls-2" d="m1003.36,151.15l-1.72,5.15"/>
  <path class="cls-2" d="m599.09,354.15c.57-3.2-.38-5.2-4-5.15"/>
  <path class="cls-2" d="m938.18,207.19c-2.57,7.54-7.3,13.77-12.01,20.01"/>
  <path class="cls-2" d="m918.73,234.06c-3.96,4.31-9.42,6.54-14.44,8.82-3.16,1.43-8.26,1.54-11.29-2.53"/>
  <path class="cls-2" d="m438.98,347.86c-.57-.38-1.14-.77-1.72-1.14"/>
  <path class="cls-2" d="m405.81,349c-2.22-.42-3.5-3.43-6.29-2.29"/>
  <path class="cls-2" d="m386.37,342.14c-.57-.38-1.14-.77-1.72-1.14"/>
  <path class="cls-2" d="m807.23,383.31c.77,2.09,1.52,4.2,2.29,6.29"/>
  <path class="cls-2" d="m383.51,346.14c.05-1.54-.23-3.12.57-4.57"/>
  <path class="cls-2" d="m925.02,187.75c-.38.57-.77,1.14-1.14,1.72"/>
  <path class="cls-2" d="m78.73,140.86c.69,1.02,2.13,1.43,2.29,2.86"/>
  <path class="cls-2" d="m184.52,250.65c.46,7.7,4.46,13.88,8.58,20.01"/>
  <path class="cls-2" d="m193.67,271.23c3.48,4.63,8.18,4.56,13.15,3.43"/>
  <path class="cls-2" d="m627.68,361.58c-1.16,2.88-3.76-.74-5.15,1.14"/>
  <path class="cls-2" d="m569.35,370.73l1.72-1.72"/>
  <path class="cls-2" d="m116.47,96.26c-1.53-1.81-3.63-1.76-5.72-1.72"/>
  <path class="cls-2" d="m947.9,239.21c-1.76,1.27-.73,3.79-2.29,5.15"/>
  <path class="cls-2" d="m1102.29,220.34c-3.63-.95-7.24-1.91-10.86-2.86"/>
  <path class="cls-2" d="m145.06,212.91c-.57-.38-1.14-.77-1.72-1.14"/>
  <path class="cls-2" d="m125.62,168.3c-.38-.57-.77-1.14-1.14-1.72"/>
  <path class="cls-2" d="m107.32,89.39c-.38-.57-.77-1.14-1.14-1.72"/>
  <path class="cls-2" d="m100.46,75.67c-.38-.57-.77-1.14-1.14-1.72"/>
  <path class="cls-2" d="m798.08,359.29c-1.61-2.02-4.24-2.21-6.29-3.43"/>
  <path class="cls-2" d="m931.89,137.43c-3.85,4.35-9.21,7.39-11.44,13.15"/>
  <path class="cls-2" d="m241.13,308.97c.77,1.72,1.52,3.43,2.29,5.15"/>
  <path class="cls-2" d="m243.42,314.69c3.12,5.4,7.62,3.57,12.01,2.29"/>
  <path class="cls-2" d="m235.41,288.39c-3.39,6.59-6.1,13.43-8.01,20.59"/>
  <path class="cls-2" d="m262.86,324.98c2.07,1.72,1.43,3.97.48,5.66-1.26,2.25.69,3.14,1.24,4.63"/>
  <path class="cls-2" d="m769.49,372.44c.86-1.69,2.8-.85,4-1.72"/>
  <path class="cls-2" d="m767.2,355.86c-2.6-1.48-5.02-1.93-6.86,1.14"/>
  <path class="cls-2" d="m345.2,335.28c1.75,1.64,3.01-.72,4.57-.57"/>
  <path class="cls-2" d="m362.93,302.68c-2.4,2.44-4.92,4.72-8.01,6.29"/>
  <path class="cls-2" d="m104.49,75.04c-1.34-.77-2.66-1.52-4-2.29"/>
  <path class="cls-2" d="m511.03,347.86c-.57.38-1.14.77-1.72,1.14"/>
  <path class="cls-2" d="m91.91,71.61c-.57.38-1.14.77-1.72,1.14"/>
  <path class="cls-2" d="m719.74,350.71l-1.72,3.43"/>
  <path class="cls-2" d="m333.76,303.25c3.18,2.86,6.28,6.1,10.86,2.29"/>
  <path class="cls-2" d="m719.17,361.58c2.64,2.25,7.41-2.3,9.15,2.86"/>
  <path class="cls-2" d="m882.71,241.5c.38.57.77,1.14,1.14,1.72"/>
  <path class="cls-2" d="m318.9,321.55c1.24,3.14,2.69,6.06,5.07,8.66,2.79,3.04,5.25,2.74,8.09.49"/>
  <path class="cls-2" d="m234.27,287.24c-.97-1.19-2.3-.29-3.43-.57"/>
  <path class="cls-2" d="m730.61,375.3l-1.72,1.72"/>
  <path class="cls-2" d="m194.24,239.21c-1.14-.95-2.29-1.91-3.43-2.86"/>
  <path class="cls-2" d="m376.65,316.41c-1.74,1.03-1.72,3.17-2.86,4.57"/>
  <path class="cls-2" d="m766.06,383.31c2.17,3.48-.71,3.8-2.86,4.57"/>
</svg>