<?xml version="1.0" encoding="UTF-8"?>
<svg id="Layer_1" data-name="Layer 1" xmlns="http://www.w3.org/2000/svg" viewBox="0 0 93.2 25.49">
  <defs>
    <style>
      .cls-1 {
        fill: #fff;
      }

      .cls-2 {
        fill: #d2232a;
      }

      .cls-3, .cls-4 {
        fill: #231f20;
      }

      .cls-4 {
        font-family: Neue-Regular, Neue;
        font-size: 6px;
      }
    </style>
  </defs>
  <polygon class="cls-2" points="3.89 11.16 0 11.16 0 14.33 3.89 14.33 3.89 11.16 3.89 11.16"/>
  <polygon class="cls-3" points="0 0 0 25.49 33.38 25.49 33.38 0 0 0 0 0"/>
  <rect class="cls-1" x="3.92" y="18.75" width="25.53" height=".88"/>
  <rect class="cls-1" x="3.92" y="20.7" width="25.53" height=".88"/>
  <polygon class="cls-1" points="5.04 4.78 5.04 7.8 4.06 7.8 4.06 4.78 2.85 4.78 2.85 3.91 6.25 3.91 6.25 4.78 5.04 4.78 5.04 4.78"/>
  <polygon class="cls-1" points="10.21 6.31 7.66 6.31 7.66 7.8 6.69 7.8 6.69 3.91 7.66 3.91 7.66 5.39 10.21 5.39 10.21 3.91 11.18 3.91 11.18 7.8 10.21 7.8 10.21 6.31 10.21 6.31"/>
  <polygon class="cls-1" points="11.78 7.8 11.78 3.91 14.55 3.91 14.55 4.78 12.76 4.78 12.76 5.44 14.21 5.44 14.21 6.26 12.76 6.26 12.76 6.92 14.55 6.92 14.55 7.8 11.78 7.8 11.78 7.8"/>
  <polygon class="cls-1" points="5.03 10.25 4.88 10.25 4.88 12.74 3.91 12.74 3.91 8.85 5.05 8.85 7.31 11.28 7.46 11.28 7.46 8.85 8.43 8.85 8.43 12.74 7.33 12.74 5.03 10.25 5.03 10.25"/>
  <polygon class="cls-1" points="9.03 12.74 9.03 8.85 11.8 8.85 11.8 9.73 10 9.73 10 10.38 11.46 10.38 11.46 11.21 10 11.21 10 11.87 11.8 11.87 11.8 12.74 9.03 12.74 9.03 12.74"/>
  <polygon class="cls-1" points="12.04 8.85 13.12 8.85 13.96 11.95 14.19 11.95 14.96 8.85 16.78 8.85 17.66 11.95 17.89 11.95 18.62 8.85 19.72 8.85 18.65 12.74 16.92 12.74 16.03 9.65 15.75 9.65 14.94 12.74 13.21 12.74 12.04 8.85 12.04 8.85"/>
  <path class="cls-1" d="m3.69,14.99c0-.82.66-1.26,1.5-1.26.46,0,.92.1,1.34.3l-.18.83c-.36-.19-.77-.3-1.19-.3-.3,0-.51.12-.51.32,0,.63,1.99.28,1.99,1.58,0,.69-.5,1.31-1.53,1.31-.46.01-.92-.07-1.35-.25l.04-.89c.42.2.87.31,1.34.31.43,0,.53-.15.53-.33,0-.58-1.99-.24-1.99-1.62h0Z"/>
  <path class="cls-1" d="m10.02,17.64c-.33.11-.67.15-1.01.13-1.12,0-2.02-.9-2.03-2.01,0-1.12.9-2.02,2.01-2.03.03,0,.07,0,.1,0,.33-.01.67.02.99.11l-.09.88c-.28-.09-.57-.14-.87-.13-.57-.06-1.09.36-1.14.94,0,.07,0,.14,0,.2-.04.59.41,1.1,1.01,1.14.05,0,.11,0,.16,0,.3.01.59-.04.87-.14v.9Z"/>
  <polygon class="cls-1" points="14.14 16.21 11.59 16.21 11.59 17.69 10.62 17.69 10.62 13.8 11.59 13.8 11.59 15.28 14.14 15.28 14.14 13.8 15.12 13.8 15.12 17.69 14.14 17.69 14.14 16.21 14.14 16.21"/>
  <path class="cls-1" d="m17.82,13.72c1.34,0,2.3.69,2.3,2s-1.04,2.04-2.3,2.04-2.31-.68-2.31-2.04c0-1.27.95-2.01,2.32-2.01h0Zm-.01,3.23c.76,0,1.31-.39,1.31-1.24,0-.78-.55-1.17-1.31-1.17s-1.31.38-1.31,1.2.55,1.21,1.3,1.21h0Z"/>
  <path class="cls-1" d="m22.76,13.72c1.34,0,2.3.69,2.3,2s-1.04,2.04-2.3,2.04-2.31-.68-2.31-2.04c0-1.27.95-2.01,2.32-2.01h0Zm-.01,3.23c.76,0,1.31-.39,1.31-1.24,0-.78-.55-1.17-1.31-1.17s-1.31.38-1.31,1.2.55,1.21,1.3,1.21h0Z"/>
  <polygon class="cls-1" points="25.48 13.8 26.45 13.8 26.45 16.77 29.46 16.77 29.46 17.69 25.48 17.69 25.48 13.8 25.48 13.8"/>
  <text class="cls-4" transform="translate(36.91 7.95)"><tspan x="0" y="0">C</tspan></text>
  <text class="cls-4" transform="translate(41.12 7.95)"><tspan x="0" y="0">enter for </tspan></text>
  <text class="cls-4" transform="translate(36.91 15.15)"><tspan x="0" y="0">Human Language</tspan></text>
  <text class="cls-4" transform="translate(36.91 22.35)"><tspan x="0" y="0">&amp; Development</tspan></text>
</svg>