<?xml version="1.0" encoding="utf-8"?>
<!-- Generator: Adobe Illustrator 27.7.0, SVG Export Plug-In . SVG Version: 6.00 Build 0)  -->
<svg version="1.1" id="Layer_1" xmlns="http://www.w3.org/2000/svg" xmlns:xlink="http://www.w3.org/1999/xlink" x="0px" y="0px"
	 viewBox="0 0 248 43.3" style="enable-background:new 0 0 248 43.3;" xml:space="preserve">
<style type="text/css">
	.st0{fill:#FFFFFF;}
</style>
<path class="st0" d="M4,37.3v-3h244v3H4z M4,43.3v-3h244v3H4z M7,3.2v10.1H4V3.2H0V0.3h11v2.9H7z M25,8.3h-9v5h-3v-13h3v5h9v-5h3v13
	h-3V8.3z M30,13.3v-13h9v3h-6v2h5v3h-5v2h6v3H30z M48.8,5H48v8.3h-3v-13h3.8l7.6,8.1H57V0.3h3v13h-3.5C56.5,13.3,48.8,5,48.8,5z
	 M62,13.3v-13h9v3h-6v2h5v3h-5v2h6v3H62z M72.2,0.3h3.6l2.8,10.3h0.8L82,0.3h6.1L91,10.6h0.8l2.4-10.3h3.7l-3.6,13h-5.8l-3-10.4
	h-0.9l-2.7,10.3h-5.8C76.1,13.2,72.2,0.3,72.2,0.3z M102.6,4.3c0-2.7,2.2-4.2,5-4.2c1.5,0,3.1,0.3,4.5,1l-0.6,2.8
	c-1.2-0.7-2.6-1-4-1c-1,0-1.7,0.4-1.7,1.1c0,2.1,6.7,0.9,6.7,5.3c0,2.3-1.7,4.4-5.1,4.4c-1.5,0-3.1-0.2-4.5-0.8l0.1-3
	c1.4,0.7,2.9,1,4.5,1c1.4,0,1.8-0.5,1.8-1.1C109.3,7.7,102.6,8.8,102.6,4.3z M123.8,13.1c-1.1,0.4-2.2,0.5-3.4,0.4
	c-3.7,0-6.8-3-6.8-6.7s3-6.8,6.7-6.8h0.4c1.1,0,2.2,0.1,3.3,0.4l-0.3,3c-0.9-0.3-1.9-0.5-2.9-0.4c-1.9-0.2-3.6,1.2-3.8,3.1v0.7
	c-0.1,2,1.4,3.7,3.4,3.8h0.5c1,0,2-0.1,2.9-0.5C123.8,10.1,123.8,13.1,123.8,13.1z M138,8.3h-9v5h-3v-13h3v5h9v-5h3v13h-3V8.3z
	 M149.8,0c4.5,0,7.7,2.3,7.7,6.7s-3.5,6.8-7.7,6.8s-7.7-2.3-7.7-6.8C142.1,2.5,145.3,0,149.8,0z M149.8,10.8c2.5,0,4.4-1.3,4.4-4.2
	c0-2.6-1.8-3.9-4.4-3.9s-4.4,1.3-4.4,4C145.4,9.5,147.3,10.8,149.8,10.8L149.8,10.8z M166.3,0c4.5,0,7.7,2.3,7.7,6.7
	s-3.5,6.8-7.7,6.8s-7.7-2.3-7.7-6.8C158.6,2.5,161.8,0,166.3,0z M166.3,10.8c2.6,0,4.4-1.3,4.4-4.2c0-2.6-1.8-3.9-4.4-3.9
	s-4.4,1.3-4.4,4C161.9,9.5,163.8,10.8,166.3,10.8L166.3,10.8z M176,0.3h3v10h10v3h-13V0.3z"/>
<path class="st0" d="M7,25.3v5H4v-13h14v3H7v2h10v3H7z M25.4,16.9c3.9,0,6.7,2.3,6.7,6.8s-3.1,6.9-6.7,6.9s-6.7-2.3-6.7-6.9
	C18.7,19.4,21.4,16.9,25.4,16.9z M25.4,27.8c1.9,0,3.4-1.3,3.4-4.2c0-2.6-1.4-3.9-3.3-3.9s-3.5,1.2-3.5,4S23.5,27.8,25.4,27.8z
	 M34,17.3h8c2.3-0.3,4.3,1.3,4.6,3.6v0.7c0,1.7-0.9,3.2-2.3,4.1l2.3,4.6H43l-1.8-4H37v4h-3C34,30.3,34,17.3,34,17.3z M37,20.3v3h4.4
	c0.8,0.2,1.6-0.2,1.8-1c0.1-0.2,0.1-0.4,0.1-0.6c0-0.7-0.4-1.6-1.9-1.4C41.4,20.3,37,20.3,37,20.3z M52.2,21.2c0-2.8,3-4.3,7.2-4.3
	c2.8,0,5.6,0.4,6.6,1l-0.6,2.8c-1.1-0.7-3.9-1-6.1-1c-2.8,0-3.8,0.4-3.8,1.1c0,2.4,11,0.1,11,5.3c0,2.3-2.3,4.4-7.3,4.4
	c-2.3,0-5.3-0.2-6.7-0.8l0.1-3c2.1,0.8,4.4,1.1,6.6,1c2.9,0,3.9-0.5,3.9-1.1C63.2,24.4,52.2,26.6,52.2,21.2
	C52.2,21.2,52.2,21.2,52.2,21.2z M74.2,16.9c3.9,0,6.7,2.3,6.7,6.8s-3.1,6.9-6.7,6.9s-6.7-2.3-6.7-6.9
	C67.5,19.4,70.3,16.9,74.2,16.9z M74.2,27.8c1.9,0,3.4-1.3,3.4-4.2c0-2.6-1.4-3.9-3.3-3.9S71,21,71,23.7
	C70.9,26.5,72.3,27.8,74.2,27.8z M94.5,30c-1.4,0.4-2.9,0.6-4.4,0.6c-5.2,0-8.1-3-8.1-6.8s3-6.8,8.4-6.8c1.4,0,2.9,0.1,4.3,0.4
	l-0.3,2.9c-1.3-0.3-2.7-0.5-4-0.5c-3.4,0-5,1.5-5,3.9s1.8,3.9,4.9,3.9c1.4,0,2.8-0.2,4.2-0.6V30z M96,17.3h3v13h-3V17.3z
	 M113.5,27.6h-8.2l-1.2,2.7h-3.5l6.4-13h5l6.2,13h-3.6C114.6,30.3,113.5,27.6,113.5,27.6z M106.5,25h5.7l-2.3-5.1h-1
	C108.9,19.9,106.5,25,106.5,25z M119,17.3h3v10h9v3h-12V17.3z M137,17.3h7.8c3.2,0,4.6,2,4.6,4.4c0,1.7-0.9,3.2-2.3,4.1l2.3,4.6
	h-3.7l-1.8-4H140v4h-3L137,17.3L137,17.3z M140,20.3v3h4.2c0.8,0.2,1.6-0.2,1.8-1c0.1-0.2,0.1-0.4,0.1-0.6c0-0.7-0.4-1.6-1.9-1.4
	H140L140,20.3z M151,30.3v-13h10v3h-7v2h6v3h-6v2h7v3H151z M161.7,21.2c0-2.8,3-4.3,7.2-4.3c2.8,0,5.6,0.4,6.6,1l-0.6,2.8
	c-1.1-0.7-3.9-1-6.1-1c-2.8,0-3.8,0.4-3.8,1.1c0,2.4,11,0.1,11,5.3c0,2.3-2.3,4.4-7.3,4.4c-2.3,0-5.3-0.2-6.7-0.8l0.1-3
	c2.1,0.8,4.4,1.1,6.6,1c2.9,0,3.9-0.5,3.9-1.1C172.7,24.4,161.7,26.6,161.7,21.2z M178,30.3v-13h11v3h-8v2h7v3h-7v2h8v3H178z
	 M202.7,27.3h-8.2l-1.2,3h-3.5l6.4-13h5l6.2,13h-3.6L202.7,27.3L202.7,27.3z M195.7,24.8h5.7l-2.3-4.9h-1L195.7,24.8z M209,17.3h5.9
	c3.1,0,4.4,2,4.4,4.4c0.1,1.7-0.8,3.3-2.3,4.1l2.3,4.6h-3.7l-1.8-4H212v4h-3L209,17.3L209,17.3z M212,20.3v3.6h2.1
	c1.3,0,1.8-1.4,1.8-2.2c-0.2-0.9-0.9-1.5-1.8-1.4H212z M233,30c-1.4,0.5-2.8,0.7-4.2,0.6c-5.2,0-8.1-3-8.1-6.8s3-6.8,8.4-6.8
	c1.4,0,2.9,0.1,4.3,0.4l-0.3,2.9c-1.3-0.3-2.7-0.5-4-0.5c-3.4,0-5,1.5-5,3.9s1.8,3.9,4.9,3.9c1.4,0,2.7-0.2,4-0.6L233,30L233,30z
	 M245,25.3h-7v5h-3v-13h3v5h7v-5h3v13h-3V25.3z"/>
</svg>
