<svg id="Artwork" xmlns="http://www.w3.org/2000/svg" viewBox="0 0 81.28836 54"><title>Artboard 132</title><path d="M3.28423,48.04106V45.36647H81.28837v2.67459Z"/><path d="M3.28424,54V51.32542H81.28837V54Z"/><path d="M6.68177,2.67291v9.20585H3.71221V2.67291H0V0H10.394V2.67291Z"/><path d="M22.49869,7.34975H14.70346v4.529H11.73389V0h2.96957V4.529h7.79523V0h2.96957V11.87876H22.49869Z"/><path d="M27.30063,11.87876V0H35.7495V2.67291H30.27019V4.67734h4.44V7.20142h-4.44V9.20585H35.7495v2.67291Z"/><path d="M6.666,19.39118H6.221v7.6024H3.2514V15.11482H6.72627l6.9191,7.42441h.445V15.11482h2.97055V26.99358H13.7047Z"/><path d="M18.8923,26.99358V15.11482h8.44887v2.67291H21.86186v2.00443h4.44v2.52408h-4.44v2.00443h5.47931v2.67291Z"/><path d="M28.07194,15.11482h3.31172l2.56808,9.45851h.69814l2.34658-9.45851h5.58215l2.68774,9.45851h.69814l2.22693-9.45851h3.371l-3.282,11.87876h-5.2855l-2.73223-9.45851h-.83164l-2.49392,9.45851H31.65065Z"/><path d="M2.58193,33.85285c0-2.50974,2.00443-3.861,4.58834-3.861a9.11657,9.11657,0,0,1,4.083.92064L10.68866,33.437a7.70126,7.70126,0,0,0-3.62222-.9058c-.92063,0-1.54461.35649-1.54461.98,0,1.93027,6.08845.84647,6.08845,4.8405,0,2.12359-1.51494,3.994-4.67734,3.994a9.97722,9.97722,0,0,1-4.11368-.757l.11866-2.7174a9.28038,9.28038,0,0,0,4.084.93547c1.3063,0,1.63262-.46032,1.63262-1.00964C8.65456,37.01525,2.58193,38.05455,2.58193,33.85285Z"/><path d="M21.91823,41.94524a8.05473,8.05473,0,0,1-3.08922.40049,6.17263,6.17263,0,1,1,.268-12.33858,9.70781,9.70781,0,0,1,3.01407.34116l-.28183,2.70257a7.64736,7.64736,0,0,0-2.64324-.38615,3.19451,3.19451,0,0,0-3.48971,3.48921,3.28261,3.28261,0,0,0,3.56387,3.47488,6.67894,6.67894,0,0,0,2.65808-.43065Z"/><path d="M34.51342,37.57939H26.71818v4.529H23.74763V30.22965h2.97055v4.529h7.79524v-4.529H37.483V42.1084H34.51342Z"/><path d="M45.75881,29.99182c4.083,0,7.02391,2.10876,7.02391,6.11762,0,4.17253-3.17821,6.23629-7.03875,6.23629-3.8902,0-7.06743-2.09343-7.06743-6.22145C38.67654,32.23408,41.572,29.99182,45.75881,29.99182Zm-.0445,9.8595c2.33174,0,4.00886-1.18763,4.00886-3.80121,0-2.37575-1.67712-3.56338-3.994-3.56338-2.31593,0-3.994,1.158-3.994,3.65238C41.73511,38.64885,43.41321,39.85132,45.71431,39.85132Z"/><path d="M60.8499,29.99182c4.084,0,7.02391,2.10876,7.02391,6.11762,0,4.17253-3.17821,6.23629-7.03875,6.23629-3.8902,0-7.06743-2.09343-7.06743-6.22145C53.76763,32.23408,56.663,29.99182,60.8499,29.99182Zm-.0445,9.8595c2.33174,0,4.00985-1.18763,4.00985-3.80121,0-2.37575-1.67811-3.56338-3.995-3.56338-2.31593,0-3.994,1.158-3.994,3.65238C56.8262,38.64885,58.5043,39.85132,60.8054,39.85132Z"/><path d="M69.15538,30.22965H72.125v9.05752h9.19151V42.1084H69.15538Z"/></svg>