<svg id="Artwork" xmlns="http://www.w3.org/2000/svg" viewBox="0 0 81.28836 54"><defs><style>.cls-1{fill:#fff;}</style></defs><title>Artboard 132</title><rect class="cls-1" x="3.28435" y="45.3663" width="78.00391" height="2.6748"/><rect class="cls-1" x="3.28435" y="51.32528" width="78.00391" height="2.6748"/><polygon class="cls-1" points="6.682 2.673 6.682 11.879 3.712 11.879 3.712 2.673 0 2.673 0 0 10.394 0 10.394 2.673 6.682 2.673"/><polygon class="cls-1" points="22.499 7.35 14.703 7.35 14.703 11.879 11.734 11.879 11.734 0 14.703 0 14.703 4.529 22.499 4.529 22.499 0 25.468 0 25.468 11.879 22.499 11.879 22.499 7.35"/><polygon class="cls-1" points="27.3 11.879 27.3 0 35.75 0 35.75 2.673 30.27 2.673 30.27 4.677 34.71 4.677 34.71 7.201 30.27 7.201 30.27 9.206 35.75 9.206 35.75 11.879 27.3 11.879"/><polygon class="cls-1" points="6.666 19.391 6.221 19.391 6.221 26.994 3.252 26.994 3.252 15.115 6.726 15.115 13.645 22.539 14.09 22.539 14.09 15.115 17.061 15.115 17.061 26.994 13.705 26.994 6.666 19.391"/><polygon class="cls-1" points="18.892 26.994 18.892 15.115 27.341 15.115 27.341 17.788 21.862 17.788 21.862 19.792 26.302 19.792 26.302 22.316 21.862 22.316 21.862 24.321 27.341 24.321 27.341 26.994 18.892 26.994"/><polygon class="cls-1" points="28.072 15.115 31.383 15.115 33.952 24.573 34.65 24.573 36.997 15.115 42.579 15.115 45.266 24.573 45.965 24.573 48.192 15.115 51.562 15.115 48.28 26.994 42.995 26.994 40.263 17.535 39.431 17.535 36.937 26.994 31.651 26.994 28.072 15.115"/><path class="cls-1" d="M2.58171,33.85262c0-2.50927,2.00488-3.86084,4.58887-3.86084a9.11443,9.11443,0,0,1,4.083.9209l-.565,2.52442a7.70111,7.70111,0,0,0-3.62207-.90577c-.92089,0-1.54492.35645-1.54492.98,0,1.93018,6.08838.8462,6.08838,4.84034,0,2.12353-1.51465,3.99414-4.67725,3.99414A9.985,9.985,0,0,1,2.819,41.58895l.11914-2.71777a9.27917,9.27917,0,0,0,4.084.93555c1.30615,0,1.63232-.46045,1.63232-1.00977C8.65446,37.01522,2.58171,38.05477,2.58171,33.85262Z"/><path class="cls-1" d="M21.91814,41.9454a8.05617,8.05617,0,0,1-3.08936.40039,6.17277,6.17277,0,1,1,.26807-12.33887,9.70567,9.70567,0,0,1,3.01416.34131l-.28174,2.70264a7.64377,7.64377,0,0,0-2.64307-.38623,3.19457,3.19457,0,0,0-3.48974,3.48925,3.28278,3.28278,0,0,0,3.564,3.4751,6.68193,6.68193,0,0,0,2.65772-.43066Z"/><polygon class="cls-1" points="34.513 37.579 26.718 37.579 26.718 42.108 23.748 42.108 23.748 30.23 26.718 30.23 26.718 34.759 34.513 34.759 34.513 30.23 37.483 30.23 37.483 42.108 34.513 42.108 34.513 37.579"/><path class="cls-1" d="M45.759,29.99178c4.083,0,7.02392,2.10889,7.02392,6.11768,0,4.17236-3.17822,6.23633-7.03906,6.23633-3.89014,0-7.06738-2.09326-7.06738-6.22168C38.67644,32.234,41.572,29.99178,45.759,29.99178Zm-.04444,9.85938c2.33155,0,4.00879-1.1875,4.00879-3.80127,0-2.37549-1.67724-3.563-3.99414-3.563-2.31592,0-3.99414,1.15772-3.99414,3.65234C41.735,38.649,43.41325,39.85116,45.71452,39.85116Z"/><path class="cls-1" d="M60.84978,29.99178c4.084,0,7.02392,2.10889,7.02392,6.11768,0,4.17236-3.17822,6.23633-7.03857,6.23633-3.89014,0-7.06738-2.09326-7.06738-6.22168C53.76775,32.234,56.66277,29.99178,60.84978,29.99178Zm-.04444,9.85938c2.332,0,4.00977-1.1875,4.00977-3.80127,0-2.37549-1.67774-3.563-3.99512-3.563-2.31543,0-3.99365,1.15772-3.99365,3.65234C56.82634,38.649,58.50456,39.85116,60.80534,39.85116Z"/><polygon class="cls-1" points="69.155 30.23 72.125 30.23 72.125 39.287 81.317 39.287 81.317 42.108 69.155 42.108 69.155 30.23"/></svg>