<?xml version="1.0" encoding="UTF-8"?>
<svg id="Layer_1" data-name="Layer 1" xmlns="http://www.w3.org/2000/svg" xmlns:xlink="http://www.w3.org/1999/xlink" viewBox="0 0 242.22 171.71">
  <defs>
    <style>
      .cls-1, .cls-2, .cls-3, .cls-4, .cls-5, .cls-6, .cls-7, .cls-8, .cls-9, .cls-10, .cls-11, .cls-12, .cls-13, .cls-14, .cls-15, .cls-16, .cls-17, .cls-18, .cls-19, .cls-20, .cls-21, .cls-22, .cls-23, .cls-24, .cls-25, .cls-26, .cls-27, .cls-28, .cls-29, .cls-30, .cls-31, .cls-32, .cls-33, .cls-34 {
        fill: none;
      }

      .cls-35 {
        letter-spacing: -.01em;
      }

      .cls-2, .cls-9, .cls-11, .cls-30, .cls-31, .cls-33, .cls-34 {
        stroke-linejoin: round;
      }

      .cls-2, .cls-11, .cls-33, .cls-34 {
        stroke-width: 1.07px;
      }

      .cls-2, .cls-30 {
        stroke: #c25851;
      }

      .cls-2, .cls-33, .cls-34 {
        stroke-linecap: round;
      }

      .cls-36 {
        letter-spacing: -.02em;
      }

      .cls-3 {
        isolation: isolate;
        opacity: .6;
      }

      .cls-4 {
        clip-path: url(#clippath-5);
      }

      .cls-5 {
        clip-path: url(#clippath-3);
      }

      .cls-6 {
        clip-path: url(#clippath-4);
      }

      .cls-7 {
        clip-path: url(#clippath-2);
      }

      .cls-8 {
        clip-path: url(#clippath-1);
      }

      .cls-9, .cls-30 {
        stroke-width: 1.71px;
      }

      .cls-9, .cls-34 {
        stroke: #00a1ff;
      }

      .cls-37 {
        font-family: Helvetica-Bold, Helvetica;
        font-weight: 700;
      }

      .cls-37, .cls-38 {
        font-size: 8px;
      }

      .cls-37, .cls-38, .cls-39 {
        fill: #4d4d4d;
      }

      .cls-40 {
        letter-spacing: -.03em;
      }

      .cls-41 {
        fill: #fff;
      }

      .cls-42 {
        fill: #f1f1f1;
      }

      .cls-43 {
        letter-spacing: 0em;
      }

      .cls-10 {
        stroke: #4999d4;
      }

      .cls-10, .cls-29 {
        stroke-width: 2px;
      }

      .cls-44 {
        letter-spacing: .01em;
      }

      .cls-38, .cls-39 {
        font-family: Helvetica, Helvetica;
      }

      .cls-11 {
        stroke: #4d4d4d;
      }

      .cls-12 {
        clip-path: url(#clippath-13);
      }

      .cls-13 {
        clip-path: url(#clippath-14);
      }

      .cls-14 {
        clip-path: url(#clippath-12);
      }

      .cls-15 {
        clip-path: url(#clippath-11);
      }

      .cls-16 {
        clip-path: url(#clippath-18);
      }

      .cls-17 {
        clip-path: url(#clippath-19);
      }

      .cls-18 {
        clip-path: url(#clippath-17);
      }

      .cls-19 {
        clip-path: url(#clippath-16);
      }

      .cls-20 {
        clip-path: url(#clippath-10);
      }

      .cls-21 {
        clip-path: url(#clippath-15);
      }

      .cls-22 {
        clip-path: url(#clippath-25);
      }

      .cls-23 {
        clip-path: url(#clippath-22);
      }

      .cls-24 {
        clip-path: url(#clippath-23);
      }

      .cls-25 {
        clip-path: url(#clippath-24);
      }

      .cls-26 {
        clip-path: url(#clippath-21);
      }

      .cls-27 {
        clip-path: url(#clippath-20);
      }

      .cls-28 {
        clip-path: url(#clippath-26);
      }

      .cls-29 {
        stroke: #c35752;
        stroke-dasharray: 0 0 5.53 5.53;
      }

      .cls-30 {
        stroke-dasharray: 0 0 3.41 3.41;
      }

      .cls-45, .cls-46 {
        opacity: .2;
      }

      .cls-45, .cls-47 {
        fill: #c25851;
      }

      .cls-46, .cls-48 {
        fill: #00a1ff;
      }

      .cls-39 {
        font-size: 6px;
      }

      .cls-49 {
        letter-spacing: -.02em;
      }

      .cls-31 {
        stroke-width: .53px;
      }

      .cls-31, .cls-33 {
        stroke: #fff;
      }

      .cls-32 {
        clip-path: url(#clippath);
      }

      .cls-47, .cls-48 {
        opacity: .4;
      }
    </style>
    <clipPath id="clippath">
      <rect class="cls-1" y="-208.8" width="505.5" height="648"/>
    </clipPath>
    <clipPath id="clippath-1">
      <rect class="cls-1" x="206.7" y="63.6" width="35.3" height="98.4"/>
    </clipPath>
    <clipPath id="clippath-2">
      <rect class="cls-1" x="206.7" y="63.6" width="35.3" height="98.4"/>
    </clipPath>
    <clipPath id="clippath-3">
      <rect class="cls-1" y="-208.8" width="505.5" height="648"/>
    </clipPath>
    <clipPath id="clippath-4">
      <rect class="cls-1" x="206.7" y="63.6" width="35.3" height="98.4"/>
    </clipPath>
    <clipPath id="clippath-5">
      <rect class="cls-1" y="-208.8" width="505.5" height="648"/>
    </clipPath>
    <clipPath id="clippath-10">
      <rect class="cls-1" y="-208.8" width="505.5" height="648"/>
    </clipPath>
    <clipPath id="clippath-11">
      <rect class="cls-1" y="0" width="187.4" height="162"/>
    </clipPath>
    <clipPath id="clippath-12">
      <rect class="cls-1" x="27.49" y="4.88" width="157.42" height="133.84"/>
    </clipPath>
    <clipPath id="clippath-13">
      <rect class="cls-1" y="-208.8" width="505.5" height="648"/>
    </clipPath>
    <clipPath id="clippath-14">
      <rect class="cls-1" x="27.49" y="4.88" width="157.42" height="133.84"/>
    </clipPath>
    <clipPath id="clippath-15">
      <rect class="cls-1" y="-208.8" width="505.5" height="648"/>
    </clipPath>
    <clipPath id="clippath-16">
      <rect class="cls-1" y="0" width="187.4" height="162"/>
    </clipPath>
    <clipPath id="clippath-17">
      <rect class="cls-1" y="-208.8" width="505.5" height="648"/>
    </clipPath>
    <clipPath id="clippath-18">
      <rect class="cls-1" x="187" y="63.2" width="20" height="99"/>
    </clipPath>
    <clipPath id="clippath-19">
      <rect class="cls-1" x="186.1" y="62.6" width="21.6" height="100.4"/>
    </clipPath>
    <clipPath id="clippath-20">
      <rect class="cls-1" x="187.1" y="63.6" width="19.6" height="98.4"/>
    </clipPath>
    <clipPath id="clippath-21">
      <rect class="cls-1" x="186.1" y="62.6" width="21.6" height="100.4"/>
    </clipPath>
    <clipPath id="clippath-22">
      <rect class="cls-1" x="187.1" y="63.6" width="19.6" height="98.4"/>
    </clipPath>
    <clipPath id="clippath-23">
      <rect class="cls-1" x="187.1" width="54.9" height="62.4"/>
    </clipPath>
    <clipPath id="clippath-24">
      <rect class="cls-1" x="187.1" width="54.9" height="62.4"/>
    </clipPath>
    <clipPath id="clippath-25">
      <rect class="cls-1" y="-208.8" width="505.5" height="648"/>
    </clipPath>
    <clipPath id="clippath-26">
      <rect class="cls-1" x="187.1" width="54.9" height="62.4"/>
    </clipPath>
  </defs>
  <g class="cls-32">
    <rect class="cls-41" x="206.7" y="63.6" width="35.3" height="98.4"/>
  </g>
  <g class="cls-8">
    <rect class="cls-33" x="-15.1" y="-.6" width="266.4" height="165.6"/>
  </g>
  <g class="cls-7">
    <text class="cls-39" transform="translate(.62 110.07)"><tspan x="0" y="0">0.4</tspan></text>
    <text class="cls-39" transform="translate(.62 76.21)"><tspan x="0" y="0">0.6</tspan></text>
    <text class="cls-39" transform="translate(.62 42.36)"><tspan x="0" y="0">0.8</tspan></text>
    <text class="cls-39" transform="translate(.62 8.5)"><tspan x="0" y="0">1.0</tspan></text>
    <text class="cls-39" transform="translate(15.71 147.96)"><tspan x="0" y="0">4.0</tspan></text>
    <text class="cls-39" transform="translate(52.54 147.96)"><tspan x="0" y="0">4.5</tspan></text>
    <text class="cls-39" transform="translate(89.36 147.96)"><tspan x="0" y="0">5.0</tspan></text>
    <text class="cls-39" transform="translate(126.19 147.96)"><tspan x="0" y="0">5.5</tspan></text>
    <text class="cls-39" transform="translate(163.01 147.96)"><tspan x="0" y="0">6.0</tspan></text>
    <text class="cls-37" transform="translate(59.77 157.76)"><tspan x="0" y="0">Child A</tspan><tspan class="cls-44" x="28" y="0">g</tspan><tspan x="32.96" y="0">e (</tspan><tspan class="cls-35" x="42.3" y="0">y</tspan><tspan x="46.67" y="0">ea</tspan><tspan class="cls-49" x="55.57" y="0">r</tspan><tspan x="58.56" y="0">s)</tspan></text>
  </g>
  <g class="cls-5">
    <rect class="cls-41" x="206.7" y="63.6" width="35.3" height="41.02"/>
  </g>
  <g class="cls-6">
    <text class="cls-37" transform="translate(187.76 51.08)"><tspan x="0" y="0">Spee</tspan><tspan class="cls-35" x="19.12" y="0">c</tspan><tspan x="23.49" y="0">h</tspan></text>
    <text class="cls-37" transform="translate(187.76 59.72)"><tspan x="0" y="0">Compl</tspan><tspan class="cls-49" x="24.89" y="0">e</tspan><tspan x="29.22" y="0">xity</tspan></text>
    <rect class="cls-42" x="187.76" y="64.58" width="17.28" height="17.28"/>
    <rect class="cls-48" x="187.76" y="64.58" width="17.28" height="17.28"/>
    <rect class="cls-42" x="187.76" y="81.86" width="17.28" height="17.28"/>
    <rect class="cls-47" x="187.76" y="81.86" width="17.28" height="17.28"/>
  </g>
  <g class="cls-4">
    <text class="cls-38" transform="translate(209.02 76.09)"><tspan x="0" y="0">Simple</tspan></text>
    <text class="cls-38" transform="translate(209.02 93.37)"><tspan x="0" y="0">Compl</tspan><tspan class="cls-40" x="23.12" y="0">e</tspan><tspan x="27.33" y="0">x</tspan></text>
  </g>
  <g class="cls-20">
    <rect class="cls-41" y="0" width="187.4" height="162"/>
  </g>
  <g class="cls-15">
    <rect class="cls-33" x="-1.5" y="-.6" width="266.4" height="165.6"/>
  </g>
  <g class="cls-14">
    <line class="cls-31" x1="51.89" y1="138.72" x2="51.89" y2="4.88"/>
    <line class="cls-31" x1="88.72" y1="138.72" x2="88.72" y2="4.88"/>
    <line class="cls-31" x1="125.54" y1="138.72" x2="125.54" y2="4.88"/>
    <line class="cls-31" x1="162.37" y1="138.72" x2="162.37" y2="4.88"/>
  </g>
  <g class="cls-12">
    <polygon class="cls-48" points="38.27 29.04 40.08 29.57 41.9 30.11 43.71 30.66 45.52 31.21 47.33 31.77 49.14 32.33 50.95 32.9 52.77 33.48 54.58 34.07 56.39 34.67 58.2 35.29 60.01 35.91 61.82 36.54 63.63 37.19 65.45 37.85 67.26 38.53 69.07 39.22 70.88 39.91 72.69 40.61 74.5 41.33 76.32 42.05 78.13 42.78 79.94 43.53 81.75 44.28 83.56 45.05 85.37 45.83 87.18 46.62 89 47.42 90.81 48.22 92.62 49.04 94.43 49.87 96.24 50.72 98.05 51.57 99.87 52.44 101.68 53.31 103.49 54.2 105.3 55.1 107.11 56 108.92 56.91 110.74 57.83 112.55 58.76 114.36 59.69 116.17 60.63 117.98 61.58 119.79 62.53 121.6 63.48 123.42 64.45 125.23 65.41 127.04 66.39 128.85 67.38 130.66 68.37 132.47 69.37 134.29 70.38 136.1 71.39 137.91 72.41 139.72 73.44 141.53 74.48 143.34 75.52 145.15 76.57 146.97 77.63 148.78 78.69 150.59 79.76 152.4 80.84 154.21 81.92 156.02 83.01 157.84 84.11 159.65 85.21 161.46 86.32 163.27 87.44 165.08 88.56 166.89 89.69 168.7 90.82 170.52 91.96 172.33 93.11 174.14 94.26 175.95 95.41 175.95 95.74 174.14 94.57 172.33 93.4 170.52 92.24 168.7 91.09 166.89 89.94 165.08 88.8 163.27 87.67 161.46 86.55 159.65 85.43 157.84 84.32 156.02 83.22 154.21 82.12 152.4 81.04 150.59 79.96 148.78 78.89 146.97 77.82 145.15 76.77 143.34 75.72 141.53 74.67 139.72 73.64 137.91 72.61 136.1 71.59 134.29 70.57 132.47 69.57 130.66 68.57 128.85 67.58 127.04 66.59 125.23 65.61 123.42 64.64 121.6 63.68 119.79 62.72 117.98 61.77 116.17 60.82 114.36 59.88 112.55 58.94 110.74 58.01 108.92 57.09 107.11 56.18 105.3 55.27 103.49 54.38 101.68 53.49 99.87 52.62 98.05 51.75 96.24 50.9 94.43 50.06 92.62 49.23 90.81 48.41 89 47.6 87.18 46.79 85.37 46.01 83.56 45.23 81.75 44.46 79.94 43.7 78.13 42.96 76.32 42.22 74.5 41.49 72.69 40.78 70.88 40.08 69.07 39.39 67.26 38.72 65.45 38.05 63.63 37.39 61.82 36.74 60.01 36.1 58.2 35.47 56.39 34.85 54.58 34.23 52.77 33.63 50.95 33.04 49.14 32.46 47.33 31.89 45.52 31.34 43.71 30.81 41.9 30.29 40.08 29.78 38.27 29.29 38.27 29.04"/>
    <polyline class="cls-9" points="38.27 29.16 40.08 29.68 41.9 30.2 43.71 30.73 45.52 31.28 47.33 31.83 49.14 32.4 50.95 32.97 52.77 33.56 54.58 34.15 56.39 34.76 58.2 35.38 60.01 36 61.82 36.64 63.63 37.29 65.45 37.95 67.26 38.62 69.07 39.3 70.88 39.99 72.69 40.7 74.5 41.41 76.32 42.13 78.13 42.87 79.94 43.61 81.75 44.37 83.56 45.14 85.37 45.92 87.18 46.71 89 47.51 90.81 48.32 92.62 49.14 94.43 49.97 96.24 50.81 98.05 51.66 99.87 52.53 101.68 53.4 103.49 54.29 105.3 55.18 107.11 56.09 108.92 57 110.74 57.92 112.55 58.85 114.36 59.78 116.17 60.73 117.98 61.67 119.79 62.62 121.6 63.58 123.42 64.54 125.23 65.51 127.04 66.49 128.85 67.48 130.66 68.47 132.47 69.47 134.29 70.47 136.1 71.49 137.91 72.51 139.72 73.54 141.53 74.57 143.34 75.62 145.15 76.67 146.97 77.73 148.78 78.79 150.59 79.86 152.4 80.94 154.21 82.02 156.02 83.12 157.84 84.22 159.65 85.32 161.46 86.43 163.27 87.55 165.08 88.68 166.89 89.81 168.7 90.95 170.52 92.1 172.33 93.25 174.14 94.41 175.95 95.58"/>
    <polygon class="cls-47" points="36.46 90.55 38.27 89.37 40.08 88.2 41.9 87.03 43.71 85.87 45.52 84.71 47.33 83.55 49.14 82.4 50.95 81.25 52.77 80.1 54.58 78.96 56.39 77.82 58.2 76.69 60.01 75.56 61.82 74.44 63.63 73.33 65.45 72.21 67.26 71.11 69.07 70 70.88 68.91 72.69 67.81 74.5 66.73 76.32 65.66 78.13 64.6 79.94 63.55 81.75 62.52 83.56 61.49 85.37 60.47 87.18 59.46 89 58.46 90.81 57.48 92.62 56.5 94.43 55.54 96.24 54.58 98.05 53.64 99.87 52.7 101.68 51.78 103.49 50.87 105.3 49.97 107.11 49.09 108.92 48.21 110.74 47.35 112.55 46.5 114.36 45.67 116.17 44.84 117.98 44.03 119.79 43.23 121.6 42.44 123.42 41.66 125.23 40.9 127.04 40.15 128.85 39.41 130.66 38.68 132.47 37.96 134.29 37.25 136.1 36.56 137.91 35.88 139.72 35.21 141.53 34.55 143.34 33.9 145.15 33.27 146.97 32.64 148.78 32.03 150.59 31.43 152.4 30.85 154.21 30.27 154.21 30.34 152.4 30.91 150.59 31.49 148.78 32.09 146.97 32.7 145.15 33.32 143.34 33.95 141.53 34.6 139.72 35.25 137.91 35.92 136.1 36.6 134.29 37.3 132.47 38 130.66 38.72 128.85 39.44 127.04 40.19 125.23 40.94 123.42 41.7 121.6 42.48 119.79 43.27 117.98 44.07 116.17 44.88 114.36 45.7 112.55 46.54 110.74 47.38 108.92 48.24 107.11 49.12 105.3 50 103.49 50.9 101.68 51.81 99.87 52.73 98.05 53.66 96.24 54.61 94.43 55.56 92.62 56.53 90.81 57.5 89 58.49 87.18 59.49 85.37 60.5 83.56 61.52 81.75 62.55 79.94 63.59 78.13 64.64 76.32 65.7 74.5 66.77 72.69 67.85 70.88 68.94 69.07 70.04 67.26 71.14 65.45 72.25 63.63 73.36 61.82 74.48 60.01 75.59 58.2 76.72 56.39 77.85 54.58 78.99 52.77 80.13 50.95 81.27 49.14 82.42 47.33 83.57 45.52 84.73 43.71 85.89 41.9 87.06 40.08 88.24 38.27 89.42 36.46 90.6 36.46 90.55"/>
    <polyline class="cls-30" points="36.46 90.58 38.27 89.4 40.08 88.22 41.9 87.05 43.71 85.88 45.52 84.72 47.33 83.56 49.14 82.41 50.95 81.26 52.77 80.12 54.58 78.98 56.39 77.84 58.2 76.7 60.01 75.58 61.82 74.46 63.63 73.34 65.45 72.23 67.26 71.12 69.07 70.02 70.88 68.92 72.69 67.83 74.5 66.75 76.32 65.68 78.13 64.62 79.94 63.57 81.75 62.53 83.56 61.51 85.37 60.49 87.18 59.48 89 58.48 90.81 57.49 92.62 56.52 94.43 55.55 96.24 54.59 98.05 53.65 99.87 52.72 101.68 51.79 103.49 50.88 105.3 49.99 107.11 49.1 108.92 48.23 110.74 47.37 112.55 46.52 114.36 45.68 116.17 44.86 117.98 44.05 119.79 43.25 121.6 42.46 123.42 41.68 125.23 40.92 127.04 40.17 128.85 39.43 130.66 38.7 132.47 37.98 134.29 37.27 136.1 36.58 137.91 35.9 139.72 35.23 141.53 34.57 143.34 33.93 145.15 33.29 146.97 32.67 148.78 32.06 150.59 31.46 152.4 30.88 154.21 30.3"/>
  </g>
  <g class="cls-13">
    <line class="cls-2" x1="105.32" y1="138.72" x2="105.32" y2="134.7"/>
    <line class="cls-2" x1="96.07" y1="138.72" x2="96.07" y2="134.7"/>
    <line class="cls-2" x1="109.55" y1="138.72" x2="109.55" y2="134.7"/>
    <line class="cls-2" x1="88.92" y1="138.72" x2="88.92" y2="134.7"/>
    <line class="cls-2" x1="110.56" y1="138.72" x2="110.56" y2="134.7"/>
    <line class="cls-2" x1="90.94" y1="138.72" x2="90.94" y2="134.7"/>
    <line class="cls-2" x1="62.27" y1="138.72" x2="62.27" y2="134.7"/>
    <line class="cls-2" x1="53.51" y1="138.72" x2="53.51" y2="134.7"/>
    <line class="cls-2" x1="77.33" y1="138.72" x2="77.33" y2="134.7"/>
    <line class="cls-34" x1="93.44" y1="138.72" x2="93.44" y2="134.7"/>
    <line class="cls-2" x1="93.44" y1="138.72" x2="93.44" y2="134.7"/>
    <line class="cls-34" x1="110.44" y1="138.72" x2="110.44" y2="134.7"/>
    <line class="cls-2" x1="87.91" y1="138.72" x2="87.91" y2="134.7"/>
    <line class="cls-34" x1="59.32" y1="138.72" x2="59.32" y2="134.7"/>
    <line class="cls-34" x1="49.47" y1="138.72" x2="49.47" y2="134.7"/>
    <line class="cls-34" x1="79.35" y1="138.72" x2="79.35" y2="134.7"/>
    <line class="cls-2" x1="34.69" y1="138.72" x2="34.69" y2="134.7"/>
    <line class="cls-34" x1="42.73" y1="138.72" x2="42.73" y2="134.7"/>
    <line class="cls-34" x1="63.16" y1="138.72" x2="63.16" y2="134.7"/>
    <line class="cls-34" x1="82.38" y1="138.72" x2="82.38" y2="134.7"/>
    <line class="cls-34" x1="42.12" y1="138.72" x2="42.12" y2="134.7"/>
    <line class="cls-34" x1="55" y1="138.72" x2="55" y2="134.7"/>
    <line class="cls-34" x1="38.2" y1="138.72" x2="38.2" y2="134.7"/>
    <line class="cls-34" x1="44.54" y1="138.72" x2="44.54" y2="134.7"/>
    <line class="cls-34" x1="78.75" y1="138.72" x2="78.75" y2="134.7"/>
    <line class="cls-34" x1="46.97" y1="138.72" x2="46.97" y2="134.7"/>
    <line class="cls-34" x1="47.17" y1="138.72" x2="47.17" y2="134.7"/>
    <line class="cls-34" x1="46.36" y1="138.72" x2="46.36" y2="134.7"/>
    <line class="cls-34" x1="63.97" y1="138.72" x2="63.97" y2="134.7"/>
    <line class="cls-34" x1="177.67" y1="138.72" x2="177.67" y2="134.7"/>
    <line class="cls-34" x1="162.77" y1="138.72" x2="162.77" y2="134.7"/>
    <line class="cls-34" x1="138.22" y1="138.72" x2="138.22" y2="134.7"/>
    <line class="cls-2" x1="155.63" y1="138.72" x2="155.63" y2="134.7"/>
    <line class="cls-2" x1="48.58" y1="138.72" x2="48.58" y2="134.7"/>
    <line class="cls-34" x1="82.38" y1="138.72" x2="82.38" y2="134.7"/>
    <line class="cls-2" x1="52.5" y1="138.72" x2="52.5" y2="134.7"/>
    <line class="cls-2" x1="51.09" y1="138.72" x2="51.09" y2="134.7"/>
    <line class="cls-2" x1="79.96" y1="138.72" x2="79.96" y2="134.7"/>
    <line class="cls-2" x1="39.82" y1="138.72" x2="39.82" y2="134.7"/>
    <line class="cls-2" x1="47.45" y1="138.72" x2="47.45" y2="134.7"/>
    <line class="cls-2" x1="49.87" y1="138.72" x2="49.87" y2="134.7"/>
    <line class="cls-2" x1="98.57" y1="138.72" x2="98.57" y2="134.7"/>
    <line class="cls-2" x1="103.5" y1="138.72" x2="103.5" y2="134.7"/>
    <line class="cls-34" x1="104.51" y1="138.72" x2="104.51" y2="134.7"/>
    <line class="cls-34" x1="121.51" y1="138.72" x2="121.51" y2="134.7"/>
    <line class="cls-34" x1="48.06" y1="138.72" x2="48.06" y2="134.7"/>
    <line class="cls-2" x1="27.49" y1="49.96" x2="32.22" y2="49.96"/>
    <line class="cls-2" x1="27.49" y1="54.68" x2="32.22" y2="54.68"/>
    <line class="cls-2" x1="27.49" y1="47.91" x2="32.22" y2="47.91"/>
    <line class="cls-2" x1="27.49" y1="58.52" x2="32.22" y2="58.52"/>
    <line class="cls-2" x1="27.49" y1="47.43" x2="32.22" y2="47.43"/>
    <line class="cls-2" x1="27.49" y1="57.42" x2="32.22" y2="57.42"/>
    <line class="cls-2" x1="27.49" y1="74.17" x2="32.22" y2="74.17"/>
    <line class="cls-2" x1="27.49" y1="79.65" x2="32.22" y2="79.65"/>
    <line class="cls-2" x1="27.49" y1="65.09" x2="32.22" y2="65.09"/>
    <line class="cls-34" x1="27.49" y1="49.52" x2="32.22" y2="49.52"/>
    <line class="cls-2" x1="27.49" y1="56.07" x2="32.22" y2="56.07"/>
    <line class="cls-34" x1="27.49" y1="57.77" x2="32.22" y2="57.77"/>
    <line class="cls-2" x1="27.49" y1="59.07" x2="32.22" y2="59.07"/>
    <line class="cls-34" x1="27.49" y1="35.77" x2="32.22" y2="35.77"/>
    <line class="cls-34" x1="27.49" y1="32.5" x2="32.22" y2="32.5"/>
    <line class="cls-34" x1="27.49" y1="43.37" x2="32.22" y2="43.37"/>
    <line class="cls-2" x1="27.49" y1="91.71" x2="32.22" y2="91.71"/>
    <line class="cls-34" x1="27.49" y1="30.44" x2="32.22" y2="30.44"/>
    <line class="cls-34" x1="27.49" y1="37.12" x2="32.22" y2="37.12"/>
    <line class="cls-34" x1="27.49" y1="44.64" x2="32.22" y2="44.64"/>
    <line class="cls-34" x1="27.49" y1="30.27" x2="32.22" y2="30.27"/>
    <line class="cls-34" x1="27.49" y1="34.3" x2="32.22" y2="34.3"/>
    <line class="cls-34" x1="27.49" y1="29.14" x2="32.22" y2="29.14"/>
    <line class="cls-34" x1="27.49" y1="30.98" x2="32.22" y2="30.98"/>
    <line class="cls-34" x1="27.49" y1="43.12" x2="32.22" y2="43.12"/>
    <line class="cls-34" x1="27.49" y1="31.72" x2="32.22" y2="31.72"/>
    <line class="cls-34" x1="27.49" y1="31.78" x2="32.22" y2="31.78"/>
    <line class="cls-34" x1="27.49" y1="31.53" x2="32.22" y2="31.53"/>
    <line class="cls-34" x1="27.49" y1="37.41" x2="32.22" y2="37.41"/>
    <line class="cls-34" x1="27.49" y1="96.49" x2="32.22" y2="96.49"/>
    <line class="cls-34" x1="27.49" y1="87.5" x2="32.22" y2="87.5"/>
    <line class="cls-34" x1="27.49" y1="72.95" x2="32.22" y2="72.95"/>
    <line class="cls-2" x1="27.49" y1="29.87" x2="32.22" y2="29.87"/>
    <line class="cls-2" x1="27.49" y1="82.78" x2="32.22" y2="82.78"/>
    <line class="cls-34" x1="27.49" y1="44.64" x2="32.22" y2="44.64"/>
    <line class="cls-2" x1="27.49" y1="80.29" x2="32.22" y2="80.29"/>
    <line class="cls-2" x1="27.49" y1="81.19" x2="32.22" y2="81.19"/>
    <line class="cls-2" x1="27.49" y1="63.57" x2="32.22" y2="63.57"/>
    <line class="cls-2" x1="27.49" y1="88.4" x2="32.22" y2="88.4"/>
    <line class="cls-2" x1="27.49" y1="83.5" x2="32.22" y2="83.5"/>
    <line class="cls-2" x1="27.49" y1="81.96" x2="32.22" y2="81.96"/>
    <line class="cls-2" x1="27.49" y1="53.37" x2="32.22" y2="53.37"/>
    <line class="cls-2" x1="27.49" y1="50.86" x2="32.22" y2="50.86"/>
    <line class="cls-34" x1="27.49" y1="54.79" x2="32.22" y2="54.79"/>
    <line class="cls-34" x1="27.49" y1="63.59" x2="32.22" y2="63.59"/>
    <line class="cls-34" x1="27.49" y1="32.06" x2="32.22" y2="32.06"/>
  </g>
  <g class="cls-21">
    <polygon class="cls-45" points="34.65 65.18 36.1 64.94 37.54 64.7 38.99 64.44 40.43 64.18 41.88 63.91 43.32 63.63 44.77 63.34 46.21 63.04 47.66 62.72 49.11 62.4 50.55 62.06 52 61.7 53.44 61.33 54.89 60.95 56.33 60.54 57.78 60.11 59.23 59.67 60.67 59.2 62.12 58.71 63.56 58.19 65.01 57.65 66.45 57.08 67.9 56.48 69.34 55.86 70.79 55.21 72.24 54.53 73.68 53.82 75.13 53.08 76.57 52.32 78.02 51.53 79.46 50.72 80.91 49.88 82.35 49.03 83.8 48.16 85.25 47.27 86.69 46.37 88.14 45.46 89.58 44.55 91.03 43.63 92.47 42.7 93.92 41.78 95.36 40.86 96.81 39.94 98.26 39.03 99.7 38.13 101.15 37.23 102.59 36.35 104.04 35.47 105.48 34.61 106.93 33.77 108.37 32.93 109.82 32.12 111.27 31.31 112.71 30.53 114.16 29.76 115.6 29.01 117.05 28.27 118.49 27.55 119.94 26.85 121.38 26.17 122.83 25.51 124.28 24.86 125.72 24.23 127.17 23.61 128.61 23.02 130.06 22.44 131.5 21.88 132.95 21.33 134.39 20.8 135.84 20.29 137.29 19.79 138.73 19.31 140.18 18.84 141.62 18.39 143.07 17.95 144.51 17.53 145.96 17.12 147.41 16.73 148.85 16.34 150.3 15.97 151.74 15.62 153.19 15.27 154.63 14.94 156.08 14.62 157.52 14.31 158.97 14.01 160.42 13.72 161.86 13.44 163.31 13.17 164.75 12.91 166.2 12.66 167.64 12.42 169.09 12.19 170.53 11.96 171.98 11.75 173.43 11.54 174.87 11.34 176.32 11.15 177.76 10.96 177.76 60.84 176.32 60.96 174.87 61.09 173.43 61.22 171.98 61.35 170.53 61.48 169.09 61.61 167.64 61.75 166.2 61.88 164.75 62.02 163.31 62.15 161.86 62.29 160.42 62.43 158.97 62.57 157.52 62.71 156.08 62.85 154.63 63 153.19 63.14 151.74 63.29 150.3 63.44 148.85 63.59 147.41 63.74 145.96 63.9 144.51 64.05 143.07 64.21 141.62 64.37 140.18 64.53 138.73 64.7 137.29 64.87 135.84 65.04 134.39 65.21 132.95 65.39 131.5 65.57 130.06 65.75 128.61 65.94 127.17 66.13 125.72 66.33 124.28 66.53 122.83 66.73 121.38 66.94 119.94 67.16 118.49 67.38 117.05 67.6 115.6 67.84 114.16 68.08 112.71 68.33 111.27 68.59 109.82 68.86 108.37 69.13 106.93 69.42 105.48 69.72 104.04 70.03 102.59 70.36 101.15 70.7 99.7 71.05 98.26 71.43 96.81 71.82 95.36 72.23 93.92 72.67 92.47 73.12 91.03 73.61 89.58 74.12 88.14 74.66 86.69 75.23 85.25 75.84 83.8 76.48 82.35 77.16 80.91 77.87 79.46 78.63 78.02 79.43 76.57 80.27 75.13 81.16 73.68 82.09 72.24 83.07 70.79 84.09 69.34 85.15 67.9 86.26 66.45 87.41 65.01 88.59 63.56 89.81 62.12 91.07 60.67 92.35 59.23 93.67 57.78 95.01 56.33 96.38 54.89 97.77 53.44 99.18 52 100.6 50.55 102.04 49.11 103.48 47.66 104.94 46.21 106.41 44.77 107.87 43.32 109.34 41.88 110.81 40.43 112.28 38.99 113.74 37.54 115.2 36.1 116.65 34.65 118.09 34.65 65.18"/>
    <polygon class="cls-46" points="34.65 18.48 36.1 18.84 37.54 19.21 38.99 19.58 40.43 19.96 41.88 20.36 43.32 20.76 44.77 21.17 46.21 21.58 47.66 22.01 49.11 22.44 50.55 22.88 52 23.33 53.44 23.79 54.89 24.25 56.33 24.72 57.78 25.2 59.23 25.69 60.67 26.18 62.12 26.67 63.56 27.17 65.01 27.68 66.45 28.19 67.9 28.71 69.34 29.22 70.79 29.75 72.24 30.27 73.68 30.79 75.13 31.32 76.57 31.85 78.02 32.37 79.46 32.9 80.91 33.42 82.35 33.94 83.8 34.46 85.25 34.97 86.69 35.48 88.14 35.99 89.58 36.49 91.03 36.99 92.47 37.48 93.92 37.96 95.36 38.44 96.81 38.91 98.26 39.38 99.7 39.83 101.15 40.29 102.59 40.73 104.04 41.17 105.48 41.6 106.93 42.03 108.37 42.44 109.82 42.85 111.27 43.26 112.71 43.66 114.16 44.05 115.6 44.44 117.05 44.82 118.49 45.2 119.94 45.57 121.38 45.94 122.83 46.3 124.28 46.66 125.72 47.01 127.17 47.36 128.61 47.71 130.06 48.05 131.5 48.39 132.95 48.73 134.39 49.06 135.84 49.39 137.29 49.72 138.73 50.04 140.18 50.36 141.62 50.68 143.07 51 144.51 51.31 145.96 51.63 147.41 51.94 148.85 52.25 150.3 52.56 151.74 52.86 153.19 53.17 154.63 53.47 156.08 53.78 157.52 54.08 158.97 54.38 160.42 54.68 161.86 54.98 163.31 55.27 164.75 55.57 166.2 55.87 167.64 56.16 169.09 56.46 170.53 56.75 171.98 57.04 173.43 57.33 174.87 57.63 176.32 57.92 177.76 58.21 177.76 132.63 176.32 131.56 174.87 130.48 173.43 129.37 171.98 128.26 170.53 127.12 169.09 125.98 167.64 124.81 166.2 123.64 164.75 122.45 163.31 121.25 161.86 120.04 160.42 118.81 158.97 117.58 157.52 116.33 156.08 115.08 154.63 113.82 153.19 112.54 151.74 111.26 150.3 109.98 148.85 108.69 147.41 107.39 145.96 106.09 144.51 104.78 143.07 103.48 141.62 102.17 140.18 100.86 138.73 99.55 137.29 98.24 135.84 96.93 134.39 95.63 132.95 94.33 131.5 93.03 130.06 91.74 128.61 90.46 127.17 89.19 125.72 87.92 124.28 86.66 122.83 85.42 121.38 84.18 119.94 82.96 118.49 81.76 117.05 80.56 115.6 79.38 114.16 78.22 112.71 77.08 111.27 75.95 109.82 74.84 108.37 73.75 106.93 72.68 105.48 71.63 104.04 70.6 102.59 69.6 101.15 68.61 99.7 67.65 98.26 66.71 96.81 65.8 95.36 64.91 93.92 64.04 92.47 63.19 91.03 62.37 89.58 61.58 88.14 60.8 86.69 60.05 85.25 59.33 83.8 58.62 82.35 57.94 80.91 57.28 79.46 56.64 78.02 56.02 76.57 55.42 75.13 54.84 73.68 54.27 72.24 53.73 70.79 53.2 69.34 52.69 67.9 52.19 66.45 51.71 65.01 51.24 63.56 50.79 62.12 50.35 60.67 49.92 59.23 49.51 57.78 49.1 56.33 48.71 54.89 48.32 53.44 47.95 52 47.58 50.55 47.22 49.11 46.87 47.66 46.53 46.21 46.2 44.77 45.87 43.32 45.55 41.88 45.24 40.43 44.93 38.99 44.63 37.54 44.33 36.1 44.04 34.65 43.75 34.65 18.48"/>
    <line class="cls-11" x1="27.49" y1="138.72" x2="27.49" y2="4.88"/>
    <text class="cls-39" transform="translate(14.22 110.07)"><tspan x="0" y="0">0.4</tspan></text>
    <text class="cls-39" transform="translate(14.22 76.21)"><tspan x="0" y="0">0.6</tspan></text>
    <text class="cls-39" transform="translate(14.22 42.36)"><tspan x="0" y="0">0.8</tspan></text>
    <text class="cls-39" transform="translate(14.22 8.5)"><tspan x="0" y="0">1.0</tspan></text>
    <line class="cls-11" x1="27.49" y1="138.72" x2="184.92" y2="138.72"/>
    <text class="cls-39" transform="translate(29.31 147.96)"><tspan x="0" y="0">4.0</tspan></text>
    <text class="cls-39" transform="translate(66.14 147.96)"><tspan x="0" y="0">4.5</tspan></text>
    <text class="cls-39" transform="translate(102.96 147.96)"><tspan x="0" y="0">5.0</tspan></text>
    <text class="cls-39" transform="translate(139.79 147.96)"><tspan x="0" y="0">5.5</tspan></text>
    <text class="cls-39" transform="translate(176.61 147.96)"><tspan x="0" y="0">6.0</tspan></text>
  </g>
  <g class="cls-19">
    <text class="cls-37" transform="translate(73.37 157.76)"><tspan x="0" y="0">Child A</tspan><tspan class="cls-44" x="28" y="0">g</tspan><tspan x="32.96" y="0">e (</tspan><tspan class="cls-35" x="42.3" y="0">y</tspan><tspan x="46.67" y="0">ea</tspan><tspan class="cls-49" x="55.57" y="0">r</tspan><tspan x="58.56" y="0">s)</tspan></text>
    <text class="cls-37" transform="translate(9.72 138.35) rotate(-90)"><tspan x="0" y="0">P</tspan><tspan class="cls-36" x="5.34" y="0">r</tspan><tspan x="8.29" y="0">obability of Conti</tspan><tspan class="cls-43" x="73.61" y="0">n</tspan><tspan x="78.43" y="0">uing Listening</tspan></text>
    <text class="cls-37" transform="translate(201.36 51.08)"><tspan x="0" y="0">Spee</tspan><tspan class="cls-35" x="19.12" y="0">c</tspan><tspan x="23.49" y="0">h</tspan></text>
    <text class="cls-37" transform="translate(201.36 59.72)"><tspan x="0" y="0">Compl</tspan><tspan class="cls-49" x="24.89" y="0">e</tspan><tspan x="29.22" y="0">xity</tspan></text>
    <text class="cls-38" transform="translate(222.62 76.09)"><tspan x="0" y="0">Simple</tspan></text>
    <text class="cls-38" transform="translate(222.62 93.37)"><tspan x="0" y="0">Compl</tspan><tspan class="cls-40" x="23.12" y="0">e</tspan><tspan x="27.33" y="0">x</tspan></text>
  </g>
  <g class="cls-18">
    <g class="cls-3">
      <g class="cls-16">
        <g class="cls-17">
          <rect class="cls-41" x="187.1" y="63.6" width="19.6" height="98.4"/>
        </g>
        <g class="cls-27">
          <rect class="cls-33" x="-15.1" y="-.6" width="266.4" height="165.6"/>
        </g>
        <g class="cls-26">
          <rect class="cls-41" x="187.1" y="63.6" width="19.6" height="41.02"/>
          <rect class="cls-42" x="187.76" y="64.58" width="17.28" height="17.28"/>
          <rect class="cls-48" x="187.76" y="64.58" width="17.28" height="17.28"/>
          <rect class="cls-46" x="188.46" y="65.29" width="15.86" height="15.86"/>
          <rect class="cls-42" x="187.76" y="81.86" width="17.28" height="17.28"/>
          <rect class="cls-47" x="187.76" y="81.86" width="17.28" height="17.28"/>
          <rect class="cls-45" x="188.46" y="82.57" width="15.86" height="15.86"/>
        </g>
        <g class="cls-23">
          <text class="cls-38" transform="translate(209.02 76.09)"><tspan x="0" y="0">Simple</tspan></text>
          <text class="cls-38" transform="translate(209.02 93.37)"><tspan x="0" y="0">Compl</tspan><tspan class="cls-40" x="23.12" y="0">e</tspan><tspan x="27.33" y="0">x</tspan></text>
        </g>
      </g>
    </g>
    <line class="cls-10" x1="187.8" y1="73.3" x2="204.8" y2="73.3"/>
    <line class="cls-29" x1="188" y1="89.9" x2="204.6" y2="89.9"/>
    <rect class="cls-41" x="187.1" width="54.9" height="62.4"/>
  </g>
  <g class="cls-24">
    <rect class="cls-33" x="-15.1" y="-.6" width="266.4" height="165.6"/>
  </g>
  <g class="cls-25">
    <text class="cls-39" transform="translate(.62 110.07)"><tspan x="0" y="0">0.4</tspan></text>
    <text class="cls-39" transform="translate(.62 76.21)"><tspan x="0" y="0">0.6</tspan></text>
    <text class="cls-39" transform="translate(.62 42.36)"><tspan x="0" y="0">0.8</tspan></text>
    <text class="cls-39" transform="translate(.62 8.5)"><tspan x="0" y="0">1.0</tspan></text>
    <text class="cls-39" transform="translate(15.71 147.96)"><tspan x="0" y="0">4.0</tspan></text>
    <text class="cls-39" transform="translate(52.54 147.96)"><tspan x="0" y="0">4.5</tspan></text>
    <text class="cls-39" transform="translate(89.36 147.96)"><tspan x="0" y="0">5.0</tspan></text>
    <text class="cls-39" transform="translate(126.19 147.96)"><tspan x="0" y="0">5.5</tspan></text>
    <text class="cls-39" transform="translate(163.01 147.96)"><tspan x="0" y="0">6.0</tspan></text>
    <text class="cls-37" transform="translate(59.77 157.76)"><tspan x="0" y="0">Child A</tspan><tspan class="cls-44" x="28" y="0">g</tspan><tspan x="32.96" y="0">e (</tspan><tspan class="cls-35" x="42.3" y="0">y</tspan><tspan x="46.67" y="0">ea</tspan><tspan class="cls-49" x="55.57" y="0">r</tspan><tspan x="58.56" y="0">s)</tspan></text>
  </g>
  <g class="cls-22">
    <rect class="cls-41" x="187.1" y="38.97" width="54.9" height="23.43"/>
  </g>
  <g class="cls-28">
    <text class="cls-37" transform="translate(187.76 51.08)"><tspan x="0" y="0">Spee</tspan><tspan class="cls-35" x="19.12" y="0">c</tspan><tspan x="23.49" y="0">h</tspan></text>
    <text class="cls-37" transform="translate(187.76 59.72)"><tspan x="0" y="0">Compl</tspan><tspan class="cls-49" x="24.89" y="0">e</tspan><tspan x="29.22" y="0">xity</tspan></text>
    <text class="cls-38" transform="translate(209.02 76.09)"><tspan x="0" y="0">Simple</tspan></text>
    <text class="cls-38" transform="translate(209.02 93.37)"><tspan x="0" y="0">Compl</tspan><tspan class="cls-40" x="23.12" y="0">e</tspan><tspan x="27.33" y="0">x</tspan></text>
  </g>
</svg>