<?xml version="1.0" encoding="utf-8"?>
<!-- Generator: Adobe Illustrator 27.7.0, SVG Export Plug-In . SVG Version: 6.00 Build 0)  -->
<svg version="1.1" id="Layer_1" xmlns="http://www.w3.org/2000/svg" xmlns:xlink="http://www.w3.org/1999/xlink" x="0px" y="0px"
	 viewBox="0 0 263.1 254.4" style="enable-background:new 0 0 263.1 254.4;" xml:space="preserve">
<style type="text/css">
	.st0{fill:#3BD23D;}
	.st1{fill:#C6F1C6;}
	.st2{fill:#A7EAA8;}
	.st3{fill:#BBEFBC;}
	.st4{fill:#EAFAEA;}
	.st5{fill:#F8FDF8;}
	.st6{fill:#D2F4D2;}
	.st7{fill:#C7F2C8;}
</style>
<g>
	<path class="st0" d="M261.1,230.3c0,2.7-1.1,4.6-3.9,4.6c-9.7,0-15.3,6.6-21,12.9c-1.4,1.5-2.3,4.3-4.8,2.6c-2.2-1.5-1.8-4-0.2-6.1
		c4.7-6.1,9.5-12.1,17.3-14.6c1.1-0.4,4.2,0.1,3.4-2.4c-0.6-2.1-1.7-4.6-5-4.3c-9.6,0.9-18.6-1.3-26.9-6
		c-10.6-6-18.9-14.5-25.8-24.4c-13.1-18.8-21.2-40-29.1-61.2c-3.9-10.5-6.6-21.3-11.2-31.5c-0.7-1.5-1.8-3.3,0.3-4.2
		c2.2-1,4,0.6,4.8,2.5c2.2,5,4.3,10.1,6.1,15.3c6.9,19.4,14.5,38.5,24.1,56.7c6.2,11.7,13.2,22.8,22.7,32.2
		c9,8.9,20.2,13.3,32.3,16.1c2,0.5,2.5-0.2,1.5-2.4c-1.9-4.1-4.1-8.1-5.6-12.4c-2.1-6.3-4.7-12.4-5-19.2c-0.1-3.6,1.4-4.8,4.7-4.4
		c0.8,0.1,1.8-0.3,2.1,0.7c0.4,1,0.2,2.2-0.8,2.6c-2.5,1.1-1.2,2.9-0.8,4.3c4.1,13.6,10.3,26.2,18.6,37.7
		C261.1,228.4,261,228.5,261.1,230.3z"/>
	<path class="st0" d="M98.1,59.8c2.3,0.5,2,2.3,2,3.9c0,3.7,0,7.3,0,11c0,2.2,0.4,4.5,3.1,3.7c1.9-0.6,6,0.3,4.9-4.3
		c-0.7-3.2-1.1-6.4-1.6-9.6c-0.2-1.1-0.4-2.3-0.4-3.4c0-1.3,0.8-2.1,2.1-2.4c1.7-0.3,1.5,1,2,2.1c1.8,3.7,1.5,7.9,2.7,11.8
		c0.8,2.4,1.2,3.2,4,2.3c3.5-1.2,7.3-1.7,11-2.2c2.2-0.3,5.2-0.5,6,2c0.8,2.8-2.2,4.2-4.2,4.5c-3.4,0.6-6.4,2.3-9.9,2.5
		s-6,1.6-4.1,6c1.2,2.6,0.3,5.6,0.4,8.4c0,0.9,0.4,2.1-1,2.4s-2.2-0.5-2.8-1.6c-1.7-2.9-1-6.4-2-9.5c-0.4-1.4,0-3.2-2.3-2.8
		c-2.2,0.4-4.9-0.3-5.9,2.5c-0.8,2.2-1.9,3.6-3.5,1.1c-1.6-2.6-3-1.7-4.9-1c-2.5,0.9-4.5-0.2-5.3-2.4c-1-2.7,1.2-3.3,3.3-3.6
		c5-0.6,5.5-3.9,3.9-7.6c-1.7-3.9,0.9-7.4,0.4-11.1C97.3,62.2,98.1,61.2,98.1,59.8z"/>
	<path class="st0" d="M146.4,26.7c2.4-5.9,0.9-11.8,2.7-17.2c0.6-1.9,0.9-4.3,3.6-3.5c2.4,0.7,1.3,2.9,1,4.5
		c-0.8,5.8-1.8,11.6-1.7,17.6c0,1.2-0.1,2.3,0,3.5c0.4,2.9-1.4,5.8-2.9,6.7c-1.6,1-3.5-2.3-4.9-4c-3.3-3.9-4.1-9.3-7.6-14.3
		c-1,6.2-1.9,11.4-2.5,16.6c-0.2,1.7-0.8,3.2-2.2,3.6c-1.6,0.5-2.3-1.3-3-2.5c-4.7-8.2-6.9-17.4-9.8-26.3c-0.3-0.9-0.5-2.1,0.9-2.3
		c1.2-0.2,2.4-0.5,3,1.5c1.3,4.3,3.3,8.4,4.8,12.7c0.4,1,0.6,2.3,1.6,2.2c1.3-0.1,1.6-1.4,1.5-2.6c-0.1-3.3,1.3-6.3,2-9.5
		c0.4-1.8,1.5-2.3,3.2-2.4s2.6,0.5,3.4,2C142,17.2,143.1,22.3,146.4,26.7z"/>
	<path class="st0" d="M66.1,23.8c-3.7,3.1-4.3,7.8-5.8,11.9c-0.7,1.8-1.1,3.7-1.9,5.4c-0.7,1.5-1.3,3.4-3.2,2.8
		c-1.7-0.5-1.4-2.9-0.9-4c2.5-5,0-7.9-3.8-10.5c-1.1-0.8-2.4-1.7-3-3.4c-2.1,4.1-1.8,8.4-0.9,12.3c0.5,2.4,0.1,4.7-1.2,4.9
		c-2,0.4-2.9-1.7-3.3-4c-1.2-7.3-1.7-14.6,0-21.9c0.2-1-0.5-2.5,1.4-2.6c1.6-0.1,2.5,1.1,3.1,2.1c2.8,4.5,6.1,8.5,10.6,12.1
		c1.3-3.5,2.6-6.7,3.8-9.9c0.3-0.8,0.6-1.5,1-2.2c1.4-3.1,3.8-6.1,6.9-5.7c1.9,0.3,1.9,4.6,2.1,7.3c0.6,8,0.9,15.9,2.8,23.8
		c0.3,1,0.7,2.5-0.5,3.2c-1.4,0.8-2.4-0.4-3.4-1.3c-2.5-2.4-2.4-5.9-2.7-8.7C67,31.6,66.2,27.7,66.1,23.8c0.2-0.2,1,0,0.4-0.8
		C66.4,23.3,66.2,23.6,66.1,23.8z"/>
	<path class="st0" d="M38,79.6c0.7-4,1.4-8,2-12c0.3-2,1.1-3,3.2-3c2.3,0,2.6,1.9,2.8,3.3c0.6,4.9,3.6,8.7,6.1,13
		c0-4.9-0.1-9.8,0-14.6c0.1-2-1.1-5.2,1.9-5.3c3.1-0.1,1.7,3.2,2.1,5.1c1.5,7.8,0.1,15.7,1.9,23.5c0.2,1,0.7,2.5-1,2.8
		c-1.6,0.3-3.2,0.4-4.6-1c-2.7-2.7-4-6.3-6.1-9.4c-0.7-1-1.2-2.3-2.1-4.2c-1,3.8-3.2,6.6-1.4,9.7c1.5,2.8-2.1,4.3-1.2,7
		c0.3,0.9-1.3,0.4-2.1-0.2c-2.6-2.2-3.7-5.4-5-8.3C32,80.4,30,74.6,27.9,68.8c-0.6-1.7-1.8-4,0.7-5c3.1-1.3,2.8,2.1,3.5,3.5
		C33.9,71.4,34.3,76.2,38,79.6c0.2,0.2,0,1,0.7,0.4C38.5,79.8,38.3,79.7,38,79.6z M43.6,76.8l-0.2,0.3h0.3L43.6,76.8z"/>
	<path class="st0" d="M232.1,3.7c-0.3,4.3-2.9,6.9-3.9,10c-0.4,1.2-2.5,1.6-1.3,3.2s3.2,1.1,4.6,0.8c5.5-1.5,11.2-2.3,16.3-4.8
		c2.3-1.1,4.6-1.4,7.4-0.6c-1.1,2.6-2.8,4.5-5,5.4c-8.5,3.7-16.7,8.4-26.5,7.1c-1.1-0.1-2.3,0-3.5,0c-2.4-0.1-4,0.2-2.6,3.3
		c0.8,1.9,1.4,4.7-1.3,5.5c-3.2,0.9-3.6-2.3-4.1-4.3c-2.1-7.8-0.7-15.7-1.1-23.6c-0.1-1.5,0.7-2.5,2.3-2.7c1.8-0.2,1.3,1.3,1.7,2.3
		c1.1,2.5,0.8,5.1,1,7.8c0.1,1.4-0.7,3.3,0.9,4.1c1.8,0.9,2.5-1.2,3.4-2.1c2-2.1,4.2-4.3,5.6-6.8C227.3,5.7,229.2,4.6,232.1,3.7z"/>
	<path class="st0" d="M187.5,26.1c-1.3,3.2,0.5,6.4,0.6,9.6c0,1,0.6,2.5-0.9,2.9s-2.6-0.5-3-1.9c-0.7-2.5-1.8-4.9-1.9-7.4
		c-0.3-5.6-0.1-11.3-0.1-16.9c0-2.7,0.9-4.4,3.9-3.1c2.5,1.1,4-1,5.7-1.8c3.1-1.5,6.1-3,9.7-2.7c3.6,0.2,4.1,2.2,3.2,5
		c-1.2,3.5-3.9,6-6.5,8.5c-0.6,0.6-2.3,0.4-1.9,1.8c0.3,1.2,1.4,1.9,2.7,1.7c1.9-0.4,3.4,0.9,5.2,1.1c2.7,0.3,5.2,2.3,4.6,4.7
		c-0.5,1.9-3.6,2.1-6.1,1.6C197.7,27.9,192.6,27.1,187.5,26.1z M194.1,13c-0.7-0.2-0.9,0.3-1.1,0.8c-0.3,0-0.6,0.1-0.9,0.2
		c-0.6-0.2-0.9,0.2-1,0.7c-0.7,0.3-1.8-0.2-1.8,1.1c0.1,0.2,0.1,0.5,0.2,0.7c0.3-0.2,0.5-0.4,0.8-0.6c0.3,0,0.6-0.1,0.9-0.2
		c0.6,0.2,0.9-0.2,1-0.7c0.8-0.2,1.8,0.1,2-1c0.2-0.2,0.4-0.5,0.7-0.7C194.6,13.1,194.3,13,194.1,13z"/>
	<path class="st0" d="M100.9,29.7c-2.5,6.1-6.3,10.6-10.9,14.5c-3,2.5-6.3,1.5-7.8-2.3c-0.8-2.1-1.4-4.3-1.2-6.7
		c0.5-5.3-0.6-10.4-1.6-15.5c-0.3-1.5-0.5-2.9,0.9-3.4c7.2-2.9,14.2-6.3,22.2-7.7c-0.3,3.9-2.9,5.2-5.6,6.3c-3.3,1.3-6.5,3-10,3.9
		c-2.7,0.7-2.1,2.2-1.7,3.7c0.6,2,2.2,0.8,3.2,0.4c2.7-1.2,5.2-2.6,7.8-3.9c0.7-0.3,1.4-0.9,2.1,0c0.8,1.1-0.3,1.4-0.8,1.9
		c-2.7,2.7-6.1,4.3-9.4,6.1c-1.7,0.9-1.9,8.2-0.4,9.3c1.3,0.9,1.6-0.5,2.4-1C93.5,33,96.4,30.2,100.9,29.7z"/>
	<path class="st0" d="M198,66.1c-2.9,2.4-4,4.4-2.2,8.6c2.6,5.9-4.4,13.5-11,12.8c-3.1-0.3-4.1-2.6-3.6-5.3c0.3-1.7,1-3.5,2.1-4.8
		c2.5-3.2,1-3.6-2.1-3.8c-6.3-0.4-8.9-3.9-8.1-10.4c0.8-6.3,4.3-10.5,8.8-10.5c1.1,0,2.9-0.8,3.1,1.3c0.2,1.6-0.1,3.2-1.9,3.5
		c-3.9,0.6-4.1,4-4.9,6.5c-0.8,2.3-0.1,4,3.2,4.7c5.3,1.1,9.9,1.3,14-2.9c0.3-0.3,0.9-0.2,1.4-0.2C197.2,65.7,197.5,65.9,198,66.1z
		 M191.2,76.4c-0.1-0.1-0.1-0.3-0.3-0.4c-0.1-0.1-0.3-0.1-0.4-0.1c-1.6,1-2,2.6-2.6,5.2c1.5-1.7,2.4-2.6,3.2-3.5
		C192.1,77.3,192.1,76.9,191.2,76.4z"/>
	<path class="st0" d="M157,30.9c0.4-7.3,3.2-13.8,6.7-20.1c0.8-1.5,2.4-2.6,4.2-3.4c4.4-1.7,7.5,0,7.2,4.6c-0.6,8.2-2.8,16-8.2,22.4
		c-1.8,2.2-3.9,5.1-7.3,3.9C156.1,37.1,157.2,33.6,157,30.9z M163.8,29.6c5.1-4.8,5.7-11.3,7.2-17.5c0.2-0.7-0.3-1.2-1.1-1.3
		c-0.7,0-1.5,0-1.7,0.7C166.6,17.5,162.9,23,163.8,29.6z"/>
	<path class="st0" d="M161,81.6c3.2-6,3.7-12.1,2.8-18c-0.4-2.3,0-4.9-1.3-7.1c-0.9-1.4,0.3-2.2,1.3-2.7c1.2-0.5,2,0.1,2.6,1.4
		c2.1,4.9,2.5,10.1,2.6,15.2c0,3-1,6.1-1.9,8.9c-1.1,3.2-2.9,6-6.7,6.4c-3.7,0.4-5.9-2.5-7-5c-3-6.8-3-14.2-3.2-21.6
		c0-1.4,0.8-1.6,2-1.6c2.1,0,2.8,1,3.1,3.1c0.5,4.8,1.4,9.6,1.9,14.5C157.4,77.8,158.5,79.8,161,81.6z"/>
	<path class="st0" d="M21,37.7c1.1-6.3,3-12.5,5.9-18.3c1.2-2.4,6.5-1.3,8.2,1.4c1.4,2.1,1.3,4.5,0.8,6.7c-1.1,4.5-2.3,9-4.8,13.1
		c-1.4,2.3-3,4.3-6,3.5C22,43.3,20.5,41.1,21,37.7z M28.1,35.7c2.3-3.5,3.4-7.5,4-11.6c0.1-0.7,0.3-1.8-0.7-2.1
		c-0.5-0.1-1.6,0.4-1.6,0.7C29.1,27.1,26.2,31.1,28.1,35.7c-0.2,0.2-1,0-0.4,0.8C27.8,36.2,28,35.9,28.1,35.7z"/>
	<path class="st0" d="M3.1,38.9C3.9,30.8,5.8,23,8.9,15.5c0.8-2,2-3.1,4.1-2.5c2.3,0.7,1.4,3,1,4.2c-2.4,5.9-3.1,12.2-4.6,18.3
		c-0.1,0.3-0.2,0.7-0.1,1c0.6,2.1-1.5,5.2,1.2,6.1c2.4,0.8,3.3-2.1,4.4-3.8c0.6-0.9,1.2-1.9,2-2.7c0.3-0.3,1.3-0.2,1.8,0
		c0.9,0.4,0.4,1.1,0.1,1.6c-1.3,2-2.4,4.3-4.1,6c-1.8,1.9-3.4,5.4-6.8,3.8C4.6,45.8,2.6,42.8,3.1,38.9z"/>
	<path class="st0" d="M98.1,59.8c0,1.4-0.8,2.4-2.1,2.9c-4.5,1.1-8.6,3.9-13.4,4c-2.1,0.1-1.4,1.9-1.5,3c-0.2,5.1,1.6,9.9,2.6,14.8
		c0.4,2,0.1,3.8,0.5,6.2c-6-2.3-4.6-7.5-6-11.3c-0.4-1-0.1-2.3-0.3-3.4c-0.9-4-3.1-7.3-6.8-10.3c-0.4-0.4-0.7-0.8-1.1-1.2
		c0.4-1.1-0.2-3.7,1.5-2.8c6.4,3.3,12-0.8,17.9-1.3C92.3,60.2,95.2,59.4,98.1,59.8z"/>
	<path class="st0" d="M226.9,74.7c-2.5-2.4-4.2-4.4-4.8-7.2c-1.1-5.2-2.4-10.4-2-15.8c0.1-1.4-0.5-3.1,2-3.1c2,0,1.9,1.2,2,2.6
		C225.1,58.7,227.8,66,226.9,74.7z"/>
	<path class="st0" d="M67,64.6c0.4,0.4,0.7,0.8,1.1,1.2c-2.6-0.4-1.9,1.6-1.9,2.9C66,73.9,66.9,79,67.9,84.2
		c0.4,1.9,0.1,3.9,0.1,6.2c-0.7-0.5-1.4-0.7-1.7-1.2c-3.6-7.5-4.8-15.5-3.9-23.6C62.6,62.8,65.1,63.5,67,64.6z"/>
	<path class="st0" d="M232.4,82.5c3.2,0.1,4.5,1.1,2.9,4.6c-2.6,5.7-5.7,7.7-9.4,5.4c-2.8-1.7-3.2-4.8-0.4-6.6
		C227.6,84.6,229.4,82.4,232.4,82.5z"/>
	<path class="st1" d="M66.1,23.8c0.1-0.3,0.3-0.5,0.4-0.8C67.1,23.8,66.3,23.6,66.1,23.8L66.1,23.8z"/>
	<polygon class="st2" points="43.6,76.8 43.7,77.2 43.4,77.1 	"/>
	<path class="st3" d="M38,79.6c0.2,0.1,0.5,0.3,0.7,0.4C38.1,80.6,38.3,79.7,38,79.6C38.1,79.5,38,79.6,38,79.6z"/>
	<path class="st4" d="M189.3,15.8c0.3,0,0.6,0,1,0.1c-0.3,0.2-0.5,0.4-0.8,0.6C189.4,16.3,189.3,16,189.3,15.8z"/>
	<path class="st5" d="M194.1,13c0,0.3,0,0.5-0.1,0.8c-0.4,0-0.7,0-1.1,0C193.2,13.2,193.4,12.8,194.1,13z"/>
	<path class="st6" d="M191.2,77.7c0-0.4,0-0.8,0-1.2C192.1,76.9,192.1,77.3,191.2,77.7z"/>
	<path class="st7" d="M28.1,35.7c-0.1,0.3-0.3,0.5-0.4,0.8C27,35.7,27.9,35.9,28.1,35.7L28.1,35.7z"/>
</g>
</svg>
