<?xml version="1.0" encoding="UTF-8"?>
<svg id="Layer_1" data-name="Layer 1" xmlns="http://www.w3.org/2000/svg" viewBox="0 0 127.69 65.51">
  <defs>
    <style>
      .cls-1 {
        fill: #221f20;
      }
    </style>
  </defs>
  <path class="cls-1" d="m12.22,34.66c.37.19.51.65.32,1.02-.12.23-.36.38-.62.4,0,0,.1-.02.06-.01-.04,0,.22-.11.16-.07-.07.04.27-.28.21-.19-.07.1.16-.46.14-.34-.02.12-.03-.37-.01-.3s-.07-.17-.05-.14c.03.06-.03-.05-.03-.05.05.07.26.31.52.6,1.01,1.46,2.19,3.7,3.69,6.68,1.25,2.54,2.46,5.5,3.74,8.27,1.18,2.66,2.32,4.97,3.37,6.92.95,1.98,1.78,3.55,2.48,4.74.65,1.11,1.17,1.84,1.46,2.1.22.2.23.53.03.75-.13.14-.33.2-.52.16-.76-.18-1.52-.91-2.43-1.97-.96-1.12-2.04-2.64-3.21-4.51-1.15-2.05-2.34-4.4-3.58-7.08-1.28-2.85-2.47-5.8-3.64-8.24-1.41-3.01-2.5-5.26-3.22-6.48-.24-.53-.44-.89-.4-1.45.01-.15.05-.34.18-.54.14-.22.43-.4.68-.43.23-.03.37.02.47.06.09.03.15.06.22.1"/>
  <path class="cls-1" d="m24.82,63.66c.02-.11.05-.22.09-.32.13-.3.18-.31.23-.38.28-.33.69-.52,1.12-.53.05,0,.37-.04.7-.13.06-.01.32-.15.77-.44.54-.37,1.6-1.26,4.02-3.15,1.28-1,2.96-2.31,5.2-3.98,2.37-1.76,5.3-3.97,8.98-6.51,2.61-1.76,5.49-3.84,8.8-5.95,3.41-2.18,7.2-4.39,11.35-6.63,3.75-2.03,7.65-3.93,11.64-5.63,2.27-.97,4.61-1.84,7-2.67,1.89-.58,3.68-1.2,5.51-1.71,3.92-1.19,7.7-1.99,11.06-2.62,3.06-.54,5.7-.89,7.87-.98,2.37-.12,4.53-.21,6.47-.18,2.5,0,4.49.15,6.1.39,1.57.26,2.78.61,3.82.95.31.09.64.19.95.29.19.06.36.16.49.31.19.21.36.4.55.6.2.21.2.55-.02.75-.05.05-.11.09-.18.11-.26.1-.53.2-.8.29-.19.07-.39.08-.58.04-.33-.07-.66-.14-1-.21-.99-.17-2.11-.34-3.53-.44-1.51-.13-3.37-.18-5.78-.09-1.81.09-3.89.3-6.26.55-1.91.23-4.4.71-7.33,1.38-3.29.72-6.91,1.58-10.63,2.82-1.59.57-3.31,1.3-5.16,2.01-2.4.82-4.66,1.65-6.8,2.55-3.84,1.63-7.62,3.47-11.25,5.44-4.06,2.2-7.76,4.36-11.06,6.47-3.19,2.04-6.04,4.07-8.7,5.87-3.66,2.42-6.58,4.53-9.02,6.24-2.26,1.58-3.96,2.81-5.31,3.75-2.52,1.76-3.73,2.57-4.79,3.02-.47.22-1.05.52-1.88.56-.65.02-1.2.01-1.84-.3-.39-.19-.67-.54-.78-.95-.03-.13-.09-.23-.03-.61m2.09-.92c.42-.03.78.28.81.69.03.42-.28.78-.69.81-.38.03-.58.08-.59.09-.38.17-.83,0-1-.37-.17-.38,0-.83.37-1,.31-.14.64-.18,1.11-.22"/>
  <path class="cls-1" d="m2.35,19.41c.37.19.51.65.32,1.02-.19.36-.62.51-.98.34-.6-.28-.93-.74-1.07-.94l.24.21s.24.09.17.07c-.11-.03.65-.08.46-.02-.1.03.37-.25.28-.17-.08.08.22-.33.18-.25-.05.1.07-.25.07-.21-.02.1.01-.11.01-.11,0,0,0,.1.01.22.02.27.07.7.16,1.24.12,1.25.18,2.66.3,4.05.05,2.33.05,4.31.17,5.48.03.26.06.47.09.58q.01.05.02.06s-.26-.22-.15-.15-.45-.05-.36-.07c.08-.02-.09.04-.08.03.05-.04.19-.21.34-.47.15-.25.47-.34.72-.2.23.13.33.41.23.65-.13.34-.25.6-.39.82s-.37.52-.83.52-.75-.33-.91-.59c-.16-.26-.26-.54-.35-.86-.39-1.35-.58-3.35-.84-5.57-.08-1.52-.1-2.95-.16-4.04,0-.72.06-1.24.19-1.68.07-.22.09-.46.48-.73.11-.08.27-.16.51-.16.26,0,.59.18.72.39.21.33.12.33.13.38l-.11-.31c.1.17.23.35.43.45"/>
  <path class="cls-1" d="m2.25,20.83c.38-.17.83,0,.99.38.16.36.01.79-.34.97-.24.12-.42.21-.61.28-.09.03-.18.06-.33.07-.16,0-.51,0-.76-.33-.47-.62-.09-.95.03-1.13.11-.17.24-.32.39-.48.64-.67,1.66-1.49,2.78-2.29.96-.68,1.95-1.21,2.77-1.6.49-.22.89-.42,1.33-.55.23-.07.49-.13.84-.06.37.07.78.41.93.75.25.58.06.95-.06,1.28-.12.33-.28.67-.46,1.04-.6,1.3-1.74,2.63-2.78,3.85-.76.89-1.45,1.65-1.96,2.2-.16.24-.38.48-.47.6-.02.02-.01.01-.02.02-.01.02.12-.28.08-.17-.02.06.07-.39.06-.27,0,.06-.01-.32,0-.23s-.13-.43-.08-.31-.33-.46-.22-.35c.16.17-.77-.4-.58-.35.09.02-.27-.04-.22-.04s-.15,0-.12,0c.37,0,.72.15.96.43.1.11-.4-.3-.3-.25.13.07-.38-.13-.31-.11.06.01-.14-.01-.12-.01.03,0,.02,0,.11-.01.2-.03.5-.1.82-.15.4-.07.86-.15,1.33-.23.33-.06.66-.11.98-.17.35-.06.67-.12.98-.18.31-.07.6-.13.87-.21.17-.04.3-.08.42-.12.16-.04.27-.08.38-.11.52-.17,1.09-.02,1.44.4.05.06.08.07.18.25.02.04.04.07.05.11.09.23.08.31.09.43.03.54-.27,1.05-.76,1.29-.16.08-.32.15-.49.21-.2.07-.37.13-.54.18-.39.11-.74.19-1.1.26s-.72.13-1.07.19c-.38.05-.73.09-1.06.13-.51.05-.98.09-1.39.12-.2.02-.5.08-.83.11-.17.02-.34.03-.57,0-.25-.03-.72-.05-1.1-.64-.2-.31-.25-.7-.13-1.05.11-.34.38-.58.52-.67.12-.08.17-.09.2-.1s.04-.02.06-.02c.03-.01.07-.03.12-.05.11-.05.28-.15.46-.31.42-.47,1.1-1.21,1.83-2.07,1.03-1.2,2.09-2.48,2.53-3.41.16-.36.3-.66.36-.86.03-.09.04-.13.04-.14,0,0,0,.13,0,.08s.11.31.07.22c-.03-.07.33.33.22.26-.11-.08.39.13.31.12-.08,0,.14,0,.13,0,0,0-.02,0-.06.02-.18.06-.57.26-1.06.48-.8.34-1.71.78-2.57,1.34-1.08.69-2.1,1.45-2.66,1.95-.13.11-.22.2-.26.25-.02.02.04-.06.01-.02-.01.03.08-.21.06-.14-.02.08-.03-.54,0-.38.04.17-.41-.53-.29-.44.09.07-.31-.13-.24-.12.09.02-.21-.02-.18-.02s-.04,0-.04,0c.03,0,.17-.05.37-.14"/>
  <path class="cls-1" d="m16.32,28.87c-.56.48-1.41.42-1.89-.15-.48-.56-.42-1.41.15-1.89.18-.16.41-.26.65-.3.14-.02-.27.07-.23.06.12-.04-.1.04-.08.03.02,0,.06-.03.1-.05.08-.03.15-.06.23-.08,1.19-.3,5.21-2.02,7.46-3.46.25-.16.58-.08.73.16.13.21.1.49-.08.66-2.07,2.03-5.96,4.17-6.96,4.96-.07.05-.14.1-.21.14-.02.01.12-.08.05-.04-.02.01.12-.1.08-.06m-1.81-12.65c.39-.15.83.04.98.43.1.25.06.53-.11.74-.06.08.09-.19.09-.16,0,.02,0-.02,0,0v.28c.01.29.05.69.12,1.15.14.97.35,2.17.57,3.33.28,1.8.45,3.37.59,4.4.06.44.11.78.14.92l.03.21c.03.63-.3,1.08-.52,1.29-.05.05-.11.09-.16.13-.6.43-1.44.29-1.87-.31-.29-.4-.33-.93-.11-1.37.15-.32.14-.23.15-.24.02-.03-.17.33-.12.21.05-.13-.05.66-.07.49v-.21c0-.16.01-.47,0-.91-.05-1.04-.13-2.57-.31-4.29-.09-1.22-.19-2.46-.19-3.52,0-.52.01-.98.08-1.39.03-.2.08-.39.16-.59.09-.2.22-.46.58-.6"/>
  <path class="cls-1" d="m16.34,23.07c-.37.19-.82.05-1.02-.32-.19-.37-.05-.82.32-1.02.02,0,.03-.02.05-.02,2.11-.92,5.3-2.58,7.12-3.55.26-.14.58-.04.72.22.13.24.05.55-.18.7-1.76,1.13-4.89,2.89-7,3.99"/>
  <path class="cls-1" d="m16.77,17.23c.35.23.44.7.21,1.05-.15.23-.41.36-.69.33-.11,0-.23-.02-.41-.1-.2-.1-.47-.36-.53-.67-.12-.59.18-.87.38-1.09.05-.05.11-.1.17-.15,1.12-.77,3.26-1.57,5.2-2.73.83-.39,1.53-.77,2.1-1.17.24-.17.57-.12.74.12.14.19.13.45-.01.64-.5.64-1.16,1.24-1.87,1.8-2.12,1.36-4.4,2.38-5.01,2.87-.06.05-.12.09-.19.12-.06.03-.1.05-.11.06,0,0,.18-.19.1-.09-.04.05.17-.38.14-.26-.04.12-.02-.51,0-.39.03.11-.18-.32-.13-.26.04.05-.12-.1-.1-.09"/>
  <path class="cls-1" d="m29.14,23.85c.28.39.18.94-.21,1.21s-.94.18-1.21-.21c-.28-.39-.18-.94.21-1.21.29-.2.67-.21.97-.02.14.09-.32-.12-.26-.11.09.02-.24-.02-.2-.02.12,0-.18.03-.17.03,0,0,.29-.15.67-.44.24-.17.57-.12.74.12.13.18.14.43,0,.62-.27.39-.41.66-.41.67s.02-.16.02-.1c0,.03-.01-.21,0-.14,0,.03-.04-.18-.03-.13.02.06-.22-.39-.12-.26m-.82-12.1c.09,0,.18.04.26.08.58.25.51.45.58.61.07.15.1.29.12.42.04.26,0,.52-.12.76-.34.67-.9,1.49-1.45,2.38-.59.96-1.1,1.94-1.34,2.61-.16.34-.21.49-.21.52,0,0-.01-.15,0-.08s-.19-.38-.12-.28l-.18-.18c.08.06-.28-.15-.22-.12.09.03-.18-.03-.16-.03h.05c.12-.02.35-.1.63-.21.59-.24,1.33-.61,2.08-.95.87-.38,1.71-.77,2.52-.98.34-.09.66-.19,1.05-.23.2-.02.45-.03.75.07.31.1.64.38.79.7.41.77.1,1.39-.11,1.95-.21.56-.49,1.11-.74,1.63-.62,1.26-1.45,2.42-2.16,3.32-.55.69-.97,1.16-1.16,1.35-.4.41-1.06.43-1.47.03-.39-.37-.43-.98-.09-1.4.17-.21.55-.64,1.04-1.28.66-.84,1.41-1.91,1.91-2.95.26-.53.53-1.05.69-1.46.08-.19.12-.35.14-.44,0-.03,0,0,0-.02,0-.03.1.29.06.19-.02-.04.32.34.23.28-.09-.07.33.15.26.13-.08-.02.16.02.14.02s.02,0,0,0c-.1.02-.39.1-.77.21-.56.15-1.34.5-2.19.88-.72.32-1.48.68-2.2.95-.35.13-.69.25-1.06.3-.37.06-.89.11-1.38-.33l.21.15c-.47-.24-.75-.77-.83-1.21-.07-.43-.01-.84.09-1.24.4-1.07.99-2.13,1.65-3.18.56-.91,1.11-1.77,1.31-2.19.12-.23.3-.43.53-.55.16-.09.05-.31.86-.2"/>
  <path class="cls-1" d="m37.09,11.11c.41.04.71.42.67.83-.04.34-.3.61-.63.66-.05,0,.25-.18.2-.12-.04.05.04-.07.03-.03-.02.12-.02.42.03.81.11.84.39,1.99.68,3.18.37,1.74.64,3.35.86,4.5.06.46.1.79.14,1.09.08.36.05.74.06.82,0,0-.03-.14-.01-.08,0,.04-.07-.21-.05-.15.03.07-.2-.34-.14-.24.06.08-.41-.37-.29-.28s-.55-.22-.41-.18c.13.03-.43-.03-.34-.03s-.25.04-.2.03c.26-.04-.03.02-.02,0,.1-.05.97-.85,1.93-1.66.81-.65,1.68-1.28,2.58-1.9,2.02-1.12,3.99-2.1,5.64-2.89.26-.13.58,0,.71.25.1.21.05.47-.13.63-1.37,1.21-3.08,2.59-4.64,4-.94.71-1.73,1.33-2.42,1.93-.49.41-.95.86-1.41,1.26-.45.4-.83.86-1.73.99-.39.02-.7-.02-1-.21-.32-.2-.52-.53-.6-.77-.15-.45-.08-.65-.06-.8.03-.27.06-.42.05-.51-.03-.16-.09-.48-.16-.87-.15-1.25-.34-2.84-.61-4.51-.17-1.25-.34-2.47-.33-3.53,0-.51.05-.99.26-1.44.11-.23.27-.46.52-.63.25-.16.56-.22.83-.19"/>
  <path class="cls-1" d="m39.65,18.16c-.16-.16-.25-.36-.26-.59-.04-.6.14-.56.19-.64.1-.14.19-.21.27-.29.05-.05.11-.09.17-.12.33-.19.88-.51,1.5-.94,1.48-.77,3.04-1.84,3.44-2.76.12-.27.43-.39.7-.27.22.1.35.33.31.56-.24,1.62-1.89,3.04-3.21,4.13-.8.52-1.4.85-1.79,1.05-.06.03-.13.06-.2.07-.13.03-.24.07-.44.06-.12,0-.23.18-.68-.28m.74-1.54c.4-.13.82.09.95.49.1.3,0,.64-.26.83-.06.05-.09.08-.1.08,0,0,.09-.12.05-.07-.02.03.1-.2.07-.14-.01.04.06-.21.04-.15,0,.03.02-.18.01-.13,0,.05-.04-.32-.02-.22.11.46-.19.92-.65,1.03s-.92-.19-1.03-.65c-.11-.46.19-.92.65-1.03.26-.06.53,0,.74.18.15.12-.34-.17-.28-.15.1.03-.25-.04-.2-.04.12,0-.13,0-.11,0s.07-.02.14-.04"/>
  <path class="cls-1" d="m38.66,14.07c-.59.45-1.43.34-1.89-.25-.31-.4-.37-.95-.14-1.41.28-.57.63-.81,1.02-1.12.44-.33.92-.63,1.48-.96.66-.34,1.31-.65,2-.97.67-.32,1.42-.67,2.19-1.01.37-.17.77-.35,1.17-.52.4-.17.8-.35,1.21-.52.4-.17.81-.33,1.22-.5.52-.21,1.12-.13,1.57.21.2.15.39.3.56.45.14.12.21.31.17.49-.04.21-.08.43-.13.66-.11.55-.51,1.01-1.04,1.2-.39.14-.78.28-1.18.43-.39.15-.79.3-1.18.46-.39.15-.78.31-1.15.47-.74.31-1.46.64-2.13.95-.63.31-1.22.61-1.74.9-.62.29-1.07.52-1.41.7-.37.19-.6.33-.6.33m.26-1.69c.42-.03.78.28.81.69.03.34-.18.65-.5.77-.37.13-.66.23-.87.29-.1.03-.18.06-.28.08-.1.02-.23.13-.68-.03-.56-.2-.84-.82-.64-1.38s.82-.84,1.38-.64.84.82.64,1.38c-.03.08-.07.16-.12.23-.06.09.18-.47.15-.34-.05.2-.09-.73-.03-.57.06.15-.27-.39-.2-.32.08.08-.24-.16-.2-.14s-.06-.02-.06-.02c.03,0,.26.03.6,0"/>
  <path class="cls-1" d="m53.85,19.17c.29.18.38.56.2.85-.18.29-.56.38-.85.2s-.38-.56-.2-.85c.12-.18.32-.29.54-.29.11,0-.23.04-.19.03.13-.04-.22.13-.19.11.06-.06-.04.04-.02,0,.15-.25.48-.33.73-.18.16.1.26.28.25.47v.04s-.03-.11-.02-.07c0,.02-.07-.13-.04-.09.01.02-.08-.11-.05-.08s-.24-.19-.15-.13m1.92-10.52c.17-.2.43-.3.7-.27.25.03.36.13.45.21.35.33.27.49.29.62.03.25,0,.47-.03.73-.24,1.18-.7,2.95-1.19,4.79-.44,1.55-.88,3.02-1.19,4.08-.26.6-.41.96-.65,1.25-.07.08-.02.22-.48.31,0,0-.05,0-.14,0-.12,0-.24-.04-.34-.1-.07-.04-.11-.08-.14-.11-.33-.3-.21-.4-.22-.5-.05-.38.02-.76.09-1.28.32-1.19.74-2.66,1.16-4.19.54-1.84,1.05-3.59,1.31-4.61.1-.31.17-.49.22-.62.02-.06.03-.1.09-.21.02-.03.03-.06.09-.13m.71,1.25c-.41.07-.8-.2-.88-.61-.01-.07-.02-.14,0-.21,0-.02,0,.24,0,.14-.04-.42.27-.79.69-.83s.79.27.83.69c.04.42-.27.79-.69.83-.15,0-.3-.02-.43-.09-.12-.06.38.09.3.09s.24-.02.19,0"/>
  <path class="cls-1" d="m57.23,4.96c.26.33.2.8-.13,1.06-.28.22-.68.21-.95-.02-.02,0,.11.08.08.05-.06-.04.52.1.34.09-.09,0,.42-.12.32-.07-.11.05.33-.28.26-.21-.09.11.15-.32.13-.26-.03.09.03-.19.03-.17s0-.03,0-.03c0,.03.05.23.12.48.16.55.45,1.34.81,2.18.58,1.34,1.52,2.75,2.37,3.98.72,1.11,1.32,1.95,1.81,2.65.5,1.02.77,1.81.65,2.51-.05.3-.34.5-.64.45-.18-.03-.33-.15-.41-.31-.14-.3-.54-.71-1.17-1.37-.57-.8-1.21-1.66-1.94-2.79-.81-1.33-1.74-2.87-2.33-4.45-.35-.92-.61-1.78-.75-2.44-.07-.32-.12-.57-.1-.86.01-.16-.06-.54.53-.78.29-.12.61,0,.75.09.12.08.17.15.22.21"/>
  <path class="cls-1" d="m53,18.61c.38-.18.83-.02,1,.36.17.36.03.79-.31.98-.52.29-.93.51-1.25.65-.15.07-.27.12-.4.17-.06.02-.12.04-.25.06-.17.02-.66,0-.91-.48-.32-.51-.02-.85.08-1.01.1-.15.19-.24.29-.33.2-.18.43-.35.7-.54.56-.39,1.27-.83,2.03-1.3,1.23-.71,2.58-1.46,3.98-2.2,1.46-.72,2.91-1.4,4.26-2.01,1.49-.49,2.74-.85,3.75-1.03.29-.05.56.14.62.43.04.21-.05.43-.24.54-.83.53-1.9,1.21-3.1,1.98-1.4.71-2.8,1.44-4.18,2.19-1.43.72-2.77,1.42-3.95,2.07-.84.43-1.59.79-2.15,1.08-.27.13-.48.25-.63.33-.07.04-.11.07-.13.07,0,0,.06-.05.04-.03-.02,0,.1-.11.07-.07-.03.04.17-.29.13-.19,0,0,.08-.51.08-.38,0,.19-.29-.65-.19-.52.1.12-.36-.26-.28-.23.08.04-.3-.08-.25-.07.05,0-.11,0-.09,0,.06,0,.02,0,.13-.04.24-.07.64-.23,1.14-.47"/>
  <path class="cls-1" d="m68.99,4.16c.39-.15.82.05.97.44.15.39-.05.82-.44.97-.04,0-.07.02-.11.03-.1.02.13-.1.09,0-.05.13-.11.38-.13.71.07.61.27,1.56.52,2.58.2,1.04.38,2.02.56,2.95.13.71.25,1.36.37,1.95.1.62.2,1.14.29,1.56.07.5.13.82.17.98.08.32-.01.66-.24.9-.03.04-.05.07-.18.15-.05.03-.11.06-.16.08-.16.06-.22.06-.28.06-.33.02-.64-.13-.84-.4-.25-.34-.39-.73-.55-1.19-.15-.56-.26-1.1-.38-1.71-.1-.66-.2-1.33-.29-2.04-.11-.97-.23-1.97-.34-2.97-.07-1.14-.09-2.18.04-3.05-.01-.31,0-.69.12-1.05.11-.37.36-.79.82-.96"/>
  <path class="cls-1" d="m69.81,8.33c.42,0,.74.36.73.78-.01.37-.3.68-.67.72-.24.03-.44.05-.69,0-.26-.04-.75-.31-.83-.79-.08-.45.1-.72.24-.93.14-.2.3-.36.48-.53.76-.7,1.91-1.44,3.18-2.25,1.42-.86,2.85-1.82,4.12-2.47.67-.31,1.2-.63,2.01-.61.44.04.82.24,1.04.5s.3.51.34.72c.08.4.04.73-.03,1.07-.14.69-.44,1.44-.9,2.18-.76,1.32-1.97,2.53-3.17,3.55-.99.84-2.01,1.39-2.73,1.79-.26.18-.46.33-.48.35-.02.02.18-.29.12-.18-.03.06.12-.41.09-.28-.02.13-.09-.71-.03-.51.06.21-.48-.65-.33-.53.14.12-.42-.24-.34-.21.05.02-.22-.06-.19-.06s-.04,0-.04,0c.08,0,.15.03.22.05.23.07,2.38.08,4.29-.03.71-.02,1.31-.02,1.86-.03.85.06,1.45.1,1.94.08.09,0,.19,0,.28.02.45.08.82.11,1.2.03.29-.06.57.12.63.4.03.13,0,.28-.07.39-.31.51-.79.96-1.38,1.32-.08.05-.16.09-.25.11-.68.22-1.4.33-2.16.42-.71.02-1.31.03-1.93.05-1.02,0-2.05,0-2.97-.06-.9-.05-1.62-.06-2.37-.43-.08-.04-.15-.08-.21-.14-.15-.12-.37-.31-.46-.72-.1-.44.13-.96.32-1.15.32-.32.41-.28.52-.33.21-.09.47-.19.82-.35.63-.37,1.51-.87,2.3-1.55,1.09-.94,2.14-2.05,2.71-3.06.28-.53.44-1.1.47-1.44v-.16s.05.13.02.06c-.01-.04.12.21.08.15-.04-.06.3.28.2.21-.09-.06.47.2.35.17-.12-.03.45,0,.35.02-.17,0-.46.14-1.02.42-1.13.51-2.59,1.4-4.06,2.22-1.34.7-2.51,1.34-3.18,1.78-.15.1-.26.18-.32.23l-.02.02s.13-.31.09-.19c-.02.06.02-.34.03-.24,0,.14-.22-.48-.15-.39.07.09-.23-.18-.18-.16.1.05-.03,0,.11,0"/>
  <path class="cls-1" d="m89.81,1.14c.16.38-.02.83-.4.99-.33.14-.72.02-.92-.28,0,0,.11.09.06.06s.29.08.21.07c-.08,0,.2-.03.17-.02-.03,0,.03,0,0,0-.11.08-.37.38-.66.83-.62.96-1.3,2.39-1.87,3.84-.43,1.04-.77,2.02-.94,2.78-.11.42-.09.66-.06.74.02.05-.2-.11-.11-.07.07.03-.13-.03-.11-.03s.24-.04.61-.23c.92-.4,2.17-1.29,3.55-2.44,1.08-.75,2.14-1.55,3.23-2.41.23-.18.56-.14.75.09.15.19.15.46,0,.66-.86,1.1-1.71,2.16-2.52,3.12-1.41,1.39-2.63,2.48-3.79,3.17-.86.44-1.76.79-2.73.36-.63-.29-1.08-.88-1.26-1.52s-.14-1.33.06-2.04c.3-.96.74-2,1.25-3.07.74-1.5,1.56-2.96,2.42-4.03.41-.51.81-.95,1.34-1.19.28-.13.65-.2,1.01-.07.37.13.59.44.71.71"/>
  <path class="cls-1" d="m96.93,9.67c.27.12.4.44.28.71s-.44.4-.71.28c-.27-.12-.4-.44-.28-.71.09-.21.3-.34.53-.33.07,0-.16,0-.13,0,.14-.03.29,0,.41.09.02,0-.15-.08-.09-.05m-2.2-8.8c.01-.42.36-.74.78-.73.3,0,.56.2.67.47.16.41.32.88.47,1.39.1.37.2.74.29,1.11.12.67.22,1.27.31,1.87.09.63.17,1.22.24,1.79.07,1.22.12,2.19.16,2.82,0,.12,0,.23-.03.34-.04.14-.07.27-.13.4-.05.13.1.25-.46.56-.09.05-.19.08-.3.1-.75.1-.72-.2-.85-.34-.13-.13-.22-.26-.31-.4-.06-.1-.11-.2-.14-.32-.18-.7-.34-1.66-.51-2.78-.06-.67-.1-1.27-.15-1.87-.04-.63-.07-1.23-.11-1.81v-1.19c.01-.54.03-1.01.04-1.41"/>
  <path class="cls-1" d="m104.73,11.47c.31-.42.91-.52,1.33-.21.43.31.52.91.21,1.33-.31.43-.91.52-1.33.21-.34-.25-.47-.68-.34-1.07.05-.16-.05.27-.05.23s0,.1,0,.08c0-.11,0,0-.04-.12-.04-.14-.1-.35-.18-.6-.09-.28.06-.58.34-.67.19-.06.41,0,.55.14.17.18.3.29.37.33.03.02-.04,0,0,0,.02,0-.17-.02-.11-.02s-.38.06-.26.03c.06-.02-.26.12-.19.08.04-.02-.17.12-.13.08.05-.04-.25.28-.17.18m-.97-10.89c.37.18.53.63.35,1.01-.03.06-.06.11-.11.16-.11.12.17-.36.15-.29-.02.08.02-.12.02-.11v.03c0,.07.02.19.04.35.05.34.12.81.23,1.35.22,1.13.54,2.48.94,3.64.25.9.61,1.63.91,2.41.19.49.36.97.49,1.4.12.55.2.93.15,1.41-.03.26-.13.5-.29.7-.16.19-.19.6-1.14.49-.11,0-.23-.04-.33-.09-.59-.25-.44-.31-.5-.39-.17-.2-.27-.44-.3-.69,0-.04-.06-.3-.17-.63-.11-.44-.23-.86-.39-1.3-.23-.64-.62-1.5-.9-2.59-.27-1.43-.44-2.89-.49-4.14-.02-.6-.02-1.13.03-1.58.03-.22.06-.42.14-.63.04-.11.1-.24.25-.38.16-.15.58-.33.93-.16"/>
  <path class="cls-1" d="m94.38,8.24c-.06-.16-.09-.34-.09-.52,0-.06,0-.1.01-.14.1-.72.28-.67.38-.77.14-.15.3-.27.49-.34.46-.19,1.3-.6,2.32-1.08,1.18-.51,2.69-1.31,4.51-2.08,2.51-1,5.34-1.84,8.06-2.5,3.27-.7,6.17-.77,8.2-.81,2.08.11,3,.39,3.12.37.29-.05.56.14.61.43.02.09,0,.18-.02.27-.31.87-1.58,1.1-3.44,1.47-2.11.26-4.81.52-7.68,1.32-2.64.67-5.33,1.51-7.59,2.45-1.74.68-3.23,1.41-4.57,1.92-1.08.38-1.96.71-2.73.86-.19.04-.4.03-.59-.02-.21-.05-.51.08-.93-.7-.02-.04-.04-.08-.06-.14m3.95-2.2c.41-.1.81.15.91.56.09.39-.14.78-.52.9-.89.26-1.69.54-2.18.73l.18-.1c-.08.06-.14.12-.16.13,0,0,.05-.07.03-.04-.01.02.07-.14.05-.1-.02.05.09-.35.07-.23,0,.05.01-.28.01-.2,0,.04-.02-.21-.01-.15.01.06-.12-.37-.07-.25.24.58-.03,1.24-.61,1.48-.58.24-1.24-.03-1.48-.61s.03-1.24.61-1.48c.43-.18.92-.08,1.24.25.08.08-.21-.17-.17-.14.11.08-.28-.13-.23-.12.08.03-.16-.04-.14-.04.12.02.1,0,.34,0l-.2.03c.56-.16,1.4-.39,2.33-.62"/>
  <path class="cls-1" d="m33.19,33.07c.39.16.57.6.42.98-.13.32-.46.51-.8.46-.09-.01-.13-.01-.31.16-.21.2-.49.6-.81,1.15-.64.97-1.35,2.06-1.82,3-.25.51-.39.97-.4,1.16-.02.12-.1-.27-.05-.17.04.09-.18-.2-.15-.18.05.03.05.02.24,0,.6-.08,1.93-.88,3.06-2.01,1.09-1.03,1.87-2.44,2.3-3.65.32-.94.19-1.7-.05-2.04-.1-.17-.23-.27-.56-.3-.35-.04-.84.03-1.29.23-.46.19-.87.49-1.12.82-.24.32-.35.67-.25,1.07.07.28-.1.57-.38.64-.25.06-.52-.07-.62-.31-.3-.7-.21-1.48.13-2.12s.89-1.16,1.52-1.54,1.34-.64,2.08-.67c.75-.04,1.61.17,2.2.86.83,1.1.95,2.6.47,4.09-.47,1.5-1.33,3.24-2.72,4.64-1.41,1.34-2.93,2.43-4.54,2.58-.56.07-1.17,0-1.72-.33-.56-.35-.97-1.12-.88-1.85.14-.72.43-1.32.78-1.95.59-1.07,1.37-2.18,2.04-3.11.48-.61.92-1.09,1.45-1.42.52-.33,1.22-.44,1.79-.21"/>
  <path class="cls-1" d="m43.61,29.9c.27.32.23.79-.08,1.06-.28.24-.68.24-.96.01-.05-.04.02-.01-.02-.03-.02,0,.2.02.14.02-.07,0,.3-.08.23-.04-.07.03.26-.19.21-.14s.11-.16.09-.12c-.03.06.02-.06.02-.03-.04.2-.02.8.07,1.54.16,1.57.47,3.57.86,5.1.2,1.64.45,2.52.72,2.88.24.34.16.81-.17,1.05-.23.17-.54.19-.8.05-.92-.5-1.57-1.68-2.09-3.31-.34-1.88-.54-3.95-.58-5.62,0-.86,0-1.57.29-2.21.07-.16.17-.34.35-.49.18-.16.46-.29.73-.28.27,0,.48.11.63.21s.26.22.37.35"/>
  <path class="cls-1" d="m43.21,29.91c.29-.09.6,0,.8.23.06.07-.1-.09-.1-.09,0,0,.04.02.09.05.19.08.34.22.46.39.14.21.96.86,2.05,1.51.74.43,1.6.88,2.48,1.31,1.12.61,2.21,1.15,3.15,1.6.72.44,1.22.77,1.63,1.04.19.13.36.25.5.36s.28-.03.46.58c.06.21.03.43-.08.62-.28.47-.48.38-.62.4-.84.15-1.68-.18-2.86-.56-1.14-.51-2.27-1.06-3.4-1.66-.93-.54-1.81-1.08-2.59-1.62-1.15-.78-2.13-1.46-2.63-2.46-.09-.18-.13-.39-.11-.59.04-.46.39-.97.77-1.09"/>
  <path class="cls-1" d="m50.83,26.5c.07-.18.19-.33.35-.44.25-.16.39-.14.51-.14.66.03.78.34.97.58.45.74.7,1.53.96,2.44.25.96.47,1.99.68,3,.22,1.43.42,2.74.61,3.69.04.66.06,1.04.08,1.29,0,.11.02.19.02.21,0,0-.07-.18-.04-.1.04.08-.43-.3-.3-.26.27.08.43.37.36.65-.02.07-.05.18-.17.3-.14.14-.36.21-.53.21-.34,0-.57-.18-.74-.34-.34-.32-.58-.75-.81-1.24-.37-1.23-.64-2.55-.93-3.89-.17-1.09-.33-2.1-.5-2.99-.15-.89-.3-1.61-.45-2-.08-.31-.13-.37-.13-.67,0-.06-.02-.11.05-.32m1.59.15c.41.09.67.49.58.9-.09.41-.49.67-.9.58-.69-.15-1.07-.64-1.21-1.06l.4.45s.37.08.22.06c-.42-.05-.72-.43-.67-.85s.43-.72.85-.67.72.43.67.85c-.03.24-.16.45-.37.57-.09.06.22-.19.18-.15s.1-.14.08-.11l.07-.62c.02.05.01.03.09.05"/>
</svg>