<?xml version="1.0" encoding="utf-8"?>
<!-- Generator: Adobe Illustrator 27.7.0, SVG Export Plug-In . SVG Version: 6.00 Build 0)  -->
<svg version="1.1" id="Layer_1" xmlns="http://www.w3.org/2000/svg" xmlns:xlink="http://www.w3.org/1999/xlink" x="0px" y="0px"
	 viewBox="0 0 512 512" style="enable-background:new 0 0 512 512;" xml:space="preserve">
<style type="text/css">
	.st0{fill:#E42A1D;}
	.st1{fill:#FFFFFF;}
</style>
<g id="Layer_2_00000026874707130493004540000016895503754187355048_">
	<rect y="0.7" class="st0" width="512" height="512"/>
</g>
<g id="Layer_1_00000004515084087399652180000008806753424098668988_">
	<path id="XMLID_00000119089214556159143070000003604910975095709088_" class="st1" d="M48.4,60.2c1.1-12.2-2.1-22.8-2.9-33.7
		c-0.2-3.8-0.7-7.8-0.9-11.6c-0.1-3.7,2.3-6,5.1-7.5c3.2-1.7,5.1,1.1,7.3,2.9c5.4,4.8,9.5,10.7,12.3,17.3
		c2.7,6.3,6.1,11.8,10.8,16.9c5.8,6.2,8.7,13.4,7.4,22.4c-0.9,5.9-2.2,10.3-9,11.1c-2.9,0.3-4.3,2.1-4.2,5.1
		c0.2,10.1,1.2,19.7,11.4,25.8c8.7,5.2,11.9,14.7,14.6,23.9c1.8,6.4,2.6,13.2,3.5,19.8c2,14.9,9.9,24.4,25,28.1
		c8.6,2,17.1,4.8,25.5,7.7c11.8,4.1,23.3,9.1,32.1,18.2c3.3,3.4,5.4,2.1,8,0.1c6.3-4.9,12.9-6.9,20.8-4.1c4.1,1.5,5.7-1,4.2-5.2
		c-0.2-0.6-0.5-1.3-1-1.9c-7.7-11-2.8-21.2,3.9-29.2c5.1-6.2,14.2-9.1,21.1-14c1.9-1.4,5.7-0.7,8.3-0.2c5.5,1.1,10.8,1.7,16.6,0.2
		c6.4-1.6,13.5,3.1,15.4,10.1c2.2,8.4,11,13,11.8,22.1c0,0.6,1.6,1.4,2.6,1.7c6.4,2.5,10.2,7.5,13.3,13.2c1.9,3.7,4.3,5.4,9.1,5.3
		c12.5-0.3,24.6-2.3,36.9-4.4c9.5-1.6,18.8-3.8,28.3-4.8c4.9-0.4,9.8-1.3,13.4-5.4c3.1-3.5,7.6-3.6,11.8-3.9
		c15.6-1.2,31-3.5,46.7-3.9c11.8-0.3,12.7-2.1,14.2-14.3c0.9-6.7,6.4-10.8,10.8-15.4c3.1-3.3,6.4-6.7,11.5-7c5.5-0.4,7,1.2,5.9,6.5
		c-0.4,1.7-1.7,3.3-1.2,5c4.2,12.5-3.3,21.7-9.1,31.3c-1.8,3.1-4.9,5-8.4,6.2c-19.8,6.8-38.1,17.3-57.7,24.6
		c-7.7,2.9-15.4,5.2-23.7,5.3c-8,0-14.9,4.3-22.3,6.6c-2,0.6-4.1,1.4-6,2.3c-11.5,5.2-25.3,8-26.3,24.5c-0.1,1.6-1.5,3.2-2.6,4.7
		c-5.5,7.9-9.1,16.2-9.8,26c-0.7,9-4.8,17.2-12.4,22.7c-3,2.1-3.3,4.3-2.2,7.1c4.9,13.3,6.1,27.6,10.2,41.3c1.7,5.5,4.1,10.6,8,14.7
		c14.7,15.4,24.9,33.6,32.9,53.1c3.7,9,7.9,17.2,15.6,23.7c8.2,6.8,8.5,22.3,1.7,30.1c-7.9,9-8.2,9-6.8,19.3c0.6,4.6-0.7,5.8-5,5.1
		c-13.2-2-19.5-12.1-16-26.5c0.6-2.8,1.4-5.7,2.9-8c5.3-8.2,1.5-14-4.5-19.4c-8.4-7.7-16.7-15.4-24-24.1c-2.7-3.3-5.3-6.6-7.4-10.5
		c-7.4-14.2-15.8-27.6-26-40c-9.4-11.3-16.1-24.2-20.8-38.1c-2-5.9-5.3-9.1-11.6-10.8c-7.5-2.1-14.4-5.9-21.5-9.1
		c-6.6-3.1-13-4.3-20.6-2.9c-8.1,1.5-16.5,1.5-24.9,2.8c-11.9,1.8-23.1-1-33.6-7.4c-17.3-10.6-35.6-19.1-51.1-32.5
		c-22.2-19.1-40.5-41.7-59.1-64c-17-20.4-20.6-44.4-23.1-69.2c-1.4-13.4-3.3-26.8-4.9-40.1c-0.1-0.7-0.5-1.4-0.4-2
		c2-17.3-4.2-33.4-8-49.8c-1-4.3-0.9-8.4-0.7-12.7c0.1-2.9,0.5-5.9,3.7-6.9c2.7-1,4.8,0.6,6.7,2.3c4.4,3.7,7.7,8.3,10.9,13.1
		C42.7,53,44,56.8,48.4,60.2L48.4,60.2z M303.7,300l0.5-0.3l-0.6,0.2c-1.5-8.1-10.8-14.2-19.7-12.3
		C290.3,292.7,298.3,294.4,303.7,300L303.7,300z M274,320.6c-9-9.4-4.1-19.9-2-30.2c0.3-1.6,1.8-1.8,3.2-2.2
		c7.5-2.6,9.4-7.5,6.2-14.9c-0.6-1.4-3.7-2.2-1.8-4.2c4.1-3.9,1.1-6.3-1.6-8.6c-2-1.8-2.3-4.2-3.3-6.5c-3.2-8.3-4.7-9.2-13.4-7.1
		c-8,1.9-15.3,1.8-21.1-5.3c-2.9-3.5-7.6-5.8-12.4-4.5c-8.6,2.3-16.7,5.9-21.7,14.2c-2.1,3.6-4.5,7.3-7.3,10.5
		c-3,3.4-3.3,6.7-1.6,10.8c2.2,5.2,3.2,10.7,3,16.5c-0.5,13.7,10.9,24.3,24.4,22.4c10.5-1.5,19.6,1,28.7,5.2
		c5.4,2.6,11,4.8,16.5,7.3c0.5,0.2,0.9,0.3,1.3,0.4c0.4,0,0.7,0,0.9-0.1c0.1-0.1,0.2-0.1,0.4-0.2c0.2-0.2,0.3-0.4,0.5-0.6
		c0.1-0.2,0.2-0.3,0.3-0.5c0.3-0.7,0.5-1.4,0.9-1.9 M274.1,320.7c1.7,2.7,4.1,5.1,5,8.1c7.4,22.3,20.8,41.1,35.3,59
		c2.7,3.3,5.4,6.4,7,10.6c3.6,9.4,9.6,17.3,16,25c8.4,10.1,18.1,19,27.3,28.4c6.8,6.9,7,7.7,2.6,16.4c-4.3,8.3-5.2,16.6-2.6,25.6
		c0.5,1.8,0.7,3.6,3,3.6c1.8,0,3.5-0.9,4.3-2.6c0.9-1.9,1.8-3.9,2.1-6c1.1-6,1.6-11.9,0.9-18c-0.1-1.1,0.3-2,1.7-2.2
		c3.1,0.3,2.7,5.1,6.5,4.8c4.6-7.3,3.3-14-2.6-20.1c-7.4-7.5-12.4-16.3-16.7-25.7c-8.2-17.7-17.6-34.9-31.4-49.1
		c-6.2-6.3-9.5-14-11.2-22.5c-2.1-11.2-5.3-22.1-8.1-33.1c-2.1-8.2-7.3-13.5-13.7-18.1c-5.9-4.3-12.8-6-19.1-9.3
		c-3.9-2-6.1,0.3-7.4,3.6c-1.6,4.1-1,8.3-0.5,12.6C273.2,314.6,275.7,317.4,274.1,320.7L274.1,320.7c0,0-0.1-0.1-0.1-0.1 M291,191
		l0.2,0.2c-3.1-4.8-14-14-19-16c-0.6-0.2-1.4,0-2.8,0c-2.5,8.6-6.5,16.1-16.3,18.9c-3.2,0.9-4.4,4.3-4.9,8.1
		c4.2,2.1,10.2,2.6,11.6,8.1c1.6,6.2,2.9,12.2,7.4,17c0.3,0.3-0.6,1.8-1.1,2.9c-3.1-0.3-4.2-3.6-7.3-4.1c-2.5-0.3-3.5-3-2.7-5
		c2.8-7.3-0.7-10.6-6.9-12.8c-4.7-1.7-5.4-5.4-3.8-9.5c1.6-3.9,3.4-8.1,8.1-9.3c10-2.6,12.9-9.8,12.6-19.2c5,0.4,9.3,1.6,13.4,3.8
		c3.6,2,5.2,7.3,12.6,7.7c-7.7-6.8-12.7-12.8-14.4-21.1c-0.7-3.5-5.1-4.1-8.2-2.8c-5.8,2.3-11,1.2-16.5-0.4
		c-6-1.8-11.3-1.5-14.1,5.3c-1.1,2.6-2.9,3.5-5.7,4.1c-11.9,2.3-17.6,14.2-11.5,24.4c1.9,3.3,2.5,6.4,2.5,10
		c-0.3,14.6,1.1,28.4,17.5,34.7c1.5,0.5,2.3,2.6,3.6,3.7c5.4,4.6,22.5,2.7,26.1-3c0.7-1.1-1.6-3.9,1.8-3.5c2.3,0.3,3.6,2.5,3.3,4.7
		c-0.4,2.7-1.9,4.8,0.9,7.6c7.3,7.5,9.8,17.2,10.7,27.1c0.3,3.9,1.4,6.7,4.8,8.6c10.3,5.9,19,13.7,25.8,23.8
		c7.6-6.4,12.3-15.5,10.6-23.5c-1.4-6.6,0.6-9.3,3.7-13.3c3.6-4.8,6.7-10,9.1-15.6c2.1-5.2,1.8-10.5,0.4-15.6
		c-0.3-1.2-1.4-3.6-2.6-2.7c-4.2,3.8-4.4-0.4-5.5-2.5c-2.8-4.7-6.5-8.4-10.9-11.5c-5.8-4.1-5.4-3.7-13.3,2.3c-4.7,3.6-1.2,6.2,0.1,9
		c3.3,6.6,3.4,6.6,2.1,11.8c-1-2-1.8-3.8-2.7-5.8c-3-6.1-7.9-8.9-14.6-8.3c-0.3,0-0.6-1.1-1.2-1.8c2.7-3.9,7-5.5,10.8-8.1
		c2-1.4,4.2-2.6,4.7-5.4C311.1,204.3,301.6,192.3,291,191L291,191z M33.1,84c-1.9,2.7-1.6,4.4-1.5,6.2c0.4,12.1,2.3,23.9,4.6,35.7
		c3.4,18.1,5.5,36.4,8.7,54.5c1.2,6.9,3,13.5,7.4,19.6c21.2,30,45.7,56.9,74.6,79.8c9.7,7.7,18.9,14.1,31.9,13.3
		c8.5-0.4,11.6-1.7,13.7-9.9c1.1-4.5,1.7-9.1-0.2-13.7c-2.3-5.4-2.8-11.1-1.8-16.7c1.1-6.3-1.2-10.7-6-14.8
		c-12.8-11.1-26.9-19.7-43.1-24.5c-14.6-4.3-27.2-11.9-37.7-22.9c-4.2-4.3-8.2-8.7-4.8-15.8c1-1.9,0.2-4.9-0.4-7.3
		c-3.4-11.6-7.3-23-13.4-33.5c-4.6-7.6-9.6-14.9-9.3-24.4c0.1-1.8-0.5-3.5-2.1-4.6C45.5,99.4,40,91.5,33.1,84L33.1,84z M69.3,90.9
		c-3.3,6-4.4,11.1-9,13.9c-1.6,1-1.2,3.2-1.2,5c0,4.9,2.5,8.5,5,12.5c10.7,16,20.3,32.7,20.3,52.8c0,8.6,3.8,14,10.1,18.6
		c4.9,3.5,10.1,6.7,15.9,8.6c14.9,4.8,28.4,12.8,42.1,20.1c7.8,4.1,7.7,4.4,14.4-2.1c2.3-2.3,5.2-3.5,8.3-4.4
		c2.7-0.7,5.8-0.3,7.8-2.7c-4.6-7.6-8.3-10.6-18.3-14.7c-13.8-5.5-27.8-10.5-42.1-14.6c-9-2.6-17.3-6.7-21.1-16.2
		c-2.7-6.6-5-13.4-5.3-20.5c-0.3-9.5-4.3-17.8-7.7-26.3c-1.3-3.3-3.1-7-6.4-8.3C73.2,108.8,70.9,101.4,69.3,90.9L69.3,90.9z
		 M349,237.5c5.4-2.6,9.9-4.7,14.4-6.6c12.7-5.5,25-12.4,39-13.3c13.8-1,26.1-6.1,38.6-11.2c12.2-5,24-10.5,36.6-14.3
		c10.8-3.3,19.7-19,18.1-31.3c-3.6,2-2.3,7.5-6.2,8.9c-3.9-8.3,3.2-13.4,7.6-21.1c-10.9,3.3-15,11.1-20.8,17.1
		c-1.1,1.1-0.5,2.6-0.4,3.9c0.7,9.2-4.2,15.8-12.9,17c-6.3,0.9-12.8,0.9-19.1,1.4c-14.1,1.2-28.5,1.6-41.5,7.8
		c-5.5,2.7-11,4.3-17.1,5.2c-16.7,2.6-33.4,5.7-51.5,8.7C341.2,218.2,345.8,226.8,349,237.5L349,237.5z M338.3,227.3
		c-2.3-10-9.7-15.3-17.7-19.7c-1.2-0.6-2.9-0.9-3.8,0.5c-1.3,1.7-0.5,3.8,1.1,4.6C325.7,216.1,331,222.9,338.3,227.3L338.3,227.3z
		 M312.1,305.8c-0.1,0.6-0.4,1.3-0.4,1.9c0,0.9,0.6,1.3,1.5,1s1.1-1,0.4-1.6C313.2,306.7,312.7,306.2,312.1,305.8L312.1,305.8z"/>
	<path class="st1" d="M99.6,307.3"/>
	<path class="st1" d="M282.7,199.6c-1.5-0.9-3-1.9-4.6-2.6c-8.3-3.6-8.5-3.5-14.5,5.1c1-5.3,2.1-9.4,7.4-9.8c3.6-0.3,6.8,1.7,10,3.3
		C282.9,196.6,282.7,199.6,282.7,199.6z"/>
	<path class="st1" d="M291,191c0.3,7.8-1.3,9.4-8.3,8.5c0,0.1,5.7-5.3,8.5-8.2C291.2,191.2,291,191,291,191L291,191z"/>
	<path class="st1" d="M210.4,233.7c-1.6,0.3-3.1,0-4.4-1.1l0.2,0.3c1.3,0.3,2.6,0.5,3.9,0.7C210.3,233.8,210.4,233.7,210.4,233.7
		L210.4,233.7z"/>
	<path class="st1" d="M206,232.7c0.2,0,0.4-0.1,0.5-0.1c-0.5-0.4-0.6-0.2-0.2,0.4C206.2,233.1,206,232.7,206,232.7z"/>
	<path class="st1" d="M68.2,64.2c-1.8-1-2.5-2.7-2.3-4.6C68.8,59.9,68,62.4,68.2,64.2z"/>
	<path class="st1" d="M70.3,66.3c0-1.6-1.4-1.8-2.3-2.5C68.7,64.7,69.5,65.5,70.3,66.3z"/>
	<path class="st1" d="M489.4,169.6c-0.3-2.2,4.7-3.6,1.1-6.4"/>
	<path class="st1" d="M474.5,168.5c0,1.2-0.2,2.5,1.1,3.2"/>
	<path class="st1" d="M498,166.4c0.7,3.8-1.9,6.5-3.2,9.6"/>
	<path class="st1" d="M482,193.1c-1.2-0.1-2.5-0.2-3.2,1.1"/>
	<path class="st1" d="M72.4,73.6c-0.7-7.4-6.9-12.3-8.5-19.2"/>
	<path class="st1" d="M57.4,104.5c-1.8-0.7-3.5-1.4-5.3-2.1"/>
	<path class="st1" d="M171.6,243.2c0.3,1.8-1,3.8,1.1,5.3"/>
	<path class="st1" d="M172.6,249.6c-1.4,4.6-2,9.3,0,13.9"/>
	<path class="st1" d="M35,68.3c1,6.2,9,7.5,9.6,13.9"/>
	<path class="st1" d="M227,234.7c-1.4,0.7-2.9,1.4-4.3,2.1"/>
	<path class="st1" d="M308.1,230.4c0,1.2-0.2,2.5,1.1,3.2"/>
	<path class="st1" d="M203.6,251.7c0.1,1.2,0.2,2.5-1.1,3.2"/>
	<path class="st1" d="M312.4,238.9c0,1.2-0.2,2.5,1.1,3.2"/>
	<path class="st1" d="M73.4,54.4c0.5,2.1-1.2,4.6,1.1,6.4"/>
	<path class="st1" d="M293.2,189.9c-1.1,1.8-2.1,3.5-3.2,5.3"/>
	<path class="st1" d="M280.5,199.1c0.8,0,1.6,0.3,2.3,0.7l2.9-0.3c-1.4-0.7-2.9-1.4-4.3-2.1c-12.1-6.4-12.5-6.3-18.1,4.3l17.2-1.6
		C280.2,199.5,280.1,199.1,280.5,199.1z"/>
	<path class="st1" d="M267.6,174.9c0.7,3.8-1.9,6.5-3.2,9.6"/>
	<path class="st1" d="M246.2,200.5c-0.1,1.2-0.2,2.5,1.1,3.2"/>
	<path class="st1" d="M322,216.5c-1.2,0.1-2.5,0.2-3.2-1.1"/>
	<path class="st1" d="M205.7,231.5c3.4,2.2,4.8,5.8,5.3,9.6"/>
	<path class="st1" d="M322,205.9c-2.9,0.1-5.9-0.4-8.5,1.1"/>
</g>
</svg>
