<?xml version="1.0" encoding="utf-8"?>
<!-- Generator: Adobe Illustrator 27.7.0, SVG Export Plug-In . SVG Version: 6.00 Build 0)  -->
<svg version="1.1" id="Layer_1" xmlns="http://www.w3.org/2000/svg" xmlns:xlink="http://www.w3.org/1999/xlink" x="0px" y="0px"
	 viewBox="0 0 538.9 142" style="enable-background:new 0 0 538.9 142;" xml:space="preserve">
<style type="text/css">
	.st0{fill:#E42A1D;}
</style>
<path class="st0" d="M512,61.1c-10.4-7.2-21.3-16.5-30.6-27.7c-5.8-6.9-11.4-13.8-14.6-22.4c-1.4-3.7-1.1-6.6,2-8.6
	c2.9-1.9,6.1-2,8.9,1c7,7.7,13.9,15.6,21.1,23c5.1,5.2,10.7,9.8,16,14.8c5.9,5.6,11.9,11.1,17.5,17c2.8,3,2.5,6.7-0.5,9.7
	c-3,3-6.5,5.6-9.5,8.7c-10.5,11.3-21.6,22.1-30.7,34.3c-4.2,5.7-4.5,14.3-6.6,21.5c-0.7,2.2-1.4,4.9-3,6.4c-1,1-4.9,1-5.4,0.1
	c-1.7-2.8-2.8-6.1-3.6-9.3c-3-12.2,0.7-22.9,7.8-32.6c3.7-5,8-9.6,12.1-14.2C499.3,75.4,505.8,68.1,512,61.1L512,61.1z"/>
<path class="st0" d="M339.4,54.5c11.9,0.9,23.6,1.6,35.2,2.9c3.4,0.4,6.7,2.4,9.9,3.9c1,0.5,2.3,1.8,2.2,2.6
	c-0.1,0.9-1.5,1.9-2.5,2.5c-8.5,4.9-17.4,6.2-27.2,5c-9-1.1-18.3,0.2-27.5-0.3c-8.3-0.4-16.6-1.5-24.7-3.1c-1.9-0.4-4.7-3.8-4.6-5.7
	c0.1-1.8,3.2-4.7,5.3-5C316.9,56.1,328.2,55.4,339.4,54.5L339.4,54.5z"/>
<path class="st0" d="M120.6,69.7c-4.2-0.5-8.5-0.7-12.7-1.5c-3.3-0.7-5.6-2.8-5.1-6.7c0.5-3.7,2.9-3.9,6-4.3
	c16.2-2,32.5-3.8,48.8-2.8c12.5,0.8,25.2,0.8,37.2,5.1c1.6,0.6,2.6,2.7,4,4.2c-1.5,0.9-2.9,2.5-4.4,2.6c-10.4,0.5-20.9,0.7-31.3,1.1
	C149,67.9,120.6,69.7,120.6,69.7z"/>
<path class="st0" d="M478.5,60.5c3.5,0.4,6.9,2.8,9.9,4.9c3.2,2.2,1.3,4.6-1.1,5.7c-7.3,3.2-14.9,3.6-23,2.7c-9-1.1-18.3,0-27.4-0.6
	c-7.3-0.4-14.6-1.7-21.8-3c-4.5-0.8-5.7-4.1-5.3-8.5c0.4-4.7,4.1-4.9,7.1-5.2c4.6-0.5,9.3-0.1,14-0.1
	C430.9,56.3,462.7,58.5,478.5,60.5z"/>
<path class="st0" d="M36.3,72.9c-8.7,0.4-17.5-0.1-26.1-0.8c-4.4-0.3-6.8-4.2-6.1-8c0.7-3.7,3.6-6,8.3-6c18.9,0,37.8-0.7,56.7-0.7
	c4.1,0,8.2,1.7,12.2,2.9c1,0.3,2.4,1.7,2.3,2.5c0,0.9-1.4,2.2-2.4,2.5C74.1,67.6,43.9,72.6,36.3,72.9z"/>
<path class="st0" d="M246.3,55c10.2,0.5,18.8,0.8,27.3,1.4c2.3,0.2,4.7,1.2,6.8,2.3c2.6,1.4,1.8,3.5-0.2,4.7
	c-2.2,1.3-4.7,2.8-7.1,2.8c-12.8,0.3-25.6,0.2-38.4,0.1c-1.7,0-3.7-0.6-5-1.6c-1.3-1.1-2.8-3.1-2.6-4.5c0.2-1.4,2.2-3.4,3.6-3.6
	C236.4,55.5,242.2,55.3,246.3,55L246.3,55z"/>
<path class="st0" d="M430.9,56.3"/>
</svg>
