<?xml version="1.0" encoding="UTF-8"?>
<svg id="Layer_1" data-name="Layer 1" xmlns="http://www.w3.org/2000/svg" viewBox="0 0 40 1729.64">
  <defs>
    <style>
      .cls-1 {
        fill: #e42a1d;
      }
    </style>
  </defs>
  <g>
    <path class="cls-1" d="m23.04,525.2c-.56,1.42-1.62,2.84-1.61,4.26.04,7.53.4,15.07.54,22.6.06,3.41.1,6.85-.33,10.21-.18,1.42-1.61,2.68-2.48,4.02-1.35-.95-3.54-1.66-3.89-2.88-1.51-5.27-3.1-10.65-3.53-16.07-.97-12.44-1.33-24.93-1.82-37.41-.13-3.41-.19-6.88.33-10.22.36-2.28,1.21-5.4,2.88-6.36,2.82-1.62,5.69-.3,6.87,3.22.12.37.66.61,1,.92.67,9.24,1.35,18.49,2.02,27.73Z"/>
    <path class="cls-1" d="m23.34,334.08c-.67,2.04-1.89,4.07-1.91,6.12-.16,16.88-.04,33.76-.14,50.64-.01,2.39-.4,4.89-1.2,7.13-.4,1.11-2.08,2.3-3.28,2.41-.74.07-2.12-1.68-2.44-2.83-.89-3.24-1.85-6.58-1.95-9.9-.51-16.97-.81-33.94-1.03-50.91-.04-3.07.25-6.25,1.11-9.17.49-1.68,2.16-3.64,3.76-4.24,2.05-.76,4.67-.61,5.43,2.6.19.81,1.08,1.47,1.65,2.19,0,1.99,0,3.97,0,5.96Z"/>
    <path class="cls-1" d="m23.34,736.15c-1.23.16-2.47.32-4.61.61-1.06-3.98-2.98-8.2-3.2-12.52-.73-14.14-.83-28.32-1.19-42.48-.16-6.06-.24-12.12-.62-18.16-.19-3.09,2.22-6.08,5.41-5.85,1.42.11,2.81.62,4.22.95,0,25.82,0,51.63,0,77.45Z"/>
    <path class="cls-1" d="m23.34,635.87c-1.63,1.34-3.26,2.68-4.94,4.07-4.67-2.62-5.66-7.27-5.93-11.62-.72-11.48-.79-23-1.14-34.5-.04-1.47-.55-3.02-.23-4.39.48-1.99,1.19-5.19,2.39-5.48,2.05-.49,4.81.43,6.77,1.6,1.44.86,2.08,3.05,3.08,4.65,0,15.22,0,30.45,0,45.67Z"/>
    <path class="cls-1" d="m23.34,807.64c-7.66,2.16-10.97-.3-11-8.23-.02-8.39-.11-16.79.04-25.18.07-4.05.4-8.13,1.04-12.13.73-4.54,5.25-5.42,9.91-2.13v47.66Z"/>
    <path class="cls-1" d="m8.92,112.83c.78-8.43,1.47-17.37,2.51-26.28.4-3.38,2.72-5.76,6.34-5.44,3.49.31,4.63,2.88,4.61,6.24-.08,12.59.29,25.19-.16,37.76-.24,6.72-1.71,13.41-2.9,20.07-.22,1.24-1.73,2.25-2.64,3.36-1.1-1.29-2.79-2.43-3.19-3.91-1.3-4.81-2.39-9.7-3.07-14.63-.76-5.5-.99-11.06-1.5-17.18Z"/>
    <path class="cls-1" d="m23.75,199.41c-.47,9.02-.74,18.05-1.57,27.03-.18,1.93-2.35,3.67-3.6,5.5-1.74-1.69-4.32-3.1-5.02-5.14-1.08-3.15-1.15-6.74-1.17-10.14-.11-15.24-.12-30.49.06-45.73.02-1.52,1.23-3.91,2.45-4.34,2.27-.81,5.13-.65,5.85,2.66.96,4.4,2.15,8.8,2.5,13.26.43,5.59.1,11.24.1,16.87.13,0,.27.01.4.02Z"/>
    <path class="cls-1" d="m9.82,446.08c-.31-6.35-.61-12.71-.95-19.06-.31-5.72,1.39-7.6,6.13-7.67,3.68-.06,4.53,2.25,4.9,4.88.72,5.11,1.43,10.26,1.6,15.41.31,9.33.25,18.67.26,28.01,0,1.25-.14,2.73-.81,3.69-1.21,1.73-2.93,4.42-4.32,4.35-1.65-.08-3.66-2.38-4.69-4.18-4.62-8.03-2.43-16.86-2.13-25.44Z"/>
    <path class="cls-1" d="m22.86,275.57c.48,8,1.3,16,1.25,23.99-.01,2.26-2.14,5.95-4,6.46-4.04,1.12-5-3.32-5.59-5.9-2.9-12.51-1.83-25.13-.27-37.74.38-3.09-.2-6.31.23-9.39.21-1.51,1.81-4.06,2.64-4.01,1.88.13,3.96,1.27,5.4,2.6.84.78.78,2.71.8,4.13.07,6.61.03,13.22.03,19.82-.16,0-.32.02-.47.02Z"/>
    <path class="cls-1" d="m11.54,33.13c.66-8.01,1.25-16.51,2.14-24.97.34-3.21,2.32-5.47,5.4-5.17,2.98.29,3.94,2.73,3.92,5.93-.07,11.96.25,23.93-.14,35.88-.21,6.39-1.46,12.74-2.47,19.07-.19,1.17-1.47,2.13-2.25,3.19-.94-1.23-2.38-2.31-2.72-3.71-1.11-4.57-2.04-9.22-2.62-13.9-.65-5.22-.84-10.51-1.27-16.33Z"/>
    <path class="cls-1" d="m16.01,1535.39c.78-8.49,1.47-17.5,2.51-26.46.4-3.41,2.72-5.8,6.34-5.47,3.49.31,4.63,2.9,4.61,6.29-.08,12.68.29,25.37-.16,38.03-.24,6.77-1.71,13.51-2.9,20.21-.22,1.24-1.73,2.26-2.64,3.38-1.1-1.3-2.79-2.45-3.19-3.94-1.3-4.84-2.39-9.77-3.07-14.74-.76-5.53-.99-11.14-1.5-17.3Z"/>
  </g>
  <g>
    <path class="cls-1" d="m30.68,1290.42c-.59,1.42-1.67,2.83-1.68,4.26-.09,7.59.15,15.18.16,22.77,0,3.43-.01,6.9-.5,10.28-.21,1.43-1.66,2.67-2.54,4-1.33-.98-3.51-1.73-3.84-2.97-1.42-5.33-2.92-10.77-3.25-16.24-.76-12.55-.9-25.13-1.18-37.7-.08-3.43-.08-6.93.51-10.29.4-2.29,1.31-5.42,2.99-6.36,2.85-1.58,5.7-.21,6.82,3.36.12.38.64.63.98.94.52,9.32,1.03,18.64,1.55,27.96Z"/>
    <path class="cls-1" d="m29.56,1093.55c-.67,2.05-1.89,4.1-1.91,6.16-.16,17-.04,34-.14,51-.01,2.41-.4,4.93-1.2,7.18-.4,1.12-2.08,2.31-3.28,2.43-.74.07-2.12-1.69-2.44-2.85-.89-3.26-1.85-6.62-1.95-9.97-.51-17.09-.81-34.18-1.03-51.28-.04-3.09.25-6.29,1.11-9.23.49-1.69,2.16-3.67,3.76-4.27,2.05-.77,4.67-.61,5.43,2.61.19.82,1.08,1.48,1.65,2.21,0,2,0,4,0,6Z"/>
    <path class="cls-1" d="m29.56,1723.88c-1.73-.33-3.45-.8-5.2-.97-5.28-.51-6.56-2.46-5.95-7.9.28-2.51-.89-5.15-.79-7.71.53-12.66,1.38-25.3,1.87-37.95.13-3.4-.63-6.82-.92-10.24-.2-2.38.15-4.29,3.31-4.27,2.93.01,5.31.46,5.69,3.97.03.33.02.66.02,1,0,15.79-.08,31.58.09,47.36.02,1.89-3.5,5.44,1.88,5.72,0,3.67,0,7.33,0,11Z"/>
    <path class="cls-1" d="m30.9,1406.77c-1.63,1.35-3.26,2.7-4.94,4.1-4.67-2.64-5.66-7.33-5.93-11.71-.72-11.56-.79-23.16-1.14-34.74-.04-1.48-.55-3.05-.23-4.43.48-2.01,1.19-5.22,2.39-5.52,2.05-.5,4.81.44,6.77,1.61,1.44.87,2.08,3.07,3.08,4.68,0,15.33,0,30.67,0,46Z"/>
    <path class="cls-1" d="m30.88,1635.34c-7.66,2.18-10.97-.31-11-8.29-.02-8.45-.11-16.91.04-25.36.07-4.08.4-8.19,1.04-12.21.73-4.57,5.25-5.46,9.91-2.14v48Z"/>
    <path class="cls-1" d="m13.14,858.55c.78-8.49,1.47-17.5,2.51-26.46.4-3.41,2.72-5.8,6.34-5.47,3.49.31,4.63,2.9,4.61,6.29-.08,12.68.29,25.37-.16,38.03-.24,6.77-1.71,13.51-2.9,20.21-.22,1.24-1.73,2.26-2.64,3.38-1.1-1.3-2.79-2.45-3.19-3.94-1.3-4.84-2.39-9.77-3.07-14.74-.76-5.53-.99-11.14-1.5-17.3Z"/>
    <path class="cls-1" d="m26.97,946.81c-.47,9.08-.74,18.18-1.57,27.23-.18,1.94-2.35,3.7-3.6,5.54-1.74-1.7-4.32-3.12-5.02-5.18-1.08-3.17-1.15-6.78-1.17-10.21-.11-15.35-.12-30.7.06-46.05.02-1.53,1.23-3.93,2.45-4.37,2.27-.81,5.13-.65,5.85,2.68.96,4.43,2.15,8.87,2.5,13.36.43,5.63.1,11.32.1,16.99.13,0,.27.01.4.02Z"/>
    <path class="cls-1" d="m15.37,1205.66c-.39-6.4-.76-12.79-1.19-19.19-.38-5.76,1.29-7.67,6.04-7.8,3.68-.1,4.56,2.21,4.96,4.85.79,5.14,1.56,10.31,1.8,15.5.43,9.39.48,18.8.61,28.2.02,1.26-.1,2.75-.76,3.73-1.18,1.75-2.87,4.49-4.26,4.44-1.65-.06-3.69-2.35-4.74-4.15-4.72-8.03-2.64-16.95-2.45-25.59Z"/>
    <path class="cls-1" d="m27.09,1028.57c.48,8.05,1.3,16.11,1.25,24.16-.01,2.28-2.14,5.99-4,6.51-4.04,1.12-5-3.34-5.59-5.94-2.9-12.6-1.83-25.31-.27-38.01.38-3.12-.2-6.35.23-9.46.21-1.52,1.81-4.09,2.64-4.04,1.88.13,3.96,1.28,5.4,2.62.84.79.78,2.73.8,4.16.07,6.65.03,13.31.03,19.97-.16,0-.32.02-.47.03Z"/>
    <path class="cls-1" d="m20.94,1457.45c-.28-6.4-.55-12.79-.86-19.18-.28-5.76,1.08-7.67,4.91-7.8,2.96-.1,3.66,2.2,3.98,4.85.61,5.14,1.2,10.31,1.37,15.5.29,9.39.29,18.8.34,28.2,0,1.26-.1,2.75-.64,3.73-.96,1.75-2.34,4.49-3.46,4.44-1.33-.06-2.96-2.35-3.8-4.14-3.76-8.03-2.04-16.95-1.84-25.59Z"/>
  </g>
</svg>