<?xml version="1.0" encoding="UTF-8"?>
<svg id="Layer_1" data-name="Layer 1" xmlns="http://www.w3.org/2000/svg" viewBox="0 0 485.32 585.08">
  <defs>
    <style>
      .cls-1 {
        fill: #e82e21;
      }
    </style>
  </defs>
  <path class="cls-1" d="m184.14,579.82h3.58c.01-.4.05-.77.11-1.1,1.1-6.3-1.12-10.31-6.81-12.69-2.73-1.14-2.67-3.24-2.4-5.75.91-8.63.86-17.3.13-25.92-.36-4.22,1.35-5.12,4.95-5.24,8.89-.3,12.43,2.49,12.5,11.38.08,9.92-.43,19.86-.97,29.77-.17,3.28-.67,6.51-1.83,9.55h6.48c.79-3.23,1.1-6.79,1.84-10.62,1.96,5.01,4.79,6.76,9.36,7.96,2.34.62,4.53,1.53,6.61,2.66h12.66c-5.08-3.71-10.08-7.23-16.12-8.87-4.47-1.21-5.4-3.64-5.25-7.91.22-6.25.47-12.5-1.52-18.73-3.72-11.62-3.48-11.69,8.93-14.08h-.1c-2.62-.51-2.19-2.43-1.07-3.57,3.18-3.25,3.88-7.66,5.81-11.48.69-1.39.53-3.48-1.43-4.1-1.56-.49-2.31.9-2.72,2.23-1.51,4.86-4.55,8.69-7.7,12.62-3.09,3.87-5.97,4.29-10.28,2.34-5.75-2.6-11.84-5.51-18.19-4.4-6.57,1.15-11.68-.89-16.83-4.26-3.33-2.18-6.75-4.27-10.28-6.09-6.23-3.21-6.52-3.23-3.48-9.24,8-15.82,12.57-32.8,17.88-49.6,3.3-10.45,3.73-22.4,12.85-30.56,1.76-1.57,2.21-4.12,2.43-6.44.22-2.29.41-4.87-2-6.24-2.27-1.29-4.47-.64-6.41,1.05-2.86,2.49-5.43,5.58-10.18,5.62.2-3.45.51-6.4.51-9.36.01-3.32-.14-6.66-.44-9.97-.27-2.91-.03-6.52-3.94-7.09-3.05-.44-4.85,2.06-5.79,4.61-1.55,4.23-4.76,7.16-7.37,10.59-10.55,13.87-9.65,9.75-3.6,24.51.5,1.23.94,2.5,1.53,3.69,2.11,4.26,1.58,7.97-.91,12.17-13.62,23.01-22.34,48.17-31.72,73.05-1.68,4.47-.95,7.6,2.65,10.44,18.26,14.42,35.82,29.99,57.97,38.4,5.84,2.21,9.17,6.08,10.56,10.67Zm-13.75-19.86c-8.35-2.04-14.28-7.6-20.89-11.92-9.17-6-18.05-12.41-26.37-19.58-3.33-2.87-5.08-5.65-2.97-10.3,5.89-13,9.52-26.94,16.17-39.62,5.7-10.88,7.99-23.23,14.85-33.64,2.42-3.67.71-8.2-1.13-11.44-6.83-11.99-4.82-21.8,5.96-30.1.71-.54.85-1.94,2.71-1.26.89,4.68.23,9.44-.73,14.32-1.13,5.7,1.29,7.69,7.03,7.34,4.87-.29,7.66-4.85,12-5.79.93,1.53.44,2.47-.18,3.09-10.17,10.13-13.04,23.52-16.57,36.65-5.25,19.51-11.19,38.8-22.16,56.74,8.34,4.44,16.85,7.24,24.72,11.4,5.49,2.9,8.84,5.92,8.94,12.63.11,7.19,2.21,14.4-1.38,21.48Z"/>
  <path class="cls-1" d="m484.23,535.46c-3.71-4.35-7.81-5.24-12.63-5.67-7.41-.66-14.55,1.58-21.88,1.04-10.73-.79-20.79,1.87-30.6,6.39-1.15-5.6-.63-10.64,1.61-15.76,3.59-8.23,6.52-16.74,8.15-25.61,3-16.31,4.88-32.88,10.28-48.64,2.79-8.16,1.45-18.24,10.83-23.59,2.33-1.33,1.48-4.3-.06-6.23-1.71-2.15-2.51.65-3.69.88-3.27.64-6.88,3.19-9.9.92-3.19-2.4-1.25-6.12-.51-9.3,1.38-5.89,1.65-11.88,1.2-17.87-.29-3.85-.27-7.88-3.29-11.38-1.47,1.82-1.28,3.8-1.5,5.75-.91,8.26-.47,16.67-2.66,24.77-1.67,6.16-.78,11.26,5.5,14.26,3.06,1.46,3.26,3.44,2.19,6.49-2.08,5.93-3.67,12.03-5.46,18.04-5.8.39-10.39-2.75-15.97-3.79,2.51-5.95,4.7-11.14,6.91-16.33,2.13-5.01,3.85-9.68-2.63-13.27-3.44-1.91-3.85-6.23-4.56-9.7-3.75-18.19-1.35-36.38.74-54.52.2-1.77.28-4.21,2.89-4.65,2.58-.43,3.09,1.91,4.36,3.35,2.89,3.27,3.18,8.79,8.75,10.4,2.12-5.07,1.48-10.67,4.5-15.35,3.36,2.07,4.33,5.36,5.26,8.33,4.46,14.31,8.29,28.77,7.17,44.01-.45,6.15.75,11.74,4.99,16.39,1.58-.71,2.2-1.82,2.24-3.24.69-22.88-2.13-45.15-11.75-66.2-.82-1.8-1.85-3.59-3.14-5.07-3.53-4.04-6.81-3.55-9.31,1.04-1.12,2.04-.52,4.68-2.38,6.41-.61-.25-1.45-.32-1.7-.74-2.4-3.95-5.71-5.01-10.19-4.04-4.97,1.08-6.04,4.92-6.67,8.85-.85,5.23-1.61,10.51-2.36,15.74-1.52,10.59-.37,21.17-3.66,31.97-5.28,17.32-14.3,31.91-24.66,46.22-12.29,16.97-24.76,34.02-31.62,54.05-4.31,12.61-9.75,24.74-14.15,37.28-.85,2.43-1.57,4.1-4.71,3.8-10.36-1-20.5-.77-29.97-7.52-9.86-7.02-21.38-10.3-33.93-4.67-3.9,1.75-9.01.82-13.68,1.12-.24-3.86,1.64-5.41,3.7-7.29,4.45-4.06,9.96-9.02,9.89-14.54-.12-9.93,3.24-18.26,7.11-26.78.41-.9.51-1.93.89-2.85,1.22-2.96.94-6.47,4.56-8.46,3.01-1.65,2.56-5.11,2.04-8.14-1.47-8.66-11.88-9.97-14.63-17.79-.9-2.55-4.23-2.84-6.89-3.38-6.8-1.38-6.81-1.46-3.54-7.85,5.42-10.6,12.13-20.46,14.98-32.41,3.3-13.85,4.64-28.15,9.62-41.61.64-1.75.2-3.98,0-5.96-.95-9.27-2.8-18.38-6.38-26.97-2.29-5.49-2.68-10.68,0-16.74,9.28,4.8,16.22,1.6,21.72-6.75,1.38-2.11,3.98-3.55,6.25-4.9,7.03-4.16,10.8-10.65,13.28-18.07,2.74-8.22,5.02-16.61,5.04-25.33.01-4.46.96-8.29,2.95-12.33,8.47-17.14,10.38-35.58,9.54-54.41-.09-2.15.05-4.84-3.29-5.31-1.07,2.88-.76,5.9-.93,8.87-.9,15.73-3.5,31.28-10.54,45.34-3.74,7.46-4.89,14.65-5.83,22.65-1.42,12.09-3.44,24.56-13.47,33.42-3.98,3.51-8.48,6.4-11.45,11.02-1.55,2.4-4.16,2.98-5.48.03-4.26-9.5-13.68-14.39-19.51-22.45-2.44-3.37-6.06-3.33-9.9-3.3-3.88.04-7.44,2.83-11.74,1.32,10.65-6.03,11.31-6.26,8.36-14.54-2.86-8.04-3.48-13.96,4.65-19.71,5.88-4.15,10.32-10.29,17.92-11.98,1.58-.35,3.16-1.15,4.51-2.08,3.48-2.4,3.24-5.74-.58-7.5-2.37-1.09-4.95-1.74-7.44-2.57-3.88-5.36-6.36-11.43-9.13-17.32-1.24-2.63.68-6.35-1.44-8.65-3.12-3.39-4.96,1.95-7.73,1.74-1.31-.1-2.6-.49-3.89-.81-10.36-2.56-18.96-16.83-16.55-27.22,1.88-8.13,7.33-12.82,14.43-16.11,3.39,4.16,6.4,8.13,9.71,11.83,2.9,3.23,6.28,5.87,10.7,6.92,16.71,3.97,41.57-5.27,51.73-19.06,1.57-2.13.85-4.28,1.24-6.38,4.3.19,7.53,1.66,8.55,6.42,2.23,10.4,1.45,20.22-7.44,27.21-8.24,6.47-11.33,15.49-15.26,24.33,2.96,1.51,4.75.44,6.02-1.1,6.48-7.87,10.42-17.79,19.28-23.78.95-.64,1.2-2.32,1.74-3.54,3.56-7.96,3.27-16.06,1.24-24.34-.97-3.98-2.76-6.74-7.06-7.22-10.96-1.22-17.55-7.92-22.56-17.17-2.83-5.23-6.58-9.99-10.16-14.79-8.17-10.97-17.02-21.22-28.41-29.16-4.54-3.16-10.2-3.15-14.45-6.53-16.5-13.13-35.05-23.02-53.95-31.89-14.88-6.98-30.3-13.58-47.17-14.63-2.62-.16-4.37-1.36-6.11-2.86-17.53-15.12-37.78-21.49-60.81-19.17-8.57.87-8.62.78-9.47,10-2.73.35-5.93-.36-6.7,3.85-.64,3.46,1.71,4.71,3.86,6.22,1.09.76,2.22,1.49,3.39,2.11,8.57,4.56,15.53,10.53,21.6,18.45,6.45,8.41,16,13.09,27.37,10.02,3.6-.97,5.64.58,7.73,2.94,4.46,5.03,9.91,8.91,15.62,12.31,19.38,11.54,38.16,24.18,59.07,33,2.07.87,4.56,1.62,5.31,4.19,4.03,13.74,13.14,24.51,21.31,35.74,3.44,4.73,2.14,6.92-1.56,10.37-8.19,7.64-8.95,15.02-5.32,25.25,3.91,11.02,11.1,17.88,22.18,20.95,2.95.82,6.02,1.65,7,4.94,1.88,6.33,5.24,12.27,4.99,19.18-.05,1.65.68,3.74-.64,4.77-7.38,5.79-11.25,15.64-21.81,17.88-6.4,1.36-13.36,1.93-18.66,6.41-4,3.38-7.26,4.79-11.86.59-2.56-2.34-6.52-2.86-10.36-2.86-14.76.03-29.43,3.89-44.26,1.07-.96-.18-2-.02-2.99.1-4.4.52-6.97,2.41-7.94,7.32-1.36,6.92-2.08,13.75-1.89,20.79.19,7.14-.25,7.65-6.79,8.07-9.92.63-19.91-1.15-29.82,1.08-2.62.59-5.01-1.52-7.48-2.47-11.47-4.43-22.9-9.09-35.31-10.15-3.55-.31-6.43-1.88-8.98-3.94-12.59-10.2-27.54-12.47-43-13.4-2.18-.13-3.82-.27-4.97,1.95-1.22,2.36.4,3.68,1.56,5.26,2,2.73,4.6,4.78,7.31,6.73,1.87,1.34,4.55,2.2,5.14,4.53,2.33,9.21,9.92,11.01,17.48,12.45,4.35.83,7.95,2.4,11.77,4.71,18.31,11.08,38.09,18.85,58.93,23.69,14.22,3.3,28.38,2.73,42.39-1.69,5.17-1.63,11.61-2.32,15.35.99,7.27,6.42,16.09,9.21,24.39,13.2,11.2,5.38,20.02,1.4,24.92-10.12,1.52-3.57.25-7.69,2.3-11.29,2.53,1.52,4.44,3.6,6.48,3.74,8.89.61,10.98,7.26,13.61,13.88,4.66,11.72,7.51,24.15,13.93,35.18,1.21,2.08,1.47,4.33.54,6.71-6.13,15.71-7.69,32.39-8.44,48.88-.46,10.16-2.55,17.01-12.76,20.14-2.55.78-3.98,4.87-7.64,2.6,0,.02,0,.04,0,.06-4.84-2.19-8.97-.96-12.69,2.47-1.84,1.7-8.46,20.25-7.88,22.6.31,1.26.7,3.02,1.61,3.51,4.83,2.58,4.05,6.68,4.01,11.09-.1,10.22,9.11,20.71,19.17,22.53,1.23-2.72-1.39-4.14-2.09-6.19-1.16-3.39-1.29-5.19,3.59-5.34,4.5-.14,8.24-3.26,8.06-8.47-.2-5.83,4.91-6.08,7.92-8.67,3.73-3.21,8.87-4.26,11.99-2.19,5.53,3.65,12.27,4.79,17.82,9.35-3.26,3.41-7.39,5.96-6.4,11.51,1.67,9.35-2.43,16.54-8.74,23.19-5.05,5.33-5.5,6.09-12.12,3.33-3.66-1.53-7-3.78-10.55-5.58-2.46-1.25-4.86-3.16-8.93-1.79,5.47,6.15,11.57,9.76,18.55,11.9,3.04.94,5.23,1.44,4.91,5.78-.31,4.23,1.86,5.27,6.38,3.11,5.3-2.52,11.37-3.23,17.41-2-.54,9.1,1.49,17.8.02,26.7-1.39,8.46-.67,9.04-8.76,10.39-7.47,1.25-14.03,3.56-18.69,9.02h12.19c2.22-1.22,4.8-2,7.66-2.62,6.65-1.44,14.31-1.7,16.09-11.1.02,4.95.7,9.42,2.02,13.72h7.68c-.56-1.82-.91-3.86-.55-6.36,11.48,3.36,23.11,4.87,34.68,3.92.6.84.95,1.65,1.15,2.44h7.8c3.33-16.63,7.35-33.07,13.7-48.8,7.68-19.02,13.21-38.97,23.83-56.86,4.58-7.7,9.91-14.9,14.36-22.7,2.63-4.6,8.57-7.19,14.01-8.56,6.07-1.53,8.76,1.04,8.2,7.3-.89,10.06-4.6,19.34-8.55,28.5-1.17,2.73-2.83,5.28-4.43,7.8-9.47,14.9-14.91,30.25-13,48.81,1.52,14.73,1.62,29.62,1.59,44.51h6.52c.27-19.74.99-39.49-1.67-59.17-.45-3.36.1-6.48,1.85-9.56,4.91-8.65,8.8-17.81,14-26.36,4.13-6.79,5.49-14.88,7.61-22.55.44-1.59.5-3.3,1.01-4.87,1.83-5.61,5.23-8.55,8.85-7.84,4.02.79,7.94,5.37,8.03,10.05.18,8.64.1,17.34-2.19,25.73-3.31,12.15-5.68,24.61-11.27,36.05-3.09,6.33-2.37,13-1.37,19.57,1.98,13.05,4.77,25.96,7.09,38.95h6.73c-1.71-10.05-3.79-20.04-5.64-30.08-.39-2.12-2.03-5.02.97-6.12,8.05-2.95,15.54-8.45,24.44-7.78,6.68.5,13.21.92,19.88.2,2.38-.25,5.41-.59,7.14,2.29-3.37,2.49-7.26,3.42-11.2,4.03-3.61.56-7.28.75-10.92,1.17-2.4.28-4.64,1.03-5.34,3.68-.6,2.29,1.24,3.52,2.45,5.09,1.68,2.19,5.53,2.43,5.7,6.48-10.09-.59-19.34-10.13-29.97-3.02.75,1.96,1.74,3.14,3.08,3.12,7.46-.13,14.31,2.45,21.32,4.43,2.22.62,4.6.89,6.91.92,2.96.04,4.99-1.71,6.16-4.33,1.2-2.7-.7-4.3-2.31-6.02-1.22-1.3-3.76-1.49-3.54-4.33,11.22-1.73,21.86-4.8,29.47-14.09Zm-216.19-314.59c1.09,2.74,4.29,3.57,5.71,5.95-.9,2.41-3.14,3.3-4.8,2.35-3.71-2.14-2.58-5.3-.91-8.3Zm46.15-77.06c1.28-.26,2.26.09,2.67,1.38-1.11.1-2.23.24-3.14-.64-.05-.05.26-.7.47-.74ZM117.06,19.07c18.89,11.4,39.75,17.68,60.39,24.75,22.08,7.56,41.75,20.25,62.31,31.01,8.62,10.74,22.6,14.4,31.83,24.7,9.13,10.19,16.93,21.31,25.53,31.85,3.15,3.86,6.07,7.91,8.95,11.98,5.23,7.38,5.08,7.3-1.23,13.05-6.19,5.63-13.46,8.94-21.65,8.75-5.82-.14-11.63,3.04-17.57-.42-4.71-2.74-8.78-5.82-11.68-10.51-10.3-16.66-20.19-33.54-27.29-51.87-1.07-2.75-2.73-4.59-5.12-5.76-29.64-14.55-54.92-36.13-83.82-51.89-4.34-2.37-7.91-5.4-13.46-3.37-2.71.98-5.9-.04-8.34-2.23-9.52-8.56-18.75-17.46-29.74-24.53h-.01c10.73-.05,21.49-1.19,30.9,4.49Zm97.56,88.88c-.98-3.43-2.94-5.58-6.41-6.97-22.66-9.05-42.63-22.97-63.39-35.43-3.11-1.86-6.02-4.2-8.63-6.72-4.79-4.62-8.56-8.6-16.98-6-7.51,2.31-15.34-3.04-19.97-9.06-7.13-9.26-15.65-16.01-26.12-20.75-2.35-1.07-4.99-2.63-2.01-5.68,12.23,3.14,22.2,10.05,31.12,18.72,7.16,6.96,13.92,14.97,25.78,9.87,1.84-.8,2.69,1.44,4.02,2.27,24.22,15.15,46.62,33.29,72.51,45.61,9.5,4.52,15.63,9.85,19.22,20.1,3.98,11.35,10.64,21.77,16.1,32.52-2.62,1.77-3.78.2-4.54-1.12-7.06-12.36-16.67-23.33-20.7-37.36Zm-38.5,168.03c-4.83.97-8.34,6.34-13.97,4.49,4.59-2.84,9.24-5.62,13.84-8.37,1.22,1.66,1.12,3.68.13,3.88Zm-17.2,9.3c-.67-2.53,1.93-3.07,2.97-4.55,1.39,2.91-1.02,3.6-2.97,4.55Zm-62.73,29.18c-19.28-6.16-37.87-14.27-55.84-23.66-5.26-2.75-11.94-1.66-17.04-6.6,3.79-1.77,8.31,0,11.63-4.02-7.34-4.48-17.73-2.19-23.53-10.46,13.28-2.14,23.85,3.15,34.22,9.18,3.05,8.42,10.53,5.64,16.61,6.75,9.52,1.73,18.63,5.03,27.52,8.77,5.72,2.41,11.1,2.98,17.35,1.82,8.11-1.5,16.56-1.09,24.8-2.01,7.35-.82,8.34-1.87,8.38-9.39.04-7.02.99-13.84,2.13-20.73.65-3.93,2.37-4.82,5.97-4.69,5.26.18,8.74,4.34,13.07,5.59,3.96,1.14,6.48-6.56,12.01-5.26.61.14,1.17.51,1.76.78.76,1.55-.01,2.46-1.33,3.07-14.12,6.48-22.71,19.14-33.1,29.75-3.49,3.57-4.21,8.07-1.82,12.87,1.16,2.35,1.78,4.98,2.92,8.29h0s.01.01.01.01c-15.78,5.79-31.01,4.64-45.72-.06Zm105.66,11.69c-3.08,5.24-5.88,6.23-11.63,3.92-5.84-2.35-11.53-5.06-16.79-8.58-.78-.53-2.25-1.52-2.21-1.59,4.43-7.57-1.73-6.69-5.88-7.74-.72-.18-1.7-2.92-1.28-3.45,3.06-3.82.35-10.88,7.47-12.54,3.45-.81,2.97-6.99,7.63-7,4.12,0,5.73,4.23,9.07,5.64,3,1.26,5.68,3.46,9.29,1.31,3.19-1.9,4.63-.01,5.78,2.97,1.49,3.85,1.37,7.81,1.54,11.7h-.01c.97,5.55-.21,10.65-2.98,15.36Zm4.42-36.02c-.78.44-2.3.86-2.7.48-3.07-2.97-5.56-3.36-9.23-.3-2.1,1.74-5.21-.8-6.62-2.88-3.66-5.36-7.64-4.07-12.95-2.61-5.85,1.61-8.36,7.22-13.68,9.03-.72.24-1.63,1.73-1.48,2.44,1.26,6.23-2.97,11.93-1.44,18.13-9.97-.26-13.79-3.41-14.92-12.08-.26-2.04-.53-4.53,1.2-5.56,5.3-3.15,8.02-9.6,14.44-11.24.92,1.58,2.34,2.05,4.01,1.36,5.51-2.27,10.89-4.87,16.49-6.9,4.8-1.74,4.96-4.74,3.1-8.56-.86-1.78-1.7-3.44-2.11-5.47-.83-4.1-.19-6.4,4.62-6.11,2.97.18,5.99-.33,8.93,0,4.25.48,7.46,2.63,8.46,7.14.75,3.39-.85,8.03,5.74,7.77,1.8-.07.5,14.03-1.86,15.36Zm20.16-8.17c-8.58,5.96-14.28,13.17-9.26,25-4.78-1.83-6.65-4.97-8.69-7.87-1.58-2.25-1.95-3.61.56-6.48,5.04-5.76,6.05-13.47,1.99-20.17-2.02-3.33-1.02-4.08.86-6.29,6.01-7.04,14.01-9.59,22.66-10.95.93-.14,2.32-.24,2.82.29,3.39,3.55,3.47,8.47,4.82,12.82.98,3.16-1.88,4.47-4.2,5.91-3.94,2.45-7.75,5.1-11.56,7.74Zm11.03,157.28c5.32-1.47,5.06-6.55,5.46-10.76,1.5-15.87,1.35-32.17,6.01-47.35,3.38-11,.26-19.55-3.03-29.31-3.55-10.53-9.1-20.55-9.47-32.14-.07-2.12-2.97-4.23-4.72-6.2-9.83-11.1-3.12-20.86,6.6-27.09,3.28-2.1,7.43-2.83,11.18-4.21,3.59-1.32,6.4-.5,8.73,2.64,4.18,5.61,9.3,10.38,15.07,15.38h0s.02.01.02.01c-7.13,7.78-10.06,14.96-5.4,24.64,3.11,6.46,4.05,13.98,5.72,21.09,1.48,6.3.55,12.38-1.31,18.64-2.35,7.91-3.71,16.14-5.17,24.29-2.19,12.23-5.93,23.83-12.3,34.59-3.39,5.72-6.52,11.76-6.25,18.67.18,4.57-2.42,6.7-5.95,8.16-7.33,3.02-14.84,5.38-23.97,5.55,5.97-6.97,10.04-14.19,18.78-16.6Zm-22.89,7.33c1.38-.45,2.88-.54,2.99-2.17.48,1.83,1.59,3.68-.77,5.34-3.47,2.45-6.82,5.07-9.3,6.92-.85-6.62-.26-7.71,7.08-10.09Zm44.45,27.26c-10.47-7.28-22.34-5.45-30.06,4.34-1.71,2.16-1.11,4.36-1.38,6.57-.47,3.79-1.95,6.57-6.29,5.88-3.7-.59-5.89,1.99-8.67,4.22h0v.02c-3.69-5.55-7.24-10.19-4.31-16.87,1.46-3.32,1.31-6.57-3.41-7.59-1.33-.29-2.01-1.66-1.91-3.13.16-2.45,2.05-1.96,3.63-2.16,11.25-1.45,21.79-5.71,32.72-8.42,4.78-1.18,9.1-3.95,12.5-7.86,4.55-5.23,8.78-5.28,12.49.16,1.91,2.79,3.42,4.95,6.95,6.54,5.46,2.46,5.52,8.65,1.32,13.53-.64.74-1.35,1.43-1.87,2.25-3.97,6.3-5.7,6.69-11.7,2.52Zm49.23,71.57c-.59,3.52-1.08,5.91-3.35,7.63-.36-2.62.22-5,3.35-7.63Zm-21.88,25.67c-1.45-13.21-3.16-24.91-6.62-36.28,7.41-.94,13.32,1.01,24.59,8.1-2.52,6.32-5.43,12.58-7.49,19.11-1.54,4.88-6.19,5.35-10.48,9.07Zm18.37-17.65c.17.95-.05,1.78-.82,2.43-.01.01-.59-.43-.62-.69-.13-1.12.28-1.81,1.44-1.74Zm21.65,14.39c-.35,2.17-1.8,3.55-4.18,3.35-6.18-.51-12.57.42-18.66-2.33,1.22-2.79,2.06-5.34,3.38-7.62,2.73-4.72,1.64-13.01,7.35-14.01,4.69-.82,10.37-1.37,16.59-.15.12,7.65-3.39,13.94-4.48,20.76Zm85.64-126.89c-1.08,2-3.61,1.85-5.34.73-3.5-2.26-7.52-2.06-12.08-2.84,5.63-9.51,11.94-18.2,14.5-28.61h0c3.56.94,3.12,3.94,4.57,5.64,2.26,2.67,7.26,4.51,6.25,8.13-1.65,5.93-4.95,11.45-7.91,16.95Z"/>
  <path class="cls-1" d="m317.1,145.17h.04s-.03,0-.04,0c0,0,0,0,0,0h0Z"/>
  <path class="cls-1" d="m301.42,217.51c2.92,3.34,3.07,6.14,2.27,9.68-3.18,13.9-8.35,27.07-14.28,39.92,5.06,3.31,8.59,7.3,10.59,11.97-4.85-1.86-6.84-7.08-11.88-7.16-4.13-.07-7.53,3.65-13.83,2.7,18-11.68,18.82-30.3,24.75-46.32,1.19-3.22,1.52-6.77,2.38-10.78h0Z"/>
  <path class="cls-1" d="m252.35,184.76c3.98-3.04,7.28-4.48,10.8-1.67,8.16,6.53,18.11,9.51,27.34,13.9,1.16.55,2.58.78,2.78,2.81-.91,2.49-3.54,2.7-5.57,2.01-12.14-4.14-24.56-7.8-35.35-17.05h0Z"/>
  <path class="cls-1" d="m216.2,530.21c4.38,9.51,13.35,15.83,17.69,25.42-8.03-5.43-13.36-13.23-18.73-20.96-.99-1.42-.27-3.2,1.12-4.44h-.08v-.02Z"/>
  <path class="cls-1" d="m239.79,487.42c2.97-.5,2.67,1.72,2.88,3.65.2,1.81,0,3.55-2.2,3.28-2.16-.28-4.83-.79-4.87-3.79-.03-2.5,1.93-3.08,4.19-3.13h0Z"/>
  <path class="cls-1" d="m237.63,561.93c3.12-.66-1.79,7.04,4.08,3.44.96-.59,1.05,1.18,1.05,1.96,0,1.82-.94,3.17-2.74,3.61-1.36.33-2.57-.19-3.4-1.39-2.06-2.99-.7-5.39,1.01-7.62Z"/>
  <path class="cls-1" d="m260.58,486.67c-1.66,1.25-1.45,4.76-4.67,4.1-.46-.09-.91-1.67-.88-2.54.09-2.32,1.43-3.65,3.8-3.55,1.01.04,1.76.75,1.74,1.99h.01Z"/>
  <path class="cls-1" d="m246.54,540.9c.58,3.6-1.47,5.9-3.78,8.43-1.57-4.63,3.09-5.7,4.09-8.66l-.31.23Z"/>
  <path class="cls-1" d="m252.38,506.39c-.38.77-.98,1.06-1.66.65-.41-.25-.65-.8-.96-1.21.56-.22,1.14-.64,1.67-.58.36.04.65.75.95,1.14h0Z"/>
  <path class="cls-1" d="m246.85,540.66c-.01.17-.03.34-.04.52.41-.46.31-.54-.28-.26.02-.02.33-.26.33-.26h0Z"/>
  <path class="cls-1" d="m260.21,316.6c-3.56,10.15-11.87,9.01-21.4,8.59,7.41-4.93,15.6-4.47,21.73-8.82l-.33.23h0Z"/>
  <path class="cls-1" d="m260.55,316.37c-.1,1.33-1.19-.1,0,.49.3.15.4-.32-.33-.24,0-.03.34-.26.34-.26h-.01Z"/>
  <path class="cls-1" d="m226.95,468.48c-2.34,1.49-5.41.97-5.25-1.31.23-3.28,2.54,0,3.95.01.42,0,.84.82,1.3,1.3Z"/>
  <path class="cls-1" d="m186.89,304.27c.2,2.07-.75,4.14-4.13,4.3-2.4.11-3.64-1.16-3.58-3.46.08-3.28,1.55-5.72,5.09-5.85,2.71-.1,2.79,2.03,2.62,5.01h0Z"/>
  <path class="cls-1" d="m185.92,318.29c.5.28,1.3.45,1.43.85.51,1.57-.65,2.14-1.88,2.33-.49.08-1.51-.33-1.55-.62-.17-1.4.98-1.97,1.99-2.57h.01Z"/>
  <path class="cls-1" d="m316.82,142.34c-1.13.05-2.29.21-3-1"/>
  <path class="cls-1" d="m70.82,17.34c-1,.67-2,1.33-3,2"/>
  <path class="cls-1" d="m134.82,292.34c-1.13-.05-2.29-.21-3,1"/>
  <path class="cls-1" d="m261.82,316.34c-2.16,2.48-5.22,3.52-8,5"/>
  <path class="cls-1" d="m215.82,533.34c.07-2.74-2.8-2.53-4-4"/>
  <path class="cls-1" d="m218.82,445.34c-1-1.37-2-1.37-3,0"/>
  <path class="cls-1" d="m433.82,380.34c.49,1.97-1.09,4.29,1,6"/>
  <path class="cls-1" d="m221.82,466.34c2.13.29,3.39,3.15,6,2"/>
  <path class="cls-1" d="m251.82,523.34c.05,1.13.21,2.29-1,3"/>
  <path class="cls-1" d="m290.82,270.34c-1.13.05-2.29.21-3-1"/>
  <path class="cls-1" d="m241.82,564.34c-.2,1.37.64,2.99-1,4"/>
  <path class="cls-1" d="m237.82,562.34c-.2,1.37.64,2.99-1,4"/>
  <path class="cls-1" d="m186.82,319.34c-1,.33-2,.67-3,1"/>
  <path class="cls-1" d="m247.82,540.34c-2.92,2.78-4.17,6.56-6,10"/>
  <path class="cls-1" d="m301.82,218.34c.2,1.37-.64,2.99,1,4"/>
  <path class="cls-1" d="m415.82,448.34c1.97.49,4.29-1.09,6,1"/>
  <path class="cls-1" d="m274.82,224.34c-3.53.39-4.97-3.38-8-4"/>
  <path class="cls-1" d="m306.82,541.34c-1.33,3-2.67,6-4,9"/>
  <path class="cls-1" d="m309.82,547.34c.05,1.13.21,2.29-1,3"/>
</svg>