<?xml version="1.0" encoding="UTF-8"?>
<svg id="Layer_1" data-name="Layer 1" xmlns="http://www.w3.org/2000/svg" viewBox="0 0 853 201">
  <defs>
    <style>
      .cls-1 {
        stroke-linecap: round;
        stroke-linejoin: round;
        stroke-width: 2px;
      }

      .cls-1, .cls-2 {
        fill: #e42a1d;
        stroke: #e42a1d;
      }

      .cls-2 {
        stroke-miterlimit: 10;
      }
    </style>
  </defs>
  <path class="cls-2" d="m561.49,82.8c-1.69-.15-2.38-1.53-3.04-2.73-2.14-3.85-4.41-7.6-5.39-12.06-.56-2.56-2.36-4.85-3.68-7.42-.9.78-1.49,1.55-1.84,2.62-.92,2.81-2.23,5.09-5.84,4.91-1.38-.07-2.19,1.48-3.29,2.27-3.07,2.2-6.37,3.28-10.14,2.14-.89-.27-1.55-.86-1.97-1.69-.56-1.11-.38-2.07.85-2.49,4.9-1.67,8.3-5.18,11.46-9.06,1.02-1.25,2.29-2.29,3.81-3,1.38-.65,1.45-1.67.31-2.71-.1-.09-.22-.19-.27-.3-1.12-2.67-3.5-2.15-5.64-2.21-4.17-.12-8.34-.16-12.5-.34-2.47-.11-3.75-2.67-2.25-4.63.74-.95.51-1.55.05-2.32-3.51-5.76-7.12-11.46-10.51-17.28-3.37-5.79-7.07-11.37-10.28-17.26-.83-1.53-1.82-3.03-2.81-4.49-.31-.46-.87-1.2-.23-1.64.74-.5,1.08.45,1.32.88,1.75,3.1,3.78,6,5.67,9.01,4.23,6.74,8.37,13.54,12.55,20.31,2.11,3.42,4.24,6.83,6.31,10.27.41.69.94,1.34,1.03,2.2.11,1.12,1.02.98,1.62.79.85-.28.26-.95.02-1.34-1.42-2.4-2.91-4.75-4.35-7.14-2.06-3.41-4.11-6.84-6.16-10.26-2.3-3.84-4.62-7.68-6.88-11.55-2.62-4.49-5.19-9.01-7.77-13.52-.23-.41-.53-.82-.3-1.46,2.11.55,2.61,2.62,3.54,4.07,4.03,6.3,7.91,12.69,11.74,19.12,4.24,7.1,8.59,14.14,12.52,21.42.39.72,1,1.15,1.62.98,1.9-.5,3.76-.11,5.63,0,1.33.09,1.37-.41.7-1.41-1.11-1.69-2.34-3.33-2.9-5.33-.14-.49-.44-.93-.96-.96-1.76-.12-1.98-1.46-2.51-2.76-1.6-3.93-3.66-7.78-6.89-10.44-3.37-2.77-3.17-6.09-2.89-9.63.1-1.25,1.41-1.77,2.48-1.05,2.92,1.99,5.72,4.08,7.34,7.43.67,1.37,1.69,2.67,2.84,3.7,2.73,2.45,4.54,5.57,6.44,8.61,1.49,2.38,3.86,3.83,5.79,5.73,1.68,1.67,3.53,3.21,5.19,4.92,1.09,1.11,2.15,1.77,3.75,1.63,1.27-.12,2.56.03,3.79.76-2.88.65-5.83.6-8.74.46-2.93-.14-5.86.02-8.8-.21-3.06-.24-6.15-.01-9.22-.06-2.93-.05-5.87,0-8.88-.46.02,1,.82,1.09,1.62,1.11,1.64.06,3.29.21,4.93.12,4.1-.24,8.19.2,12.26.44,3.66.21,7.33.06,10.98.55,2.12.28,4.33.04,6.48.31.65.08,1.36-.03,1.81.69-.79.88-1.83.47-2.7.49-2.27.03-4.53-.18-6.8-.18-1.04,0-1.95.27-2.86,1.11-4.05,3.73-7.79,7.75-11.71,11.61-1.21,1.19-2.64,2.16-3.87,3.36-1.37,1.33-3.01,2.28-4.85,2.94,2.74.86,5.27.32,7.57-1.26,2.33-1.62,4.32-3.77,7.49-3.8.76,0,1.37-.88,1.72-1.63,1.11-2.4,2.9-4.23,4.76-6.02,1.2-1.16,2.59-1.84,4.27-2.18,2.59-.52,4.67-2.38,7.25-3.04.51-.13.56-.67.32-1.21-.35-.81-.63-1.64-.93-2.48-.18-.5-.16-.99.36-1.24.72-.35,1.06.23,1.2.73,1.02,3.5,3.19,6.39,5.02,9.44.87,1.45,1.92,2.82,3.09,4.05.83.88,1.85,1.32,3.29,1.51,3.56.48,7.12.42,10.67.6,1.02.05,1.9.71,2.77,1.26.56.35,1.22.56,1.69.05.4-.44-.2-.84-.39-1.25-3.06-6.53-7.61-11.83-13.34-16.15-.7-.53-1.48-.98-2.28-1.34-2.51-1.13-4.74-2.65-6.62-4.65-1.95-2.08-4.33-2.25-7.06-1.81,0-1.44.61-2.15,2.07-2.04,2.34.19,4.44.67,6.13,2.63,2.92,3.36,7.08,4.91,10.91,6.91.34.18.79.18,1.19.22.34.03.72.05.9-.32.19-.39-.16-.61-.35-.87-2.04-2.78-4.09-5.56-6.12-8.35-.8-1.1-1.62-2.18-2.34-3.33-3.01-4.77-6.68-9.05-9.88-13.69-3.46-5.02-7.01-9.98-10.45-15.02-.32-.47-1.5-1.16-.43-1.83.84-.53,1.02.59,1.39,1.09,2.4,3.21,4.79,6.42,7.33,9.53-2.69-4.69-6.02-8.98-8.76-13.8,1.23-.3,1.71.58,2.17,1.22,4.16,5.81,8.31,11.62,12.39,17.47,5.76,8.26,11.46,16.56,17.21,24.82.73,1.04,1.5,1.99,3.12,1.89,1.48-.08,2.2,1.27,2.15,2.51-.05,1.2-.73,2.4-2.2,2.58-.91.11-1.85.02-3.17.02,2.1,2.59,3.99,4.88,5.58,7.41,1.17,1.86,2.13,3.76,2.77,5.83.23.73.53,1.19,1.28,1.4,2.45.69,3.91,2.41,3.78,4.77-.11,1.94-.73,3.84.16,5.81.35.77-.36.77-.99.5-1.54-.67-2.33-2.19-3.68-3.1-.68-.46-1.38-.78-2.17-1.01,1.32,1.17,2.81,2.16,3.99,3.49.38.43,1.07,1.02.56,1.51-.56.54-1.02-.15-1.43-.64-2.56-3-6-4.34-9.75-4.93-1.44-.23-2.76-1.68-4.22-.84-1.25.72-1.63,2.31-2.35,3.54-2.62,4.47-5.14,8.98-7.69,13.49-.27.47-.46,1.23-1.1.93-.81-.38-.03-.9.15-1.33.82-1.89,2.18-3.54,2.73-6.13-2.22,2.64-3.24,5.41-4.67,7.91-.19.33-.07.75.25.9,1.13.53,1.14,1.62,1.28,2.59.15,1.01.78,1.16,1.45.79,3.99-2.23,7.03-5.19,8.06-9.92.32-1.46,2-2.28,2.62-3.79,2.1-5.12,4.4-6.56,10.44-3.48,1.37.7,1.53,1.81,2.06,2.82.98,1.87.92,1.91,3.13,2.48-.2-1.1-.44-2.14-.57-3.19-.1-.81.44-1.43,1.13-1.47,1-.04.54.8.52,1.34-.07,1.66.16,3.31.85,4.79.79,1.67.17,2.66-1.25,3.27-1.12.48-1.39,1.02-.99,2.2.58,1.72.74,3.61,1.44,5.27.86,2.05,2.46,3.51,4.58,4.42,5.08,2.16,8.05,7.14,7.71,12.66-.05.68.04,1.38-.05,2.05-.14,1.16.35,1.68,1.43,2.07,1.9.69,4.02,4.21,3.4,5.98-.49,1.41,0,1.98,1.01,2.66,1.65,1.11,1.67,3.66.1,4.92-1.81,1.46-3.32,3.28-5.31,4.52-.7.44-.6.79-.14,1.25,2.26,2.23,3.31,5.32,5.42,7.65.49.55.61,1.04.46,1.83-.78,4.28-1.99,8.46-2.78,12.75-.83,4.49-4.46,7.2-9.08,7.58-1.72.14-3.43.44-4.98,1.67.35.13.51.21.69.25.95.21,2.61-.51,2.73.55.16,1.41-.4,3-1.68,4.14-.94.84-2.29,1.02-3.56,2.24,5.02-.64,8.55-3.23,11.98-5.83,2.71-2.06,4.7-4.89,6.81-7.56.82-1.04.69-1.5-.57-1.73-.2-.04-.42,0-.61-.07-.58-.2-1.38-.39-1.29-1.1.11-.87.98-.48,1.53-.52.75-.05,1.5.03,2.25.03.81,0,1.52-.3,1.87-1.04,1.37-2.94,2.53-5.99,3.61-9.03.69-1.94.22-4.35-.44-6.46-1.16-3.7-2.51-7.32-5.36-10.14-.32-.32-.47-.74-.1-1.07.39-.34.81-.03,1.08.25,1.7,1.78,3.42,3.57,4.35,5.89.86,2.12,1.81,4.21,1.72,6.65-.03.88.13,1.97.89,2.83.8.91.28,1.99-.28,2.84-1.21,1.85-1.57,4.01-2.47,6.08,3.06-1.02,5.93-4.56,6.47-7.78.23-1.34.55-2.66.86-3.99.13-.56.44-.88,1.01-1.15,6.11-2.93,11.55-6.65,14.74-12.92.13-.25.28-.76.7-.56.47.22.69.71.37,1.2-.67,1.03-.98,2.23-1.69,3.26-3.22,4.65-7.81,7.71-12.46,10.62-1.48.93-2.17,2.44-1.96,3.44.67,3.15-1.49,4.55-3.12,6.37-.48.53-1.34.73-1.46,1.73,1.67-.08,3.17-.81,4.78-.93.62-.05,1.16-.73,1.41-1.4,1.46-3.87,4.78-4.85,8.38-5.39l.07.07c-.42,1.06-1.45,1.3-2.34,1.74-1.56.78-3.22,1.41-4.51,2.74.79.62,1.32-.1,2.38-.19-2.3,2.15-3.96,4.47-6.43,5.91-1.12.65-2.56.83-3.81.49-2.72-.75-4.52.02-6.27,2.32-2.7,3.54-5.92,6.66-9.12,9.78-3.02,2.94-6.34,5.08-10.37,6.17-1.43.39-2.87.86-4.39.67-.68-.09-1.43-.38-1.59-1.11-.16-.74.55-.93,1.1-1.25.74-.43,1.37-1.05,2.13-1.65-.98.14-2.22,1-2.59-.17-.36-1.16,1.23-.97,1.91-1.37,1.3-.76,2.78-1.23,4.1-2.09-.52-.05-1.07,0-1.54-.17-.89-.32-1.94-.68-2.16-1.69-.21-.95.97-.95,1.46-1.47,2.13-2.25,4.97-2.35,7.76-2.27,1.67.05,2.58-.6,3.41-1.99,2.04-3.42,2.57-7.29,3.6-11.02.23-.85.17-1.84.59-2.57,1.24-2.1.59-3.72-.91-5.32-1.41-1.5-2.36-3.33-3.48-5.03-.6-.92-.8-2.38-2.56-1.91-.49.13-1.12-.36-.89-1.06.29-.88.74-.02,1.11-.02.9-.01,1.78-.28,2.42-.88,1.68-1.59,3.29-3.25,4.9-4.91.62-.64.82-1.46.45-2.28-.29-.63-1.07-1.02-1.5-.52-1.45,1.7-3.88,2.3-4.91,4.44-.26.55-.72.95-1.3.52-.52-.38-.11-.92.13-1.27.85-1.24,1.75-2.57,3.17-3.1,3.59-1.32,2.99-6.59.21-8.66-.34-.25-.68-.46-1.1-.11s-.72,1.34-1.39.68c-.47-.46-.78-1.35-.59-2.08.8-3.05.14-5.93-.94-8.74-1.17-3.08-2.96-5.58-6.35-6.63-2.07-.65-2.83-2.73-3.84-4.36-1.43-2.32-2.13-4.97-2.52-7.68-.17-1.2.27-2.04,1.42-2.36.86-.24,1.06-.75,1-1.51-.08-.88-.73-.84-1.36-.86-1.76-.06-2.95-.92-3.46-2.6-.76-2.52-2.92-3.04-5.04-3.52-1.18-.27-2.04.04-2.68,1.43-.95,2.06-1.79,4.29-3.72,5.76-.15.11-.3.33-.3.51-.26,4.13-3.48,6.41-5.88,9.35,1.72.83,3.4,1.68,5.11,2.44,1.58.7,2.09,2,1.81,3.5-.35,1.87-.66,3.72-.73,5.62-.02.6-.06,1.45-.43,1.74-1.72,1.36-1.43,3.45-1.94,5.19-.52,1.79-1.14,3.63-1.02,5.58.04.62-.28,1.21-.7,1.67-1.09,1.17-1.94,2.43-2.16,4.08-.07.48-.44,1.16-1.09,1.02-.83-.18-.46-.93-.25-1.32,2.16-4.21,2.41-8.88,3.46-13.36.78-3.33,2.36-6.42,2.53-9.99.08-1.73-.6-2.38-1.78-2.96-.59-.28-1.26-.38-1.83-.81-1.6-1.2-3.33-1.75-5.29-.85-1.12.51-2.32.14-2.55-.88-.6-2.76-3.06-4.05-4.44-6.18-1.78-2.75-1.81-3.93.53-6.32,2.06-.62,3.06-2.34,3.04-4.17-.04-3.32.97-5.92,3.52-8.04,1.62-1.34,1.67-3.84.4-5.45-2.67-3.41-5.94-6.12-9.55-8.46-.6-.39-1.25-.73-1.92-.47-1.77.67-3.56,1.29-5.16,2.38-.92.62-1.1,1.19-.53,2.19,1.4,2.46,3.12,4.85,3.93,7.5,1.35,4.43,3.46,8.4,5.92,12.24.46.73.7,1.47.38,2.31h0Zm11.51-5.34c-.52.36-.86.82-.84,1.74.33-.72.57-1.25.81-1.76.32-.33.98-.51.62-1.22-.65.26-.47.82-.59,1.25Zm-7.84-54.69c-.2-.48-.31-1.03-1.02-1.22.32.5.53.98,1.06,1.18.1.6.08,1.3,1.26.98-.43-.31-.86-.63-1.29-.94h0Zm11.53,46.44c.13,1.84-2.11,2.77-1.84,4.86,1.99-1.08,1.39-4.17,4.38-4.71-1.2-.02-1.83-.58-2.57-.12-.22-.5-.29-1.07.43-1.02.94.07,1.83-.3,2.81-.07,3.82.91,7.78,1.25,11.31,3.2.46.25,1.04.28,1.56.45.38.12.64.08.83-.3.47-.94-.39-3.45-1.4-3.72-2.59-.69-5.17-1.37-7.66-2.45-1.34-.58-3.19-.65-4.57-.37-1.85.38-3.58.4-5.15-.33-1.58-.73-2.04-.02-2.51,1.17-.23.57-.32,1.18-.52,1.74-.5,1.46-.37,3.47-1.75,4.24-2.75,1.52-3.17,4.02-3.58,6.65-.32,2.08-1.01,3.95-3.09,4.96-.77.37-1.3,1.03-1.64,1.78-.54,1.18.15,2.11,1.07,2.56,1.02.49,1.03-.72,1.36-1.27.83-1.39,1.59-2.83,2.38-4.25,1.99-3.53,4.03-7.04,5.97-10.6.85-1.55,1.28-3.56,3.8-2.46.12.05.27.04.4.06h0Zm-53.74-52.14c-.13,1.2-.2,2.15-.35,3.08-.14.88.12,1.64.7,2.24,1.85,1.93,3.82,3.79,5.28,6.02,1.69,2.57,4.21,4.72,4.27,8.17.02.82.69,1.27,1.42,1.07.77-.21,1.59-.18,2.34-.64,1.11-.67,1.49-1.07.7-2.5-2.21-3.99-4.94-7.55-7.9-10.99-1.96-2.28-3.93-4.49-6.47-6.47h0Zm27.2,30.22c-2.58-2.99-5.2-5.1-7.63-7.42-1.77-1.69-3.05-2.8-5.65-1.19-1.32.82-1.07,1.29-.59,2.04,1.17,1.83,2.48,3.57,3.49,5.5.31.59.85.75,1.55.74,2.76-.02,5.52-.19,8.83.32h0Zm15.8,12.42c.2-1.03-.49-1.32-.76-1.83-.29-.54-.57-1.08-.85-1.62-1.37-2.64-1.46-2.66-4.06-.86,1.75,1.55,3.88,2.52,5.67,4.32h0Zm14-10.22c.48.42.96.96,1.06.9,1.41-.9,3.01-.39,4.47-.69.87-.18.71-.82.16-1.34-1.03-.97-2.66-.94-3.84-.02-.51.4-1.11.69-1.85,1.14h0Zm-37.2,1.79c.87.95,1.2,2.2,2.37,2.12,1.09-.07,1.71-1.02,2.2-2.12h-4.56Zm27.63,13.45c0-1.76-1.55-1.91-2.31-2.75.69.9.99,2.15,2.31,2.75Zm10.58,5.1c1.3.5,2.6,1.11,4.14.87-1.29-1.04-2.85-.27-4.14-.87Zm-15.93,17.8c-.32.31-.56.49-.75.72-.23.3-.49.64.09.96.27-.48.71-.86.66-1.69h0Zm60.24,68.12c.72.22,1.27.06,1.78-.44-.73-.28-1.18.24-1.78.44Zm-54.48-124.59c-.03-.76-.18-.89-.39-.9-.25-.01-.39.19-.33.38.05.15.25.3.42.34.27.08.31-.14.31.18h0Z"/>
  <path class="cls-2" d="m320.8,114.51c.08,1.56.87,2.93.89,4.59.03,2.76-.71,4.98-2.72,6.85-.96.89-1.82,1.9-2.22,3.23-.21.71-.88.81-1.49.49-2.11-1.11-4.38-1.89-6.43-3.16-1.66-1.03-2.85-2.43-3.64-4.12-1.31-2.77-3.39-4.94-5.37-7.17-2.27-2.55-4.6-5.03-6-8.2-.14-.32-.3-.63-.59-.45-1.24.8-2.36.1-3.44-.29-1.69-.61-3.35-.66-5.05-.18-.36.1-.69.03-1.05-.04-1.84-.3-3.65-.53-5.48.32-1.43.67-1.93.2-1.86-1.39.06-1.52.03-2.98-.9-4.33-.37-.54-.52-1.24-.43-2.04.37-3.49-2.53-6.4-5.83-6.61-1.24-.08-1.24-.15-2.17-1.44,3.44.4,6.93.81,8.61,4.46.4.86.65.76,1.21.41.45-.28.93-.47,1.23.12.29.57-.35.71-.64.89-1.32.8-1.31,2.05-.8,3.15.84,1.82,1.17,3.64.79,5.85,1.34-.88,2.7-1.04,4.02-1.12,1.35-.08,2.63.85,4.16.51-.12-.89-.88-1.07-1.45-1.41-2.42-1.46-2.87-2.65-1.92-5.26.14-.39.31-.88.85-.75.47.12.55.47.43.99-.15.64-.09,1.32-.12,1.99-.03.51.06,1,.52,1.28,2.51,1.53,5.2,2.68,7.88,3.88.47.21.71-.12.89-.39.65-1.01,1.66-1.76,2.19-3.15-.67.42-1,1.15-1.81.91-.95-.28-.62-1.19-1.35-1.75,1.35-.28,2.4-.42,3.33.03.71.34,1,.01,1.34-.41,1.35-1.65,1.43-3.06.28-5.03-.83-1.43-.22-2.71,1.37-2.86,1.41-.13,2.31-1.19,2.13-2.52-.14-.98-1.58-1.7-2.76-1.42-1.07.25-2.17.48-2.98-.6-.32-.43-.4-.99-.05-1.34.49-.48.66.11.89.44.43.64.91.29,1.42.08,1.18-.48,2.56-1.65,3.06.76.05.23.41.48.67.54.52.13,2.73-2.32,2.65-2.9-.28-2.06-.05-4.3-2.02-5.78-.18-.13-.4-.46-.34-.61.38-1.05.45-1.84-.93-2.21-.42-.11-.27-.79-.11-1.3,1.18-3.59.09-4.77-2.94-5.26-1.7-.27-3.38-.85-5.12-.19-1.56.6-1.73,1.21-.47,2.28.71.6.95,1.41.52,2.09-.48.77-1.29.05-1.74-.21-1.17-.69-2.24-1.43-3.64-.65-1.19.67-2.04,1.48-1.43,3.03.15.37.18.83-.12,1.28-1.03-.25-1.97-1.45-3.2-.28-.97.93-1,1.8.16,2.53.49.31.97.71.88,1.27-.09.64-.56.86-1.32.86-1.18,0-1.53,1.16-1.7,2.04-.15.8-.11,1.9,1,2.19,1.01.26,1.23,1.41,2.25,1.7.55.16.33.94.11,1.45-.28.63-.06,1.03.5,1.32.74.39.96,0,1.03-.66.01-.1.1-.27.18-.28,1.89-.34,2.52-1.17,1.31-2.94-.23-.33.25-.96.71-.69,1.69,1.01,2.8-.25,4.04-.93.45-.25.67-.81,1.36-.39.4.25.7.56.74.95.08.8-.69.71-1.14.88-2.25.85-3.72,2.65-5.4,4.24-2.34,2.22-4.15,1.55-4.71-1.58-.1-.56-.28-1-.8-1.03-.63-.03-.99.47-.93,1.07.09,1.13-.17,2.3.39,3.4.21.41.76,1.01-.08,1.32-.74.28-1.37-.13-1.6-.81-.61-1.79-.78-3.64-.03-5.43.3-.72.41-1.17-.12-1.9-.87-1.19-1.01-2.75-.17-3.92,1.36-1.9.63-3.58-.14-5.26-.9-1.97-.75-3.48.64-5,1.24-1.36,2.34-2.87,4.11-3.76-2.35-.8-4.74-1.11-6.74-2.51-.44-.31-.91.07-1.37.19-2.64.67-5.28,1.78-8.06,1.2-2.98-.63-6.01-1.14-7.89-4.16-.59-.95-1.18-1.72-1.41-2.88-.38-1.92-1.94-3.17-3.23-4.64-.71,2.98.11,5.81.31,8.68.23,3.42,1.92,6.15,3.68,8.86,1.24,1.92,1.69,4.09,2.43,6.17.23.64.15,1.48-.4,1.86-2.07,1.48-1.7,3.8-2.04,5.81-.28,1.71-.07,3.49-.07,5.24,0,.43.03.95-.51,1.01-.37.04-.56-.42-.69-.75-1.04-2.55-.96-5.22-.57-7.83.23-1.56.15-3.37,1.83-4.49.45-.3.11-1.2-.11-1.86-1.13-3.38-2.97-6.41-4.54-9.57-.24-.48-.59-.9-.62-1.49-.26-5.98-1.16-11.99,1.32-17.79,1-2.35,1.44-4.94,2.46-7.28.92-2.12,2.1-4.22,4.78-4.72.78-.15,1-1.03,1.34-1.63,1.3-2.31,2.97-3.87,5.87-3.3.7.14,1.09-.49,1.55-.79,4.11-2.74,8.15-5.6,12.31-8.26,1.89-1.21,3.95-2.04,5.93-3.04,1.69-.87,3.41.15,4.87,1.07,1.11.69,1.86,1.19,3.04-.03,1.92-1.99,4-1.39,6.06.01,4.02,2.74,8.06,5.42,11.84,8.53,5.64,4.64,11.1,9.52,17.1,13.73,2.94,2.06,5.75,4.31,8.56,6.55.9.71,2.34,1.45,1.73,2.86-.61,1.4-2.11,1.33-3.47,1.1-.17-.03-.36.02-.71.04.7.74,1.27,1.45.53,2.38-.96,1.21-2.47,1.25-3.6.95-2.49-.64-4.97-1.26-7.5-1.72-1.28-.23-2.52-.23-3.78-.17-1.09.05-2.14-.03-3.2-.33-1.31-.37-2.14-1.26-1.9-2.48.57-2.8-1.11-4.07-3.12-5.17-2.52-1.37-5.02-2.78-7.36-4.44-.76-.54-1.57-.78-2.53-.76-1.85.03-3.45-.96-5.15-1.51-2.16-.69-4.39-1.33-6.15-2.91-.22-.2-.61-.29-.71-.53-.25-.61-.42-1.51-1.12-1.39-.44.07-.68,1.03-1.09,1.53-2.32,2.81-3.67,6.39-6.95,8.46-.69.43-.53,1.86-1.75,2.04-1.87.27-3.86.54-5.42-.63-1.24-.93-2.45-1.08-3.84-1.05-2.25.04-2.72-.27-3.62-2.46-.32-.77-.94-1.24-1.52-1.76-1.37-1.24-1.86-3.88-1.07-5.52.27-.57.77-.92,1.12-1.4.25-.34.51-.68.14-1.13-.39-.47-.75-.43-1.27-.19-1.52.68-4.32,4.63-3.97,6.11.2.85,1.07,1.54,1.66,2.29.64.81.92,1.61.49,2.67-.6,1.49-.03,2.83,1.55,3.37,1.15.39,2.04,1.01,2.82,1.87,1.43,1.57,3.1,2.19,5.17,1.42.73-.27,1.5-.46,2.23-.74.81-.32,1.43-.31,2.11.41.89.95,2.24.73,2.86-.42.25-.47.49-1.05.97-.61.71.64,2.35-.21,2.3,1.19-.04,1.03.5.97,1.05,1.16.97.34,1.94.67,2.99.56.63-.07,1.17.07,1.66.53,1.09,1.05,2.28.4,3.39.07.68-.2.49-.87.45-1.41-.05-.57-.36-.79-.93-.89-1.76-.32-3.52-.68-5.27-1.09-2.03-.48-3.25-2.09-3.06-3.94.65.01.7.61.91,1,.5.92,1.31,1.39,2.27,1.64,1.4.37,2.92-.59,4.3.48.29.22.87-.09,1.14-.78.92-2.37,2.59-4.33,3.92-6.47.29-.47.66-.93,1.29-.46.49.37.38.83.1,1.28-.98,1.58-1.91,3.2-2.97,4.73-.67.96-.81,1.76-.47,2.96.45,1.61,1.6,3.55-.75,4.84-.45.25-.25.73-.08,1.14.93,2.27.1,4.21-1.13,6.09-.71,1.09-1.92,1.84-2.1,3.31-.05.39-.65.44-1.05.6-2,.77-3.85,1.85-5.83,2.68-1.66.69-2.79,2.41-4.11,3.74-.93.95-1.12,1.89-.73,3.26.94-.71,1.86-1.25,2.98-1.23.29,0,.61.07.64-.39.18-2.45,2.05-3.03,3.97-3.46.54-.12.91-.28,1.08-.79.53-1.61,1.95-2.22,3.33-2.42,2.84-.4,5.62-.02,8.17,1.49,1.82,1.08,2.22,2.81,2.07,4.64-.07.89-.16,1.62.41,2.35.21.27.48.76.37.98-.81,1.67.57,2.38,1.4,3.3.82.91.96,1.88.96,3.1,0,2.39-1.25,3.69-2.86,5.32-1.6,1.63-2.11,4.35-3.06,6.61-.11.25,0,.62.32.78,3.65,1.93,4.54,5.87,6.47,9.02,1.53,2.49,2.96,5.07,4.22,7.75.85,1.81,2.71,2.84,4.2,4.12.8.69,1.82,1.13,2.92,1.79-.16-2.21-.61-4.14-1.7-5.89-2.26-3.64-3.16-7.44-1.48-11.58.93-2.3.73-4.42-.78-6.46-1.51-2.04-1.23-4.31-.51-6.58.13-.41.37-.65.75-.65.52,0,.44.47.47.81.25,2.47,1.17,4.42,3.27,6.05,1.69,1.32,1.23,3.64.94,5.62-.3,1.98-1.12,3.78-2.1,5.5-.79,1.39-.99,2.6.37,3.87,1.07,1,1.87,2.27,2.78,3.42.8-1.51.06-3.04.03-4.57-.03-1.26.46-2.02,1.57-2.57,1.98-.99,2.44-2.16,1.92-4.39-.67-2.87.53-5.36,1.64-7.85.06-.13.27-.3.38-.28.34.06.45.34.48.67.11,1.23-.13,2.4-.51,3.56-.37,1.16-.51,2.06.62,3.18,2.34,2.31,1.01,6.94-2.16,7.9-1.07.32-1.71.75-1.92,1.82-.24,1.17.57,1.64,1.31,2.32,1.64,1.52,2.65,3.4,2.36,5.77-.15,1.19-.29,2.39-.44,3.58-.15,1.2-.77,1.94-2.07,2.06.96-3.08,1.9-6.05.17-9.11-.44-.79-.89-1.41-1.8-1.6l-.26-.64c-.08.05-.15.11-.23.16.17.15.34.3.51.45h-.03Zm-53.43-75.19c.4,2.44,2.6,3.85,3.8,5.87.14.24.57-.05.85-.05,1.7.01,3.51.28,4.74,1.28.95.77,1.91.52,2.79.92,1.46.67,1.59-.78,2.2-1.48.31-.37.68-.69,1.07-.98,1.4-1.07,2.59-2.31,3.47-3.85,1.31-2.3,2.97-4.37,4.43-6.57.6-.91.74-.83,1.29-.09,1.21,1.62,2.52,3.19,4.43,3.99,2.5,1.03,5.04,1.95,7.59,2.83.74.25,1.52.48,1.17-1.04-.61-2.66-.01-3.69,2.27-5.06.99-.6.63-1.16-.08-1.58-4.2-2.5-7.91-5.69-11.95-8.42-.59-.4-1.29-.25-1.86-.93-1.49-1.83-3.3-2.05-5.52-1.01-.97.45-1.98.85-2.93,1.34-4.97,2.54-9.29,6.11-14.12,8.9-1.99,1.15-2.27,3.61-3.57,5.32-.09.12-.05.35-.09.63h0Zm-6.81.86c-.15.08-.27.13-.35.21-2.45,2.34-3.1,5.47-3.74,8.6-.49,2.4.36,3.66,2.68,4.38.86.27,1.72.59,2.02,1.62.65,2.19,2.3,3.54,4.11,4.73.99.65,2.02.63,3.11.33,2.57-.72,5.18-.95,7.85-.8.66.04,1.49.31,1.94-.57.19-.38.51-.84.94-.71.39.12.42.66.52,1.08.59,2.36,2.54,4.63,5.08,4.12,1.05-.21,1.68.38,2.16,1.27.54,1,2.35,1.36,3,.47,1.27-1.73,2.67-3.4,3.41-5.47.35-.99-.44-2.85-1.22-3.06-2.75-.74-5.51-1.41-8.22-2.27-1.04-.33-1.98-.41-2.97-.05-1.42.51-2.78.72-3.88-.66-.45-.56-.9-.07-1.29.11-1.62.73-3.19.75-4.83,0-2.37-1.07-4.4-2.7-6.66-3.97-1.27-.71-2.33-2.35-1.61-3.87.77-1.63.16-2.48-.84-3.52-.48-.51-.77-1.2-1.21-1.93h0Zm55.55,87.84c.55-1.47,1.42-2.71,2.71-3.51.73-.46.54-.82.12-1.18-1.26-1.1-2.51-2.23-3.87-3.19-2.74-1.92-5.44-3.76-6.89-7.01-1.89-4.22-4.94-7.82-6.83-12.07-.47-1.05-1.31-1.92-2.2-2.8-.27,1.08-.73,1.91-1.15,2.78-.78,1.6-2.55,2.38-3.16,4.06-.12.32-.63.46-.17,1.04,1.53,1.94,2.62,4.21,4.44,5.91,2.86,2.67,5.33,5.63,7.42,8.93.7,1.1,1.32,2.36,2.46,3.08,2.27,1.44,4.51,2.94,7.11,3.93h0Zm19.93-71.49c.09-.42-.18-.51-.35-.66-4.16-3.67-8.55-7.03-12.98-10.37-3.44-2.6-6.75-5.39-9.99-8.24-1.64-1.44-2.94-1.9-4.66-1.01-1.41.73-1.77,1.79-1.13,4.06.2.71-.29,1.56.84,2.15,3.6,1.9,7.34,3.58,10.52,6.24.89.74,1.25,1.29,1,2.38-.48,2.05-.13,2.53,1.79,3.14.67.21,1.31.19,1.96.19,2.42,0,4.79.12,7.19.62,1.96.41,3.79,1.39,5.81,1.51h0Zm-39.97-32.53c1.38.53,2.15,1.38,3.06,2.02,5.35,3.74,10.89,7.18,15.94,11.37,5.55,4.62,11.63,8.58,17.15,13.24.87.73,1.78,1.44,2.68,2.13.27.21.64.67.92.43.93-.79,2.14-.47,3.3-.73-7.89-6.59-16.68-11.68-23.71-19.06-.31.39-.49.69-.75.92-.45.4-.78,1.41-1.53.79-.64-.53-.05-1.25.4-1.7,1.31-1.33.09-2-.75-2.5-2.03-1.2-3.76-2.82-5.75-4.08-2.14-1.35-4.21-2.8-6.36-4.14-.94-.59-1.96-.99-2.9.19-.32.4-.88.6-1.69,1.12h0Zm-8.94,43.02c-1.48-.19-1.48-1.82-2.62-1.86-2.08-.07-3.44-1.27-4.73-2.65-.96-1.04-1.35-1.06-2.75-1.42-3.06-.78-5.94.19-8.89.56-.48.06-1.01.34-1.42.11-2.22-1.24-5.02-1.82-6.19-4.35-1.12-2.44-3.74-2.99-5.19-4.91-.39,2.25.66,3.73,2.1,5.15.72.71,1.18,1.72,1.66,2.69,1.23,2.44,3.08,4.47,5.67,5.47,3.11,1.2,6.1-.13,8.96-1.14,1.28-.45,2.19-.3,3.18.28.51.3,1,.59,1.55.84,2.08.98,4.49.79,6.51,1.96.63.37,1.24-.1,2.16-.73h.01Zm27.11,39.74c1.77-2.31,3.03-5.84,2.7-7.96-.13-.84-.03-1.9-.83-2.52-1.24-.97-1.99-2.31-2.82-3.61.36,1.47,1.11,2.73,1.93,3.95,1.05,1.56,1.31,3.14.58,4.95-.64,1.58-1,3.28-1.56,5.18Zm4.3,9.04c.33,1.41.61,2.87.27,4.28-.29,1.18-.03,1.93.97,2.66,1.45-2.71-.65-4.69-1.24-6.93h0Zm5.91-10.9c-.52,1.4-1.34,2.4-2.77,2.87-.81.27-1.11.93-1.05,1.83,4-2.06,4.13-2.22,3.82-4.7Z"/>
  <path class="cls-2" d="m408.44,76.67c1.43.48,2.8,1.2,4.26-.11,1.48-1.32,2.95-2.64,4.35-4.06,1.86-1.88,5.35-1.44,6.72.82.68,1.12,1.32,2.27,2.36,3.21,1.58-1.82,3.58-3.05,5.75-3.97,2.33-.99,3.79-.53,4.95,1.01,1.61,2.14,2.94,4.38,3.68,6.96.59,2.04,2.32,3.35,3.38,5.09.19.31.59.39.97.41,2.54.13,4.97.84,7.42,1.42.63.15,1.42.47,1.67-.7.14-.65.1-.81-.56-.93-3.07-.56-6.14-1.17-9.2-1.78-.42-.08-1.17.17-1.12-.54.04-.66.74-.39,1.19-.42,1.77-.13,3.5.23,5.18.67,1.01.26,1.6.01,2.18-.74,3.35-4.36,6.7-8.72,10.06-13.07,2.36-3.06,4.73-6.1,7.11-9.14.25-.33.58-.63.93-.84.37-.23.87-.25,1.18.09.32.36-.05.67-.25.94-1.58,2.06-3.13,4.14-4.75,6.16-3.04,3.81-6.12,7.6-9.2,11.39-1.1,1.36-2.26,2.67-3.36,4.04-.62.77-1.51,1.55.28,2.16,1.37.47,1.45,1.55.98,2.9-.5,1.45-1.46,1.17-2.46.97-2.71-.54-5.4-1.13-8.1-1.68-.3-.06-.6-.05-.77-.36-1.31-2.28-3.54-3.92-4.34-6.6-.63-2.13-1.8-4.07-3.35-5.71-.75-.79-3.29-1.19-4.17-.6-1.25.84-2.42,1.8-3.62,2.72-.69.52-.86.98-.16,1.76,2.78,3.09,5.53,6.21,8.02,9.54.4.53.8.52,1.41.4,1.36-.26,2.69-.56,4-1.04,1.39-.51,2.57-.08,3.36,1.27.88,1.49,1.61,3.06,2.33,4.64.34.73.63,1.59.45,2.26-.69,2.56.9,3.98,2.48,5.38,3.26,2.87,6.17,6.06,8.97,9.36.19.23.32.52.42.8.13.36.59.79.06,1.11-.49.3-.77-.22-1.01-.52-3.36-4.26-7.14-8.11-11.27-11.64-.54-.46-1.17-.93-1.03-1.79.45-2.75-.85-5.02-2.03-7.32-.97-1.89-2.49-2.5-4.56-1.82-.48.16-1.2.14-1.29.73-.09.53.61.65.94.99,1.86,1.89,3.41,4.02,4.73,6.32,1.02,1.78,2.04,3.55,3.06,5.33,1.16,2.03,2.88,3.52,4.62,5.02,2.55,2.2,5.38,4.06,7.68,6.55.31.33.99.42.77,1.06-.22.66-.69,1.1-1.42,1.25-3.42.7-6.82.5-9.78-1.32-2.18-1.34-4.5-2.22-6.82-3.14-2.82-1.13-3.25-2.34-3.4-5.83-.04-.85-.08-1.57-.74-2.08-1.42-1.11-2.9-2.15-4.35-3.23-.75-.56-1.06-.35-1.07.56-.02,2.56-.76,4.95-1.84,7.25-.16.33-.39.59.16.84,1.04.48,1.29,1.2,1.07,2.82-1.59-2.84-3.94-1.21-5.93-1.05-1.53.12-2.71-.15-3.76-1.18-.23-.22-.45-.48-.25-.78s.52-.21.81-.05c2.03,1.14,4.12-.25,6.18.11.57.1.75-.48.87-.97.6-2.45,1.36-4.86,1.76-7.36.12-.77.06-1.45-.6-1.96-2.02-1.57-3.92-3.31-6.08-4.64-1.84-1.13-3.07-2.88-4.74-4.06-.34,0-.39.25-.34.37,1.28,3.39.28,6.77.04,10.17-.16,2.18-.87,4.29-.47,6.55.16.89.59,1.52,1,2.24-1.58.18-2-.24-2.51-2.63-2.26,1.25-4.41,2.62-6.95,3.17-1.63.36-3.2.99-4.78,1.59-1.3.49-2.63-.43-3.86-1.26.25-.22.32-.3.34-.29,3.21,1.27,5.85-.68,8.63-1.62,1.57-.53,3.74-.39,4.18-2.74.01-.07.21-.14.32-.14,3.28-.05,2.37-2.81,2.69-4.52.43-2.3.25-4.71.5-7.05.19-1.7-1.01-3.42.18-5.1.25-.35-.33-.72-.54-1.07-1.25-2.16-2.19-4.42-2.23-6.97,0-.53-.09-1.3.58-1.35.81-.05.52.77.59,1.25.72,4.39,3.32,7.65,6.37,10.64,1.46,1.44,3.13,2.62,4.77,3.9.69-.6.63-1.54,1.08-2.24,1.06-1.66,2.41-2.99,4.21-3.76,1.15-.49.98-1.01.31-1.72-2.8-2.97-5.28-6.22-8.37-8.93-1.25-1.1-1.93-2.86-3.09-4.16-1.39-1.55-3.79-1.73-5.23-.2-1.18,1.24-3,1.72-3.83,3.37.73.66,1.86.36,2.74,1.19-.95.5-1.79.36-2.62.14-.48-.13-.95-.25-1.43-.13-.44.11-.73.43-.74.91-.01.41.23.65.58.83.57.29,1.18.21,1.78.23.55.02,1.31-.02,1.26.68-.07.92-1.02.63-1.44.45-2.61-1.08-4.07.3-5.35,2.29-3.83,5.98-7.67,11.95-11.51,17.93-.12.19-.16.44-.31.85.91,0,1.67-.02,2.44,0,.44.01.96.17.75.72-.16.44-.49,1.15-1.19.57-1.05-.88-1.77-.02-2.27.57-1.57,1.83-2.07,4.98.8,6.67.5.29.85.85,1.27,1.29,1.96,2.02,4.39,2.46,6.87,1.24.54-.27,1.07-.57,1.71-.52,2.62.21,5.18-.28,7.71-.79,1.43-.29,3.08-.42,3.73-2.24.16-.47.82-.25,1.28-.04,1.05.48,2.06,1.08,2.87,1.87,1.74,1.71,3.7,1.87,5.85,1.1.59-.21,1.09-.6,1.45.3.19.46.53.67.94.12.16-.22.41-.57.69-.19.27.35.05.87-.27.9-1.89.17-1.3,1.57-1.43,2.66-.17,1.44-.77,2.77-1.35,4.09-.83,1.91-2.27,3.45-2.92,5.54-.53,1.68-2.37,2.71-3.98,3.53-1.26.64-2.09-.44-3.02-1.44-.63,2.76-1.12,5.36-1.81,7.9-.84,3.09.23,5.78,1.4,8.5.48,1.1,1.08,2.18,1.31,3.34.21,1.04,1.54,2.43-.49,3.18-.56,2.94-2.48,5.75-.89,8.89.77,1.52.2,2.9-.25,4.32-.15.45-.5.71-.98.62-.55-.11-.32-.54-.3-.88.1-2.14-.13-4.23-.62-6.34-.35-1.49.32-3.06.95-4.31,1.62-3.25,1.19-6.19-.4-9.24-1.55-2.98-2.17-6.08-1.07-9.42.75-2.27,1.09-4.68,2.32-6.92-1.62,0-3.15.02-4.68-.01-.66-.01-1.32.08-1.98-.18-1.27-.5-2.52-.75-3.67.33-.2.19-.56.3-.84.29-2.79-.15-5.55-.12-8.04-1.93-1.93-1.4-3.45-3.31-5.76-4.52.2,1.49.63,2.81.68,4.19.19,5.66-1.32,10.97-3.36,16.14-.67,1.71-.9,3.47-1.33,5.22-.11.44-.06,1.12-.72.97-.63-.14-.97-.7-.82-1.41.02-.11.11-.21.16-.32,2.2-4.58,2.75-9.65,4.32-14.43,1.04-3.16.61-6.55.59-9.86,0-.55-.35-1-.79-1.38-1.24-1.05-1.44-2.3-.61-3.69.27-.45.37-.93.24-1.39-.8-2.72-.12-5.16,1.71-7.15,1.53-1.67,1.2-4.13,2.79-5.73.32-.32.18-.45-1.44-.84,1.1-.31,1.67-.83,2.15-1.69,1.9-3.42,3.85-6.81,6.01-10.09,2.14-3.25,3.98-6.68,6.46-9.68-.65-.81-1.63-.19-2.34-.8.58-.8,1.36-.67,2.05-.38.69.29,1.2.06,1.66-.34.25-.21.48-.61.47-.92,0-.4-.47-.48-.82-.54-1.72-.29-3.46-.42-5.19-.7-1.26-.2-.84,1-.93,1.71-.05.41.32,1.11-.53,1.04-.59-.04-.68-.56-.72-1.08-.18-2.47.67-3.26,3.03-2.8,1.07.21,2.14.41,3.23.25h-.02Zm-15.34,41.54c1.35.5,2.56.93,3.75,1.4,1.33.53,2.21,1.66,3.24,2.58.52.47,1.04,1.01,1.88.96,4.75-.29,9.51-.57,13.84-2.83,1.64-.85,4.53,0,5.72,1.52.44.57.98,1.06,1.43,1.62.92,1.15,1.58,1.17,2.33-.05.57-.92,1.08-1.88,1.6-2.83.9-1.66,1.7-3.33,1.49-5.31-.07-.63-.12-1.04-.95-.82-2.44.64-4.5-.3-6.38-1.74-1.04-.8-1.71-1.44-3.34-.43-2.99,1.87-6.55,2.25-10.09,2.3-.64.01-1.25-.04-1.91.33-2.54,1.44-4.99,1.04-7.25-.66-1.82-1.37-3.52-2.86-4.54-5.26-1.22,2.74-2.3,5.18-1.45,8.01.17.58.09,1.19-.59,1.55-1.39.72-.75,1.62.12,1.98,1.92.79,3.17,2.63,5.22,3.17.27.07.55.28.71.5,2.27,3.15,5.91,4.16,9.38,2.56.51-.23.98-.43,1.56-.26,3.04.89,6.09,1.2,9.16.17.64-.22.8.28,1.04.72,1.1,2.03,1.09,1.99,2.87.66.76-.57,1.94-.87,2.22-1.73.42-1.27-1.17-1.44-1.79-2.12-1.98-2.16-4.23-3.87-7.43-2.03-1.03.59-2.24.86-3.37,1.27-1.72.62-3.53.99-5.3.51-1.18-.32-2.26-.37-3.33.09-1.26.55-2.19.14-3.08-.74-1.47-1.46-3.14-2.62-5.15-3.25-.81-.25-1.47-.74-1.61-1.85h0Zm64.82-3.63c-2.46-2.02-4.82-4.16-7.38-6.01-3.49-2.52-5.72-5.95-7.65-9.67-1.53-2.95-3.37-5.7-5.71-8.09-1.45-1.48-2.08-1.45-3.7-.4-1.7,1.11-2.72,2.61-3.52,4.44-.54,1.24-.21,1.69.88,2.18,1.25.57,2.45,1.29,3.61,2.04,1.96,1.27,3.77,2.73,5.26,4.55.64.78.29,2.02,1.5,2.67-1.33-.1-1.41.52-1.45,1.48-.09,1.88,1.35,2.14,2.53,2.56,2.62.92,5.21,1.82,7.42,3.58.66.53,1.5.78,2.35.87,1.95.22,3.91.8,5.87-.21h0Z"/>
  <path class="cls-2" d="m567.99,128.79c-1.3-.88-2.74-.68-4.03-1.07-2.19-.67-4.2-1.62-5.69-3.39-.72-.86-1.52-1.83-.65-3.11.46-.69-.1-1.15-.53-1.57-1.02-1-1.99-2.02-2.46-3.61-1.39,1.15-2.6,2.22-3.98,3.08-2.52,1.57-7.1,1.54-9.48-.14-.41-.29-.76-.66-.49-1.2.37-.76.14-1.28-.51-1.75-.32-.23-.67-.57-.24-1,.34-.35.73-.31,1.11-.05.11.08.22.16.32.25,3.19,2.99,6.42,1.22,9.4-.2,3.99-1.9,6.64-.97,8.35,3.15,1.34,3.23,3.51,5.75,7.23,6.42.8.14,1.66.21,2.36.57.77.4,1.62.59,1.25,2.18-.4,1.69.79,3.67,2.23,4.63s2.61,1.86,3.1,3.53c.09.32.26.68.51.88.49.37.37,1.35,1.11,1.32.86-.03.95-.96,1.1-1.54.49-1.91,1.36-2.89,3.58-2.57,1.67.25,1.85-.38,1.11-1.92-2.82-5.84-3.02-11.56.72-17.2,1.71-2.58,2.94-5.45,4.06-8.35.15-.38.25-.78.44-1.14,1.36-2.64,2.73-2.9,4.86-.77,2.26,2.26,3.83,5.11,6.16,7.32.44.42.78,1.06,1.3,1.29,4.66,2.12,4.99,6.27,4.88,10.52-.07,2.74-.77,5.39-2.34,7.73-.18.27-.25.73-.69.58-.57-.2-.28-.62-.18-1.01.53-2.04,1.19-4.07,1.51-6.15.5-3.24.34-6.87-2.17-8.93-3.5-2.87-6.1-6.44-9.14-9.65-1.61-1.7-1.69-1.69-2.58.39-1.57,3.67-3.26,7.29-5.45,10.62-1.52,2.31-1.19,4.87-1.32,7.34-.18,3.33.41,6.52,3.09,8.93.64.58.33.95-.44,1.01-.61.05-1.2.15-1.8.26-1.94.36-4.03.23-4.34,3.08-.09.82-.91,1.88-2.26,1.62-.72-.14-1.12.28-1.41.9-1.18,2.61-3.13,4.66-5.19,6.55-.85.78-.85,1.41-.68,2.29.83,4.18,2.6,7.99,4.72,11.63.97,1.67,2.44,3.06,3.7,4.61-.97.87-1.62.06-2.24-.44-.84-.67-1.36-.44-2.08.25-.72.69-.57,1.04-.08,1.8,2.26,3.48,5.27,6.24,8.49,8.75,1.3,1.01,2.91,1.6,4.75,1.46-3.01-1.09-4.4-3.54-5.47-6.25-.16-.39-.76-.83-.15-1.23.57-.37,1.03.03,1.35.53.44.69.87,1.37,1.27,2.08.93,1.64,2.23,2.9,3.78,3.92.86.57,1.67,1.41,1.1,2.31-.56.88-1.73.76-2.81.5-3.86-.94-6.78-3.28-9.52-5.99-2.08-2.07-3.8-4.43-5.69-6.66-.63-.74-1.1-1.09-2.22-.74-1.5.48-3.14.36-4.73.66-3.27.62-5.69,2.11-7.81,4.66-2.85,3.44-6.66,5.24-11.21,4.47-2.24-.38-4.31.05-6.45.37-.58.09-1.35.42-1.62-.29-.3-.79.57-.97,1.08-1.23,1.92-.97,4.03-1.48,6.13-1.31,4.07.34,7.28-1.86,10.75-3.31.42-.18.83-.53,1.1-.91,2.92-4.11,7.24-4.53,11.74-4.49h1.1c-.9-1.28-1.62-2.44-2.47-3.49-2.89-3.55-4.65-7.69-5.97-11.98-.89-2.92-.2-5.87,1.71-8.28,1.41-1.79,2.05-3.99,3.45-5.77.66-.83.33-1.36-.74-1.33-1.34.04-2.72-.04-4.03.19-3.01.53-4.95-.86-6.41-3.26-.35-.58-.74-1.16-.94-1.8-.54-1.7-1.36-2.52-3.21-1.53-1.16.62-2.68.15-4.01,1.14,2.14.32,3.92-.9,5.95-.74-.49,1.1-1.5,1-2.24,1.37-2.31,1.14-4.91,1.08-7.23.9-2.42-.19-4.36.47-6.48,1.4-.37-1.01.34-1.5.88-1.85,1.83-1.18,3.71-2.24,6.01-2.29,2.34-.05,4.67-.44,6.71-1.55,1.03-.56,1.7-1.63,3.16-1.5.97.09,1.49.44,1.91,1.23,2.3,4.3,5.51,5.9,10.22,4.89.95-.2,2.09-.05,2.98-1.07h0Zm.89,2.6c-1.45,4.4-4.07,8.01-6.1,11.93-.69,1.32-1.53,2.46-.82,4.08.92,2.1,1.45,4.37,2.55,6.4,1.59,2.92,2.97,5.95,5.46,8.29.75.7,1.29,1.01,2.27.3,1.05-.76.48-1.19.04-1.96-2.04-3.56-3.63-7.31-4.26-11.39-.2-1.32-.37-2.87.97-3.77,1.99-1.34,3.11-3.4,4.64-5.13,1.07-1.21,1.26-2.41.27-4.03-1.23-2.02-2.75-3.5-5.02-4.72h0Zm-.46-1.56c-4.26,1.64-8.19,2.38-12.1.2,1.06,1.55,2.47,2.13,4.25,2.03,1.36-.08,2.8-.31,4.08.03,1.84.49,2.81-.19,3.77-2.26Zm-9.91-8.1c1.9,3.42,6.97,5.86,10.26,5.2-1.61-1.41-3.68-.86-5.42-1.49-1.83-.67-2.38-3.04-4.84-3.7h0Zm-6.33-5.69c-1.85,1.22-4.17,1.43-6.3,2.67,2.99.68,4.5-1.31,6.3-2.67Zm21.85,46.96c-.54.58-1.78.18-1.94,1.52,1.05-.08,1.59-.67,1.94-1.52Z"/>
  <path class="cls-2" d="m274.96,137.77c-.42-.06-.7.51-1.17.25-2.77-1.53-5.94-2.03-8.76-3.6-1.68-.94-3.32-1.61-4.09-3.46-.51-1.21-.93-2.46-1.32-3.7-.37-1.17-.91-2.12-1.9-2.96-1.45-1.23-2.19-3.16-3.8-4.27-1.79-1.23-3.49-2.83-5.97-1.55-.97.51-1.77.24-2.11-.88-.33-1.1.24-2.23,1.32-2.39,1.29-.19,2.61.13,3.79.55.99.34,1.87,1.02,2.91,1.38,1.04.36,1.79,1.18,2.4,2.1.59.88,1.08,1.85,2,2.47.3,1.04.79,1.94,1.96,2.27-.66-.75-1.32-1.49-1.99-2.24-.64-3.43-3.56-5.16-5.63-7.51-.39-.44-1.09-.79-.84-1.45.25-.67.95-.85,1.66-.91,1.71-.12,3.76,1.36,4.46,3.6.62,1.99,1.41,3.8,2.91,5.27.98.96,1.99,1.85,3.56,2.26-1.79-5.63-2.56-11.34-4.09-16.87-.08-.29-.14-.55-.17-.86-.09-1.06.03-2.04-1.39-2.7-1.52-.71-2.1-3.7-1.08-5.51,1.33-2.38,2.59-4.94,5.26-6.29.46-.23.87-.39,1.37-.34.47.04.85.27.86.76.01.53-.48.41-.81.47-.88.13-1.55.57-2.07,1.29-1.36,1.88-3.08,3.49-3.42,6.02-.11.84.11,1.46.45,2,.4.65,1.13.7,1.42-.18.33-1.01.57-2.07.72-3.13.11-.71.36-1.35.92-1.69.78-.47,1.37-1.04,1.86-1.81.36-.57,1.09-.59,1.67-.43,1.9.54,3.76,1.18,5.66,1.74.9.27,1.23.95,1.32,1.75.16,1.34.55,2.56,1.43,3.58-.38.83-1.61-.29-1.72.81-.07.66.12,1.32.48,1.91.12.19.21.47.17.68-.29,1.53.66,1.98,1.87,2.29.35.09,1.01.11.89.65-.14.59-.67.53-1.19.3-.87-.4-1.16-.05-1.18.87-.1,3.68.17,7.37-.18,11.06-.09.93.65,1.85,1.32,2.46,2.26,2.08,3.3,4.82,4.24,7.59.36,1.06,1.44,2.07,1.01,3.17-.45,1.16-2.01.83-2.97,1.41-.26.16-.53.29-.8.44-1.45.83-1.88,1.96-1.26,3.38l.03-.04h0Zm-8.66-42.48c-1.35-.47-1.3,1.32-2.31,1.5-.99.17-1.42.86-1.32,1.84.06.64-.35,1.16-.41,1.74-.15,1.39-1.32,2.44-.92,4.07,1.24,5.13,2.31,10.29,3.37,15.46.2.95.28,1.91.7,2.79,1.94,4.04,4.65,7.57,7.37,11.09.55.71,1.03.77,1.83.34,1.1-.58,2.09-1.43,3.41-1.57.58-.06.54-.43.33-.93-1.31-3.07-2.33-6.27-4.53-8.91-.67-.8-1.38-1.68-1.47-2.83-.23-2.88-.64-5.74-.09-8.66.27-1.4.16-2.88-.15-4.32-.37-1.77-.85-3.62-.42-5.37.4-1.6-.71-2.86-.49-4.34.05-.33-.29-.66-.66-.78-1.37-.46-2.68-1.11-4.23-1.12h0Zm4.95,39c-.62-1.11-1.12-2.36-2.37-2.83-1.75-.66-2.99-1.89-4.25-3.19-1.09-1.13-2.35-2.1-3.53-3.14.46,3.23,2.11,5.49,5,6.74,1.74.75,3.55,1.33,5.15,2.42h0Zm-9.98-11.14c1.67,2.55,4.09,4,6.39,6.18-1.19-3.09-4.12-4.95-6.39-6.18Zm-11.4-6.18v-.64c-.8.38-1.63-.44-2.4.32-.05.05.01.31.03.31.79.01,1.58.01,2.38.01h0Z"/>
  <path class="cls-2" d="m396.79,179.26c-.91.17-.75-.57-.85-1.04-.53-2.52-1.76-4.25-4.53-4.68-1.28-.2-2.47-.89-3.74-1.27-1.89-.57-2.29-.27-2.44,1.61-.05.59-.15,1.18-.23,1.81.52.46,1.29-.05,1.92.43-.47,1.43-1.79,1.4-2.91,1.54-.55.07-.64-.51-.57-1.08.21-1.73,1.03-3.34.95-5.14-.03-.71.57-.65,1.06-.65,1.68.01,3.36.03,4.9.86.6.33,1.04.4,1.37-.47.32-.82.03-1.06-.63-1.32-1.08-.42-2.22-.64-3.34-.7-1.8-.09-3.59-.06-5.35-.67-1.13-.39-2.04.65-2.93,1.15-1.23.69-2.03.65-2.63-.58-.55-1.13-1.39-.93-2.41-.89-3.06.12-6.1.85-9.17.27-.61-.12-1.37-.19-1.17-1,.17-.7.84-.65,1.51-.51,2.33.48,4.66-.36,7-.05.53.07,1.08.08,1.62.11.73.03,1.07-.17.98-1.06-.13-1.41-.16-2.76-1.39-3.79-.31-.25-.54-.96-.41-1.33.84-2.42-.09-5.09,1.13-7.42-1.94-1-3.91-.97-5.98-.36-1.15.34-2.35.22-2.63-1.36-.12-.68-.66-.89-1.17-.93-1.71-.15-2.06-1.16-1.85-2.63.08-.59.09-1.19.14-1.88,1.1.32.73,1.17.75,1.78.01.8.24,1.24,1.09,1.33.87.1,1.05-.51,1.15-1.08.13-.77.56-1.43.81-2.15-.86-.52-1.78-.02-2.54-.43-.25-.14-.58-.26-.56-.63.03-.42.39-.45.67-.41,1.93.24,3.54-.8,5.3-1.25.88-.23,1.89.04,2.83.15,2.83.33,5.67.23,8.5.41,1.13.07,2.92-.28,2.71,1.91-2.94-.69-5.94-.71-8.94-.74-.89,0-1.95-.48-2.63-.14-.8.4-.23,1.63-.51,2.5-.77,2.39.19,4.02,2.59,4.58,1.52.35,3.07.57,4.59.93,1.66.39,2.7-1.23,4.22-1.25.06,0,.2-.33.16-.46-.63-1.89.32-3.63.49-5.44.88.21,1.08.84,1,1.63-.05.48-.17.95-.2,1.42-.14,2.12-.13,2.12,1.87,1.6,2.42-.63,5.79.96,6.28,2.94.11.43.16.84.04,1.25-.08.29-.23.59-.59.59-.41,0-.4-.33-.48-.63-.7-2.71-2.88-3.69-5.35-2.35-.91.49-1.78.85-2.87.91-2.24.11-3.45,1.95-3.35,4.2.1,2.19.76,4.1,1.91,5.92.49.78.68,1.65.48,2.59-.24,1.09.27,1.7,1.36,1.84.36.05.73.21,1.06.15,3.36-.56,6.38.71,9.41,1.81,2.34.85,4.24.17,5.95-1.41.62-.57,1.21-1.19,1.8-1.79.23-.24.35-.73.81-.43.39.24.27.66.15.99-1.07,2.95-5.58,5.01-8.61,4-.54-.18-1.25-.94-1.7.32-.42,1.17.26,1.46,1.05,1.57,1.49.2,1.92,1.41,2.35,2.47.49,1.2.97,2.47.72,3.84l-.03.03h0Zm-15.34-13.51c.09-1.07-.26-1.98-.85-2.87-.91-1.35-1.54-2.78-1.83-4.44-.22-1.26,0-2.55-.38-3.76-.12-.4,0-1.03-.67-1.15-1.5-.27-3.2,1.48-2.53,2.79.57,1.11.32,1.89-.13,2.84-.53,1.09-.64,2.14.39,3.13.53.52,1.23,1.28.96,2.04-.62,1.78.85,2.77,1.33,4.12.07.19.32.4.52.43,1.17.16,3.2-1.84,3.21-3.13h-.01Zm-13.07-14.06c.71.24,1.37-.13,2.06-.29.29-.07.84-.33.51-.75-1.14-1.43-.73-2.94-.43-4.49.09-.46.08-1.09-.66-1-.7.08-1.77-.57-2.03.5-.39,1.62-1.02,3.19-.82,4.94.11.95.17,1.6,1.37,1.08h0Z"/>
  <path class="cls-2" d="m346.89,164.4c-.58.15-1.18.24-1.74.46-.9.35-2.01.45-1.5,2.06.29.91-.77,1.7-1.53,2.04-1.29.58-2.73.85-4.11,1.23-.52.14-.87-.2-1.29-.47-2.55-1.62-5.54-2.06-8.33-3.24.68,2.26,2.17,3.4,4.61,3.8-1.81.91-2.02.92-3.73-.36-.67-.5-1.08-.59-1.94-.19-1.91.89-3.99.64-6.03.27-1.24-.23-2.51-.48-3.6.75,1.49,1.09,3.03,1.95,4.69,2.64.71.3,1.71.4,1.57,1.6-.06.53.4.53.73.54,3.3.07,6.59.79,9.91.05.84-.19,1.72-.45,2.34-.88,1.6-1.11,3.29-1.17,5.02-.82,1.41.28,1.41-.43,1.2-1.37-.22-1-.43-1.98-.07-3.19.91.87.85,1.9,1.06,2.83.35,1.55,1.69,2.35,3.05,1.99.79-.21.89-.54.44-1.13-1.42-1.88-.25-4.34-1.4-6.29-.04-.08.12-.36.25-.43.24-.15.48-.04.55.24.37,1.49,1.64,2.69,1.35,4.4-.23,1.34.38,1.83,1.7,1.64,3.98-.57,7.62-2.03,11.08-4.02.76-.44,1.92-1.21,2.39-.39.57.99-.91,1.15-1.53,1.57-2.01,1.33-4.08,2.61-6.39,3.33-1.76.55-3.61.8-5.41,1.2-.76.17-1.56.24-2.17.81-.29.28-.7.36-1.02.24-2.77-1.05-5.52.4-8.28.04-.45-.06-.79.12-1.14.41-1.9,1.55-4.08,1.71-6.42,1.46-2.58-.27-5.21.15-7.77-.45-.7-.16-1.38-.4-2.07-.58-.68-.18-.94-.81-.71-1.25.56-1.08.03-1.23-.85-1.5-1.03-.31-2.03-.78-2.95-1.33-1.16-.68-1.04-1.43-.05-2.33,1.77-1.61,3.69-1.64,5.85-1.07,1.64.44,3.33.51,4.98-.34-.36-.93-1.31-.54-1.93-.85-.48-.24-.96-.31-1.11-1-.18-.85.53-.84.89-1.14.78-.65,1.8-.57,2.61-.32,2.8.85,5.66,1.61,8.26,3.04,2.44,1.35,5.29.07,5.8-2.64.24-1.27,1.4-1.58,2.25-1.79.78-.2,2.05-.83,2.65.56-.06.06-.12.13-.18.19h0Z"/>
  <path class="cls-2" d="m591.97,129.78c1.41-.59,2.72-1.11,4.21-.02.98.71,3-.19,3.61-1.26.51-.88.73-1.79.64-2.75-.39-4.17-1.87-7.88-4.7-11.01-.91-1-1.92-1.92-2.83-2.91-.6-.65-.89-.44-1.38.19-2.24,2.88-4.07,6.03-4.84,9.55-.57,2.6-.28,5.36,1.04,7.88.26.5,1.12,1.29.23,1.74-.65.33-1.11-.59-1.44-1.16-2.21-3.74-2.02-7.48-.52-11.5,1.04-2.8,3.29-4.8,4.37-7.54.21-.52,1.56-1.46,2.91-.61,3.18,2.02,5.05,5.09,6.76,8.25,1,1.83,1.85,3.83,1.85,5.98,0,2.68.35,5.55-3.22,6.61-.99.3-.6,1.33-.24,2.1.79,1.7,1.77,3.35,2.29,5.13.74,2.52.93,5.21,1.78,7.68.76,2.2.69,4.25.25,6.41-.17.83-.44,1.59-1.07,2.14-.6.53-.67,1.13-.57,1.85.41,2.89-.97,5.29-3.68,6.18-2.96.98-6.13,1.35-8.97.12-1.98-.86-3.64-2.65-5.18-4.28-.93-.97,0-4.05,1.13-5.01.31-.26.59-.28.93-.15.39.15.41.48.46.83.13.93-.31,1.74-.6,2.55-.22.62-.39,1.62.03,1.67,2.42.35,3.16,3.36,5.76,3.4,2.26.04,4.41-.32,6.4-1.36,1.75-.92,2.52-2.41,2.24-4.43-.14-.98-.39-2.09,1.01-2.5.09-.03.16-.22.19-.35.52-2.13,1.14-4.26-.04-6.39-.73-1.32-1.16-3.48-1.16-5.53,0-2.14-.28-4.18-1.75-5.9-.44-.51-.81-1.14-1-1.78-.64-2.13-1.74-3.54-4.24-3.12-.25.04-.51-.16-.67-.71h.02Z"/>
  <path class="cls-2" d="m408.44,76.67c-.2-.68.19-1.11.61-1.59,4.35-4.94,8.64-9.92,13.14-14.72,4.7-5.01,9.17-10.23,13.79-15.31,4.17-4.59,8.44-9.09,12.63-13.67,6.61-7.24,13.18-14.52,19.81-21.75.64-.7,1.4-1.28,1.87-2.15.27-.5.78-.65,1.2-.21.42.43-.01.74-.31,1.04-4.42,4.53-8.52,9.34-12.76,14.03-6.47,7.15-12.93,14.32-19.38,21.49-6.09,6.77-12.12,13.59-18.25,20.33-3.69,4.06-7.49,8.02-11.25,12.02-.28.29-.61.6-1.1.49h0Z"/>
  <path class="cls-2" d="m382.74,194.19c.37.15.8.21,1.09.45,2.3,1.84,5.18,1.98,7.84,2.75,1.94.56,3.88.51,5.87.03,1.41-.34,3.03.21,4.27-.97.21-.2.45-.38,1.04-.87-2.59.67-3.09-1.53-4.44-2.38-.95-.6-1.83-1.09-2.95-1.15-1.58-.09-3.2.35-4.69-.76-.53-.4-1.55-.16-2.23.28-.59.38-1.17.61-1.49-.14-.31-.72.55-.62.88-.86,1.33-.98,2.74-.94,3.98.1.88.73,1.86.6,2.76.48,2.65-.35,4.5,1.01,6.09,2.79.6.67,1,.79,1.82.51,1.58-.54,2.92-1.09,3.04-3.15.05-.96.59-1.98,1.14-2.8,1.37-2.04.52-4.09.19-6.14-.11-.67-.73-1.06-1.23-1.48-.48.27.06,1.02-.67,1.19-.74-.7.43-2.11-1.01-2.68-.46,1.96.06,4.01-.69,5.92-.71-2.49.03-5.15-.76-7.61h-.51v6.71c-.96-.2-.93-.69-.93-1.19,0-1.15-.02-2.3-.03-3.44,0-.36.05-.74-.02-1.09-.33-1.71-.34-1.71.27-2.96.43.12.38.77.9.81.21-.02.26-.19.29-.37.22-1.43.55-2.82,1.36-4.04.19-.29.45-.64.88-.45.45.2.26.57.2.93-.17.95-.17,1.95-.47,2.84-.6,1.76.35,2.82,1.61,3.56,1.26.74,1.86,1.79,2.24,3.1.88,3.02,1.25,5.94-.85,8.71-.67.88-1.17,1.97-1.17,3.17,0,.17-.05.36-.12.52-.51,1.24-5.37,3.96-6.76,3.79-.48-.06-.95-.12-1.41.1-2,.95-4.04.57-6.09.16-1.64-.33-3.17-1.02-4.89-1.11-2.01-.1-2.89-2.08-4.6-2.76.1-.17.2-.33.3-.51h0Z"/>
  <path class="cls-2" d="m334.99,134.15c.59.31.89.51,1.21.63.94.36,1.66,1.07,1.38,2.01-.25.83-1.08,1.46-2.1,1.4-1.86-.1-3.72-.24-5.58-.41-.9-.09-1.84-.64-2.01-1.38-.55-2.42-2.69-2.5-4.35-3.25-1.68-.76-3.46-1.31-5.06-2.24-.76-.44-1.31-.82-.35-1.88.84-.93,1.15-2.33,2.65-2.89-.03,1.51-1.36,2.3-1.62,3.68,1.76.71,3.58,1.43,5.39,2.16,1.28.51,2.36,1.2,3.17,2.43,1.35,2.04,3.6,2.07,5.75,2.17.95.04,1.91,0,2.92-.2-1.04-.47-2.08-.91-3.11-1.4-.37-.18-.81-.42-.78-.91.03-.48.47-.57.87-.76,1.87-.88,3.84-1.28,6.15-1.56-1.43-.92-2.8-1.28-4.2-1.12-3.45.4-6.67-.2-9.73-1.83-.9-.48-1.86-.87-2.71-1.41-.36-.23-1.18-.35-.8-1.15.41-.88.95-.16,1.34,0,1,.41,1.95.94,2.93,1.43,2.64,1.32,5.37,1.82,8.35,1.41,2.36-.33,4.64.48,6.79,1.49.44.2.84.48,1.26.71.6.34,1.44.43,1.48,1.37.04,1.03-.91.74-1.41,1.05-.26.16-.71.09-.6.69.35,1.91-1.06,1.29-1.86,1.09-.97-.25-1.87-.8-2.79-1.24-.72-.35-1.44-.54-2.57-.08h0Z"/>
  <path class="cls-2" d="m287.59,83.43c1.25.16,1.9.01,1.51-1.3-.25-.84.21-1.25,1.08-1.17.06,0,.12,0,.18,0,2.35.23,4.41.04,6.05-2.17.99-1.33,2-1.14,2.95.22,1.22,1.74,2.63,3.47,1.88,5.91-.28.91-.8,1.26-1.57.95-1.54-.61-3.14-.78-4.75-.9-.69-.05-1.23-.15-1.12-1,.17-1.29-.55-1.58-1.61-1.4-.61.1-1.12-.49-1.74-.23-.08,1.68,1.46,1.2,2.42,1.78-.76,1.03-1.92.61-2.78.8-2.8.6-4.63-.47-5.89-3.14-.13-.27-.37-.55-.36-.8.05-.66.25-1.31.79-1.74.24-.19.59-.11.86.06.78.49.12,1.06.09,1.6-.01.18,0,.36,0,.55.83-.32.91-2.12,2.23-1.24,1.56,1.03.08,2.09-.22,3.23h0Zm10.52-3.27c-.91.57-1.78,1.1-2.43,1.92-.25.32-.75.6-.6,1.05.2.63.82.35,1.25.34.63-.02,1.18.18,1.73.43.43.2.92.57,1.32.15.41-.43.26-1.01-.01-1.52-.41-.78-.84-1.56-1.27-2.37h0Z"/>
  <path class="cls-2" d="m542.3,184.12c3.79-1.95,7.02-4.52,10.41-6.86.57-.39,1.16-.78,1.49-1.38,1.17-2.09,2.9-3.17,5.31-3.16,1.29,0,1.99-.85,2.24-1.93.76-3.32,1.33-3.9,4.65-4.22.88-.09,1.77-.11,2.66-.21,1.13-.13,1.47.55,1.85,1.46.45,1.08-.44,1.16-.93,1.44-1.23.71-2.48,1.38-3.78,1.94-1.5.65-2.95,1.32-4.16,2.48-.4.39-1.12.69-1.67.66-3.01-.16-4.27,2.09-5.51,4.11-1.72,2.78-4.26,4.05-7.27,4.68-1.27.27-2.29,1.17-3.61,1.32-.53.06-1.05.34-1.68-.32Zm21.32-13.8c2.62-.84,4.21-1.6,4.76-2.28-3.05.47-4.64,1.23-4.76,2.28Zm-13.02,10.09c.59.25.9-.06,1.25-.54-.58,0-1.02.03-1.25.54Z"/>
  <path class="cls-2" d="m410.47,158.96c.44,3.36-.08,6.51-1.56,9.5-.08.16-.33.32-.3.44.33,1.4,1.76,1.82,2.56,2.8.31.38.64.72,1.22.35,1.48-.95,3.15-1.59,3.77-3.58.32-1.03,1.23-1.92,1.99-2.76,2.15-2.35,2.28-2.9,1-5.71-.32-.71-1.31-1.72-.23-2.1,1.05-.37.89,1.1,1.2,1.8.21.49.26,1.08.55,1.52,1.33,2,.53,3.56-.86,5.12-1.2,1.35-2.22,2.83-3.14,4.39-1.69,2.86-4.62,3.24-7.19,1.22-.8-.63-1.38-2.15-2.96-1.39-.31.15-.48-.28-.35-.61.15-.39.22-.93.51-1.13,2.77-1.89,2.58-4.96,3.09-7.73.14-.76.29-1.47.68-2.13h0Z"/>
  <path class="cls-2" d="m585.73,148.18c-1.02,1.2-.68,2.28-.58,3.3.05.48.25,1.04-.43,1.12-.43.05-.66-.42-.7-.85-.37-3.91-.49-7.82.19-11.71.12-.66.32-1.52,1.18-1.43.81.09.74.93.86,1.6.46,2.62.2,5.29.75,7.91.15.71.41.98,1.03,1.29,1.44.72,3.15.91,4.33,2.17.11.12.44.21.55.13,1.92-1.39,4.89-1.15,5.94-3.87.19-.49.42-1.22,1.09-.89.65.32.81.96.44,1.75-.44.97-1.06,1.72-1.94,2.29-1.79,1.14-3.82,1.76-5.76,2.59-.44.19-2.25,1.19-1.56-1.02.13-.41-.33-.49-.65-.61-.63-.24-1.26-.49-1.87-.78-1.25-.59-2.64-1.04-2.86-2.98h0Z"/>
  <path class="cls-2" d="m274.93,137.81c1.31-1.78,3.39-2.35,5.23-3.3.54-.28.83,0,1.13.49,1.67,2.72,4.15,4.7,6.64,6.57,1.45,1.08,3.37,1.48,5.05,2.14,1.75.69,2.64,1.86,3.37,3.24.61,1.16,1.33,2.27,1.88,3.47.13.3.69.85,0,1.23-.63.35-1.03.02-1.34-.5-.8-1.34-1.68-2.64-2.36-4.05-.61-1.27-1.7-1.79-2.85-2.33-1.87-.89-4.1-1.18-5.6-2.68-1.69-1.68-3.84-2.94-4.99-5.15-.6-1.15-1.64-.72-2.34-.38-.84.4-1.78.72-2.43,1.52-.55.67-1.14.72-1.36-.33l-.03.04h0Z"/>
  <path class="cls-2" d="m347.07,164.21c1.72.3,2.97-.8,4.32-1.52,2.64-1.43,5-3.31,7.65-4.75,2.47-1.35,5.13-1.6,7.77-1.95,1.53-.2,3.1-.19,4.65-.43.48-.07,1.29-.27,1.39.41.09.62-.68.7-1.19.77-2.2.3-4.39.61-6.59.84-3.81.41-6.8,2.54-9.82,4.6-2.1,1.43-4.28,2.63-6.71,3.43-1.29.42-1.68,0-1.64-1.2.06-.06.12-.12.18-.19h0Z"/>
  <path class="cls-2" d="m291.49,151.9c-1.16-1.03-2.07-1.83-2.98-2.62.25-.27.53-.34.73-.21,1.88,1.17,3.91,2.15,5.3,3.97.46.61.82.81-.38,1.41-1.75.86-2.43.12-3.34-.97-.82-1-2.03-1.38-3.2-1.7-2.72-.73-4.26-2.63-4.97-5.18-.24-.84-.56-1.4-1.21-1.83-1.89-1.25-3.15-3.08-4.47-4.86-.17-.23-.47-.44-.23-.78.28-.39.56-.13.74.08,1.98,2.31,4.68,4.01,6.19,6.65.95,1.66,1.81,3.27,3.43,4.27,1.24.76,2.38,1.87,4.38,1.78h0Z"/>
  <path class="cls-2" d="m348.69,149.27c2.02,1.53,4.23,1.73,6.6.68.07,1.76-2,1.55-2.09,3.07,2.84-1.32,5.9-1.87,8.46-3.75.36.75-.07.99-.38,1.2-1.75,1.14-3.48,2.27-5.6,2.7-.99.2-1.86.83-2.6,1.52-.97.91-1.32.45-1.48-.58-.02-.12-.04-.25,0-.36.77-2.01-.53-2.47-2.06-2.79-1.39-.29-2.46-1.23-3.66-1.91-.43-.24-.64-.7-.83-1.15-.19-.44-.09-.88.11-1.21.35-.56.73.08,1.02.16,2.06.61,3.9,1.88,6.16,1.86.31,0,.79.12.69.6-.08.38-.45.54-.85.52-1.19-.05-2.37-.13-3.49-.57h0Z"/>
  <path class="cls-2" d="m410.23,154.09c.09,2.17-2.77,4.43-4.92,4.06-.84-.15-1.87-.9-2.49-.28-.96.95-1.1,2.4-.97,3.73.12,1.22.18,2.38-.34,3.51-.87,1.9-1.8,2.53-4.29,2.78.25-.23.39-.42.58-.53,2.3-1.34,3.07-3.2,2.68-5.91-.25-1.77.13-3.74,1.83-5.03.34-.26.59-.63,1.08-.28,2.95,2.11,4.74.09,6.54-1.86.04-.04.09-.06.31-.2h0Z"/>
  <path class="cls-2" d="m581.74,166.85c-.32-.29-.41-.39-.51-.46-.54-.41-1.86-.24-1.59-1.14.33-1.09,1.51-.43,2.13-.17,2.06.85,3.94,2.11,6.32,2.06.42,0,1.32.29,1.2,1.11-.09.59-.64.84-1.22.94-1.79.31-3.59.94-5.36-.13-.21-.13-.54-.21-.77-.14-.65.17-1.33.64-1.54-.52-.17-.95.25-1.42,1.34-1.54h0Z"/>
  <path class="cls-2" d="m384.45,186.53c-.25-.34-.56-.56-.97-.73-.76-.31-1.04-.82-.7-1.71.34-.89.38-1.78-.53-2.56-.4-.34-1.04-.89-.65-1.7.44-.91,1.2-1.07,2.1-.97l-.02-.03c-.69.9-1.23,1.72.05,2.67.71.53.48,1.54.5,2.35.02,1.54.73,2.14,2.2,1.72.57-.16,1.14-.35,1.56-.84.21-.25.52-.63.86-.17.27.36,0,.69-.22.97-.86,1.12-2.64,1.52-4.2.97l.03.03h0Z"/>
  <path class="cls-2" d="m396.81,179.23c3.07-.15,4.86,2.13,3.7,4.7-.05.11-.06.3-.13.32-2.58.84-1.82,3.31-2.48,5.08-.02.05-.08.09-.2.24-.39-.58-.42-1.15-.32-1.78.17-1.13.3-2.26.44-3.39.04-.34-.03-.68.47-.83,1.45-.41,1.72-1.21.72-2.31-.67-.74-1.48-1.35-2.23-2.02l.03-.03h0Z"/>
  <path class="cls-2" d="m350.73,144.43c.53.74,1.73.12,2.24,1.33-1.64-.12-3.2-.05-4.63-.43-.69-.18-1.79.79-1.99-.35-.19-1.03,1.16-.49,1.61-.98,1.74-1.88,3.75-.15,5.62-.42.26-.04.43.28.37.51-.11.47-.5.71-.95.61-.75-.17-1.48-.4-2.28-.27h0Z"/>
  <path class="cls-2" d="m385.99,158.58c3.66-2.28,9.39-.68,10.08,2.47-.52.06-.68-.4-.93-.65-.7-.71-1.35-.97-2.11-.07-.26.31-.47,1-1.11.49-.43-.35-.24-.72,0-1.12.67-1.13-.31-1.08-.9-1.1-1.68-.06-3.35-.02-5.03-.02h0Z"/>
  <path class="cls-2" d="m577.5,132.42c-3.45-.06-6.67-2.94-6.27-5.51.07-.42.08-.84.65-.84.37,0,.76.18.75.55-.07,2.6,2.19,3.21,3.71,4.47.4.33.97.54,1.16,1.33h0Z"/>
  <path class="cls-2" d="m591.34,136.84c-.69-1.54-.02-2.29,1.44-2.31,1.28-.02,1.64.87,1.71,2.05.1,1.49-.86,2.03-1.97,2.04-.89,0-2.04-.39-1.19-1.78Z"/>
  <path class="cls-2" d="m384.42,186.5c.32,1.88-.63,3.76.06,5.67.17.47-.09,1.28-.65,1.3-.71.03-.87-.73-.89-1.34-.06-1.62-.01-3.23.34-4.83.15-.71.57-.84,1.17-.77l-.03-.03h0Z"/>
  <path class="cls-2" d="m396.63,186.57c-.64-.42-.6-1.08-.71-1.69-.28.85-.05,1.85-1.15,2.51-.16-1.75.36-3.32.61-4.9.04-.27.33-.59.67-.31.38.32,1.16.13,1.17.92.01,1.18.05,2.37-.58,3.46Z"/>
  <path class="cls-2" d="m590.43,130.43c-1.03,2.72-2.88,4.63-3.77,7.05-.14.37-.44.48-.82.45-.34-.03-.43-.25-.44-.55-.1-1.62,2.99-6.06,5.04-6.94h0Z"/>
  <path class="cls-2" d="m348.19,145.7c1.08.21,2.61.48,4.12.82.35.08.93.22.75.79-.13.43-.57.29-.92.2-1.62-.44-3.36-.2-4.94-.85-.35-.15-1.03.05-.98-.53.06-.71.75-.32,1.16-.43.11-.03.24,0,.81,0h0Z"/>
  <path class="cls-2" d="m294.05,94.49c-.9-.72-.73-2-1.99-2.31-.88-.22-1.6-.75-2.48-.07-.22.17-.54.37-.77,0-.18-.28-.04-.57.16-.82.04-.05.09-.07.14-.11.83-.76,2.63-.51,4.37.55,1.14.7.91,1.6.57,2.75h0Z"/>
  <path class="cls-2" d="m362.03,144.28c-2.19.29-4.14-.07-6.02.38-.27.06-.45-.11-.52-.37-.08-.31.16-.46.34-.58,1.11-.76,4.65-.52,6.2.57h0Z"/>
  <path class="cls-2" d="m398.14,105.41c.63.33.57.79.55,1.19-.07,1.18.31,1.92,1.59,2.17.81.16,1.6.56,1.13,1.86-.75-.64-1.35-1.14-2.34-1.25-1.44-.16-1.82-2.06-.92-3.97Z"/>
  <path class="cls-2" d="m294.34,151.1c-1.45-.9-2.71-1.84-3.87-2.95-.24-.23-.39-.49-.17-.79.09-.12.3-.23.45-.22.86.03,3.42,2.77,3.59,3.96h0Z"/>
  <path class="cls-2" d="m598.45,145.11c-1.13,1.69-2.71,2.34-4.04,1.81-.34-.14-.57-.35-.62-.72-.04-.33.28-.64.44-.54,1.48.91,2.6-.79,4.22-.55h0Z"/>
  <path class="cls-2" d="m289.8,94.37c.8-1.23,1.68-1.27,2.68-.64.53.33.21.83,0,1.07-1.05,1.26-1.69-.21-2.69-.43h0Z"/>
  <path class="cls-2" d="m276.18,74.79c-2.23.19-4,.23-5.77-.18,1.77.31,3.55-1.13,5.77.18Z"/>
  <path class="cls-2" d="m393.48,185.04c1.33,1.47-.62,2.79.04,4.15-.64-1.28-.61-2.82-.04-4.15Z"/>
  <path class="cls-2" d="m399.28,186.96c.63,1.47.52,2.28-.38,4.19-.32-.83.03-1.48.08-2.12.05-.69.2-1.38.3-2.07h0Z"/>
  <path class="cls-2" d="m384.53,142.85c-.2-1.83.67-2.91,1.12-4.1.56,1.46-.29,2.55-1.12,4.1Z"/>
  <path class="cls-2" d="m596.71,143.69c-.03.3-.01.39-.05.42-.88.77-1.87,1.06-3,.6-.07-.03-.12-.42-.03-.51.88-.96,1.96-.71,3.08-.51h0Z"/>
  <path class="cls-2" d="m590.85,147.09c-.32.63-.9.83-1.51.67-.59-.16-1.75-.22-1.5-.9.37-1.02,1.59.14,2.4-.38.28-.18.56.25.62.61h0Z"/>
  <path class="cls-2" d="m387.26,183.44c-.68.67-1.16,1.24-2.03.71-.19-.12-.4-.41-.21-.6.63-.65,1.33-.41,2.24-.11h0Z"/>
  <path class="cls-2" d="m591.48,144.75c-1.14.76-1.87,1.15-2.71.46-.11-.09-.18-.46-.1-.53.77-.69,1.54-.33,2.82.06Z"/>
  <path class="cls-2" d="m383.69,178.86c.24-.3.56-.44.93-.39.43.05.79.25.91.7.04.15-.02.39-.12.48-.43.35-.75,0-1.07-.24-.23-.18-.44-.39-.66-.58l.02.03h0Z"/>
  <path class="cls-2" d="m593.61,98.3c.29.11.75.08.72.53-.04.45-.46.64-.86.73-.31.07-.54-.09-.51-.42.03-.4.09-.83.65-.84Z"/>
  <path class="cls-2" d="m396.7,188c-.03.25-.16.45-.42.4-.08-.01-.17-.28-.16-.43,0-.21.01-.52.32-.5.29.01.25.31.27.52Z"/>
  <path class="cls-2" d="m400.65,189.44c-.1-.37-.19-.58-.21-.79-.02-.28.16-.44.43-.4.28.04.38.25.25.5-.1.2-.25.37-.48.69h0Z"/>
  <path class="cls-2" d="m592.85,141.17c.06.37-.24.42-.49.42-.17,0-.45-.09-.5-.22-.11-.28.07-.51.36-.58s.51.07.63.37h0Z"/>
  <path class="cls-2" d="m593.96,97.36c-.19.38-.39.66-.78.65-.18,0-.45-.12-.32-.35.12-.21.38-.38.61-.48.12-.05.31.1.49.17h0Z"/>
  <path class="cls-1" d="m275.49,99.04c.12-.18.24-.36.36-.55"/>
  <path class="cls-1" d="m551.81,127.58c-1.16.37-2.43.35-3.49,1.03"/>
  <path class="cls-1" d="m275.49,96.13c-.12-.3-.24-.61-.36-.91"/>
  <path class="cls-1" d="m272.58,92.49c-.18-.12-.36-.24-.55-.36"/>
  <path class="cls-1" d="m270.4,91.76c-1.32.01-2.45-.65-3.64-1.09"/>
  <path class="cls-1" d="m608.55,116.27c.21.14.41.28.62.41"/>
  <path class="cls-1" d="m611.84,122.44c.51.34,0,.69,0,1.03"/>
  <path class="cls-1" d="m612.66,124.5c.21.14.41.28.62.41"/>
  <path class="cls-1" d="m608.14,133.54c-1.94,1.4-2.6,1.4-3.7,0"/>
  <path class="cls-1" d="m471.01,7.74c-2.48,2.73-4.97,5.46-7.46,8.18"/>
  <path class="cls-1" d="m462.09,17.56c-.32.22-.45.68-.91.73"/>
  <path class="cls-1" d="m459.91,19.74c-.12.18-.24.36-.36.55"/>
  <path class="cls-1" d="m457.18,22.83c-.16.26-.55.34-.55.73"/>
  <path class="cls-1" d="m410.62,74.12c-.16.26-.55.34-.55.73"/>
  <path class="cls-1" d="m600.32,113.81c-.21-.14-.41-.28-.62-.41"/>
  <path class="cls-1" d="m432.09,99.22c-.18.61-.36,1.21-.55,1.82"/>
  <path class="cls-1" d="m565.58,125.11c.76.45,1.78-.11,2.47.62"/>
  <path class="cls-1" d="m430.81,105.58c-.12.3-.24.61-.36.91"/>
  <path class="cls-1" d="m430.08,107.77c-.31.51-.58,1.02-.55,1.64"/>
  <path class="cls-1" d="m263.85,119.41c.12.18.24.36.36.55"/>
  <path class="cls-1" d="m264.22,121.22c.24.55.48,1.09.73,1.64"/>
  <path class="cls-1" d="m427.9,95.4c.19.22.38.45.73.36"/>
  <path class="cls-1" d="m336.97,169.24c-.32-.22-.45-.68-.91-.73"/>
  <path class="cls-1" d="m334.78,168.15c-.18-.12-.36-.24-.55-.36"/>
  <path class="cls-1" d="m288.59,149.23c1.67.2,2.37,1.78,3.64,2.55"/>
  <path class="cls-1" d="m293.68,105.58c-.09.59.49.73.73,1.09"/>
  <path class="cls-1" d="m566.61,133.34c-1.48-.96-3.12-.68-4.73-.62"/>
  <path class="cls-1" d="m267.49,127.41c-.12-.18-.24-.36-.36-.55"/>
  <path class="cls-1" d="m396.44,179.06c-.05-1.22-.34-2.38-.91-3.46"/>
  <path class="cls-1" d="m384.98,172.51c-.12.43-.24.85-.36,1.27"/>
  <path class="cls-1" d="m289.13,92.13c.99-1.69,2.27-.66,3.46-.36,1.37.35,1.31,1.46,1.27,2.54"/>
  <path class="cls-1" d="m410.08,77.94c-.44-.6-1.17.14-1.64-.36"/>
  <path class="cls-1" d="m403.17,77.58c-.12.18-.24.36-.36.55"/>
  <path class="cls-1" d="m392.07,155.05c.36-.71.21-1.36-.18-2"/>
  <path class="cls-1" d="m298.77,97.76c.3.06.61.12.91.18"/>
  <path class="cls-1" d="m307.5,110.68c.12.18.24.36.36.55"/>
  <path class="cls-1" d="m418.44,127.95c.55.54.84,1.35,1.64,1.64"/>
  <path class="cls-1" d="m308.96,113.22c.12.18.24.36.36.55"/>
  <path class="cls-1" d="m423.9,124.86c-1.12-.11-1.03-1.54-2-1.82"/>
  <path class="cls-1" d="m312.96,117.95c.24.24.48.48.73.73"/>
  <path class="cls-1" d="m406.08,123.41c-1.09-.6-2.31-.2-3.24.1-1.11.36-1.94.18-2.55-.49-1.67-1.85-3.71-3.01-6.03-3.81-.39-.13-.98-.23-.92-.89"/>
  <path class="cls-1" d="m428.27,75.39c1.29-1.02,2.55-2.08,4.18-2.55"/>
  <path class="cls-1" d="m439.91,80.85c.36.67.73,1.33,1.09,2"/>
  <path class="cls-1" d="m438.45,88.49c1.15-.36,2.34-.65,3.44-1.12.66-.28.93.02,1.29.39"/>
  <path class="cls-1" d="m442.09,84.12c.93,1.15,1.6,2.66,3.46,2.55"/>
  <path class="cls-1" d="m448.64,100.49c.32.22.45.68.91.73"/>
  <path class="cls-1" d="m446.82,86.67c.18.12.36.24.55.36"/>
  <path class="cls-1" d="m457.73,109.95c.66.36.69,1.21,1.27,1.64"/>
  <path class="cls-1" d="m453,88.12c1.5.35,1.04-1.04,1.44-1.65.68-1.04-.48-.91-.89-1.26"/>
  <path class="cls-1" d="m445.36,83.76c-.52-.31-1.09-.13-1.64-.18"/>
  <path class="cls-1" d="m263.49,65.94c.18.12.36.24.55.36"/>
  <path class="cls-1" d="m392.26,121.77c.12,1.82.24,3.64.36,5.46"/>
  <path class="cls-1" d="m389.35,142.69c-.36,1.15-.73,2.3-1.09,3.46"/>
  <path class="cls-1" d="m298.41,26.29c.18.12.36.24.55.36"/>
  <path class="cls-1" d="m311.5,35.38c.18.12.36.24.55.36"/>
  <path class="cls-1" d="m250.94,117.04c-.61.18-1.21.36-1.82.55"/>
  <path class="cls-1" d="m248.58,115.77c.56.47,1.23-.04,1.82.18"/>
  <path class="cls-1" d="m274.77,134.68c1.28-.88,2.61-1.62,4.18-1.82"/>
  <path class="cls-1" d="m272.95,120.13c-.38-.43-.15-.85,0-1.27"/>
  <path class="cls-1" d="m551.81,180.83c-.21.14-.41.28-.62.41"/>
  <path class="cls-1" d="m393.89,108.49c-.45.15-.76.45-.91.91"/>
  <path class="cls-1" d="m588.4,115.04c.14-.21.28-.41.41-.62"/>
  <path class="cls-1" d="m390.8,118.68c-.53.79-.05,1.39.36,2"/>
  <path class="cls-1" d="m591.28,111.34c.43-.17.49-1.09,1.23-.62"/>
  <path class="cls-1" d="m402.44,127.77c.3.12.61.24.91.36"/>
  <path class="cls-1" d="m388.25,185.06c-.52.65-1.3.9-2,1.27"/>
  <path class="cls-1" d="m597.45,115.86c.39.5,1.03.78,1.23,1.44"/>
  <path class="cls-1" d="m408.99,127.04c.67.24,1.33.48,2,.73"/>
  <path class="cls-1" d="m598.68,135.6c.32.7,1.13,1.15,1.03,2.06"/>
  <path class="cls-1" d="m413.35,127.77c.43.38.85.15,1.27,0"/>
  <path class="cls-1" d="m415.9,78.67c-.06,0-.14.03-.18,0-.95-.61-2.8.19-2.96-1.11-.14-1.14,1.56-1.69,2.4-2.54.34-.35.99-.3,1.1-.9"/>
  <path class="cls-1" d="m416.99,127.77c.18-.3.48-.15.73-.18"/>
  <path class="cls-1" d="m275.49,46.66c-.18-.12-.36-.24-.55-.36"/>
  <path class="cls-1" d="m456.46,115.59c-.24.06-.48.12-.73.18"/>
  <path class="cls-1" d="m418.08,128.5c-.24.43-.48.85-.73,1.27"/>
  <path class="cls-1" d="m439.36,109.04c-.06-.24-.12-.48-.18-.73"/>
  <path class="cls-1" d="m418.08,152.14c-.12.18-.24.36-.36.55"/>
  <path class="cls-1" d="m607.31,134.57c.14.28.28.55.41.82"/>
  <path class="cls-1" d="m432.27,90.67c.91-.61,1.82-1.21,2.73-1.82"/>
  <path class="cls-1" d="m613.48,146.29c-.14.21-.28.41-.41.62"/>
  <path class="cls-1" d="m572.78,121.21c-.41.75-.82,1.51-1.23,2.26"/>
  <path class="cls-1" d="m324.6,94.31c.25.43.25.85,0,1.27"/>
  <path class="cls-1" d="m322.42,109.22c-.32.45-1.01.37-1.27.91"/>
  <path class="cls-1" d="m568.87,130.87l-.62.62"/>
  <path class="cls-1" d="m380.25,161.6c1.51,1.45,1.82,3.31,1.82,5.27"/>
  <path class="cls-1" d="m380.98,168.15c-.43.24-.85.48-1.27.73"/>
  <path class="cls-1" d="m378.07,169.6c-.34-.44-.91-.69-1.09-1.27"/>
  <path class="cls-1" d="m418.44,108.13c.46.4.78.98,1.46,1.09"/>
  <path class="cls-1" d="m375.89,166.33c-.12-.3-.24-.61-.36-.91"/>
  <path class="cls-1" d="m344.06,173.6c1.37.84,2.72,1.85,4.36.55"/>
  <path class="cls-1" d="m375.89,163.78c-.12-.18-.24-.36-.36-.55"/>
  <path class="cls-1" d="m374.43,161.96c-.12-.18-.24-.36-.36-.55"/>
  <path class="cls-1" d="m374.43,154.69c.22-.32.68-.45.73-.91"/>
  <path class="cls-1" d="m398.44,179.79c-.48-.39-1.22.03-1.64-.55"/>
  <path class="cls-1" d="m421.9,109.04c.26.16.34.55.73.55"/>
  <path class="cls-1" d="m430.08,109.58c1.01.38,1.2,1.3,1.45,2.18"/>
  <path class="cls-1" d="m410.44,158.69c-.12,1.27-.24,2.55-.36,3.82"/>
  <path class="cls-1" d="m410.08,163.78c-.78,1.16-.43,2.75-1.45,3.82"/>
  <path class="cls-1" d="m399.35,187.24c.28,1.45-.34,2.79-.55,4.18"/>
  <path class="cls-1" d="m313.5,91.76c.99,1.32,1.4,3.06,2.91,4"/>
  <path class="cls-1" d="m453,82.3c-.24.24-.48.48-.73.73"/>
  <path class="cls-1" d="m290.77,147.05c-.41.66.08.87.55,1.09"/>
  <path class="cls-1" d="m292.59,149.23c.64.57,1.41,1.01,1.82,1.82"/>
  <path class="cls-1" d="m361.52,149.78c-1.03,1-2.38,1.43-3.64,2"/>
  <path class="cls-1" d="m385.16,179.79c-.51-1.77-1.78-.84-2.52-.49-1.32.63-.2,1.42.15,2.12"/>
  <path class="cls-1" d="m355.52,152.51c-.67.36-1.33.73-2,1.09"/>
  <path class="cls-1" d="m382.98,181.61c.44.46,1.05.86.55,1.64"/>
  <path class="cls-1" d="m328.6,168.51c.93,1.47,2.45,1.86,4,2.18"/>
  <path class="cls-1" d="m410.26,154.51c-.66.39-.53,1.48-1.45,1.64"/>
  <path class="cls-1" d="m407.17,157.24c-1.03.85-2.06.18-3.09,0"/>
  <path class="cls-1" d="m400.62,165.6c-.84,1.11-1.98,1.77-3.27,2.18"/>
  <path class="cls-1" d="m401.35,177.42c.39,1.63.08,3.27.19,4.91.04.73-.15,1.48.18,2.18"/>
  <path class="cls-1" d="m298.77,88.12c.64.44.9,1.36,1.82,1.45"/>
  <path class="cls-1" d="m322.42,106.67c-.67.36-1.33.73-2,1.09"/>
  <path class="cls-1" d="m370.79,149.6l1.09,1.64"/>
  <path class="cls-1" d="m397.71,170.33c-.18.12-.36.24-.55.36"/>
  <path class="cls-1" d="m370.79,151.78c-.53.62-1.4.31-2,.73"/>
  <path class="cls-1" d="m366.79,152.14c-.12-.18-.24-.36-.36-.55"/>
  <path class="cls-1" d="m390.8,169.24c-.18-.12-.36-.24-.55-.36"/>
  <path class="cls-1" d="m366.07,149.6c.58-1.34,1.23-2.66,1.09-4.18"/>
  <path class="cls-1" d="m384.25,168.51c-.67-.24-1.33-.48-2-.73"/>
  <path class="cls-1" d="m286.41,105.04c-.53.68-1.4.12-2,.55"/>
  <path class="cls-1" d="m278.4,105.58c-.18.12-.36.24-.55.36"/>
  <path class="cls-1" d="m403.71,178.7c-.76,1.34-.2,2.79-.36,4.18-.1.91.17,1.84-.19,2.73"/>
  <path class="cls-1" d="m276.77,105.4c.06-.24.12-.48.18-.73"/>
  <path class="cls-1" d="m270.04,52.48c-.18-.12-.36-.24-.55-.36"/>
  <path class="cls-1" d="m289.68,82.3c.12.3.24.61.36.91"/>
  <path class="cls-1" d="m264.95,60.12c.43.24.85.48,1.27.73"/>
  <path class="cls-1" d="m346.06,145.96c.55.12,1.09.24,1.64.36"/>
  <path class="cls-1" d="m351.15,146.69c.61.18,1.21.36,1.82.55"/>
  <path class="cls-1" d="m346.61,166.33c.15.84.46,1.63.91,2.36"/>
  <path class="cls-1" d="m589.84,130.87c-.34.55-.69,1.1-1.03,1.64"/>
  <path class="cls-1" d="m584.29,149.99c.39.78.1,1.72.62,2.47"/>
  <path class="cls-1" d="m587.17,135.19c-.83.55-.39,2.02-1.64,2.26"/>
  <path class="cls-1" d="m584.6,133.34c-1.18.68-2.52.72-3.8,1.03"/>
  <path class="cls-1" d="m374.8,167.42c-.18.12-.36.24-.55.36"/>
  <path class="cls-1" d="m398.26,105.58c-.06.48-.22.98-.16,1.45.12.97.2,1.99,1.61,2.03.73.02,1.49.23,1.45,1.25"/>
  <path class="cls-1" d="m585.73,147.32c.87,1.11,1.12,2.8,2.88,3.08"/>
  <path class="cls-1" d="m590.87,151.22c.21.14.41.28.62.41"/>
  <path class="cls-1" d="m343.33,169.6c-.15,1.06.17,2.1.41,3.08.3,1.2,0,1.78-1.14,2.02"/>
  <path class="cls-1" d="m338.06,174.69c-.18.12-.36.24-.55.36"/>
  <path class="cls-1" d="m328.42,168.33c-.69.49-1.31,1.09-2.18,1.27"/>
  <path class="cls-1" d="m320.23,172.88l1.64,1.09"/>
  <path class="cls-1" d="m363.34,146.32c.08,1.03-.17,2.08.18,3.09"/>
  <path class="cls-1" d="m552.83,178.77c-1.21-.17-1.97.7-2.88,1.23"/>
  <path class="cls-1" d="m283.86,92.49c-.18-.12-.36-.24-.55-.36"/>
  <path class="cls-1" d="m282.4,91.4c-.12-.18-.24-.36-.36-.55"/>
  <path class="cls-1" d="m598.06,145.26c-1.28,1.11-2.66,1.68-4.32.82"/>
  <path class="cls-1" d="m574.01,130.25c1.18.48,1.94,1.67,3.29,1.85"/>
  <path class="cls-1" d="m284.95,47.02c.34.98.56,2.04,1.64,2.55"/>
  <path class="cls-1" d="m382.8,194.34c1.15.85,2.3,1.7,3.46,2.55"/>
  <path class="cls-1" d="m586.76,175.89c.73.54,1.14,1.34,1.64,2.06"/>
  <path class="cls-1" d="m388.25,196.88c1.42.79,3.1.76,4.55,1.45"/>
  <path class="cls-1" d="m394.44,198.34c.3-.45.61,0,.91,0"/>
  <path class="cls-1" d="m609.78,126.14c-.21.14-.41.28-.62.41"/>
  <path class="cls-1" d="m397.71,197.97c.79-.85,1.57.07,2.36,0"/>
  <path class="cls-1" d="m352.97,149.23h-2.36"/>
  <path class="cls-1" d="m277.13,139.59c.39.52,1.05.8,1.27,1.45"/>
  <path class="cls-1" d="m402.8,196.52c.18-.12.36-.24.55-.36"/>
  <path class="cls-1" d="m281.68,144.14c.63.66,1.39,1.23,1.64,2.18"/>
  <path class="cls-1" d="m287.86,151.05c.36,1.05,1.79.27,2.18,1.27"/>
  <path class="cls-1" d="m349.33,148.87c-.18-.12-.36-.24-.55-.36"/>
  <path class="cls-1" d="m566.61,170.14c.21-.14.41-.28.62-.41"/>
  <path class="cls-1" d="m274.22,137.41c.24.12.48.24.73.36"/>
  <path class="cls-1" d="m261.67,124.86c1.03.85,2.06,1.7,3.09,2.55"/>
  <path class="cls-1" d="m354.06,144.14c-1.05.04-2.08-.1-3.09-.36"/>
  <path class="cls-1" d="m348.06,144.69c-.6-.11-1.09.23-1.64.36"/>
  <path class="cls-1" d="m418.63,111.04c-1.32,1.28-2.99,1.81-4.73,2.19-.49.11-.97.24-1.45.36"/>
  <path class="cls-1" d="m411.17,113.59c-.3.12-.61.24-.91.36"/>
  <path class="cls-1" d="m400.98,115.04c-1.15-.4-2.19-.99-3.09-1.82"/>
  <path class="cls-1" d="m320.05,113.04c-.71.54.06,1.23-.18,1.82"/>
  <path class="cls-1" d="m551.81,115.04c-.46.64-1.19.89-1.85,1.23"/>
  <path class="cls-1" d="m320.96,121.95c-.12.18-.24.36-.36.55"/>
  <path class="cls-1" d="m397.71,113.04c-.71-1.26-2.15-1.73-2.86-3.21-.75-1.56-.47-2.71-.05-4.07"/>
  <path class="cls-1" d="m320.05,123.95c-.13.74-1.15.71-1.27,1.45"/>
  <path class="cls-1" d="m361.7,143.96c-.79-.06-1.6.16-2.36-.18"/>
  <path class="cls-1" d="m397.35,103.4c.48-.53.97.07,1.45,0"/>
  <path class="cls-1" d="m317.32,127.04c-.3.48-.61.97-.91,1.45"/>
  <path class="cls-1" d="m357.7,144.14c-.77-.5-1.47,0-2.18.18"/>
  <path class="cls-1" d="m312.6,92.85c.12.3.24.61.36.91"/>
  <path class="cls-1" d="m320.6,126.32c-.13.51-.37.92-.91,1.09"/>
  <path class="cls-1" d="m411.9,80.85c.47.45,1.16-.07,1.64.36"/>
  <path class="cls-1" d="m319.51,127.59c-.24.55-.37,1.2-.75,1.62-.91.99-.03,1.15.57,1.48"/>
  <path class="cls-1" d="m326.6,133.77c.29.84,1.35.98,1.64,1.82"/>
  <path class="cls-1" d="m568.87,129.43l-4.93,1.23"/>
  <path class="cls-1" d="m560.03,130.66c-.21-.14-.41-.28-.62-.41"/>
  <path class="cls-1" d="m336.6,137.23c.48-.32.75-.71.36-1.27"/>
  <path class="cls-1" d="m392.98,159.05c-.54-.6-1.27-.84-2-1.09"/>
  <path class="cls-1" d="m272.4,100.67c-.66.55-.33,1.19-.18,1.82"/>
  <path class="cls-1" d="m347.33,148.69c.63,1.7,2.21,1.84,3.64,2.16.62.14,1.13.41,1.63.75"/>
  <path class="cls-1" d="m387.53,157.96c-.54.44-1.27-.06-1.82.36"/>
  <path class="cls-1" d="m274.4,106.67c.3.12.61.24.91.36"/>
  <path class="cls-1" d="m385.71,138.68c-.14,1.28-.72,2.43-1.09,3.64"/>
  <path class="cls-1" d="m275.86,74.67c-1.94-.4-3.88.21-5.82,0"/>
  <path class="cls-1" d="m419.54,159.78l1.09,2.73"/>
  <path class="cls-1" d="m276.95,136.87c.18-.12.36-.24.55-.36"/>
  <path class="cls-1" d="m280.95,135.77c.12.18.24.36.36.55"/>
  <path class="cls-1" d="m408.62,109.58c-.85.36-1.72.67-2.54,1.1-1.55.82-2.66-.55-4.01-.74"/>
  <path class="cls-1" d="m411.17,78.3c-.12.43-.24.85-.36,1.27"/>
  <path class="cls-1" d="m396.98,100.49c-.75,1.02-1.07,2.62-2.91,2.18"/>
  <path class="cls-1" d="m564.14,126.96c1.27.72,2.76.6,4.11,1.03"/>
  <path class="cls-1" d="m571.54,132.31c.21.14.41.28.62.41"/>
  <path class="cls-1" d="m270.04,95.76c-.18-.12-.36-.24-.55-.36"/>
  <path class="cls-1" d="m406.08,80.12c1.12.43,2.46,0,3.46.91"/>
  <path class="cls-1" d="m267.49,95.04c-.3-.12-.61-.24-.91-.36"/>
  <path class="cls-1" d="m372.07,151.96c.97.72,2.22.47,3.27.91"/>
  <path class="cls-1" d="m587.99,146.29c.53,1.79,1.9.6,2.88.82"/>
  <path class="cls-1" d="m376.98,153.23c.53-.33,1.03-.32,1.45.18"/>
  <path class="cls-1" d="m402.08,195.06c-.5.45-1.06.08-1.24-.2-1.94-2.95-4.78-3.59-8.04-3.26-.23.02-.48-.11-.73-.17"/>
  <path class="cls-1" d="m390.8,190.7c-.18-.3-.48-.15-.73-.18"/>
  <path class="cls-1" d="m388.62,190.7c-.3.24-.61.48-.91.73"/>
  <path class="cls-1" d="m295.32,101.95c-.47-.8-1.03-.63-1.64-.18"/>
  <path class="cls-1" d="m290.04,83.94c.81.41,1.68.36,2.55.36"/>
  <path class="cls-1" d="m396.44,183.79c.57.94-.37,1.97.18,2.91"/>
  <path class="cls-1" d="m574.42,163.76c-.69.55-1.37,1.1-2.06,1.64"/>
  <path class="cls-1" d="m383.34,145.23c.46.65.97,1.29.73,2.18"/>
  <path class="cls-1" d="m395.71,183.97c-.65,1.06-.2,2.41-.91,3.46"/>
  <path class="cls-1" d="m300.59,90.67c.3-.18.15-.48.18-.73"/>
  <path class="cls-1" d="m318.23,121.77c.76.33.67,1.51,1.64,1.64"/>
  <path class="cls-1" d="m398.26,183.79c.54,1.45-.5,2.75-.43,4.19.02.49-.01,1.09-.11,1.63"/>
  <path class="cls-1" d="m387.16,183.42c-.72.17-1.41.61-2.18.18"/>
  <path class="cls-1" d="m439.54,105.58c.55-.11.81.44,1.27.55"/>
  <path class="cls-1" d="m349.7,144.69c1.01.59,2.2.53,3.27.91"/>
  <path class="cls-1" d="m284.59,52.11c-.36.09-.78-.2-1.09.18"/>
  <path class="cls-1" d="m393.53,185.24c.13,1.34-.41,2.66-.18,4"/>
  <path class="cls-1" d="m596.62,144.03c-.96.14-1.92.28-2.88.41"/>
  <path class="cls-1" d="m401.35,175.79c.06.43.12.85.18,1.27"/>
  <path class="cls-1" d="m431.18,113.22c-.27,1.63-1.26,1.08-2.18.73"/>
  <path class="cls-1" d="m588.81,144.85c.69.49,1.37-.05,2.06,0"/>
  <path class="cls-1" d="m395.89,161.24c-.39-1.38-1.04-2.39-2.73-1.82"/>
  <path class="cls-1" d="m282.04,50.66v.55"/>
  <path class="cls-1" d="m405.17,180.51c-.52.48.28.97,0,1.45"/>
  <path class="cls-1" d="m594.57,98.59c-.55.21-1.1.41-1.64.62"/>
  <path class="cls-1" d="m402.99,177.06c-.99.05-2.11-.26-2.73.91"/>
  <path class="cls-1" d="m400.98,188.15c-.12.48-.24.97-.36,1.45"/>
  <path class="cls-1" d="m596.21,172.6c-.21.14-.41.28-.62.41"/>
  <path class="cls-1" d="m395.71,102.86l.55.55"/>
  <path class="cls-2" d="m702.29,122.66c.09,2.11-.71,3.83-1.8,5.47-1.06,1.61-.84,2.02,1.07,2.09.58.02,1.18.15,1.75-.12.55-.26,1.11-.3,1.79.19-1.45,1.32-3.11,2.03-4.73,1.19-2.6-1.34-5.02-.75-7.38.23-4,1.66-4.4,2.56-3.5,6.92.26,1.28.67,2.58,1.28,3.72.79,1.48,2.27.36,3.42.55,1.6.26,3.25,0,4.86-.41,1.84-.47,3.73-.65,5.62-.75,1.18-.06,2.36.13,3.3-1.22.51-.73,2.11-.21,3.18-.1,3.37.37,6.13-.38,8.84-2.73,3.31-2.86,6.81-5.56,10.48-8,2.5-1.67,2.23-1.66.61-4.09-1.57-2.35-4.23-3.74-5.33-6.45-.14-.35-.74-.5-1.09-.79-.96-.78-1.45-1.69-.71-2.91.17-.28.35-.59.39-.9.12-.86-.39-1.58-.94-2.02-.59-.46-1.04.35-1.4.73-2.53,2.69-4.81,5.55-5.9,9.19-.32,1.06-.87,2.05-1.3,3.08-.68,1.63-1.66,2.7-3.62,2.83-1.72.12-3.03,1.15-3.84,2.74-.18.35-.43.77-.9.53-.46-.23-.24-.69-.14-1.04.13-.44.27-.89.48-1.3.43-.85,1.59-1.65,1.26-2.49-.52-1.31-1.71-2.32-2.84-3.23-.49-.39-1.05-.7-1.85-1.23,1.94-.71,2.8.59,3.83,1.27.59.39.99,1.05,1.47,1.6,1.78,2.03,3.92,1.67,4.95-.86.83-2.05,1.3-4.25,2.44-6.18,1.43-2.43,2.92-4.8,5.2-6.56.52-.4,1.13-.72.9-1.57-.4-1.47.53-2.19,1.65-2.75.82-.41,1.65-.82,2.52-1.1.75-.25,1.21-.66,1.53-1.39,1.86-4.4,5.04-7.47,9.55-9.04,2.49-.86,5.13-1.06,7.75-.96,2.61.1,5.26-2,5.52-4.64.32-3.19.55-6.39.92-9.58.15-1.29-.81-1.88-1.42-2.67-.94-1.22-2.39-2.18-1.03-4.06.42-.58-.38-1.33-.67-1.97-2.51-5.47-5.32-10.82-5.81-16.99-.08-1.03-.24-2.12-1.1-2.89-.43-.39-.45-.94-.57-1.44-1.09-4.32-2.12-8.63-2.45-13.12-.26-3.51-1.02-6.97-1.52-10.46-.1-.7-.52-.74-.96-.52-1.35.67-2.4.02-3.47-.67-1.21-.78-2.49-1.49-3.6-2.39-1.21-.99-.98-1.59.44-2.22,1.16-.52,2.33.07,3.58-.22-.41-.64-.75-1.23-1.16-1.78-.53-.72-1.15-1.15-2.17-.94-1.96.4-3.45-.4-4.54-2.04-.29-.43-.47-.81.03-1.2.54-.42.87,0,1.13.37.5.74.99,1.48,2.33,1.89-.81-1.34-1.96-2.02-2.21-3.29-.12-.63-.2-1.2.29-1.64.55-.49,1.15-.2,1.64.12,1.98,1.25,4.15,2.3,5.5,4.33.76,1.14,2.1,1.27,3.1,1.99,2.12,1.53,4.1,3.05,5.27,5.58,2.62,5.64,5.82,11.01,7.76,16.96.37,1.14.66,2.32.64,3.44-.07,4.06,2.22,7.16,4.05,10.43.84,1.5,1.56,3.03,2.25,4.59.34.76.61,1.72,1.82.89.43-.3.99-.04,1.51.18,1.44.6,2.88,1.09,4.54.91,1.2-.13,2.39.45,2.98,1.6.91,1.76,2.73,3.08,2.3,5.81,2.2-1.57,3.84-2.83,4.35-5.31-1.35.33-2.48.39-3.16-.93-.61-1.2-.16-2.16.62-3.05.49-.57.19-1.11.03-1.66-1.19-4.15-.82-5.05,2.55-7.66.93-.72,1.41-2.04,3.16-1.83-.95-1.23-1.6-2.27-2.04-3.41-.73-1.93-.46-3.27,1.19-4.45.75-.54.8-.98.7-1.77-.3-2.4.2-4.57,2.39-5.97,2.85-1.83,5.52-.99,7.81.78,2.91,2.26,5.47,4.74,6.59,8.48.64,2.13.7,3.44-.8,4.97-1.4,1.43-1.16,3.35.67,4.3,2.31,1.2,3.43,3.14,3.92,5.55-.77-.87-1.54-1.75-2.32-2.62-1.43-1.58-3.18-2.3-5.35-2.06-.56.06-1.42.71-1.71-.23-.22-.73.6-1.04,1.13-1.42.4-.29,1.25-.09,1.2-.81-.06-.76-.9-.66-1.42-.81-.8-.23-1.57-.49-1.63-1.44-.07-1.09.97-.87,1.57-1.11.61-.25,1.28-.31,1.89-.55,1.37-.54,1.67-1.99,1.22-3.51-1.14-3.81-3.87-6.18-7.14-7.96-3.05-1.65-6.48.67-6.4,4.12.02.69.06,1.24.89,1.55.5.19.86.79,1.25,1.23.2.23.49.49.28.86-.19.32-.5.4-.85.32-.06-.01-.13-.03-.19-.05-1.18-.28-2.47-.56-3.23.64-.82,1.28.3,2.36.76,3.47.22.53.76.86.91,1.5.17.77,0,1.52-.75,1.54-1.87.06-2.07,1.43-2.51,2.72-.17.51-.04,1.81-1.25.44-.59-.66-1.27.57-1.32,1.29-.07,1.1-.1,2.21.43,3.29.54,1.11.53,2.29-.27,3.35-.41.54-1.38,1.26-.62,1.76.67.44,1.86.04,2.57-.65.41-.4.56-1.06.96-1.48.52-.55,1.29-.82,1.94-.33.86.64.12,1.08-.35,1.53-1.26,1.21.5,1.74.75,2.71-1.35.34-1.92-.73-2.77-1.22.61,3.5-1.68,5.56-3.98,7.31-2.35,1.79-2.68,2.45-.95,4.8.55.74.6,1.65.21,2.45-.82,1.68-.09,2.15,1.48,2.45,1.54.29,3.06.85,3.92,2.37.28.49.75.84,1.3.76,1.25-.17,2.02.29,2.36,1.51.14.53.6.8,1.07.64.59-.2.32-.73.23-1.17-.43-2.09-.84-4.18-1.28-6.41,1.14.22,1.3.94,1.41,1.62.35,2.28.96,4.5,1.62,6.71.18.6.06,1.31.03,1.96-.01.33-.13.66-.51.76-.51.14-.58-.35-.86-.56-1.62-1.2-2.55-3.31-4.85-3.63-.45-.06-.87-.33-1.08-.8-.9-1.98-2.88-2.31-4.61-2.98-.95-.37-1.78.12-2.54.84-.61-.77-.52-1.51-.09-2.07,1.43-1.88,1.59-3.55-.17-5.42-.8-.84-1.22-2.08.25-3.22.92-.71.79-2.01-.07-3-.83-.96-1.43-1.97-1.5-3.34-.07-1.44-1.26-1.79-2.45-1.58-.8.14-1.49.41-2.18-.26-.31-.3-.91-.33-1.12-.12-1.18,1.21-2.3.69-3.52.11-.45-.21-1.1-.19-1.42.35-.33.57-.1,1.17.16,1.7,1.2,2.47.68,4.93-.36,7.2-1.12,2.45-3.1,3.22-6.22,2.91.72,1.97,2.71,2.25,4.2,3.06.46.25,1.56-.75,2.41-1.09.57-.23,1.29-.76,1.81-.15.44.52-.11,1.13-.43,1.6-1.27,1.84-1.64,3.98-2.12,6.1-.09.38-.06,1.04-.74.93-.41-.07-.65-.47-.57-.91.34-1.91-1.05-3.49-1.08-5.39-.72,1.67-.71,3.48-.64,5.17.08,2.19-.4,4.31-.4,6.49,0,2.56-4.05,5.78-6.64,5.51-4.01-.42-7.68.46-11.11,2.52-2.15,1.3-3.1,3.73-4.92,5.35-.1.09-.1.41-.02.54,1.28,1.91-.94,1.79-1.54,2.59-.1.13-.52-.01-.76.05-3.44.91-3.83,1.86-2.02,4.87.34.57.87,1.14.78,1.78-.44,3.55,1.81,5.6,4.13,7.6.82.71,1.4,1.62,1.84,2.53.88,1.78,2.37,2.28,4.11,2.48.52.06,1.05.07,1.57.16.73.13,1.26.63,1.23,1.32-.04,1.01-.91.58-1.37.48-2.71-.59-4.64.47-6.66,2.28-2.87,2.58-6.13,4.72-9.3,6.96-.76.53-1.29,1.3-2.09,1.76-.31.18-.46.6-.28.85.15.21.57.33.86.32.52-.02,1.07-.09,1.55-.28,5.15-2.11,10.54-3.48,15.8-5.22,1.36-.45,2.32-1.43,3.59-1.99.96-.43.06-.94-.2-1.37-.29-.47-1.13-.83-.64-1.47.51-.66,1.01.02,1.49.31,1.34.81,2.81.61,4.23.39,1.12-.17,2.09,0,2.94.67,1.01.8,2.04.46,2.59-.32.68-.96,1.61-1.68,2.46-2.75-2.08-.35-3.79-1.37-5.86-.92-1.85.4-3.05-.97-4.2-2.11-3.15-3.09-6.15-6.32-9.11-9.6-2.33-2.58-4.02-5.47-5.22-8.72.91-.46,1.31.02,1.68.76,3.15,6.34,8.65,10.63,13.53,15.46.56.56,1.13,1.11,1.72,1.62.3.25.72.63,1.01.57,2.52-.55,4.83.82,7.28.73.47-.02.9-.05,1.17-.55,2.03-3.65,4.56-7.03,6.1-10.97.82-2.1.4-4.28.6-6.41.34-3.75,2.43-5.94,5.45-7.63,3.37-1.88,7.16-1.04,10.73-1.61,1.85-.29,3.08-.5,3.4-2.6.16-1,.79-1.92,1.41-2.79.7-.97.24-1.53-.82-1.39-1.47.18-2.87-.09-4.31-.29-1.37-.19-2.51-.55-3.32-1.81-.6-.92-1.75-.83-2.7-.98-1.51-.24-2.63-.91-2.81-2.51-.1-.97-.56-.87-1.29-.94-1.75-.19-3.58-.3-4.75-1.98-.35-.5-.69-.99-.68-1.6,0-.47-.25-1.2.51-1.29.72-.08.45.61.59,1.01.54,1.57,1.91,2.33,3.96,2.25.72-.03,1.45-.09,2.17-.01.65.07,1.2.65,1.07,1.21-.54,2.57,1.56,2.43,2.92,2.77,1.12.28,1.75.71,2.61,1.56,1.26,1.27,3.38,1.51,5.33,1.33.5-.05.94-.25,1.52-.05,2.51.88,4.62-.57,4.14-3.11-.44-2.33-.74-4.43-.07-6.85.48-1.74-.65-4.08-2.17-4.94-1.2-.68-2.96-1.79-4.52-1.18-1.47.58-2.38,2.03-2.75,3.67-.05.24-.21.46-.33.71-1.5-1.68-.72-2.67.81-4.57.99-1.23,1.29-1.7-.34-2.4-1.32-.57-1.16-2.11-1.67-3.22-.15-.32.16-.63.5-.73.38-.11.71.13.74.46.28,3.78,4.29,3.57,6.1,5.71.29.33.86.55,1.03-.2.21-.91.87-1.26,1.66-1.5.89-.27,1.09-.69.29-1.34-1-.81-.33-1.03.45-1.13.73-.09,1.55,0,1.27-1.18-.03-.14.12-.46.2-.47,2.26-.06,1.76-1.75,1.88-3.1.13-1.48,1.26-2.4,2.1-3.47.19-.24.6-.4.9-.19.34.23.17.57-.01.86-1.08,1.68-2.08,3.36-1.61,5.51.07.31-.21.95-.45,1.03-1.85.56-1.85,2.6-3.04,3.67-.15.13-.22.4-.37.45-2.49.77-1.89,2.02-.59,3.46.34.38.5.92.76,1.38.44.79.08,2.07.97,2.43.71.29,1.54-.53,2.29-.84,3.99-1.66,8.11-2.52,12.42-2.71,1.15-.05,2.26-.87,3.39-1.35,3.12-1.33,6.58-1.19,9.76-2.22,3.57-1.16,7.18-1.89,10.96-1.91,5.95-.04,10.93,2.26,15.35,6.01,1.3,1.1,2.65,2.16,3.71,3.54.57.75,1.11,1.52,1.26,2.42.11.67.19,1.65-.74,1.79-.71.11-1.63.6-2.25-.45-.39-.67-1.02-1.19-1.72-1.7.48,1.07.96,2.14,1.53,3.41-2.02-.26-1.99-2.04-2.82-3.04-1.87,1.75-2.12,1.6-4.15-.12-1.8-1.53-3.2-3.3-4.34-5.31-.24-.42-.74-.97-.21-1.43.61-.53,1.09.04,1.49.46.46.47.85,1.01,1.29,1.5.37.42.74,1.14,1.03-.1.11-.47.59-.23.99-.07,1.08.44,2.19.72,3.09,1.63.69.7,1.66,1.18,3.23.75-4.43-3.57-7.93-7.71-14.22-7.75-4.85-.03-9.41.54-13.84,2.41-.67.28-1.37.4-2.11.42-3.44.1-6.71.97-9.9,2.23-1.26.5-2.66.76-4.01.87-3.79.32-7.22,1.82-10.72,3.1-1.12.41-1.67,1.59-1.61,2.45.1,1.46.58,2.92.76,4.42.04.38.46.44.8.34,3.36-1.01,6.88-.84,10.31-1.32,2.77-.38,5.29-1.52,7.93-2.27,1.46-.41.8-1.43.26-1.94-.78-.75-1.14-1.36-.54-2.36.59-.99,1.41-.85,2.23-.52.79.31,2.14-.16,2.27.99.12,1.09-1.32.78-1.92,1.31-.09.08-.13.22-.34.57,2.86.53,5.34-.58,7.88-1.19,4.23-1.02,7.67-3.59,11.34-5.72.79-.46,1.94-1.79,2.69-.58.79,1.27-.93,1.45-1.69,2.04-2.12,1.65-4.39,3.09-6.78,4.27-3.47,1.7-7.01,3.33-11.04,3.02-1.36-.11-2.4.58-3.46,1.19-4.94,2.8-10.37,3.54-15.9,3.71-2.68.09-5.08,1.12-7.18,2.44-1.42.89-2.06,2.97-2.48,4.77-.55,2.37-.91,2.59-3.26,2.81-2.88.27-5.76.47-8.64.56-3.37.11-5.58,2.25-7.16,4.89-1,1.67-.73,3.86-.65,5.75.09,2.01-.25,3.84-1.03,5.55-1.39,3.04-2.9,6.06-5.54,8.28-.24.2-.63.65-.59.71,1.5,2-.76,1.89-1.46,2.63-1.08,1.15-2.08,2.37-3.25,3.42-1.18,1.05-2.49,1.82-3.97.32-.57-.58-1.38-.29-2.08-.19-2.23.32-4.17,1.24-6.05,2.52-3.53,2.42-7.88,2.79-11.75,4.33-4.83,1.92-9.85,2.79-14.91,2.38-3.21-.26-6.12.7-9.19.87-3.92.22-7.72,1.49-11.72,1.04-1.66-.19-3.07,1.38-4.85,1.25-.31-.02-.82.28-.92.17-1.77-2.13-3.58-.33-5.3-.03-4.46.77-8.88,1.72-13.12,3.39-1.21.48-2.28,1.32-3.66,1.36-.91.03-1.83.17-2.51-.84,7.35-2.74,14.7-5,22.53-6.18-.79-1.34,0-2.25.97-3.38-1.25-.12-2.35-.1-1.64-1.83.37-.88-1.43-1.7-2.51-1.17-2.41,1.17-4.97,2.04-7.21,3.55-.55.37-.87.45-1.2-.27-.82-1.82-2.85-2.12-3.76-.42-1.21,2.25-3.11,3.38-5.31,4.38s-4.44,2.04-5.91,4.13c-.33.47-.77,1-1.47.63-.95-.5-.06-1.02.06-1.48.41-1.44,1.65-2.19,2.8-2.94,1.2-.78,2.47-1.44,3.9-1.82,1.95-.52,3.42-1.53,4.24-3.61.78-1.97,2.67-2.6,4.59-1.69,1.64.78,2.88.79,4.54-.17,1.77-1.03,3.93-1.37,5.91-2.05.93-.32,2.09-.09,2.65-1.32.17-.38.97-.43,1.46-.12.64.4-.01.77-.07,1.17-.17,1.15.41,2.11,1.08,3.08.02-1.24.07-2.49.04-3.73-.03-1.06.39-1.67,1.4-2.08,1.78-.74,3.53-1.58,5.09-2.66.05-.49-.24-.74-.54-.8-3.69-.77-7.2-2.17-10.46-3.91-2.95-1.57-5.89-1.04-8.88-1.14-1.7-.06-3.42.01-5.12-.12-1.67-.13-1.76-.49-1.04-1.92,1.63-3.24,4.39-4.26,7.78-4.08,1.31.07,2.56.42,2.14-1.79-.19-.99.67-1.92,1.95-1.58,1.05.27,2.05.26,3.12.18,1.67-.13,3.03.66,3.64,2.18.44,1.11,1.18,1.52,2.17,1.74,1.91.42,3.68,1.35,5.65,1.6.58.07,1.31.27,1.13,1.06-.16.7-.85.48-1.35.4-2.53-.42-4.91-1.4-7.38-2.02-.91-.23-1.02-.93-1.21-1.62-.38-1.4-1.35-1.87-2.67-1.58-1.09.24-2.06-.23-3.1-.39.16,2.41-.28,2.95-2.68,3.26-1.91.24-3.93-.35-5.67,1.06-.7.57-1.5,1.01-2.23,2.15,4.34.11,8.53-.37,12.56.59,4.08.98,7.69,3.36,11.85,4.43-.28-.96-.55-1.89.84-2.21.63-.15,1.12-.43,1.05-1.36-.11-1.39,1.38-1.4,2.13-1.62.94-.27,2.05-1.65,2.89-.56.69.9-.24,2.08-.81,3.02-.71,1.17-1.43,2.34-2.17,3.49-.23.36-.44.66,0,1.05,1.99-1.76,2.63-4.43,4.23-6.46h-.02Zm41.93-66.83c.93,4.21,2.66,8.05,4.12,11.98.61,1.65,1.13,3.37,2.18,4.82.5.69,1,1.44,2.06.61,2.79-2.17,3.58-4.59,2.52-8.06-.39-1.27-.33-2.5.52-3.54.4-.49.45-.82.11-1.37-1.1-1.78-2.28-3.54-3.17-5.43-1.27-2.71-3.34-5.19-3.18-8.4.06-1.29-.15-2.46-.53-3.64-1.92-6.07-4.65-11.78-7.61-17.41-.9-1.71-1.96-3.1-3.61-4.24-1.97-1.37-4.22-2.39-5.81-4.29-1.01-1.2-2.39-1.9-3.69-2.75.49.82.99,1.73,1.76,2.18,1.97,1.16,3.28,2.79,4.16,4.85.16.39.76.66.37,1.19-.37.51-.93.37-1.45.32-.78-.07-1.52-.7-2.78-.02,1.99.6,3.26,2.12,5.09,1.99,2.57-.19,2.63-.16,3.24,2.51,1.42,6.22,1.5,12.63,2.91,18.85.72,3.17,1.51,6.23,3.75,8.72.28.32.83.63.43,1.15-.38.48-.82-.29-1.39-.02h0Zm12.24,22.94c-1.21.75-2.16,1.18-1.15,2.57.35-.8.67-1.5,1.15-2.57Zm-68.93,65.41c.56-.36,1.56.06,1.74-.89.02-.13-.19-.43-.3-.43-.85-.04-1.12.66-1.44,1.32h0Zm-1.24-2.71c.86.06,1.33-.07,1.25-.8-.02-.15-.25-.42-.34-.4-.6.1-.61.67-.92,1.2Zm11.46-16.06c-.15.06-.38.13-.57.26-.13.09-.31.28,0,.4.27.11.49.02.67-.17.12-.13.28-.29-.1-.49h0Z"/>
  <path class="cls-2" d="m757.34,104.24c-3.84-1.37-7.42-.37-10.89,1.07-5.11,2.13-7.04,10.37-1.94,14.87.55.48.71.09,1.07-.25,2.33-2.23,4.69-4.42,7.06-6.61.4-.37.91-1.01,1.46-.35.51.61-.07,1.08-.53,1.47-1.51,1.28-2.86,2.71-3.82,4.45-.32.58-.83.48-1.32.63-1.05.33-2.16.69-2.16,2.19,0,.91-.69.8-1.26.51-2.76-1.41-5.22-6.54-4.67-9.82,1.17-6.97,5.1-9.49,12.23-9.99,3.16-.22,3.41.13,4.77,1.85h0Z"/>
  <path class="cls-2" d="m797.15,59.04c.19,1.91-.56,2.74-2.28,2.54-.78-.09-1.56-.23-2.34-.24-1.78-.04-2.88-.91-3.61-2.51-.93-2.07-1.2-2.06-2.67-.39-.88,1-1.91,1.82-3.24,2.12-.43.1-.96.16-1.15-.44-.21-.64.22-.67.69-.88,1.2-.55,2.12-1.48,2.87-2.58.91-1.32,2.06-1.54,3.3-.55.66.53,1.26,1.16,1.62,1.97,1.23,2.73,4.53,3.27,6.47,1.07.07-.08.23-.08.35-.12h0Z"/>
  <path class="cls-2" d="m762.31,81.61c-1.5-1.04-1.9-2.28-.84-3.51.91-1.05.65-1.83.03-2.75-.22-.33-.51-.63-.65-.98-.52-1.3-.81-2.53.81-3.36,1.27-.65,1.25-1.53.29-2.51-.55-.56-1.05-1.18-1.56-1.78-.22-.26-.38-.58-.05-.86.35-.29.63-.01.84.21.75.81,1.47,1.65,2.2,2.48,1.14,1.3,1.06,2.49-.39,3.49-1.03.71-1.07,1.41-.35,2.45,1.09,1.56,1.85,3.24.07,4.92-.63.59.23,1.56-.4,2.21h0Z"/>
  <path class="cls-2" d="m757.17,90.49c.82.84,1.59,1.73,2.47,2.51,2.01,1.78,4.23,1.64,6.57.68,1.09-.45,2.04-1.21,3.24-1.36.32-.04.67-.02.87.31.18.29-.02.48-.19.68-2.39,2.84-8.24,3.34-11.16.93-1.12-.92-1.89-2.08-1.8-3.74h0Z"/>
  <path class="cls-2" d="m764.19,100.45c-1.23,1.77-2.36,3.42-3.54,5.03-.22.3-.57.9-1.08.38-.37-.38.1-.68.3-.99.79-1.2,1.8-2.23,2.44-3.56.23-.47.72-1.14,1.88-.86h0Z"/>
  <path class="cls-2" d="m786.33,62.66c-.35-.46,0-.72.29-.97.89-.78,3.96.04,4.29,1.17.14.49-.13.76-.64.56-1.15-.45-2.3-.91-3.58-.65-.11.02-.24-.07-.36-.11h0Z"/>
  <path class="cls-2" d="m781.88,62.35c2.43.27,2.41,1.77,2.31,3.1-.09,1.15-.68,2.1-2.45,1.89,2.36-1.53,1.65-3.15.15-4.99h0Z"/>
  <path class="cls-2" d="m779.57,66.25c.42-1.19.34-2.46.57-3.68.99,1.41.22,2.55-.57,3.68Z"/>
  <path class="cls-2" d="m706.05,139.6c-.83.68-1.53.52-2.61.75.91-.97,1.51-1.38,2.61-.75Z"/>
  <path class="cls-2" d="m715.53,137.65c.68-.59,1.18-.76,1.84-.4-.39.82-.91.87-1.84.4Z"/>
  <path class="cls-2" d="m789.61,64.94c-.24.2-.49.17-.7-.02-.23-.21-.22-.46.06-.63.25-.15.51-.12.69.13.13.18.12.36-.05.52h0Z"/>
  <path class="cls-1" d="m704.65,130.09c-.45.53-1.14.53-1.73.74"/>
  <path class="cls-1" d="m771.8,62.46c.35,1.1.98,1.52,2.05.83"/>
  <path class="cls-1" d="m700.54,130.82c-.23-.06-.46-.12-.69-.18"/>
  <path class="cls-1" d="m775.09,63.79c.03.24.06.47.1.71"/>
  <path class="cls-1" d="m698.57,126.21c.07-.32.13-.65.2-.97"/>
  <path class="cls-1" d="m769.37,74.67c0,.62.49.8.92,1.04"/>
  <path class="cls-1" d="m756.84,61.41c-.07-.38-.14-.76-.21-1.14"/>
  <path class="cls-1" d="m750.06,45.98c-.06-.33.2-.68-.08-.99"/>
  <path class="cls-1" d="m745.31,31.93c-.12-.33-.24-.67-.36-1"/>
  <path class="cls-1" d="m785.87,75.67c.41.52.98.93,1.16,1.61"/>
  <path class="cls-1" d="m788.18,79.18c.18.81.37,1.61.55,2.42"/>
  <path class="cls-1" d="m788.07,85.63c.03.24.06.47.1.71"/>
  <path class="cls-1" d="m770.22,69.95c-.29-.63-.58-1.25-.87-1.88"/>
  <path class="cls-1" d="m767.48,64.17c-.07-.43-.15-.85-.64-1.02"/>
  <path class="cls-1" d="m781.89,67.29c1.41-.1,1.84-1.17,1.92-2.27.07-1.05-.42-1.98-1.65-2.21"/>
  <path class="cls-1" d="m806.81,77.51c-.88-.13-1.36.76-2.16.85"/>
  <path class="cls-1" d="m706.31,123.6c-.9-.45-1.61-1.3-2.73-1.29"/>
  <path class="cls-1" d="m776.13,83.5c0-.64-.64-.86-.9-1.32"/>
  <path class="cls-1" d="m772.65,80.76c-.6-.12-1.24.1-1.81-.25"/>
  <path class="cls-1" d="m757.46,104.26c-.71-.74-1.62-1-2.6-1.14"/>
  <path class="cls-1" d="m748.21,103.97c-.24.03-.47.06-.71.1"/>
  <path class="cls-1" d="m790.7,63.2c-.63-.78-1.68-.76-2.45-1.27"/>
  <path class="cls-1" d="m745.91,104.96c-.24.03-.47.06-.71.1"/>
  <path class="cls-1" d="m787.97,61.91c-.59.2-1.28.2-1.73.74"/>
  <path class="cls-1" d="m742.97,107.02c-1.16,2.1-2.23,4.24-1.96,6.76"/>
  <path class="cls-1" d="m741.31,115.91c.18,1.53.81,2.8,2.16,3.64"/>
  <path class="cls-1" d="m744.09,120.85c.55.16,1,.47,1.35.92"/>
  <path class="cls-1" d="m756.39,126.37c-.12.46-.24.92-.36,1.38"/>
  <path class="cls-1" d="m780.39,78.15c1.01,2.12.85,4.54,1.7,6.7"/>
  <path class="cls-1" d="m702.43,122.8c-.94,1.39-1.08,3.15-2.1,4.5"/>
  <path class="cls-1" d="m760.37,65.7c.62,1.6,2.47,2.29,2.99,3.97"/>
  <path class="cls-1" d="m787.67,73.82c-.24.03-.47.06-.71.1"/>
  <path class="cls-1" d="m785.59,75.66c-1.19.44-2.02-.29-2.89-.88"/>
  <path class="cls-1" d="m764.15,100.46c-1.12.29-1.64,1.25-2.06,2.13-.63,1.33-1.77,2.25-2.49,3.48"/>
  <path class="cls-1" d="m745.81,120.39c-.16.32-.32.64-.48.95"/>
  <path class="cls-1" d="m794.11,62.56c-.41.44-1.26.47-1.2,1.33"/>
  <path class="cls-1" d="m809.32,86.93c-.24.03-.47.06-.71.1"/>
  <path class="cls-1" d="m692.08,131.43c-.88.53-1.73,1.14-2.75,1.38"/>
  <path class="cls-1" d="m784.57,92.44c-.23-.06-.46-.12-.69-.18"/>
  <path class="cls-1" d="m688.64,137.12c.03.24.06.47.1.71"/>
  <path class="cls-1" d="m781.49,92.25c-.5-.11-1.06.11-1.53-.23"/>
  <path class="cls-1" d="m763.53,83.01c.03-.46.06-.93.09-1.4"/>
  <path class="cls-1" d="m798.2,57.62c-.24-1.34-1.31-2.2-1.9-3.34"/>
  <path class="cls-1" d="m741.89,133.91c-.33.12-.67.24-1,.36"/>
  <path class="cls-1" d="m739.55,135.45c-.24.03-.47.06-.71.1"/>
  <path class="cls-1" d="m681.63,123.21c-.56-.4-1.23.02-1.81-.25"/>
  <path class="cls-1" d="m722.36,141.14c-.93.24-1.85.52-2.83.39"/>
  <path class="cls-1" d="m750.04,74.05c-.25.31-.51.62-.76.94"/>
  <path class="cls-1" d="m753.4,78.75c.32.16.64.32.95.48"/>
  <path class="cls-1" d="m706.18,139.59c-.7.24-1.56-.13-2.14.57"/>
  <path class="cls-1" d="m745.81,55.83c-.69-.34-1.23-.98-2.04-1.11"/>
  <path class="cls-1" d="m797.28,58.96c-.72,1.48-2.2,2.09-4.46,1.83"/>
  <path class="cls-1" d="m717.27,137.18c-.48.49-1.15.28-1.71.46"/>
  <path class="cls-1" d="m700.64,142.9c-.24.03-.47.06-.71.1"/>
  <path class="cls-1" d="m694.09,130.71c-.7-.25-.8,1.08-1.58.61"/>
  <path class="cls-1" d="m688.17,144.95c-.24.03-.47.06-.71.1"/>
  <path class="cls-1" d="m774.83,51.84c.58.54-.28,1.31.31,1.84"/>
  <path class="cls-1" d="m685.57,141.42c.33-.73.65-1.46.98-2.19"/>
  <path class="cls-1" d="m761.13,94.66c-.23-.06-.46-.12-.69-.18"/>
  <path class="cls-1" d="m757.91,92.21c-.03-.76-.97-1-1.02-1.75"/>
  <path class="cls-1" d="m754.19,79.64c.1,1.02,0,2.11,1.1,2.73"/>
  <path class="cls-1" d="m781.05,74.12c-.04-.14-.04-.38-.12-.41-2.15-.89-3.18-2.69-3.92-4.74"/>
  <path class="cls-1" d="m780.2,62.7c.24,1.31.16,2.55-.78,3.6"/>
  <path class="cls-1" d="m757.04,78.97c-.03,1.1-1.31,1.7-1.16,2.88"/>
  <path class="cls-2" d="m211.54,37.47c3.13-3.42,5.32-7.52,8.14-11.16.59-.76,1.16-1.55,1.76-2.29.28-.34.6-.68,1.12-.33.52.35.69.74.31,1.31-.78,1.18-1.49,2.42-2.3,3.58-7.87,11.24-15.73,22.48-23.65,33.69-1.04,1.48-2.05,2.77-2.09,4.77-.04,1.95-2.94,3.12-4.74,2.16-.39-.21-.68-.6-1.08-.75-1.08-.41-2.49-.76-3.11.22-.47.74.68,1.73,1.42,2.26,2.78,2.01,5.31,4.32,7.97,6.49,4.12,3.36,6.25,7.56,5.48,12.95-.21,1.5.5,2.07,1.76,2.24,1.33.18,2.61.62,3.92.8,2.21.31,3.53,1.39,4.58,3.36,1.42,2.64,4.05,3.79,6.9,4.38.72.15,1.47.19,2.47.31-1.6-2.2-3.36-3.99-5.49-5.41-1.61-1.07-2.8-2.44-3.56-4.19-1.52-3.51-3.72-6.55-6.11-9.51-1.01-1.25-1.76-2.75-2.46-4.21-1.9-3.97-4.88-7.32-6.56-11.41-.21-.51-.94-1.17-.27-1.57.84-.49,1.01.53,1.36,1.04,1.42,2.08,2.84,4.17,4.26,6.26.65.95,1.6,1.48,2.56,2.09,3.76,2.38,7.6,4.72,10.71,7.94,1.54,1.6,3.01,3.08,5.32,3.41.77.11,1.6.27,1.96,1.54-2.87-.67-5.6-.65-7.57-3.27-1.3-1.74-3.4-2.85-5.2-4.12-1.66-1.17-3.49-2.17-5.33-3.61.9,3.42,3.64,5.33,4.99,8.1.16.33.46.6.59.94.99,2.44,2.65,3.46,5.29,2.71.72-.21,1.43-.09,2.14.31,2.93,1.69,4.44,1.5,6.84-.74.28-.26.56-.57.94-.27.37.29.15.65,0,1-1.14,2.62-4.98,3.5-8.01,2.22-1.32-.56-2.61-1.08-4.12-.91,0,2.56,2.01,3.71,3.52,5.09,2,1.81,3.68,3.92,5.65,5.75.5.47.78.89.52,1.54-.24.61-.82.58-1.33.65-5.22.75-9.31-1.03-12.2-5.48-.67-1.04-1.5-1.71-2.87-1.83-1.75-.15-3.41-.86-5.2-1.06-1.89-.21-2.09-1.83-1.93-3.45.37-3.94-.4-7.53-3.42-10.34-3.01-2.8-6.08-5.53-9.08-8.33-.92-.86-1.7-1.92-1.98-3.18-.33-1.51-1.41-1.46-2.56-1.53-1.24-.08-1.44.76-1.7,1.64-2.13,7.34-6.31,13.42-11.61,18.78-.54.55-.66,1.13-.83,1.75-.72,2.6-2.35,4.3-5,4.83-.78.16-.87.55-1.11,1.12-2.05,4.91-5.41,8.23-10.69,9.85-4.7,1.44-9.53,2.42-14.11,4.25-1.02.4-2.14.63-3.22.04-1.18-.64-1.69-.12-2.07,1.02-1.08,3.22-3.57,5.04-6.6,6.16-1.15.43-2.36.75-2.88,1.93-2.24,5.07-6.63,7.08-11.56,8.57-3.73,1.12-7.51,2.17-10.83,4.41-2.65,1.79-3.87,4.22-4.07,7.3-.03.47.25,1.16-.54,1.25-.79.09-.97-.54-1.07-1.16-.22-1.35.17-2.66.29-4.13-2.23.31-4.38.57-6.52.95-.33.06-1.23.07-1.02.87.57,2.15-.6,1.34-1.47.86-4.58-2.51-8.74-.78-12.86,1.25-.75.37-1.22.94-.85,2,.38,1.1,1.03,1.17,1.88.81,1.03-.43,1.15.2,1.22.95-.11.09-.23.17-.36.23-.37.02-.75.04-1.12.05-1.35.03-2.66.1-3.49-1.39-.84-1.5.2-2.33,1.01-3.23-1.07-1.22-2.19-.4-3.23-.32-6.18.45-12.17,2.15-18.32,2.81-5.74.61-11.33,2.27-17.13,2.43-.58.02-1.33.09-1.69.45-1.87,1.85-4.42,2.46-6.66,3.52-4.71,2.24-9.82,3.31-15.08,3.51-.81.03-1.57-.23-1.78-1.07-.23-.89-.09-1.76.75-2.4,1.68-1.29,3.65-1.88,5.82-2.59-.15,2.54-2.8,2.26-3.81,3.73,1.51.62,2.89.12,4.17-.27,3.67-1.12,7.43-1.81,10.87-3.81,2.04-1.18,4.27-2.32,6.58-3.09.7-.23,1.39-.55,1.98.3.42.61,1.14.42,1.66.23,5.84-2.19,12.02-2.55,18.1-3.48,4.84-.74,9.63-1.98,14.49-2.44,5.99-.57,11.88-1.8,17.92-2.18,5.2-.33,10.26-1.46,14.99-4.39,2.6-1.6,4.51-3.69,6.69-5.57,2.26-1.95,3.79-4.57,5.02-7.3,1.07-2.35.39-3.43-2.13-3.5-3.82-.11-7.23,1.53-10.65,2.88-1.91.75-3.62,2.03-5.35,3.18-.79.52-2.01.63-1.66,2.34.19.9-1.42,1.42-2.42,1.63-3.5.74-7,1.56-10.54,1.97-4.51.53-8.9,1.56-13.33,2.48-.43.09-.86.27-1.3.27-6.98-.07-13.27,2.53-19.61,4.98-4.14,1.6-8.33,3.06-12.37,4.93-1.94.9-3.6,2.35-5.82,2.72-3.09.52-6.22.58-9.32.9-1.08.11-2.85-.31-2.06,1.92.05.15-.09.45-.23.56-.66.54-4.68-.98-4.84-1.8-.26-1.37.69-1.57,1.7-1.82,3.66-.89,7.39-1.32,11.48-1.7-3.4-.91-6.5-.79-9.59-.79-.67,0-1.35-.01-2.02-.01-.92,0-1.78-.42-1.89-1.26-.13-.99.99-.94,1.63-1.12,4-1.08,8-2.12,12.02-3.12,3.11-.77,6.33-.8,9.47-1.53,4.12-.96,7.85-2.8,11.55-4.61,6.53-3.18,13.41-5.28,20.34-7.12,4.34-1.15,8.79-2.35,13.4-2.13,1.32.06,2.6-.67,3.97-.14.83.32.93-.53,1.21-1,1.81-3.06,3.46-6.24,5.46-9.18,2.76-4.07,6.66-6.84,11.37-8.21,5.86-1.7,11.38-4.3,17.19-6.13.85-.27,1.74-.46,2.62-.49,1.92-.08,3.28-.91,4.52-2.38,3.86-4.6,8.49-8.36,13.39-11.79.3-.21.66-.35,1-.49,1.61-.63,2.64-1.4,3.23-3.42.82-2.79,2.69-5.29,4.67-7.56.71-.81,1.27-1.45.79-2.73-.51-1.35.25-2.73,1.14-3.71,7.12-7.81,14.32-15.53,21.76-23.04,5.15-5.2,10.09-10.61,15.17-15.88,5.44-5.65,10.94-11.24,16.41-16.87.58-.6,1.16-1.4,2.04-.63,1.03.9-.14,1.56-.56,2.02-2.16,2.38-4.45,4.65-6.69,6.96-.42.44-1.25.86-.28,1.55,1.26.9.27,1.57-.27,2.14-3.67,3.83-7.38,7.62-11.06,11.43-4.15,4.28-8.26,8.6-12.45,12.84-3.65,3.69-7.4,7.28-10.94,11.13,1.84-.65,3.21-1.99,4.54-3.27,1.45-1.38,3.17-2.15,4.93-2.95.97-.44,1.79.07,2.52.54,1,.64,1.92,1.43,2.8,2.23.41.37.66.69,1.31.36,2.55-1.3,5.31-.68,7.93-.47,3.04.25,3.98,3.06,5.15,5.35.74,1.45,1.21,3.04,1.91,4.51.57,1.2,1.29,1.63,2.2.18,5.29-8.47,11.2-16.53,16.83-24.77,4.17-6.11,8.79-11.9,12.66-18.22.28-.45.56-1,1.19-.57.51.36.45.96.14,1.41-.63.92-1.34,1.79-2.01,2.69-2.77,3.76-5.13,7.79-7.87,11.57-1.71,2.37-3.61,4.7-4.89,7.39-1.66,2.15-3.29,4.31-4.43,6.8-1.52,1.43-2.77,3.05-3.61,4.97-.4.44-.85.85-1.19,1.33-2.49,3.53-4.94,7.08-7.44,10.59-1.1,1.54-1.48,1.54-2.22-.13-.85-1.96-1.89-3.81-2.6-5.86-1.79-5.14-2.08-5.25-7.54-5.42-.82-.03-1.64,0-2.46,0-.53,0-.99.11-1.44.47-2.86,2.26-6.2,3.92-8.63,6.72-1.95,2.25-4.99,3.01-6.93,5.26-1.85,2.15-3.61,4.4-5.64,6.37-1.95,1.89-2.79,4.46-4.77,6.37,7.06,1.05,12.3,4.24,15.41,10.62,1.92-1.92,3.19-4.21,4.68-6.32,2.19-3.1,3.99-6.45,5.41-9.97,1.17-2.91,2.06-5.96,4.03-8.51.4-.53.6-1.44,1.34-1.02.57.32.36,1.21,0,1.84-.11.19-.15.43-.27.62-.58.98-.23,1.34.82,1.33s2.11-.07,3.14.1c1.66.27,3.93-.13,3.4,2.93-.18,1.06,1.02,1.08,1.85,1.03.9-.04,1.35-.86.98-1.38-1.12-1.52-.67-2.27.92-2.79.18-.06.28-.34.41-.53,2.07-3,4.26-5.94,6.15-9.05.91-1.49,2.27-2.78,2.54-4.64,1.75-1.25,2.81-3.01,3.63-4.94,1.66-2.14,3.67-4.03,4.55-6.69h0Zm-71.9,57.47c1.66.63,3.4.91,4.94.07,5.09-2.77,9.2-6.57,11.65-11.92.35-.76.96-1.89-.18-2.35-2.32-.94-4.64-1.9-7.29-1.84-2.82.06-5.64,2-8.5.1-.34-.22-.64.21-.93.45-4.27,3.51-8.24,7.34-12.26,11.12-.34.31-.84.63-.58,1.31.58,1.51-.45,1.39-1.41,1.34-3.88-.19-7.43,1.03-10.99,2.39-3.11,1.19-6,2.96-9.36,3.48-2.45.38-4.72,1.33-6.94,2.38-3.18,1.51-5.98,3.48-7.55,6.82,1.16-1.6,2.92-2.26,4.61-3.04,1.64-.75,3.14-.15,4.31.9,1.27,1.12,1.08,2.69.45,4.14-.2.47-.64.84-.85,1.31-.94,2.15-3.41,2.91-4.48,5,2.48-1.39,5.06-2.47,7.68-3.47,3.02-1.16,6.12-2.01,9.41-1.38,1.99.38,3.18,2.06,2.82,4.04-.34,1.84-.85,3.61-2.01,5.16-1.39,1.87-2.74,3.77-4.58,5.27,1.41-.36,2.74-.78,4.06-1.24,2.73-.96,5.03-2.35,6.64-4.95,1.57-2.54,3.72-4.45,6.78-5.45,3.74-1.22,4.68-5.02,6.21-8.13,1.02-2.06-.01-4-.79-5.94-1.05-2.62-1.25-2.78-3.83-1.99-.78.24-1.6.35-2.41.52-3.36.7-3.99,2.04-2.37,4.96.29.52.51,1.09.64,1.66.36,1.54-.16,2.65-1.75,3.09-1.87.52-3.76.85-5.92,1.01,1.09-1.56,2.6-1.51,3.93-1.83,2.92-.7,3.31-1.63,1.65-4.15-1.83-2.77-1.23-4.46,1.99-5.29,1.79-.46,3.74-.86,5.29-1.61,1.88-.91,2.4-.16,3.06,1.05.77,1.41,1.42,2.89,2.26,4.63.21-2.42-.42-4.19-1.88-5.73-.36-.38-.9-.99-.33-1.56.7-.69,1.08.18,1.41.53,2.1,2.24,3.42,4.84,3.38,8,0,.76-.22,1.55.1,2.37,2.6-3.63,1.16-6.94-.4-10.19-.81-1.67-4.36-3.31-5.93-2.86-.53.15-.99.8-1.43-.13-.42-.91.29-1.25.83-1.56.67-.39,1.43-.29,2.19-.18,5.73.88,9.78,9.77,7.08,14.49-.28.49-.81.88-.64,1.59,4.25-.68,8.2-2.31,12.3-3.46,3.51-.99,6.45-2.77,8.64-5.93,1.09-1.57,1.71-3.27,2.56-4.9.74-1.43.73-1.41,2.23-.75.2.09.59-.06.81-.22.66-.49,1.25-1.05,1.52-1.88.97-2.89.73-5.54-1.47-7.84-2.55-2.67-7.35-5.16-10.16-5.1.93.4,1.61.68,2.29.97,2.36.99,4.09,2.65,5.3,4.89.21.39.53.83.15,1.24-.53.57-.94-.08-1.34-.29-.32-.17-.58-.48-.81-.76-.98-1.18-1.61-1.01-2.18.4-1.35,3.37-3.64,6.09-6.28,8.51-1.89,1.74-4.04,3.09-6.51,3.84-1.8.55-3.5.47-4.84-1.15h0Zm-120.21,40.96c1.87.56,3.89.54,4.54,1.48,1.25,1.81,2.58,1.02,3.58.49,3.87-2.05,7.72-4.09,11.93-5.38,3.31-1.01,6.46-2.52,9.73-3.64,2.57-.87,5.36-1.07,8.02-1.7,3.87-.91,7.85-1.19,11.7-2.36,3.39-1.03,6.89-1.88,10.49-2.02,2.77-.1,3.29-.67,3.37-3.38.03-1.03-.24-1.61-1.38-1.37-5.72,1.24-11.59,1.88-17.15,3.75-6.59,2.22-13.35,3.99-19.55,7.24-5.12,2.69-10.62,4.08-16.28,4.97-2.86.45-5.78.56-9,1.89h0ZM176.44,49.1c-3.55-2.16-4.61-2.15-7.4.26-2.26,1.96-4.55,3.87-7.03,5.54-1.32.89-2.41,1.99-3.4,3.23-.98,1.21-2.17,2.24-3.34,3.29-4.21,3.79-8.17,7.8-11.18,12.79,1,0,1.93-.17,2.77.03,3.18.76,4.72-.58,6.27-3.42,4.12-7.51,10.99-12.5,17.51-17.77,1.78-1.43,3.88-2.35,5.8-3.94h0Zm-80.82,57.7c-1.95.25-3.56,2.25-5.07,4.06-2.3,2.74-3.56,6.13-4.75,9.49-.16.45-.66,1.02-.14,1.41.55.43,1.15-.01,1.61-.37.46-.36.87-.81,1.26-1.25,2.29-2.55,4.33-5.35,7.01-7.51,1.17-.94,1.89-2.1,2.49-3.37.82-1.74.27-2.51-2.42-2.46h0Zm74.45-66.27c-1.36,1.2-2.74,2.19-3.85,3.43-5.12,5.71-11.34,10.39-15.81,16.72-.49.69-1.7,1.34-.94,2.11.66.67,1.24-.72,1.95-1.01.19-.08.3-.32.46-.48,2.25-2.24,4.33-4.54,6.01-7.32,2.06-3.4,5.36-5.87,7.99-8.87,1.34-1.52,2.73-3,4.18-4.58h0Zm12,24.83c1.9.61,3.79,1.16,5.78,1.2.42,0,.94.09.99-.56.04-.49-.36-.65-.72-.65-2.01-.01-4.01-.76-6.05,0h0Zm-33.81,10.93c-2.42-.48-4.15.03-5.68,1.37,1.71-.59,3.6-.45,5.68-1.37Zm23.24-37.12c.22-.24.42-.42.56-.64.11-.18.08-.46-.18-.37-.22.08-.4.35-.55.57-.04.05.08.21.18.45h0Z"/>
  <path class="cls-2" d="m89.69,139.87c2.44-.76,5.49,1.21,5.7,3.71.1,1.15-.44,2.19-1.36,2.66-1.42.72-3.52.83-1.73,3.21.03.04,0,.2-.02.21-1.78.43-1.24,2.65-2.64,3.41-.88.48-1.58,1.11-1.01,2.33.36.78-.23,1.08-.9,1.16-.73.08-1.46.09-2.63.16,1.6-1.64,1.65-3.95,3.81-4.68.66-.22.36-.55.26-1.01-.34-1.48-.97-2.8-1.83-4.03-.55-.79-.84-1.73.02-2.41.99-.79,1.39.2,1.82.87.84,1.29,1.86.69,2.72.15.97-.61,1.36-1.5.69-2.65-.74-1.28-2.2-1.74-3.08-2.86.05-.07.11-.14.16-.21h0Z"/>
  <path class="cls-2" d="m105.81,150.78c1.71,1.45,2.33,3.03,1.53,5.02-.58,1.43-1.19,2.83-1.79,4.25-.12.27-.2.57-.36.81-.66.95-1.62,1.54-2.64,1.99-3.39,1.5-6.28,4.63-10.55,3.29-.42-.13-.85-.27-1.22-.49-.49-.3-1.16-.65-.92-1.33.33-.94,1.02-.3,1.48-.1,1.3.55,2.64.41,3.98.38.42,0,1.05-.1,1.23-.39,1.41-2.19,3.61-2.86,5.96-3.34.47-.09.91-.55,1.06-1.08.72-2.58,3.26-4.65,2.16-7.75-.11-.31.04-.72.09-1.25h0Z"/>
  <path class="cls-2" d="m86.63,166.61c-2.78.04-5.32-2.26-5.51-4.98-.01-.22.02-.6-.06-.63-2.29-.68-1.72-3.45-3.39-4.61-1.12-.78-.63-2.22-1.09-3.29-.04-.09.18-.4.34-.46.46-.17.66.23.87.52.82,1.14,1.72,2.39,2.15,3.58.5,1.38,1.32,2.27,2.2,3.25.2.22.63.5.58.64-.84,2.58,1.89,2.62,2.78,3.95.46.68,1.19.58,1.83.33.93-.36,2.05-.55,2.19.59.15,1.22-1.14,1.08-2.02,1.12-.3.01-.6,0-.9,0h.01Z"/>
  <path class="cls-2" d="m97.54,139.77c4.36-.84,8.69,2.64,8.79,7.04.02.72.52,1.01.76,1.52.23.49.23,1.1-.25,1.43-.59.41-.85-.09-1.18-.55-.82-1.12-1.31-2.16-1.57-3.68-.36-2.13-2.06-4.05-4.56-4.66-.7-.17-1.53-.08-1.99-1.1h0Z"/>
  <path class="cls-2" d="m74.23,143.16c.13-.07.24-.15.36-.23,1.16-.11,1.85.18,1.67,1.58-.17,1.33-.44,2.51-2.01,2.72-.75.1-1.25-.36-1.6-.98-.33-.6-.2-1.12.27-1.6.46-.47.87-.99,1.31-1.48h0Z"/>
  <path class="cls-2" d="m82.92,150.81c-.81.06-1.19-.2-1.08-.74.14-.68-.95-1.38.04-1.99.24-.15.6-.09.85-.23.65-.35.89-1.57,1.97-1,.59.31.44.85.17,1.36-.56,1.03-1.03,2.12-1.94,2.6h0Z"/>
  <path class="cls-2" d="m78.48,147.53c.09.58-.28.68-.65.72-.49.05-.98-.18-1.5.13-.45.26-1.25,1.23-1.48.21-.18-.79.92-1.59,1.8-1.88.73-.24,1.41.18,1.83.82h0Z"/>
  <path class="cls-2" d="m89.53,140.09c-.18.13-.33.29-.53.39-.54.29-1.08.93-1.7.3-.31-.31-.14-.87.13-1.21.54-.67,1.19-.81,1.88-.2.16.14.26.34.39.51-.05.07-.11.14-.16.21Z"/>
  <path class="cls-2" d="m75.47,152.2c-.94-.53-1.4-.94-1.37-1.68,0-.13.32-.37.44-.34.93.25.72,1.05.93,2.01h0Z"/>
  <path class="cls-1" d="m100.16,114.57c-.22.15-.45.3-.67.45"/>
  <path class="cls-1" d="m98.37,106.47c-.22-.15-.45-.3-.67-.45"/>
  <path class="cls-1" d="m177.3,49.57c-.28-.96-.98-1.54-1.8-2.02"/>
  <path class="cls-1" d="m185.18,67.57c-.52,1.01,0,1.85.45,2.7"/>
  <path class="cls-1" d="m197.77,68.24c-.49-1.07-1.3-1.97-1.57-3.15"/>
  <path class="cls-1" d="m61.93,126.71c-.64.8-1.67.54-2.47.9"/>
  <path class="cls-1" d="m162.46,50.02c-.32.2-.42.68-.9.67"/>
  <path class="cls-1" d="m198.22,59.24c-.15.22-.3.45-.45.67"/>
  <path class="cls-1" d="m115.01,110.07c.95-1.55,2.68-1.18,4.06-1.53,3.28-.84,3.68-1.58,2.02-4.54-1.8-3.21-1.61-3.49,2.01-4.99,1.41-.58,2.95-.68,4.28-1.34,1.93-.94,2.7-.02,3.42,1.59.67,1.5.94,3.18,2,4.51"/>
  <path class="cls-1" d="m79.47,158.2c.15.37.3.75.45,1.12"/>
  <path class="cls-1" d="m81.5,160.22c.2.32.68.42.67.9"/>
  <path class="cls-1" d="m82.62,163.6c.22.15.45.3.67.45"/>
  <path class="cls-1" d="m212.61,88.93c-.3.22-.6.45-.9.67"/>
  <path class="cls-1" d="m217.56,27.31c-.9,1.05-1.8,2.1-2.7,3.15"/>
  <path class="cls-1" d="m198.67,54.3c-.15.22-.3.45-.45.67"/>
  <path class="cls-1" d="m195.97,58.35c-.27.4-.84.56-.9,1.12"/>
  <path class="cls-1" d="m183.15,59.69l-.67,2.02"/>
  <path class="cls-1" d="m24.15,139.53c.22-1.26-.15-2.05-1.57-2.02"/>
  <path class="cls-1" d="m157.51,81.73c-1.01,2.96-2.87,5.42-4.72,7.87"/>
  <path class="cls-1" d="m149.87,92.3c-1.56,1.7-3.71,2.57-5.68,3.47-1.24.56-3.25.61-4.44-.99"/>
  <path class="cls-1" d="m106.01,151c.3.82.6,1.65.9,2.47"/>
  <path class="cls-1" d="m152.34,74.09c-.15.22-.3.45-.45.67"/>
  <path class="cls-1" d="m35.39,142.46c-.45,1.13-1.48-.29-2.02.45"/>
  <path class="cls-1" d="m161.34,94.33c-.69.5-.29,1.49-.9,2.02"/>
  <path class="cls-1" d="m222.06,86.91c-1.43-.37-2.85-.75-4.27-1.12"/>
  <path class="cls-1" d="m102.41,141.56c-.63-.8-1.67-.87-2.47-1.35"/>
  <path class="cls-1" d="m155.04,54.3c-1.52,1.71-3.62,2.91-4.5,5.17"/>
  <path class="cls-1" d="m91.17,146.73c.34-.67,1.1-.33,1.57-.67"/>
  <path class="cls-1" d="m90.27,140.21c-1.02-.58-1.97-.76-2.7.45"/>
  <path class="cls-1" d="m71.6,138.18l-.67,1.35"/>
  <path class="cls-1" d="m128.5,93.43v-.67"/>
  <path class="cls-1" d="m71.38,142.46c1.04.89,2.91-.9,3.6,1.12"/>
  <path class="cls-1" d="m135.7,95.23c.15.22.3.45.45.67"/>
  <path class="cls-1" d="m75.88,147.85l-.67.67"/>
  <path class="cls-1" d="m89.82,151c.85,1.37-.28,1.49-1.12,1.8"/>
</svg>