<?xml version="1.0" encoding="UTF-8"?>
<svg id="Layer_1" data-name="Layer 1" xmlns="http://www.w3.org/2000/svg" viewBox="0 0 421.17 265">
  <defs>
    <style>
      .cls-1 {
        fill: #e82e21;
        stroke: #e82e21;
        stroke-miterlimit: 10;
      }
    </style>
  </defs>
  <path class="cls-1" d="m166.55,25.05c.61-6.97.03-13.35-.24-20.06,3.55.53,3.95,3.11,3.8,5.49-.23,3.67,1.7,5.03,4.67,6.61,16.09,8.54,19.34,16.38,18.33,32.86-.29,4.71-4.18,7.7-7.07,11.05-.44.5-1.13.91-1.77.49-.86-.56-.65-1.42-.23-2.19.24-.43.54-.84.86-1.22,7.34-8.73,5.94-18.23,1.76-27.5-2.69-5.97-8.9-8.55-14.26-11.76-.59-.36-1.29-.48-1.76.22-.57.85-.25,1.69.47,2.16.95.62,2.02,1.07,3.08,1.49,11.5,4.51,16.6,16.13,12.04,27.7-1.56,3.95-2.83,8.12-6.98,10.8,4.29,2.45,5.36,5.58,4.21,9.82-2.02,7.48-4.62,14.95-5.42,22.59-1.31,12.48-3.01,24.87-5.11,37.22-1.02,6-2.14,12.04-4.47,17.69-2.49,6.02-7.85,9.72-12.5,13.87-1.72,1.53-3.14,2.87-3.27,5.18-.32,5.56-3.04,10.03-6.56,14.04-2.02,2.3-.93,3.53,1.05,4.64,6.52,3.69,10.92,9.53,15.53,15.16.59.72,1.83,1.42.9,2.43-.95,1.03-2.15.47-3.09-.38-3.56-3.21-6.97-6.58-10.54-9.79-5.75-5.16-12.99-7.89-19.02-12.53-2.16-1.66-3.53.83-5.14,1.76-1.85,1.07-.75,2.22-.46,3.71,1.36,6.8,5.05,12.46,8.65,18.1,2.42,3.79.91,7.38-1.73,8.66-8.78,4.24-17.02,10.67-27.53,9.82-5.41-.44-11.3-.17-14.78-6.06-.88-1.49-3.18-2.24-4.95-3.09-8.91-4.24-12.77-10.75-12.25-20.86.04-.83,0-1.66,0-2.49-2.59-.26-4.49.72-5.71,2.94-2.87,5.24-6.12,6.18-10.69,2.77-1.19-.89-1.88-.63-3.03-.34-2.4.62-4.73.37-5.95-2.23-1.62-3.45-3.45-6.89-2.4-10.92.09-.33.72-.72,1.11-.73.8-.02.87.74,1.16,1.33,1.1,2.21.87,4.87,2.55,6.93,1.21,1.49,2.09,3.03,4.21,1.28,1.9-1.56,3.64-1.57,4.88.82.57,1.11,1.26,2.14,2.62,1.72,1.38-.42,1.97-1.7,2.24-3.06.44-2.22-.57-4.33-.32-6.7.26-2.42-3.36-1.83-5.11-2.91-2.85-1.77-7.31-2.38-7.31-6.48,0-4.48,1.49-8.96,6.54-10.69,2.23-.77,2.09-1.96,1.22-3.63-.95-1.83-.93-3.82-.99-5.83-.08-2.96,1.07-5.33,3.56-6.66,2.57-1.37,4.54.57,6.04,2.25,1.99,2.22,3.18,1.88,5.48.12,4.02-3.07,8.62-.78,9.31,4.23.19,1.36.14,2.71,1.72,3.24,5.94,1.99,6.84,6.33,5.31,11.84,5.56-3.47,5.99-8.78,1.15-12.86-1.02-.86-1.13-1.98-1.41-3.07-1.47-5.78-3.43-7.27-9.72-7.17-.65,0-1.4.37-1.84-.22-2.57-3.46-5.35-5.7-10.02-3.33-1.21.61-1.26-1.45-1.75-2.43-.73-1.45-1.84-3.18-3.59-3.01-1.28.13-1.44,2.02-1.76,3.24-.54,2.07-1.65,4.43-3.72,3.72-2.35-.8-2.12-3.39-.99-5.57.8-1.54,2.4-3.36-.1-4.63-1.91-.97-3.45.17-4.6,1.83-1.41,2.03-2.32,3.68-4.97.55-2.42-2.85-4.08.58-4.46,2.42-.57,2.78-1.49,3.7-4.45,4.03-3.15.35-6.15,2.12-8.35,4.72-2.28,2.68-4.61,3.08-7.06.23-.11-.13-.24-.23-.35-.36-2.07-2.39-5.25-2.74-7.19-1.25-1.84,1.4-1.51,4.87-.14,6.9,1.91,2.83,1.62,4.29-1.71,4.73-2.54.33-4.37,1.5-4.99,3.86-.8,3.05.39,5.48,3.13,7.08.24-.21.39-.3.49-.43,1.53-1.86,1.91-5.59,5.69-3.89,2.09.94,1.96,5.99-.36,8.41-1.2,1.25-2.8,2.04-1.38,3.94,1.01,1.36,2.52,2.54,4.22,2.03,1.74-.52,4.17-.78,4.15-3.47,0-.84.1-1.54.34-2.35.52-1.77,1.39-3.1,3.29-3.2,2.07-.11,1.89,1.91,2.57,3.33,2.54-1.86,1.09-3.22-.21-4.85-3.76-4.72-2.98-9.34,2.07-12.68,1.03-.68,2.13-1.7,3.6-.63,1.25.91,1.83,2.27,1.3,3.49-1.69,3.92.2,5.48,3.53,7.08,2.85,1.37,4.4,4.05,2.72,7.51-.73,1.49-1.47,3.04.74,4.08,1.08.51,1.43,1.39.68,2.42-.65.88-1.66,1.33-2.63.77-2.11-1.21-4.54-1.92-5.78-4.44-.67-1.36-2-3.26-3.37-.27-.39.85-1.27.94-2.09,1.15-4.08,1.05-5.7,5.8-2.44,8.52,3.8,3.17,3.28,6.54,1.79,10.18-1.25,3.06-1.72,5.22,2.76,4.8.48-.04,1.22-.04,1.43.25,2.33,3.22,5.67,3.97,9.43,3.59-.04,2.05-3.47,3.31-1.76,4.25,2.67,1.48,4.48,5.09,8.29,4.21,3.17-.73,5.57-2.7,7.87-4.94,2.15-2.1,4.17-4.55,7.97-1.85,2.32,1.65,5.86-.21,9.12,1.14-2.44,2.77-5.58,3.41-8.4,2.52-2.98-.95-4.5,0-6.37,1.97-1.56,1.65-3.58,3-5.62,4.05-3.73,1.94-7.61,3.5-10.85-.99-.69-.96-1.6-1.71-2.88-1.78-4.78-.24-6.52-4.12-8.18-7.52-.76-1.55-1.55-1.25-2.52-1.53-5-1.42-6.18-3.37-4.64-8.25.99-3.13,1.81-5.97-1.39-8.44-1.78-1.37-.67-3.72-1.12-5.55-8.12.83-8.05.79-11.82-6.7-.7-1.39-2.3-2.3-3.46-3.47-4.92-4.99-5.21-9.05-.59-14.16,1.72-1.9,2.36-3.76,2.36-6.24,0-8.37,6.65-12.46,14.18-8.57,2.52,1.3,3.83,1.05,6.39-.37,4.46-2.47,8.85-4.74,12.18-8.7,3.37-4,7.96-.85,11.92-1.85,3.85-.97,12.23,2.49,15.04,5.46.91.96,1.71,1.22,2.99,1.21,2.39-.02,4.52.96,6.39,2.46,1.95,1.57,3.94,2.98,6.64,2.95.79,0,1.61.41,2.36.76,3.85,1.77,4.21,6.19,6.73,8.95,2.56,2.81,4.6,5.52,2.76,9.72-1.07,2.44.68,2.9,2.62,2.09,1.36-.56,2.78-1.27,3.79-2.3,6.01-6.05,13.92-8.8,21.36-12.33,1.99-.94,1.96-1.62,1.79-3.6-1.48-17.57-1.62-35.17-.66-52.78.09-1.7-.39-2.77-1.3-4.04-4.91-6.86-6.6-13.96-1.35-21.51.64-.92.75-2.21,1.33-3.19,1.54-2.6,1.9-4.35-2.01-4.96-2.36-.37-3.92-2.42-5.1-4.48-4.37-7.7-2.27-22.62,3.99-28.79.47-.47.84-1.17,1.4-1.38,1.12-.42,2.26-2.11,3.48-.66,1.05,1.25-.53,2.09-1.2,2.86-5.95,6.8-6.55,14.81-5.27,23.2.32,2.12,1.23,4.09,2.99,5.6,1.68,1.44,2.84,1.89,4.15-.52,1.9-3.49,4.92-4.76,8.77-3.26,3.26,1.27,3.97-.43,3.47-3.1-2.07-10.95,2.17-19.93,8.68-28.19,2.67-3.38,6.48-5.97,10.55-5.83,3.49.12,2.89-1.37,2.86-3.23-.06-2.76-.21-5.51-.36-8.26-.07-1.24.02-2.6,1.43-2.76,1.68-.18,2.07,1.27,2.31,2.66,1.01,5.81.6,11.66.39,17.5-.04,1.25.36,1.8,2.01,2.78l-.02.07Zm-8.48,33.09l-.1-.08c.2,2.08,4.04,1.99,2.98,4.58-.94,2.3-.27,4.66.53,6.23,3.86,7.54-.63,15.85,2.53,23.37.18.43-.54,1.18-.65,1.82-2.78,15.33-10.4,28.82-16.47,42.89-1.53,3.55-4.06,6.55-7.09,9.35-4.89,4.51-10.52,7.13-16.47,9.62-8.26,3.45-15.17,9.48-23.25,13.12-7.5,3.38-13.05,8.79-18.71,14.27-1.86,1.81-4.06,3.68-4.96,5.97-2.37,6.04,2.82,17.82,8.73,20.34,3.31,1.41,6.13,3.38,8.21,6.18,1.43,1.93,3.25,2.44,5.31,3.09,11.85,3.74,21.09-3.5,31.08-7.39,1.81-.7,2.69-2.6,1.12-4.98-2.83-4.26-5.01-8.87-6.63-13.79-1.58-4.81-3.82-4.98-7.13-.96-.84,1.02-1.58,2.14-2.24,3.29-.84,1.43-1.72,2.71-3.95,2.68,1.35-8.57,7.16-13.91,13.36-18.64,8.92-6.8,18.2-13.14,27.72-19.11,6.13-3.85,11.56-8.93,13.4-15.79,3.19-11.91,5.12-24.16,7.37-36.31,2.12-11.46,2.18-23.23,5.08-34.57,1.03-4.03,2.45-7.59-2.34-10.78-2.82-1.88-4.43-5.34-8.28-1.95-1.72,1.51-3.03-.34-4.44-.91-.58-.23-.81-.93-.47-1.68,1.28-2.82,8.65-4.48,11.17-2.49,3.84,3.03,5.77,2.59,7.49-2.15,2.49-6.88,2.77-14,.59-20.96-1.89-6.03-7.57-7.86-13.44-4.87-2.72,1.39-4.73.38-6.46-1.89-.72-.94-.93-2.53-2.83-2.29-3.74.47-6.98,6.72-5.14,10.14,2.55,4.75,4.52,9.63,3.48,15.2-.22,1.2-.67,2.4-2.11,2.07-1.08-.25-1.28-1.32-.97-2.44,1.43-5.14-1.55-9.26-3.02-13.78-2.72,4.91-2.38,9.81-.59,14.78,1.42,3.93,3.17,7.52,7.6,8.82h0Zm-3.56,8.97c-5.25.52-8.33-1.73-10.01-4.94-2.11-4.05-4.93-4.88-9.17-5.11-3.2-.18-4.98.14-6.05,3.43,1.19.31,2.31.47,3.31.91,1.19.52,2.86,1.15,2.52,2.68-.51,2.33-1.96.56-3.04.33-.9-.19-1.46.31-2.11.94-6.15,5.97-7.56,13.11-3.85,20.93,1.46,3.08,2.09,6.21,2.12,9.6.07,8.98.28,17.95.48,26.93.16,7.23,2.57,14.38.75,21.7-.32,1.31.46,2.53,1.25,3.96,3.42-2.43,7.53-4.25,9.51-7.88,2.27-4.17,4.28-8.55,6.29-12.88,1.16-2.49,2.38-5.53-1.6-7.41-.76-.36-2.11-1.76-1.79-3.3.83-3.94-1.12-7.41-1.78-11.1-.89-5.03-1.73-10.06-2.5-15.11-.14-.91-.3-2.2.89-2.57,1.47-.46,2,.72,2.41,1.87.22.62.65,1.23.67,1.86.28,7.48,3.33,14.51,3.54,22,.09,3.16.16,3.15,2.63,5.74,5.19-8.21,8-17.32,10.54-26.55.31-1.13.65-2.47-.13-3.36-2.57-2.95-1.21-6.1-1.05-9.36.39-7.71,1.23-15.52-6.05-21.4-6.97-5.64-8.17-13.44-6.65-22.01,1.56-8.78,6.56-14.6,14.29-18.42-11.84,2.17-15.75,11.79-18.02,21.47-2.61,11.11,2.43,20.09,12.6,27.05h0Zm-91.79,85.21c-1.63,4.11.95,6.92,2.11,10.08,1.38,3.75.39,5.66-3.2,5.83-2.78.13-5.77,0-6.25,3.44-.44,3.13,1.7,5.1,4.42,6.53,2.81,1.48,5.51,2.92,7.71,5.55,2.77,3.31,5.27,2.73,7.62-.85,1.42-2.17,1.92-4.55,1.63-7.13-.23-2.03.18-3.65,2.8-3.33,4.55.55,6.56-1.49,6.27-6.52-.13-2.31-.14-4.81-3.63-2.36-1.97,1.39-3.45,1.11-3.14-1.92.13-1.3-.2-2.64-.24-3.96-.06-2.03.15-4.19-2.79-4.34-3.05-.16-2.98,1.98-2.91,4.05.06,1.68-1.01,2.4-2.34,2.78-1.59.45-1.86-.95-2.42-1.92-1.31-2.3-2.64-4.6-5.63-5.92h-.01Zm85.45,15.38c-4.74,2.84-8.49,4.92-12.02,7.32-1.1.75-3.8,1.84-2.03,3.58,1.54,1.52,4.55,4.26,6.11,2.74,3.49-3.4,7.19-7.18,7.93-13.64h.01Zm-116.68-7.62c-2.1,3-1.37,4.44.73,6.43-.26-2.32-.44-3.88-.73-6.43Zm6.91,9.64c-.83-.34-.99.16-1.09.63-.26,1.17.5,1.85,1.37,2.31.49.26.89-.22.99-.73.25-1.19-.59-1.75-1.27-2.21Z"/>
  <path class="cls-1" d="m157.96,238.12c2.96-7.11,6.23-14.25,6.83-21.92.38-4.8.7-9.65,1.04-14.48.15-2.06.44-3.58,2.86-1.7,1.79,1.39,2.91.72,4.58-.7,2.68-2.28,4.53-5.28,7.21-7.51,6.24-5.19,13.03-8.34,21.41-6.13,1.77.47,3.2.29,4.76-1.45,3.07-3.42,6.61-6.46,10.19-9.36,2.66-2.15,5.71-2.18,8.58-.05,1.63,1.21,2.95,1.68,4.64-.27,8.41-9.67,19.55-15.63,30.44-21.9,2.15-1.24,4.3-2.96,6.62-3.3,6.17-.93,7.92-5.42,9.79-10.31,6.42-16.77,15.84-31.66,29.22-43.74,3.84-3.46,7.13-7.36,10.78-10.95,4.29-4.22,4.51-10.05,5.78-15.37,1.15-4.84,2.67-8.34,8.29-9.61,4.33-.98,8.5-2.91,13.03-2.25,7,1.01,12.34-2.63,17.9-5.81,5.17-2.95,13.37-1.63,17.33,2.59.83.88,1.17,1.74.63,2.58-.77,1.22-1.95.19-2.57-.2-6.62-4.14-12.5-2.37-18.24,1.92-4.12,3.08-8.84,4.34-14,4.14-4.63-.18-9.15-.05-13.64,1.84-2.79,1.18-4.72,2.66-5.02,5.48-1.33,12.5-9.19,20.97-17.42,29.4-7.37,7.56-15.17,14.97-20.36,24.23-3.6,6.42-6.01,13.55-9.08,20.32-1.18,2.61-3.11,4.7-4.11,7.34-.17.44-.63,1.14-.9,1.11-7.31-.78-11.45,5.1-16.7,8.3-7.04,4.28-14.2,8.51-20.59,13.82-1.33,1.11-3.41,1.69-1.36,4.16,1.58,1.9,2.56,2.38,4.91.96,10.69-6.47,22.76-9.55,34.51-13.27,10.31-3.26,18.39-9.81,25.93-16.86,3.05-2.86,3.97-8.15,5.5-12.46,3.71-10.52,8.69-20.37,14.64-29.78,2.47-3.91,4.69-7.97,7.03-11.96.57-.98.95-2.22,2.51-1.93l.25.21c-1.43,8.14-5.24,15.31-9.71,22.03-4.18,6.3-5.77,13.75-10.6,20,2.13.26,3.02-.53,3.72-1.4,7.44-9.13,17.85-14.07,27.68-19.85,6.4-3.76,11.81-8.96,17.9-13.11,4.79-3.26,3.43-6.84,3.04-11.03-.66-7.04,1.7-14.56,10.7-14.15,1.66.08,3.5-.39,4.96.17,6.21,2.41,10.84-1.04,15.45-4.04,5.45-3.55,11.4-4.2,17.59-3.88,1.44.08,2.87.74,4.24,1.3,1.25.51,2.59,1.32,2.08,2.92-.59,1.88-2.17.94-3.34.68-8.61-1.94-16.7-.17-23.63,4.81-4.23,3.04-8.36,2.98-12.62,1.98-7.81-1.83-13.26,2.03-11.62,10.97.44,2.42.13,4.98.16,7.47.02,1.21-.34,2.14-1.36,3-12.35,10.43-25.84,19.24-39.25,28.23-7.36,4.94-13.81,11.2-19.58,18.2-9.88,11.98-21.56,21.14-37.31,25.24-9.72,2.54-19.69,5.55-28.5,10.96-1.39.85-2.62,1.98-3.92,2.98-.12.16-.24.31-.36.46-1.18,2.03-2.9,3.23-4.59.99-2.52-3.32-5.71-1.76-7.54-.44-7.19,5.18-14.91,4.13-22.45,2.25-8.95-2.24-15.3,1.61-21.06,7.45-1.51,1.52-2.68,3.85-4.57,4.47-5.31,1.73-4.58,4.94-3.25,9,3.1,9.46,2.34,19.11,1.14,28.82-.65,5.23-.87,10.44-2.7,15.5-.95,2.62,1.68,2.69,3.31,2.78,5.15.29,10.3-.41,15.26-1.52,2.84-.64,5.6-.35,8.37-.73,5.96-.81,10.45-4.66,15.6-7.13.57-.28,1.4-.78,1.46-1.26.66-5.72,4.98-8.46,9.07-11.41,2.44-1.75,2.57-5.33,5.67-7.21.23,2.97-1.14,4.98-1.7,7.45,1.85-2.43,3.7-4.86,5.56-7.28-.46,7.51-5.7,11.25-11.01,15.22,9.83-3.59,19.72-6.75,31.04-5.39-2.17,2.45-4.46,2.76-6.42,3.02-13.39,1.74-24.78,8.6-36.66,14.15-5.32,2.48-10.56,4.49-16.59,4.54-4.1.03-8.17,1.58-12.29,1.79-8.79.46-17.24-2.77-25.99-2.78-3.17,0-4.34-4.43-8.65-2.8-2.81,1.06-6.71-.92-10.15-1.25-1.57-.15-2.87-.68-4.19-1.35-2.44-1.25-4.81-1.25-7.5-.48-6.42,1.84-12.07,1.69-16.55-4.87-3.86-5.65-10.89-7.99-15.94-12.57-2.11-1.91-4.38-3.62-5.5-6.3-2.2-5.25-4.73-10.15-10.05-13.03-1.43-.77-1.69-2.33-1.1-4.33,6.81,2.37,11.73,6.65,14.32,13.25,1.22,3.11,3.09,5.68,5.69,7.34,4.29,2.72,7.71,6.63,12.43,8.75,1.62.73,3.22,1.74,4.33,3.28,4.28,5.95,6.9,6.57,14.1,3.96,3.65-1.33,6.58-4.26,10.68-4.88-.08,2.46-2.59,3.19-3.03,5.45.59.18,1.18.35,1.75.54,14.04,4.65,17.58,2.6,20.81-12.07l-.06.04.03-.03Zm10.56-26.59c-.75,3.2-.25,5.82-.88,8.48-2.64,11.03-7.09,21.37-11.66,31.67-.44.99-1.8,2.1-.93,3,2.05,2.13,4.96,1.58,7.52,1.39,1.88-.14,4.05.56,5.38-2.31,1.96-4.25,1.85-8.71,2.34-13.07,1.07-9.55,3.52-19.25-1.76-29.17h-.01Zm66.87-28.27c-.95-2.5-2.3-3.44-3.81-2.87-3.7,1.38-6.25.21-8.58-2.72-1.42-1.79-3.65-1.32-4.55.35-1.74,3.21-4.58,5.51-6.85,8.72,8.44,1.12,14.67-7.65,23.79-3.48h0Z"/>
  <path class="cls-1" d="m237.27,186.73c6.3.64,12.8,7.47,13.79,14.84.23,1.73.29,2.91,2.09,3.95,3.58,2.08,4.58,5.86,5,9.7.2,1.81.15,3.41,1.61,4.97,2.33,2.48,3.85,2.74,7.34,1.1,13.03-6.1,21.65-17.35,31.48-26.87,8.18-7.92,15.73-16.81,23.1-25.66,2.7-3.24,6.63-4.78,9.28-8.13,10.46-13.21,19.95-27.18,31.15-39.8,11.85-13.35,23-27.42,37.45-38.21,4.35-3.25,9.13-5.91,14.21-7.97,1.41-.57,3.09-1.48,3.99.21,1.1,2.06-.76,2.74-2.31,3.53-12.81,6.52-23.3,15.63-32.91,26.43-11.1,12.47-21.87,25.23-32.9,37.75-2.49,2.83-4.65,6.03-6.56,9.29-6.67,11.4-16.97,19.46-26.43,28.12-7.38,6.75-13.86,14.3-21.1,21.13-9.07,8.55-16.91,18.62-28.71,23.89-1.56.69-1.73,1.83-1.64,3.21.15,2.46-.97,4.53-2.26,6.43-.58.85-1.7,1.8-2.95,1.19-1.27-.61-1.39-1.77-.69-2.96,2.44-4.16.52-6.71-3.16-8.64-2.3-1.2-2.81-3.41-2.22-5.51,1.31-4.65-.69-7.66-4.38-9.85-2.77-1.65-3.61-3.39-2.97-6.85.9-4.91-2.52-8.3-6.29-10.87-1.59-1.08-2.82-2.16-3.37-3.98.12-.15.24-.31.36-.46v.02Z"/>
  <path class="cls-1" d="m330.91,93.02c-.09-5.66,4.89-7.7,8.19-10.53,6.22-5.33,12.58-10.39,18.33-16.32,4.74-4.89,11.61-6.58,18.18-8.22.86-.22,2.11-.2,2.33,1.18.15.94-.5,1.63-1.25,1.96-3.35,1.42-6.39,3.72-9.72,4.82-3.87,1.28-6.29,3.62-9.06,6.31-8.15,7.92-16.35,15.89-26.75,21.01l-.25-.21h0Z"/>
  <path class="cls-1" d="m128.35,2.83c2.15,7.48-.38,14.93,1.15,22.18-.71.56-1.98.55-2.49-.2-2.56-3.73-4.59-1.58-6.4.56-2.99,3.53-6.27,6.95-8.54,10.92-3.47,6.07-2.63,12.71-.52,19.07,1.17,3.52,3.02,6.81,4.62,10.33-1.71.27-2.59-.49-3.15-1.48-4.2-7.46-7.1-15.28-6.2-24.05.13-1.29.26-2.82,1-3.78,4.61-6.04,8.36-12.98,15.57-16.49,1.5-.73,1.28-1.66,1.39-2.73.34-3.23.74-6.46.98-9.7.13-1.71.54-3.17,2.59-4.63h0Z"/>
  <path class="cls-1" d="m246.74,237.4c-3.27-10.06-7.44-18.39-13.14-25.92-.67-.89-1.11-1.75-.16-2.58.98-.85,1.87-.14,2.61.52s1.6,1.32,2.02,2.17c1.66,3.36,3.04,6.68,7.9,3.8,1.23-.73,3.5-.06,4.16,1.75.65,1.78-.92,2.61-2.26,3.3-2.8,1.45-2.97,3.43-1.72,6.17,1.37,3,3.12,6.14.59,10.78h0Z"/>
  <path class="cls-1" d="m130.56.75c3.25,2.2,2.39,4.57,2.56,6.57.22,2.64.25,5.33.03,7.97-.28,3.29,1.1,4.27,4.07,3.42,3.43-.98,6,.14,8.45,3.17-4.15.83-7.76-1.75-11.53-.2,2.21,1.82,5.17.61,7.38,2.08.66.44,1.65.53,1.3,1.68-.25.81-1,.72-1.62.8-2.76.36-5.52-.56-8.36.37-1.67.55-1.73-1.29-2.06-2.59-1.93-7.49.19-14.9-.21-23.28h-.01Z"/>
  <path class="cls-1" d="m202.13,236.14c8.59-4.87,15.26-10.87,20.82-18.6.48,6.95-13.43,18.36-20.82,18.6Z"/>
  <path class="cls-1" d="m34.77,187.74c-.76-.91-1.85-.18-2.71-.53-.41-.16-.95-.5-1.03-.84-.15-.68.19-1.21.99-1.41,1.59-.42,3.16-.9,4.72-1.39,1.57-.49,3.18-.31,4.01,1.03,1.07,1.73-.73,2.58-1.73,3.59-.47.47-1.08.83-1.43,1.36-.84,1.31-1.27,3.6-3.48,2.24-2.51-1.54.89-2.58.67-4.05h0Z"/>
  <path class="cls-1" d="m186.47,234.05c4.84.86,7.46-1.65,9.56-4.93.9-1.4,2.15-1.33,3.49-1.17.72.08,1.24.48,1.22,1.27-.02.56-.36.88-.95.85-2.96-.15-3.53,2.68-4.95,4.25-2.82,3.12-4.34,3.35-8.37-.27h0Z"/>
  <path class="cls-1" d="m130.71,238.1c-5.28,1.64-10.19,1.06-14.39-2.94,4.8.98,9.59,1.96,14.39,2.94Z"/>
  <path class="cls-1" d="m158.01,238.07c-2.71-1.92-2.42-4.88-3.22-8.5,3.02,2.87,3.89,5.44,3.17,8.54l.06-.04h0Z"/>
  <path class="cls-1" d="m158.07,58.15c-.63-1.1-.73-2.45-.12-3.36,4.82-7.14,1.61-14.14-.2-21.18-.33-1.27-.82-2.5-1.09-3.78-.19-.9-2.22-1.88-.15-2.73,1.35-.55,2.05.75,2.72,1.68,3.65,5.02,3.68,10.99,4.57,16.79.7,4.55-1.5,7.95-3.66,11.42-.36.58-1.43.73-2.17,1.08l.1.08h0Z"/>
  <path class="cls-1" d="m166.06,63.91c1.31,3.89,6.18,3.02,8.35,6.44,1.96,3.1-.65,4.65-1.58,6.55-1.12,2.3-2.95,2.42-4.07-.45-1.3-3.33-2.57-6.68-4.14-9.88-.77-1.58-.16-2.02,1.44-2.66Z"/>
  <path class="cls-1" d="m136.84,74.32c-1.87-.87-3.55-1.28-5.1,1.35-.84,1.43-2.88,0-3.65-1.18-.98-1.49,2.97-7.68,4.82-7.79,1.34-.08,2.05.48,2.3,1.97.64,3.81,2.17,2.99,3.86.59.09-.13.22-.25.36-.35,1.52-1.12,2.14-3.56,4.6-3.26.69.08,1.25.84.99,1.49-.9,2.25-1.14,5.01-3.64,6.2-1.29.62-2.86.64-4.54.99h0Z"/>
  <path class="cls-1" d="m151.63,70.47c-.2.49-.34.96-.58,1.39-2.33,4.17-4.71,8.31-7,12.5-.69,1.27-1.45,2.37-3.04,1.85-1.83-.6-1.36-2.2-.81-3.3,2.3-4.65,3.13-10.13,7.65-13.57,1.97-1.5,2.92-.64,3.77,1.13h0Z"/>
  <path class="cls-1" d="m69.55,170.88c1.67-1.86-5.4-4.78.7-5.6,1.9-.26,2.85,2.82,2.93,5.03.06,1.66-.74,2.96-2.54,2.95-2.02,0-1.98-1.1-1.1-2.38h.01Z"/>
  <path class="cls-1" d="m150.49,32.09c4.6,4.81,6.06,10.53,5,17"/>
  <path class="cls-1" d="m229.99,230.09c-1.17,2.33-2.33,4.67-3.5,7"/>
  <path class="cls-1" d="m308.49,184.59c-9.7,13.77-23.16,23.84-35.04,35.46-.68.66-1.96.71-2.96,1.04"/>
  <path class="cls-1" d="m265.49,223.59l-1.5,1.5"/>
  <path class="cls-1" d="m332.49,90.59c-.5.83-1,1.67-1.5,2.5"/>
  <path class="cls-1" d="m59.49,136.59c1.15.47,1.5-1.09,2.5-1"/>
  <path class="cls-1" d="m69.49,140.59c.83-1.01,1.67-.39,2.5,0"/>
  <path class="cls-1" d="m80.49,144.59c1.83.67,3.67,1.33,5.5,2"/>
  <path class="cls-1" d="m86.49,146.59c1.74.54,2.27,2.1,3,3.5"/>
  <path class="cls-1" d="m94.49,157.59c.33.5.67,1,1,1.5"/>
  <path class="cls-1" d="m95.49,162.59c-.33.83-.67,1.67-1,2.5"/>
  <path class="cls-1" d="m319.49,83.59c-.33.5-.67,1-1,1.5"/>
  <path class="cls-1" d="m221.49,174.59c-1.69.97-3.92,1.02-5,3"/>
  <path class="cls-1" d="m124.99,21.09c-1,.17-2,.33-3,.5"/>
  <path class="cls-1" d="m114.49,30.59l-2,2"/>
  <path class="cls-1" d="m108.49,48.59c1.16,6.38,3.06,12.4,8,17"/>
  <path class="cls-1" d="m154.49,250.59l6-13.5"/>
  <path class="cls-1" d="m163.49,228.59c.67-1.83,1.33-3.67,2-5.5"/>
  <path class="cls-1" d="m238.49,215.59c.33.5.67,1,1,1.5"/>
  <path class="cls-1" d="m166.49,216.59c1.04-1.17.41-2.33,0-3.5"/>
  <path class="cls-1" d="m169.99,17.09c9.68,2.76,17,8.2,20.5,18"/>
  <path class="cls-1" d="m188.49,55.59c-1.33,1.67-2.67,3.33-4,5"/>
  <path class="cls-1" d="m162.49,58.59h1.5"/>
  <path class="cls-1" d="m176.49,90.59c1.5,2.17-.4,3.72-1,5.5"/>
  <path class="cls-1" d="m56.49,133.59c-1.5-.81-3-.61-4.5,0"/>
  <path class="cls-1" d="m47.49,189.59c-1.52-2.11-1.5-4.56-1.5-7"/>
  <path class="cls-1" d="m131.49,1.59c.66,3.5.73,7,0,10.5"/>
  <path class="cls-1" d="m131.49,15.59c1.24.83,0,1.67,0,2.5"/>
  <path class="cls-1" d="m145.49,21.59c-4.03-1.65-8.2-2.09-12.5-1.5"/>
  <path class="cls-1" d="m144.49,113.59c.73,3.24.95,6.75,4.5,8.5"/>
  <path class="cls-1" d="m116.49,235.59c4.84,1.79,9.75,3.27,15,3"/>
  <path class="cls-1" d="m329.99,93.59c.36,1.79-1.44,2.85-1.5,4.5"/>
  <path class="cls-1" d="m303.49,149.59c-.67.67-1.33,1.33-2,2"/>
  <path class="cls-1" d="m177.49,25.59c-2.67-1-5.33-2-8-3"/>
  <path class="cls-1" d="m161.49,17.59c-4.26-1.65-7.16,1.45-10.5,3"/>
  <path class="cls-1" d="m147.49,24.59l-2,2"/>
  <path class="cls-1" d="m145.49,27.09c-1.33,3-2.67,6-4,9"/>
  <path class="cls-1" d="m140.49,39.59c-2.55,1.43.63,3.9-1,5.5"/>
  <path class="cls-1" d="m143.49,57.59c2.03,4.45,4.74,8.15,10,9"/>
  <path class="cls-1" d="m200.49,230.59c-1.87-3.19-3.22-1.75-4.5.5-2.18,3.82-5.26,5.25-9.5,3.5"/>
  <path class="cls-1" d="m223.49,217.59c-4.78,8.79-12.26,14.59-21,19"/>
  <path class="cls-1" d="m235.49,229.59c-2.41,1.8-3.05,4.88-5.03,6.97-1.02,1.08-1.91,2.98-3.97,1.53"/>
  <path class="cls-1" d="m155.49,27.59c1.39.37,2.53,1.03,3,2.5"/>
  <path class="cls-1" d="m162.49,43.59c-1.24.83,0,1.67,0,2.5"/>
  <path class="cls-1" d="m161.49,51.59c-.33.5-.67,1-1,1.5"/>
  <path class="cls-1" d="m160.49,53.59c-.67,1-1.33,2-2,3"/>
  <path class="cls-1" d="m16.49,180.59c2.44,1.47,4.33-.66,6.5-1"/>
  <path class="cls-1" d="m133.49,180.59c.5.33,1,.67,1.5,1"/>
  <path class="cls-1" d="m159.49,61.59c-2.25,1.5,0,3,0,4.5"/>
  <path class="cls-1" d="m138.49,144.59c-.5.33-1,.67-1.5,1"/>
  <path class="cls-1" d="m126.49,94.59c1.04-1.17.41-2.33,0-3.5"/>
  <path class="cls-1" d="m7.49,160.59c-1.26.83-1.59,2.19-2,3.5"/>
  <path class="cls-1" d="m253.49,239.09c-2.17.5-4.33,1-6.5,1.5"/>
  <path class="cls-1" d="m41.49,172.59c-.67.83-1.33,1.67-2,2.5"/>
  <path class="cls-1" d="m73.49,208.09c-1.18.06-2.41-.21-3.5.5"/>
  <path class="cls-1" d="m28.49,202.59c-.5-.33-1-.67-1.5-1"/>
  <path class="cls-1" d="m245.49,229.59c1.02,2.23,2.2,4.45,1,7"/>
  <path class="cls-1" d="m394.49,73.59c-.5.33-1,.67-1.5,1"/>
  <path class="cls-1" d="m365.49,85.59c-1.96,1.83-.93,3.67,0,5.5"/>
  <path class="cls-1" d="m42.49,205.59h-1.5"/>
  <path class="cls-1" d="m133.49,209.59c-1.2,1.67-2.4,3.34-4.5,4"/>
  <path class="cls-1" d="m112.49,220.59c-.5.33-1,.67-1.5,1"/>
  <path class="cls-1" d="m74.49,190.59c1.4-1-.38-2,0-3"/>
  <path class="cls-1" d="m358.49,104.59c-.5.33-1,.67-1.5,1"/>
  <path class="cls-1" d="m67.49,166.59c2.49-.1,4.1,1,4.48,3.5.28,1.89-1.02,2.11-2.48,2"/>
  <path class="cls-1" d="m124.49,190.59c1,2.17,2,4.33,3,6.5"/>
  <path class="cls-1" d="m216.99,242.59c-.04,1.57.23,2.96,2,3.5"/>
  <path class="cls-1" d="m155.49,230.59c.83,2.5,1.67,5,2.5,7.5"/>
  <path class="cls-1" d="m235.49,180.59l1.5,1.5"/>
  <path class="cls-1" d="m138.49,244.59l-4.5,3"/>
  <path class="cls-1" d="m132.99,71.09c2.15.36,4.05,3.97,6.5.5"/>
  <path class="cls-1" d="m124.99,26.09c-.71.44-.94,1.52-2,1.5"/>
  <path class="cls-1" d="m123.49,59.59c.83.33,1.67.67,2.5,1"/>
  <path class="cls-1" d="m165.99,66.09c.44.71,1.52.94,1.5,2"/>
  <path class="cls-1" d="m126.49,21.59c.69,1.31,1.14,2.86,3,3"/>
  <path class="cls-1" d="m39.49,185.59c-2.4.86-2.86,3.46-4.5,5"/>
  <path class="cls-1" d="m238.49,188.09c-.5-.33-1-.67-1.5-1"/>
</svg>