<?xml version="1.0" encoding="UTF-8"?>
<svg id="Layer_1" data-name="Layer 1" xmlns="http://www.w3.org/2000/svg" viewBox="0 0 1000 1000">
  <defs>
    <style>
      .cls-1 {
        fill: #fff;
      }

      .cls-2 {
        fill: #e42a1d;
        stroke: #fff;
        stroke-miterlimit: 10;
        stroke-width: 3px;
      }
    </style>
  </defs>
  <rect class="cls-1" width="1000" height="1000"/>
  <g>
    <path class="cls-2" d="m926.82,408.85c3.06.78,5.01,1.49,7.02,1.76,9,1.22,12.74,6.4,11.02,15.44-1.93,10.16-6.97,13.8-15.92,12.15-13.04-2.4-26.14-4.45-39.43-6.69.06,4.17,2.27,6.63,3.64,9.37,3.88,7.78,8.37,15.87,8.16,24.37-.27,10.64,4.77,16.32,12.4,22.28,16.7,13.02,28.69,30.52,40.45,47.71,6.93,10.14,6.55,23.55-9.26,27.78-6.53,1.75-12.56,5.18-19.59,5.36-8.28.2-15.44-2.15-21.47-7.92-9.44-9.04-20.02-16.01-33.29-17.99-.25-.04-.49-.18-.74-.25-22.03-6.03-23.93-9.41-16.03-30.82,2.21-5.98,1.5-9.83-4.47-12.78-5.13-2.53-9.9-5.78-16.31-9.59,1.16,10.98-3.97,19.36-6.41,28.49-1.14,4.26-.64,7.81,1.07,11.96,3.15,7.65,4.16,15.4-1.5,23.05-2.49,3.37-3.63,8.18-4.16,12.49-1.99,16.22-9.85,29.64-19.25,42.41-7.32,9.95-13.02,11.66-24.36,6.78-3.96-1.7-5.83-2.07-6.6,3.08-1.87,12.66-8.01,24.36-8.38,37.43-.2,7.07,1.16,13.34,5.54,19.11,10.05,13.24,12.43,27.65,7.24,43.75-2.3,7.14-1.48,15.28,2.13,21.97,8.46,15.69,9.72,29.2-5.82,42.06-8.51,7.05-15.9,15.8-22.36,25.19-4.37,6.36-14.04,5.02-19.54-2.22-3.64-4.79-6.92-9.8-12.18-13.64-1.39,3.06-6.66,6.08,1.95,7.65,6.55,1.2,9.37,9.36,5.99,16.91-2.14,4.78-.54,7.36,1.46,11.75,4.39,9.59,7.8,20.06,7.56,30.86-.12,5.64-2.57,11.22-5.54,16.21-3.03,5.08-4.63,10.43-4.69,16.37-.02,2.56-.41,7.06-1.52,7.36-10.4,2.78-15.57,15.87-27.86,14.21-3.23-.44-5.23-.23-7.37,2.38-4.01,4.88-9.37,6.46-15.56,4.91-9.21-2.31-18.27-2.84-27.81-.75-7.47,1.64-15.15.47-20.72-6.35-1.95-2.38-4.69-3.97-7.61-5.35-4.18-1.97-7.26-5.26-7.26-10.34,0-2.85-1.2-4.88-3.16-6.85-1.85-1.86-4.19-5.1-2.79-6.89,5.95-7.59-2.74-16.01,1.95-23.44,1.92-3.05,5.21-3.19,8.98-4.41-6.01-5.16-6.67-10.27-.32-15.26,1.62-1.28.6-2.67-.48-3.99-1.82-2.22-3.39-4.64-5.18-6.88-1.77-2.2-4.58-4.08-2.43-7.4,2.33-3.59,5.98-4.22,9.73-3.12,3,.87,5.78,2.38,9.02,2.49,2.37.08,5.01.31,5.14,3.55s-2.52,3.56-4.85,4c-1.79.34-3.6.54-6.15.9,6,6.12,4.87,11.95.15,18.04,1.57-1.62,8.03,7.45,5.26-2.91-.73-2.72,1.6-4.27,3.9-5.12,1.13-.41,2.85-.78,3.66-.23,2.31,1.59.75,3.74.2,5.67-.35,1.23-.74,2.45-1.32,4.37,5.64.43,7.91-3.61,10.62-6.83,1.56-1.85,3.3-4,5.8-2.56,2.95,1.7,1.74,4.43.67,6.93-2.17,5.06-6.11,8.39-11.69,11.35,7.81,4.12,12.02-1.17,15.38-5.1,3.42-4,6.29-7.53,12-7.3,4.05.16,4.11-4.43,6.71-5.9,4.97-2.82.5-5.44-.39-7.5-3.27-7.55-5.3-15.27-5.71-23.5-.35-6.99-3.7-10.13-11.21-9.48-7.45.64-14.83.87-22.53-1.08-7.12-1.8-1.64,5.6-4.35,7.88,1.24.45,1.73.82,2.15.75,3.08-.53,7.21-3.74,8.61,1.22,1.07,3.79-3.02,5.62-6.15,7.05-9.23,4.21-15.11.53-14.91-9.42.09-4.71.46-9.42.95-14.1.57-5.36,3.75-7.25,8.82-5.77,4.77,1.38,9.54,2.81,14.2,4.54,3.32,1.23,6.05.9,6.67-2.75.67-3.95-3.78-4.05-5.35-3.72-10.5,2.14-19.71-.23-28.01-6.69-2.14-1.66-3.31.36-4.81.98-22.79,9.45-45.64,10.91-68.29-.1-4.14-2.01-6.85-1.88-10.5.73-16.92,12.12-34.96,21.91-55.53,26.61-11.32,2.58-22.41,2.31-33.33-1.12-6.04-1.89-11.17-1.35-16.13,2.41-13.54,10.28-28.45,12.71-45.24,10.05-12.15-1.92-24.24-3.91-36.26-6.46-3.85-.82-8.36-.65-9.1-5.72-.74-5.07,3.34-6.52,7.12-7.93.93-.35,1.83-.81,3.57-1.58-4.45-1.05-8.07-1.67-11.53-2.79-6.3-2.03-9.46-6.35-8.5-13.15.73-5.19,4.02-7.65,8.87-6.12,11.12,3.5,22.14,2.04,33.22.73,0-.88.19-1.49-.03-1.86-2.22-3.69-6.54-7.11-3.23-11.89,3.49-5.04,8.85-3.34,13.72-2.43,13.66,2.53,24.83,10.89,37.39,16.02,7.4,3.02,14.3,3.18,21.87-.18,26.67-11.86,51.53-26.88,75.29-43.57,12.08-8.48,24.65-12.01,38.99-11.42,17.06.7,33.85-2.25,50.77-3.37,0-.81,0-1.62.01-2.43-6.73,0-13.49-.32-20.2.06-17.76,1.02-35-1.23-51.73-7.28-1.44-.52-2.98-1.76-4.45-.77-7.73,5.23-16.99,4.85-25.49,7.23-5.14,1.44-9.63,3.81-11.89,9.3-1.43,3.49-4.44,5.21-8.32,4.18s-5.05-4.17-5.45-7.78c-.52-4.76.72-9.25,2.81-15.05-6.77,0-12.72-.07-18.67.02-7.42.1-9.41-1.94-8.13-9.06.24-1.32.91-2.42-.31-3.44-5.19-4.33-2.98-8.04.83-11.79,3.76-3.68,9.97-5.52,8.72-13.01-.32-1.89,3.14-3.29,5.72-2.87,3.35.54,6.89.79,9.96,2.07,9.48,3.96,18.88,2.32,28.45.64,10.29-1.81,20.24-1.57,29.21,5.24,4.04,3.07,9.18.97,13.75.77,24.08-1.07,48.16-1.41,72.24-.51,5,.19,10.1.78,14.19,3.92,3.35,2.57,4.1.83,5.25-1.98,4.36-10.65,9.35-21.06,13.25-31.87,7.15-19.78,4.66-39.74-.78-59.38-4.42-15.94-1.67-31.48,1.05-47.14.13-.76.33-1.84.87-2.15,11.86-6.99,10.4-20.65,15.18-31.07,14.26-31.11,33.04-59.4,51.95-87.68,1.3-1.94,2.62-3.87,4.55-6.71-6.48-.63-12.27-1.49-18.08-1.67-5.56-.17-10.84-1.72-16.25-2.45-7.18-.97-8.57-4.93-8.33-11.24.4-10.63,4.5-14.69,14.82-13.79,6.24.54,12.51.88,18.72,1.66,3.34.42,4.7-1.86,6.37-3.73,51.64-57.91,107.8-111.51,160.59-168.28,25.92-27.88,52.04-55.32,81.1-79.85,16.24-13.71,32.13-27.75,47.17-42.75,11.61-11.58,25.18-20.46,39.06-28.94,2.38-1.45,5.13-3.93,7.49-.49,2.07,3.01-.94,4.74-2.85,6.34-17.95,15.05-33.33,32.58-48.82,50.04-20.73,23.37-45.19,42.95-67.03,65.26-21.28,21.74-40.36,45.43-61.92,66.89-29.69,29.56-59.09,59.37-90.38,87.32-17.68,15.78-34.51,32.75-50.55,51.34,7.5,2.06,12.83,3.36,18.19-4.17,7.26-10.19,18.39-16.22,30.48-19.68,9.07-2.6,14.3.28,18.02,9.04.51,1.2.91,2.46,1.48,3.64,2.49,5.14,4.74,8.16,10.47,2.34,7.89-8.01,17.11-13.88,29.49-10.89,6.39,1.55,10.66,5.45,13.68,10.89,3.05,5.48,6.7,10.9,8.35,16.83,2.23,7.99,7.49,10.26,14.62,11.28,8.03,1.14,16.04,2.53,23.98,4.2,4.65.98,7.49-.12,10.55-4.08,19.19-24.89,36.9-50.92,57.54-74.69,11.22-12.92,23.54-24.6,38.03-33.84,2.31-1.47,4.91-4.29,7.65-1.5,2.83,2.88-.14,5.4-1.87,7.42-18.59,21.67-35.84,44.42-53.55,66.79-11.35,14.33-23.16,28.29-35.3,43.07l-.03-.06Zm3.94,116.57c-.38-.73-.75-1.46-1.13-2.18-4.84-1.89-7.75-6.1-10.92-9.74-8.65-9.92-20.86-16.28-27.7-27.9-.09.09-.18.18-.27.28.17-.05.34-.1.51-.15-.8,10.01,7.45,14.29,13.17,19.8,7.42,7.15,14.71,14.84,25.22,17.7-.72,1.47-.4,2.22,1.36,1.97-.42,1.04,0,1.74.92,2.23.32.75.64,1.5.95,2.25,1.02.11,2.04.21,3.07.32.25.9.19.99-.28.14-.94-.14-1.88-.27-2.79-.44.2-1.01.67-2.17-1.14-2.07-.32-.74-.64-1.48-.99-2.2h.02Zm-228.56,214.24c-.13-.28-.26-.55-.39-.83-.02.17-.12.44-.06.48.18.12.41.15.63.21,0,8.08,1.51,16.07.17,24.25-2.39,14.61-11.8,23.5-26.28,23.93-5.23.16-10.46.39-15.69.64-1.47.07-3.37-.32-3.45,2.03-.06,1.58.97,2.3,2.45,2.44,11.27,1.07,13.32,9.38,14.43,18.39.57,4.61.9,9.28,4.56,15.15-.44-6.04-1.12-9.98.11-13.77,1.74-5.35,5.5-9.18,11.11-7.2,6.9,2.44,8.85-.04,10.86-6.19,2.39-7.31,5.02-16.12,12.52-18.94,6.01-2.26,8.11-5.75,9.82-10.71,3.47-10.02,3.53-20.51,4.75-32.16-8.79,5.65-17.13,4.91-25.55,2.28h.01Zm-320.94,31.47c.2-.81.14-1.32-.86-.74.34.2.68.4,1.02.6,2.33,7.44.42,10.49-7.35,11.52-4.25.56-8.52.99-13.76,1.6,5.9,1.29,10.76,2.25,15.56,3.46,1.67.42,3.89.71,4.19,2.98.32,2.47-1.95,2.65-3.51,3.49-.91.49-2.6-.15-2.67,1.73-.21,6-.5,6.39-5.85,6.73-2.78.17-5.58.03-8.37.03,7.63,3.23,15.56,2.82,23.23,4.17,11.96,2.1,22.89-.16,32.39-8.1,6.4-5.35,13.25-7.4,21.73-4.74,15.89,4.97,31.07,2.32,46.7-3.4,15.64-5.72,28.26-15.69,41.81-24.45,4.1-2.65,7.68-3.86,12.37-1.97,19.66,7.91,39.5,5.31,59.27.49,8.7-2.12,9.59-4.11,6.19-12.7-2.78-7.05-6.53-13.89-6.28-21.68.16-5.03-2.22-4.78-5.78-4.23-16.04,2.48-32.11,4.84-48.42,4.52-7.97-.16-14.65,2.89-20.96,7.58-9.9,7.36-20.6,13.5-32.07,18.06-18.94,7.53-37.68,15.56-55.17,25.97-8.68,5.17-15.9,5.15-24.89.99-9.3-4.31-17.51-11.62-28.52-11.9h0Zm561.98-222.07c-13.36-6.33-22.99-14.45-33.12-21.81-11.81-8.59-23.9-17.34-29.9-31.33-4.72-11.02-8.53-22.4-16.29-31.86-4.97-6.06-10.94-11.69-14.33-18.57-6.81-13.85-17.31-24.06-28.69-33.84-10.3-8.85-20.83-17.47-29.42-28.21-2.71-3.39-1.09-10.74-7.29-10.22-4.39.37-8.54,3.68-12.77,5.74-1.88.92-3.7,1.97-5.5,3.04-2.63,1.56-6.07,2.57-5.63,6.64.4,3.69,3.62,4.15,6.32,4.87,3.56.95,5.55,2.75,4.87,6.69-3.7,21.25,4.94,37.25,22.96,47.2,20.64,11.4,39.68,25.32,60.41,36.51,7.67,4.14,14.25,9.79,19.44,16.86,1.67,2.28,3.29,4.86,1.61,7.97-1.6,2.97-4.08,3.99-7.24,3.08-2.75-.79-3.49.53-4.35,2.88-3.57,9.72-2.59,12.5,7.46,13.8,16.83,2.17,30.8,9.52,42.81,21.14,4.13,3.99,9.02,5.15,14.49,3.68,3.96-1.07,7.87-2.36,14.14-4.26h.02Zm-211.57-28.53c7.51,1.23,13.85-1.64,18.45-8.89,2.44-3.84,6.16-6.92,10.9-6.84,5.73.09,6.29-3.32,7.46-7.66,5.02-18.72-3.68-36.55-3.12-54.96.28-9.36-6.39-17.1-6.8-26.4-.14-3.21.92-7.47-4.49-7.17-5.06.28-10.47-4.71-15.06,2.74-16.73,27.17-32.92,54.63-47.69,82.91-3.27,6.26-9.06,10.85-11.37,17.73-.85,2.52-2.2,5.16-.58,7.5,1.84,2.65,4.77,1.18,7.26.76,5.44-.91,11.49-2.68,16.03.78,6.02,4.58,11.38,3.89,17.35.93,3.43-1.7,7.14-1.33,11.65-1.43h0Zm-254.84,171.96c5.89,0,10.06.02,14.22,0,2.5-.02,5.67.51,5.96,2.81.9,6.94,5.08,4.6,8.96,3.93,5.44-.94,10.87-1.74,15.13-5.82,2.02-1.93,3.95-1.58,6.24.12,6.37,4.71,13.92,5.96,21.57,6.17,13.1.37,26.21.33,39.32.56,6.82.12,13.78.22,19.7,4.14,3.74,2.47,4.15.21,5.24-2.49,2.03-5.04-.96-9.88-.28-14.74.96-6.89-2.66-7.56-8.19-7.49-22.28.28-44.56.47-66.74,3.06-2.72.32-6.3,1.87-8.09-1.09-5.72-9.48-14.4-6.76-22.45-5.65-8.74,1.21-17.17,4.91-27.39,2.04,1.61,1.93,2.98,2.82,3.06,3.81.35,4.38,8.13,3.35,6.5,7.36-1.89,4.68-7.7-.07-12.77,3.29h.01Zm302.97-236.65c4.94,12.4,5.53,25.01,3.4,37.82-1.12,6.74-3.68,13.86,6.32,16.25.66.16,1.42.92,1.69,1.58,3.61,9.13,9.92,7.02,17.13,5.01,4.4-1.23,5.89-2.57,5.99-7.09.12-5.16,1.42-10.3,2.24-15.44,2.15-13.44.19-17.76-11.87-23.96-8.37-4.3-16.81-8.42-24.9-14.16h0Zm108.86,24.69c.98-14.17-5.01-26.25-11.48-38.22-11.03-20.41-23.67-39.99-31.5-62.05-2.45-6.9-8.1-7.76-14.14-5.21-3.55,1.5-6.61,4.14-9.96,6.16-5.63,3.39-4.32,5.74.15,9.66,12.32,10.82,26.8,20.08,34.58,34.82,7.93,15.02,18.14,28.65,25.38,44.02,1.87,3.96,3.69,8,6.98,10.83h-.01Zm-91.75,108.09c-12.56,4.35-15.82,4.69-19.45-.4-4.45-6.24-8.43-5.37-13.68-1.48-5.93,4.4-12.24,5.57-18.74.64-5.12-3.88-9.49-2.5-13.69,2.05-12.8,13.89-28.09,13.56-40.13-1.11-5.83-7.11-12.49-12.6-21.41-14.99-2.03-.54-4.81-2.96-6.27-.44-1.55,2.68.3,4.85,2.87,7.04,9.88,8.42,21.33,14.69,30.22,24.6,8.41,9.38,18.24,8.33,27.24-.65,2.22-2.21,4.2-4.7,6.6-6.68,3.48-2.87,8.16-4.43,11.48-1.19,5.68,5.54,10.04,2.93,15.19-.33,4.86-3.08,10.16-3.94,15.45-.51,11.74,7.61,15.57,6.66,24.32-6.58v.03Zm-166.85,268.83c-3.7.62-6.74-1.76-7.84,2.18-.23.83.36,2.68.82,2.77,3.04.57,4.31-1.89,7.01-4.95h.01Zm47.85-16.72c.84,2.02,1.6,4.05,4.22,3.02.62-.25,1.36-2.01,1.07-2.48-1.38-2.22-3.33-1.06-5.29-.54h0Zm-324.5-54.93l.42.28.06-.42-.48.15h0Z"/>
    <path class="cls-2" d="m221.19,358.27c.6.45.85.78,1.01.74,10.88-2.78,20.82.79,30.92,4.12,3.09,1.02,7.76-.59,9.64,2.2,5.65,8.34,14.2,12.32,22.35,17.26,4.11,2.49,6.18,7.8,4.82,12.54-1.6,5.59.29,9.87,2.25,14.71,3.61,8.9,1.2,18.26-5.97,24.22-2.11,1.76-3.3,3.08-3.47,6.15-.32,5.74-5.15,8-9.82,10.06-7.98,3.53-7.49,4.8-2.84,11.69,16.93,25.09,35.25,49.53,43.05,79.56,1.14,4.41,2.73,7.2,7.58,8.63,7.92,2.34,14.21,7.82,20.1,13.41,6.93,6.58,14.72,11.69,23.28,15.79,9.6,4.61,16.17,13.92,25.14,18.44,8.57,4.32,19.75,2.75,29.58,5.74,13.09,3.97,18.49,14.57,24.2,25.18,1.23,2.29.82,5.02-1.19,6.44-3.04,2.15-6.49,1.69-9.53-.5-3.47-2.5-6.29-6.54-11.72-4.78,2.87,3.57,5.68,6.98,8.39,10.45,3.62,4.64,2.42,8.85-3.2,9.21-13.71.86-27.25-.37-39.98-6.18-1.39-.63-3.07-1.61-3.66-2.87-8.42-17.89-26.68-21.6-42.23-28.69-16.66-7.6-32.89-15.97-49.19-24.23-4.88-2.47-8.49-5.86-9.05-11.86-.35-3.82-3.02-6.51-5.87-8.98-11.98-10.36-21.08-22.85-29.88-36.08-8.32-12.5-19.03-24.32-37.34-22.51-7.21.71-14.85.22-21.91-1.4-11.36-2.6-20.36,3.02-30.09,6.53-2.63.95-1.62,2.98-1.5,4.58.98,13.05,2.86,26.08-.15,39.11-.64,2.78,1.38,4.44,2.92,6.08,14.95,15.89,22.45,35,25.02,56.41.82,6.87,6.96,10.27,11.35,14.51,5.1,4.93,10.04,9.93,14.6,15.36,6.11,7.28,13.17,13.23,22.1,17.17,18.11,8,28.09,22.73,32.53,41.61.44,1.86.81,3.68-.82,5.09-1.77,1.54-3.45.66-4.91-.59-2.56-2.19-6.11-3.05-8.87-4.14-3.88-1.53-7.82,3.09-10.14,6.38-6.92,9.83-7.24,10.53-15.3,1.42-6.94-7.84-14.67-13.52-24.43-17.29-11.24-4.34-17.75-12.67-17.18-25.42.12-2.61-.33-4.54-2.99-6.51-20.39-15.08-37.07-33.15-50.22-55.34-13.59-22.93-26.48-45.64-31.04-72.24-2.38-13.92-5.79-27.71-5.65-41.96.03-3.24-.42-5.25-4.18-6.12-8.81-2.05-11.37-9.08-10.92-16.84,1.01-17.23-2.86-34.2-1.77-51.47.64-10.23-.47-20.53,5.94-29.41,2.04-2.83.01-4.23-1.38-6.02-9.46-12.17-15.13-26.23-20.06-40.63-1.36-3.98-1.57-8.16-1.3-12.41,1.07-16.73.77-33.79,5.54-49.88,5.25-17.7,6.21-36.39,13.62-53.56,4.23-9.8,10.24-16.7,21.31-16.67,4.99.02,5.25-4.33,8.08-6.21,24.83-16.49,49.36-33.45,74.02-50.19,9.75-6.62,19.68-12.97,29.45-19.57,6.53-4.41,12.47-4.85,18.11,1.53,2.06,2.33,4.75,3.82,7.77,5.08,5.26,2.19,8.1,1.14,11.31-3.81,8.01-12.34,18.38-13.74,29.79-4.75,33.95,26.76,67.69,53.78,101.83,80.3,20.47,15.9,41.53,31.03,62.28,46.55,2.3,1.72,4.27,3.86,6.5,5.68,4.4,3.6,5.6,8.25,3.89,13.4-1.79,5.39-5.69,8.8-11.58,9.17-4.37.27-7.43.7-8.26,6.51-.88,6.07-7.99,8.21-15.59,4.74-16.91-7.73-34.56-7.13-52.38-5.71-4.7.38-9.42.95-14.12.87-15.64-.28-25.72-15.56-19.22-29.72,1.88-4.1.81-5.52-2.26-7.34-12.82-7.6-25.34-15.77-38.53-22.67-6.29-3.29-14.08-3.33-20.62-6.8-2.31-1.22-4.09.2-4.2,2.89-.4,10.73-6.98,18.42-13.14,26.17-3.03,3.81-4.24,7.1-2.53,11.98,3.96,11.29-.83,22.66-.62,34.04.04,2.23-1.86,5.33-3.8,6.63-10.04,6.69-10.9,17.77-14.23,27.78-2.04,6.12-4.53,12.16-9.46,17.24h.02Zm105.88-155.83c.46-1.04.57-2.03-.37-2.88-1.62-1.1-2.75-3.17-5.21-2.62-4.9-7.61-13.36-11.16-19.76-17.14-11.41-10.65-23.96-20.08-35.98-30.08-4.35-3.62-5.26,1.19-7.12,2.96-3.06,2.92.14,3.9,2.09,4.78,12.25,5.54,22.67,13.85,33.39,21.73,8.78,6.46,17.84,12.5,27.49,17.61,1.08,2.27,2.54,3.73,5.25,2.61.08,1.01.16,2.03.24,3.04.11-.16.22-.32.33-.48.04.28.07.57.11.85-.16-.12-.32-.24-.46-.38h0Zm-101.3,500.91c-.53-1.31-1.49-1.2-2.55-.79.04-1.54.07-3.08.09-4.61-1.09-.16-1.6-.78-1.53-1.88-4.58-2.97-7.39-6.56-5.58-12.55.39-1.3-2.13-3.3.07-4.79,2.27-1.53,3.94.42,5.58,1.54,1.5,1.03,2.66,2.54,4.14,3.59,1.72,1.23,2.66,4.44,5.68,2.69,1.07-.62,2.74-1.97,2.59-2.64-.55-2.42-2.73-3.52-4.95-4.41-11.14-4.48-20.73-11.14-28.27-20.53-5.26-6.55-10.98-12.53-17.54-17.86-5.86-4.76-11.98-9.86-13.48-17.83-3.76-19.93-11.54-37.86-24.82-53.34-3.66-4.27-4.66-9.43-2.81-14.75,1.85-5.33,1.4-10.83,2.02-16.26,2.54-22.44-5.65-43.91-5.67-66.11,0-3.38-17.76-11.25-20.92-9.53-.41.22-.85.75-.91,1.18-1.19,8.93-6.56,15.09-13.22,20.52-1.35,1.1-.15,2.96-.15,4.47-.03,11.57,2.14,22.86,3.9,34.25,6.63,42.73,23.28,80.65,53.44,112.03,7.94,8.26,16.95,15.5,25.55,23.12,3.45,3.06,5.92,6.38,6.14,11.28.63,14.21,13.83,25.82,29.2,25.97-.64,1.63.13,2.03,1.59,1.84-.03,1.52-.05,3.05-.05,4.54l2.69.65.09.34s-.31-.12-.33-.11v-.02Zm139.61-473.15c.05-.11.1-.23.15-.34-.13.04-.26.07-.39.11.45.79.9,1.58,1.36,2.37,15.86,13.93,33.54,25.7,48.45,40.73,3.76,3.79,6.68,3.65,10.45.02-13.25-9.72-25.72-19.62-38.07-29.71-5.93-4.84-12.32-10.34-20.83-11.03-.24-.8.2-1.97-1.13-2.15h.01Zm-247.06-9.54c1.96.82,2.21,1.02,2.44,1,.77-.09,1.59-.13,2.29-.42,11.77-4.96,21.97-3.24,30.05,7.14,1.14,1.46,2.39,1.79,4.05,1.68,10.11-.64,15.65,4.4,17.48,14.09,1.04,5.5,6.56,4.44,9.94,5.89,3.22,1.39,3.33-3.29,3.91-5.4,3.27-11.82,10.6-21.51,16.37-32,5.72-10.4,15.02-16.46,25.54-21.08,2.19-.96,4.13-1.68,4.7,1.5,1.74,9.68,9.46,13.14,17.09,16.81,9.42,4.53,19.99,6.3,28.85,12.18,3.68,2.44,4.15-.53,3.92-2.9-.67-6.93,2.24-12.12,7.9-16.52-21.13-15.79-41.56-31.45-64.59-43.59-7.47-3.94-11.16-2.13-16.64,2.35-18.4,15.05-36.2,30.92-57.82,41.63-11.41,5.65-22.07,12.8-35.49,17.66v-.02Zm125.37,267.63c12.75-13.66,12.67-13.62,7.37-25.34-.8-1.78-1.94-2.87-3.18-4.18-3.84-4.08-2.18-6.48,2.76-7.3,2.05-.34,4.21.02,6.26-.35,2.48-.44,4.01-2.23,5.04-4.49,1.35-2.95-1.66-3.2-2.72-4.71-4.34-6.17-12.1-10.26-11.71-19.36.12-2.82-2.32-2.24-4.04-2.25-3.42-.02-6.88.17-9.8-2.04-1.47-1.11-2.48-1.29-3.92.24-6.41,6.84-12.85,5.41-19.11-.53-.73,1.43-1.31,2.6-1.91,3.75-3.11,6-4.34,14.14-14.98,9.21-2.99-1.38-7.3,2.12-5.66,7.5.76,2.49,4.8,4.28,1.97,7.53-2.51,2.88-4.98-2.16-7.68-.49,3.2,9.62,1.68,16.37-6.37,17.86-11.41,2.1-9.31,8.16-7.11,15.42.76,2.49.95,5.16,1.8,7.62.67,1.93-1.14,6.62,3.41,4.83,2.76-1.08,8.97-.24,6.81-6.88-1.65-5.07-.7-9.94,2.3-14.2,1.85-2.62,4.09-6.91,7.53-5.35,3.54,1.61.83,5.71-.03,8.46-1.83,5.82-2.26,10.85,4.42,13.83,8.35,3.73,16.6,7.7,25.05,11.19,3.72,1.54,7.72,3.28,12.15,1.25-.87-3.74-3.02-6.56-5.25-9.45-2.8-3.63-1.4-7.58,2.75-7.28,4.86.34,11.46-1.91,13.83,5.51h.02Zm171.92,128.05c-7.37-4.04-15.01-6.2-23.24-5.67-2.81.18-5.49.35-8.09-1.81-23.63-19.59-49.63-35.6-76.75-49.83-4.7-2.46-8.23-5.48-9.62-10.66-5.73-21.3-17.84-39.46-28.53-58.33-2.13-3.76-3.54-4.71-6.21-.46-4.45,7.08-8.35,14.56-14.04,20.78-1.45,1.58-.99,2.51.12,3.91,10.7,13.46,18.66,29.14,33.27,39.39,6.95,4.88,12.54,11.15,13.97,20.09.51,3.21,2.78,4.88,5.45,6.22,6.77,3.4,13.58,6.72,20.27,10.28,14.12,7.51,29.67,11.57,44.07,18.41,9.51,4.52,18.45,9.15,23.63,19.41,4.27,8.45,9.63,9.92,20.99,8.29-4.74-2.85-9.13-5.1-12.66-8.59-3.23-3.2-2.31-6.83-1.13-10.25,1.13-3.27,4.35-2.26,6.83-2.15,3.9.17,7.79.63,11.68.96h-.01Zm-18.08-335.8c-1.48-1.35-2.85-2.83-4.45-4.02-27.63-20.64-53.27-43.91-82.68-62.23-4.72-2.94-6.94-.55-8.94,2.29-3.61,5.12-1.97,11.3,3.84,14.07,11.35,5.42,21.95,12.13,32.53,18.81,10.2,6.45,11.79,13.8,6.14,23.9-1.21,2.16-2.33,3.9-.69,6.42,1.84,2.83,4.3,3.65,7.39,3.16,15.33-2.42,30.73-2.41,46.85-2.4h0Zm-198.75-13.6c8.68-3.93,15.9-3.69,23.29,1.71,2.64,1.93,8.13.59,12.08-.3,1.19-.27,1.83-4.01,2.28-6.25.64-3.15,3.14-4.74,5.12-6.71,5.2-5.16,10.28-10.36,13.55-17.06,3.75-7.67,3.08-9.83-4.68-13.19-6.23-2.69-12.77-5.01-17.75-9.73-3.69-3.51-5.46-1.97-7.78,1.26-5.93,8.25-10.08,17.54-16.32,25.69-5.06,6.61-8.87,14.51-9.81,24.58h.02Zm21.37,68.32c2.7.21,5.54-.35,6.51-3.72.56-1.96-1.18-3.14-2.75-2.81-6.99,1.47-11.02-2.63-15.57-6.92-3.76-3.55-8.34-4.6-11.13,1.98-1.72,4.06-4.53,7.28-9.48,6.81-5.29-.5-9.41-2.84-11.18-8.33-.8-2.48-1.94-4.85-2.98-7.25-.76-1.75-2.11-3.81-3.93-3.21-7.43,2.46-14.89-.94-22.19.41-11.57,2.14-22.9,1.01-34.19-1.53-7.42-1.67-12.65-5.67-14.73-13.44-1.35-5.04-3.56-9.82-6.8-14.04-3.27-4.28-7.62-6.17-12.9-6.23-1.84-.02-3.95-.25-4.36,2.18-.34,2.01.66,3.74,2.78,4.07,5.54.87,7.5,5.44,9.65,9.48,3.54,6.69,6.4,13.74,9.84,20.5,7.36,14.48,17.61,18.9,32.97,14.2,5.23-1.6,10.43-3.46,15.42-5.71,9.82-4.44,12.39-3.55,20.36,3.7,7.23,6.58,13.66,15.21,26.1,12.2,5.83-1.41,9.22-7.17,13.44-7.73,4.23-.56,8.88,5.62,15.14,5.4h-.02Zm-4.59,23.17c-12.98-5.42-25.57-1.69-35.04,8.45-7.77,8.32-18.85,14.13-19.11,27.6,0,.37-.72.72-1.07,1.1-8.99,9.8-9.63,13.88-3.1,24.71,1.77,2.94,2.48,5.03.71,8.43-2.92,5.6-1.89,11.74-.27,17.63.45,1.66.99,3.94,3.47,3.36,1.85-.44,3.6-2.26,3.27-3.95-1.24-6.26,1.29-12.82-.03-18.46-2.42-10.35.39-17.53,5.4-26.79,5.31-9.82,9.77-17.81,18.94-25.4,8.07-6.67,15.13-13.49,26.83-16.67h0Zm15.64,337.82c-.42.25-.77.46-1.11.67.44.53.79,1.26,1.35,1.54.52.26,1.57.15,1.31-.81-.15-.57-1.02-.95-1.55-1.39h0Zm193.43-75.39c-.24-.41-.44-.82-.73-1.15-.1-.11-.64-.02-.65.04-.07.4-.05.81-.06,1.22.47-.04.95-.07,1.44-.11h0Z"/>
    <path class="cls-2" d="m231.92,454.92c-.97-7.45-9.44-10.86-18.5-7.37-1.36.53-2.55,1.51-4.51,2.7-.81-5.15,1.74-7.81,5.28-8.41,6.86-1.17,13.89-1.43,20.72.68,5.33,1.65,7.88,8.9,4.65,13.46-3.43,4.84-5.5.49-7.9-1.37l.27.31h-.01Z"/>
    <path class="cls-2" d="m231.65,454.61c1.86,6.41-1.35,8.31-7.16,8.58-6.93.32-6.02-5.53-7.19-9.21-.81-2.54,1.85-3.64,4.54-4.01,4.62-.63,6.94,2.89,10.08,4.96l-.27-.31h0Z"/>
  </g>
</svg>