<?xml version="1.0" encoding="UTF-8"?>
<svg id="Layer_1" data-name="Layer 1" xmlns="http://www.w3.org/2000/svg" viewBox="0 0 562 200">
  <defs>
    <style>
      .cls-1 {
        fill: #fff;
        stroke: #fff;
        stroke-miterlimit: 10;
      }
    </style>
  </defs>
  <path class="cls-1" d="m536-13c.77,2.27.33,4.19-1.47,5.88-1.82,1.71-3.54,3.53-5.27,5.33-1.35,1.4-2.95,2.52-2.47,5.04.39,2.02-1.69,3.1-2.92,4.38-10.42,10.78-20.87,21.52-31.31,32.28-.57.59-1.11,1.21-2.32,2.53,4.08-.84,6.93.18,9.38,2.46,1.09,1.01,2.46.8,3.79.44,1.96-.53,3.97-.35,5.96-.35,4.31,0,7.14,2.12,9.1,5.87,1.29,2.46,1.72,5.38,3.63,7.42,2.07-.27,2.49-1.89,3.31-3.06,11.61-16.68,23.19-33.37,34.78-50.06.47-.68.92-1.4,1.48-2,.61-.66,1.43-.86,2.27-.43.63.33,1.01.93.83,1.64-.81,3.31-.51,6.67-2.67,9.9-10.75,16.06-22.1,31.7-33.11,47.58-3.41,4.91-3.44,5.27-.21,10.14,2.7,4.08,5.89,7.56,10.21,10.05,3.75,2.16,7.32,4.69,10.31,7.84,2.76,2.9,5.81,4.93,9.97,4.93,1.55,0,3.12.34,3.53,2.13.39,1.7-.79,2.85-1.96,3.77-2.34,1.84-4.98,2.49-7.97,1.76-1.55-.38-2.98-1.58-5.46-.71,3.51,5.16,9.1,8.29,11.92,13.65-1.06,2.33-3.15,2.54-5.1,2.4-4.79-.34-9.28-1.74-12.21-5.84-1.8-2.51-3.94-3.92-6.97-4.18-1.15-.1-2.26-.54-3.41-.77-2.73-.55-4.06-2.21-3.81-4.96.62-6.79-2.41-11.71-7.35-16.08-4.31-3.82-9.38-6.98-12.01-12.53-.7-1.48-2.24-1.32-3.17.16-.52.83-.85,1.8-1.2,2.74-2.5,6.61-5.98,12.61-10.66,17.94-2.19,2.49-4.41,4.99-5.62,8.19-.28.75-.78,1.7-1.43,1.99-4.37,1.95-6.41,5.96-9.05,9.55-2.51,3.41-6.12,5.53-10.2,6.89-6.16,2.06-12.63,3.1-18.63,5.67-1.77.75-3.61.14-5.76.17-1.88,4.73-5.5,7.72-10.22,9.48-1.65.61-2.66,1.95-3.52,3.4-2.69,4.54-6.82,7.18-11.7,8.82-4.26,1.44-8.55,2.8-12.74,4.42-3.32,1.29-6.21,3.31-7.7,6.74-1.36,3.13-.62,4.72,2.74,5.19,5.11.71,8.08,3.49,9.34,8.39.45,1.76,1.2,3.45,1.71,5.2,1.82,6.27-.55,12.6-6.1,15.99-2.55,1.56-5.26,2.87-7.9,4.29-.15.08-.29.2-.45.21-4.62.35-9.26,1.14-13.84.85-2.58-.17-4.49-2.69-5.47-5.34-.4-1.09-.84-2.21-.95-3.35-.39-4.03-2.43-6.79-6.05-8.51-1.36-.65-3.12-1.54-2.86-3.13.83-5.16-1.63-8.56-5.36-11.5-1.3-1.02-.7-2.86-1.75-4.32-3.53-.65-7.1.38-10.63.98-11.81,2.01-23.61,4.09-35.51,5.47-1.76.2-3.09,1.07-4.55,1.87-7.52,4.14-15.47,6.94-24.11,7.64-2.21.18-4.16.09-4.86-2.29-.63-2.14.95-3.44,2.55-4.4,1.41-.85,3-1.41,4.92-2.28-.65-1.49-3.28-1.97-2.66-4.07.63-2.12,2.74-2.16,4.46-2.8-.6-1.22-1.74-.64-2.54-.99-1.12-.48-2.25-.98-2.29-2.34-.05-1.69,1.28-2.16,2.64-2.48,7.29-1.71,14.39-4.21,21.89-5,6.39-.67,12.33-2.8,18.01-5.67,12.61-6.37,26.07-10.03,39.83-12.82,2.48-.5,4.98-.5,7.47-.43,2.98.08,5.05-.85,6.32-3.73,1-2.27,2.51-4.31,3.71-6.5,3.27-5.98,8.27-9.94,14.55-12.31,7.48-2.82,14.85-6.25,22.59-7.96,7-1.55,11.89-5.2,16.47-10.19,3.73-4.06,8.23-7.26,13.02-10.02.58-.33,1.4-.55,1.67-1.05,2.9-5.51,7.34-10.23,8.96-16.35.62-2.34,1.28-4.41,2.92-6.16,9.34-9.96,18.59-20,28.03-29.86,12.44-12.99,25.04-25.84,37.56-38.75,1.15-1.19,2.48-2.27,2.63-4.11h3Zm-151.99,176.02c-1.76.21-3.2-.76-4.77-1.25-4.8-1.52-10.79.19-14.1,4.35,6.13-.27,5.7,5.31,8.09,8.43-4.01,3.75-4.06,3.83.54,7.05,1.88,1.32,3.09,2.83,3.6,5.11.39,1.75,1.21,3.43,2.01,5.06,1.3,2.66,3.74,3.78,6.77,3.06,1.19-.28,2.35-.4,3.43.02,3.51,1.37,6.45.64,9.08-2.02.67-.67,1.71-1,2.61-1.41,4.89-2.24,6.7-5.93,5.99-11.11-.4-2.88-1.66-5.35-2.73-7.92-1.83-4.43-3.42-5.25-8.68-4.67.13,2.6-.62,4.86-3.21,6.11-.78.38-1.32,1.06-1.4,1.94-.36,3.66-3.49,5.94-4.57,9.3-.66,2.06-2.55,2.25-4.29,1-.36-1.89.46-3.25,1.48-4.27,2.28-2.28,2.48-4.5.63-7.1-.87-1.22-1.67-2.69-.29-4.06,1.26-1.26,2.43-.3,3.55.44,1,.67,1.96.48,2.6-.46.81-1.2.23-2.22-.73-3.05-.9-.78-1.89-1.31-3.16-1.23-2.55.16-2.41-1.69-2.48-3.38,1.83-.27,3.53.42,5.3.65,2.49.32,3.05-1.02,2.6-3.49-3.06.23-6.47-1.45-7.87,2.89Zm58-57.05c2.17,2.67,4.31,5.36,5.42,8.71-.33-5.56-1.06-6.67-5.46-8.66-.65-.58-1.43-.77-2.28-.86-6.74-.7-13.23.36-19.5,2.85-5.4,2.14-10.64,4.64-16.43,5.75-3.18.61-6.14,2.2-9.7,4.61,3.76.55,6.55,1.29,7.5,4.37.91,2.95-1.71,5.05-2.51,7.87,3.7-1.08,7.02-2.11,10.36-3.02,3.55-.96,7.15-1.08,9.58,2.15,2.4,3.18.53,6.37-.95,9.35-.89,1.79-2.05,3.45-3.37,5.64,4.11-1.03,6.81-2.75,8.89-5.56,2.7-3.64,5.9-6.59,10.24-8.45,5.15-2.22,8.3-10.32,6.45-15.26-1.36-3.64-3.35-4.28-8.09-2.58-3.23,1.16-3.36,1.36-1.88,5.71.7,2.05,1.1,4.13-.89,5.4-2.58,1.66-5.46,2.84-8.84,1.29,1.49-3.24,5.54-1.89,6.93-4.45,0-.48.1-.85-.01-1.13-2.64-6.6-2.09-7.67,4.97-9.67,3.36-.95,6.71-1.94,9.56-4.08Zm-153.75,68.71c5.39-.9,9.63-2.23,13.68-4.14,4.73-2.23,9.08-5.76,14.89-4.16.28.08.64-.13.96-.24,6.35-2.16,13.03-2.61,19.57-3.78,14.24-2.55,28.54-5.01,42.93-6.13,11.58-.9,21.37-4.57,29.34-12.9,3.04-3.18,6.09-6.51,6.17-11.14-1.85-1.52-3.6-1.34-5.19-1.05-6.48,1.19-12.37,3.82-17.69,7.69-.4.29-.88.64-1.02,1.07-1.03,3.25-3.66,3.92-6.59,4.39-11.81,1.88-23.52,4.31-35.37,6.05-12.93,1.9-24.82,7.49-36.58,12.96-4.66,2.17-9.27,3.57-14.31,3.72-3.34.1-6.8-.34-7.77,4.26-.2.97-1.47,1.72-3.03,3.41Zm200.46-81.72c6.04-7.15,9.96-14.42,13.06-22.15,1.05-2.63,2.11-5.25,3.7-7.6.72-1.06,1.45-2.33,3.13-1.78,1.41,3.54,4.96,5.37,8.47,4.39,1.46-.41,2.61-1.44,2.07-2.87-1.52-4.03-3.3-7.96-5.1-11.88-.41-.91-1.48-1.46-2.46-1.57-3.92-.41-7.66-.99-11.45,1.58-4.57,3.1-8.19,7.3-12.82,10.24-6.33,4.02-10.38,10.14-14.85,15.87-.58.74-1.18,1.64-.68,3.5,6.79,1.49,12.43,5.63,16.92,12.27Zm-36.42,14.37c1.45-2.48,3.66-2.46,5.51-2.74,6.2-.93,10-5.03,13.17-9.81,3.06-4.62,2.17-6.4-3.15-7.5-5.13-1.06-10.18,1.57-15.31.31-.25-.06-.62.22-.88.42-5.03,3.89-9.73,8.11-14.12,13.33,9.77.06,14.5,6.62,14.37,19.48,4.07-.07,7.6-2.18,11.41-2.94,6.87-1.37,11.75-5.17,14.52-11.66.85-1.99,1.7-3.92,4.5-3.98,1.73-.04,2.34-1.67,2.56-3.24.48-3.31,0-6.32-2.86-8.52-.38-.29-.74-.63-1.33-.41-.55,1.08,1.02,2.65-.9,3.59-1.4.59-2.41-1.57-4.12-.9-1.07,1.75-2.14,3.62-3.32,5.42-3,4.58-7.05,7.97-12.07,10.1-2.61,1.11-5.4,1.75-7.98-.96Zm101.6,6.49c-1.89-2.52-3.45-3.95-5.2-5.19-1.65-1.17-3.21-2.42-4.07-4.29-4.05-8.8-10.95-15.83-15.16-24.54-1.35-2.8-3.22-5.35-5.12-8.45-3.17,4.86-7.4,2.35-11.24,1.84-.02,1.72,1.05,2.08,1.78,2.7,3.67,3.11,7.41,6.15,10.99,9.36,3.9,3.49,6.08,7.98,6.03,13.2-.03,3.37,1.32,4.96,4.48,5.27,3.92.38,6.84,2.19,8.89,5.6,1.64,2.73,4.22,4.08,8.62,4.48Zm-56.43-65.96c-3.11-2.85-5.19-.72-7.23.79-8.99,6.65-16.98,14.41-24.69,22.46-2.03,2.12-4.03,4.31-5.13,7.14,4.46,2.03,5.96,1.77,8.5-2.88,4.27-7.81,10.54-13.64,17.41-18.98,3.63-2.82,7.3-5.59,11.14-8.53Zm-160.08,100.45c12.9-1.09,25.22-5.2,38.01-6.83,2.07-.26,2.98-1.85,1.67-4.01-13.92,1.4-26.9,5.73-39.68,10.85Zm47.05-8.85c4.01-5.52,10.37-9.06,13.41-15.69-6.2-.99-12.11,5.96-13.41,15.69Zm172.72-41.62c-5.24-.89-8.86-4.08-12.46-7.45-1.65-1.54-3.57-3.12-6.78-3.73,1.43,2.05,2.49,3.31,3.27,4.73,2.03,3.75,4.04,7.29,9.36,6.16.96-.2,2.13.77,3.25,1.04,1.02.24,2.17.91,3.36-.76Zm-255.76,61.32c5.63,5.05,8.55-.24,12.22-1.61-3.88-.02-7.69.32-12.22,1.61Z"/>
  <path class="cls-1" d="m222.3,173c.79,1.09,1.68.84,2.4.79,7.13-.5,14.25-1.15,21.38.13,2.02.36,3.92-.41,5.69-1.48,5.56-3.36,11.3-6.43,16.44-10.44,1.01-.79,1.99-2.08,3.48-1.23,1.82,1.03,1.45,2.77,1.15,4.45-1.2,6.61-4.99,11.64-10.3,15.32-4.8,3.33-9.99,6.19-16.32,3.91-1.99-.72-3.94.36-5.86.81-9.92,2.34-19.96,3.53-30.14,4-9.5.44-18.08-2.15-26.29-6.56-6.75-3.62-13.36-7.51-20.61-10.13-5.66-2.04-11.44-2.13-17.2-.93-10.76,2.24-24.94-4.18-29.33-14.27-2.55-5.85-6.36-9.04-12.47-10.05-6.26-1.04-12.22-2.71-17.5-6.69-3.6-2.71-8.46-2.88-12.71-4.32-3.67-1.25-6.47-3.38-8.1-6.92-.88-1.91-1.28-3.91.23-5.65,2.22-2.56.87-4.95-.75-6.67-5.19-5.48-8.39-12.43-13.58-17.89-1.84-1.93-2.88-4.5-3.86-6.97-4.75-12.04-12.18-22.53-19.2-33.25-1.71-2.62-4.17-4.75-6.24-7.13-4.03-4.63-8.55-8.84-11.74-14.22-1.42-2.39-3.94-4.03-6.15-5.8-1.52-1.22-3.34-2.27-3.55-4.51,3.43-2.98,6.21-3.63,9.87-1.29,5.08,3.26,10.24,6.08,16.16,7.62,3.54.92,4.89,4.08,4.45,7.49-.32,2.47.52,4.01,1.97,5.79,5.79,7.09,11.56,14.18,18.76,19.97,3.28,2.63,5.32,6.36,8.13,10.57.96-6.88-.14-12.85-1.24-18.7-2.34-12.44-4.83-24.87-11.42-35.99-.77-1.3-1.52-2.74-.16-4.1,1.23-1.23,2.77-.95,4.23-.5,2.01.62,3.39,2.09,4.51,3.77,2.73,4.1,6.1,7.37,10.68,9.48,3.4,1.57,4.64,3.73,3.46,7.33-3.26,9.92-.21,18.61,4.13,27.32,3.74,7.51,6.81,15.25,4.81,23.98-.62,2.7,1.23,4.27,3.39,4.77,5.76,1.35,11.22,4.44,17.46,3.27,1.51-.28,2.99,0,4.39.64.91.42,1.88.9,2.87.45,3.46-1.57,6.31-.41,9.35,1.45,2.78,1.7,4.65,3.78,6.47,6.54,4.39,6.65,9.11,13.08,13.09,20,.32.55.9,1.01,1.47,1.33,5.86,3.39,12.11,5.2,18.96,4.62,2.29-.2,3.69-1.02,4.05-3.49.42-2.93,2.27-4.25,5.14-5.32,3.03-1.12,5.58-3.5,9.03-3.93,4.33-.53,8.38-.57,10.72,4.08.84,1.67,2.47,2,4.15,2.37,8.17,1.8,11.41,7.17,9.03,15.02-.74,2.44-1.26,4.83-.67,7.36.32,1.37.33,2.61-.81,3.67-2.03,1.9-1.12,3.12.98,4.06,3.65,1.64,7.24,3.33,11.45,1.79,1.52-.56,3.37-.92,4.91-.61,9.5,1.9,18.45-1.57,27.65-2.51,9.48-.97,17.21-5.81,24.99-10.64,1.6-.99,3.32-3.16,5.26-1.32,2,1.91.63,4.42-.89,5.75-4.72,4.13-6.64,10.74-12.73,13.68-2.89,1.39-5.65,2.71-8.9,2.92-9.7.61-18.73,3.88-27.95,6.98Zm-30.37-23.06c-2.68.63-4.94-.53-7.55-2.51-.14,5.08,1,9.72-3.06,13.27,3.8,2.09,6.79.09,9.84-.58.6-.13,1.22-1.1.92-1.57-1.8-2.86,1.18-5.68-.02-8.48,1.89-.04,2.78-.86,2.17-2.82-.63-2.04.5-4.91-2.64-5.77-1.44-.39-2.63-.15-2.96,1.9,2.22,1.51,3.42,3.73,3.3,6.57Zm-72.94-15.93c1-.49,2.06-.65,2.5.57.51,1.39.69,2.9,1.03,4.35,1.06,4.53,1.06,4.63,5.92,4.82,2.5.1,4.11,1.05,4.89,3.42.4,1.22.85,2.43,1.48,4.21,3-3.99,6.88-5.5,11.4-5.78,2.91-.18,3.8-2.07,3.74-4.83-.07-2.94-1.8-3.61-4.22-3.76-2.15-.14-4.5.15-6.24-1.34-2.51-2.16-5.33-3.19-8.54-3.75-2.91-.52-3.11-1.66-.98-3.9.45-.47,1.12-.73,1.21-1.96-1.82-3.1-3.8-6.56-5.86-9.97-2.93-4.84-7.33-6.78-12.93-7.14-6.29-.41-11.77,3.02-18.06,2.78.15,3.15,1.43,5.43,2.72,7.77,1.38,2.5,4.86,2,6.27,4.4-1.23,1.76-2.86,1.56-4.16,1-4.87-2.09-5.77-7.31-8.19-11.49-4.89,3.34-6.06,9.34-10.79,12.36.7-8.56,5.46-14.71,12.53-19.97-3.36-1.24-6.17-.77-8.91-.57-4.61.34-5.5,1.16-5.81,5.68-.19,2.75-.93,4.82-3.77,5.79-1.07.37-2.04,1.12-2.78,2.61,3.34,3.77.27,5.91-2.7,7.87.82,2.86,3.06,3.86,5.18,4.64,7.63,2.82,15.27,5.67,23.04,8.07,5.88,1.82,11.9,3.19,17.74,5.17,2.66.91,5.17,1.92,3.73,5.63-.46,1.17.15,2.29.78,3.29,2.59,4.19,5.68,8.05,10.41,9.69,4.77,1.65,9.41,5.28,14.99,2.08.69-.39,1.93.17,2.91.31,1.64.24,3.32.84,4.92.68,7.66-.79,14.47,1.7,21.01,5.22,5.13,2.76,10.42,5.18,15.44,8.19,5.76,3.46,12.03,5.97,18.92,5.43,11.46-.89,22.81-2.61,34-5.3,2.61-.63,5.22-1.01,7.86.06,1.75.71,3.58.69,5.37-.04,6.27-2.57,9.52-8.09,13.22-13.23-5.08,2.59-9.84,5.55-14.61,8.49-2.44,1.5-4.96,2.71-7.95,2.57-13.94-.63-27.97,1.27-41.85-1.82-3.14-.7-6-1.46-8.77-3.14-12.12-7.36-24.71-13.75-38.47-17.54-2.28-.63-4.37-1.66-5.77-3.7-1.35-1.97-3.29-2.12-5.34-1.7-2.49.51-4.74,1.62-6.55,3.43-2.4,2.4-2.4,4.31-.08,6.86.96,1.05,2.59,1.75,1.61,3.94-3.2.82-5.15-1.21-6.85-3.47-1.67-2.21-1.96-4.93-2.17-7.59-.42-5.43-.38-5.51-5.54-6.17-1.98-.25-3.66-.85-4.44-2.71-1.4-3.36-3.17-6.67-2.45-10.53l-.02.02Zm-38.02-33.55c-1.05-1.58-2.81-2.27-4.35-3.2-8.39-5.09-15.45-11.45-20.6-19.95-3.29-5.43-7.61-10.11-12.86-13.81-1.52-1.07-2.68-2.45-3.7-4.01-2.19-3.36-4.84-6.39-7.77-9.1-2.67-2.48-5.43-4.78-7.67-7.76-2.07-2.77-5.19-4.32-9.98-4.36,2.51,2.61,4.28,4.56,6.16,6.39,11.97,11.65,21.4,25.3,28.08,40.39,4.37,9.86,11.75,17.27,17.09,26.22.93,1.56,2.32,3.08,4.5,2.35,2.12-.71,3.97-1.83,3.93-4.52-.05-3.66,1.95-5.85,5.16-7.19.75-.31,1.61-.5,1.99-1.44Zm114.63,38.71c.23-6.07-1.24-7.94-6.51-8.13-3.11-.11-5.45-.68-6.51-4.11-.67-2.18-2.85-2.8-4.95-2.46-2.93.48-5.85.77-8.7,2.01-2.89,1.26-4.68,2.7-5.05,6.01-.29,2.58-1.81,4.58-4.53,5.45-5.11,1.63-5.14,1.67-5.2,7-.01,1.31-.75,2.6-.07,4.12,1.81,1.57,4.08,2.33,6.71,2.68.69-1.32-.6-2.9.81-3.87,1.93.05,3,2.02,5.34,2.32.11-.17.35-.59.62-1.01,2.12-3.24,3.28-3.37,5.06-.08,1.12,2.08,2.61,3.72,4.19,4.97,0,1.77-1.56,1.69-2.28,2.71,2.48.2,4.61-.17,5.79-2.35,1.19-2.22-.35-3.62-1.81-5.14-2.28-2.39-1.85-3.92,1.35-5,1.74-.59,3.81-.77,4.74-2.47,2.59-4.71,6.28-4.85,10.99-2.65Zm-121.12-47.65c2.21-6.2,1.65-11.81-.58-17.36-1.86-4.62-3.86-9.19-5.63-13.85-1.41-3.72-3.1-7.53-2.91-11.53.29-6.12-4-9.08-7.35-12.79,1.06,8.85,4.36,17.07,5.56,25.79.85,6.13.2,12.28.62,18.41.14,2.05.31,3.96,2.05,5.38,2.43,1.98,4.66,4.24,8.23,5.95Zm116.74,74.15c1.44.87,2.09,1.4,2.83,1.69,1.23.5,2.49.97,3.79,1.24,10.48,2.18,20.71,1.9,30.91-2.01,7.07-2.71,14.19-5.84,22.16-5.04,1.61.16,3.28-.56,4.71-1.46,1.09-.69,1.67-1.61.78-3-19.86,5.14-39.94,7-60.92,3.83-.44,1.61-1.76,3.26-4.27,4.75ZM66.63,40.32c1.64-3.51.11-5.47-2.56-6.6-3.98-1.69-7.01-4.32-9.19-8.02-.45-.77-.92-1.78-2.62-1.64,1.34,2.4,1.54,5.59,3.93,6.72,4.49,2.14,7.96,5.1,10.43,9.54Zm-50.37-6.69q-6.16-4.89-9.84-5.04c3.08,2.38,4.93,5.77,9.84,5.04Zm81.53,71.61c2.81.69,4.42-.06,6.53-.99-2.55-2.06-4.37-2.43-6.53.99Z"/>
  <path class="cls-1" d="m381.86,175.15c-.5,1.45-.95,3.37-3.19,3.57-1.18.1-1.64-.97-1.73-2.03-.14-1.67,1.8-3.65,3.46-3.5.92.08,1.48.65,1.46,1.96Z"/>
  <path class="cls-1" d="m119.01,133.99c-2.28,1.81-1.84,5.23-4.38,7.52-1.83-2.91.58-5.28.46-7.77-2.97,1.28-2.75,4.93-5.22,6.52-1.95-5.46,3.32-13.21,10.11-15.06,1.59,1.08,1.71,2.97,2.36,4.43-.51,2.1-3.08,2.34-3.34,4.38l.02-.02Z"/>
  <path class="cls-1" d="m182.91,137.48c.33,3.46-1.6,4.65-3.85,5.4-3.24,1.07-8.46-1.05-10.91-4.46,1.28-1.05,3.81-.52,3.88-3.45.05-2.04,2.74-2.41,3.46-.49,1.39,3.73,3.6,4.76,7.42,3Z"/>
  <path class="cls-1" d="m289.95,159.25c-1.83.08-3.67.17-5.5.25-.55.03-.98.49-.95,1.04.03.55.49.98,1.04.95,1.83-.08,3.67-.17,5.5-.25.55-.03.98-.49.95-1.04-.03-.55-.49-.98-1.04-.95h0Z"/>
  <path class="cls-1" d="m133.51,154.88c-.06.48-.09.96-.09,1.41,0,1.88.52,3.54,1.51,4.91.99,1.37,2.42,2.42,4.16,3.21.5.23,1.1,0,1.32-.5.23-.5,0-1.1-.5-1.32-1.52-.69-2.63-1.54-3.37-2.56-.73-1.02-1.12-2.21-1.13-3.74,0-.37.02-.76.07-1.17.07-.55-.32-1.05-.87-1.11-.55-.07-1.05.32-1.11.87h0Z"/>
  <path class="cls-1" d="m385.22,173.13c.84,1.04,1.46,1.82,1.84,2.41.38.6.49.95.49,1.25,0,.3-.11.7-.51,1.36-.39.66-1.03,1.52-1.91,2.68-.38.5-.54,1.04-.65,1.5-.16.71-.23,1.31-.38,1.63-.07.16-.14.25-.23.33-.1.08-.24.16-.54.22-.54.1-.9.62-.8,1.17.1.54.62.9,1.17.8.74-.13,1.37-.48,1.78-.96.31-.36.49-.76.6-1.12.17-.55.24-1.06.32-1.47.09-.42.19-.71.33-.88.89-1.17,1.56-2.06,2.04-2.86.48-.8.79-1.56.79-2.39,0-.84-.33-1.59-.8-2.33-.48-.75-1.13-1.55-1.97-2.59-.35-.43-.98-.5-1.41-.15-.43.35-.5.98-.15,1.41h0Z"/>
  <path class="cls-1" d="m318.25,155.34c-2.09,2.37-4.36,4.28-6.89,5.61-2.53,1.32-5.3,2.06-8.48,2.06-.12,0-.24,0-.37,0-.55,0-1.01.43-1.02.98,0,.55.43,1.01.98,1.02.13,0,.27,0,.4,0,3.49,0,6.62-.83,9.41-2.29,2.79-1.46,5.25-3.55,7.46-6.05.37-.41.33-1.05-.09-1.41-.41-.37-1.05-.33-1.41.09h0Z"/>
  <path class="cls-1" d="m258.84,158.59c-.71,1.56-1.81,2.58-3.12,3.26-1.3.67-2.81.97-4.2.97h-.02,0-.07c-9.29,0-17.55,3.07-25.82,6.12-1.13.42-2.48.62-3.87,1-1.38.39-2.86,1.02-4,2.42-.35.43-.29,1.06.13,1.41.43.35,1.06.29,1.41-.13.81-.97,1.79-1.42,3.01-1.77,1.21-.35,2.61-.53,4.02-1.05,8.27-3.06,16.29-6,25.13-6h.07s0,0,0,0h.01c1.66,0,3.47-.34,5.12-1.19,1.65-.84,3.13-2.22,4.02-4.22.23-.5,0-1.1-.5-1.32-.5-.23-1.1,0-1.32.5h0Z"/>
  <path class="cls-1" d="m389.68,136.93c-1.05,1.49-2.23,2.34-3.68,2.97-1.45.63-3.17,1.01-5.14,1.48-8.11,1.91-16.39,3.17-24.61,4.97-6.53,1.43-13.27,2.42-19.92,3.83-.22.05-.41.06-.59.06-.5,0-.96-.14-1.52-.32-.55-.18-1.21-.42-2.03-.43h-.25c-.55.04-.97.52-.93,1.07.03.55.51.97,1.06.93h.12c.39,0,.83.13,1.4.32.57.19,1.28.43,2.15.43.32,0,.66-.03,1.01-.11,6.57-1.4,13.31-2.38,19.93-3.84,8.13-1.78,16.42-3.04,24.64-4.98,1.95-.46,3.78-.85,5.48-1.59,1.7-.73,3.27-1.85,4.53-3.66.32-.45.21-1.08-.25-1.39-.45-.32-1.08-.21-1.39.25h0Z"/>
  <path class="cls-1" d="m20.87,34.5c-1.36-2.38-3.34-3.94-5.39-5.2-2.05-1.26-4.19-2.26-6.02-3.49-.67-.45-1.48-.64-2.31-.64-1.55,0-3.28.69-4.44,2.22-.33.44-.24,1.07.2,1.4.44.33,1.07.24,1.4-.2.73-.97,1.88-1.43,2.85-1.43.51,0,.95.13,1.2.31,2.01,1.33,4.17,2.34,6.08,3.52,1.92,1.19,3.57,2.52,4.71,4.49.28.48.89.64,1.37.37.48-.28.64-.89.37-1.37h0Z"/>
  <path class="cls-1" d="m68,116.92c-.03.39-.05.79-.05,1.19,0,.88.1,1.78.45,2.65.34.87.94,1.68,1.83,2.33l.59-.81-.89-.46c-.42.83-1.17,1.37-2.06,2-.43.31-.89.64-1.31,1.07-.42.43-.8.99-.98,1.68-.05.19-.05.38.02.57,1.07,3.29,3.11,5.46,5.49,6.89,2.39,1.43,5.1,2.18,7.7,2.83,4.43,1.1,8.45,2.46,12.22,4.91,1.93,1.25,4.04,1.88,6.14,2.34,2.1.46,4.19.75,6.12,1.27,1.62.43,3.36.86,4.93,1.28,1.8.48,3.37,1.07,4.63,2.03,1.26.97,2.27,2.32,2.97,4.54,1.39,4.47,3.9,8.05,7.19,10.73,3.29,2.68,7.34,4.46,11.84,5.41,1.02.21,2.14.63,3.33,1.01,1.19.38,2.46.73,3.82.73,1.55.01,3.21-.51,4.7-1.86l-.67-.74-.19.98c2.38.46,4.76.51,7.1.51.72,0,1.43,0,2.14,0,3.88,0,7.57.16,10.98,1.92,6.35,3.27,12.64,6.69,19.01,9.98,7.12,3.68,14.4,6.52,22.71,6.52,1.27,0,2.56-.07,3.87-.2,10.47-1.1,20.93-2.1,31.18-5.17.72-.22,1.6-.36,2.41-.36.72,0,1.37.12,1.79.34,1.63.81,3.2,1.17,4.69,1.16,2.04,0,3.88-.65,5.56-1.52,1.68-.87,3.23-1.95,4.72-2.9,2-1.28,3.55-3,4.91-4.8,1.36-1.81,2.55-3.72,3.81-5.43.42-.57.67-1.19.82-1.81.14-.62.18-1.24.18-1.84,0-1-.11-1.97-.1-2.85,0-.8.08-1.51.33-2.14.21-.51-.04-1.09-.55-1.3-.51-.21-1.09.04-1.3.55-.39.97-.48,1.96-.48,2.88,0,1.03.11,2,.1,2.85,0,.51-.04.98-.13,1.38-.1.41-.24.76-.48,1.08-1.32,1.79-2.5,3.69-3.79,5.41-1.29,1.71-2.69,3.23-4.39,4.32-1.54.98-3.04,2.03-4.56,2.81-1.52.78-3.04,1.3-4.65,1.3-1.17,0-2.41-.27-3.8-.95-.83-.41-1.76-.54-2.68-.54-1.04,0-2.08.18-2.98.45-10.01,3-20.34,3.99-30.82,5.09-1.25.13-2.47.19-3.66.19-7.84,0-14.78-2.67-21.79-6.29-6.35-3.28-12.64-6.7-19.01-9.98-3.91-2.01-7.98-2.13-11.9-2.14-.72,0-1.43,0-2.14,0-2.31,0-4.56-.05-6.72-.47-.31-.06-.62.03-.86.24-1.18,1.04-2.22,1.34-3.36,1.35-1,0-2.08-.27-3.21-.64-1.13-.36-2.3-.8-3.53-1.06-4.24-.89-7.99-2.56-10.99-5-3-2.45-5.26-5.67-6.55-9.78-.79-2.54-2.07-4.32-3.66-5.53-1.59-1.22-3.42-1.87-5.33-2.38-1.59-.43-3.33-.85-4.93-1.28-2.09-.56-4.21-.85-6.21-1.29-2-.44-3.86-1.01-5.48-2.06-4.04-2.62-8.3-4.05-12.82-5.17-2.56-.64-5.09-1.36-7.15-2.61-2.06-1.25-3.69-2.97-4.62-5.8l-.95.31.97.26c.08-.3.23-.54.48-.8.38-.4,1.01-.8,1.71-1.32.69-.52,1.47-1.2,2-2.22.23-.44.1-.98-.3-1.27-.6-.44-.93-.91-1.15-1.45-.22-.54-.31-1.18-.31-1.91,0-.33.02-.67.05-1.02.05-.55-.36-1.03-.91-1.08-.55-.05-1.03.36-1.08.91h0Z"/>
  <path class="cls-1" d="m441.16,109.51c-.88-.15-1.75-.21-2.61-.21-3.35,0-6.46,1.02-9.45,2.27-.88.37-1.58.86-2.04,1.5-.47.63-.67,1.38-.67,2.1,0,.94.3,1.84.69,2.73.41.92.72,1.68.93,2.29.21.61.29,1.06.29,1.34,0,.23-.04.34-.1.45-.05.08-.13.17-.27.29-.43.35-1.51.76-3.21,1.22-1.24.35-2.74.34-4.33.51-.55.06-.94.56-.88,1.1.06.55.56.94,1.1.88,1.41-.16,3.02-.12,4.65-.57,1.55-.44,2.68-.79,3.57-1.34.44-.28.82-.62,1.09-1.07.27-.45.39-.97.39-1.48,0-.63-.15-1.26-.39-1.98-.24-.72-.58-1.52-.99-2.46-.34-.76-.52-1.43-.52-1.92,0-.38.08-.64.28-.91.2-.27.55-.56,1.21-.84,2.89-1.21,5.73-2.12,8.67-2.12.75,0,1.51.06,2.28.19.54.09,1.06-.28,1.15-.82.09-.54-.28-1.06-.82-1.15h0Z"/>
  <path class="cls-1" d="m171.44,153.1c-.49-.24-.97-.37-1.44-.37-.57,0-1.15.23-1.52.65-.37.42-.52.94-.52,1.44,0,.34.07.67.18,1,.3.79.85,1.44,1.52,2.05,1.01.9,2.33,1.69,3.66,2.29,1.34.58,2.67.98,3.84.99.41,0,.82-.05,1.21-.21,1.59-.64,2.9-1.84,3.82-3.3.92-1.47,1.45-3.21,1.45-4.99,0-.61-.06-1.23-.2-1.84-.33-1.44-1.07-2.61-1.52-3.68-.22-.51-.81-.74-1.31-.53-.51.22-.74.81-.53,1.31.55,1.26,1.2,2.34,1.41,3.33.1.46.15.94.15,1.41,0,1.38-.42,2.77-1.15,3.93-.72,1.16-1.74,2.06-2.87,2.51-.06.03-.23.06-.47.06-.45,0-1.14-.13-1.88-.37-1.12-.37-2.37-.99-3.37-1.68-.5-.35-.94-.71-1.27-1.06-.33-.35-.54-.67-.62-.9-.05-.12-.06-.23-.06-.31v-.11s.02-.01.02-.01l-.04-.02.04.03h0s-.04-.03-.04-.03l.04.03-.07-.06.04.09.03-.02-.07-.06.04.09h0s.05,0,.05,0c.09,0,.28.03.57.17.5.24,1.1.03,1.34-.46.24-.5.03-1.1-.46-1.34h0Z"/>
  <path class="cls-1" d="m269.14,163.07c-2.94,1.13-5.54,2.75-8.04,4.43-2.51,1.68-4.92,3.41-7.48,4.81-1.37.75-2.66,1.45-3.92,1.95-1.27.5-2.5.81-3.81.81-.4,0-.81-.03-1.24-.09-2.23-.33-4.45-.44-6.65-.44-4.65,0-9.22.49-13.72.49-.09,0-.19,0-.28,0-.97,0-1.88,0-2.7-.1-.83-.11-1.57-.32-2.27-.76-.47-.29-1.08-.15-1.38.31-.29.47-.15,1.08.31,1.38,1,.63,2.06.92,3.08,1.05,1.02.13,2.01.11,2.95.12.1,0,.2,0,.29,0,4.65,0,9.21-.49,13.72-.49,2.13,0,4.25.11,6.35.42.52.08,1.03.11,1.53.11,1.62,0,3.12-.38,4.54-.95,1.42-.56,2.78-1.3,4.15-2.06,2.7-1.48,5.16-3.25,7.63-4.9,2.47-1.65,4.94-3.18,7.65-4.22.52-.2.77-.78.57-1.29-.2-.52-.78-.77-1.29-.57h0Z"/>
  <path class="cls-1" d="m474.1,90.06c-2.43,4.95-5.23,9.42-9.67,12.66-3.06,2.22-6.21,3.42-9.75,3.42-.67,0-1.36-.04-2.06-.13-.55-.07-1.05.32-1.12.87-.07.55.32,1.05.87,1.12.78.1,1.55.15,2.31.15,4,0,7.62-1.39,10.92-3.81,4.83-3.53,7.8-8.34,10.29-13.39.24-.5.04-1.09-.46-1.34-.5-.24-1.09-.04-1.34.46h0Z"/>
  <path class="cls-1" d="m48.88,21.24c1.41.17,2.59.49,3.62,1.06,1.03.57,1.93,1.39,2.77,2.68,2.45,3.78,5.83,6.7,10.27,8.59,1.15.49,1.92,1.02,2.37,1.54.45.53.63,1.02.64,1.72,0,.61-.18,1.39-.57,2.33-.4.94-1.01,2.04-1.82,3.3-.3.46-.17,1.08.3,1.38.46.3,1.08.17,1.38-.3.85-1.32,1.52-2.51,1.98-3.61.46-1.1.73-2.12.73-3.11,0-1.12-.38-2.19-1.13-3.03-.74-.85-1.78-1.5-3.09-2.06-4.1-1.76-7.12-4.38-9.38-7.85-.98-1.51-2.15-2.61-3.47-3.34-1.33-.73-2.78-1.1-4.35-1.29-.55-.07-1.05.33-1.11.88-.07.55.33,1.05.88,1.11h0Z"/>
  <path class="cls-1" d="m198.28,170.54c-2.79-.8-5.37-2.14-7.61-3.89-1.08-.84-2.14-1.68-3.35-2.36-1.21-.69-2.57-1.21-4.19-1.39-1.6-.17-3.23-1.29-4.28-2.93-.3-.46-.92-.6-1.38-.3-.46.3-.6.92-.3,1.38,1.33,2.05,3.39,3.56,5.74,3.84,1.31.15,2.39.56,3.42,1.15,1.04.59,2.03,1.36,3.11,2.2,2.44,1.9,5.25,3.36,8.29,4.24.53.15,1.08-.15,1.24-.68.15-.53-.15-1.08-.68-1.24h0Z"/>
  <path class="cls-1" d="m91.06,111.34c.66,1.83,1.31,3.67,2.01,5.51.85,2.24,1.95,4.26,3.59,5.76,1.64,1.5,3.83,2.4,6.57,2.39.1,0,.19,0,.29,0,.55-.01.99-.47.98-1.02-.01-.55-.47-.99-1.02-.98h-.25c-2.32,0-3.92-.7-5.22-1.87-1.3-1.18-2.28-2.91-3.07-4.98-.69-1.81-1.33-3.65-2-5.49-.19-.52-.76-.79-1.28-.6-.52.19-.79.76-.6,1.28h0Z"/>
  <path class="cls-1" d="m500.8,47.4c-.82-1.09-1.66-2.15-2.66-2.97-.99-.82-2.2-1.41-3.6-1.41-1.31,0-2.7.5-4.19,1.53-.15.11-.5.21-1.02.2-.44,0-.98-.06-1.55-.12-.57-.06-1.17-.14-1.78-.14-.55,0-1,.45-1,1s.45,1,1,1c.44,0,.98.06,1.55.12.57.06,1.17.14,1.78.14.71,0,1.47-.09,2.16-.56,1.28-.88,2.27-1.18,3.05-1.18.84,0,1.56.32,2.34.95.77.63,1.54,1.56,2.32,2.62.33.44.96.53,1.4.2.44-.33.53-.96.2-1.4h0Z"/>
  <path class="cls-1" d="m391.49,121.36c.99.58,2.03.65,2.95.65.54,0,1.05-.03,1.51-.03.74,0,1.35.07,1.82.29.47.23.88.59,1.29,1.47l.91-.41-1-.08c-.16,2.01-1.28,3.86-3.13,5.51-.93.82-1.4,1.99-1.39,3.18,0,.23.02.46.05.68.07.55.58.93,1.12.86.55-.07.93-.58.86-1.12-.02-.14-.03-.28-.03-.42,0-.71.23-1.24.72-1.68,2.1-1.86,3.59-4.17,3.8-6.85.01-.17-.02-.34-.09-.49-.54-1.21-1.35-2.03-2.26-2.46-.91-.43-1.84-.48-2.67-.49-.54,0-1.05.03-1.51.03-.82,0-1.46-.09-1.94-.37-.48-.28-1.09-.12-1.37.35-.28.48-.12,1.09.35,1.37h0Z"/>
  <path class="cls-1" d="m434.45,103c.63.03,1.26.28,2.05.61.79.32,1.76.69,2.97.69.21,0,.43-.01.66-.04.2-.02.4-.03.59-.03,1.44,0,2.8.57,3.98,1.52,1.17.95,2.13,2.28,2.71,3.7.38.94.84,1.88,1.19,2.81.35.93.59,1.82.59,2.64,0,.58-.11,1.11-.38,1.65-.27.54-.71,1.1-1.43,1.68-.43.34-.5.97-.16,1.41.34.43.97.5,1.41.16.91-.72,1.56-1.51,1.98-2.35.42-.84.59-1.71.59-2.54,0-1.19-.32-2.31-.71-3.34-.39-1.04-.86-2-1.21-2.86-.71-1.72-1.84-3.31-3.3-4.5-1.45-1.18-3.26-1.97-5.24-1.97-.27,0-.54.01-.81.04-.16.02-.3.02-.44.02-.8,0-1.46-.24-2.22-.54-.76-.3-1.62-.69-2.71-.75-.55-.03-1.02.4-1.05.95-.03.55.4,1.02.95,1.05h0Z"/>
  <path class="cls-1" d="m522.41,69c.74.07,1.31.36,1.84.82.52.45.95,1.08,1.29,1.7,2.01,3.72,4.5,6.97,7.08,10.19.78.98,1.6,1.7,2.51,2.24.92.54,1.91.89,3.05,1.2,2.33.63,4.89,2.23,6.45,4.08,4.25,5.01,9.72,7.51,15.58,9.23.53.15,1.09-.15,1.24-.68.15-.53-.15-1.09-.68-1.24-5.7-1.67-10.72-4-14.62-8.6-1.88-2.2-4.68-3.95-7.45-4.72-1.06-.29-1.86-.59-2.56-1-.69-.41-1.3-.94-1.97-1.78-2.56-3.19-4.97-6.34-6.88-9.88-.41-.76-.96-1.57-1.73-2.25-.76-.68-1.77-1.21-2.99-1.31-.55-.05-1.03.36-1.08.91-.05.55.36,1.03.91,1.08h0Z"/>
  <path class="cls-1" d="m12.03,36.75c-.1.41-.15.8-.15,1.19,0,.7.17,1.33.44,1.88.4.82,1,1.44,1.57,1.97.57.52,1.13.96,1.51,1.33,10.08,9.88,18.37,21.03,25.31,33.33,2.59,4.6,5.28,8.92,6.97,13.84,1.23,3.57,3.32,6.56,5.54,9.39,2.23,2.82,4.59,5.48,6.47,8.36,1.72,2.63,3.63,5.13,5.55,7.57.42.53.89,1.03,1.47,1.4.57.38,1.26.64,2.01.64.79,0,1.59-.28,2.36-.82.36-.25.87-.49,1.45-.72.86-.36,1.85-.7,2.72-1.3.44-.3.85-.69,1.15-1.19.31-.5.48-1.12.48-1.78,0-.14,0-.27-.02-.41-.04-.4-.06-.78-.06-1.13,0-1.15.19-2.05.51-2.78.48-1.09,1.27-1.86,2.37-2.51,1.1-.65,2.51-1.13,4.09-1.57.61-.18,1.05-.51,1.41-.82.36-.31.67-.61.93-.8.44-.33.53-.96.2-1.4-.33-.44-.96-.53-1.4-.2-.41.31-.73.63-1.02.88-.29.25-.52.39-.66.42-2.19.62-4.24,1.33-5.84,2.67-.79.67-1.46,1.51-1.91,2.53-.45,1.02-.68,2.21-.68,3.59,0,.42.02.86.07,1.32v.22c0,.45-.11.68-.32.94-.32.39-1.03.77-1.89,1.12-.86.36-1.84.7-2.71,1.29-.53.36-.91.46-1.22.46-.3,0-.58-.09-.9-.31-.32-.21-.67-.55-1-.98-1.91-2.43-3.78-4.88-5.45-7.43-1.99-3.04-4.4-5.74-6.58-8.5-2.18-2.76-4.11-5.57-5.22-8.8-1.79-5.19-4.56-9.62-7.12-14.17-7.01-12.44-15.42-23.76-25.65-33.78-.67-.65-1.45-1.22-2.02-1.83-.28-.3-.51-.61-.66-.92-.15-.31-.23-.62-.24-1,0-.21.03-.43.09-.69.14-.54-.19-1.08-.72-1.21-.54-.14-1.08.19-1.21.72h0Z"/>
  <path class="cls-1" d="m49.62,21.03c-.36.68-.53,1.38-.53,2.04,0,.84.25,1.58.57,2.23.32.65.71,1.22,1.05,1.73,3.85,5.7,5.07,12.51,6.66,19.24,1.57,6.59,3.51,13.04,3.74,19.76.09,2.66.39,5.25.38,7.76,0,2.18-.22,4.3-.94,6.38-.18.52.09,1.09.62,1.27.52.18,1.09-.09,1.27-.62.82-2.37,1.05-4.72,1.05-7.04,0-2.66-.3-5.27-.39-7.83-.25-7.06-2.26-13.64-3.8-20.15-1.58-6.64-2.8-13.73-6.94-19.89-.34-.51-.68-1.01-.91-1.49-.24-.48-.37-.93-.37-1.35,0-.34.07-.69.29-1.11.26-.49.07-1.09-.41-1.35-.49-.26-1.09-.07-1.35.41h0Z"/>
  <path class="cls-1" d="m107.88,104.22c-2.43,1.95-5.34,3.18-8.11,3.17-.38,0-.75-.02-1.12-.07-.54-.07-1.07-.1-1.58-.1-2.1,0-3.96.54-5.56,1.41-1.6.87-2.95,2.05-4.1,3.33-3.58,4-6.58,8.75-7.88,14.3-.13.54.21,1.08.75,1.2.54.13,1.08-.21,1.2-.75,1.2-5.12,3.99-9.59,7.42-13.43,1.04-1.16,2.22-2.18,3.56-2.91,1.35-.73,2.85-1.17,4.61-1.17.43,0,.87.03,1.34.08.46.06.91.08,1.37.08,3.35,0,6.64-1.44,9.36-3.61.43-.35.5-.97.16-1.41-.35-.43-.97-.5-1.41-.16h0Z"/>
  <path class="cls-1" d="m128.69,130.98c1.09-.21,2.13-.32,3.12-.32,2.79.01,5.23.82,7.59,2.99,1.34,1.22,3.21,1.9,5.17,1.91.35,0,.71-.02,1.06-.07.23-.03.46-.04.68-.04.88,0,1.71.22,2.57.59.86.36,1.73.86,2.65,1.35.49.26,1.09.08,1.35-.41.26-.49.08-1.09-.41-1.35-.89-.47-1.81-1.01-2.82-1.43-1.01-.42-2.12-.74-3.35-.74-.31,0-.62.02-.94.06-.27.04-.54.05-.8.05-1.48,0-2.92-.54-3.81-1.38-2.69-2.49-5.75-3.53-8.94-3.52-1.15,0-2.31.13-3.5.35-.54.1-.9.63-.8,1.17.1.54.63.9,1.17.8h0Z"/>
  <path class="cls-1" d="m288.65,168.02c.45.73.67,1.43.66,1.92,0,.34-.08.59-.25.82-.17.23-.46.48-.98.69-.61.24-1.11.56-1.54.87-.43.31-.78.62-1.14.88-.44.33-.54.96-.21,1.4.33.44.96.54,1.4.21.43-.32.78-.62,1.13-.87.35-.25.68-.46,1.1-.63.79-.31,1.43-.77,1.86-1.37.43-.59.63-1.3.63-1.99,0-1.03-.38-2.02-.95-2.96-.29-.47-.9-.62-1.37-.34-.47.29-.62.9-.34,1.37h0Z"/>
  <path class="cls-1" d="m363.3,160.55c-1.34-.43-2.66-.59-3.94-.59-3.56.01-6.83,1.19-9.98,1.53-5.81.65-11.32,2.27-16.94,2.62-4.65.3-9.23,1.37-13.67,2.52-1.38.37-2.48.77-3.49.76-.47,0-.93-.07-1.45-.27-.44-.17-.88-.24-1.31-.24-.71,0-1.35.19-1.93.43-.58.24-1.11.55-1.59.82-5.64,3.22-11.2,6.11-17.62,6.97-1.85.25-2.81.47-3.46.46-.36,0-.66-.05-1.12-.19-.45-.14-1.05-.39-1.89-.78-.28-.13-.6-.12-.87.01-.62.3-1.08.79-1.31,1.32-.23.53-.26,1.03-.26,1.46,0,.34.02.64.02.88v.18c-.03.55.4,1.02.95,1.04.55.02,1.02-.4,1.04-.96,0-.09,0-.18,0-.27,0-.34-.02-.64-.02-.88,0-.32.03-.53.09-.65.06-.11.1-.2.37-.34l-.45-.89-.42.91c.87.4,1.53.68,2.13.87.6.19,1.16.28,1.71.28,1.03,0,1.94-.24,3.72-.48,6.87-.92,12.68-3.98,18.35-7.22.47-.27.94-.53,1.37-.71.43-.18.82-.28,1.16-.28.21,0,.4.03.6.11.75.29,1.48.4,2.16.4,1.51,0,2.76-.51,3.99-.82,4.4-1.14,8.87-2.18,13.29-2.46,5.92-.38,11.46-2.01,17.04-2.63,3.46-.4,6.66-1.53,9.75-1.52,1.12,0,2.22.14,3.33.49.53.17,1.09-.12,1.26-.65.17-.53-.12-1.09-.65-1.26h0Z"/>
  <path class="cls-1" d="m27.35,43.43c.06.12.1.29.14.51.06.33.09.79.26,1.33.16.53.53,1.14,1.14,1.57,3.77,2.72,6.76,6.19,9.31,10.17,1.11,1.72,2.48,3.53,4.27,4.76,7.35,5.01,12.67,12.09,17.47,19.42,3.18,4.85,6.84,9.16,11.68,11.96,3.84,2.22,7.88,4.32,11.95,6.25.5.24,1.1.03,1.33-.47.24-.5.03-1.1-.47-1.33-4.02-1.91-8.02-3.99-11.8-6.18-4.44-2.56-7.91-6.6-11-11.32-4.85-7.4-10.31-14.72-18.02-19.98-1.42-.96-2.68-2.57-3.72-4.18-2.65-4.12-5.8-7.81-9.82-10.71-.17-.13-.25-.23-.32-.35-.1-.18-.16-.45-.22-.85-.06-.39-.11-.9-.38-1.45-.24-.5-.83-.71-1.33-.47-.5.24-.71.83-.47,1.33h0Z"/>
  <path class="cls-1" d="m173,135.36h0s.12-.12.12-.12l-.16.06.04.06.12-.12-.16.06h.03s-.03,0-.03,0h0s.03,0,.03,0h-.03s.02.09.02.24c0,.15,0,.36.05.63.3,1.73.65,3.04,1.29,4.05.32.5.75.93,1.26,1.21.52.28,1.1.41,1.7.41,1.34-.01,2.78-.54,4.64-1.43.5-.24.71-.83.47-1.33-.24-.5-.83-.71-1.33-.47-1.76.85-3.04,1.24-3.78,1.23-.34,0-.56-.06-.74-.16-.27-.15-.55-.44-.83-1.07-.28-.63-.52-1.55-.72-2.76-.03-.11,0-.38-.06-.81-.03-.21-.1-.47-.26-.73-.15-.26-.4-.49-.67-.65-.48-.28-1.09-.12-1.37.36-.28.48-.12,1.09.36,1.37h0Z"/>
  <path class="cls-1" d="m116.11,129.08c-2.54,1.06-4.21,2.8-5.32,4.79-1.11,1.99-1.71,4.21-2.26,6.39-.13.54.19,1.08.73,1.21.54.13,1.08-.19,1.21-.73.54-2.15,1.11-4.2,2.07-5.89.96-1.69,2.24-3.03,4.35-3.93.51-.21.75-.8.53-1.31-.21-.51-.8-.75-1.31-.53h0Z"/>
  <path class="cls-1" d="m488.9,95.56c-1.02-2.08-2.13-4.13-3.63-5.91-1.5-1.77-3.42-3.25-5.95-4.1-.52-.18-1.09.11-1.27.63-.18.52.11,1.09.63,1.27,2.15.73,3.73,1.94,5.06,3.5,1.32,1.56,2.37,3.46,3.36,5.49.24.5.84.7,1.34.46.5-.24.7-.84.46-1.34h0Z"/>
  <path class="cls-1" d="m93.9,103.3c.27.21.37.37.45.62.13.37.12.98.13,1.71,0,.37.03.77.13,1.19.1.42.28.88.6,1.28.34.44.97.52,1.4.18.44-.34.52-.97.18-1.4-.15-.19-.22-.41-.27-.74-.07-.5,0-1.19-.09-1.99-.04-.4-.14-.84-.35-1.27-.21-.43-.54-.85-.99-1.18-.44-.33-1.07-.24-1.4.2-.33.44-.24,1.07.2,1.4h0Z"/>
  <path class="cls-1" d="m160.5,147.53c.02.79.3,1.48.66,2.02.54.81,1.2,1.36,1.65,1.89.23.26.4.51.52.74.11.24.17.46.17.74v.06c-.02.55.42,1.01.97,1.03.55.02,1.01-.42,1.03-.97v-.11c0-.8-.26-1.5-.61-2.05-.53-.82-1.2-1.39-1.66-1.92-.23-.26-.42-.51-.54-.74-.12-.24-.18-.46-.19-.73-.01-.55-.47-.99-1.03-.97-.55.01-.99.47-.97,1.03h0Z"/>
  <path class="cls-1" d="m196.03,141.15c-.22-.13-.45-.36-.77-.67-.31-.3-.72-.68-1.31-.95-1.47-.69-2.73-1.13-3.96-1.13-.89,0-1.77.27-2.49.83-.72.56-1.3,1.35-1.81,2.35-.74,1.44-1.54,2.57-2.46,3.31-.92.73-1.96,1.14-3.43,1.14-.23,0-.47-.01-.72-.03-.55-.05-1.04.36-1.08.91-.05.55.36,1.04.91,1.08.31.03.6.04.89.04,1.86,0,3.44-.58,4.68-1.59,1.25-1.01,2.17-2.38,2.98-3.95.43-.84.86-1.38,1.25-1.68.4-.3.75-.41,1.28-.42.72,0,1.76.3,3.11.94.27.13.49.31.77.58.28.26.6.61,1.09.92.47.29,1.09.15,1.38-.32.29-.47.15-1.09-.32-1.38h0Z"/>
  <path class="cls-1" d="m535.23,83.86c-.56.66-.84,1.44-.83,2.16,0,.7.23,1.32.51,1.83.28.51.62.93.91,1.26,2.77,3.1,4.59,7.07,7.47,10.5.4.47.7,1.04.97,1.69.41.97.73,2.11,1.31,3.24.57,1.12,1.48,2.24,2.95,2.95,1.42.69,2.62,1.72,3.68,2.95,1.06,1.23,1.99,2.67,2.85,4.12.3.51.65.91,1.05,1.21.6.45,1.27.62,1.83.67.57.05,1.06.03,1.5.06.55.04,1.03-.38,1.06-.93.04-.55-.38-1.03-.93-1.06-.77-.04-1.37,0-1.75-.11-.2-.05-.34-.11-.5-.23-.16-.12-.33-.3-.53-.63-.89-1.49-1.87-3.02-3.06-4.41-1.19-1.38-2.59-2.61-4.33-3.45-.7-.34-1.16-.75-1.54-1.25-.57-.74-.93-1.72-1.32-2.8-.4-1.08-.83-2.26-1.71-3.32-2.66-3.14-4.49-7.13-7.5-10.54-.24-.27-.48-.58-.65-.89-.17-.31-.26-.61-.26-.87,0-.26.07-.51.36-.87.36-.42.3-1.05-.12-1.41-.42-.36-1.05-.3-1.41.12h0Z"/>
  <path class="cls-1" d="m509.51,69.87c-.07.48-.1.95-.1,1.4,0,1.61.43,3.05,1.21,4.3.78,1.25,1.88,2.32,3.21,3.32,3.9,2.95,7.65,6.15,10.93,9.78,2.8,3.1,4.25,6.59,4.25,10.77v.06h0c0,.15,0,.3,0,.45,0,1.21.02,2.19.14,3.04.09.64.25,1.22.56,1.74.23.39.55.73.92.99.57.39,1.23.61,2.01.77.78.16,1.69.25,2.8.33,1.79.13,3.13.54,4.26,1.22,1.13.68,2.07,1.66,2.96,3.01,1.23,1.85,2.82,3.14,4.56,4.05,1.75.91,3.65,1.45,5.56,1.86.27.06.54.09.81.09.61,0,1.18-.15,1.69-.39.51-.24.96-.56,1.36-.91.42-.36.46-.99.1-1.41-.36-.42-.99-.46-1.41-.1-.3.26-.6.47-.89.6-.29.13-.56.2-.85.2-.12,0-.25-.01-.39-.04-1.83-.39-3.56-.9-5.06-1.68-1.5-.79-2.79-1.84-3.82-3.38-1-1.52-2.15-2.75-3.59-3.62-1.44-.87-3.14-1.36-5.16-1.5-1.27-.09-2.22-.2-2.87-.36-.49-.12-.79-.27-.98-.41-.14-.11-.24-.22-.33-.39-.14-.25-.25-.66-.31-1.28-.06-.62-.08-1.42-.08-2.43,0-.15,0-.3,0-.45h0v-.06c0-4.66-1.69-8.72-4.77-12.11-3.4-3.75-7.24-7.03-11.21-10.03-1.21-.91-2.12-1.82-2.71-2.78-.59-.96-.9-1.98-.91-3.25,0-.36.03-.73.08-1.13.07-.55-.31-1.05-.86-1.13-.55-.07-1.05.31-1.13.86h0Z"/>
  <path class="cls-1" d="m97.13,102.28c1.22-.98,2.24-1.28,3.27-1.29.94,0,1.91.29,2.94.75,1.03.46,2.09,1.07,3.21,1.66.49.26,1.09.07,1.35-.42.26-.49.07-1.09-.42-1.35-1.06-.55-2.16-1.19-3.32-1.71-1.16-.52-2.4-.92-3.75-.92-1.48,0-3.03.52-4.53,1.74-.43.35-.49.98-.15,1.41.35.43.98.49,1.41.15h0Z"/>
  <path class="cls-1" d="m533.5-11.51c0,.47-.11.82-.28,1.16-.25.5-.69.98-1.24,1.48-.55.51-1.2,1.04-1.76,1.74h0c-1.09,1.36-2.54,2.54-3.96,3.87-1.42,1.33-2.82,2.82-3.68,4.87-.21.51.03,1.1.54,1.31.51.21,1.1-.03,1.31-.54.68-1.64,1.84-2.92,3.2-4.18,1.35-1.27,2.88-2.49,4.16-4.08h0c.52-.66,1.36-1.28,2.16-2.11.4-.42.78-.89,1.07-1.47.29-.58.48-1.27.49-2.03,0-.55-.43-1.01-.99-1.01-.55,0-1.01.43-1.01.99h0Z"/>
  <path class="cls-1" d="m454.4,83.51c-1.87.19-3.44.94-4.8,1.86-1.36.92-2.54,2-3.68,2.95-4.34,3.63-8.74,7.37-12.23,12.1-.51.69-1.13,1.16-1.86,1.49-.72.33-1.55.51-2.41.57-5.14.39-9.93,2.12-14.3,4.27-2.89,1.42-6.02,2.31-9.19,3.25-3.17.94-6.39,1.93-9.43,3.62-1.02.57-2.16,1.1-3.23,1.84-1.07.74-2.08,1.73-2.69,3.16-.22.51.01,1.1.52,1.32.51.22,1.1-.01,1.32-.52.44-1.01,1.12-1.69,2-2.31.88-.61,1.96-1.12,3.06-1.73,2.8-1.56,5.87-2.52,9.02-3.45,3.16-.94,6.4-1.85,9.51-3.38,4.24-2.09,8.78-3.71,13.57-4.07,1.04-.08,2.09-.29,3.09-.74.99-.45,1.92-1.14,2.64-2.12,3.3-4.49,7.57-8.13,11.9-11.75,1.18-.99,2.31-2.02,3.51-2.82,1.2-.8,2.44-1.38,3.89-1.53.55-.06.95-.55.89-1.1-.06-.55-.55-.95-1.1-.89h0Z"/>
  <path class="cls-1" d="m261.39,153.58c-1.16-.48-2.54-1.07-4.01-1.08-.82,0-1.7.22-2.44.81-1.72,1.39-3.65,2.13-5.71,2.59-2.06.46-4.24.63-6.4.92-5.41.73-10.58,2.16-15.87,2.31-1.87.05-3.68.19-5.46.19-1.14,0-2.26-.05-3.39-.21-1.04-.14-2.13-.26-3.25-.26-1.38,0-2.8.17-4.22.69-1.31.47-2.56.67-3.78.67-1.92,0-3.79-.49-5.69-1.2-1.9-.71-3.81-1.63-5.78-2.46l-.02.06.04-.05h-.01s-.02.05-.02.05l.04-.05s-.12-.1-.29-.29c-.17-.19-.4-.46-.71-.77l-.71.71.83.55c.38-.57.53-1.18.63-1.72.14-.82.2-1.54.41-2.02.1-.24.22-.43.39-.6.18-.17.43-.33.85-.46.26-.08.48-.27.59-.52.12-.25.13-.53.03-.79-.39-1-.53-1.97-.53-2.97,0-1.6.4-3.27.83-5.01.43-1.74.89-3.55.89-5.48,0-.61-.05-1.23-.16-1.86-.38-2.17-1.34-3.98-2.8-5.24-1.46-1.27-3.39-1.96-5.61-2.06-1.3-.06-2.32-.13-3.02-.46-.35-.16-.65-.38-.94-.73-.29-.35-.57-.86-.82-1.6-.47-1.39-1.37-2.47-2.5-3.16-1.13-.69-2.47-1.01-3.86-1.01-1.05,0-2.13.18-3.21.53-.98.32-2.17.38-3.44.56-1.27.18-2.68.52-3.92,1.57-1.04.89-2.7,1.51-4.23,2.49-.76.49-1.5,1.11-2.05,1.95-.55.84-.88,1.91-.88,3.17,0,.43.04.88.11,1.36l.3-.05h-.31s0,.05,0,.05l.3-.05h-.31s.05,0,.05,0h-.05s0,0,0,0h.05-.05s-.05.22-.18.44c-.19.34-.53.75-.94,1.04-.41.3-.88.48-1.39.48-.17,0-.35-.02-.55-.07-.29-.07-.58-.11-.85-.11-.53,0-1.01.12-1.43.28-.63.24-1.14.55-1.58.77-.44.22-.78.33-1.06.33-.12,0-.25-.02-.39-.07-.25-.09-.53-.07-.77.05-.24.12-.42.33-.51.58-.57,1.73-.67,3.36-.67,4.86,0,.88.03,1.71.03,2.52v.25s0,0,0,0c0,.47-.04.89-.1,1.22-.05.25-.12.45-.2.6-.12.23-.25.36-.48.48-.23.12-.61.22-1.2.22h-.03s0,0,0,0h-.12c-3.09,0-5.91.66-8.4,1.95-2.49,1.29-4.64,3.19-6.42,5.61l.81.59.47-.88c-.4-.21-.62-.42-.78-.62-.23-.3-.33-.64-.41-1.14-.08-.48-.1-1.08-.27-1.76-.29-1.12-.57-2.43-1.31-3.61-.37-.58-.88-1.13-1.56-1.52-.67-.4-1.49-.64-2.45-.7-.12,0-.23-.01-.34-.01-1.06,0-2.01.24-2.75.23-.37,0-.67-.05-.91-.16-.25-.11-.47-.27-.72-.62-.7-.97-1.13-2.08-1.47-3.3-.33-1.21-.56-2.51-.85-3.83-.07-.32-.1-.67-.1-1.07,0-.66.08-1.4.08-2.2,0-.55-.45-1-1-1s-1,.45-1,1c0,.66-.08,1.4-.08,2.2,0,.48.03.99.15,1.5.28,1.25.51,2.59.88,3.93.37,1.34.88,2.69,1.77,3.93.43.61.98,1.04,1.56,1.29.58.25,1.17.32,1.71.32,1.07,0,2.03-.24,2.75-.23h.22c.7.05,1.19.21,1.56.43.55.33.91.81,1.22,1.5.3.68.51,1.53.73,2.4.15.54.14,1.31.36,2.22.12.45.32.94.66,1.39.34.45.82.85,1.42,1.18.44.24.98.11,1.28-.29,1.62-2.21,3.53-3.88,5.73-5.02,2.19-1.13,4.68-1.73,7.48-1.73h.11s0,0,0,0h.04c.72,0,1.35-.11,1.91-.35.42-.18.78-.44,1.07-.75.43-.47.68-1.05.81-1.62.14-.58.18-1.18.18-1.79h0s0-.26,0-.26c0-.86-.03-1.69-.03-2.52,0-1.42.09-2.79.57-4.23l-.95-.31-.32.95c.35.12.71.18,1.04.18.52,0,.98-.13,1.38-.28.6-.24,1.1-.55,1.54-.76.44-.22.81-.34,1.15-.34.12,0,.24.01.37.05.35.09.7.13,1.03.13,1.39,0,2.5-.68,3.25-1.45.38-.39.67-.8.89-1.22.21-.42.36-.82.37-1.3l-.02-.26c-.06-.39-.09-.74-.09-1.06,0-.93.22-1.56.55-2.08.5-.78,1.39-1.37,2.48-1.96,1.08-.59,2.33-1.14,3.41-2.04.83-.69,1.77-.95,2.92-1.12,1.14-.17,2.44-.22,3.77-.64.89-.29,1.78-.43,2.59-.43,1.09,0,2.05.25,2.81.72.75.47,1.32,1.14,1.65,2.11.31.9.69,1.63,1.17,2.22.71.88,1.64,1.38,2.57,1.61.93.24,1.87.27,2.84.32,1.87.09,3.32.65,4.4,1.58,1.07.93,1.82,2.26,2.14,4.08.09.5.13,1,.13,1.51,0,1.6-.4,3.26-.83,5-.43,1.74-.89,3.55-.89,5.49,0,1.2.18,2.44.67,3.69l.93-.36-.31-.95c-.86.28-1.53.74-1.97,1.32-.66.87-.79,1.83-.91,2.59-.06.39-.11.73-.18,1.02-.07.29-.16.51-.26.67-.26.4-.21.92.13,1.26.28.28.48.53.7.77.22.24.48.53.93.72,1.9.79,3.83,1.73,5.85,2.48,2.02.75,4.13,1.32,6.39,1.32,1.44,0,2.93-.23,4.46-.79,1.15-.41,2.33-.57,3.54-.57.99,0,1.99.1,2.98.24,1.25.17,2.47.23,3.67.23,1.88,0,3.7-.14,5.52-.19,5.6-.17,10.85-1.63,16.08-2.33,2.08-.28,4.32-.45,6.57-.95,2.24-.5,4.5-1.34,6.53-2.98.32-.26.68-.36,1.18-.37.89-.01,2.11.44,3.23.92.51.21,1.1-.02,1.31-.53.21-.51-.02-1.1-.53-1.31h0Z"/>
  <path class="cls-1" d="m56.15,34.49c.18-.03.34-.04.5-.04.69,0,1.23.23,1.83.64.59.41,1.18,1.01,1.85,1.63,1.03.96,1.78,2.29,2.63,3.69.85,1.4,1.82,2.89,3.44,3.98l.19-.28-.26.22.07.06.19-.28-.26.22h0s.09.2.12.41c.04.2.06.45.06.68,0,.17,0,.32-.03.45-.1.87-.15,1.72-.15,2.55,0,3.22.72,6.22,1.73,9.09,1,2.88,2.29,5.63,3.46,8.4,1.23,2.92,2.59,5.75,3.65,8.64,1.06,2.89,1.82,5.83,1.89,8.96,0,.13,0,.25,0,.38,0,3.13-.89,6.16-1.53,9.41-.11.54.25,1.07.79,1.18.54.11,1.07-.25,1.18-.79.61-3.12,1.57-6.29,1.57-9.8,0-.14,0-.28,0-.42-.08-3.43-.91-6.59-2.01-9.6-1.11-3.01-2.48-5.87-3.69-8.73-1.19-2.81-2.45-5.53-3.41-8.28-.96-2.75-1.61-5.52-1.61-8.43,0-.76.04-1.53.14-2.31.03-.22.04-.45.04-.69,0-.44-.04-.9-.16-1.35-.06-.23-.14-.45-.26-.68-.12-.22-.29-.46-.57-.65-1.21-.82-2.02-2-2.85-3.37-.83-1.35-1.64-2.86-2.97-4.12-.63-.58-1.27-1.25-2.07-1.82-.79-.56-1.79-1-2.97-1-.26,0-.53.02-.8.06-.55.08-.92.6-.84,1.14.08.55.6.92,1.14.84h0Z"/>
  <path class="cls-1" d="m122.5,128.5c-1.67,0-3.33,0-5.65,0-.33,0-.63.16-.82.43-.19.27-.23.61-.12.92.26.7.36,1.34.36,1.97,0,1.44-.56,2.87-1.24,4.43-.66,1.56-1.42,3.24-1.53,5.2-.03.55.4,1.02.95,1.05.55.03,1.02-.4,1.05-.95.07-1.48.69-2.95,1.37-4.52.67-1.57,1.39-3.26,1.4-5.22,0-.85-.14-1.74-.48-2.66l-.94.35v1h5.65c.55,0,1-.45,1-1s-.45-1-1-1h0Z"/>
  <path class="cls-1" d="m149.64,148.51c1.37,2.32,3.1,4,5.12,5.07,2.02,1.07,4.29,1.53,6.71,1.53.7,0,1.41-.04,2.14-.11.55-.06.95-.55.9-1.09-.06-.55-.55-.95-1.09-.9-.67.07-1.31.1-1.94.1-2.17,0-4.09-.41-5.77-1.3-1.67-.89-3.12-2.27-4.33-4.32-.28-.48-.89-.63-1.37-.35-.48.28-.63.89-.35,1.37h0Z"/>
  <path class="cls-1" d="m523.56,61.67c-1.6-1.07-2.62-2.5-3.43-4.16-.81-1.66-1.4-3.54-2.12-5.4-.8-2.08-1.96-3.6-3.49-4.58-1.53-.99-3.34-1.44-5.42-1.62-.52-.05-1.04-.07-1.54-.07-2.53,0-4.81.56-6.9,1.52-2.09.96-3.99,2.31-5.81,3.87-7.24,6.24-15.81,11.27-21.72,19.65-2.52,3.58-4.58,7.34-6.51,11.17-.25.49-.05,1.09.44,1.34.49.25,1.09.05,1.34-.44,1.92-3.79,3.93-7.46,6.36-10.92,5.57-7.93,13.95-12.9,21.39-19.28,1.73-1.49,3.48-2.72,5.34-3.57,1.86-.85,3.83-1.34,6.07-1.34.45,0,.9.02,1.37.06,1.91.16,3.37.56,4.51,1.3,1.13.74,2.01,1.83,2.72,3.63.69,1.76,1.28,3.7,2.18,5.55.9,1.85,2.14,3.63,4.12,4.95.46.31,1.08.18,1.39-.27.31-.46.18-1.08-.27-1.39h0Z"/>
  <path class="cls-1" d="m379.79,137.73c-.17.62-.36,1.31-.37,2.08,0,.75.22,1.59.79,2.31.34.43.97.51,1.4.17.43-.34.51-.97.17-1.4-.28-.37-.36-.67-.37-1.08,0-.42.12-.94.29-1.53.15-.53-.16-1.08-.69-1.23-.53-.15-1.08.16-1.23.69h0Z"/>
  <path class="cls-1" d="m504.16,69.45c-2.12,3.23-3.58,6.73-5.13,10.11-1.55,3.38-3.2,6.63-5.62,9.43-1.45,1.69-3.38,3.3-4.73,5.51-.12.22-.45.46-.93.84-.24.19-.51.43-.75.76-.24.33-.43.74-.52,1.22-.32,1.8-.81,3.34-1.65,4.48-.84,1.13-2,1.94-4,2.33-.61.11-1.13.45-1.49.84-.54.59-.82,1.28-1.06,1.92-.24.64-.44,1.25-.66,1.65-1.31,2.49-2.89,4.53-4.82,6.12-1.93,1.59-4.22,2.75-7.02,3.44-2.8.69-5.46,1.68-8.11,2.48-2.65.8-5.27,1.42-8.01,1.42h-.16c-.55,0-1,.44-1.01.99,0,.55.44,1,.99,1.01h.17c3.04,0,5.86-.68,8.59-1.5,2.72-.83,5.35-1.8,8-2.45,3.06-.75,5.65-2.05,7.82-3.84,2.17-1.79,3.91-4.06,5.32-6.73.44-.85.68-1.76.98-2.42.15-.33.3-.58.44-.73.14-.15.23-.2.39-.23,2.4-.44,4.13-1.58,5.24-3.11,1.12-1.53,1.65-3.38,2-5.31.04-.18.09-.29.17-.4.12-.17.35-.36.68-.61.32-.25.75-.58,1.09-1.12,1.12-1.85,2.93-3.41,4.54-5.24,2.64-3.04,4.36-6.49,5.93-9.91,1.57-3.42,3-6.82,4.99-9.84.3-.46.18-1.08-.29-1.38-.46-.3-1.08-.18-1.38.29h0Z"/>
  <path class="cls-1" d="m463.51,67.9c-.11,1.05-.63,1.85-1.4,2.69-.76.83-1.76,1.62-2.58,2.62-1.73,2.11-2.58,4.26-2.57,6.53,0,1.16.21,2.34.59,3.56.16.53.72.82,1.25.66.53-.16.82-.72.66-1.25-.33-1.08-.5-2.05-.5-2.97,0-1.77.6-3.38,2.12-5.27.62-.77,1.59-1.55,2.49-2.52.9-.96,1.76-2.2,1.93-3.85.06-.55-.34-1.04-.89-1.1-.55-.06-1.04.34-1.1.89h0Z"/>
  <path class="cls-1" d="m119.75,108.16c4.58,5.2,8.7,10.66,11.97,16.76.62,1.16.82,2.07.82,3.16,0,.27-.01.54-.04.83-.05.55.36,1.04.91,1.08.55.05,1.04-.36,1.08-.91.03-.34.05-.67.05-1.01,0-1.37-.3-2.71-1.06-4.11-3.37-6.28-7.59-11.86-12.23-17.13-.36-.41-1-.45-1.41-.09-.41.36-.45,1-.09,1.41h0Z"/>
  <path class="cls-1" d="m560.77,96.82c-.91.99-1.84,1.78-2.78,2.32-.94.53-1.88.82-2.92.82-.94,0-1.97-.24-3.15-.81-1.02-.5-2.14-.79-3.29-.79-1.03,0-2.08.24-3.08.76-.49.25-.68.86-.43,1.35.25.49.86.68,1.35.43.72-.37,1.44-.53,2.16-.54.81,0,1.63.21,2.42.59,1.4.68,2.75,1.01,4.03,1.01,1.42,0,2.73-.41,3.91-1.08,1.18-.68,2.25-1.61,3.25-2.7.37-.41.35-1.04-.06-1.41-.41-.37-1.04-.35-1.41.06h0Z"/>
  <path class="cls-1" d="m1.79,28.2c1.07,1.08,2.27,1.98,3.39,2.85,1.12.87,2.15,1.73,2.92,2.68,1,1.24,2.1,2.09,3.25,2.62,1.15.53,2.35.72,3.53.72,1.45,0,2.89-.28,4.33-.6.54-.12.88-.65.76-1.19-.12-.54-.65-.88-1.19-.76-1.41.31-2.71.55-3.9.55-.97,0-1.85-.15-2.7-.54-.85-.39-1.69-1.02-2.53-2.06-.95-1.16-2.1-2.1-3.24-2.99-1.14-.89-2.27-1.74-3.2-2.69-.39-.39-1.02-.39-1.41,0-.39.39-.39,1.02,0,1.41h0Z"/>
  <path class="cls-1" d="m444.57,121.1c-1.24.59-2.2,1.44-2.97,2.38-1.15,1.41-1.93,2.99-2.76,4.36-.83,1.38-1.69,2.5-2.9,3.16-1.88,1.04-3.94,1.94-5.86,3.13-1.91,1.19-3.7,2.7-4.89,4.95-2,3.76-5.3,5.96-8.78,6.22-4.32.33-8,1.8-11.36,3.69-3.36,1.88-6.42,4.17-9.58,6.19-.73.46-1.5.73-2.35.93-.85.2-1.79.31-2.78.49-7.62,1.38-15.68.71-23.62,2.9-1,.29-2.06.54-3,1.17-.47.32-.9.75-1.2,1.31-.31.56-.48,1.22-.52,1.96-.02.4-.05.81-.05,1.24,0,.88.08,1.82.61,2.68.26.43.65.81,1.14,1.08.49.27,1.06.43,1.71.49.31.03.63.19,1.09.45.23.13.49.28.81.4.32.12.7.22,1.12.22h.09s-.03-1-.03-1l-1,.03c.04,1.18.06,2.07.17,2.83.08.57.22,1.08.51,1.56.22.35.54.65.9.85.54.3,1.13.43,1.82.52.69.09,1.51.14,2.54.2.55.03,1.03-.38,1.06-.94.03-.55-.38-1.03-.94-1.06-1.21-.07-2.11-.13-2.7-.24-.45-.07-.71-.17-.82-.25-.09-.06-.12-.1-.18-.19-.08-.14-.18-.47-.24-1.03-.06-.56-.09-1.33-.12-2.32-.02-.55-.48-.98-1.03-.97h-.03c-.12,0-.24-.02-.39-.08-.23-.09-.53-.27-.92-.48-.39-.21-.89-.44-1.52-.5-.44-.04-.73-.14-.93-.25-.29-.17-.42-.34-.54-.66-.12-.32-.17-.8-.17-1.34,0-.35.02-.73.04-1.12.03-.52.14-.86.28-1.12.21-.38.52-.63,1.03-.88.51-.24,1.19-.43,1.95-.64,7.47-2.09,15.47-1.45,23.43-2.86.93-.17,1.89-.29,2.88-.51.99-.23,2-.57,2.98-1.19,3.24-2.07,6.27-4.33,9.48-6.13,3.21-1.8,6.58-3.14,10.53-3.44,4.24-.32,8.13-3,10.4-7.28.97-1.83,2.43-3.1,4.18-4.19,1.75-1.09,3.78-1.99,5.77-3.08,1.13-.62,1.98-1.49,2.68-2.43,1.05-1.41,1.79-2.97,2.66-4.31.86-1.35,1.8-2.44,3.18-3.1.5-.24.71-.83.47-1.33-.24-.5-.83-.71-1.33-.47h0Z"/>
  <path class="cls-1" d="m442.49,109.66c.04-.24.05-.46.05-.67,0-.57-.08-1.05-.07-1.42,0-.21.02-.38.06-.52.04-.14.1-.25.22-.38.37-.41.33-1.04-.08-1.41-.41-.37-1.04-.33-1.41.08-.32.35-.53.75-.64,1.14-.12.39-.15.76-.15,1.1,0,.57.08,1.05.07,1.42,0,.13,0,.25-.02.35-.09.55.28,1.06.83,1.15.55.09,1.06-.28,1.15-.83h0Z"/>
  <path class="cls-1" d="m316.02,153.75c-.29,0-.58,0-.86,0-5.11,0-10.08.9-14.93,2.33-.85.25-1.69.63-2.43,1.21-.74.58-1.36,1.37-1.73,2.36-.19.52.07,1.09.58,1.29.52.19,1.09-.07,1.29-.58.25-.65.62-1.11,1.1-1.5.48-.38,1.09-.67,1.76-.86,4.71-1.39,9.48-2.25,14.36-2.25.27,0,.55,0,.82,0,.55.01,1.01-.43,1.02-.98.01-.55-.43-1.01-.98-1.02h0Z"/>
  <path class="cls-1" d="m194.11,158.04c-.73,1.39-1.8,2.42-3.07,3.37-1.27.94-2.72,1.78-4.13,2.79-.45.32-.55.95-.23,1.4.32.45.95.55,1.4.23,1.29-.93,2.76-1.77,4.16-2.81,1.39-1.04,2.72-2.29,3.65-4.04.26-.49.07-1.09-.42-1.35-.49-.26-1.09-.07-1.35.42h0Z"/>
  <path class="cls-1" d="m412.48,146.21c.33-1.56,1.25-2.85,2.34-4.22,1.08-1.36,2.34-2.78,3.07-4.64.25-.64.57-1.34.83-2.1.26-.76.48-1.57.48-2.45,0-.94-.27-1.95-.94-2.86-.58-.81-1.34-1.36-2.14-1.67-.8-.31-1.62-.41-2.4-.41-.83,0-1.64.11-2.37.22-2.65.39-5.2,1.19-7.66,2-1.23.4-2.36.9-3.47,1.28-1.11.38-2.17.65-3.27.65-.13,0-.27,0-.41-.01-.55-.03-1.03.39-1.06.94-.03.55.39,1.03.94,1.06.18.01.35.02.53.02,1.43,0,2.72-.34,3.92-.76,1.2-.42,2.33-.91,3.43-1.27,2.45-.8,4.9-1.56,7.34-1.92.7-.1,1.41-.19,2.07-.19.62,0,1.19.08,1.67.27.48.19.88.48,1.25.98.42.59.55,1.1.56,1.68,0,.54-.14,1.15-.37,1.8-.22.65-.53,1.33-.8,2.03-.56,1.44-1.65,2.71-2.78,4.12-1.12,1.4-2.29,2.97-2.74,5.05-.12.54.23,1.07.77,1.19.54.12,1.07-.23,1.19-.77h0Z"/>
  <path class="cls-1" d="m386.5,166.5v-2.12h-1l-.23.97c.84.19,1.91.65,2.95,1.08.52.22,1.04.42,1.55.59.51.16,1,.28,1.53.28.32,0,.65-.05.99-.21.81-.38,1.51-.49,2.24-.49,1.16-.01,2.41.34,3.92.35h.05s0,0,0,0h.06c1.8,0,3.2.52,4.32,1.37,1.12.86,1.97,2.09,2.56,3.58,1.06,2.71,2.12,5.42,2.66,8.25.18.96.27,1.86.27,2.71,0,1.89-.43,3.51-1.3,4.95-.87,1.44-2.19,2.73-4.05,3.87-1.83,1.12-3.74,2.19-5.61,3.33-.77.47-1.48,1.03-2.18,1.45-.7.42-1.34.68-1.9.67-.31,0-.61-.06-.97-.24-.35-.18-.76-.49-1.22-.99-.18-.2-.42-.35-.65-.43-.23-.08-.45-.1-.65-.11-.66.01-1.2.23-1.76.44-.55.22-1.08.47-1.48.62-1.11.42-1.98.59-2.64.59-.47,0-.85-.08-1.21-.23-.53-.22-1.03-.62-1.59-1.27-.55-.64-1.14-1.52-1.81-2.58-.21-.33-.42-.64-.57-.92-.15-.28-.24-.51-.26-.68-.39-2.97-1.44-5.5-3.1-7.54-1.67-2.04-3.93-3.56-6.69-4.62l-.36.93.98.2c.4-1.99.76-3.82,1.13-5.64.11-.54-.24-1.07-.78-1.18-.54-.11-1.07.24-1.18.78-.37,1.83-.73,3.65-1.13,5.64-.1.48.17.95.62,1.13,2.5.96,4.45,2.3,5.86,4.02,1.41,1.73,2.32,3.86,2.67,6.53.07.54.28.99.49,1.38.21.39.45.73.63,1.03.92,1.45,1.72,2.65,2.69,3.55.49.45,1.02.82,1.63,1.08.61.26,1.27.39,1.98.38,1.01,0,2.09-.25,3.35-.72.52-.2,1.05-.45,1.53-.64.47-.2.91-.31,1.01-.3h.02s.05-.36.05-.36l-.26.24c.08.09.2.13.21.13l.05-.36-.26.24c.58.64,1.18,1.12,1.8,1.43.62.31,1.26.46,1.87.46,1.14,0,2.1-.46,2.93-.96.83-.5,1.56-1.08,2.19-1.46,1.82-1.11,3.73-2.18,5.61-3.33,2.07-1.26,3.66-2.77,4.72-4.55,1.06-1.77,1.58-3.79,1.58-5.98,0-.99-.1-2.01-.3-3.08-.58-3.08-1.7-5.91-2.76-8.61-.68-1.75-1.73-3.31-3.2-4.44-1.46-1.13-3.34-1.79-5.54-1.79h-.07s0,0,0,0h-.04c-1.16.01-2.41-.34-3.92-.35-.95,0-2,.16-3.1.69h0s0,0,0,0h0s0,0,0,0h0s-.13,0-.13,0c-.18,0-.52-.06-.92-.19-.61-.19-1.38-.52-2.18-.85-.8-.33-1.64-.66-2.48-.86-.3-.07-.61,0-.85.19-.24.19-.38.48-.38.78,0,.78,0,1.45,0,2.12,0,.55.45,1,1,1s1-.45,1-1h0Z"/>
  <path class="cls-1" d="m380.72,135.03c-1.77-.41-3.52-.58-5.23-.58-5.47,0-10.65,1.67-15.66,2.73-7.75,1.65-15.18,4.5-22.62,6.9-1.58.51-3.21,1.33-4.46,2.76-.36.42-.32,1.05.1,1.41.42.36,1.05.32,1.41-.1.91-1.05,2.19-1.72,3.57-2.17,7.51-2.43,14.88-5.24,22.42-6.85,5.14-1.1,10.19-2.7,15.25-2.69,1.59,0,3.18.15,4.78.52.54.12,1.08-.21,1.2-.75.12-.54-.21-1.08-.75-1.2h0Z"/>
</svg>