<?xml version="1.0" encoding="UTF-8"?>
<svg id="Layer_1" data-name="Layer 1" xmlns="http://www.w3.org/2000/svg" viewBox="0 0 291.5 174">
  <defs>
    <style>
      .cls-1 {
        fill: #fff;
        stroke: #fff;
        stroke-miterlimit: 10;
      }
    </style>
  </defs>
  <path class="cls-1" d="m258.5-39c.77,2.27.33,4.19-1.47,5.88-1.82,1.71-3.54,3.53-5.27,5.33-1.35,1.4-2.95,2.52-2.47,5.04.39,2.02-1.69,3.1-2.92,4.38-10.42,10.78-20.87,21.52-31.31,32.28-.57.59-1.11,1.21-2.32,2.53,4.08-.84,6.93.18,9.38,2.46,1.09,1.01,2.46.8,3.79.44,1.96-.53,3.97-.35,5.96-.35,4.31,0,7.14,2.12,9.1,5.87,1.29,2.46,1.72,5.38,3.63,7.42,2.07-.27,2.49-1.89,3.31-3.06,11.61-16.68,23.19-33.37,34.78-50.06.47-.68.92-1.4,1.48-2,.61-.66,1.43-.86,2.27-.43.63.33,1.01.93.83,1.64-.81,3.31-.51,6.67-2.67,9.9-10.75,16.06-22.1,31.7-33.11,47.58-3.41,4.91-3.44,5.27-.21,10.14,2.7,4.08,5.89,7.56,10.21,10.05,3.75,2.16,7.32,4.69,10.31,7.84,2.76,2.9,5.81,4.93,9.97,4.93,1.55,0,3.12.34,3.53,2.13.39,1.7-.79,2.85-1.96,3.77-2.34,1.84-4.98,2.49-7.97,1.76-1.55-.38-2.98-1.58-5.46-.71,3.51,5.16,9.1,8.29,11.92,13.65-1.06,2.33-3.15,2.54-5.1,2.4-4.79-.34-9.28-1.74-12.21-5.84-1.8-2.51-3.94-3.92-6.97-4.18-1.15-.1-2.26-.54-3.41-.77-2.73-.55-4.06-2.21-3.81-4.96.62-6.79-2.41-11.71-7.35-16.08-4.31-3.82-9.38-6.98-12.01-12.53-.7-1.48-2.24-1.32-3.17.16-.52.83-.85,1.8-1.2,2.74-2.5,6.61-5.98,12.61-10.66,17.94-2.19,2.49-4.41,4.99-5.62,8.19-.28.75-.78,1.7-1.43,1.99-4.37,1.95-6.41,5.96-9.05,9.55-2.51,3.41-6.12,5.53-10.2,6.89-6.16,2.06-12.63,3.1-18.63,5.67-1.77.75-3.61.14-5.76.17-1.88,4.73-5.5,7.72-10.22,9.48-1.65.61-2.66,1.95-3.52,3.4-2.69,4.54-6.82,7.18-11.7,8.82-4.26,1.44-8.55,2.8-12.74,4.42-3.32,1.29-6.21,3.31-7.7,6.74-1.36,3.13-.62,4.72,2.74,5.19,5.11.71,8.08,3.49,9.34,8.39.45,1.76,1.2,3.45,1.71,5.2,1.82,6.27-.55,12.6-6.1,15.99-2.55,1.56-5.26,2.87-7.9,4.29-.15.08-.29.2-.45.21-4.62.35-9.26,1.14-13.84.85-2.58-.17-4.49-2.69-5.47-5.34-.4-1.09-.84-2.21-.95-3.35-.39-4.03-2.43-6.79-6.05-8.51-1.36-.65-3.12-1.54-2.86-3.13.83-5.16-1.63-8.56-5.36-11.5-1.3-1.02-.7-2.86-1.75-4.32-3.53-.65-7.1.38-10.63.98-11.81,2.01-23.61,4.09-35.51,5.47-1.76.2-3.09,1.07-4.55,1.87-7.52,4.14-15.47,6.94-24.11,7.64-2.21.18-4.16.09-4.86-2.29-.63-2.14.95-3.44,2.55-4.4,1.41-.85,3-1.41,4.92-2.28-.65-1.49-3.28-1.97-2.66-4.07.63-2.12,2.74-2.16,4.46-2.8-.6-1.22-1.74-.64-2.54-.99-1.12-.48-2.25-.98-2.29-2.34-.05-1.69,1.28-2.16,2.64-2.48,7.29-1.71,14.39-4.21,21.89-5,6.39-.67,12.33-2.8,18.01-5.67,12.61-6.37,26.07-10.03,39.83-12.82,2.48-.5,4.98-.5,7.47-.43,2.98.08,5.05-.85,6.32-3.73,1-2.27,2.51-4.31,3.71-6.5,3.27-5.98,8.27-9.94,14.55-12.31,7.48-2.82,14.85-6.25,22.59-7.96,7-1.55,11.89-5.2,16.47-10.19,3.73-4.06,8.23-7.26,13.02-10.02.58-.33,1.4-.55,1.67-1.05,2.9-5.51,7.34-10.23,8.96-16.35.62-2.34,1.28-4.41,2.92-6.16,9.34-9.96,18.59-20,28.03-29.86,12.44-12.99,25.04-25.84,37.56-38.75,1.15-1.19,2.48-2.27,2.63-4.11h3ZM106.51,137.02c-1.76.21-3.2-.76-4.77-1.25-4.8-1.52-10.79.19-14.1,4.35,6.13-.27,5.7,5.31,8.09,8.43-4.01,3.75-4.06,3.83.54,7.05,1.88,1.32,3.09,2.83,3.6,5.11.39,1.75,1.21,3.43,2.01,5.06,1.3,2.66,3.74,3.78,6.77,3.06,1.19-.28,2.35-.4,3.43.02,3.51,1.37,6.45.64,9.08-2.02.67-.67,1.71-1,2.61-1.41,4.89-2.24,6.7-5.93,5.99-11.11-.4-2.88-1.66-5.35-2.73-7.92-1.83-4.43-3.42-5.25-8.68-4.67.13,2.6-.62,4.86-3.21,6.11-.78.38-1.32,1.06-1.4,1.94-.36,3.66-3.49,5.94-4.57,9.3-.66,2.06-2.55,2.25-4.29,1-.36-1.89.46-3.25,1.48-4.27,2.28-2.28,2.48-4.5.63-7.1-.87-1.22-1.67-2.69-.29-4.06,1.26-1.26,2.43-.3,3.55.44,1,.67,1.96.48,2.6-.46.81-1.2.23-2.22-.73-3.05-.9-.78-1.89-1.31-3.16-1.23-2.55.16-2.41-1.69-2.48-3.38,1.83-.27,3.53.42,5.3.65,2.49.32,3.05-1.02,2.6-3.49-3.06.23-6.47-1.45-7.87,2.89Zm58-57.05c2.17,2.67,4.31,5.36,5.42,8.71-.33-5.56-1.06-6.67-5.46-8.66-.65-.58-1.43-.77-2.28-.86-6.74-.7-13.23.36-19.5,2.85-5.4,2.14-10.64,4.64-16.43,5.75-3.18.61-6.14,2.2-9.7,4.61,3.76.55,6.55,1.29,7.5,4.37.91,2.95-1.71,5.05-2.51,7.87,3.7-1.08,7.02-2.11,10.36-3.02,3.55-.96,7.15-1.08,9.58,2.15,2.4,3.18.53,6.37-.95,9.35-.89,1.79-2.05,3.45-3.37,5.64,4.11-1.03,6.81-2.75,8.89-5.56,2.7-3.64,5.9-6.59,10.24-8.45,5.15-2.22,8.3-10.32,6.45-15.26-1.36-3.64-3.35-4.28-8.09-2.58-3.23,1.16-3.36,1.36-1.88,5.71.7,2.05,1.1,4.13-.89,5.4-2.58,1.66-5.46,2.84-8.84,1.29,1.49-3.24,5.54-1.89,6.93-4.45,0-.48.1-.85-.01-1.13-2.64-6.6-2.09-7.67,4.97-9.67,3.36-.95,6.71-1.94,9.56-4.08ZM10.76,148.68c5.39-.9,9.63-2.23,13.68-4.14,4.73-2.23,9.08-5.76,14.89-4.16.28.08.64-.13.96-.24,6.35-2.16,13.03-2.61,19.57-3.78,14.24-2.55,28.54-5.01,42.93-6.13,11.58-.9,21.37-4.57,29.34-12.9,3.04-3.18,6.09-6.51,6.17-11.14-1.85-1.52-3.6-1.34-5.19-1.05-6.48,1.19-12.37,3.82-17.69,7.69-.4.29-.88.64-1.02,1.07-1.03,3.25-3.66,3.92-6.59,4.39-11.81,1.88-23.52,4.31-35.37,6.05-12.93,1.9-24.82,7.49-36.58,12.96-4.66,2.17-9.27,3.57-14.31,3.72-3.34.1-6.8-.34-7.77,4.26-.2.97-1.47,1.72-3.03,3.41Zm200.46-81.72c6.04-7.15,9.96-14.42,13.06-22.15,1.05-2.63,2.11-5.25,3.7-7.6.72-1.06,1.45-2.33,3.13-1.78,1.41,3.54,4.96,5.37,8.47,4.39,1.46-.41,2.61-1.44,2.07-2.87-1.52-4.03-3.3-7.96-5.1-11.88-.41-.91-1.48-1.46-2.46-1.57-3.92-.41-7.66-.99-11.45,1.58-4.57,3.1-8.19,7.3-12.82,10.24-6.33,4.02-10.38,10.14-14.85,15.87-.58.74-1.18,1.64-.68,3.5,6.79,1.49,12.43,5.63,16.92,12.27Zm-36.42,14.37c1.45-2.48,3.66-2.46,5.51-2.74,6.2-.93,10-5.03,13.17-9.81,3.06-4.62,2.17-6.4-3.15-7.5-5.13-1.06-10.18,1.57-15.31.31-.25-.06-.62.22-.88.42-5.03,3.89-9.73,8.11-14.12,13.33,9.77.06,14.5,6.62,14.37,19.48,4.07-.07,7.6-2.18,11.41-2.94,6.87-1.37,11.75-5.17,14.52-11.66.85-1.99,1.7-3.92,4.5-3.98,1.73-.04,2.34-1.67,2.56-3.24.48-3.31,0-6.32-2.86-8.52-.38-.29-.74-.63-1.33-.41-.55,1.08,1.02,2.65-.9,3.59-1.4.59-2.41-1.57-4.12-.9-1.07,1.75-2.14,3.62-3.32,5.42-3,4.58-7.05,7.97-12.07,10.1-2.61,1.11-5.4,1.75-7.98-.96Zm101.6,6.49c-1.89-2.52-3.45-3.95-5.2-5.19-1.65-1.17-3.21-2.42-4.07-4.29-4.05-8.8-10.95-15.83-15.16-24.54-1.35-2.8-3.22-5.35-5.12-8.45-3.17,4.86-7.4,2.35-11.24,1.84-.02,1.72,1.05,2.08,1.78,2.7,3.67,3.11,7.41,6.15,10.99,9.36,3.9,3.49,6.08,7.98,6.03,13.2-.03,3.37,1.32,4.96,4.48,5.27,3.92.38,6.84,2.19,8.89,5.6,1.64,2.73,4.22,4.08,8.62,4.48Zm-56.43-65.96c-3.11-2.85-5.19-.72-7.23.79-8.99,6.65-16.98,14.41-24.69,22.46-2.03,2.12-4.03,4.31-5.13,7.14,4.46,2.03,5.96,1.77,8.5-2.88,4.27-7.81,10.54-13.64,17.41-18.98,3.63-2.82,7.3-5.59,11.14-8.53ZM59.89,122.31c12.9-1.09,25.22-5.2,38.01-6.83,2.07-.26,2.98-1.85,1.67-4.01-13.92,1.4-26.9,5.73-39.68,10.85Zm47.05-8.85c4.01-5.52,10.37-9.06,13.41-15.69-6.2-.99-12.11,5.96-13.41,15.69Zm172.72-41.62c-5.24-.89-8.86-4.08-12.46-7.45-1.65-1.54-3.57-3.12-6.78-3.73,1.43,2.05,2.49,3.31,3.27,4.73,2.03,3.75,4.04,7.29,9.36,6.16.96-.2,2.13.77,3.25,1.04,1.02.24,2.17.91,3.36-.76ZM23.91,133.16c5.63,5.05,8.55-.24,12.22-1.61-3.88-.02-7.69.32-12.22,1.61Z"/>
  <path class="cls-1" d="m104.36,149.15c-.5,1.45-.95,3.37-3.19,3.57-1.18.1-1.64-.97-1.73-2.03-.14-1.67,1.8-3.65,3.46-3.5.92.08,1.48.65,1.46,1.96Z"/>
  <path class="cls-1" d="m12.45,133.25c-1.83.08-3.67.17-5.5.25-.55.03-.98.49-.95,1.04.03.55.49.98,1.04.95,1.83-.08,3.67-.17,5.5-.25.55-.03.98-.49.95-1.04-.03-.55-.49-.98-1.04-.95h0Z"/>
  <path class="cls-1" d="m107.72,147.13c.84,1.04,1.46,1.82,1.84,2.41.38.6.49.95.49,1.25,0,.3-.11.7-.51,1.36-.39.66-1.03,1.52-1.91,2.68-.38.5-.54,1.04-.65,1.5-.16.71-.23,1.31-.38,1.63-.07.16-.14.25-.23.33-.1.08-.24.16-.54.22-.54.1-.9.62-.8,1.17.1.54.62.9,1.17.8.74-.13,1.37-.48,1.78-.96.31-.36.49-.76.6-1.12.17-.55.24-1.06.32-1.47.09-.42.19-.71.33-.88.89-1.17,1.56-2.06,2.04-2.86.48-.8.79-1.56.79-2.39,0-.84-.33-1.59-.8-2.33-.48-.75-1.13-1.55-1.97-2.59-.35-.43-.98-.5-1.41-.15-.43.35-.5.98-.15,1.41h0Z"/>
  <path class="cls-1" d="m40.75,129.34c-2.09,2.37-4.36,4.28-6.89,5.61-2.53,1.32-5.3,2.06-8.48,2.06-.12,0-.24,0-.37,0-.55,0-1.01.43-1.02.98,0,.55.43,1.01.98,1.02.13,0,.27,0,.4,0,3.49,0,6.62-.83,9.41-2.29,2.79-1.46,5.25-3.55,7.46-6.05.37-.41.33-1.05-.09-1.41-.41-.37-1.05-.33-1.41.09h0Z"/>
  <path class="cls-1" d="m112.18,110.93c-1.05,1.49-2.23,2.34-3.68,2.97-1.45.63-3.17,1.01-5.14,1.48-8.11,1.91-16.39,3.17-24.61,4.97-6.53,1.43-13.27,2.42-19.92,3.83-.22.05-.41.06-.59.06-.5,0-.96-.14-1.52-.32-.55-.18-1.21-.42-2.03-.43h-.25c-.55.04-.97.52-.93,1.07.03.55.51.97,1.06.93h.12c.39,0,.83.13,1.4.32.57.19,1.28.43,2.15.43.32,0,.66-.03,1.01-.11,6.57-1.4,13.31-2.38,19.93-3.84,8.13-1.78,16.42-3.04,24.64-4.98,1.95-.46,3.78-.85,5.48-1.59,1.7-.73,3.27-1.85,4.53-3.66.32-.45.21-1.08-.25-1.39-.45-.32-1.08-.21-1.39.25h0Z"/>
  <path class="cls-1" d="m163.66,83.51c-.88-.15-1.75-.21-2.61-.21-3.35,0-6.46,1.02-9.45,2.27-.88.37-1.58.86-2.04,1.5-.47.63-.67,1.38-.67,2.1,0,.94.3,1.84.69,2.73.41.92.72,1.68.93,2.29.21.61.29,1.06.29,1.34,0,.23-.04.34-.1.45-.05.08-.13.17-.27.29-.43.35-1.51.76-3.21,1.22-1.24.35-2.74.34-4.33.51-.55.06-.94.56-.88,1.1.06.55.56.94,1.1.88,1.41-.16,3.02-.12,4.65-.57,1.55-.44,2.68-.79,3.57-1.34.44-.28.82-.62,1.09-1.07.27-.45.39-.97.39-1.48,0-.63-.15-1.26-.39-1.98-.24-.72-.58-1.52-.99-2.46-.34-.76-.52-1.43-.52-1.92,0-.38.08-.64.28-.91.2-.27.55-.56,1.21-.84,2.89-1.21,5.73-2.12,8.67-2.12.75,0,1.51.06,2.28.19.54.09,1.06-.28,1.15-.82.09-.54-.28-1.06-.82-1.15h0Z"/>
  <path class="cls-1" d="m196.6,64.06c-2.43,4.95-5.23,9.42-9.67,12.66-3.06,2.22-6.21,3.42-9.75,3.42-.67,0-1.36-.04-2.06-.13-.55-.07-1.05.32-1.12.87-.07.55.32,1.05.87,1.12.78.1,1.55.15,2.31.15,4,0,7.62-1.39,10.92-3.81,4.83-3.53,7.8-8.34,10.29-13.39.24-.5.04-1.09-.46-1.34-.5-.24-1.09-.04-1.34.46h0Z"/>
  <path class="cls-1" d="m223.3,21.4c-.82-1.09-1.66-2.15-2.66-2.97-.99-.82-2.2-1.41-3.6-1.41-1.31,0-2.7.5-4.19,1.53-.15.11-.5.21-1.02.2-.44,0-.98-.06-1.55-.12-.57-.06-1.17-.14-1.78-.14-.55,0-1,.45-1,1s.45,1,1,1c.44,0,.98.06,1.55.12.57.06,1.17.14,1.78.14.71,0,1.47-.09,2.16-.56,1.28-.88,2.27-1.18,3.05-1.18.84,0,1.56.32,2.34.95.77.63,1.54,1.56,2.32,2.62.33.44.96.53,1.4.2.44-.33.53-.96.2-1.4h0Z"/>
  <path class="cls-1" d="m113.99,95.36c.99.58,2.03.65,2.95.65.54,0,1.05-.03,1.51-.03.74,0,1.35.07,1.82.29.47.23.88.59,1.29,1.47l.91-.41-1-.08c-.16,2.01-1.28,3.86-3.13,5.51-.93.82-1.4,1.99-1.39,3.18,0,.23.02.46.05.68.07.55.58.93,1.12.86.55-.07.93-.58.86-1.12-.02-.14-.03-.28-.03-.42,0-.71.23-1.24.72-1.68,2.1-1.86,3.59-4.17,3.8-6.85.01-.17-.02-.34-.09-.49-.54-1.21-1.35-2.03-2.26-2.46-.91-.43-1.84-.48-2.67-.49-.54,0-1.05.03-1.51.03-.82,0-1.46-.09-1.94-.37-.48-.28-1.09-.12-1.37.35-.28.48-.12,1.09.35,1.37h0Z"/>
  <path class="cls-1" d="m156.95,77c.63.03,1.26.28,2.05.61.79.32,1.76.69,2.97.69.21,0,.43-.01.66-.04.2-.02.4-.03.59-.03,1.44,0,2.8.57,3.98,1.52,1.17.95,2.13,2.28,2.71,3.7.38.94.84,1.88,1.19,2.81.35.93.59,1.82.59,2.64,0,.58-.11,1.11-.38,1.65-.27.54-.71,1.1-1.43,1.68-.43.34-.5.97-.16,1.41.34.43.97.5,1.41.16.91-.72,1.56-1.51,1.98-2.35.42-.84.59-1.71.59-2.54,0-1.19-.32-2.31-.71-3.34-.39-1.04-.86-2-1.21-2.86-.71-1.72-1.84-3.31-3.3-4.5-1.45-1.18-3.26-1.97-5.24-1.97-.27,0-.54.01-.81.04-.16.02-.3.02-.44.02-.8,0-1.46-.24-2.22-.54-.76-.3-1.62-.69-2.71-.75-.55-.03-1.02.4-1.05.95-.03.55.4,1.02.95,1.05h0Z"/>
  <path class="cls-1" d="m244.91,43c.74.07,1.31.36,1.84.82.52.45.95,1.08,1.29,1.7,2.01,3.72,4.5,6.97,7.08,10.19.78.98,1.6,1.7,2.51,2.24.92.54,1.91.89,3.05,1.2,2.33.63,4.89,2.23,6.45,4.08,4.25,5.01,9.72,7.51,15.58,9.23.53.15,1.09-.15,1.24-.68.15-.53-.15-1.09-.68-1.24-5.7-1.67-10.72-4-14.62-8.6-1.88-2.2-4.68-3.95-7.45-4.72-1.06-.29-1.86-.59-2.56-1-.69-.41-1.3-.94-1.97-1.78-2.56-3.19-4.97-6.34-6.88-9.88-.41-.76-.96-1.57-1.73-2.25-.76-.68-1.77-1.21-2.99-1.31-.55-.05-1.03.36-1.08.91-.05.55.36,1.03.91,1.08h0Z"/>
  <path class="cls-1" d="m11.15,142.02c.45.73.67,1.43.66,1.92,0,.34-.08.59-.25.82-.17.23-.46.48-.98.69-.61.24-1.11.56-1.54.87-.43.31-.78.62-1.14.88-.44.33-.54.96-.21,1.4.33.44.96.54,1.4.21.43-.32.78-.62,1.13-.87.35-.25.68-.46,1.1-.63.79-.31,1.43-.77,1.86-1.37.43-.59.63-1.3.63-1.99,0-1.03-.38-2.02-.95-2.96-.29-.47-.9-.62-1.37-.34-.47.29-.62.9-.34,1.37h0Z"/>
  <path class="cls-1" d="m85.8,134.55c-1.34-.43-2.66-.59-3.94-.59-3.56.01-6.83,1.19-9.98,1.53-5.81.65-11.32,2.27-16.94,2.62-4.65.3-9.23,1.37-13.67,2.52-1.38.37-2.48.77-3.49.76-.47,0-.93-.07-1.45-.27-.44-.17-.88-.24-1.31-.24-.71,0-1.35.19-1.93.43-.58.24-1.11.55-1.59.82-5.64,3.22-11.2,6.11-17.62,6.97-1.85.25-2.81.47-3.46.46-.36,0-.66-.05-1.12-.19-.45-.14-1.05-.39-1.89-.78-.28-.13-.6-.12-.87.01-.62.3-1.08.79-1.31,1.32-.23.53-.26,1.03-.26,1.46,0,.34.02.64.02.88v.18c-.03.55.4,1.02.95,1.04.55.02,1.02-.4,1.04-.96,0-.09,0-.18,0-.27,0-.34-.02-.64-.02-.88,0-.32.03-.53.09-.65.06-.11.1-.2.37-.34l-.45-.89-.42.91c.87.4,1.53.68,2.13.87.6.19,1.16.28,1.71.28,1.03,0,1.94-.24,3.72-.48,6.87-.92,12.68-3.98,18.35-7.22.47-.27.94-.53,1.37-.71.43-.18.82-.28,1.16-.28.21,0,.4.03.6.11.75.29,1.48.4,2.16.4,1.51,0,2.76-.51,3.99-.82,4.4-1.14,8.87-2.18,13.29-2.46,5.92-.38,11.46-2.01,17.04-2.63,3.46-.4,6.66-1.53,9.75-1.52,1.12,0,2.22.14,3.33.49.53.17,1.09-.12,1.26-.65.17-.53-.12-1.09-.65-1.26h0Z"/>
  <path class="cls-1" d="m211.4,69.56c-1.02-2.08-2.13-4.13-3.63-5.91-1.5-1.77-3.42-3.25-5.95-4.1-.52-.18-1.09.11-1.27.63-.18.52.11,1.09.63,1.27,2.15.73,3.73,1.94,5.06,3.5,1.32,1.56,2.37,3.46,3.36,5.49.24.5.84.7,1.34.46.5-.24.7-.84.46-1.34h0Z"/>
  <path class="cls-1" d="m257.73,57.86c-.56.66-.84,1.44-.83,2.16,0,.7.23,1.32.51,1.83.28.51.62.93.91,1.26,2.77,3.1,4.59,7.07,7.47,10.5.4.47.7,1.04.97,1.69.41.97.73,2.11,1.31,3.24.57,1.12,1.48,2.24,2.95,2.95,1.42.69,2.62,1.72,3.68,2.95,1.06,1.23,1.99,2.67,2.85,4.12.3.51.65.91,1.05,1.21.6.45,1.27.62,1.83.67.57.05,1.06.03,1.5.06.55.04,1.03-.38,1.06-.93.04-.55-.38-1.03-.93-1.06-.77-.04-1.37,0-1.75-.11-.2-.05-.34-.11-.5-.23-.16-.12-.33-.3-.53-.63-.89-1.49-1.87-3.02-3.06-4.41-1.19-1.38-2.59-2.61-4.33-3.45-.7-.34-1.16-.75-1.54-1.25-.57-.74-.93-1.72-1.32-2.8-.4-1.08-.83-2.26-1.71-3.32-2.66-3.14-4.49-7.13-7.5-10.54-.24-.27-.48-.58-.65-.89-.17-.31-.26-.61-.26-.87,0-.26.07-.51.36-.87.36-.42.3-1.05-.12-1.41-.42-.36-1.05-.3-1.41.12h0Z"/>
  <path class="cls-1" d="m232.01,43.87c-.07.48-.1.95-.1,1.4,0,1.61.43,3.05,1.21,4.3.78,1.25,1.88,2.32,3.21,3.32,3.9,2.95,7.65,6.15,10.93,9.78,2.8,3.1,4.25,6.59,4.25,10.77v.06h0c0,.15,0,.3,0,.45,0,1.21.02,2.19.14,3.04.09.64.25,1.22.56,1.74.23.39.55.73.92.99.57.39,1.23.61,2.01.77.78.16,1.69.25,2.8.33,1.79.13,3.13.54,4.26,1.22,1.13.68,2.07,1.66,2.96,3.01,1.23,1.85,2.82,3.14,4.56,4.05,1.75.91,3.65,1.45,5.56,1.86.27.06.54.09.81.09.61,0,1.18-.15,1.69-.39.51-.24.96-.56,1.36-.91.42-.36.46-.99.1-1.41-.36-.42-.99-.46-1.41-.1-.3.26-.6.47-.89.6-.29.13-.56.2-.85.2-.12,0-.25-.01-.39-.04-1.83-.39-3.56-.9-5.06-1.68-1.5-.79-2.79-1.84-3.82-3.38-1-1.52-2.15-2.75-3.59-3.62-1.44-.87-3.14-1.36-5.16-1.5-1.27-.09-2.22-.2-2.87-.36-.49-.12-.79-.27-.98-.41-.14-.11-.24-.22-.33-.39-.14-.25-.25-.66-.31-1.28-.06-.62-.08-1.42-.08-2.43,0-.15,0-.3,0-.45h0v-.06c0-4.66-1.69-8.72-4.77-12.11-3.4-3.75-7.24-7.03-11.21-10.03-1.21-.91-2.12-1.82-2.71-2.78-.59-.96-.9-1.98-.91-3.25,0-.36.03-.73.08-1.13.07-.55-.31-1.05-.86-1.13-.55-.07-1.05.31-1.13.86h0Z"/>
  <path class="cls-1" d="m176.9,57.51c-1.87.19-3.44.94-4.8,1.86-1.36.92-2.54,2-3.68,2.95-4.34,3.63-8.74,7.37-12.23,12.1-.51.69-1.13,1.16-1.86,1.49-.72.33-1.55.51-2.41.57-5.14.39-9.93,2.12-14.3,4.27-2.89,1.42-6.02,2.31-9.19,3.25-3.17.94-6.39,1.93-9.43,3.62-1.02.57-2.16,1.1-3.23,1.84-1.07.74-2.08,1.73-2.69,3.16-.22.51.01,1.1.52,1.32.51.22,1.1-.01,1.32-.52.44-1.01,1.12-1.69,2-2.31.88-.61,1.96-1.12,3.06-1.73,2.8-1.56,5.87-2.52,9.02-3.45,3.16-.94,6.4-1.85,9.51-3.38,4.24-2.09,8.78-3.71,13.57-4.07,1.04-.08,2.09-.29,3.09-.74.99-.45,1.92-1.14,2.64-2.12,3.3-4.49,7.57-8.13,11.9-11.75,1.18-.99,2.31-2.02,3.51-2.82,1.2-.8,2.44-1.38,3.89-1.53.55-.06.95-.55.89-1.1-.06-.55-.55-.95-1.1-.89h0Z"/>
  <path class="cls-1" d="m246.06,35.67c-1.6-1.07-2.62-2.5-3.43-4.16-.81-1.66-1.4-3.54-2.12-5.4-.8-2.08-1.96-3.6-3.49-4.58-1.53-.99-3.34-1.44-5.42-1.62-.52-.05-1.04-.07-1.54-.07-2.53,0-4.81.56-6.9,1.52-2.09.96-3.99,2.31-5.81,3.87-7.24,6.24-15.81,11.27-21.72,19.65-2.52,3.58-4.58,7.34-6.51,11.17-.25.49-.05,1.09.44,1.34.49.25,1.09.05,1.34-.44,1.92-3.79,3.93-7.46,6.36-10.92,5.57-7.93,13.95-12.9,21.39-19.28,1.73-1.49,3.48-2.72,5.34-3.57,1.86-.85,3.83-1.34,6.07-1.34.45,0,.9.02,1.37.06,1.91.16,3.37.56,4.51,1.3,1.13.74,2.01,1.83,2.72,3.63.69,1.76,1.28,3.7,2.18,5.55.9,1.85,2.14,3.63,4.12,4.95.46.31,1.08.18,1.39-.27.31-.46.18-1.08-.27-1.39h0Z"/>
  <path class="cls-1" d="m102.29,111.73c-.17.62-.36,1.31-.37,2.08,0,.75.22,1.59.79,2.31.34.43.97.51,1.4.17.43-.34.51-.97.17-1.4-.28-.37-.36-.67-.37-1.08,0-.42.12-.94.29-1.53.15-.53-.16-1.08-.69-1.23-.53-.15-1.08.16-1.23.69h0Z"/>
  <path class="cls-1" d="m226.66,43.45c-2.12,3.23-3.58,6.73-5.13,10.11-1.55,3.38-3.2,6.63-5.62,9.43-1.45,1.69-3.38,3.3-4.73,5.51-.12.22-.45.46-.93.84-.24.19-.51.43-.75.76-.24.33-.43.74-.52,1.22-.32,1.8-.81,3.34-1.65,4.48-.84,1.13-2,1.94-4,2.33-.61.11-1.13.45-1.49.84-.54.59-.82,1.28-1.06,1.92-.24.64-.44,1.25-.66,1.65-1.31,2.49-2.89,4.53-4.82,6.12-1.93,1.59-4.22,2.75-7.02,3.44-2.8.69-5.46,1.68-8.11,2.48-2.65.8-5.27,1.42-8.01,1.42h-.16c-.55,0-1,.44-1.01.99,0,.55.44,1,.99,1.01h.17c3.04,0,5.86-.68,8.59-1.5,2.72-.83,5.35-1.8,8-2.45,3.06-.75,5.65-2.05,7.82-3.84,2.17-1.79,3.91-4.06,5.32-6.73.44-.85.68-1.76.98-2.42.15-.33.3-.58.44-.73.14-.15.23-.2.39-.23,2.4-.44,4.13-1.58,5.24-3.11,1.12-1.53,1.65-3.38,2-5.31.04-.18.09-.29.17-.4.12-.17.35-.36.68-.61.32-.25.75-.58,1.09-1.12,1.12-1.85,2.93-3.41,4.54-5.24,2.64-3.04,4.36-6.49,5.93-9.91,1.57-3.42,3-6.82,4.99-9.84.3-.46.18-1.08-.29-1.38-.46-.3-1.08-.18-1.38.29h0Z"/>
  <path class="cls-1" d="m186.01,41.9c-.11,1.05-.63,1.85-1.4,2.69-.76.83-1.76,1.62-2.58,2.62-1.73,2.11-2.58,4.26-2.57,6.53,0,1.16.21,2.34.59,3.56.16.53.72.82,1.25.66.53-.16.82-.72.66-1.25-.33-1.08-.5-2.05-.5-2.97,0-1.77.6-3.38,2.12-5.27.62-.77,1.59-1.55,2.49-2.52.9-.96,1.76-2.2,1.93-3.85.06-.55-.34-1.04-.89-1.1-.55-.06-1.04.34-1.1.89h0Z"/>
  <path class="cls-1" d="m283.27,70.82c-.91.99-1.84,1.78-2.78,2.32-.94.53-1.88.82-2.92.82-.94,0-1.97-.24-3.15-.81-1.02-.5-2.14-.79-3.29-.79-1.03,0-2.08.24-3.08.76-.49.25-.68.86-.43,1.35.25.49.86.68,1.35.43.72-.37,1.44-.53,2.16-.54.81,0,1.63.21,2.42.59,1.4.68,2.75,1.01,4.03,1.01,1.42,0,2.73-.41,3.91-1.08,1.18-.68,2.25-1.61,3.25-2.7.37-.41.35-1.04-.06-1.41-.41-.37-1.04-.35-1.41.06h0Z"/>
  <path class="cls-1" d="m167.07,95.1c-1.24.59-2.2,1.44-2.97,2.38-1.15,1.41-1.93,2.99-2.76,4.36-.83,1.38-1.69,2.5-2.9,3.16-1.88,1.04-3.94,1.94-5.86,3.13-1.91,1.19-3.7,2.7-4.89,4.95-2,3.76-5.3,5.96-8.78,6.22-4.32.33-8,1.8-11.36,3.69-3.36,1.88-6.42,4.17-9.58,6.19-.73.46-1.5.73-2.35.93-.85.2-1.79.31-2.78.49-7.62,1.38-15.68.71-23.62,2.9-1,.29-2.06.54-3,1.17-.47.32-.9.75-1.2,1.31-.31.56-.48,1.22-.52,1.96-.02.4-.05.81-.05,1.24,0,.88.08,1.82.61,2.68.26.43.65.81,1.14,1.08.49.27,1.06.43,1.71.49.31.03.63.19,1.09.45.23.13.49.28.81.4.32.12.7.22,1.12.22h.09s-.03-1-.03-1l-1,.03c.04,1.18.06,2.07.17,2.83.08.57.22,1.08.51,1.56.22.35.54.65.9.85.54.3,1.13.43,1.82.52.69.09,1.51.14,2.54.2.55.03,1.03-.38,1.06-.94.03-.55-.38-1.03-.94-1.06-1.21-.07-2.11-.13-2.7-.24-.45-.07-.71-.17-.82-.25-.09-.06-.12-.1-.18-.19-.08-.14-.18-.47-.24-1.03-.06-.56-.09-1.33-.12-2.32-.02-.55-.48-.98-1.03-.97h-.03c-.12,0-.24-.02-.39-.08-.23-.09-.53-.27-.92-.48-.39-.21-.89-.44-1.52-.5-.44-.04-.73-.14-.93-.25-.29-.17-.42-.34-.54-.66-.12-.32-.17-.8-.17-1.34,0-.35.02-.73.04-1.12.03-.52.14-.86.28-1.12.21-.38.52-.63,1.03-.88.51-.24,1.19-.43,1.95-.64,7.47-2.09,15.47-1.45,23.43-2.86.93-.17,1.89-.29,2.88-.51.99-.23,2-.57,2.98-1.19,3.24-2.07,6.27-4.33,9.48-6.13,3.21-1.8,6.58-3.14,10.53-3.44,4.24-.32,8.13-3,10.4-7.28.97-1.83,2.43-3.1,4.18-4.19,1.75-1.09,3.78-1.99,5.77-3.08,1.13-.62,1.98-1.49,2.68-2.43,1.05-1.41,1.79-2.97,2.66-4.31.86-1.35,1.8-2.44,3.18-3.1.5-.24.71-.83.47-1.33-.24-.5-.83-.71-1.33-.47h0Z"/>
  <path class="cls-1" d="m164.99,83.66c.04-.24.05-.46.05-.67,0-.57-.08-1.05-.07-1.42,0-.21.02-.38.06-.52.04-.14.1-.25.22-.38.37-.41.33-1.04-.08-1.41-.41-.37-1.04-.33-1.41.08-.32.35-.53.75-.64,1.14-.12.39-.15.76-.15,1.1,0,.57.08,1.05.07,1.42,0,.13,0,.25-.02.35-.09.55.28,1.06.83,1.15.55.09,1.06-.28,1.15-.83h0Z"/>
  <path class="cls-1" d="m38.52,127.75c-.29,0-.58,0-.86,0-5.11,0-10.08.9-14.93,2.33-.85.25-1.69.63-2.43,1.21-.74.58-1.36,1.37-1.73,2.36-.19.52.07,1.09.58,1.29.52.19,1.09-.07,1.29-.58.25-.65.62-1.11,1.1-1.5.48-.38,1.09-.67,1.76-.86,4.71-1.39,9.48-2.25,14.36-2.25.27,0,.55,0,.82,0,.55.01,1.01-.43,1.02-.98.01-.55-.43-1.01-.98-1.02h0Z"/>
  <path class="cls-1" d="m134.98,120.21c.33-1.56,1.25-2.85,2.34-4.22,1.08-1.36,2.34-2.78,3.07-4.64.25-.64.57-1.34.83-2.1.26-.76.48-1.57.48-2.45,0-.94-.27-1.95-.94-2.86-.58-.81-1.34-1.36-2.14-1.67-.8-.31-1.62-.41-2.4-.41-.83,0-1.64.11-2.37.22-2.65.39-5.2,1.19-7.66,2-1.23.4-2.36.9-3.47,1.28-1.11.38-2.17.65-3.27.65-.13,0-.27,0-.41-.01-.55-.03-1.03.39-1.06.94-.03.55.39,1.03.94,1.06.18.01.35.02.53.02,1.43,0,2.72-.34,3.92-.76,1.2-.42,2.33-.91,3.43-1.27,2.45-.8,4.9-1.56,7.34-1.92.7-.1,1.41-.19,2.07-.19.62,0,1.19.08,1.67.27.48.19.88.48,1.25.98.42.59.55,1.1.56,1.68,0,.54-.14,1.15-.37,1.8-.22.65-.53,1.33-.8,2.03-.56,1.44-1.65,2.71-2.78,4.12-1.12,1.4-2.29,2.97-2.74,5.05-.12.54.23,1.07.77,1.19.54.12,1.07-.23,1.19-.77h0Z"/>
  <path class="cls-1" d="m109,140.5v-2.12h-1l-.23.97c.84.19,1.91.65,2.95,1.08.52.22,1.04.42,1.55.59.51.16,1,.28,1.53.28.32,0,.65-.05.99-.21.81-.38,1.51-.49,2.24-.49,1.16-.01,2.41.34,3.92.35h.05s0,0,0,0h.06c1.8,0,3.2.52,4.32,1.37,1.12.86,1.97,2.09,2.56,3.58,1.06,2.71,2.12,5.42,2.66,8.25.18.96.27,1.86.27,2.71,0,1.89-.43,3.51-1.3,4.95-.87,1.44-2.19,2.73-4.05,3.87-1.83,1.12-3.74,2.19-5.61,3.33-.77.47-1.48,1.03-2.18,1.45-.7.42-1.34.68-1.9.67-.31,0-.61-.06-.97-.24-.35-.18-.76-.49-1.22-.99-.18-.2-.42-.35-.65-.43-.23-.08-.45-.1-.65-.11-.66.01-1.2.23-1.76.44-.55.22-1.08.47-1.48.62-1.11.42-1.98.59-2.64.59-.47,0-.85-.08-1.21-.23-.53-.22-1.03-.62-1.59-1.27-.55-.64-1.14-1.52-1.81-2.58-.21-.33-.42-.64-.57-.92-.15-.28-.24-.51-.26-.68-.39-2.97-1.44-5.5-3.1-7.54-1.67-2.04-3.93-3.56-6.69-4.62l-.36.93.98.2c.4-1.99.76-3.82,1.13-5.64.11-.54-.24-1.07-.78-1.18-.54-.11-1.07.24-1.18.78-.37,1.83-.73,3.65-1.13,5.64-.1.48.17.95.62,1.13,2.5.96,4.45,2.3,5.86,4.02,1.41,1.73,2.32,3.86,2.67,6.53.07.54.28.99.49,1.38.21.39.45.73.63,1.03.92,1.45,1.72,2.65,2.69,3.55.49.45,1.02.82,1.63,1.08.61.26,1.27.39,1.98.38,1.01,0,2.09-.25,3.35-.72.52-.2,1.05-.45,1.53-.64.47-.2.91-.31,1.01-.3h.02s.05-.36.05-.36l-.26.24c.08.09.2.13.21.13l.05-.36-.26.24c.58.64,1.18,1.12,1.8,1.43.62.31,1.26.46,1.87.46,1.14,0,2.1-.46,2.93-.96.83-.5,1.56-1.08,2.19-1.46,1.82-1.11,3.73-2.18,5.61-3.33,2.07-1.26,3.66-2.77,4.72-4.55,1.06-1.77,1.58-3.79,1.58-5.98,0-.99-.1-2.01-.3-3.08-.58-3.08-1.7-5.91-2.76-8.61-.68-1.75-1.73-3.31-3.2-4.44-1.46-1.13-3.34-1.79-5.54-1.79h-.07s0,0,0,0h-.04c-1.16.01-2.41-.34-3.92-.35-.95,0-2,.16-3.1.69h0s0,0,0,0h0s0,0,0,0h0s-.13,0-.13,0c-.18,0-.52-.06-.92-.19-.61-.19-1.38-.52-2.18-.85-.8-.33-1.64-.66-2.48-.86-.3-.07-.61,0-.85.19-.24.19-.38.48-.38.78,0,.78,0,1.45,0,2.12,0,.55.45,1,1,1s1-.45,1-1h0Z"/>
  <path class="cls-1" d="m103.22,109.03c-1.77-.41-3.52-.58-5.23-.58-5.47,0-10.65,1.67-15.66,2.73-7.75,1.65-15.18,4.5-22.62,6.9-1.58.51-3.21,1.33-4.46,2.76-.36.42-.32,1.05.1,1.41.42.36,1.05.32,1.41-.1.91-1.05,2.19-1.72,3.57-2.17,7.51-2.43,14.88-5.24,22.42-6.85,5.14-1.1,10.19-2.7,15.25-2.69,1.59,0,3.18.15,4.78.52.54.12,1.08-.21,1.2-.75.12-.54-.21-1.08-.75-1.2h0Z"/>
</svg>