<?xml version="1.0" encoding="utf-8"?>
<!-- Generator: Adobe Illustrator 25.2.0, SVG Export Plug-In . SVG Version: 6.00 Build 0)  -->
<svg version="1.1" id="Layer_1" xmlns="http://www.w3.org/2000/svg" xmlns:xlink="http://www.w3.org/1999/xlink" x="0px" y="0px"
	 viewBox="0 0 248 43.4" style="enable-background:new 0 0 248 43.4;" xml:space="preserve">
<path d="M4,37.4v-3h244v3H4z M4,43.4v-3h244v3H4z M7,3.3v10.1H4V3.3H0V0.4h11v2.9H7z M25,8.4h-9v5h-3v-13h3v5h9v-5h3v13h-3V8.4z
	 M30,13.4v-13h9v3h-6v2h5v3h-5v2h6v3H30z M48.8,5.1H48v8.3h-3v-13h3.8l7.6,8.1H57V0.4h3v13h-3.5L48.8,5.1z M62,13.4v-13h9v3h-6v2h5
	v3h-5v2h6v3H62z M72.2,0.4h3.6l2.8,10.3h0.8l2.6-10.3h6.1L91,10.7h0.8l2.4-10.3h3.7l-3.6,13h-5.8L85.5,3h-0.9l-2.7,10.3h-5.8
	L72.2,0.4z M102.6,4.4c0-2.7,2.2-4.2,5-4.2c1.5,0,3.1,0.3,4.5,1l-0.6,2.8c-1.2-0.7-2.6-1-4-1c-1,0-1.7,0.4-1.7,1.1
	c0,2.1,6.7,0.9,6.7,5.3c0,2.3-1.7,4.4-5.1,4.4c-1.5,0-3.1-0.2-4.5-0.8l0.1-3c1.4,0.7,2.9,1,4.5,1c1.4,0,1.8-0.5,1.8-1.1
	C109.3,7.8,102.6,8.9,102.6,4.4z M123.8,13.2c-1.1,0.4-2.2,0.5-3.4,0.4c-3.7,0-6.8-3-6.8-6.7s3-6.8,6.7-6.8c0.1,0,0.2,0,0.4,0
	c1.1,0,2.2,0.1,3.3,0.4l-0.3,3c-0.9-0.3-1.9-0.5-2.9-0.4c-1.9-0.2-3.6,1.2-3.8,3.1c0,0.2,0,0.5,0,0.7c-0.1,2,1.4,3.7,3.4,3.8
	c0.2,0,0.4,0,0.5,0c1,0,2-0.1,2.9-0.5L123.8,13.2z M138,8.4h-9v5h-3v-13h3v5h9v-5h3v13h-3V8.4z M149.8,0.1c4.5,0,7.7,2.3,7.7,6.7
	c0,4.6-3.5,6.8-7.7,6.8c-4.3,0-7.7-2.3-7.7-6.8C142.1,2.6,145.3,0.1,149.8,0.1z M149.8,10.9c2.5,0,4.4-1.3,4.4-4.2
	c0-2.6-1.8-3.9-4.4-3.9s-4.4,1.3-4.4,4C145.4,9.6,147.3,10.9,149.8,10.9L149.8,10.9z M166.3,0.1c4.5,0,7.7,2.3,7.7,6.7
	c0,4.6-3.5,6.8-7.7,6.8c-4.3,0-7.7-2.3-7.7-6.8C158.6,2.6,161.8,0.1,166.3,0.1z M166.3,10.9c2.6,0,4.4-1.3,4.4-4.2
	c0-2.6-1.8-3.9-4.4-3.9s-4.4,1.3-4.4,4C161.9,9.6,163.8,10.9,166.3,10.9L166.3,10.9z M176,0.4h3v10h10v3h-13V0.4z"/>
<g>
	<path d="M7,25.4v5H4v-13h14v3H7v2h10v3H7z M25.4,17c3.9,0,6.7,2.3,6.7,6.8c0,4.6-3.1,6.9-6.7,6.9c-3.6,0-6.7-2.3-6.7-6.9
		C18.7,19.5,21.4,17,25.4,17z M25.4,27.9c1.9,0,3.4-1.3,3.4-4.2c0-2.6-1.4-3.9-3.3-3.9S22,21,22,23.8C22,26.6,23.5,27.9,25.4,27.9z
		 M34,17.4h8c2.3-0.3,4.3,1.3,4.6,3.6c0,0.2,0,0.5,0,0.7c0,1.7-0.9,3.2-2.3,4.1l2.3,4.6H43l-1.8-4H37v4h-3V17.4z M37,20.4v3h4.4
		c0.8,0.2,1.6-0.2,1.8-1c0.1-0.2,0.1-0.4,0.1-0.6c0-0.7-0.4-1.6-1.9-1.4H37z M52.2,21.3c0-2.8,3-4.3,7.2-4.3c2.8,0,5.6,0.4,6.6,1
		l-0.6,2.8c-1.1-0.7-3.9-1-6.1-1c-2.8,0-3.8,0.4-3.8,1.1c0,2.4,11,0.1,11,5.3c0,2.3-2.3,4.4-7.3,4.4c-2.3,0-5.3-0.2-6.7-0.8l0.1-3
		c2.1,0.8,4.4,1.1,6.6,1c2.9,0,3.9-0.5,3.9-1.1C63.2,24.5,52.2,26.7,52.2,21.3L52.2,21.3z M74.2,17c3.9,0,6.7,2.3,6.7,6.8
		c0,4.6-3.1,6.9-6.7,6.9c-3.6,0-6.7-2.3-6.7-6.9C67.5,19.5,70.3,17,74.2,17z M74.2,27.9c1.9,0,3.4-1.3,3.4-4.2
		c0-2.6-1.4-3.9-3.3-3.9s-3.3,1.3-3.3,4C70.9,26.6,72.3,27.9,74.2,27.9z M94.5,30.1c-1.4,0.4-2.9,0.6-4.4,0.6c-5.2,0-8.1-3-8.1-6.8
		c0-3.9,3-6.8,8.4-6.8c1.4,0,2.9,0.1,4.3,0.4l-0.3,2.9c-1.3-0.3-2.7-0.5-4-0.5c-3.4,0-5,1.5-5,3.9c0,2.5,1.8,3.9,4.9,3.9
		c1.4,0,2.8-0.2,4.2-0.6L94.5,30.1z M96,17.4h3v13h-3V17.4z M113.5,27.7h-8.2l-1.2,2.7h-3.5l6.4-13h5l6.2,13h-3.6L113.5,27.7z
		 M106.5,25.1h5.7l-2.3-5.1h-1L106.5,25.1z M119,17.4h3v10h9v3h-12V17.4z M137,17.4h7.8c3.2,0,4.6,2,4.6,4.4c0,1.7-0.9,3.2-2.3,4.1
		l2.3,4.6h-3.7l-1.8-4H140v4h-3V17.4z M140,20.4v3h4.2c0.8,0.2,1.6-0.2,1.8-1c0.1-0.2,0.1-0.4,0.1-0.6c0-0.7-0.4-1.6-1.9-1.4H140z
		 M151,30.4v-13h10v3h-7v2h6v3h-6v2h7v3H151z M161.7,21.3c0-2.8,3-4.3,7.2-4.3c2.8,0,5.6,0.4,6.6,1l-0.6,2.8c-1.1-0.7-3.9-1-6.1-1
		c-2.8,0-3.8,0.4-3.8,1.1c0,2.4,11,0.1,11,5.3c0,2.3-2.3,4.4-7.3,4.4c-2.3,0-5.3-0.2-6.7-0.8l0.1-3c2.1,0.8,4.4,1.1,6.6,1
		c2.9,0,3.9-0.5,3.9-1.1C172.7,24.5,161.7,26.7,161.7,21.3z M178,30.4v-13h11v3h-8v2h7v3h-7v2h8v3H178z M202.7,27.4h-8.2l-1.2,3
		h-3.5l6.4-13h5l6.2,13h-3.6L202.7,27.4z M195.7,24.9h5.7l-2.3-4.9h-1L195.7,24.9z M209,17.4h5.9c3.1,0,4.4,2,4.4,4.4
		c0.1,1.7-0.8,3.3-2.3,4.1l2.3,4.6h-3.7l-1.8-4H212v4h-3V17.4z M212,20.4V24h2.1c1.3,0,1.8-1.4,1.8-2.2c-0.2-0.9-0.9-1.5-1.8-1.4
		H212z M233,30.1c-1.4,0.5-2.8,0.7-4.2,0.6c-5.2,0-8.1-3-8.1-6.8c0-3.9,3-6.8,8.4-6.8c1.4,0,2.9,0.1,4.3,0.4l-0.3,2.9
		c-1.3-0.3-2.7-0.5-4-0.5c-3.4,0-5,1.5-5,3.9c0,2.5,1.8,3.9,4.9,3.9c1.4,0,2.7-0.2,4-0.6L233,30.1z M245,25.4h-7v5h-3v-13h3v5h7v-5
		h3v13h-3V25.4z"/>
</g>
</svg>
