<?xml version="1.0" encoding="UTF-8"?>
<svg id="Layer_1" data-name="Layer 1" xmlns="http://www.w3.org/2000/svg" viewBox="0 0 248 93">
  <defs>
    <style>
      .cls-1 {
        fill: #fff;
      }
    </style>
  </defs>
  <path class="cls-1" d="m4,87.31v-3h244v3H4Zm0,6v-3h244v3H4Zm3-40.1v10.1h-3v-10.1H0v-2.9h11v2.9s-4,0-4,0Zm18,5.1h-9v5h-3v-13h3v5h9v-5h3v13h-3v-5Zm5,5v-13h9v3h-6v2h5v3h-5v2h6v3h-9Zm18.8-8.3h-.8v8.3h-3v-13h3.8l7.6,8.1h.6v-8.1h3v13h-3.5l-7.7-8.3Zm13.2,8.3v-13h9v3h-6v2h5v3h-5v2h6v3h-9Zm10.2-13h3.6l2.8,10.3h.8l2.6-10.3h6.1l2.9,10.3h.8l2.4-10.3h3.7l-3.6,13h-5.8l-3-10.4h-.9l-2.7,10.3h-5.8l-3.9-12.9Zm30.4,4c0-2.7,2.2-4.2,5-4.2,1.5,0,3.1.3,4.5,1l-.6,2.8c-1.2-.7-2.6-1-4-1-1,0-1.7.4-1.7,1.1,0,2.1,6.7.9,6.7,5.3,0,2.3-1.7,4.4-5.1,4.4-1.5,0-3.1-.2-4.5-.8l.1-3c1.4.7,2.9,1,4.5,1,1.4,0,1.8-.5,1.8-1.1,0-2.1-6.7-1-6.7-5.5Zm21.2,8.8c-1.1.4-2.2.5-3.4.4-3.7,0-6.8-3-6.8-6.7s3-6.8,6.7-6.8h.4c1.1,0,2.2.1,3.3.4l-.3,3c-.9-.3-1.9-.5-2.9-.4-1.9-.2-3.6,1.2-3.8,3.1v.7c-.1,2,1.4,3.7,3.4,3.8h.5c1,0,2-.1,2.9-.5v3Zm14.2-4.8h-9v5h-3v-13h3v5h9v-5h3v13h-3v-5Zm11.8-8.3c4.5,0,7.7,2.3,7.7,6.7s-3.5,6.8-7.7,6.8-7.7-2.3-7.7-6.8c0-4.2,3.2-6.7,7.7-6.7Zm0,10.8c2.5,0,4.4-1.3,4.4-4.2,0-2.6-1.8-3.9-4.4-3.9s-4.4,1.3-4.4,4c0,2.8,1.9,4.1,4.4,4.1h0Zm16.5-10.8c4.5,0,7.7,2.3,7.7,6.7s-3.5,6.8-7.7,6.8-7.7-2.3-7.7-6.8c0-4.2,3.2-6.7,7.7-6.7Zm0,10.8c2.6,0,4.4-1.3,4.4-4.2,0-2.6-1.8-3.9-4.4-3.9s-4.4,1.3-4.4,4c0,2.8,1.9,4.1,4.4,4.1h0Zm9.7-10.5h3v10h10v3h-13v-13Z"/>
  <path class="cls-1" d="m7,75.31v5h-3v-13h14v3H7v2h10v3H7Zm18.4-8.4c3.9,0,6.7,2.3,6.7,6.8s-3.1,6.9-6.7,6.9-6.7-2.3-6.7-6.9c0-4.3,2.7-6.8,6.7-6.8Zm0,10.9c1.9,0,3.4-1.3,3.4-4.2,0-2.6-1.4-3.9-3.3-3.9s-3.5,1.2-3.5,4,1.5,4.1,3.4,4.1Zm8.6-10.5h8c2.3-.3,4.3,1.3,4.6,3.6v.7c0,1.7-.9,3.2-2.3,4.1l2.3,4.6h-3.6l-1.8-4h-4.2v4h-3v-13Zm3,3v3h4.4c.8.2,1.6-.2,1.8-1,.1-.2.1-.4.1-.6,0-.7-.4-1.6-1.9-1.4h-4.4Zm15.2.9c0-2.8,3-4.3,7.2-4.3,2.8,0,5.6.4,6.6,1l-.6,2.8c-1.1-.7-3.9-1-6.1-1-2.8,0-3.8.4-3.8,1.1,0,2.4,11,.1,11,5.3,0,2.3-2.3,4.4-7.3,4.4-2.3,0-5.3-.2-6.7-.8l.1-3c2.1.8,4.4,1.1,6.6,1,2.9,0,3.9-.5,3.9-1.1.1-2.2-10.9,0-10.9-5.4h0Zm22-4.3c3.9,0,6.7,2.3,6.7,6.8s-3.1,6.9-6.7,6.9-6.7-2.3-6.7-6.9c0-4.3,2.8-6.8,6.7-6.8Zm0,10.9c1.9,0,3.4-1.3,3.4-4.2,0-2.6-1.4-3.9-3.3-3.9s-3.3,1.3-3.3,4c-.1,2.8,1.3,4.1,3.2,4.1Zm20.3,2.2c-1.4.4-2.9.6-4.4.6-5.2,0-8.1-3-8.1-6.8s3-6.8,8.4-6.8c1.4,0,2.9.1,4.3.4l-.3,2.9c-1.3-.3-2.7-.5-4-.5-3.4,0-5,1.5-5,3.9s1.8,3.9,4.9,3.9c1.4,0,2.8-.2,4.2-.6v3Zm1.5-12.7h3v13h-3v-13Zm17.5,10.3h-8.2l-1.2,2.7h-3.5l6.4-13h5l6.2,13h-3.6l-1.1-2.7Zm-7-2.6h5.7l-2.3-5.1h-1l-2.4,5.1Zm12.5-7.7h3v10h9v3h-12v-13Zm18,0h7.8c3.2,0,4.6,2,4.6,4.4,0,1.7-.9,3.2-2.3,4.1l2.3,4.6h-3.7l-1.8-4h-3.9v4h-3v-13.1Zm3,3v3h4.2c.8.2,1.6-.2,1.8-1,.1-.2.1-.4.1-.6,0-.7-.4-1.6-1.9-1.4h-4.2Zm11,10v-13h10v3h-7v2h6v3h-6v2h7v3h-10Zm10.7-9.1c0-2.8,3-4.3,7.2-4.3,2.8,0,5.6.4,6.6,1l-.6,2.8c-1.1-.7-3.9-1-6.1-1-2.8,0-3.8.4-3.8,1.1,0,2.4,11,.1,11,5.3,0,2.3-2.3,4.4-7.3,4.4-2.3,0-5.3-.2-6.7-.8l.1-3c2.1.8,4.4,1.1,6.6,1,2.9,0,3.9-.5,3.9-1.1.1-2.2-10.9,0-10.9-5.4Zm16.3,9.1v-13h11v3h-8v2h7v3h-7v2h8v3h-11Zm24.7-3h-8.2l-1.2,3h-3.5l6.4-13h5l6.2,13h-3.6l-1.1-3Zm-7-2.5h5.7l-2.3-4.9h-1l-2.4,4.9Zm13.3-7.5h5.9c3.1,0,4.4,2,4.4,4.4.1,1.7-.8,3.3-2.3,4.1l2.3,4.6h-3.7l-1.8-4h-1.8v4h-3v-13.1Zm3,3v3.6h2.1c1.3,0,1.8-1.4,1.8-2.2-.2-.9-.9-1.5-1.8-1.4h-2.1Zm21,9.7c-1.4.5-2.8.7-4.2.6-5.2,0-8.1-3-8.1-6.8s3-6.8,8.4-6.8c1.4,0,2.9.1,4.3.4l-.3,2.9c-1.3-.3-2.7-.5-4-.5-3.4,0-5,1.5-5,3.9s1.8,3.9,4.9,3.9c1.4,0,2.7-.2,4-.6v3Zm12-4.7h-7v5h-3v-13h3v5h7v-5h3v13h-3v-5Z"/>
</svg>